  0
SECTION
  2
HEADER
  9
$ACADVER
  1
AC1009
  0
ENDSEC
  0
SECTION
  2
ENTITIES
  0
CIRCLE
  5
90
  8
Layer_0
  62
1
  10
220.12027
  20
165.30856
  30
0
  40
1.5
  0
CIRCLE
  5
90
  8
Layer_0
  62
1
  10
358.12027
  20
165.30856
  30
0
  40
1.5
  0
CIRCLE
  5
90
  8
Layer_0
  62
1
  10
220.12027
  20
235.30856
  30
0
  40
1.5
  0
CIRCLE
  5
90
  8
Layer_0
  62
1
  10
358.12027
  20
235.30856
  30
0
  40
1.5
  0
POLYLINE
  5
90
  8
Layer_0
  62
1
  66
1
  10
0
  20
0
  30
0
  0
VERTEX
  5
90
  8
Layer_0
  10
237.22028
  20
157.30856
  0
VERTEX
  5
91
  8
Layer_0
  10
237.22028
  20
160.30856
  0
VERTEX
  5
92
  8
Layer_0
  10
267.02026
  20
160.30856
  0
VERTEX
  5
93
  8
Layer_0
  10
267.02026
  20
157.30856
  0
VERTEX
  5
94
  8
Layer_0
  10
311.22028
  20
157.30856
  0
VERTEX
  5
95
  8
Layer_0
  10
311.22028
  20
160.30856
  0
VERTEX
  5
96
  8
Layer_0
  10
341.02026
  20
160.30856
  0
VERTEX
  5
97
  8
Layer_0
  10
341.02026
  20
157.30856
  0
VERTEX
  5
98
  8
Layer_0
  10
366.12027
  20
157.30856
  0
VERTEX
  5
99
  8
Layer_0
  10
366.12027
  20
165.40857
  0
VERTEX
  5
9a
  8
Layer_0
  10
363.12027
  20
165.40857
  0
VERTEX
  5
9b
  8
Layer_0
  10
363.12027
  20
195.20856
  0
VERTEX
  5
9c
  8
Layer_0
  10
366.12027
  20
195.20856
  0
VERTEX
  5
9d
  8
Layer_0
  10
366.12027
  20
205.40857
  0
VERTEX
  5
9e
  8
Layer_0
  10
363.12027
  20
205.40857
  0
VERTEX
  5
9f
  8
Layer_0
  10
363.12027
  20
235.20856
  0
VERTEX
  5
a0
  8
Layer_0
  10
366.12027
  20
235.20856
  0
VERTEX
  5
a1
  8
Layer_0
  10
366.12027
  20
243.30856
  0
VERTEX
  5
a2
  8
Layer_0
  10
341.02026
  20
243.30856
  0
VERTEX
  5
a3
  8
Layer_0
  10
341.02026
  20
240.30856
  0
VERTEX
  5
a4
  8
Layer_0
  10
311.22028
  20
240.30856
  0
VERTEX
  5
a5
  8
Layer_0
  10
311.22028
  20
243.30856
  0
VERTEX
  5
a6
  8
Layer_0
  10
267.02026
  20
243.30856
  0
VERTEX
  5
a7
  8
Layer_0
  10
267.02026
  20
240.30856
  0
VERTEX
  5
a8
  8
Layer_0
  10
237.22028
  20
240.30856
  0
VERTEX
  5
a9
  8
Layer_0
  10
237.22028
  20
243.30856
  0
VERTEX
  5
aa
  8
Layer_0
  10
212.12027
  20
243.30856
  0
VERTEX
  5
ab
  8
Layer_0
  10
212.12027
  20
235.20856
  0
VERTEX
  5
ac
  8
Layer_0
  10
215.12027
  20
235.20856
  0
VERTEX
  5
ad
  8
Layer_0
  10
215.12027
  20
205.40857
  0
VERTEX
  5
ae
  8
Layer_0
  10
212.12027
  20
205.40857
  0
VERTEX
  5
af
  8
Layer_0
  10
212.12027
  20
195.20856
  0
VERTEX
  5
b0
  8
Layer_0
  10
215.12027
  20
195.20856
  0
VERTEX
  5
b1
  8
Layer_0
  10
215.12027
  20
165.40857
  0
VERTEX
  5
b2
  8
Layer_0
  10
212.12027
  20
165.40857
  0
VERTEX
  5
b3
  8
Layer_0
  10
212.12027
  20
157.30856
  0
VERTEX
  5
b4
  8
Layer_0
  10
237.22028
  20
157.30856
  0
SEQEND
  0
ENDSEC
  0
EOF
