  0
SECTION
  2
HEADER
  9
$ACADVER
  1
AC1009
  0
ENDSEC
  0
SECTION
  2
ENTITIES
  0
CIRCLE
  5
90
  8
Layer_0
  62
1
  10
189.35736
  20
138.12241
  30
0
  40
1.5
  0
CIRCLE
  5
90
  8
Layer_0
  62
1
  10
327.35736
  20
138.12241
  30
0
  40
1.5
  0
CIRCLE
  5
90
  8
Layer_0
  62
1
  10
189.35736
  20
293.12241
  30
0
  40
1.5
  0
CIRCLE
  5
90
  8
Layer_0
  62
1
  10
327.35736
  20
293.12241
  30
0
  40
1.5
  0
CIRCLE
  5
90
  8
Layer_0
  62
1
  10
189.35736
  20
148.12241
  30
0
  40
1.5
  0
CIRCLE
  5
90
  8
Layer_0
  62
1
  10
281.35736
  20
148.12241
  30
0
  40
1.5
  0
CIRCLE
  5
90
  8
Layer_0
  62
1
  10
281.35736
  20
220.12241
  30
0
  40
1.5
  0
CIRCLE
  5
90
  8
Layer_0
  62
1
  10
189.35736
  20
220.12241
  30
0
  40
1.5
  0
CIRCLE
  5
90
  8
Layer_0
  62
1
  10
283.40735
  20
240.12241
  30
0
  40
2.5
  0
CIRCLE
  5
90
  8
Layer_0
  62
1
  10
195.40736
  20
240.12241
  30
0
  40
2.5
  0
CIRCLE
  5
90
  8
Layer_0
  62
1
  10
195.40736
  20
271.12241
  30
0
  40
2.5
  0
CIRCLE
  5
90
  8
Layer_0
  62
1
  10
283.40735
  20
271.12241
  30
0
  40
2.5
  0
CIRCLE
  5
90
  8
Layer_0
  62
1
  10
310.45737
  20
283.07239
  30
0
  40
2.5
  0
CIRCLE
  5
90
  8
Layer_0
  62
1
  10
310.45737
  20
195.0724
  30
0
  40
2.5
  0
POLYLINE
  5
90
  8
Layer_0
  62
1
  66
1
  10
0
  20
0
  30
0
  0
VERTEX
  5
90
  8
Layer_0
  10
206.35736
  20
133.12241
  0
VERTEX
  5
91
  8
Layer_0
  10
206.35736
  20
130.12241
  0
VERTEX
  5
92
  8
Layer_0
  10
236.35736
  20
130.12241
  0
VERTEX
  5
93
  8
Layer_0
  10
236.35736
  20
133.12241
  0
VERTEX
  5
94
  8
Layer_0
  10
280.35736
  20
133.12241
  0
VERTEX
  5
95
  8
Layer_0
  10
280.35736
  20
130.12241
  0
VERTEX
  5
96
  8
Layer_0
  10
310.35736
  20
130.12241
  0
VERTEX
  5
97
  8
Layer_0
  10
310.35736
  20
133.12241
  0
VERTEX
  5
98
  8
Layer_0
  10
335.35736
  20
133.12241
  0
VERTEX
  5
99
  8
Layer_0
  10
335.35736
  20
159.47241
  0
VERTEX
  5
9a
  8
Layer_0
  10
332.35736
  20
159.47241
  0
VERTEX
  5
9b
  8
Layer_0
  10
332.35736
  20
189.2724
  0
VERTEX
  5
9c
  8
Layer_0
  10
335.35736
  20
189.2724
  0
VERTEX
  5
9d
  8
Layer_0
  10
335.35736
  20
241.97241
  0
VERTEX
  5
9e
  8
Layer_0
  10
332.35736
  20
241.97241
  0
VERTEX
  5
9f
  8
Layer_0
  10
332.35736
  20
271.7724
  0
VERTEX
  5
a0
  8
Layer_0
  10
335.35736
  20
271.7724
  0
VERTEX
  5
a1
  8
Layer_0
  10
335.35736
  20
298.12241
  0
VERTEX
  5
a2
  8
Layer_0
  10
310.35736
  20
298.12241
  0
VERTEX
  5
a3
  8
Layer_0
  10
310.35736
  20
301.12241
  0
VERTEX
  5
a4
  8
Layer_0
  10
280.35736
  20
301.12241
  0
VERTEX
  5
a5
  8
Layer_0
  10
280.35736
  20
298.12241
  0
VERTEX
  5
a6
  8
Layer_0
  10
236.35736
  20
298.12241
  0
VERTEX
  5
a7
  8
Layer_0
  10
236.35736
  20
301.12241
  0
VERTEX
  5
a8
  8
Layer_0
  10
206.35736
  20
301.12241
  0
VERTEX
  5
a9
  8
Layer_0
  10
206.35736
  20
298.12241
  0
VERTEX
  5
aa
  8
Layer_0
  10
181.35736
  20
298.12241
  0
VERTEX
  5
ab
  8
Layer_0
  10
181.35736
  20
271.7724
  0
VERTEX
  5
ac
  8
Layer_0
  10
184.35736
  20
271.7724
  0
VERTEX
  5
ad
  8
Layer_0
  10
184.35736
  20
241.97241
  0
VERTEX
  5
ae
  8
Layer_0
  10
181.35736
  20
241.97241
  0
VERTEX
  5
af
  8
Layer_0
  10
181.35736
  20
189.2724
  0
VERTEX
  5
b0
  8
Layer_0
  10
184.35736
  20
189.2724
  0
VERTEX
  5
b1
  8
Layer_0
  10
184.35736
  20
159.47241
  0
VERTEX
  5
b2
  8
Layer_0
  10
181.35736
  20
159.47241
  0
VERTEX
  5
b3
  8
Layer_0
  10
181.35736
  20
133.12241
  0
VERTEX
  5
b4
  8
Layer_0
  10
206.35736
  20
133.12241
  0
SEQEND
  0
ENDSEC
  0
EOF
