  0
SECTION
  2
HEADER
  9
$ACADVER
  1
AC1009
  0
ENDSEC
  0
SECTION
  2
ENTITIES
  0
CIRCLE
  5
90
  8
Layer_0
  62
1
  10
223.91708
  20
232.15515
  30
0
  40
1.5
  0
CIRCLE
  5
90
  8
Layer_0
  62
1
  10
223.91708
  20
162.15515
  30
0
  40
1.5
  0
CIRCLE
  5
90
  8
Layer_0
  62
1
  10
378.91708
  20
162.15515
  30
0
  40
1.5
  0
CIRCLE
  5
90
  8
Layer_0
  62
1
  10
378.91708
  20
232.15515
  30
0
  40
1.5
  0
CIRCLE
  5
90
  8
Layer_0
  62
1
  10
276.30844
  20
187.12224
  30
0
  40
5.5
  0
POLYLINE
  5
90
  8
Layer_0
  62
1
  66
1
  10
0
  20
0
  30
0
  0
VERTEX
  5
90
  8
Layer_0
  10
218.91708
  20
232.15515
  0
VERTEX
  5
91
  8
Layer_0
  10
215.91708
  20
232.15515
  0
VERTEX
  5
92
  8
Layer_0
  10
215.91708
  20
202.15515
  0
VERTEX
  5
93
  8
Layer_0
  10
218.91708
  20
202.15515
  0
VERTEX
  5
94
  8
Layer_0
  10
218.91708
  20
192.15515
  0
VERTEX
  5
95
  8
Layer_0
  10
215.91708
  20
192.15515
  0
VERTEX
  5
96
  8
Layer_0
  10
215.91708
  20
162.15515
  0
VERTEX
  5
97
  8
Layer_0
  10
218.91708
  20
162.15515
  0
VERTEX
  5
98
  8
Layer_0
  10
218.91708
  20
159.41672
  0
VERTEX
  5
99
  8
Layer_0
  10
218.91708
  20
157.15515
  0
VERTEX
  5
9a
  8
Layer_0
  10
245.16708
  20
157.15515
  0
VERTEX
  5
9b
  8
Layer_0
  10
245.16708
  20
154.15515
  0
VERTEX
  5
9c
  8
Layer_0
  10
275.16708
  20
154.15515
  0
VERTEX
  5
9d
  8
Layer_0
  10
275.16708
  20
157.15515
  0
VERTEX
  5
9e
  8
Layer_0
  10
327.66708
  20
157.15515
  0
VERTEX
  5
9f
  8
Layer_0
  10
327.66708
  20
154.15515
  0
VERTEX
  5
a0
  8
Layer_0
  10
357.66708
  20
154.15515
  0
VERTEX
  5
a1
  8
Layer_0
  10
357.66708
  20
157.15515
  0
VERTEX
  5
a2
  8
Layer_0
  10
376.01709
  20
157.15515
  0
VERTEX
  5
a3
  8
Layer_0
  10
383.91708
  20
157.15515
  0
VERTEX
  5
a4
  8
Layer_0
  10
383.91708
  20
159.41672
  0
VERTEX
  5
a5
  8
Layer_0
  10
383.91708
  20
162.15515
  0
VERTEX
  5
a6
  8
Layer_0
  10
386.91708
  20
162.15515
  0
VERTEX
  5
a7
  8
Layer_0
  10
386.91708
  20
192.15515
  0
VERTEX
  5
a8
  8
Layer_0
  10
383.91708
  20
192.15515
  0
VERTEX
  5
a9
  8
Layer_0
  10
383.91708
  20
202.15515
  0
VERTEX
  5
aa
  8
Layer_0
  10
386.91708
  20
202.15515
  0
VERTEX
  5
ab
  8
Layer_0
  10
386.91708
  20
232.15515
  0
VERTEX
  5
ac
  8
Layer_0
  10
383.91708
  20
232.15515
  0
VERTEX
  5
ad
  8
Layer_0
  10
383.91708
  20
237.15515
  0
VERTEX
  5
ae
  8
Layer_0
  10
372.01709
  20
237.15515
  0
VERTEX
  5
af
  8
Layer_0
  10
372.01709
  20
240.15515
  0
VERTEX
  5
b0
  8
Layer_0
  10
342.01709
  20
240.15515
  0
VERTEX
  5
b1
  8
Layer_0
  10
342.01709
  20
237.15515
  0
VERTEX
  5
b2
  8
Layer_0
  10
310.81708
  20
237.15515
  0
VERTEX
  5
b3
  8
Layer_0
  10
310.81708
  20
240.15515
  0
VERTEX
  5
b4
  8
Layer_0
  10
280.81708
  20
240.15515
  0
VERTEX
  5
b5
  8
Layer_0
  10
280.81708
  20
237.15515
  0
VERTEX
  5
b6
  8
Layer_0
  10
256.81708
  20
237.15515
  0
VERTEX
  5
b7
  8
Layer_0
  10
256.81708
  20
240.15515
  0
VERTEX
  5
b8
  8
Layer_0
  10
226.81708
  20
240.15515
  0
VERTEX
  5
b9
  8
Layer_0
  10
226.81708
  20
237.15515
  0
VERTEX
  5
ba
  8
Layer_0
  10
218.91708
  20
237.15515
  0
VERTEX
  5
bb
  8
Layer_0
  10
218.91708
  20
232.15515
  0
SEQEND
  0
POLYLINE
  5
bd
  8
Layer_0
  62
1
  66
1
  10
0
  20
0
  30
0
  0
VERTEX
  5
bd
  8
Layer_0
  10
383.91708
  20
202.15515
  0
VERTEX
  5
be
  8
Layer_0
  10
386.91708
  20
202.15515
  0
VERTEX
  5
bf
  8
Layer_0
  10
386.91708
  20
232.15515
  0
VERTEX
  5
c0
  8
Layer_0
  10
383.91708
  20
232.15515
  0
SEQEND
  0
POLYLINE
  5
c2
  8
Layer_0
  62
1
  66
1
  10
0
  20
0
  30
0
  0
VERTEX
  5
c2
  8
Layer_0
  10
226.91708
  20
237.15515
  0
VERTEX
  5
c3
  8
Layer_0
  10
218.91708
  20
237.15515
  0
SEQEND
  0
POLYLINE
  5
c5
  8
Layer_0
  62
1
  66
1
  10
0
  20
0
  30
0
  0
VERTEX
  5
c5
  8
Layer_0
  10
383.91708
  20
237.15515
  0
VERTEX
  5
c6
  8
Layer_0
  10
371.91708
  20
237.15515
  0
SEQEND
  0
POLYLINE
  5
c8
  8
Layer_0
  62
1
  66
1
  10
0
  20
0
  30
0
  0
VERTEX
  5
c8
  8
Layer_0
  10
264.91708
  20
176.15515
  0
VERTEX
  5
c9
  8
Layer_0
  10
246.91708
  20
176.15515
  0
VERTEX
  5
ca
  8
Layer_0
  10
246.91708
  20
158.15515
  0
VERTEX
  5
cb
  8
Layer_0
  10
264.91708
  20
158.15515
  0
VERTEX
  5
cc
  8
Layer_0
  10
264.91708
  20
176.15515
  0
SEQEND
  0
POLYLINE
  5
ce
  8
Layer_0
  62
1
  66
1
  10
0
  20
0
  30
0
  0
VERTEX
  5
ce
  8
Layer_0
  10
290.76395
  20
211.15515
  0
VERTEX
  5
cf
  8
Layer_0
  10
301.76395
  20
211.15515
  0
VERTEX
  5
d0
  8
Layer_0
  10
301.76395
  20
182.15515
  0
VERTEX
  5
d1
  8
Layer_0
  10
290.76395
  20
182.15515
  0
VERTEX
  5
d2
  8
Layer_0
  10
290.76395
  20
211.15515
  0
SEQEND
  0
ENDSEC
  0
EOF
