  0
SECTION
  2
HEADER
  9
$ACADVER
  1
AC1009
  0
ENDSEC
  0
SECTION
  2
ENTITIES
  0
CIRCLE
  5
90
  8
Layer_0
  62
1
  10
211.62027
  20
235.33339
  30
0
  40
1.5
  0
CIRCLE
  5
90
  8
Layer_0
  62
1
  10
211.62027
  20
165.33339
  30
0
  40
1.5
  0
CIRCLE
  5
90
  8
Layer_0
  62
1
  10
366.62027
  20
165.33339
  30
0
  40
1.5
  0
CIRCLE
  5
90
  8
Layer_0
  62
1
  10
366.62027
  20
235.33339
  30
0
  40
1.5
  0
CIRCLE
  5
90
  8
Layer_0
  62
1
  10
252.62027
  20
221.33339
  30
0
  40
1.5
  0
CIRCLE
  5
90
  8
Layer_0
  62
1
  10
216.62027
  20
221.33339
  30
0
  40
1.5
  0
CIRCLE
  5
90
  8
Layer_0
  62
1
  10
252.62027
  20
185.33339
  30
0
  40
1.5
  0
CIRCLE
  5
90
  8
Layer_0
  62
1
  10
216.62027
  20
185.33339
  30
0
  40
1.5
  0
POLYLINE
  5
90
  8
Layer_0
  62
1
  66
1
  10
0
  20
0
  30
0
  0
VERTEX
  5
90
  8
Layer_0
  10
206.62027
  20
235.33339
  0
VERTEX
  5
91
  8
Layer_0
  10
203.62027
  20
235.33339
  0
VERTEX
  5
92
  8
Layer_0
  10
203.62027
  20
205.33339
  0
VERTEX
  5
93
  8
Layer_0
  10
206.62027
  20
205.33339
  0
VERTEX
  5
94
  8
Layer_0
  10
206.62027
  20
195.33339
  0
VERTEX
  5
95
  8
Layer_0
  10
203.62027
  20
195.33339
  0
VERTEX
  5
96
  8
Layer_0
  10
203.62027
  20
165.33339
  0
VERTEX
  5
97
  8
Layer_0
  10
206.62027
  20
165.33339
  0
VERTEX
  5
98
  8
Layer_0
  10
206.62027
  20
162.59497
  0
VERTEX
  5
99
  8
Layer_0
  10
206.62027
  20
160.33339
  0
VERTEX
  5
9a
  8
Layer_0
  10
232.87027
  20
160.33339
  0
VERTEX
  5
9b
  8
Layer_0
  10
232.87027
  20
157.33339
  0
VERTEX
  5
9c
  8
Layer_0
  10
262.87027
  20
157.33339
  0
VERTEX
  5
9d
  8
Layer_0
  10
262.87027
  20
160.33339
  0
VERTEX
  5
9e
  8
Layer_0
  10
315.37027
  20
160.33339
  0
VERTEX
  5
9f
  8
Layer_0
  10
315.37027
  20
157.33339
  0
VERTEX
  5
a0
  8
Layer_0
  10
345.37027
  20
157.33339
  0
VERTEX
  5
a1
  8
Layer_0
  10
345.37027
  20
160.33339
  0
VERTEX
  5
a2
  8
Layer_0
  10
363.72028
  20
160.33339
  0
VERTEX
  5
a3
  8
Layer_0
  10
371.62027
  20
160.33339
  0
VERTEX
  5
a4
  8
Layer_0
  10
371.62027
  20
162.59497
  0
VERTEX
  5
a5
  8
Layer_0
  10
371.62027
  20
165.33339
  0
VERTEX
  5
a6
  8
Layer_0
  10
374.62027
  20
165.33339
  0
VERTEX
  5
a7
  8
Layer_0
  10
374.62027
  20
195.33339
  0
VERTEX
  5
a8
  8
Layer_0
  10
371.62027
  20
195.33339
  0
VERTEX
  5
a9
  8
Layer_0
  10
371.62027
  20
205.33339
  0
VERTEX
  5
aa
  8
Layer_0
  10
374.62027
  20
205.33339
  0
VERTEX
  5
ab
  8
Layer_0
  10
374.62027
  20
235.33339
  0
VERTEX
  5
ac
  8
Layer_0
  10
371.62027
  20
235.33339
  0
VERTEX
  5
ad
  8
Layer_0
  10
371.62027
  20
240.33339
  0
VERTEX
  5
ae
  8
Layer_0
  10
359.72028
  20
240.33339
  0
VERTEX
  5
af
  8
Layer_0
  10
359.72028
  20
243.33339
  0
VERTEX
  5
b0
  8
Layer_0
  10
329.72028
  20
243.33339
  0
VERTEX
  5
b1
  8
Layer_0
  10
329.72028
  20
240.33339
  0
VERTEX
  5
b2
  8
Layer_0
  10
298.52026
  20
240.33339
  0
VERTEX
  5
b3
  8
Layer_0
  10
298.52026
  20
243.33339
  0
VERTEX
  5
b4
  8
Layer_0
  10
268.52026
  20
243.33339
  0
VERTEX
  5
b5
  8
Layer_0
  10
268.52026
  20
240.33339
  0
VERTEX
  5
b6
  8
Layer_0
  10
244.52026
  20
240.33339
  0
VERTEX
  5
b7
  8
Layer_0
  10
244.52026
  20
243.33339
  0
VERTEX
  5
b8
  8
Layer_0
  10
214.52026
  20
243.33339
  0
VERTEX
  5
b9
  8
Layer_0
  10
214.52026
  20
240.33339
  0
VERTEX
  5
ba
  8
Layer_0
  10
206.62027
  20
240.33339
  0
VERTEX
  5
bb
  8
Layer_0
  10
206.62027
  20
235.33339
  0
SEQEND
  0
POLYLINE
  5
bd
  8
Layer_0
  62
1
  66
1
  10
0
  20
0
  30
0
  0
VERTEX
  5
bd
  8
Layer_0
  10
371.62027
  20
205.33339
  0
VERTEX
  5
be
  8
Layer_0
  10
374.62027
  20
205.33339
  0
VERTEX
  5
bf
  8
Layer_0
  10
374.62027
  20
235.33339
  0
VERTEX
  5
c0
  8
Layer_0
  10
371.62027
  20
235.33339
  0
SEQEND
  0
POLYLINE
  5
c2
  8
Layer_0
  62
1
  66
1
  10
0
  20
0
  30
0
  0
VERTEX
  5
c2
  8
Layer_0
  10
214.62027
  20
240.33339
  0
VERTEX
  5
c3
  8
Layer_0
  10
206.62027
  20
240.33339
  0
SEQEND
  0
POLYLINE
  5
c5
  8
Layer_0
  62
1
  66
1
  10
0
  20
0
  30
0
  0
VERTEX
  5
c5
  8
Layer_0
  10
371.62027
  20
240.33339
  0
VERTEX
  5
c6
  8
Layer_0
  10
359.62027
  20
240.33339
  0
SEQEND
  0
ENDSEC
  0
EOF
