  0
SECTION
  2
HEADER
  9
$ACADVER
  1
AC1009
  0
ENDSEC
  0
SECTION
  2
ENTITIES
  0
CIRCLE
  5
90
  8
Layer_0
  62
1
  10
219.29681
  20
117.02191
  30
0
  40
1.5
  0
CIRCLE
  5
90
  8
Layer_0
  62
1
  10
357.29681
  20
117.02191
  30
0
  40
1.5
  0
CIRCLE
  5
90
  8
Layer_0
  62
1
  10
219.29681
  20
272.02191
  30
0
  40
1.5
  0
CIRCLE
  5
90
  8
Layer_0
  62
1
  10
357.29681
  20
272.02191
  30
0
  40
1.5
  0
CIRCLE
  5
90
  8
Layer_0
  62
1
  10
288.29681
  20
137.02191
  30
0
  40
17.5
  0
POLYLINE
  5
90
  8
Layer_0
  62
1
  66
1
  10
0
  20
0
  30
0
  0
VERTEX
  5
90
  8
Layer_0
  10
211.29681
  20
162.02191
  0
VERTEX
  5
91
  8
Layer_0
  10
365.29681
  20
162.02191
  0
SEQEND
  0
POLYLINE
  5
93
  8
Layer_0
  62
1
  66
1
  10
0
  20
0
  30
0
  0
VERTEX
  5
93
  8
Layer_0
  10
211.29681
  20
149.82191
  0
VERTEX
  5
94
  8
Layer_0
  10
214.29681
  20
149.82191
  0
VERTEX
  5
95
  8
Layer_0
  10
214.29681
  20
120.02191
  0
VERTEX
  5
96
  8
Layer_0
  10
211.29681
  20
120.02191
  0
VERTEX
  5
97
  8
Layer_0
  10
211.29681
  20
112.02191
  0
VERTEX
  5
98
  8
Layer_0
  10
236.29681
  20
112.02191
  0
VERTEX
  5
99
  8
Layer_0
  10
236.29681
  20
109.02191
  0
VERTEX
  5
9a
  8
Layer_0
  10
266.29681
  20
109.02191
  0
VERTEX
  5
9b
  8
Layer_0
  10
266.29681
  20
112.02191
  0
VERTEX
  5
9c
  8
Layer_0
  10
310.29681
  20
112.02191
  0
VERTEX
  5
9d
  8
Layer_0
  10
310.29681
  20
109.02191
  0
VERTEX
  5
9e
  8
Layer_0
  10
340.29681
  20
109.02191
  0
VERTEX
  5
9f
  8
Layer_0
  10
340.29681
  20
112.02191
  0
VERTEX
  5
a0
  8
Layer_0
  10
365.29681
  20
112.02191
  0
VERTEX
  5
a1
  8
Layer_0
  10
365.29681
  20
120.02191
  0
VERTEX
  5
a2
  8
Layer_0
  10
362.29681
  20
120.02191
  0
VERTEX
  5
a3
  8
Layer_0
  10
362.29681
  20
149.82191
  0
VERTEX
  5
a4
  8
Layer_0
  10
365.29681
  20
149.82191
  0
VERTEX
  5
a5
  8
Layer_0
  10
365.29681
  20
174.02191
  0
VERTEX
  5
a6
  8
Layer_0
  10
362.29681
  20
174.02191
  0
VERTEX
  5
a7
  8
Layer_0
  10
362.29681
  20
203.82191
  0
VERTEX
  5
a8
  8
Layer_0
  10
365.29681
  20
203.82191
  0
VERTEX
  5
a9
  8
Layer_0
  10
365.29681
  20
235.22191
  0
VERTEX
  5
aa
  8
Layer_0
  10
362.29681
  20
235.22191
  0
VERTEX
  5
ab
  8
Layer_0
  10
362.29681
  20
265.02191
  0
VERTEX
  5
ac
  8
Layer_0
  10
365.29681
  20
265.02191
  0
VERTEX
  5
ad
  8
Layer_0
  10
365.29681
  20
277.02191
  0
VERTEX
  5
ae
  8
Layer_0
  10
340.29681
  20
277.02191
  0
VERTEX
  5
af
  8
Layer_0
  10
340.29681
  20
280.02191
  0
VERTEX
  5
b0
  8
Layer_0
  10
310.29681
  20
280.02191
  0
VERTEX
  5
b1
  8
Layer_0
  10
310.29681
  20
277.02191
  0
VERTEX
  5
b2
  8
Layer_0
  10
266.29681
  20
277.02191
  0
VERTEX
  5
b3
  8
Layer_0
  10
266.29681
  20
280.02191
  0
VERTEX
  5
b4
  8
Layer_0
  10
236.29681
  20
280.02191
  0
VERTEX
  5
b5
  8
Layer_0
  10
236.29681
  20
277.02191
  0
VERTEX
  5
b6
  8
Layer_0
  10
211.29681
  20
277.02191
  0
VERTEX
  5
b7
  8
Layer_0
  10
211.29681
  20
265.02191
  0
VERTEX
  5
b8
  8
Layer_0
  10
214.29681
  20
265.02191
  0
VERTEX
  5
b9
  8
Layer_0
  10
214.29681
  20
235.22191
  0
VERTEX
  5
ba
  8
Layer_0
  10
211.29681
  20
235.22191
  0
VERTEX
  5
bb
  8
Layer_0
  10
211.29681
  20
203.82191
  0
VERTEX
  5
bc
  8
Layer_0
  10
214.29681
  20
203.82191
  0
VERTEX
  5
bd
  8
Layer_0
  10
214.29681
  20
174.02191
  0
VERTEX
  5
be
  8
Layer_0
  10
211.29681
  20
174.02191
  0
VERTEX
  5
bf
  8
Layer_0
  10
211.29681
  20
149.82191
  0
SEQEND
  0
ENDSEC
  0
EOF
