0
SECTION
2
HEADER
9
$INSUNITS
70
4
9
$ACADVER
1
AC1014
9
$HANDSEED
5
FFFF
0
ENDSEC
0
SECTION
2
TABLES
0
TABLE
2
VPORT
5
8
100
AcDbSymbolTable
0
ENDTAB
0
TABLE
2
LTYPE
5
5
100
AcDbSymbolTable
0
LTYPE
5
14
100
AcDbSymbolTableRecord
100
AcDbLinetypeTableRecord
2
BYBLOCK
70
0
0
LTYPE
5
15
100
AcDbSymbolTableRecord
100
AcDbLinetypeTableRecord
2
BYLAYER
70
0
0
ENDTAB
0
TABLE
2
LAYER
5
2
100
AcDbSymbolTable
70
2
0
LAYER
5
50
100
AcDbSymbolTableRecord
100
AcDbLayerTableRecord
2
0
70
0
6
CONTINUOUS
0
ENDTAB
0
TABLE
2
STYLE
5
3
100
AcDbSymbolTable
70
1
0
STYLE
5
11
100
AcDbSymbolTableRecord
100
AcDbTextStyleTableRecord
2
STANDARD
70
0
0
ENDTAB
0
TABLE
2
VIEW
5
6
100
AcDbSymbolTable
70
0
0
ENDTAB
0
TABLE
2
UCS
5
7
100
AcDbSymbolTable
70
0
0
ENDTAB
0
TABLE
2
APPID
5
9
100
AcDbSymbolTable
70
2
0
APPID
5
12
100
AcDbSymbolTableRecord
100
AcDbRegAppTableRecord
2
ACAD
70
0
0
ENDTAB
0
TABLE
2
DIMSTYLE
5
A
100
AcDbSymbolTable
70
1
0
ENDTAB
0
TABLE
2
BLOCK_RECORD
5
1
100
AcDbSymbolTable
70
1
0
BLOCK_RECORD
5
1F
100
AcDbSymbolTableRecord
100
AcDbBlockTableRecord
2
*MODEL_SPACE
0
BLOCK_RECORD
5
1B
100
AcDbSymbolTableRecord
100
AcDbBlockTableRecord
2
*PAPER_SPACE
0
ENDTAB
0
ENDSEC
0
SECTION
2
BLOCKS
0
BLOCK
5
20
100
AcDbEntity
100
AcDbBlockBegin
2
*MODEL_SPACE
0
ENDBLK
5
21
100
AcDbEntity
100
AcDbBlockEnd
0
BLOCK
5
1C
100
AcDbEntity
100
AcDbBlockBegin
2
*PAPER_SPACE
0
ENDBLK
5
1D
100
AcDbEntity
100
AcDbBlockEnd
0
ENDSEC
0
SECTION
2
ENTITIES
0
CIRCLE
5
100
100
AcDbEntity
8
0
100
AcDbCircle
10
77
20
25
30
0
40
12.000000000000002
210
0
220
0
230
1
0
LWPOLYLINE
5
101
100
AcDbEntity
8
0
100
AcDbPolyline
90
20
70
1
43
0.0
10
151
20
37.800000000000004
10
151
20
8
10
154
20
8
10
154
20
0
10
129
20
0
10
129
20
-3.0000000000000031
10
99
20
-3.0000000000000044
10
99
20
0
10
55
20
0
10
55
20
-3.0000000000000044
10
25.000000000000004
20
-3.0000000000000031
10
25.000000000000004
20
2.311115933264683e-32
10
0
20
0
10
0
20
8
10
3.0000000000000004
20
7.9999999999999982
10
3.0000000000000009
20
37.800000000000004
10
0
20
37.800000000000004
10
0
20
50
10
154
20
50
10
154
20
37.800000000000004
0
LINE
5
102
100
AcDbEntity
8
0
100
AcDbLine
10
77
20
25
30
0
11
70.994995719681739
21
25
31
0
0
CIRCLE
5
103
100
AcDbEntity
8
0
100
AcDbCircle
10
64.979184719828694
20
37.020815280171298
30
0
40
3.5000000000000004
210
0
220
0
230
1
0
CIRCLE
5
104
100
AcDbEntity
8
0
100
AcDbCircle
10
146
20
5
30
0
40
1.5000000000000002
210
0
220
0
230
1
0
CIRCLE
5
105
100
AcDbEntity
8
0
100
AcDbCircle
10
89.02081528017132
20
12.979184719828702
30
0
40
3.5000000000000004
210
0
220
0
230
1
0
CIRCLE
5
106
100
AcDbEntity
8
0
100
AcDbCircle
10
64.979184719828709
20
12.979184719828689
30
0
40
3.5000000000000004
210
0
220
0
230
1
0
CIRCLE
5
107
100
AcDbEntity
8
0
100
AcDbCircle
10
89.02081528017132
20
37.020815280171313
30
0
40
3.5000000000000004
210
0
220
0
230
1
0
LINE
5
108
100
AcDbEntity
8
0
100
AcDbLine
10
77
20
25
30
0
11
77
21
31.843634140838599
31
0
0
LINE
5
109
100
AcDbEntity
8
0
100
AcDbLine
10
77
20
25
30
0
11
64.979184719828694
21
37.020815280171298
31
0
0
CIRCLE
5
110
100
AcDbEntity
8
0
100
AcDbCircle
10
8
20
5
30
0
40
1.5000000000000002
210
0
220
0
230
1
0
LINE
5
111
100
AcDbEntity
8
0
100
AcDbLine
10
77
20
50
30
0
11
77
21
37
31
0
0
LINE
5
112
100
AcDbEntity
8
0
100
AcDbLine
10
77
20
12.999999999999998
30
0
11
77
21
0
31
0
0
ENDSEC
0
SECTION
2
OBJECTS
0
DICTIONARY
5
C
100
AcDbDictionary
3
ACAD_GROUP
350
D
3
ACAD_MLINESTYLE
350
17
0
DICTIONARY
5
D
100
AcDbDictionary
0
DICTIONARY
5
1A
330
C
100
AcDbDictionary
0
DICTIONARY
5
17
100
AcDbDictionary
0
ENDSEC
0
EOF
