  0
SECTION
  2
HEADER
  9
$ACADVER
  1
AC1009
  0
ENDSEC
  0
SECTION
  2
ENTITIES
  0
POLYLINE
  5
90
  8
Layer_0
  62
3
  66
1
  10
0
  20
0
  30
0
  0
VERTEX
  5
90
  8
Layer_0
  10
258.6814
  20
98.871643
  42
0.036709282
  0
VERTEX
  5
91
  8
Layer_0
  10
258.72208
  20
98.832916
  42
0.17681616
  0
VERTEX
  5
92
  8
Layer_0
  10
258.99872
  20
98.745117
  0
VERTEX
  5
93
  8
Layer_0
  10
259.02332
  20
98.745605
  42
0.13345061
  0
VERTEX
  5
94
  8
Layer_0
  10
259.25647
  20
98.813965
  0
VERTEX
  5
95
  8
Layer_0
  10
259.27408
  20
98.825745
  42
0.16089424
  0
VERTEX
  5
96
  8
Layer_0
  10
259.40564
  20
99.000336
  0
VERTEX
  5
97
  8
Layer_0
  10
259.409
  20
99.010376
  42
0.070306702
  0
VERTEX
  5
98
  8
Layer_0
  10
259.44617
  20
99.375885
  0
VERTEX
  5
99
  8
Layer_0
  10
259.44385
  20
101.44275
  0
VERTEX
  5
9a
  8
Layer_0
  10
259.84085
  20
101.44318
  0
VERTEX
  5
9b
  8
Layer_0
  10
259.84314
  20
99.398865
  0
VERTEX
  5
9c
  8
Layer_0
  10
259.84302
  20
99.367767
  42
-0.098273982
  0
VERTEX
  5
9d
  8
Layer_0
  10
259.75272
  20
98.815521
  0
VERTEX
  5
9e
  8
Layer_0
  10
259.74496
  20
98.798462
  42
-0.16223706
  0
VERTEX
  5
9f
  8
Layer_0
  10
259.46454
  20
98.500061
  0
VERTEX
  5
a0
  8
Layer_0
  10
259.44797
  20
98.491211
  42
-0.12068176
  0
VERTEX
  5
a1
  8
Layer_0
  10
259.00116
  20
98.391083
  0
VERTEX
  5
a2
  8
Layer_0
  10
258.96857
  20
98.391449
  42
-0.20899085
  0
VERTEX
  5
a3
  8
Layer_0
  10
258.39618
  20
98.617554
  42
-0.19423567
  0
VERTEX
  5
a4
  8
Layer_0
  10
258.19388
  20
99.292633
  0
VERTEX
  5
a5
  8
Layer_0
  10
258.55194
  20
99.342163
  42
0.16236937
  0
VERTEX
  5
a6
  8
Layer_0
  10
258.6814
  20
98.871643
  0
SEQEND
  0
POLYLINE
  5
a8
  8
Layer_0
  62
3
  66
1
  10
0
  20
0
  30
0
  0
VERTEX
  5
a8
  8
Layer_0
  10
262.05627
  20
100.32425
  42
0.13600419
  0
VERTEX
  5
a9
  8
Layer_0
  10
262.15958
  20
100.64624
  0
VERTEX
  5
aa
  8
Layer_0
  10
262.16028
  20
100.67838
  42
0.12773777
  0
VERTEX
  5
ab
  8
Layer_0
  10
262.06787
  20
101.03455
  0
VERTEX
  5
ac
  8
Layer_0
  10
262.05035
  20
101.06503
  42
0.085189027
  0
VERTEX
  5
ad
  8
Layer_0
  10
261.88934
  20
101.25122
  42
0.055465787
  0
VERTEX
  5
ae
  8
Layer_0
  10
261.73386
  20
101.3522
  42
0.11966313
  0
VERTEX
  5
af
  8
Layer_0
  10
261.28149
  20
101.45706
  42
0.18267394
  0
VERTEX
  5
b0
  8
Layer_0
  10
260.68622
  20
101.25281
  42
0.17665955
  0
VERTEX
  5
b1
  8
Layer_0
  10
260.37991
  20
100.67844
  0
VERTEX
  5
b2
  8
Layer_0
  10
260.74832
  20
100.61337
  42
-0.1684604
  0
VERTEX
  5
b3
  8
Layer_0
  10
260.93207
  20
101.01877
  42
-0.19762928
  0
VERTEX
  5
b4
  8
Layer_0
  10
261.29001
  20
101.15421
  42
-0.20174907
  0
VERTEX
  5
b5
  8
Layer_0
  10
261.6442
  20
101.02161
  42
-0.20202804
  0
VERTEX
  5
b6
  8
Layer_0
  10
261.78143
  20
100.70291
  0
VERTEX
  5
b7
  8
Layer_0
  10
261.78168
  20
100.68616
  42
-0.2547846
  0
VERTEX
  5
b8
  8
Layer_0
  10
261.60919
  20
100.31784
  0
VERTEX
  5
b9
  8
Layer_0
  10
261.59381
  20
100.30734
  42
-0.14248199
  0
VERTEX
  5
ba
  8
Layer_0
  10
261.18988
  20
100.18433
  0
VERTEX
  5
bb
  8
Layer_0
  10
261.17035
  20
100.18408
  0
VERTEX
  5
bc
  8
Layer_0
  10
261.1665
  20
100.18411
  0
VERTEX
  5
bd
  8
Layer_0
  10
261.16248
  20
100.1842
  0
VERTEX
  5
be
  8
Layer_0
  10
261.1582
  20
100.18433
  0
VERTEX
  5
bf
  8
Layer_0
  10
261.15375
  20
100.18454
  0
VERTEX
  5
c0
  8
Layer_0
  10
261.14911
  20
100.18478
  0
VERTEX
  5
c1
  8
Layer_0
  10
261.14429
  20
100.18509
  0
VERTEX
  5
c2
  8
Layer_0
  10
261.13922
  20
100.18546
  0
VERTEX
  5
c3
  8
Layer_0
  10
261.13397
  20
100.18588
  0
VERTEX
  5
c4
  8
Layer_0
  10
261.12854
  20
100.18634
  0
VERTEX
  5
c5
  8
Layer_0
  10
261.12289
  20
100.18689
  42
-0.00023606574
  0
VERTEX
  5
c6
  8
Layer_0
  10
261.11102
  20
100.18811
  0
VERTEX
  5
c7
  8
Layer_0
  10
261.07043
  20
99.864746
  42
-0.0625038
  0
VERTEX
  5
c8
  8
Layer_0
  10
261.33029
  20
99.905975
  42
-0.19551055
  0
VERTEX
  5
c9
  8
Layer_0
  10
261.73804
  20
99.755127
  0
VERTEX
  5
ca
  8
Layer_0
  10
261.75201
  20
99.741699
  42
-0.19892462
  0
VERTEX
  5
cb
  8
Layer_0
  10
261.91794
  20
99.344391
  0
VERTEX
  5
cc
  8
Layer_0
  10
261.91827
  20
99.323395
  42
-0.19604261
  0
VERTEX
  5
cd
  8
Layer_0
  10
261.75427
  20
98.892273
  0
VERTEX
  5
ce
  8
Layer_0
  10
261.73969
  20
98.877106
  42
-0.19858281
  0
VERTEX
  5
cf
  8
Layer_0
  10
261.32245
  20
98.696869
  0
VERTEX
  5
d0
  8
Layer_0
  10
261.30096
  20
98.696533
  42
-0.17505698
  0
VERTEX
  5
d1
  8
Layer_0
  10
260.95526
  20
98.812195
  42
-0.012110209
  0
VERTEX
  5
d2
  8
Layer_0
  10
260.92938
  20
98.834229
  42
-0.1573655
  0
VERTEX
  5
d3
  8
Layer_0
  10
260.71298
  20
99.285217
  0
VERTEX
  5
d4
  8
Layer_0
  10
260.34467
  20
99.235687
  42
0.19274067
  0
VERTEX
  5
d5
  8
Layer_0
  10
260.64313
  20
98.626221
  42
0.1842441
  0
VERTEX
  5
d6
  8
Layer_0
  10
261.26657
  20
98.391968
  0
VERTEX
  5
d7
  8
Layer_0
  10
261.29926
  20
98.391602
  42
0.18952561
  0
VERTEX
  5
d8
  8
Layer_0
  10
261.99924
  20
98.64328
  0
VERTEX
  5
d9
  8
Layer_0
  10
262.02335
  20
98.665619
  42
0.2041313
  0
VERTEX
  5
da
  8
Layer_0
  10
262.30865
  20
99.2995
  0
VERTEX
  5
db
  8
Layer_0
  10
262.30911
  20
99.332031
  42
0.15863761
  0
VERTEX
  5
dc
  8
Layer_0
  10
262.17328
  20
99.799561
  0
VERTEX
  5
dd
  8
Layer_0
  10
262.16122
  20
99.815826
  42
0.063213538
  0
VERTEX
  5
de
  8
Layer_0
  10
262.04968
  20
99.929962
  42
0.11324614
  0
VERTEX
  5
df
  8
Layer_0
  10
261.74756
  20
100.07013
  42
0.13618187
  0
VERTEX
  5
e0
  8
Layer_0
  10
262.04742
  20
100.31104
  0
VERTEX
  5
e1
  8
Layer_0
  10
262.05627
  20
100.32425
  0
SEQEND
  0
POLYLINE
  5
e3
  8
Layer_0
  62
3
  66
1
  10
0
  20
0
  30
0
  0
VERTEX
  5
e3
  8
Layer_0
  10
263.76367
  20
99.718384
  0
VERTEX
  5
e4
  8
Layer_0
  10
263.76407
  20
99.347961
  0
VERTEX
  5
e5
  8
Layer_0
  10
262.63242
  20
99.34671
  0
VERTEX
  5
e6
  8
Layer_0
  10
262.63202
  20
99.717102
  0
VERTEX
  5
e7
  8
Layer_0
  10
263.76367
  20
99.718384
  0
SEQEND
  0
POLYLINE
  5
e9
  8
Layer_0
  62
3
  66
1
  10
0
  20
0
  30
0
  0
VERTEX
  5
e9
  8
Layer_0
  10
265.03284
  20
100.2713
  42
0.058028499
  0
VERTEX
  5
ea
  8
Layer_0
  10
264.65225
  20
99.303955
  42
0.05913112
  0
VERTEX
  5
eb
  8
Layer_0
  10
264.51404
  20
98.448395
  0
VERTEX
  5
ec
  8
Layer_0
  10
264.89264
  20
98.448822
  42
-0.054269383
  0
VERTEX
  5
ed
  8
Layer_0
  10
265.0329
  20
99.273682
  42
-0.057267132
  0
VERTEX
  5
ee
  8
Layer_0
  10
265.46661
  20
100.31372
  42
-0.060617281
  0
VERTEX
  5
ef
  8
Layer_0
  10
266.03357
  20
101.12473
  0
VERTEX
  5
f0
  8
Layer_0
  10
266.03326
  20
101.41122
  0
VERTEX
  5
f1
  8
Layer_0
  10
264.09125
  20
101.40906
  0
VERTEX
  5
f2
  8
Layer_0
  10
264.09161
  20
101.05502
  0
VERTEX
  5
f3
  8
Layer_0
  10
265.56094
  20
101.05667
  42
0.057224898
  0
VERTEX
  5
f4
  8
Layer_0
  10
265.03284
  20
100.2713
  0
SEQEND
  0
CIRCLE
  5
f6
  8
Layer_1
  62
1
  10
206.40356
  20
329.28632
  30
0
  40
1.5
  0
CIRCLE
  5
f6
  8
Layer_1
  62
1
  10
267.40356
  20
329.28632
  30
0
  40
1.5
  0
CIRCLE
  5
f6
  8
Layer_1
  62
1
  10
269.90356
  20
91.786316
  30
0
  40
1.5
  0
CIRCLE
  5
f6
  8
Layer_1
  62
1
  10
203.90356
  20
91.786316
  30
0
  40
1.5
  0
POLYLINE
  5
f6
  8
Layer_1
  62
1
  66
1
  10
0
  20
0
  30
0
  0
VERTEX
  5
f6
  8
Layer_1
  10
221.90356
  20
336.78632
  0
VERTEX
  5
f7
  8
Layer_1
  10
221.90356
  20
339.78632
  0
VERTEX
  5
f8
  8
Layer_1
  10
251.90356
  20
339.78632
  0
VERTEX
  5
f9
  8
Layer_1
  10
251.90356
  20
336.78632
  0
SEQEND
  0
POLYLINE
  5
fb
  8
Layer_1
  62
1
  66
1
  10
0
  20
0
  30
0
  0
VERTEX
  5
fb
  8
Layer_1
  10
221.95355
  20
336.78632
  0
VERTEX
  5
fc
  8
Layer_1
  10
198.90356
  20
336.78632
  0
VERTEX
  5
fd
  8
Layer_1
  10
198.90356
  20
301.78632
  0
VERTEX
  5
fe
  8
Layer_1
  10
195.90356
  20
301.78632
  0
VERTEX
  5
ff
  8
Layer_1
  10
195.90356
  20
271.78632
  0
VERTEX
  5
100
  8
Layer_1
  10
198.90356
  20
271.78632
  0
VERTEX
  5
101
  8
Layer_1
  10
198.90356
  20
226.78632
  0
VERTEX
  5
102
  8
Layer_1
  10
195.90356
  20
226.78632
  0
VERTEX
  5
103
  8
Layer_1
  10
195.90356
  20
196.78632
  0
VERTEX
  5
104
  8
Layer_1
  10
198.90356
  20
196.78632
  0
VERTEX
  5
105
  8
Layer_1
  10
198.90356
  20
151.78632
  0
VERTEX
  5
106
  8
Layer_1
  10
195.90356
  20
151.78632
  0
VERTEX
  5
107
  8
Layer_1
  10
195.90356
  20
121.78632
  0
VERTEX
  5
108
  8
Layer_1
  10
198.90356
  20
121.78632
  0
VERTEX
  5
109
  8
Layer_1
  10
198.90356
  20
86.786316
  0
VERTEX
  5
10a
  8
Layer_1
  10
221.90356
  20
86.786316
  0
VERTEX
  5
10b
  8
Layer_1
  10
221.90356
  20
83.786316
  0
VERTEX
  5
10c
  8
Layer_1
  10
251.90356
  20
83.786316
  0
VERTEX
  5
10d
  8
Layer_1
  10
251.90356
  20
86.786316
  0
VERTEX
  5
10e
  8
Layer_1
  10
274.90356
  20
86.786316
  0
VERTEX
  5
10f
  8
Layer_1
  10
274.90356
  20
121.78632
  0
VERTEX
  5
110
  8
Layer_1
  10
277.90356
  20
121.78632
  0
VERTEX
  5
111
  8
Layer_1
  10
277.90356
  20
151.78632
  0
VERTEX
  5
112
  8
Layer_1
  10
274.90356
  20
151.78632
  0
VERTEX
  5
113
  8
Layer_1
  10
274.90356
  20
196.78632
  0
VERTEX
  5
114
  8
Layer_1
  10
277.90356
  20
196.78632
  0
VERTEX
  5
115
  8
Layer_1
  10
277.90356
  20
226.78632
  0
VERTEX
  5
116
  8
Layer_1
  10
274.90356
  20
226.78632
  0
VERTEX
  5
117
  8
Layer_1
  10
274.90356
  20
271.78632
  0
VERTEX
  5
118
  8
Layer_1
  10
277.90356
  20
271.78632
  0
VERTEX
  5
119
  8
Layer_1
  10
277.90356
  20
301.78632
  0
VERTEX
  5
11a
  8
Layer_1
  10
274.90356
  20
301.78632
  0
VERTEX
  5
11b
  8
Layer_1
  10
274.90356
  20
336.78632
  0
VERTEX
  5
11c
  8
Layer_1
  10
251.85356
  20
336.78632
  0
SEQEND
  0
ENDSEC
  0
EOF
