  0
SECTION
  2
HEADER
  9
$ACADVER
  1
AC1009
  0
ENDSEC
  0
SECTION
  2
ENTITIES
  0
CIRCLE
  5
90
  8
Layer_1
  62
1
  10
279.58395
  20
334.42984
  30
0
  40
1.5
  0
CIRCLE
  5
90
  8
Layer_1
  62
1
  10
237.58395
  20
334.42984
  30
0
  40
1.5
  0
CIRCLE
  5
90
  8
Layer_1
  62
1
  10
208.58395
  20
334.42984
  30
0
  40
1.5
  0
CIRCLE
  5
90
  8
Layer_1
  62
1
  10
206.08395
  20
96.92984
  30
0
  40
1.5
  0
CIRCLE
  5
90
  8
Layer_1
  62
1
  10
235.08395
  20
96.92984
  30
0
  40
1.5
  0
CIRCLE
  5
90
  8
Layer_1
  62
1
  10
282.08395
  20
96.92984
  30
0
  40
1.5
  0
CIRCLE
  5
90
  8
Layer_1
  62
1
  10
258.58395
  20
158.92982
  30
0
  40
10
  0
CIRCLE
  5
90
  8
Layer_1
  62
1
  10
258.58395
  20
193.92982
  30
0
  40
10
  0
POLYLINE
  5
90
  8
Layer_1
  62
1
  66
1
  10
0
  20
0
  30
0
  0
VERTEX
  5
90
  8
Layer_1
  10
290.08395
  20
306.87982
  0
VERTEX
  5
91
  8
Layer_1
  10
287.08395
  20
306.87982
  0
VERTEX
  5
92
  8
Layer_1
  10
287.08395
  20
276.97983
  0
VERTEX
  5
93
  8
Layer_1
  10
290.08395
  20
276.97983
  0
VERTEX
  5
94
  8
Layer_1
  10
290.08395
  20
231.87982
  0
VERTEX
  5
95
  8
Layer_1
  10
287.08395
  20
231.87982
  0
VERTEX
  5
96
  8
Layer_1
  10
287.08395
  20
201.97983
  0
VERTEX
  5
97
  8
Layer_1
  10
290.08395
  20
201.97983
  0
VERTEX
  5
98
  8
Layer_1
  10
290.08395
  20
156.87982
  0
VERTEX
  5
99
  8
Layer_1
  10
287.08395
  20
156.87982
  0
VERTEX
  5
9a
  8
Layer_1
  10
287.08395
  20
126.97983
  0
VERTEX
  5
9b
  8
Layer_1
  10
290.08395
  20
126.97983
  0
VERTEX
  5
9c
  8
Layer_1
  10
290.08395
  20
91.92984
  0
VERTEX
  5
9d
  8
Layer_1
  10
273.58395
  20
91.92984
  0
VERTEX
  5
9e
  8
Layer_1
  10
273.58395
  20
88.92984
  0
VERTEX
  5
9f
  8
Layer_1
  10
243.58395
  20
88.92984
  0
VERTEX
  5
a0
  8
Layer_1
  10
243.58395
  20
91.92984
  0
VERTEX
  5
a1
  8
Layer_1
  10
227.08395
  20
91.92984
  0
VERTEX
  5
a2
  8
Layer_1
  10
217.58395
  20
91.92984
  0
VERTEX
  5
a3
  8
Layer_1
  10
217.58395
  20
88.92984
  0
VERTEX
  5
a4
  8
Layer_1
  10
207.58395
  20
88.92984
  0
VERTEX
  5
a5
  8
Layer_1
  10
207.58395
  20
91.92984
  0
VERTEX
  5
a6
  8
Layer_1
  10
198.08395
  20
91.92984
  0
VERTEX
  5
a7
  8
Layer_1
  10
198.08395
  20
126.97983
  0
VERTEX
  5
a8
  8
Layer_1
  10
201.08395
  20
126.97983
  0
VERTEX
  5
a9
  8
Layer_1
  10
201.08395
  20
156.87982
  0
VERTEX
  5
aa
  8
Layer_1
  10
198.08395
  20
156.87982
  0
VERTEX
  5
ab
  8
Layer_1
  10
198.08395
  20
201.97983
  0
VERTEX
  5
ac
  8
Layer_1
  10
201.08395
  20
201.97983
  0
VERTEX
  5
ad
  8
Layer_1
  10
201.08395
  20
231.87982
  0
VERTEX
  5
ae
  8
Layer_1
  10
198.08395
  20
231.87982
  0
VERTEX
  5
af
  8
Layer_1
  10
198.08395
  20
276.97983
  0
VERTEX
  5
b0
  8
Layer_1
  10
201.08395
  20
276.97983
  0
VERTEX
  5
b1
  8
Layer_1
  10
201.08395
  20
306.87982
  0
VERTEX
  5
b2
  8
Layer_1
  10
198.08395
  20
306.87982
  0
VERTEX
  5
b3
  8
Layer_1
  10
198.08395
  20
341.92984
  0
VERTEX
  5
b4
  8
Layer_1
  10
207.58395
  20
341.92984
  0
VERTEX
  5
b5
  8
Layer_1
  10
207.58395
  20
344.92984
  0
VERTEX
  5
b6
  8
Layer_1
  10
217.58395
  20
344.92984
  0
VERTEX
  5
b7
  8
Layer_1
  10
217.58395
  20
341.92984
  0
VERTEX
  5
b8
  8
Layer_1
  10
227.08395
  20
341.92984
  0
VERTEX
  5
b9
  8
Layer_1
  10
243.58395
  20
341.92984
  0
VERTEX
  5
ba
  8
Layer_1
  10
243.58395
  20
344.92984
  0
VERTEX
  5
bb
  8
Layer_1
  10
273.58395
  20
344.92984
  0
VERTEX
  5
bc
  8
Layer_1
  10
273.58395
  20
341.92984
  0
VERTEX
  5
bd
  8
Layer_1
  10
290.08395
  20
341.92984
  0
VERTEX
  5
be
  8
Layer_1
  10
290.08395
  20
306.87982
  0
SEQEND
  0
POLYLINE
  5
c0
  8
Layer_1
  62
1
  66
1
  10
0
  20
0
  30
0
  0
VERTEX
  5
c0
  8
Layer_1
  10
227.08395
  20
156.87982
  0
VERTEX
  5
c1
  8
Layer_1
  10
230.18396
  20
156.87982
  0
VERTEX
  5
c2
  8
Layer_1
  10
230.18396
  20
126.97983
  0
VERTEX
  5
c3
  8
Layer_1
  10
227.08395
  20
126.97983
  0
VERTEX
  5
c4
  8
Layer_1
  10
227.08395
  20
156.87982
  0
SEQEND
  0
POLYLINE
  5
c6
  8
Layer_1
  62
1
  66
1
  10
0
  20
0
  30
0
  0
VERTEX
  5
c6
  8
Layer_1
  10
230.18396
  20
201.97983
  0
VERTEX
  5
c7
  8
Layer_1
  10
227.08395
  20
201.97983
  0
VERTEX
  5
c8
  8
Layer_1
  10
227.08395
  20
231.87982
  0
VERTEX
  5
c9
  8
Layer_1
  10
230.18396
  20
231.87982
  0
VERTEX
  5
ca
  8
Layer_1
  10
230.18396
  20
201.97983
  0
SEQEND
  0
POLYLINE
  5
cc
  8
Layer_1
  62
1
  66
1
  10
0
  20
0
  30
0
  0
VERTEX
  5
cc
  8
Layer_1
  10
230.18396
  20
276.97983
  0
VERTEX
  5
cd
  8
Layer_1
  10
227.08395
  20
276.97983
  0
VERTEX
  5
ce
  8
Layer_1
  10
227.08395
  20
306.87982
  0
VERTEX
  5
cf
  8
Layer_1
  10
230.18396
  20
306.87982
  0
VERTEX
  5
d0
  8
Layer_1
  10
230.18396
  20
276.97983
  0
SEQEND
  0
POLYLINE
  5
d2
  8
Layer_1
  62
1
  66
1
  10
0
  20
0
  30
0
  0
VERTEX
  5
d2
  8
Layer_1
  10
290.08395
  20
156.87982
  0
VERTEX
  5
d3
  8
Layer_1
  10
290.08395
  20
201.97983
  0
SEQEND
  0
POLYLINE
  5
d5
  8
Layer_0
  62
3
  66
1
  10
0
  20
0
  30
0
  0
VERTEX
  5
d5
  8
Layer_0
  10
265.9108
  20
104.71985
  42
0.10536
  0
VERTEX
  5
d6
  8
Layer_0
  10
266.03442
  20
104.63031
  42
0.10314133
  0
VERTEX
  5
d7
  8
Layer_0
  10
266.22809
  20
104.59329
  0
VERTEX
  5
d8
  8
Layer_0
  10
266.25272
  20
104.59378
  42
0.13422839
  0
VERTEX
  5
d9
  8
Layer_0
  10
266.4859
  20
104.66211
  0
VERTEX
  5
da
  8
Layer_0
  10
266.50348
  20
104.67389
  42
0.15901113
  0
VERTEX
  5
db
  8
Layer_0
  10
266.63507
  20
104.84845
  0
VERTEX
  5
dc
  8
Layer_0
  10
266.63843
  20
104.85852
  0
VERTEX
  5
dd
  8
Layer_0
  10
266.6416
  20
104.86905
  0
VERTEX
  5
de
  8
Layer_0
  10
266.64465
  20
104.88007
  42
0.059893084
  0
VERTEX
  5
df
  8
Layer_0
  10
266.67566
  20
105.224
  0
VERTEX
  5
e0
  8
Layer_0
  10
266.67361
  20
107.29086
  0
VERTEX
  5
e1
  8
Layer_0
  10
267.07062
  20
107.29126
  0
VERTEX
  5
e2
  8
Layer_0
  10
267.07263
  20
105.24692
  0
VERTEX
  5
e3
  8
Layer_0
  10
267.07251
  20
105.21582
  42
-0.098350492
  0
VERTEX
  5
e4
  8
Layer_0
  10
266.98212
  20
104.6636
  0
VERTEX
  5
e5
  8
Layer_0
  10
266.97437
  20
104.64655
  42
-0.16179003
  0
VERTEX
  5
e6
  8
Layer_0
  10
266.69391
  20
104.34818
  0
VERTEX
  5
e7
  8
Layer_0
  10
266.67734
  20
104.33932
  42
-0.12109946
  0
VERTEX
  5
e8
  8
Layer_0
  10
266.2305
  20
104.23926
  0
VERTEX
  5
e9
  8
Layer_0
  10
266.19791
  20
104.23962
  42
-0.20910627
  0
VERTEX
  5
ea
  8
Layer_0
  10
265.62558
  20
104.46582
  42
-0.19424673
  0
VERTEX
  5
eb
  8
Layer_0
  10
265.42334
  20
105.14093
  0
VERTEX
  5
ec
  8
Layer_0
  10
265.7814
  20
105.1904
  42
0.16226921
  0
VERTEX
  5
ed
  8
Layer_0
  10
265.9108
  20
104.71985
  0
SEQEND
  0
POLYLINE
  5
ef
  8
Layer_0
  62
3
  66
1
  10
0
  20
0
  30
0
  0
VERTEX
  5
ef
  8
Layer_0
  10
269.28589
  20
106.17203
  42
0.13605778
  0
VERTEX
  5
f0
  8
Layer_0
  10
269.38922
  20
106.49399
  0
VERTEX
  5
f1
  8
Layer_0
  10
269.38992
  20
106.52615
  42
0.12757961
  0
VERTEX
  5
f2
  8
Layer_0
  10
269.29758
  20
106.88229
  0
VERTEX
  5
f3
  8
Layer_0
  10
269.28006
  20
106.91281
  42
0.13710064
  0
VERTEX
  5
f4
  8
Layer_0
  10
268.98065
  20
107.1911
  0
VERTEX
  5
f5
  8
Layer_0
  10
268.96362
  20
107.20001
  0
VERTEX
  5
f6
  8
Layer_0
  10
268.92886
  20
107.2168
  42
0.10968468
  0
VERTEX
  5
f7
  8
Layer_0
  10
268.51126
  20
107.30496
  42
0.1825834
  0
VERTEX
  5
f8
  8
Layer_0
  10
267.91595
  20
107.10074
  42
0.17679777
  0
VERTEX
  5
f9
  8
Layer_0
  10
267.60956
  20
106.52643
  0
VERTEX
  5
fa
  8
Layer_0
  10
267.97797
  20
106.4613
  42
-0.15856974
  0
VERTEX
  5
fb
  8
Layer_0
  10
268.14999
  20
106.85516
  0
VERTEX
  5
fc
  8
Layer_0
  10
268.16174
  20
106.86667
  42
-0.19796741
  0
VERTEX
  5
fd
  8
Layer_0
  10
268.51974
  20
107.00211
  42
-0.19153023
  0
VERTEX
  5
fe
  8
Layer_0
  10
268.8623
  20
106.88028
  0
VERTEX
  5
ff
  8
Layer_0
  10
268.8739
  20
106.86942
  42
-0.20221329
  0
VERTEX
  5
100
  8
Layer_0
  10
269.01108
  20
106.55072
  0
VERTEX
  5
101
  8
Layer_0
  10
269.01132
  20
106.53397
  42
-0.25505894
  0
VERTEX
  5
102
  8
Layer_0
  10
268.83878
  20
106.16568
  0
VERTEX
  5
103
  8
Layer_0
  10
268.82343
  20
106.15518
  42
-0.14256076
  0
VERTEX
  5
104
  8
Layer_0
  10
268.41949
  20
106.03223
  0
VERTEX
  5
105
  8
Layer_0
  10
268.39996
  20
106.03198
  42
-0.017765641
  0
VERTEX
  5
106
  8
Layer_0
  10
268.36359
  20
106.03378
  42
-0.0045526555
  0
VERTEX
  5
107
  8
Layer_0
  10
268.34665
  20
106.03537
  0
VERTEX
  5
108
  8
Layer_0
  10
268.34061
  20
106.03601
  0
VERTEX
  5
109
  8
Layer_0
  10
268.29999
  20
105.71265
  42
-0.062601472
  0
VERTEX
  5
10a
  8
Layer_0
  10
268.55984
  20
105.75385
  42
-0.1950591
  0
VERTEX
  5
10b
  8
Layer_0
  10
268.96759
  20
105.60294
  0
VERTEX
  5
10c
  8
Layer_0
  10
268.98157
  20
105.58951
  42
-0.19935005
  0
VERTEX
  5
10d
  8
Layer_0
  10
269.14743
  20
105.1922
  0
VERTEX
  5
10e
  8
Layer_0
  10
269.14774
  20
105.1712
  42
-0.19582471
  0
VERTEX
  5
10f
  8
Layer_0
  10
268.9837
  20
104.74008
  0
VERTEX
  5
110
  8
Layer_0
  10
268.96912
  20
104.72491
  42
-0.19881865
  0
VERTEX
  5
111
  8
Layer_0
  10
268.55185
  20
104.54474
  0
VERTEX
  5
112
  8
Layer_0
  10
268.53033
  20
104.5444
  42
-0.11474238
  0
VERTEX
  5
113
  8
Layer_0
  10
268.28256
  20
104.59811
  42
-0.071655856
  0
VERTEX
  5
114
  8
Layer_0
  10
268.15878
  20
104.68216
  42
-0.15745138
  0
VERTEX
  5
115
  8
Layer_0
  10
267.94244
  20
105.13318
  0
VERTEX
  5
116
  8
Layer_0
  10
267.57416
  20
105.08371
  42
0.19266675
  0
VERTEX
  5
117
  8
Layer_0
  10
267.8725
  20
104.47418
  42
0.18432573
  0
VERTEX
  5
118
  8
Layer_0
  10
268.49591
  20
104.23987
  0
VERTEX
  5
119
  8
Layer_0
  10
268.52859
  20
104.23947
  42
0.18936763
  0
VERTEX
  5
11a
  8
Layer_0
  10
269.22864
  20
104.49106
  0
VERTEX
  5
11b
  8
Layer_0
  10
269.25275
  20
104.5134
  42
0.20422554
  0
VERTEX
  5
11c
  8
Layer_0
  10
269.53812
  20
105.14722
  0
VERTEX
  5
11d
  8
Layer_0
  10
269.53857
  20
105.17978
  42
0.15834457
  0
VERTEX
  5
11e
  8
Layer_0
  10
269.4028
  20
105.64731
  0
VERTEX
  5
11f
  8
Layer_0
  10
269.39075
  20
105.66357
  42
0.12349763
  0
VERTEX
  5
120
  8
Layer_0
  10
269.14136
  20
105.86252
  42
0.052053799
  0
VERTEX
  5
121
  8
Layer_0
  10
268.97714
  20
105.91797
  42
0.13587603
  0
VERTEX
  5
122
  8
Layer_0
  10
269.27704
  20
106.15881
  0
VERTEX
  5
123
  8
Layer_0
  10
269.28589
  20
106.17203
  0
SEQEND
  0
POLYLINE
  5
125
  8
Layer_0
  62
3
  66
1
  10
0
  20
0
  30
0
  0
VERTEX
  5
125
  8
Layer_0
  10
270.99316
  20
105.56592
  0
VERTEX
  5
126
  8
Layer_0
  10
270.99353
  20
105.19553
  0
VERTEX
  5
127
  8
Layer_0
  10
269.86191
  20
105.1944
  0
VERTEX
  5
128
  8
Layer_0
  10
269.86154
  20
105.56482
  0
VERTEX
  5
129
  8
Layer_0
  10
270.99316
  20
105.56592
  0
SEQEND
  0
POLYLINE
  5
12b
  8
Layer_0
  62
3
  66
1
  10
0
  20
0
  30
0
  0
VERTEX
  5
12b
  8
Layer_0
  10
273.01236
  20
106.17569
  42
0.13615869
  0
VERTEX
  5
12c
  8
Layer_0
  10
273.11569
  20
106.49765
  0
VERTEX
  5
12d
  8
Layer_0
  10
273.11639
  20
106.52982
  42
0.12772222
  0
VERTEX
  5
12e
  8
Layer_0
  10
273.02405
  20
106.88599
  0
VERTEX
  5
12f
  8
Layer_0
  10
273.00653
  20
106.91647
  42
0.13744451
  0
VERTEX
  5
130
  8
Layer_0
  10
272.70712
  20
107.19476
  0
VERTEX
  5
131
  8
Layer_0
  10
272.69006
  20
107.20367
  0
VERTEX
  5
132
  8
Layer_0
  10
272.65533
  20
107.22046
  42
0.10968172
  0
VERTEX
  5
133
  8
Layer_0
  10
272.23773
  20
107.30862
  42
0.18275445
  0
VERTEX
  5
134
  8
Layer_0
  10
271.64243
  20
107.10443
  42
0.17690693
  0
VERTEX
  5
135
  8
Layer_0
  10
271.33603
  20
106.53009
  0
VERTEX
  5
136
  8
Layer_0
  10
271.70444
  20
106.46497
  42
-0.16799665
  0
VERTEX
  5
137
  8
Layer_0
  10
271.88821
  20
106.87036
  42
-0.19768694
  0
VERTEX
  5
138
  8
Layer_0
  10
272.24622
  20
107.00577
  42
-0.19124586
  0
VERTEX
  5
139
  8
Layer_0
  10
272.58878
  20
106.88394
  0
VERTEX
  5
13a
  8
Layer_0
  10
272.60034
  20
106.87311
  42
-0.20247824
  0
VERTEX
  5
13b
  8
Layer_0
  10
272.73755
  20
106.55438
  0
VERTEX
  5
13c
  8
Layer_0
  10
272.73779
  20
106.53763
  42
-0.25489933
  0
VERTEX
  5
13d
  8
Layer_0
  10
272.56525
  20
106.16934
  0
VERTEX
  5
13e
  8
Layer_0
  10
272.5499
  20
106.15884
  42
-0.14253176
  0
VERTEX
  5
13f
  8
Layer_0
  10
272.14594
  20
106.03589
  0
VERTEX
  5
140
  8
Layer_0
  10
272.1264
  20
106.03564
  42
-0.023619806
  0
VERTEX
  5
141
  8
Layer_0
  10
272.07312
  20
106.03903
  0
VERTEX
  5
142
  8
Layer_0
  10
272.06708
  20
106.03967
  0
VERTEX
  5
143
  8
Layer_0
  10
272.02646
  20
105.71631
  42
-0.062261598
  0
VERTEX
  5
144
  8
Layer_0
  10
272.28632
  20
105.75751
  42
-0.19599865
  0
VERTEX
  5
145
  8
Layer_0
  10
272.69403
  20
105.60663
  0
VERTEX
  5
146
  8
Layer_0
  10
272.70801
  20
105.5932
  42
-0.19918132
  0
VERTEX
  5
147
  8
Layer_0
  10
272.8739
  20
105.19586
  0
VERTEX
  5
148
  8
Layer_0
  10
272.87421
  20
105.17487
  42
-0.19602398
  0
VERTEX
  5
149
  8
Layer_0
  10
272.71017
  20
104.74374
  0
VERTEX
  5
14a
  8
Layer_0
  10
272.69559
  20
104.72858
  42
-0.19858612
  0
VERTEX
  5
14b
  8
Layer_0
  10
272.27832
  20
104.5484
  0
VERTEX
  5
14c
  8
Layer_0
  10
272.25681
  20
104.54807
  42
-0.11481756
  0
VERTEX
  5
14d
  8
Layer_0
  10
272.00903
  20
104.60178
  42
-0.07216132
  0
VERTEX
  5
14e
  8
Layer_0
  10
271.88525
  20
104.68582
  42
-0.1570092
  0
VERTEX
  5
14f
  8
Layer_0
  10
271.66891
  20
105.13684
  0
VERTEX
  5
150
  8
Layer_0
  10
271.3006
  20
105.08737
  42
0.19271648
  0
VERTEX
  5
151
  8
Layer_0
  10
271.59897
  20
104.47784
  42
0.18419533
  0
VERTEX
  5
152
  8
Layer_0
  10
272.22238
  20
104.24353
  0
VERTEX
  5
153
  8
Layer_0
  10
272.25507
  20
104.24316
  42
0.18956378
  0
VERTEX
  5
154
  8
Layer_0
  10
272.95508
  20
104.49475
  0
VERTEX
  5
155
  8
Layer_0
  10
272.97922
  20
104.51706
  42
0.20426573
  0
VERTEX
  5
156
  8
Layer_0
  10
273.26459
  20
105.15091
  0
VERTEX
  5
157
  8
Layer_0
  10
273.26505
  20
105.18344
  42
0.15873981
  0
VERTEX
  5
158
  8
Layer_0
  10
273.12927
  20
105.651
  0
VERTEX
  5
159
  8
Layer_0
  10
273.11725
  20
105.66727
  42
0.12356962
  0
VERTEX
  5
15a
  8
Layer_0
  10
272.86783
  20
105.86621
  42
0.051773356
  0
VERTEX
  5
15b
  8
Layer_0
  10
272.70361
  20
105.92163
  42
0.13517812
  0
VERTEX
  5
15c
  8
Layer_0
  10
273.00351
  20
106.16248
  0
VERTEX
  5
15d
  8
Layer_0
  10
273.01236
  20
106.17569
  0
SEQEND
  0
ENDSEC
  0
EOF
