  0
SECTION
  2
HEADER
  9
$ACADVER
  1
AC1009
  0
ENDSEC
  0
SECTION
  2
ENTITIES
  0
CIRCLE
  5
90
  8
Layer_1
  62
1
  10
183.29538
  20
203.36691
  30
0
  40
1.5
  0
CIRCLE
  5
90
  8
Layer_1
  62
1
  10
141.29538
  20
203.36691
  30
0
  40
1.5
  0
CIRCLE
  5
90
  8
Layer_1
  62
1
  10
183.29538
  20
264.36691
  30
0
  40
1.5
  0
CIRCLE
  5
90
  8
Layer_1
  62
1
  10
141.29538
  20
264.36691
  30
0
  40
1.5
  0
CIRCLE
  5
90
  8
Layer_1
  62
1
  10
212.29538
  20
203.36691
  30
0
  40
1.5
  0
CIRCLE
  5
90
  8
Layer_1
  62
1
  10
212.29538
  20
264.36691
  30
0
  40
1.5
  0
POLYLINE
  5
90
  8
Layer_1
  62
1
  66
1
  10
0
  20
0
  30
0
  0
VERTEX
  5
90
  8
Layer_1
  10
130.79538
  20
218.9169
  0
VERTEX
  5
91
  8
Layer_1
  10
133.79538
  20
218.9169
  0
VERTEX
  5
92
  8
Layer_1
  10
133.79538
  20
248.81689
  0
VERTEX
  5
93
  8
Layer_1
  10
130.79538
  20
248.81689
  0
VERTEX
  5
94
  8
Layer_1
  10
130.79538
  20
274.86691
  0
VERTEX
  5
95
  8
Layer_1
  10
147.34537
  20
274.86691
  0
VERTEX
  5
96
  8
Layer_1
  10
147.34537
  20
271.86691
  0
VERTEX
  5
97
  8
Layer_1
  10
177.24538
  20
271.86691
  0
VERTEX
  5
98
  8
Layer_1
  10
177.24538
  20
274.86691
  0
VERTEX
  5
99
  8
Layer_1
  10
193.79538
  20
274.86691
  0
VERTEX
  5
9a
  8
Layer_1
  10
203.39537
  20
274.86691
  0
VERTEX
  5
9b
  8
Layer_1
  10
203.39537
  20
271.86691
  0
VERTEX
  5
9c
  8
Layer_1
  10
213.19537
  20
271.86691
  0
VERTEX
  5
9d
  8
Layer_1
  10
213.19537
  20
274.86691
  0
VERTEX
  5
9e
  8
Layer_1
  10
222.79538
  20
274.86691
  0
VERTEX
  5
9f
  8
Layer_1
  10
222.79538
  20
248.81689
  0
VERTEX
  5
a0
  8
Layer_1
  10
219.79538
  20
248.81689
  0
VERTEX
  5
a1
  8
Layer_1
  10
219.79538
  20
218.9169
  0
VERTEX
  5
a2
  8
Layer_1
  10
222.79538
  20
218.9169
  0
VERTEX
  5
a3
  8
Layer_1
  10
222.79538
  20
192.86691
  0
VERTEX
  5
a4
  8
Layer_1
  10
213.19537
  20
192.86691
  0
VERTEX
  5
a5
  8
Layer_1
  10
213.19537
  20
195.86691
  0
VERTEX
  5
a6
  8
Layer_1
  10
203.39537
  20
195.86691
  0
VERTEX
  5
a7
  8
Layer_1
  10
203.39537
  20
192.86691
  0
VERTEX
  5
a8
  8
Layer_1
  10
193.79538
  20
192.86691
  0
VERTEX
  5
a9
  8
Layer_1
  10
177.24538
  20
192.86691
  0
VERTEX
  5
aa
  8
Layer_1
  10
177.24538
  20
195.86691
  0
VERTEX
  5
ab
  8
Layer_1
  10
147.34537
  20
195.86691
  0
VERTEX
  5
ac
  8
Layer_1
  10
147.34537
  20
192.86691
  0
VERTEX
  5
ad
  8
Layer_1
  10
130.79538
  20
192.86691
  0
VERTEX
  5
ae
  8
Layer_1
  10
130.79538
  20
218.9169
  0
SEQEND
  0
POLYLINE
  5
b0
  8
Layer_0
  62
3
  66
1
  10
0
  20
0
  30
0
  0
VERTEX
  5
b0
  8
Layer_0
  10
201.35915
  20
257.58539
  42
0.054433482
  0
VERTEX
  5
b1
  8
Layer_0
  10
201.37885
  20
257.56512
  42
0.19609636
  0
VERTEX
  5
b2
  8
Layer_0
  10
201.67636
  20
257.45859
  42
0.10428899
  0
VERTEX
  5
b3
  8
Layer_0
  10
201.8774
  20
257.49719
  42
0.036655946
  0
VERTEX
  5
b4
  8
Layer_0
  10
201.93419
  20
257.52719
  0
VERTEX
  5
b5
  8
Layer_0
  10
201.95178
  20
257.53897
  0
VERTEX
  5
b6
  8
Layer_0
  10
201.96846
  20
257.55142
  42
0.15320323
  0
VERTEX
  5
b7
  8
Layer_0
  10
202.08353
  20
257.71344
  42
-0.0018304082
  0
VERTEX
  5
b8
  8
Layer_0
  10
202.09006
  20
257.73404
  0
VERTEX
  5
b9
  8
Layer_0
  10
202.09312
  20
257.74506
  42
0.0603375
  0
VERTEX
  5
ba
  8
Layer_0
  10
202.12437
  20
258.08896
  0
VERTEX
  5
bb
  8
Layer_0
  10
202.12393
  20
260.15579
  0
VERTEX
  5
bc
  8
Layer_0
  10
202.52094
  20
260.15588
  0
VERTEX
  5
bd
  8
Layer_0
  10
202.52138
  20
258.11157
  0
VERTEX
  5
be
  8
Layer_0
  10
202.52122
  20
258.08047
  42
-0.09822093
  0
VERTEX
  5
bf
  8
Layer_0
  10
202.43044
  20
257.52832
  0
VERTEX
  5
c0
  8
Layer_0
  10
202.42267
  20
257.51126
  42
-0.16166395
  0
VERTEX
  5
c1
  8
Layer_0
  10
202.14197
  20
257.2131
  42
-0.067856538
  0
VERTEX
  5
c2
  8
Layer_0
  10
202.10857
  20
257.1958
  0
VERTEX
  5
c3
  8
Layer_0
  10
202.09152
  20
257.18768
  0
VERTEX
  5
c4
  8
Layer_0
  10
202.07423
  20
257.17996
  42
-0.10330088
  0
VERTEX
  5
c5
  8
Layer_0
  10
201.67848
  20
257.10455
  42
-0.21553212
  0
VERTEX
  5
c6
  8
Layer_0
  10
201.07372
  20
257.33157
  42
-0.19415608
  0
VERTEX
  5
c7
  8
Layer_0
  10
200.87201
  20
258.00684
  0
VERTEX
  5
c8
  8
Layer_0
  10
201.23012
  20
258.05603
  0
VERTEX
  5
c9
  8
Layer_0
  10
201.23149
  20
258.02777
  0
VERTEX
  5
ca
  8
Layer_0
  10
201.23322
  20
258.00024
  42
0.15851943
  0
VERTEX
  5
cb
  8
Layer_0
  10
201.35915
  20
257.58539
  0
SEQEND
  0
POLYLINE
  5
cd
  8
Layer_0
  62
3
  66
1
  10
0
  20
0
  30
0
  0
VERTEX
  5
cd
  8
Layer_0
  10
204.73537
  20
259.03494
  42
0.13644261
  0
VERTEX
  5
ce
  8
Layer_0
  10
204.83893
  20
259.35684
  0
VERTEX
  5
cf
  8
Layer_0
  10
204.83966
  20
259.38898
  42
0.12973938
  0
VERTEX
  5
d0
  8
Layer_0
  10
204.74759
  20
259.74524
  0
VERTEX
  5
d1
  8
Layer_0
  10
204.73009
  20
259.77573
  42
0.11547125
  0
VERTEX
  5
d2
  8
Layer_0
  10
204.49577
  20
260.01596
  42
0.02889419
  0
VERTEX
  5
d3
  8
Layer_0
  10
204.46402
  20
260.03564
  0
VERTEX
  5
d4
  8
Layer_0
  10
204.44763
  20
260.0451
  0
VERTEX
  5
d5
  8
Layer_0
  10
204.43092
  20
260.05429
  0
VERTEX
  5
d6
  8
Layer_0
  10
204.41386
  20
260.0632
  42
0.11032879
  0
VERTEX
  5
d7
  8
Layer_0
  10
204.00224
  20
260.16776
  0
VERTEX
  5
d8
  8
Layer_0
  10
203.96159
  20
260.16849
  42
0.10742126
  0
VERTEX
  5
d9
  8
Layer_0
  10
203.56209
  20
260.08887
  42
0.071010044
  0
VERTEX
  5
da
  8
Layer_0
  10
203.36613
  20
259.96475
  42
0.17084946
  0
VERTEX
  5
db
  8
Layer_0
  10
203.06522
  20
259.42123
  0
VERTEX
  5
dc
  8
Layer_0
  10
203.0593
  20
259.39066
  0
VERTEX
  5
dd
  8
Layer_0
  10
203.42766
  20
259.32526
  42
-0.14797888
  0
VERTEX
  5
de
  8
Layer_0
  10
203.58859
  20
259.70703
  0
VERTEX
  5
df
  8
Layer_0
  10
203.59999
  20
259.71899
  0
VERTEX
  5
e0
  8
Layer_0
  10
203.61176
  20
259.7305
  42
-0.18073501
  0
VERTEX
  5
e1
  8
Layer_0
  10
203.93452
  20
259.86465
  0
VERTEX
  5
e2
  8
Layer_0
  10
203.95206
  20
259.86539
  0
VERTEX
  5
e3
  8
Layer_0
  10
203.96983
  20
259.86563
  42
-0.14344593
  0
VERTEX
  5
e4
  8
Layer_0
  10
204.25034
  20
259.79086
  42
-0.051183468
  0
VERTEX
  5
e5
  8
Layer_0
  10
204.28836
  20
259.76385
  0
VERTEX
  5
e6
  8
Layer_0
  10
204.30048
  20
259.75391
  0
VERTEX
  5
e7
  8
Layer_0
  10
204.31232
  20
259.74353
  0
VERTEX
  5
e8
  8
Layer_0
  10
204.3239
  20
259.73267
  42
-0.20233639
  0
VERTEX
  5
e9
  8
Layer_0
  10
204.46083
  20
259.41388
  0
VERTEX
  5
ea
  8
Layer_0
  10
204.46107
  20
259.39709
  42
-0.22969597
  0
VERTEX
  5
eb
  8
Layer_0
  10
204.317
  20
259.05127
  0
VERTEX
  5
ec
  8
Layer_0
  10
204.30295
  20
259.03986
  0
VERTEX
  5
ed
  8
Layer_0
  10
204.28824
  20
259.02896
  0
VERTEX
  5
ee
  8
Layer_0
  10
204.27289
  20
259.01846
  42
-0.034806785
  0
VERTEX
  5
ef
  8
Layer_0
  10
204.17581
  20
258.96475
  0
VERTEX
  5
f0
  8
Layer_0
  10
204.15907
  20
258.95728
  0
VERTEX
  5
f1
  8
Layer_0
  10
204.14215
  20
258.95023
  42
-0.097225378
  0
VERTEX
  5
f2
  8
Layer_0
  10
203.8493
  20
258.8956
  42
-0.0028562802
  0
VERTEX
  5
f3
  8
Layer_0
  10
203.8414
  20
258.89572
  0
VERTEX
  5
f4
  8
Layer_0
  10
203.83716
  20
258.89584
  0
VERTEX
  5
f5
  8
Layer_0
  10
203.8327
  20
258.89606
  0
VERTEX
  5
f6
  8
Layer_0
  10
203.82806
  20
258.89633
  0
VERTEX
  5
f7
  8
Layer_0
  10
203.82321
  20
258.89661
  0
VERTEX
  5
f8
  8
Layer_0
  10
203.81535
  20
258.89726
  0
VERTEX
  5
f9
  8
Layer_0
  10
203.80748
  20
258.89792
  0
VERTEX
  5
fa
  8
Layer_0
  10
203.80174
  20
258.89847
  0
VERTEX
  5
fb
  8
Layer_0
  10
203.79601
  20
258.89905
  0
VERTEX
  5
fc
  8
Layer_0
  10
203.78996
  20
258.89969
  0
VERTEX
  5
fd
  8
Layer_0
  10
203.7491
  20
258.57635
  42
-0.05520833
  0
VERTEX
  5
fe
  8
Layer_0
  10
203.99124
  20
258.61703
  0
VERTEX
  5
ff
  8
Layer_0
  10
204.00899
  20
258.61734
  42
-0.017989124
  0
VERTEX
  5
100
  8
Layer_0
  10
204.05099
  20
258.61621
  42
-0.16927766
  0
VERTEX
  5
101
  8
Layer_0
  10
204.40231
  20
258.47897
  0
VERTEX
  5
102
  8
Layer_0
  10
204.41661
  20
258.46613
  0
VERTEX
  5
103
  8
Layer_0
  10
204.43057
  20
258.4527
  42
-0.18182513
  0
VERTEX
  5
104
  8
Layer_0
  10
204.59383
  20
258.09628
  0
VERTEX
  5
105
  8
Layer_0
  10
204.59526
  20
258.07593
  42
0.022762887
  0
VERTEX
  5
106
  8
Layer_0
  10
204.59642
  20
258.03424
  42
-0.15926655
  0
VERTEX
  5
107
  8
Layer_0
  10
204.48428
  20
257.66687
  42
-0.011423767
  0
VERTEX
  5
108
  8
Layer_0
  10
204.45941
  20
257.63446
  0
VERTEX
  5
109
  8
Layer_0
  10
204.44604
  20
257.61871
  0
VERTEX
  5
10a
  8
Layer_0
  10
204.43207
  20
257.60324
  0
VERTEX
  5
10b
  8
Layer_0
  10
204.41747
  20
257.58807
  42
-0.084395555
  0
VERTEX
  5
10c
  8
Layer_0
  10
204.25424
  20
257.46924
  0
VERTEX
  5
10d
  8
Layer_0
  10
204.23636
  20
257.46078
  0
VERTEX
  5
10e
  8
Layer_0
  10
204.21822
  20
257.45297
  42
-0.097684049
  0
VERTEX
  5
10f
  8
Layer_0
  10
203.97855
  20
257.40793
  42
-0.098200663
  0
VERTEX
  5
110
  8
Layer_0
  10
203.76085
  20
257.44839
  0
VERTEX
  5
111
  8
Layer_0
  10
203.74571
  20
257.45486
  0
VERTEX
  5
112
  8
Layer_0
  10
203.73082
  20
257.46182
  42
-0.023861285
  0
VERTEX
  5
113
  8
Layer_0
  10
203.6875
  20
257.48553
  42
-0.013203503
  0
VERTEX
  5
114
  8
Layer_0
  10
203.65977
  20
257.50375
  0
VERTEX
  5
115
  8
Layer_0
  10
203.64626
  20
257.51361
  0
VERTEX
  5
116
  8
Layer_0
  10
203.63298
  20
257.5239
  0
VERTEX
  5
117
  8
Layer_0
  10
203.61992
  20
257.5347
  0
VERTEX
  5
118
  8
Layer_0
  10
203.6071
  20
257.54596
  42
-0.15721637
  0
VERTEX
  5
119
  8
Layer_0
  10
203.39111
  20
257.99716
  0
VERTEX
  5
11a
  8
Layer_0
  10
203.02277
  20
257.94794
  42
0.19290187
  0
VERTEX
  5
11b
  8
Layer_0
  10
203.32065
  20
257.3382
  42
0.19073435
  0
VERTEX
  5
11c
  8
Layer_0
  10
203.97656
  20
257.103
  42
0.1897842
  0
VERTEX
  5
11d
  8
Layer_0
  10
204.67679
  20
257.35403
  0
VERTEX
  5
11e
  8
Layer_0
  10
204.70093
  20
257.37634
  42
0.20397454
  0
VERTEX
  5
11f
  8
Layer_0
  10
204.98679
  20
258.00998
  0
VERTEX
  5
120
  8
Layer_0
  10
204.98727
  20
258.04251
  42
0.1425842
  0
VERTEX
  5
121
  8
Layer_0
  10
204.87437
  20
258.47659
  42
0.01076319
  0
VERTEX
  5
122
  8
Layer_0
  10
204.85187
  20
258.51016
  0
VERTEX
  5
123
  8
Layer_0
  10
204.83984
  20
258.52646
  42
0.15861078
  0
VERTEX
  5
124
  8
Layer_0
  10
204.49107
  20
258.76373
  0
VERTEX
  5
125
  8
Layer_0
  10
204.46992
  20
258.76999
  0
VERTEX
  5
126
  8
Layer_0
  10
204.44838
  20
258.77579
  0
VERTEX
  5
127
  8
Layer_0
  10
204.42642
  20
258.78113
  42
0.13613521
  0
VERTEX
  5
128
  8
Layer_0
  10
204.7265
  20
259.02176
  0
VERTEX
  5
129
  8
Layer_0
  10
204.73537
  20
259.03494
  0
SEQEND
  0
POLYLINE
  5
12b
  8
Layer_0
  62
3
  66
1
  10
0
  20
0
  30
0
  0
VERTEX
  5
12b
  8
Layer_0
  10
206.44226
  20
258.05716
  0
VERTEX
  5
12c
  8
Layer_0
  10
206.44218
  20
258.42755
  0
VERTEX
  5
12d
  8
Layer_0
  10
205.31053
  20
258.42728
  0
VERTEX
  5
12e
  8
Layer_0
  10
205.31061
  20
258.05688
  0
VERTEX
  5
12f
  8
Layer_0
  10
206.44226
  20
258.05716
  0
SEQEND
  0
POLYLINE
  5
131
  8
Layer_0
  62
3
  66
1
  10
0
  20
0
  30
0
  0
VERTEX
  5
131
  8
Layer_0
  10
207.39755
  20
259.76404
  0
VERTEX
  5
132
  8
Layer_0
  10
208.5947
  20
259.76428
  0
VERTEX
  5
133
  8
Layer_0
  10
208.59462
  20
260.11627
  0
VERTEX
  5
134
  8
Layer_0
  10
207.1028
  20
260.11594
  0
VERTEX
  5
135
  8
Layer_0
  10
206.81255
  20
258.57495
  0
VERTEX
  5
136
  8
Layer_0
  10
207.15839
  20
258.53003
  42
-0.12316893
  0
VERTEX
  5
137
  8
Layer_0
  10
207.38345
  20
258.73981
  42
-0.11867659
  0
VERTEX
  5
138
  8
Layer_0
  10
207.67528
  20
258.82016
  0
VERTEX
  5
139
  8
Layer_0
  10
207.70471
  20
258.82071
  42
-0.20029871
  0
VERTEX
  5
13a
  8
Layer_0
  10
208.15332
  20
258.65353
  0
VERTEX
  5
13b
  8
Layer_0
  10
208.16826
  20
258.6387
  42
-0.19414556
  0
VERTEX
  5
13c
  8
Layer_0
  10
208.34506
  20
258.16748
  0
VERTEX
  5
13d
  8
Layer_0
  10
208.34538
  20
258.14145
  42
-0.18343295
  0
VERTEX
  5
13e
  8
Layer_0
  10
208.17635
  20
257.62628
  0
VERTEX
  5
13f
  8
Layer_0
  10
208.16132
  20
257.60934
  42
-0.10191388
  0
VERTEX
  5
140
  8
Layer_0
  10
207.95671
  20
257.45889
  42
-0.10551697
  0
VERTEX
  5
141
  8
Layer_0
  10
207.71115
  20
257.40872
  42
-0.1911166
  0
VERTEX
  5
142
  8
Layer_0
  10
207.33357
  20
257.55084
  42
-0.17309288
  0
VERTEX
  5
143
  8
Layer_0
  10
207.13396
  20
257.97543
  0
VERTEX
  5
144
  8
Layer_0
  10
206.74719
  20
257.9426
  42
0.1953117
  0
VERTEX
  5
145
  8
Layer_0
  10
207.04303
  20
257.3349
  42
0.18750747
  0
VERTEX
  5
146
  8
Layer_0
  10
207.71121
  20
257.10583
  42
0.22864373
  0
VERTEX
  5
147
  8
Layer_0
  10
208.47459
  20
257.44055
  0
VERTEX
  5
148
  8
Layer_0
  10
208.49899
  20
257.47028
  42
0.16839053
  0
VERTEX
  5
149
  8
Layer_0
  10
208.73582
  20
258.14053
  0
VERTEX
  5
14a
  8
Layer_0
  10
208.73624
  20
258.17429
  42
0.19349595
  0
VERTEX
  5
14b
  8
Layer_0
  10
208.48801
  20
258.85114
  0
VERTEX
  5
14c
  8
Layer_0
  10
208.46596
  20
258.87408
  42
0.19877149
  0
VERTEX
  5
14d
  8
Layer_0
  10
207.8354
  20
259.14566
  0
VERTEX
  5
14e
  8
Layer_0
  10
207.80287
  20
259.14612
  42
0.15000514
  0
VERTEX
  5
14f
  8
Layer_0
  10
207.25862
  20
258.97308
  0
VERTEX
  5
150
  8
Layer_0
  10
207.23607
  20
258.9577
  0
VERTEX
  5
151
  8
Layer_0
  10
207.39755
  20
259.76404
  0
SEQEND
  0
ENDSEC
  0
EOF
