  0
SECTION
  2
HEADER
  9
$ACADVER
  1
AC1009
  0
ENDSEC
  0
SECTION
  2
ENTITIES
  0
CIRCLE
  5
90
  8
Layer_1
  62
1
  10
287.5
  20
127.29999
  30
0
  40
1.5
  0
CIRCLE
  5
90
  8
Layer_1
  62
1
  10
256.5
  20
127.29999
  30
0
  40
1.5
  0
CIRCLE
  5
90
  8
Layer_1
  62
1
  10
256.5
  20
96.299988
  30
0
  40
1.5
  0
CIRCLE
  5
90
  8
Layer_1
  62
1
  10
287.5
  20
96.299988
  30
0
  40
1.5
  0
CIRCLE
  5
90
  8
Layer_1
  62
1
  10
272
  20
291.79999
  30
0
  40
23.5
  0
CIRCLE
  5
90
  8
Layer_1
  62
1
  10
272
  20
322.5
  30
0
  40
1.5
  0
CIRCLE
  5
90
  8
Layer_1
  62
1
  10
241.3
  20
291.79999
  30
0
  40
1.5
  0
CIRCLE
  5
90
  8
Layer_1
  62
1
  10
272
  20
261.09998
  30
0
  40
1.5
  0
CIRCLE
  5
90
  8
Layer_1
  62
1
  10
302.70001
  20
291.79999
  30
0
  40
1.5
  0
CIRCLE
  5
90
  8
Layer_1
  62
1
  10
272
  20
111.79999
  30
0
  40
15
  0
CIRCLE
  5
90
  8
Layer_1
  62
1
  10
305
  20
89
  30
0
  40
1.5
  0
CIRCLE
  5
90
  8
Layer_1
  62
1
  10
239
  20
89
  30
0
  40
1.5
  0
CIRCLE
  5
90
  8
Layer_1
  62
1
  10
302.5
  20
326.5
  30
0
  40
1.5
  0
CIRCLE
  5
90
  8
Layer_1
  62
1
  10
241.5
  20
326.5
  30
0
  40
1.5
  0
POLYLINE
  5
90
  8
Layer_1
  62
1
  66
1
  10
0
  20
0
  30
0
  0
VERTEX
  5
90
  8
Layer_1
  10
310
  20
298.99998
  0
VERTEX
  5
91
  8
Layer_1
  10
313
  20
298.99998
  0
VERTEX
  5
92
  8
Layer_1
  10
313
  20
268.99998
  0
VERTEX
  5
93
  8
Layer_1
  10
310
  20
268.99998
  0
VERTEX
  5
94
  8
Layer_1
  10
310
  20
223.99998
  0
VERTEX
  5
95
  8
Layer_1
  10
313
  20
223.99998
  0
VERTEX
  5
96
  8
Layer_1
  10
313
  20
193.99998
  0
VERTEX
  5
97
  8
Layer_1
  10
310
  20
193.99998
  0
VERTEX
  5
98
  8
Layer_1
  10
310
  20
148.99998
  0
VERTEX
  5
99
  8
Layer_1
  10
313
  20
148.99998
  0
VERTEX
  5
9a
  8
Layer_1
  10
313
  20
119
  0
VERTEX
  5
9b
  8
Layer_1
  10
310
  20
119
  0
VERTEX
  5
9c
  8
Layer_1
  10
310
  20
84
  0
VERTEX
  5
9d
  8
Layer_1
  10
287
  20
84
  0
VERTEX
  5
9e
  8
Layer_1
  10
257
  20
84
  0
VERTEX
  5
9f
  8
Layer_1
  10
234
  20
84
  0
VERTEX
  5
a0
  8
Layer_1
  10
234
  20
119
  0
VERTEX
  5
a1
  8
Layer_1
  10
231
  20
119
  0
VERTEX
  5
a2
  8
Layer_1
  10
231
  20
148.99998
  0
VERTEX
  5
a3
  8
Layer_1
  10
234
  20
148.99998
  0
VERTEX
  5
a4
  8
Layer_1
  10
234
  20
193.99998
  0
VERTEX
  5
a5
  8
Layer_1
  10
231
  20
193.99998
  0
VERTEX
  5
a6
  8
Layer_1
  10
231
  20
223.99998
  0
VERTEX
  5
a7
  8
Layer_1
  10
234
  20
223.99998
  0
VERTEX
  5
a8
  8
Layer_1
  10
234
  20
268.99998
  0
VERTEX
  5
a9
  8
Layer_1
  10
231
  20
268.99998
  0
VERTEX
  5
aa
  8
Layer_1
  10
231
  20
298.99998
  0
VERTEX
  5
ab
  8
Layer_1
  10
234
  20
298.99998
  0
VERTEX
  5
ac
  8
Layer_1
  10
234
  20
334
  0
VERTEX
  5
ad
  8
Layer_1
  10
257
  20
334
  0
VERTEX
  5
ae
  8
Layer_1
  10
287
  20
334
  0
VERTEX
  5
af
  8
Layer_1
  10
310
  20
334
  0
VERTEX
  5
b0
  8
Layer_1
  10
310
  20
298.99998
  0
SEQEND
  0
POLYLINE
  5
b2
  8
Layer_1
  62
1
  66
1
  10
0
  20
0
  30
0
  0
VERTEX
  5
b2
  8
Layer_1
  10
244
  20
249.49998
  0
VERTEX
  5
b3
  8
Layer_1
  10
300
  20
249.49998
  42
-0.41421356
  0
VERTEX
  5
b4
  8
Layer_1
  10
302.5
  20
246.99998
  42
-0.41421356
  0
VERTEX
  5
b5
  8
Layer_1
  10
300
  20
244.49998
  0
VERTEX
  5
b6
  8
Layer_1
  10
244
  20
244.49998
  42
-0.41421356
  0
VERTEX
  5
b7
  8
Layer_1
  10
241.5
  20
246.99998
  42
-0.41421356
  0
VERTEX
  5
b8
  8
Layer_1
  10
244
  20
249.49998
  0
SEQEND
  0
POLYLINE
  5
ba
  8
Layer_1
  62
1
  66
1
  10
0
  20
0
  30
0
  0
VERTEX
  5
ba
  8
Layer_1
  10
310
  20
84
  0
VERTEX
  5
bb
  8
Layer_1
  10
310
  20
119.04999
  0
SEQEND
  0
POLYLINE
  5
bd
  8
Layer_1
  62
1
  66
1
  10
0
  20
0
  30
0
  0
VERTEX
  5
bd
  8
Layer_1
  10
244
  20
146.49998
  0
VERTEX
  5
be
  8
Layer_1
  10
300
  20
146.49998
  42
-0.41421356
  0
VERTEX
  5
bf
  8
Layer_1
  10
302.5
  20
144
  42
-0.41421356
  0
VERTEX
  5
c0
  8
Layer_1
  10
300
  20
141.5
  0
VERTEX
  5
c1
  8
Layer_1
  10
244
  20
141.5
  42
-0.41421356
  0
VERTEX
  5
c2
  8
Layer_1
  10
241.5
  20
144
  42
-0.41421356
  0
VERTEX
  5
c3
  8
Layer_1
  10
244
  20
146.49998
  0
SEQEND
  0
POLYLINE
  5
c5
  8
Layer_0
  62
3
  66
1
  10
0
  20
0
  30
0
  0
VERTEX
  5
c5
  8
Layer_0
  10
237.51328
  20
99.94342
  0
VERTEX
  5
c6
  8
Layer_0
  10
237.52298
  20
99.933075
  42
0.20823011
  0
VERTEX
  5
c7
  8
Layer_0
  10
237.83049
  20
99.81662
  0
VERTEX
  5
c8
  8
Layer_0
  10
237.8551
  20
99.817108
  42
0.13422629
  0
VERTEX
  5
c9
  8
Layer_0
  10
238.08832
  20
99.885254
  0
VERTEX
  5
ca
  8
Layer_0
  10
238.10593
  20
99.897003
  42
0.1597335
  0
VERTEX
  5
cb
  8
Layer_0
  10
238.23767
  20
100.0715
  42
0.076073724
  0
VERTEX
  5
cc
  8
Layer_0
  10
238.2785
  20
100.44702
  0
VERTEX
  5
cd
  8
Layer_0
  10
238.27802
  20
102.51385
  0
VERTEX
  5
ce
  8
Layer_0
  10
238.67502
  20
102.51398
  0
VERTEX
  5
cf
  8
Layer_0
  10
238.67551
  20
100.46964
  42
-0.082077409
  0
VERTEX
  5
d0
  8
Layer_0
  10
238.6059
  20
99.940704
  42
-0.018709557
  0
VERTEX
  5
d1
  8
Layer_0
  10
238.58458
  20
99.886383
  0
VERTEX
  5
d2
  8
Layer_0
  10
238.5768
  20
99.869324
  42
-0.16199085
  0
VERTEX
  5
d3
  8
Layer_0
  10
238.29611
  20
99.571167
  0
VERTEX
  5
d4
  8
Layer_0
  10
238.27954
  20
99.562317
  42
-0.12089313
  0
VERTEX
  5
d5
  8
Layer_0
  10
237.83263
  20
99.462616
  0
VERTEX
  5
d6
  8
Layer_0
  10
237.80003
  20
99.462982
  42
-0.20904604
  0
VERTEX
  5
d7
  8
Layer_0
  10
237.22787
  20
99.689606
  0
VERTEX
  5
d8
  8
Layer_0
  10
237.21075
  20
99.708923
  42
-0.18203814
  0
VERTEX
  5
d9
  8
Layer_0
  10
237.02614
  20
100.36487
  0
VERTEX
  5
da
  8
Layer_0
  10
237.38425
  20
100.41406
  0
VERTEX
  5
db
  8
Layer_0
  10
237.38562
  20
100.3858
  42
0.16159096
  0
VERTEX
  5
dc
  8
Layer_0
  10
237.51328
  20
99.94342
  0
SEQEND
  0
POLYLINE
  5
de
  8
Layer_0
  62
3
  66
1
  10
0
  20
0
  30
0
  0
VERTEX
  5
de
  8
Layer_0
  10
240.88947
  20
101.39307
  42
0.060733605
  0
VERTEX
  5
df
  8
Layer_0
  10
240.95828
  20
101.53214
  42
0.085234725
  0
VERTEX
  5
e0
  8
Layer_0
  10
240.99374
  20
101.74713
  42
0.13838772
  0
VERTEX
  5
e1
  8
Layer_0
  10
240.88419
  20
102.13385
  42
0.14281958
  0
VERTEX
  5
e2
  8
Layer_0
  10
240.56795
  20
102.4213
  42
0.11978694
  0
VERTEX
  5
e3
  8
Layer_0
  10
240.11566
  20
102.52658
  42
0.18271463
  0
VERTEX
  5
e4
  8
Layer_0
  10
239.52022
  20
102.32281
  42
0.17109056
  0
VERTEX
  5
e5
  8
Layer_0
  10
239.21931
  20
101.77933
  0
VERTEX
  5
e6
  8
Layer_0
  10
239.21339
  20
101.74875
  0
VERTEX
  5
e7
  8
Layer_0
  10
239.58176
  20
101.68335
  42
-0.048580883
  0
VERTEX
  5
e8
  8
Layer_0
  10
239.6268
  20
101.86694
  42
-0.11806101
  0
VERTEX
  5
e9
  8
Layer_0
  10
239.76584
  20
102.08856
  42
-0.19745595
  0
VERTEX
  5
ea
  8
Layer_0
  10
240.12393
  20
102.22372
  42
-0.20112735
  0
VERTEX
  5
eb
  8
Layer_0
  10
240.47798
  20
102.09079
  42
-0.21074491
  0
VERTEX
  5
ec
  8
Layer_0
  10
240.61517
  20
101.75522
  42
-0.25472069
  0
VERTEX
  5
ed
  8
Layer_0
  10
240.44235
  20
101.38705
  0
VERTEX
  5
ee
  8
Layer_0
  10
240.42699
  20
101.37659
  42
-0.14244726
  0
VERTEX
  5
ef
  8
Layer_0
  10
240.02295
  20
101.25394
  0
VERTEX
  5
f0
  8
Layer_0
  10
240.00342
  20
101.25369
  42
-0.025447682
  0
VERTEX
  5
f1
  8
Layer_0
  10
239.96159
  20
101.25598
  0
VERTEX
  5
f2
  8
Layer_0
  10
239.95595
  20
101.25653
  0
VERTEX
  5
f3
  8
Layer_0
  10
239.9501
  20
101.25714
  0
VERTEX
  5
f4
  8
Layer_0
  10
239.94408
  20
101.25778
  0
VERTEX
  5
f5
  8
Layer_0
  10
239.90323
  20
100.93445
  42
-0.062389139
  0
VERTEX
  5
f6
  8
Layer_0
  10
240.1631
  20
100.97543
  42
-0.2050743
  0
VERTEX
  5
f7
  8
Layer_0
  10
240.5847
  20
100.81079
  42
-0.20680217
  0
VERTEX
  5
f8
  8
Layer_0
  10
240.75055
  20
100.39236
  42
-0.19617717
  0
VERTEX
  5
f9
  8
Layer_0
  10
240.58621
  20
99.961365
  0
VERTEX
  5
fa
  8
Layer_0
  10
240.57159
  20
99.946198
  42
-0.19861258
  0
VERTEX
  5
fb
  8
Layer_0
  10
240.15421
  20
99.766327
  0
VERTEX
  5
fc
  8
Layer_0
  10
240.13269
  20
99.766022
  42
-0.18343182
  0
VERTEX
  5
fd
  8
Layer_0
  10
239.77406
  20
99.892792
  0
VERTEX
  5
fe
  8
Layer_0
  10
239.76125
  20
99.904053
  42
-0.1543986
  0
VERTEX
  5
ff
  8
Layer_0
  10
239.55069
  20
100.32944
  0
VERTEX
  5
100
  8
Layer_0
  10
239.54524
  20
100.35522
  0
VERTEX
  5
101
  8
Layer_0
  10
239.17691
  20
100.30603
  42
0.18391378
  0
VERTEX
  5
102
  8
Layer_0
  10
239.45343
  20
99.716125
  0
VERTEX
  5
103
  8
Layer_0
  10
239.47479
  20
99.696289
  42
0.18423799
  0
VERTEX
  5
104
  8
Layer_0
  10
240.09804
  20
99.461517
  0
VERTEX
  5
105
  8
Layer_0
  10
240.13072
  20
99.46109
  42
0.18958983
  0
VERTEX
  5
106
  8
Layer_0
  10
240.83095
  20
99.712158
  0
VERTEX
  5
107
  8
Layer_0
  10
240.85507
  20
99.734467
  42
0.12051946
  0
VERTEX
  5
108
  8
Layer_0
  10
241.09174
  20
100.09399
  42
0.084320174
  0
VERTEX
  5
109
  8
Layer_0
  10
241.1414
  20
100.40063
  42
0.16724341
  0
VERTEX
  5
10a
  8
Layer_0
  10
240.99396
  20
100.88458
  42
0.17951375
  0
VERTEX
  5
10b
  8
Layer_0
  10
240.58052
  20
101.13925
  42
0.13563824
  0
VERTEX
  5
10c
  8
Layer_0
  10
240.8806
  20
101.37988
  0
VERTEX
  5
10d
  8
Layer_0
  10
240.88947
  20
101.39307
  0
SEQEND
  0
POLYLINE
  5
10f
  8
Layer_0
  62
3
  66
1
  10
0
  20
0
  30
0
  0
VERTEX
  5
10f
  8
Layer_0
  10
242.5963
  20
100.78571
  0
VERTEX
  5
110
  8
Layer_0
  10
242.59639
  20
100.41531
  0
VERTEX
  5
111
  8
Layer_0
  10
241.46474
  20
100.41504
  0
VERTEX
  5
112
  8
Layer_0
  10
241.46465
  20
100.78543
  0
VERTEX
  5
113
  8
Layer_0
  10
242.5963
  20
100.78571
  0
SEQEND
  0
POLYLINE
  5
115
  8
Layer_0
  62
3
  66
1
  10
0
  20
0
  30
0
  0
VERTEX
  5
115
  8
Layer_0
  10
244.45038
  20
100.57126
  0
VERTEX
  5
116
  8
Layer_0
  10
244.85556
  20
100.57135
  0
VERTEX
  5
117
  8
Layer_0
  10
244.85564
  20
100.2337
  0
VERTEX
  5
118
  8
Layer_0
  10
244.45045
  20
100.23361
  0
VERTEX
  5
119
  8
Layer_0
  10
244.45062
  20
99.51532
  0
VERTEX
  5
11a
  8
Layer_0
  10
244.08228
  20
99.515259
  0
VERTEX
  5
11b
  8
Layer_0
  10
244.08211
  20
100.23352
  0
VERTEX
  5
11c
  8
Layer_0
  10
242.78061
  20
100.23322
  0
VERTEX
  5
11d
  8
Layer_0
  10
242.78052
  20
100.57086
  0
VERTEX
  5
11e
  8
Layer_0
  10
244.14909
  20
102.51526
  0
VERTEX
  5
11f
  8
Layer_0
  10
244.44992
  20
102.51532
  0
VERTEX
  5
120
  8
Layer_0
  10
244.45038
  20
100.57126
  0
SEQEND
  0
POLYLINE
  5
122
  8
Layer_0
  62
3
  66
1
  10
0
  20
0
  30
0
  0
VERTEX
  5
122
  8
Layer_0
  10
243.14273
  20
100.57095
  0
VERTEX
  5
123
  8
Layer_0
  10
244.08203
  20
100.57117
  0
VERTEX
  5
124
  8
Layer_0
  10
244.08171
  20
101.92383
  0
VERTEX
  5
125
  8
Layer_0
  10
243.14273
  20
100.57095
  0
SEQEND
  0
ENDSEC
  0
EOF
