  0
SECTION
  2
HEADER
  9
$ACADVER
  1
AC1009
  0
ENDSEC
  0
SECTION
  2
ENTITIES
  0
CIRCLE
  5
90
  8
Layer_1
  62
1
  10
422.02136
  20
88.181305
  30
0
  40
2.5
  0
CIRCLE
  5
90
  8
Layer_1
  62
1
  10
423.93878
  20
110.09763
  30
0
  40
2.5
  0
CIRCLE
  5
90
  8
Layer_1
  62
1
  10
405.91742
  20
122.71628
  30
0
  40
2.5
  0
CIRCLE
  5
90
  8
Layer_1
  62
1
  10
385.97867
  20
113.41867
  30
0
  40
2.5
  0
CIRCLE
  5
90
  8
Layer_1
  62
1
  10
384.06122
  20
91.502411
  30
0
  40
2.5
  0
CIRCLE
  5
90
  8
Layer_1
  62
1
  10
402.08258
  20
78.883698
  30
0
  40
2.5
  0
CIRCLE
  5
90
  8
Layer_1
  62
1
  10
404
  20
280.80002
  30
0
  40
23.5
  0
CIRCLE
  5
90
  8
Layer_1
  62
1
  10
404
  20
311.50003
  30
0
  40
1.5
  0
CIRCLE
  5
90
  8
Layer_1
  62
1
  10
373.29999
  20
280.80002
  30
0
  40
1.5
  0
CIRCLE
  5
90
  8
Layer_1
  62
1
  10
404
  20
250.10002
  30
0
  40
1.5
  0
CIRCLE
  5
90
  8
Layer_1
  62
1
  10
434.70001
  20
280.80002
  30
0
  40
1.5
  0
CIRCLE
  5
90
  8
Layer_1
  62
1
  10
373.5
  20
315.50003
  30
0
  40
1.5
  0
CIRCLE
  5
90
  8
Layer_1
  62
1
  10
434.5
  20
315.50003
  30
0
  40
1.5
  0
CIRCLE
  5
90
  8
Layer_1
  62
1
  10
371
  20
78.000031
  30
0
  40
1.5
  0
CIRCLE
  5
90
  8
Layer_1
  62
1
  10
437
  20
78.000031
  30
0
  40
1.5
  0
POLYLINE
  5
90
  8
Layer_1
  62
1
  66
1
  10
0
  20
0
  30
0
  0
VERTEX
  5
90
  8
Layer_1
  10
442
  20
288.00002
  0
VERTEX
  5
91
  8
Layer_1
  10
445
  20
288.00002
  0
VERTEX
  5
92
  8
Layer_1
  10
445
  20
258.00002
  0
VERTEX
  5
93
  8
Layer_1
  10
442
  20
258.00002
  0
VERTEX
  5
94
  8
Layer_1
  10
442
  20
213.00002
  0
VERTEX
  5
95
  8
Layer_1
  10
445
  20
213.00002
  0
VERTEX
  5
96
  8
Layer_1
  10
445
  20
183.00002
  0
VERTEX
  5
97
  8
Layer_1
  10
442
  20
183.00002
  0
VERTEX
  5
98
  8
Layer_1
  10
442
  20
138
  0
VERTEX
  5
99
  8
Layer_1
  10
445
  20
138
  0
VERTEX
  5
9a
  8
Layer_1
  10
445
  20
108.00003
  0
VERTEX
  5
9b
  8
Layer_1
  10
442
  20
108.00003
  0
VERTEX
  5
9c
  8
Layer_1
  10
442
  20
73.000031
  0
VERTEX
  5
9d
  8
Layer_1
  10
419
  20
73.000031
  0
VERTEX
  5
9e
  8
Layer_1
  10
419
  20
70.000031
  0
VERTEX
  5
9f
  8
Layer_1
  10
389
  20
70.000031
  0
VERTEX
  5
a0
  8
Layer_1
  10
389
  20
73.000031
  0
VERTEX
  5
a1
  8
Layer_1
  10
366
  20
73.000031
  0
VERTEX
  5
a2
  8
Layer_1
  10
366
  20
108.00003
  0
VERTEX
  5
a3
  8
Layer_1
  10
363
  20
108.00003
  0
VERTEX
  5
a4
  8
Layer_1
  10
363
  20
138
  0
VERTEX
  5
a5
  8
Layer_1
  10
366
  20
138
  0
VERTEX
  5
a6
  8
Layer_1
  10
366
  20
183.00002
  0
VERTEX
  5
a7
  8
Layer_1
  10
363
  20
183.00002
  0
VERTEX
  5
a8
  8
Layer_1
  10
363
  20
213.00002
  0
VERTEX
  5
a9
  8
Layer_1
  10
366
  20
213.00002
  0
VERTEX
  5
aa
  8
Layer_1
  10
366
  20
258.00002
  0
VERTEX
  5
ab
  8
Layer_1
  10
363
  20
258.00002
  0
VERTEX
  5
ac
  8
Layer_1
  10
363
  20
288.00002
  0
VERTEX
  5
ad
  8
Layer_1
  10
366
  20
288.00002
  0
VERTEX
  5
ae
  8
Layer_1
  10
366
  20
323.00003
  0
VERTEX
  5
af
  8
Layer_1
  10
389
  20
323.00003
  0
VERTEX
  5
b0
  8
Layer_1
  10
389
  20
326.00003
  0
VERTEX
  5
b1
  8
Layer_1
  10
419
  20
326.00003
  0
VERTEX
  5
b2
  8
Layer_1
  10
419
  20
323.00003
  0
VERTEX
  5
b3
  8
Layer_1
  10
442
  20
323.00003
  0
VERTEX
  5
b4
  8
Layer_1
  10
442
  20
288.00002
  0
SEQEND
  0
POLYLINE
  5
b6
  8
Layer_0
  62
3
  66
1
  10
0
  20
0
  30
0
  0
VERTEX
  5
b6
  8
Layer_0
  10
371.79547
  20
124.82458
  42
0.2201374
  0
VERTEX
  5
b7
  8
Layer_0
  10
372.11276
  20
124.69803
  42
0.14349794
  0
VERTEX
  5
b8
  8
Layer_0
  10
372.37054
  20
124.76685
  42
0.17406208
  0
VERTEX
  5
b9
  8
Layer_0
  10
372.51974
  20
124.95322
  42
0.075985309
  0
VERTEX
  5
ba
  8
Layer_0
  10
372.5603
  20
125.32877
  0
VERTEX
  5
bb
  8
Layer_0
  10
372.55823
  20
127.3956
  0
VERTEX
  5
bc
  8
Layer_0
  10
372.95523
  20
127.396
  0
VERTEX
  5
bd
  8
Layer_0
  10
372.95728
  20
125.35168
  42
-0.099849908
  0
VERTEX
  5
be
  8
Layer_0
  10
372.86679
  20
124.76837
  42
-0.16891793
  0
VERTEX
  5
bf
  8
Layer_0
  10
372.57858
  20
124.45294
  42
-0.1273217
  0
VERTEX
  5
c0
  8
Layer_0
  10
372.11517
  20
124.34399
  42
-0.21491532
  0
VERTEX
  5
c1
  8
Layer_0
  10
371.51025
  20
124.57056
  42
-0.19418609
  0
VERTEX
  5
c2
  8
Layer_0
  10
371.30801
  20
125.24567
  0
VERTEX
  5
c3
  8
Layer_0
  10
371.66608
  20
125.29514
  42
0.16252921
  0
VERTEX
  5
c4
  8
Layer_0
  10
371.79547
  20
124.82458
  0
SEQEND
  0
POLYLINE
  5
c6
  8
Layer_0
  62
3
  66
1
  10
0
  20
0
  30
0
  0
VERTEX
  5
c6
  8
Layer_0
  10
375.17053
  20
126.27679
  42
0.14868589
  0
VERTEX
  5
c7
  8
Layer_0
  10
375.27457
  20
126.63092
  42
0.13847673
  0
VERTEX
  5
c8
  8
Layer_0
  10
375.1647
  20
127.01758
  42
0.14280226
  0
VERTEX
  5
c9
  8
Layer_0
  10
374.84824
  20
127.30478
  42
0.11950178
  0
VERTEX
  5
ca
  8
Layer_0
  10
374.39587
  20
127.40973
  42
0.18272502
  0
VERTEX
  5
cb
  8
Layer_0
  10
373.8006
  20
127.20551
  42
0.17677851
  0
VERTEX
  5
cc
  8
Layer_0
  10
373.4942
  20
126.6312
  0
VERTEX
  5
cd
  8
Layer_0
  10
373.86261
  20
126.56607
  42
-0.1679034
  0
VERTEX
  5
ce
  8
Layer_0
  10
374.04639
  20
126.97144
  42
-0.19750201
  0
VERTEX
  5
cf
  8
Layer_0
  10
374.40436
  20
127.10687
  42
-0.20103174
  0
VERTEX
  5
d0
  8
Layer_0
  10
374.75851
  20
126.97421
  42
-0.21081342
  0
VERTEX
  5
d1
  8
Layer_0
  10
374.89597
  20
126.63873
  42
-0.26781622
  0
VERTEX
  5
d2
  8
Layer_0
  10
374.70807
  20
126.25995
  42
-0.14821019
  0
VERTEX
  5
d3
  8
Layer_0
  10
374.28461
  20
126.13675
  42
-0.02863867
  0
VERTEX
  5
d4
  8
Layer_0
  10
374.22525
  20
126.14081
  0
VERTEX
  5
d5
  8
Layer_0
  10
374.18466
  20
125.81741
  42
-0.062315877
  0
VERTEX
  5
d6
  8
Layer_0
  10
374.44449
  20
125.85861
  42
-0.20508067
  0
VERTEX
  5
d7
  8
Layer_0
  10
374.86621
  20
125.69431
  42
-0.20679086
  0
VERTEX
  5
d8
  8
Layer_0
  10
375.03238
  20
125.27597
  42
-0.20549506
  0
VERTEX
  5
d9
  8
Layer_0
  10
374.85379
  20
124.82968
  42
-0.20713791
  0
VERTEX
  5
da
  8
Layer_0
  10
374.41501
  20
124.64917
  42
-0.19197771
  0
VERTEX
  5
db
  8
Layer_0
  10
374.04346
  20
124.78693
  42
-0.15726457
  0
VERTEX
  5
dc
  8
Layer_0
  10
373.82712
  20
125.23795
  0
VERTEX
  5
dd
  8
Layer_0
  10
373.4588
  20
125.18845
  42
0.1927358
  0
VERTEX
  5
de
  8
Layer_0
  10
373.75717
  20
124.57892
  42
0.19097203
  0
VERTEX
  5
df
  8
Layer_0
  10
374.41327
  20
124.34424
  42
0.19902424
  0
VERTEX
  5
e0
  8
Layer_0
  10
375.13742
  20
124.61816
  42
0.21319492
  0
VERTEX
  5
e1
  8
Layer_0
  10
375.42325
  20
125.28455
  42
0.16720372
  0
VERTEX
  5
e2
  8
Layer_0
  10
375.27542
  20
125.76837
  42
0.17951212
  0
VERTEX
  5
e3
  8
Layer_0
  10
374.86179
  20
126.02274
  42
0.14275999
  0
VERTEX
  5
e4
  8
Layer_0
  10
375.17053
  20
126.27679
  0
SEQEND
  0
POLYLINE
  5
e6
  8
Layer_0
  62
3
  66
1
  10
0
  20
0
  30
0
  0
VERTEX
  5
e6
  8
Layer_0
  10
376.87784
  20
125.67072
  0
VERTEX
  5
e7
  8
Layer_0
  10
376.8782
  20
125.30032
  0
VERTEX
  5
e8
  8
Layer_0
  10
375.74655
  20
125.29919
  0
VERTEX
  5
e9
  8
Layer_0
  10
375.74619
  20
125.66959
  0
VERTEX
  5
ea
  8
Layer_0
  10
376.87784
  20
125.67072
  0
SEQEND
  0
POLYLINE
  5
ec
  8
Layer_0
  62
3
  66
1
  10
0
  20
0
  30
0
  0
VERTEX
  5
ec
  8
Layer_0
  10
377.85211
  20
126.49432
  42
-0.043715228
  0
VERTEX
  5
ed
  8
Layer_0
  10
377.46451
  20
126.30365
  0
VERTEX
  5
ee
  8
Layer_0
  10
377.46417
  20
126.65973
  42
0.072810556
  0
VERTEX
  5
ef
  8
Layer_0
  10
378.00406
  20
127.01224
  42
0.094096197
  0
VERTEX
  5
f0
  8
Layer_0
  10
378.33109
  20
127.41364
  0
VERTEX
  5
f1
  8
Layer_0
  10
378.56845
  20
127.41388
  0
VERTEX
  5
f2
  8
Layer_0
  10
378.57147
  20
124.40161
  0
VERTEX
  5
f3
  8
Layer_0
  10
378.20313
  20
124.40125
  0
VERTEX
  5
f4
  8
Layer_0
  10
378.20078
  20
126.74844
  42
-0.056651946
  0
VERTEX
  5
f5
  8
Layer_0
  10
377.85211
  20
126.49432
  0
SEQEND
  0
ENDSEC
  0
EOF
