  0
SECTION
  2
HEADER
  9
$ACADVER
  1
AC1009
  0
ENDSEC
  0
SECTION
  2
ENTITIES
  0
CIRCLE
  5
90
  8
Layer_1
  62
1
  10
279.08572
  20
183.82959
  30
0
  40
1.5
  0
CIRCLE
  5
90
  8
Layer_1
  62
1
  10
232.08572
  20
183.82959
  30
0
  40
1.5
  0
CIRCLE
  5
90
  8
Layer_1
  62
1
  10
279.08572
  20
249.82959
  30
0
  40
1.5
  0
CIRCLE
  5
90
  8
Layer_1
  62
1
  10
232.08572
  20
249.82959
  30
0
  40
1.5
  0
CIRCLE
  5
90
  8
Layer_1
  62
1
  10
308.08572
  20
183.82959
  30
0
  40
1.5
  0
CIRCLE
  5
90
  8
Layer_1
  62
1
  10
308.08572
  20
249.82959
  30
0
  40
1.5
  0
POLYLINE
  5
90
  8
Layer_1
  62
1
  66
1
  10
0
  20
0
  30
0
  0
VERTEX
  5
90
  8
Layer_1
  10
224.08572
  20
201.87958
  0
VERTEX
  5
91
  8
Layer_1
  10
227.08572
  20
201.87958
  0
VERTEX
  5
92
  8
Layer_1
  10
227.08572
  20
231.77959
  0
VERTEX
  5
93
  8
Layer_1
  10
224.08572
  20
231.77959
  0
VERTEX
  5
94
  8
Layer_1
  10
224.08572
  20
257.82959
  0
VERTEX
  5
95
  8
Layer_1
  10
240.63571
  20
257.82959
  0
VERTEX
  5
96
  8
Layer_1
  10
240.63571
  20
254.82959
  0
VERTEX
  5
97
  8
Layer_1
  10
270.53574
  20
254.82959
  0
VERTEX
  5
98
  8
Layer_1
  10
270.53574
  20
257.82959
  0
VERTEX
  5
99
  8
Layer_1
  10
287.08572
  20
257.82959
  0
VERTEX
  5
9a
  8
Layer_1
  10
296.6857
  20
257.82959
  0
VERTEX
  5
9b
  8
Layer_1
  10
296.6857
  20
254.82959
  0
VERTEX
  5
9c
  8
Layer_1
  10
306.48572
  20
254.82959
  0
VERTEX
  5
9d
  8
Layer_1
  10
306.48572
  20
257.82959
  0
VERTEX
  5
9e
  8
Layer_1
  10
316.08572
  20
257.82959
  0
VERTEX
  5
9f
  8
Layer_1
  10
316.08572
  20
231.77959
  0
VERTEX
  5
a0
  8
Layer_1
  10
313.08572
  20
231.77959
  0
VERTEX
  5
a1
  8
Layer_1
  10
313.08572
  20
201.87958
  0
VERTEX
  5
a2
  8
Layer_1
  10
316.08572
  20
201.87958
  0
VERTEX
  5
a3
  8
Layer_1
  10
316.08572
  20
175.82959
  0
VERTEX
  5
a4
  8
Layer_1
  10
306.48572
  20
175.82959
  0
VERTEX
  5
a5
  8
Layer_1
  10
306.48572
  20
178.82959
  0
VERTEX
  5
a6
  8
Layer_1
  10
296.6857
  20
178.82959
  0
VERTEX
  5
a7
  8
Layer_1
  10
296.6857
  20
175.82959
  0
VERTEX
  5
a8
  8
Layer_1
  10
287.08572
  20
175.82959
  0
VERTEX
  5
a9
  8
Layer_1
  10
270.53574
  20
175.82959
  0
VERTEX
  5
aa
  8
Layer_1
  10
270.53574
  20
178.82959
  0
VERTEX
  5
ab
  8
Layer_1
  10
240.63571
  20
178.82959
  0
VERTEX
  5
ac
  8
Layer_1
  10
240.63571
  20
175.82959
  0
VERTEX
  5
ad
  8
Layer_1
  10
224.08572
  20
175.82959
  0
VERTEX
  5
ae
  8
Layer_1
  10
224.08572
  20
201.87958
  0
SEQEND
  0
POLYLINE
  5
b0
  8
Layer_1
  62
1
  66
1
  10
0
  20
0
  30
0
  0
VERTEX
  5
b0
  8
Layer_1
  10
316.08572
  20
175.82959
  0
VERTEX
  5
b1
  8
Layer_1
  10
306.58572
  20
175.82959
  0
SEQEND
  0
POLYLINE
  5
b3
  8
Layer_0
  62
3
  66
1
  10
0
  20
0
  30
0
  0
VERTEX
  5
b3
  8
Layer_0
  10
297.74423
  20
241.17137
  42
-0.044044118
  0
VERTEX
  5
b4
  8
Layer_0
  10
297.77426
  20
241.14165
  42
-0.0019911396
  0
VERTEX
  5
b5
  8
Layer_0
  10
297.79584
  20
241.12404
  0
VERTEX
  5
b6
  8
Layer_0
  10
297.80707
  20
241.11589
  0
VERTEX
  5
b7
  8
Layer_0
  10
297.8186
  20
241.10818
  0
VERTEX
  5
b8
  8
Layer_0
  10
297.83044
  20
241.10092
  0
VERTEX
  5
b9
  8
Layer_0
  10
297.84262
  20
241.09409
  0
VERTEX
  5
ba
  8
Layer_0
  10
297.85507
  20
241.08771
  0
VERTEX
  5
bb
  8
Layer_0
  10
297.86783
  20
241.08177
  0
VERTEX
  5
bc
  8
Layer_0
  10
297.88089
  20
241.07626
  0
VERTEX
  5
bd
  8
Layer_0
  10
297.89426
  20
241.0712
  42
0.096909263
  0
VERTEX
  5
be
  8
Layer_0
  10
298.06149
  20
241.04462
  42
0.14619402
  0
VERTEX
  5
bf
  8
Layer_0
  10
298.31931
  20
241.11328
  42
0.17667381
  0
VERTEX
  5
c0
  8
Layer_0
  10
298.4686
  20
241.29956
  42
0.076069508
  0
VERTEX
  5
c1
  8
Layer_0
  10
298.5094
  20
241.67508
  0
VERTEX
  5
c2
  8
Layer_0
  10
298.50858
  20
243.74194
  0
VERTEX
  5
c3
  8
Layer_0
  10
298.90555
  20
243.7421
  0
VERTEX
  5
c4
  8
Layer_0
  10
298.9064
  20
241.69775
  42
-0.10057883
  0
VERTEX
  5
c5
  8
Layer_0
  10
298.81555
  20
241.1145
  42
-0.169092
  0
VERTEX
  5
c6
  8
Layer_0
  10
298.52713
  20
240.79924
  42
-0.12856207
  0
VERTEX
  5
c7
  8
Layer_0
  10
298.06369
  20
240.6906
  42
-0.21589863
  0
VERTEX
  5
c8
  8
Layer_0
  10
297.45889
  20
240.91751
  42
-0.19422876
  0
VERTEX
  5
c9
  8
Layer_0
  10
297.25705
  20
241.59274
  0
VERTEX
  5
ca
  8
Layer_0
  10
297.61514
  20
241.642
  42
0.16140987
  0
VERTEX
  5
cb
  8
Layer_0
  10
297.74423
  20
241.17137
  0
SEQEND
  0
POLYLINE
  5
cd
  8
Layer_0
  62
3
  66
1
  10
0
  20
0
  30
0
  0
VERTEX
  5
cd
  8
Layer_0
  10
301.12021
  20
242.62157
  42
0.14931451
  0
VERTEX
  5
ce
  8
Layer_0
  10
301.22443
  20
242.97563
  42
0.13672279
  0
VERTEX
  5
cf
  8
Layer_0
  10
301.11478
  20
243.36235
  42
0.14178237
  0
VERTEX
  5
d0
  8
Layer_0
  10
300.79849
  20
243.64975
  42
0.12082956
  0
VERTEX
  5
d1
  8
Layer_0
  10
300.34622
  20
243.75494
  42
0.18311431
  0
VERTEX
  5
d2
  8
Layer_0
  10
299.75079
  20
243.5511
  42
0.17744902
  0
VERTEX
  5
d3
  8
Layer_0
  10
299.44406
  20
242.97696
  0
VERTEX
  5
d4
  8
Layer_0
  10
299.81244
  20
242.91162
  42
-0.16839637
  0
VERTEX
  5
d5
  8
Layer_0
  10
299.99646
  20
243.31689
  42
-0.19931069
  0
VERTEX
  5
d6
  8
Layer_0
  10
300.35452
  20
243.45209
  42
-0.20309916
  0
VERTEX
  5
d7
  8
Layer_0
  10
300.70859
  20
243.31921
  42
-0.21260841
  0
VERTEX
  5
d8
  8
Layer_0
  10
300.84586
  20
242.98367
  42
-0.26651156
  0
VERTEX
  5
d9
  8
Layer_0
  10
300.65775
  20
242.60501
  42
-0.14811916
  0
VERTEX
  5
da
  8
Layer_0
  10
300.23416
  20
242.48206
  0
VERTEX
  5
db
  8
Layer_0
  10
300.23032
  20
242.48209
  42
-0.0026946755
  0
VERTEX
  5
dc
  8
Layer_0
  10
300.21756
  20
242.48251
  0
VERTEX
  5
dd
  8
Layer_0
  10
300.21292
  20
242.48276
  0
VERTEX
  5
de
  8
Layer_0
  10
300.2081
  20
242.48306
  0
VERTEX
  5
df
  8
Layer_0
  10
300.20303
  20
242.48343
  0
VERTEX
  5
e0
  8
Layer_0
  10
300.19778
  20
242.48386
  42
0.0044388278
  0
VERTEX
  5
e1
  8
Layer_0
  10
300.17484
  20
242.48611
  0
VERTEX
  5
e2
  8
Layer_0
  10
300.13403
  20
242.16278
  42
-0.061960697
  0
VERTEX
  5
e3
  8
Layer_0
  10
300.39389
  20
242.20381
  42
-0.20330479
  0
VERTEX
  5
e4
  8
Layer_0
  10
300.81552
  20
242.03925
  42
-0.20573809
  0
VERTEX
  5
e5
  8
Layer_0
  10
300.98145
  20
241.62082
  42
-0.20495583
  0
VERTEX
  5
e6
  8
Layer_0
  10
300.80258
  20
241.17465
  42
-0.20685866
  0
VERTEX
  5
e7
  8
Layer_0
  10
300.36368
  20
240.99438
  42
-0.19205006
  0
VERTEX
  5
e8
  8
Layer_0
  10
299.99222
  20
241.13237
  42
-0.15732914
  0
VERTEX
  5
e9
  8
Layer_0
  10
299.77615
  20
241.58351
  0
VERTEX
  5
ea
  8
Layer_0
  10
299.40781
  20
241.53424
  42
0.19299961
  0
VERTEX
  5
eb
  8
Layer_0
  10
299.70581
  20
240.92455
  42
0.19111689
  0
VERTEX
  5
ec
  8
Layer_0
  10
300.36179
  20
240.68948
  42
0.19903139
  0
VERTEX
  5
ed
  8
Layer_0
  10
301.08609
  20
240.96295
  42
0.21365224
  0
VERTEX
  5
ee
  8
Layer_0
  10
301.37228
  20
241.62918
  42
0.16691366
  0
VERTEX
  5
ef
  8
Layer_0
  10
301.22476
  20
242.11308
  42
0.17884932
  0
VERTEX
  5
f0
  8
Layer_0
  10
300.81131
  20
242.36769
  42
0.14283887
  0
VERTEX
  5
f1
  8
Layer_0
  10
301.12021
  20
242.62157
  0
SEQEND
  0
POLYLINE
  5
f3
  8
Layer_0
  62
3
  66
1
  10
0
  20
0
  30
0
  0
VERTEX
  5
f3
  8
Layer_0
  10
302.82712
  20
242.01447
  0
VERTEX
  5
f4
  8
Layer_0
  10
302.82727
  20
241.64407
  0
VERTEX
  5
f5
  8
Layer_0
  10
301.69565
  20
241.64362
  0
VERTEX
  5
f6
  8
Layer_0
  10
301.69547
  20
242.01402
  0
VERTEX
  5
f7
  8
Layer_0
  10
302.82712
  20
242.01447
  0
SEQEND
  0
POLYLINE
  5
f9
  8
Layer_0
  62
3
  66
1
  10
0
  20
0
  30
0
  0
VERTEX
  5
f9
  8
Layer_0
  10
303.8071
  20
242.59195
  42
-0.11965675
  0
VERTEX
  5
fa
  8
Layer_0
  10
304.21024
  20
242.69034
  42
-0.21328225
  0
VERTEX
  5
fb
  8
Layer_0
  10
304.83755
  20
242.41943
  42
-0.19815506
  0
VERTEX
  5
fc
  8
Layer_0
  10
305.09671
  20
241.71866
  42
-0.11811701
  0
VERTEX
  5
fd
  8
Layer_0
  10
304.97513
  20
241.19371
  42
-0.14360387
  0
VERTEX
  5
fe
  8
Layer_0
  10
304.64072
  20
240.82216
  42
-0.13846785
  0
VERTEX
  5
ff
  8
Layer_0
  10
304.15781
  20
240.69304
  42
-0.22894667
  0
VERTEX
  5
100
  8
Layer_0
  10
303.40665
  20
241.03142
  42
-0.17298116
  0
VERTEX
  5
101
  8
Layer_0
  10
303.11563
  20
242.14761
  42
-0.16684579
  0
VERTEX
  5
102
  8
Layer_0
  10
303.43637
  20
243.4124
  42
-0.23605675
  0
VERTEX
  5
103
  8
Layer_0
  10
304.19138
  20
243.7565
  42
-0.18732985
  0
VERTEX
  5
104
  8
Layer_0
  10
304.77161
  20
243.55823
  42
-0.18696089
  0
VERTEX
  5
105
  8
Layer_0
  10
305.04297
  20
243.0099
  0
VERTEX
  5
106
  8
Layer_0
  10
304.67667
  20
242.98111
  42
0.12407808
  0
VERTEX
  5
107
  8
Layer_0
  10
304.53738
  20
243.2962
  42
0.21669675
  0
VERTEX
  5
108
  8
Layer_0
  10
304.16898
  20
243.45361
  42
0.16254549
  0
VERTEX
  5
109
  8
Layer_0
  10
303.86002
  20
243.35527
  42
0.13839997
  0
VERTEX
  5
10a
  8
Layer_0
  10
303.58597
  20
242.98477
  42
0.091350325
  0
VERTEX
  5
10b
  8
Layer_0
  10
303.48184
  20
242.291
  42
-0.13301379
  0
VERTEX
  5
10c
  8
Layer_0
  10
303.8071
  20
242.59195
  0
SEQEND
  0
POLYLINE
  5
10e
  8
Layer_0
  62
3
  66
1
  10
0
  20
0
  30
0
  0
VERTEX
  5
10e
  8
Layer_0
  10
303.84659
  20
241.08685
  42
0.14550788
  0
VERTEX
  5
10f
  8
Layer_0
  10
304.15155
  20
240.99591
  42
0.22083077
  0
VERTEX
  5
110
  8
Layer_0
  10
304.55258
  20
241.18433
  42
0.18761498
  0
VERTEX
  5
111
  8
Layer_0
  10
304.72018
  20
241.69598
  42
0.19326945
  0
VERTEX
  5
112
  8
Layer_0
  10
304.55423
  20
242.18604
  42
0.21576474
  0
VERTEX
  5
113
  8
Layer_0
  10
304.13669
  20
242.36493
  42
0.20997898
  0
VERTEX
  5
114
  8
Layer_0
  10
303.71317
  20
242.1857
  42
0.011163947
  0
VERTEX
  5
115
  8
Layer_0
  10
303.68539
  20
242.15506
  42
0.18260668
  0
VERTEX
  5
116
  8
Layer_0
  10
303.5394
  20
241.71599
  42
0.11041233
  0
VERTEX
  5
117
  8
Layer_0
  10
303.62036
  20
241.35176
  42
0.14516505
  0
VERTEX
  5
118
  8
Layer_0
  10
303.84659
  20
241.08685
  0
SEQEND
  0
ENDSEC
  0
EOF
