  0
SECTION
  2
HEADER
  9
$ACADVER
  1
AC1009
  0
ENDSEC
  0
SECTION
  2
ENTITIES
  0
CIRCLE
  5
90
  8
Layer_1
  62
1
  10
318.5
  20
317.5
  30
0
  40
1.5
  0
CIRCLE
  5
90
  8
Layer_1
  62
1
  10
276.5
  20
317.5
  30
0
  40
1.5
  0
CIRCLE
  5
90
  8
Layer_1
  62
1
  10
247.5
  20
317.5
  30
0
  40
1.5
  0
CIRCLE
  5
90
  8
Layer_1
  62
1
  10
245
  20
80
  30
0
  40
1.5
  0
CIRCLE
  5
90
  8
Layer_1
  62
1
  10
274
  20
80
  30
0
  40
1.5
  0
CIRCLE
  5
90
  8
Layer_1
  62
1
  10
321
  20
80
  30
0
  40
1.5
  0
CIRCLE
  5
90
  8
Layer_1
  62
1
  10
298.60001
  20
257.56897
  30
0
  40
1.5
  0
CIRCLE
  5
90
  8
Layer_1
  62
1
  10
298.60001
  20
250.56898
  30
0
  40
1.5
  0
POLYLINE
  5
90
  8
Layer_1
  62
1
  66
1
  10
0
  20
0
  30
0
  0
VERTEX
  5
90
  8
Layer_1
  10
329
  20
289.94998
  0
VERTEX
  5
91
  8
Layer_1
  10
326
  20
289.94998
  0
VERTEX
  5
92
  8
Layer_1
  10
326
  20
260.04999
  0
VERTEX
  5
93
  8
Layer_1
  10
329
  20
260.04999
  0
VERTEX
  5
94
  8
Layer_1
  10
329
  20
214.94998
  0
VERTEX
  5
95
  8
Layer_1
  10
326
  20
214.94998
  0
VERTEX
  5
96
  8
Layer_1
  10
326
  20
185.04999
  0
VERTEX
  5
97
  8
Layer_1
  10
329
  20
185.04999
  0
VERTEX
  5
98
  8
Layer_1
  10
329
  20
139.94998
  0
VERTEX
  5
99
  8
Layer_1
  10
326
  20
139.94998
  0
VERTEX
  5
9a
  8
Layer_1
  10
326
  20
110.04999
  0
VERTEX
  5
9b
  8
Layer_1
  10
329
  20
110.04999
  0
VERTEX
  5
9c
  8
Layer_1
  10
329
  20
75
  0
VERTEX
  5
9d
  8
Layer_1
  10
312.5
  20
75
  0
VERTEX
  5
9e
  8
Layer_1
  10
312.5
  20
72
  0
VERTEX
  5
9f
  8
Layer_1
  10
282.5
  20
72
  0
VERTEX
  5
a0
  8
Layer_1
  10
282.5
  20
75
  0
VERTEX
  5
a1
  8
Layer_1
  10
266
  20
75
  0
VERTEX
  5
a2
  8
Layer_1
  10
256.5
  20
75
  0
VERTEX
  5
a3
  8
Layer_1
  10
256.5
  20
72
  0
VERTEX
  5
a4
  8
Layer_1
  10
246.5
  20
72
  0
VERTEX
  5
a5
  8
Layer_1
  10
246.5
  20
75
  0
VERTEX
  5
a6
  8
Layer_1
  10
237
  20
75
  0
VERTEX
  5
a7
  8
Layer_1
  10
237
  20
110.04999
  0
VERTEX
  5
a8
  8
Layer_1
  10
240
  20
110.04999
  0
VERTEX
  5
a9
  8
Layer_1
  10
240
  20
139.94998
  0
VERTEX
  5
aa
  8
Layer_1
  10
237
  20
139.94998
  0
VERTEX
  5
ab
  8
Layer_1
  10
237
  20
185.04999
  0
VERTEX
  5
ac
  8
Layer_1
  10
240
  20
185.04999
  0
VERTEX
  5
ad
  8
Layer_1
  10
240
  20
214.94998
  0
VERTEX
  5
ae
  8
Layer_1
  10
237
  20
214.94998
  0
VERTEX
  5
af
  8
Layer_1
  10
237
  20
260.04999
  0
VERTEX
  5
b0
  8
Layer_1
  10
240
  20
260.04999
  0
VERTEX
  5
b1
  8
Layer_1
  10
240
  20
289.94998
  0
VERTEX
  5
b2
  8
Layer_1
  10
237
  20
289.94998
  0
VERTEX
  5
b3
  8
Layer_1
  10
237
  20
325
  0
VERTEX
  5
b4
  8
Layer_1
  10
246.5
  20
325
  0
VERTEX
  5
b5
  8
Layer_1
  10
246.5
  20
328
  0
VERTEX
  5
b6
  8
Layer_1
  10
256.5
  20
328
  0
VERTEX
  5
b7
  8
Layer_1
  10
256.5
  20
325
  0
VERTEX
  5
b8
  8
Layer_1
  10
266
  20
325
  0
VERTEX
  5
b9
  8
Layer_1
  10
282.5
  20
325
  0
VERTEX
  5
ba
  8
Layer_1
  10
282.5
  20
328
  0
VERTEX
  5
bb
  8
Layer_1
  10
312.5
  20
328
  0
VERTEX
  5
bc
  8
Layer_1
  10
312.5
  20
325
  0
VERTEX
  5
bd
  8
Layer_1
  10
329
  20
325
  0
VERTEX
  5
be
  8
Layer_1
  10
329
  20
289.94998
  0
SEQEND
  0
POLYLINE
  5
c0
  8
Layer_1
  62
1
  66
1
  10
0
  20
0
  30
0
  0
VERTEX
  5
c0
  8
Layer_1
  10
266
  20
139.94998
  0
VERTEX
  5
c1
  8
Layer_1
  10
269.10001
  20
139.94998
  0
VERTEX
  5
c2
  8
Layer_1
  10
269.10001
  20
110.04999
  0
VERTEX
  5
c3
  8
Layer_1
  10
266
  20
110.04999
  0
VERTEX
  5
c4
  8
Layer_1
  10
266
  20
139.94998
  0
SEQEND
  0
POLYLINE
  5
c6
  8
Layer_1
  62
1
  66
1
  10
0
  20
0
  30
0
  0
VERTEX
  5
c6
  8
Layer_1
  10
269.10001
  20
185.04999
  0
VERTEX
  5
c7
  8
Layer_1
  10
266
  20
185.04999
  0
VERTEX
  5
c8
  8
Layer_1
  10
266
  20
214.94998
  0
VERTEX
  5
c9
  8
Layer_1
  10
269.10001
  20
214.94998
  0
VERTEX
  5
ca
  8
Layer_1
  10
269.10001
  20
185.04999
  0
SEQEND
  0
POLYLINE
  5
cc
  8
Layer_1
  62
1
  66
1
  10
0
  20
0
  30
0
  0
VERTEX
  5
cc
  8
Layer_1
  10
269.10001
  20
260.04999
  0
VERTEX
  5
cd
  8
Layer_1
  10
266
  20
260.04999
  0
VERTEX
  5
ce
  8
Layer_1
  10
266
  20
289.94998
  0
VERTEX
  5
cf
  8
Layer_1
  10
269.10001
  20
289.94998
  0
VERTEX
  5
d0
  8
Layer_1
  10
269.10001
  20
260.04999
  0
SEQEND
  0
POLYLINE
  5
d2
  8
Layer_0
  62
3
  66
1
  10
0
  20
0
  30
0
  0
VERTEX
  5
d2
  8
Layer_0
  10
311.10913
  20
86.609131
  0
VERTEX
  5
d3
  8
Layer_0
  10
311.1188
  20
86.598755
  42
0.20852613
  0
VERTEX
  5
d4
  8
Layer_0
  10
311.42615
  20
86.481873
  0
VERTEX
  5
d5
  8
Layer_0
  10
311.45078
  20
86.4823
  42
0.13462593
  0
VERTEX
  5
d6
  8
Layer_0
  10
311.68408
  20
86.55011
  42
0.17519092
  0
VERTEX
  5
d7
  8
Layer_0
  10
311.83371
  20
86.736145
  42
0.076031367
  0
VERTEX
  5
d8
  8
Layer_0
  10
311.87509
  20
87.111603
  0
VERTEX
  5
d9
  8
Layer_0
  10
311.87762
  20
89.178436
  0
VERTEX
  5
da
  8
Layer_0
  10
312.27463
  20
89.177948
  0
VERTEX
  5
db
  8
Layer_0
  10
312.27213
  20
87.133606
  42
-0.099977233
  0
VERTEX
  5
dc
  8
Layer_0
  10
312.18033
  20
86.550507
  42
-0.16936214
  0
VERTEX
  5
dd
  8
Layer_0
  10
311.89142
  20
86.235718
  42
-0.0095242107
  0
VERTEX
  5
de
  8
Layer_0
  10
311.858
  20
86.218445
  42
-0.1150817
  0
VERTEX
  5
df
  8
Layer_0
  10
311.42776
  20
86.127838
  0
VERTEX
  5
e0
  8
Layer_0
  10
311.39517
  20
86.128265
  42
-0.20909628
  0
VERTEX
  5
e1
  8
Layer_0
  10
310.82333
  20
86.355713
  0
VERTEX
  5
e2
  8
Layer_0
  10
310.80627
  20
86.375061
  42
-0.18222905
  0
VERTEX
  5
e3
  8
Layer_0
  10
310.62262
  20
87.031281
  0
VERTEX
  5
e4
  8
Layer_0
  10
310.98077
  20
87.079956
  0
VERTEX
  5
e5
  8
Layer_0
  10
310.98212
  20
87.051697
  42
0.16132831
  0
VERTEX
  5
e6
  8
Layer_0
  10
311.10913
  20
86.609131
  0
SEQEND
  0
POLYLINE
  5
e8
  8
Layer_0
  62
3
  66
1
  10
0
  20
0
  30
0
  0
VERTEX
  5
e8
  8
Layer_0
  10
314.48743
  20
88.053833
  42
0.14928039
  0
VERTEX
  5
e9
  8
Layer_0
  10
314.59222
  20
88.407715
  42
0.13802463
  0
VERTEX
  5
ea
  8
Layer_0
  10
314.48322
  20
88.794617
  42
0.14305721
  0
VERTEX
  5
eb
  8
Layer_0
  10
314.16742
  20
89.08252
  42
0.11927701
  0
VERTEX
  5
ec
  8
Layer_0
  10
313.7153
  20
89.188477
  42
0.17375695
  0
VERTEX
  5
ed
  8
Layer_0
  10
313.13971
  20
89.002167
  0
VERTEX
  5
ee
  8
Layer_0
  10
313.11957
  20
88.985596
  42
0.17081572
  0
VERTEX
  5
ef
  8
Layer_0
  10
312.81787
  20
88.442505
  0
VERTEX
  5
f0
  8
Layer_0
  10
312.81189
  20
88.411957
  0
VERTEX
  5
f1
  8
Layer_0
  10
313.18015
  20
88.346008
  42
-0.15799824
  0
VERTEX
  5
f2
  8
Layer_0
  10
313.35306
  20
88.739502
  0
VERTEX
  5
f3
  8
Layer_0
  10
313.36484
  20
88.750977
  42
-0.073885317
  0
VERTEX
  5
f4
  8
Layer_0
  10
313.48242
  20
88.83313
  42
-0.11708979
  0
VERTEX
  5
f5
  8
Layer_0
  10
313.72311
  20
88.88559
  42
-0.20095385
  0
VERTEX
  5
f6
  8
Layer_0
  10
314.07697
  20
88.752136
  42
-0.21058141
  0
VERTEX
  5
f7
  8
Layer_0
  10
314.21368
  20
88.416351
  42
-0.26847686
  0
VERTEX
  5
f8
  8
Layer_0
  10
314.02493
  20
88.038025
  42
-0.14255148
  0
VERTEX
  5
f9
  8
Layer_0
  10
313.62073
  20
87.915955
  0
VERTEX
  5
fa
  8
Layer_0
  10
313.6012
  20
87.915741
  0
VERTEX
  5
fb
  8
Layer_0
  10
313.59735
  20
87.915771
  0
VERTEX
  5
fc
  8
Layer_0
  10
313.59329
  20
87.915894
  0
VERTEX
  5
fd
  8
Layer_0
  10
313.58905
  20
87.916016
  0
VERTEX
  5
fe
  8
Layer_0
  10
313.58459
  20
87.916229
  0
VERTEX
  5
ff
  8
Layer_0
  10
313.57996
  20
87.916504
  0
VERTEX
  5
100
  8
Layer_0
  10
313.5751
  20
87.916809
  0
VERTEX
  5
101
  8
Layer_0
  10
313.57004
  20
87.917175
  42
0.00052151174
  0
VERTEX
  5
102
  8
Layer_0
  10
313.55371
  20
87.91864
  42
0.0011894482
  0
VERTEX
  5
103
  8
Layer_0
  10
313.54184
  20
87.919922
  0
VERTEX
  5
104
  8
Layer_0
  10
313.50052
  20
87.596649
  42
-0.062123652
  0
VERTEX
  5
105
  8
Layer_0
  10
313.76047
  20
87.637238
  42
-0.20547288
  0
VERTEX
  5
106
  8
Layer_0
  10
314.18182
  20
87.471985
  42
-0.20708084
  0
VERTEX
  5
107
  8
Layer_0
  10
314.34705
  20
87.053314
  42
-0.20531197
  0
VERTEX
  5
108
  8
Layer_0
  10
314.16745
  20
86.607422
  42
-0.19832844
  0
VERTEX
  5
109
  8
Layer_0
  10
313.74979
  20
86.428162
  0
VERTEX
  5
10a
  8
Layer_0
  10
313.72827
  20
86.427887
  42
-0.18316826
  0
VERTEX
  5
10b
  8
Layer_0
  10
313.36984
  20
86.555176
  0
VERTEX
  5
10c
  8
Layer_0
  10
313.35703
  20
86.566467
  42
-0.15443039
  0
VERTEX
  5
10d
  8
Layer_0
  10
313.14709
  20
86.992157
  0
VERTEX
  5
10e
  8
Layer_0
  10
313.14169
  20
87.017944
  0
VERTEX
  5
10f
  8
Layer_0
  10
312.77328
  20
86.969299
  42
0.18386742
  0
VERTEX
  5
110
  8
Layer_0
  10
313.04895
  20
86.378998
  0
VERTEX
  5
111
  8
Layer_0
  10
313.07028
  20
86.3591
  42
0.18416679
  0
VERTEX
  5
112
  8
Layer_0
  10
313.69318
  20
86.123413
  0
VERTEX
  5
113
  8
Layer_0
  10
313.72586
  20
86.122955
  42
0.11657315
  0
VERTEX
  5
114
  8
Layer_0
  10
314.21423
  20
86.229065
  42
0.075822802
  0
VERTEX
  5
115
  8
Layer_0
  10
314.45062
  20
86.395264
  42
0.21306528
  0
VERTEX
  5
116
  8
Layer_0
  10
314.73792
  20
87.061005
  42
0.16716451
  0
VERTEX
  5
117
  8
Layer_0
  10
314.59119
  20
87.545166
  42
0.179532
  0
VERTEX
  5
118
  8
Layer_0
  10
314.17813
  20
87.800446
  42
0.13516619
  0
VERTEX
  5
119
  8
Layer_0
  10
314.47855
  20
88.040649
  0
VERTEX
  5
11a
  8
Layer_0
  10
314.48743
  20
88.053833
  0
SEQEND
  0
POLYLINE
  5
11c
  8
Layer_0
  62
3
  66
1
  10
0
  20
0
  30
0
  0
VERTEX
  5
11c
  8
Layer_0
  10
316.19336
  20
87.443939
  0
VERTEX
  5
11d
  8
Layer_0
  10
316.19293
  20
87.073547
  0
VERTEX
  5
11e
  8
Layer_0
  10
315.06128
  20
87.074951
  0
VERTEX
  5
11f
  8
Layer_0
  10
315.06171
  20
87.445343
  0
VERTEX
  5
120
  8
Layer_0
  10
316.19336
  20
87.443939
  0
SEQEND
  0
POLYLINE
  5
122
  8
Layer_0
  62
3
  66
1
  10
0
  20
0
  30
0
  0
VERTEX
  5
122
  8
Layer_0
  10
317.11746
  20
86.725555
  42
-0.021827832
  0
VERTEX
  5
123
  8
Layer_0
  10
317.43954
  20
87.014923
  0
VERTEX
  5
124
  8
Layer_0
  10
317.54358
  20
87.1026
  42
0.032474695
  0
VERTEX
  5
125
  8
Layer_0
  10
318.11209
  20
87.629852
  42
0.080581263
  0
VERTEX
  5
126
  8
Layer_0
  10
318.35709
  20
87.99585
  42
0.10171572
  0
VERTEX
  5
127
  8
Layer_0
  10
318.43118
  20
88.349792
  42
0.21361235
  0
VERTEX
  5
128
  8
Layer_0
  10
318.18021
  20
88.943542
  42
0.19721209
  0
VERTEX
  5
129
  8
Layer_0
  10
317.49701
  20
89.183807
  42
0.1746751
  0
VERTEX
  5
12a
  8
Layer_0
  10
316.83676
  20
88.980713
  0
VERTEX
  5
12b
  8
Layer_0
  10
316.81531
  20
88.962616
  42
0.19092261
  0
VERTEX
  5
12c
  8
Layer_0
  10
316.52551
  20
88.352295
  0
VERTEX
  5
12d
  8
Layer_0
  10
316.52188
  20
88.317352
  0
VERTEX
  5
12e
  8
Layer_0
  10
316.90039
  20
88.278015
  42
-0.19033517
  0
VERTEX
  5
12f
  8
Layer_0
  10
317.04956
  20
88.706329
  0
VERTEX
  5
130
  8
Layer_0
  10
317.06262
  20
88.719818
  42
-0.081720783
  0
VERTEX
  5
131
  8
Layer_0
  10
317.19742
  20
88.816925
  42
-0.11714069
  0
VERTEX
  5
132
  8
Layer_0
  10
317.48846
  20
88.878906
  42
-0.19971928
  0
VERTEX
  5
133
  8
Layer_0
  10
317.89651
  20
88.727997
  42
-0.21276264
  0
VERTEX
  5
134
  8
Layer_0
  10
318.05261
  20
88.358429
  42
-0.15965066
  0
VERTEX
  5
135
  8
Layer_0
  10
317.88019
  20
87.915619
  42
-0.056081747
  0
VERTEX
  5
136
  8
Layer_0
  10
317.21841
  20
87.281006
  42
0.040791932
  0
VERTEX
  5
137
  8
Layer_0
  10
316.75012
  20
86.843781
  0
VERTEX
  5
138
  8
Layer_0
  10
316.73593
  20
86.827301
  42
0.078025055
  0
VERTEX
  5
139
  8
Layer_0
  10
316.50623
  20
86.46228
  0
VERTEX
  5
13a
  8
Layer_0
  10
316.49295
  20
86.428558
  42
0.092448581
  0
VERTEX
  5
13b
  8
Layer_0
  10
316.44934
  20
86.194916
  0
VERTEX
  5
13c
  8
Layer_0
  10
316.44965
  20
86.172821
  0
VERTEX
  5
13d
  8
Layer_0
  10
318.43262
  20
86.17038
  0
VERTEX
  5
13e
  8
Layer_0
  10
318.43304
  20
86.524414
  0
VERTEX
  5
13f
  8
Layer_0
  10
316.96167
  20
86.526215
  42
-0.048944918
  0
VERTEX
  5
140
  8
Layer_0
  10
317.10199
  20
86.709015
  0
VERTEX
  5
141
  8
Layer_0
  10
317.11746
  20
86.725555
  0
SEQEND
  0
ENDSEC
  0
EOF
