0
SECTION
2
HEADER
9
$INSUNITS
70
4
9
$ACADVER
1
AC1014
9
$HANDSEED
5
FFFF
0
ENDSEC
0
SECTION
2
TABLES
0
TABLE
2
VPORT
5
8
100
AcDbSymbolTable
0
ENDTAB
0
TABLE
2
LTYPE
5
5
100
AcDbSymbolTable
0
LTYPE
5
14
100
AcDbSymbolTableRecord
100
AcDbLinetypeTableRecord
2
BYBLOCK
70
0
0
LTYPE
5
15
100
AcDbSymbolTableRecord
100
AcDbLinetypeTableRecord
2
BYLAYER
70
0
0
ENDTAB
0
TABLE
2
LAYER
5
2
100
AcDbSymbolTable
70
2
0
LAYER
5
50
100
AcDbSymbolTableRecord
100
AcDbLayerTableRecord
2
0
70
0
6
CONTINUOUS
0
ENDTAB
0
TABLE
2
STYLE
5
3
100
AcDbSymbolTable
70
1
0
STYLE
5
11
100
AcDbSymbolTableRecord
100
AcDbTextStyleTableRecord
2
STANDARD
70
0
0
ENDTAB
0
TABLE
2
VIEW
5
6
100
AcDbSymbolTable
70
0
0
ENDTAB
0
TABLE
2
UCS
5
7
100
AcDbSymbolTable
70
0
0
ENDTAB
0
TABLE
2
APPID
5
9
100
AcDbSymbolTable
70
2
0
APPID
5
12
100
AcDbSymbolTableRecord
100
AcDbRegAppTableRecord
2
ACAD
70
0
0
ENDTAB
0
TABLE
2
DIMSTYLE
5
A
100
AcDbSymbolTable
70
1
0
ENDTAB
0
TABLE
2
BLOCK_RECORD
5
1
100
AcDbSymbolTable
70
1
0
BLOCK_RECORD
5
1F
100
AcDbSymbolTableRecord
100
AcDbBlockTableRecord
2
*MODEL_SPACE
0
BLOCK_RECORD
5
1B
100
AcDbSymbolTableRecord
100
AcDbBlockTableRecord
2
*PAPER_SPACE
0
ENDTAB
0
ENDSEC
0
SECTION
2
BLOCKS
0
BLOCK
5
20
100
AcDbEntity
100
AcDbBlockBegin
2
*MODEL_SPACE
0
ENDBLK
5
21
100
AcDbEntity
100
AcDbBlockEnd
0
BLOCK
5
1C
100
AcDbEntity
100
AcDbBlockBegin
2
*PAPER_SPACE
0
ENDBLK
5
1D
100
AcDbEntity
100
AcDbBlockEnd
0
ENDSEC
0
SECTION
2
ENTITIES
0
LINE
5
100
100
AcDbEntity
8
0
100
AcDbLine
10
56
20
22
30
0
11
5.2000108498455368e-32
21
22
31
0
0
LINE
5
101
100
AcDbEntity
8
0
100
AcDbLine
10
29.000000000000004
20
50
30
0
11
28.999999999999993
21
-1.7763568394002619e-16
31
0
0
LWPOLYLINE
5
102
100
AcDbEntity
8
0
100
AcDbPolyline
90
20
70
1
43
0.0
10
14.000000000000004
20
0
10
14.000000000000004
20
-3.0000000000000004
10
44
20
-3.0000000000000004
10
43.999999999999993
20
0
10
58.000000000000007
20
0
10
57.999999999999986
20
7.0499999999999909
10
54.999999999999993
20
7.0499999999999909
10
54.999999999999993
20
36.949999999999996
10
58.000000000000007
20
36.949999999999996
10
58.000000000000007
20
44
10
43.999999999999993
20
44
10
44
20
47
10
14.000000000000004
20
47
10
14.000000000000004
20
44
10
-1.9691155480898738e-29
20
44
10
0
20
36.950000000000003
10
3.0000000000000164
20
36.950000000000003
10
3.0000000000000004
20
7.0500000000000007
10
-1.9176032562152587e-29
20
7.0500000000000007
10
0
20
0
0
CIRCLE
5
103
100
AcDbEntity
8
0
100
AcDbCircle
10
8.0000000000000053
20
39
30
0
40
1.5000000000000002
210
0
220
0
230
1
0
CIRCLE
5
104
100
AcDbEntity
8
0
100
AcDbCircle
10
50
20
38.999999999999993
30
0
40
1.5000000000000002
210
0
220
0
230
1
0
CIRCLE
5
105
100
AcDbEntity
8
0
100
AcDbCircle
10
8.0000000000000036
20
5
30
0
40
1.5000000000000002
210
0
220
0
230
1
0
CIRCLE
5
106
100
AcDbEntity
8
0
100
AcDbCircle
10
50.000000000000007
20
5.0000000000000089
30
0
40
1.5000000000000002
210
0
220
0
230
1
0
LWPOLYLINE
5
107
100
AcDbEntity
8
0
100
AcDbPolyline
90
4
70
1
43
0.0
10
11.386875508368329
20
37.540608834603589
10
24.803314866726534
20
37.540608834603589
10
24.803314866726534
20
42.571773593987913
10
11.386875508368329
20
42.571773593987913
0
LINE
5
108
100
AcDbEntity
8
0
100
AcDbLine
10
11.392332532458321
20
41.139304255809279
30
0
11
11.6310774004239
21
41.172046428288908
31
0
0
SPLINE
5
109
100
AcDbEntity
8
0
100
AcDbSpline
70
0
71
2
72
6
73
3
74
0
42
0.000000001
43
0.0000000001
44
0.0000000001
40
0
40
0
40
0
40
1
40
1
40
1
10
11.6310774004239
20
41.172046428288908
30
0
10
11.64062721935691
20
40.942851369943114
30
0
10
11.717025547303573
20
40.85826746162364
30
0
0
SPLINE
5
110
100
AcDbEntity
8
0
100
AcDbSpline
70
0
71
2
72
6
73
3
74
0
42
0.000000001
43
0.0000000001
44
0.0000000001
40
0
40
0
40
0
40
1
40
1
40
1
10
11.717025547303573
20
40.85826746162364
30
0
10
11.793423912503139
20
40.773683553304167
30
0
10
11.928485318102256
20
40.773683553304167
30
0
0
SPLINE
5
111
100
AcDbEntity
8
0
100
AcDbSpline
70
0
71
2
72
6
73
3
74
0
42
0.000000001
43
0.0000000001
44
0.0000000001
40
0
40
0
40
0
40
1
40
1
40
1
10
11.928485318102256
20
40.773683553304167
30
0
10
12.028076074101344
20
40.773683553304167
30
0
10
12.100381649114505
20
40.819386159743758
30
0
0
SPLINE
5
112
100
AcDbEntity
8
0
100
AcDbSpline
70
0
71
2
72
6
73
3
74
0
42
0.000000001
43
0.0000000001
44
0.0000000001
40
0
40
0
40
0
40
1
40
1
40
1
10
12.100381649114505
20
40.819386159743758
30
0
10
12.172687224127666
20
40.865088617171736
30
0
10
12.19997236786069
20
40.943533396090956
30
0
0
SPLINE
5
113
100
AcDbEntity
8
0
100
AcDbSpline
70
0
71
2
72
6
73
3
74
0
42
0.000000001
43
0.0000000001
44
0.0000000001
40
0
40
0
40
0
40
1
40
1
40
1
10
12.19997236786069
20
40.943533396090956
30
0
10
12.227257511593715
20
41.021978175010176
30
0
10
12.227257511593715
20
41.193874543275328
30
0
0
LINE
5
114
100
AcDbEntity
8
0
100
AcDbLine
10
12.227257511593715
20
41.193874543275328
30
0
11
12.227257511593715
21
42.571773593987913
31
0
0
LINE
5
115
100
AcDbEntity
8
0
100
AcDbLine
10
12.227257511593715
20
42.571773593987913
30
0
11
12.491923294045344
21
42.571773593987913
31
0
0
LINE
5
116
100
AcDbEntity
8
0
100
AcDbLine
10
12.491923294045344
20
42.571773593987913
30
0
11
12.491923294045344
21
41.20888135370204
31
0
0
SPLINE
5
117
100
AcDbEntity
8
0
100
AcDbSpline
70
0
71
2
72
6
73
3
74
0
42
0.000000001
43
0.0000000001
44
0.0000000001
40
0
40
0
40
0
40
1
40
1
40
1
10
12.491923294045344
20
41.20888135370204
30
0
10
12.491923294045344
20
40.957858180369826
30
0
10
12.431213877179042
20
40.8200681858916
30
0
0
SPLINE
5
118
100
AcDbEntity
8
0
100
AcDbSpline
70
0
71
2
72
6
73
3
74
0
42
0.000000001
43
0.0000000001
44
0.0000000001
40
0
40
0
40
0
40
1
40
1
40
1
10
12.431213877179042
20
40.8200681858916
30
0
10
12.370504460312739
20
40.682278340424986
30
0
10
12.238853669740573
20
40.609972690906019
30
0
0
SPLINE
5
119
100
AcDbEntity
8
0
100
AcDbSpline
70
0
71
2
72
6
73
3
74
0
42
0.000000001
43
0.0000000001
44
0.0000000001
40
0
40
0
40
0
40
1
40
1
40
1
10
12.238853669740573
20
40.609972690906019
30
0
10
12.107202953674213
20
40.537667190398665
30
0
10
11.929849556662456
20
40.537667190398665
30
0
0
SPLINE
5
120
100
AcDbEntity
8
0
100
AcDbSpline
70
0
71
2
72
6
73
3
74
0
42
0.000000001
43
0.0000000001
44
0.0000000001
40
0
40
0
40
0
40
1
40
1
40
1
10
11.929849556662456
20
40.537667190398665
30
0
10
11.666548087276832
20
40.537667190398665
30
0
10
11.526711790837661
20
40.689099644984694
30
0
0
SPLINE
5
121
100
AcDbEntity
8
0
100
AcDbSpline
70
0
71
2
72
6
73
3
74
0
42
0.000000001
43
0.0000000001
44
0.0000000001
40
0
40
0
40
0
40
1
40
1
40
1
10
11.526711790837661
20
40.689099644984694
30
0
10
11.386875508368329
20
40.840532099570723
30
0
10
11.392332532458321
20
41.139304255809279
30
0
0
LINE
5
122
100
AcDbEntity
8
0
100
AcDbLine
10
12.824801749565021
20
41.095648025836439
30
0
11
13.082646227456943
21
41.117476140822859
31
0
0
SPLINE
5
123
100
AcDbEntity
8
0
100
AcDbSpline
70
0
71
2
72
6
73
3
74
0
42
0.000000001
43
0.0000000001
44
0.0000000001
40
0
40
0
40
0
40
1
40
1
40
1
10
13.082646227456943
20
41.117476140822859
30
0
10
13.11129564700307
20
40.929208760823698
30
0
10
13.2156611448306
20
40.83439297017047
30
0
0
SPLINE
5
124
100
AcDbEntity
8
0
100
AcDbSpline
70
0
71
2
72
6
73
3
74
0
42
0.000000001
43
0.0000000001
44
0.0000000001
40
0
40
0
40
0
40
1
40
1
40
1
10
13.2156611448306
20
40.83439297017047
30
0
10
13.320026791669742
20
40.739577030505629
30
0
10
13.467366493322269
20
40.739577030505629
30
0
0
SPLINE
5
125
100
AcDbEntity
8
0
100
AcDbSpline
70
0
71
2
72
6
73
3
74
0
42
0.000000001
43
0.0000000001
44
0.0000000001
40
0
40
0
40
0
40
1
40
1
40
1
10
13.467366493322269
20
40.739577030505629
30
0
10
13.644719815828219
20
40.739577030505629
30
0
10
13.767502999879733
20
40.873274272050352
30
0
0
SPLINE
5
126
100
AcDbEntity
8
0
100
AcDbSpline
70
0
71
2
72
6
73
3
74
0
42
0.000000001
43
0.0000000001
44
0.0000000001
40
0
40
0
40
0
40
1
40
1
40
1
10
13.767502999879733
20
40.873274272050352
30
0
10
13.890285885908023
20
41.006971364583464
30
0
10
13.890285885908023
20
41.227980917062254
30
0
0
SPLINE
5
127
100
AcDbEntity
8
0
100
AcDbSpline
70
0
71
2
72
6
73
3
74
0
42
0.000000001
43
0.0000000001
44
0.0000000001
40
0
40
0
40
0
40
1
40
1
40
1
10
13.890285885908023
20
41.227980917062254
30
0
10
13.890285885908023
20
41.438076412047835
30
0
10
13.77227792797269
20
41.55949524578044
30
0
0
SPLINE
5
128
100
AcDbEntity
8
0
100
AcDbSpline
70
0
71
2
72
6
73
3
74
0
42
0.000000001
43
0.0000000001
44
0.0000000001
40
0
40
0
40
0
40
1
40
1
40
1
10
13.77227792797269
20
41.55949524578044
30
0
10
13.654269672014133
20
41.680914079513045
30
0
10
13.463273740388766
20
41.680914079513045
30
0
0
SPLINE
5
129
100
AcDbEntity
8
0
100
AcDbSpline
70
0
71
2
72
6
73
3
74
0
42
0.000000001
43
0.0000000001
44
0.0000000001
40
0
40
0
40
0
40
1
40
1
40
1
10
13.463273740388766
20
41.680914079513045
30
0
10
13.344583458282367
20
41.680914079513045
30
0
10
13.249085492469684
20
41.62702596720645
30
0
0
SPLINE
5
130
100
AcDbEntity
8
0
100
AcDbSpline
70
0
71
2
72
6
73
3
74
0
42
0.000000001
43
0.0000000001
44
0.0000000001
40
0
40
0
40
0
40
1
40
1
40
1
10
13.249085492469684
20
41.62702596720645
30
0
10
13.153587526657001
20
41.573137854899855
30
0
10
13.099017239190951
20
41.487189596261473
30
0
0
LINE
5
131
100
AcDbEntity
8
0
100
AcDbLine
10
13.099017239190951
20
41.487189596261473
30
0
11
12.86845797953786
21
41.517203217114897
31
0
0
LINE
5
132
100
AcDbEntity
8
0
100
AcDbLine
10
12.86845797953786
20
41.517203217114897
30
0
11
13.06218231377782
21
42.544488375749083
31
0
0
LINE
5
133
100
AcDbEntity
8
0
100
AcDbLine
10
13.06218231377782
20
42.544488375749083
30
0
11
14.056725299932376
21
42.544488375749083
31
0
0
LINE
5
134
100
AcDbEntity
8
0
100
AcDbLine
10
14.056725299932376
20
42.544488375749083
30
0
11
14.056725299932376
21
42.309836363162489
31
0
0
LINE
5
135
100
AcDbEntity
8
0
100
AcDbLine
10
14.056725299932376
20
42.309836363162489
30
0
11
13.258635348655597
21
42.309836363162489
31
0
0
LINE
5
136
100
AcDbEntity
8
0
100
AcDbLine
10
13.258635348655597
20
42.309836363162489
30
0
11
13.150858975030795
21
41.772319292392226
31
0
0
SPLINE
5
137
100
AcDbEntity
8
0
100
AcDbSpline
70
0
71
2
72
6
73
3
74
0
42
0.000000001
43
0.0000000001
44
0.0000000001
40
0
40
0
40
0
40
1
40
1
40
1
10
13.150858975030795
20
41.772319292392226
30
0
10
13.330940849162952
20
41.897830879058333
30
0
10
13.528758085348025
20
41.897830879058333
30
0
0
SPLINE
5
138
100
AcDbEntity
8
0
100
AcDbSpline
70
0
71
2
72
6
73
3
74
0
42
0.000000001
43
0.0000000001
44
0.0000000001
40
0
40
0
40
0
40
1
40
1
40
1
10
13.528758085348025
20
41.897830879058333
30
0
10
13.79069531617345
20
41.897830879058333
30
0
10
13.970777190305606
20
41.71638480361888
30
0
0
SPLINE
5
139
100
AcDbEntity
8
0
100
AcDbSpline
70
0
71
2
72
6
73
3
74
0
42
0.000000001
43
0.0000000001
44
0.0000000001
40
0
40
0
40
0
40
1
40
1
40
1
10
13.970777190305606
20
41.71638480361888
30
0
10
14.15085891542615
20
41.534938579167815
30
0
10
14.15085891542615
20
41.249809032048674
30
0
0
SPLINE
5
140
100
AcDbEntity
8
0
100
AcDbSpline
70
0
71
2
72
6
73
3
74
0
42
0.000000001
43
0.0000000001
44
0.0000000001
40
0
40
0
40
0
40
1
40
1
40
1
10
14.15085891542615
20
41.249809032048674
30
0
10
14.15085891542615
20
40.978321945037337
30
0
10
13.992605305292026
20
40.780504857863875
30
0
0
SPLINE
5
141
100
AcDbEntity
8
0
100
AcDbSpline
70
0
71
2
72
6
73
3
74
0
42
0.000000001
43
0.0000000001
44
0.0000000001
40
0
40
0
40
0
40
1
40
1
40
1
10
13.992605305292026
20
40.780504857863875
30
0
10
13.800245023347751
20
40.537667190398665
30
0
10
13.467366493322269
20
40.537667190398665
30
0
0
SPLINE
5
142
100
AcDbEntity
8
0
100
AcDbSpline
70
0
71
2
72
6
73
3
74
0
42
0.000000001
43
0.0000000001
44
0.0000000001
40
0
40
0
40
0
40
1
40
1
40
1
10
13.467366493322269
20
40.537667190398665
30
0
10
13.194515205003635
20
40.537667190398665
30
0
10
13.02193681059064
20
40.690463846291991
30
0
0
SPLINE
5
143
100
AcDbEntity
8
0
100
AcDbSpline
70
0
71
2
72
6
73
3
74
0
42
0.000000001
43
0.0000000001
44
0.0000000001
40
0
40
0
40
0
40
1
40
1
40
1
10
13.02193681059064
20
40.690463846291991
30
0
10
12.849358416177646
20
40.843260651196928
30
0
10
12.824801749565021
20
41.095648025836439
30
0
0
LINE
5
144
100
AcDbEntity
8
0
100
AcDbLine
10
15.652905500509158
20
42.082005506123991
30
0
11
15.408703780748263
21
42.062905942763777
31
0
0
SPLINE
5
145
100
AcDbEntity
8
0
100
AcDbSpline
70
0
71
2
72
6
73
3
74
0
42
0.000000001
43
0.0000000001
44
0.0000000001
40
0
40
0
40
0
40
1
40
1
40
1
10
15.408703780748263
20
42.062905942763777
30
0
10
15.375961459257022
20
42.207517092790098
30
0
10
15.315934217550174
20
42.273001437749357
30
0
0
SPLINE
5
146
100
AcDbEntity
8
0
100
AcDbSpline
70
0
71
2
72
6
73
3
74
0
42
0.000000001
43
0.0000000001
44
0.0000000001
40
0
40
0
40
0
40
1
40
1
40
1
10
15.315934217550174
20
42.273001437749357
30
0
10
15.216343498803989
20
42.378049110736342
30
0
10
15.07036814747037
20
42.378049110736342
30
0
0
SPLINE
5
147
100
AcDbEntity
8
0
100
AcDbSpline
70
0
71
2
72
6
73
3
74
0
42
0.000000001
43
0.0000000001
44
0.0000000001
40
0
40
0
40
0
40
1
40
1
40
1
10
15.07036814747037
20
42.378049110736342
30
0
10
14.953042066671268
20
42.378049110736342
30
0
10
14.86436525640668
20
42.312564914788695
30
0
0
SPLINE
5
148
100
AcDbEntity
8
0
100
AcDbSpline
70
0
71
2
72
6
73
3
74
0
42
0.000000001
43
0.0000000001
44
0.0000000001
40
0
40
0
40
0
40
1
40
1
40
1
10
14.86436525640668
20
42.312564914788695
30
0
10
14.748403525926486
20
42.227981006469221
30
0
10
14.681555128671542
20
42.065634494389982
30
0
0
SPLINE
5
149
100
AcDbEntity
8
0
100
AcDbSpline
70
0
71
2
72
6
73
3
74
0
42
0.000000001
43
0.0000000001
44
0.0000000001
40
0
40
0
40
0
40
1
40
1
40
1
10
14.681555128671542
20
42.065634494389982
30
0
10
14.614706433393374
20
41.903287833299132
30
0
10
14.611978030778781
20
41.603151475753279
30
0
0
SPLINE
5
150
100
AcDbEntity
8
0
100
AcDbSpline
70
0
71
2
72
6
73
3
74
0
42
0.000000001
43
0.0000000001
44
0.0000000001
40
0
40
0
40
0
40
1
40
1
40
1
10
14.611978030778781
20
41.603151475753279
30
0
10
14.700654543020145
20
41.738212769593687
30
0
10
14.828894532300845
20
41.803697114552946
30
0
0
SPLINE
5
151
100
AcDbEntity
8
0
100
AcDbSpline
70
0
71
2
72
6
73
3
74
0
42
0.000000001
43
0.0000000001
44
0.0000000001
40
0
40
0
40
0
40
1
40
1
40
1
10
14.828894532300845
20
41.803697114552946
30
0
10
14.95713481960477
20
41.869181459512205
30
0
10
15.097653067685977
20
41.869181459512205
30
0
0
SPLINE
5
152
100
AcDbEntity
8
0
100
AcDbSpline
70
0
71
2
72
6
73
3
74
0
42
0.000000001
43
0.0000000001
44
0.0000000001
40
0
40
0
40
0
40
1
40
1
40
1
10
15.097653067685977
20
41.869181459512205
30
0
10
15.343219435789004
20
41.869181459512205
30
0
10
15.515797830201999
20
41.688417410220595
30
0
0
SPLINE
5
153
100
AcDbEntity
8
0
100
AcDbSpline
70
0
71
2
72
6
73
3
74
0
42
0.000000001
43
0.0000000001
44
0.0000000001
40
0
40
0
40
0
40
1
40
1
40
1
10
15.515797830201999
20
41.688417410220595
30
0
10
15.688376224614993
20
41.507653509940596
30
0
10
15.688376224614993
20
41.221159612502547
30
0
0
SPLINE
5
154
100
AcDbEntity
8
0
100
AcDbSpline
70
0
71
2
72
6
73
3
74
0
42
0.000000001
43
0.0000000001
44
0.0000000001
40
0
40
0
40
0
40
1
40
1
40
1
10
15.688376224614993
20
41.221159612502547
30
0
10
15.688376224614993
20
41.032892232503386
30
0
10
15.60720304308118
20
40.871227895583601
30
0
0
SPLINE
5
155
100
AcDbEntity
8
0
100
AcDbSpline
70
0
71
2
72
6
73
3
74
0
42
0.000000001
43
0.0000000001
44
0.0000000001
40
0
40
0
40
0
40
1
40
1
40
1
10
15.60720304308118
20
40.871227895583601
30
0
10
15.526029861547366
20
40.709563409652205
30
0
10
15.384146965124026
20
40.623615300025435
30
0
0
SPLINE
5
156
100
AcDbEntity
8
0
100
AcDbSpline
70
0
71
2
72
6
73
3
74
0
42
0.000000001
43
0.0000000001
44
0.0000000001
40
0
40
0
40
0
40
1
40
1
40
1
10
15.384146965124026
20
40.623615300025435
30
0
10
15.24226436672391
20
40.537667190398665
30
0
10
15.062182641603366
20
40.537667190398665
30
0
0
SPLINE
5
157
100
AcDbEntity
8
0
100
AcDbSpline
70
0
71
2
72
6
73
3
74
0
42
0.000000001
43
0.0000000001
44
0.0000000001
40
0
40
0
40
0
40
1
40
1
40
1
10
15.062182641603366
20
40.537667190398665
30
0
10
14.755224979497806
20
40.537667190398665
30
0
10
14.561500347234622
20
40.763451670970412
30
0
0
SPLINE
5
158
100
AcDbEntity
8
0
100
AcDbSpline
70
0
71
2
72
6
73
3
74
0
42
0.000000001
43
0.0000000001
44
0.0000000001
40
0
40
0
40
0
40
1
40
1
40
1
10
14.561500347234622
20
40.763451670970412
30
0
10
14.367776012994662
20
40.989236002530546
30
0
10
14.367776012994662
20
41.507653509940596
30
0
0
SPLINE
5
159
100
AcDbEntity
8
0
100
AcDbSpline
70
0
71
2
72
6
73
3
74
0
42
0.000000001
43
0.0000000001
44
0.0000000001
40
0
40
0
40
0
40
1
40
1
40
1
10
14.367776012994662
20
41.507653509940596
30
0
10
14.367776012994662
20
42.08746246036479
30
0
10
14.581964409925357
20
42.350764041509123
30
0
0
SPLINE
5
160
100
AcDbEntity
8
0
100
AcDbSpline
70
0
71
2
72
6
73
3
74
0
42
0.000000001
43
0.0000000001
44
0.0000000001
40
0
40
0
40
0
40
1
40
1
40
1
10
14.581964409925357
20
42.350764041509123
30
0
10
14.768867290593997
20
42.579959099854918
30
0
10
15.08537480888547
20
42.579959099854918
30
0
0
SPLINE
5
161
100
AcDbEntity
8
0
100
AcDbSpline
70
0
71
2
72
6
73
3
74
0
42
0.000000001
43
0.0000000001
44
0.0000000001
40
0
40
0
40
0
40
1
40
1
40
1
10
15.08537480888547
20
42.579959099854918
30
0
10
15.321391320802585
20
42.579959099854918
30
0
10
15.472141600229159
20
42.447626208629103
30
0
0
SPLINE
5
162
100
AcDbEntity
8
0
100
AcDbSpline
70
0
71
2
72
6
73
3
74
0
42
0.000000001
43
0.0000000001
44
0.0000000001
40
0
40
0
40
0
40
1
40
1
40
1
10
15.472141600229159
20
42.447626208629103
30
0
10
15.622892177678958
20
42.315293317403288
30
0
10
15.652905500509158
20
42.082005506123991
30
0
0
SPLINE
5
163
100
AcDbEntity
8
0
100
AcDbSpline
70
0
71
2
72
6
73
3
74
0
42
0.000000001
43
0.0000000001
44
0.0000000001
40
0
40
0
40
0
40
1
40
1
40
1
10
14.650177157499209
20
41.21979541119525
30
0
10
14.650177157499209
20
41.092919623221846
30
0
10
14.704065120794192
20
40.97695774373004
30
0
0
SPLINE
5
164
100
AcDbEntity
8
0
100
AcDbSpline
70
0
71
2
72
6
73
3
74
0
42
0.000000001
43
0.0000000001
44
0.0000000001
40
0
40
0
40
0
40
1
40
1
40
1
10
14.704065120794192
20
40.97695774373004
30
0
10
14.757953382112399
20
40.860995864238234
30
0
10
14.854815698243991
20
40.800286447371931
30
0
0
SPLINE
5
165
100
AcDbEntity
8
0
100
AcDbSpline
70
0
71
2
72
6
73
3
74
0
42
0.000000001
43
0.0000000001
44
0.0000000001
40
0
40
0
40
0
40
1
40
1
40
1
10
14.854815698243991
20
40.800286447371931
30
0
10
14.951677716352359
20
40.739577030505629
30
0
10
15.058089888669864
20
40.739577030505629
30
0
0
SPLINE
5
166
100
AcDbEntity
8
0
100
AcDbSpline
70
0
71
2
72
6
73
3
74
0
42
0.000000001
43
0.0000000001
44
0.0000000001
40
0
40
0
40
0
40
1
40
1
40
1
10
15.058089888669864
20
40.739577030505629
30
0
10
15.213615096189395
20
40.739577030505629
30
0
10
15.325484073736087
20
40.865088617171736
30
0
0
SPLINE
5
167
100
AcDbEntity
8
0
100
AcDbSpline
70
0
71
2
72
6
73
3
74
0
42
0.000000001
43
0.0000000001
44
0.0000000001
40
0
40
0
40
0
40
1
40
1
40
1
10
15.325484073736087
20
40.865088617171736
30
0
10
15.437353051282779
20
40.990600352849455
30
0
10
15.437353051282779
20
41.206152802075835
30
0
0
SPLINE
5
168
100
AcDbEntity
8
0
100
AcDbSpline
70
0
71
2
72
6
73
3
74
0
42
0.000000001
43
0.0000000001
44
0.0000000001
40
0
40
0
40
0
40
1
40
1
40
1
10
15.437353051282779
20
41.206152802075835
30
0
10
15.437353051282779
20
41.41351974543521
30
0
10
15.326848424054996
20
41.532892202701063
30
0
0
SPLINE
5
169
100
AcDbEntity
8
0
100
AcDbSpline
70
0
71
2
72
6
73
3
74
0
42
0.000000001
43
0.0000000001
44
0.0000000001
40
0
40
0
40
0
40
1
40
1
40
1
10
15.326848424054996
20
41.532892202701063
30
0
10
15.216343498803989
20
41.652264659966917
30
0
10
15.048540032483951
20
41.652264659966917
30
0
0
SPLINE
5
170
100
AcDbEntity
8
0
100
AcDbSpline
70
0
71
2
72
6
73
3
74
0
42
0.000000001
43
0.0000000001
44
0.0000000001
40
0
40
0
40
0
40
1
40
1
40
1
10
15.048540032483951
20
41.652264659966917
30
0
10
14.882100618459598
20
41.652264659966917
30
0
10
14.766138887979404
20
41.532892202701063
30
0
0
SPLINE
5
171
100
AcDbEntity
8
0
100
AcDbSpline
70
0
71
2
72
6
73
3
74
0
42
0.000000001
43
0.0000000001
44
0.0000000001
40
0
40
0
40
0
40
1
40
1
40
1
10
14.766138887979404
20
41.532892202701063
30
0
10
14.650177157499209
20
41.41351974543521
30
0
10
14.650177157499209
20
41.21979541119525
30
0
0
LINE
5
172
100
AcDbEntity
8
0
100
AcDbLine
10
15.774324334241763
20
40.01652113136241
30
0
11
15.774324334241763
21
40.193874453868361
31
0
0
LINE
5
173
100
AcDbEntity
8
0
100
AcDbLine
10
15.774324334241763
20
40.193874453868361
30
0
11
17.401882207967653
21
40.193874453868361
31
0
0
LINE
5
174
100
AcDbEntity
8
0
100
AcDbLine
10
17.401882207967653
20
40.193874453868361
30
0
11
17.401882207967653
21
40.01652113136241
31
0
0
LINE
5
175
100
AcDbEntity
8
0
100
AcDbLine
10
17.401882207967653
20
40.01652113136241
30
0
11
15.774324334241761
21
40.01652113136241
31
0
0
LINE
5
176
100
AcDbEntity
8
0
100
AcDbLine
10
17.450995243169679
20
41.139304255809279
30
0
11
17.689740455724611
21
41.172046428288908
31
0
0
SPLINE
5
177
100
AcDbEntity
8
0
100
AcDbSpline
70
0
71
2
72
6
73
3
74
0
42
0.000000001
43
0.0000000001
44
0.0000000001
40
0
40
0
40
0
40
1
40
1
40
1
10
17.689740455724611
20
41.172046428288908
30
0
10
17.699290311910524
20
40.942851369943114
30
0
10
17.775688565351381
20
40.85826746162364
30
0
0
SPLINE
5
178
100
AcDbEntity
8
0
100
AcDbSpline
70
0
71
2
72
6
73
3
74
0
42
0.000000001
43
0.0000000001
44
0.0000000001
40
0
40
0
40
0
40
1
40
1
40
1
10
17.775688565351381
20
40.85826746162364
30
0
10
17.852086818792237
20
40.773683553304167
30
0
10
17.987147963621034
20
40.773683553304167
30
0
0
SPLINE
5
179
100
AcDbEntity
8
0
100
AcDbSpline
70
0
71
2
72
6
73
3
74
0
42
0.000000001
43
0.0000000001
44
0.0000000001
40
0
40
0
40
0
40
1
40
1
40
1
10
17.987147963621034
20
40.773683553304167
30
0
10
18.086738980390443
20
40.773683553304167
30
0
10
18.159044778921022
20
40.819386159743758
30
0
0
SPLINE
5
180
100
AcDbEntity
8
0
100
AcDbSpline
70
0
71
2
72
6
73
3
74
0
42
0.000000001
43
0.0000000001
44
0.0000000001
40
0
40
0
40
0
40
1
40
1
40
1
10
18.159044778921022
20
40.819386159743758
30
0
10
18.231349981405153
20
40.865088617171736
30
0
10
18.258635199643983
20
40.943533396090956
30
0
0
SPLINE
5
181
100
AcDbEntity
8
0
100
AcDbSpline
70
0
71
2
72
6
73
3
74
0
42
0.000000001
43
0.0000000001
44
0.0000000001
40
0
40
0
40
0
40
1
40
1
40
1
10
18.258635199643983
20
40.943533396090956
30
0
10
18.285920417882814
20
41.021978175010176
30
0
10
18.285920417882814
20
41.193874543275328
30
0
0
LINE
5
182
100
AcDbEntity
8
0
100
AcDbLine
10
18.285920417882814
20
41.193874543275328
30
0
11
18.285920417882814
21
42.571773593987913
31
0
0
LINE
5
183
100
AcDbEntity
8
0
100
AcDbLine
10
18.285920417882814
20
42.571773593987913
30
0
11
18.550585902311219
21
42.571773593987913
31
0
0
LINE
5
184
100
AcDbEntity
8
0
100
AcDbLine
10
18.550585902311219
20
42.571773593987913
30
0
11
18.550585902311219
21
41.20888135370204
31
0
0
SPLINE
5
185
100
AcDbEntity
8
0
100
AcDbSpline
70
0
71
2
72
6
73
3
74
0
42
0.000000001
43
0.0000000001
44
0.0000000001
40
0
40
0
40
0
40
1
40
1
40
1
10
18.550585902311219
20
41.20888135370204
30
0
10
18.550585902311219
20
40.957858180369826
30
0
10
18.489876783468141
20
40.8200681858916
30
0
0
SPLINE
5
186
100
AcDbEntity
8
0
100
AcDbSpline
70
0
71
2
72
6
73
3
74
0
42
0.000000001
43
0.0000000001
44
0.0000000001
40
0
40
0
40
0
40
1
40
1
40
1
10
18.489876783468141
20
40.8200681858916
30
0
10
18.429167664625062
20
40.682278340424986
30
0
10
18.297516501523866
20
40.609972690906019
30
0
0
SPLINE
5
187
100
AcDbEntity
8
0
100
AcDbSpline
70
0
71
2
72
6
73
3
74
0
42
0.000000001
43
0.0000000001
44
0.0000000001
40
0
40
0
40
0
40
1
40
1
40
1
10
18.297516501523866
20
40.609972690906019
30
0
10
18.165865934469117
20
40.537667190398665
30
0
10
17.988512313939943
20
40.537667190398665
30
0
0
SPLINE
5
188
100
AcDbEntity
8
0
100
AcDbSpline
70
0
71
2
72
6
73
3
74
0
42
0.000000001
43
0.0000000001
44
0.0000000001
40
0
40
0
40
0
40
1
40
1
40
1
10
17.988512313939943
20
40.537667190398665
30
0
10
17.725211179830445
20
40.537667190398665
30
0
10
17.585374510862245
20
40.689099644984694
30
0
0
SPLINE
5
189
100
AcDbEntity
8
0
100
AcDbSpline
70
0
71
2
72
6
73
3
74
0
42
0.000000001
43
0.0000000001
44
0.0000000001
40
0
40
0
40
0
40
1
40
1
40
1
10
17.585374510862245
20
40.689099644984694
30
0
10
17.445538437940492
20
40.840532099570723
30
0
10
17.450995243169679
20
41.139304255809279
30
0
0
LINE
5
190
100
AcDbEntity
8
0
100
AcDbLine
10
18.856179512121095
20
41.172046428288908
30
0
11
18.856179512121095
21
41.41897684868762
31
0
0
LINE
5
191
100
AcDbEntity
8
0
100
AcDbLine
10
18.856179512121095
20
41.41897684868762
30
0
11
19.610613382436647
21
41.41897684868762
31
0
0
LINE
5
192
100
AcDbEntity
8
0
100
AcDbLine
10
19.610613382436647
20
41.41897684868762
30
0
11
19.610613382436647
21
41.172046428288908
31
0
0
LINE
5
193
100
AcDbEntity
8
0
100
AcDbLine
10
19.610613382436647
20
41.172046428288908
30
0
11
18.856179512121095
21
41.172046428288908
31
0
0
LINE
5
194
100
AcDbEntity
8
0
100
AcDbLine
10
20.601063764669313
20
40.571773564185591
30
0
11
20.601063764669313
21
41.050627594556303
31
0
0
LINE
5
195
100
AcDbEntity
8
0
100
AcDbLine
10
20.601063764669313
20
41.050627594556303
30
0
11
19.73339656648816
21
41.050627594556303
31
0
0
LINE
5
196
100
AcDbEntity
8
0
100
AcDbLine
10
19.73339656648816
20
41.050627594556303
30
0
11
19.73339656648816
21
41.275729899968596
31
0
0
LINE
5
197
100
AcDbEntity
8
0
100
AcDbLine
10
19.73339656648816
20
41.275729899968596
30
0
11
20.646084344961061
21
42.571773593987913
31
0
0
LINE
5
198
100
AcDbEntity
8
0
100
AcDbLine
10
20.646084344961061
20
42.571773593987913
30
0
11
20.846629536725892
21
42.571773593987913
31
0
0
LINE
5
199
100
AcDbEntity
8
0
100
AcDbLine
10
20.846629536725892
20
42.571773593987913
30
0
11
20.846629536725892
21
41.275729899968596
31
0
0
LINE
5
200
100
AcDbEntity
8
0
100
AcDbLine
10
20.846629536725892
20
41.275729899968596
30
0
11
21.116752422429933
21
41.275729899968596
31
0
0
LINE
5
201
100
AcDbEntity
8
0
100
AcDbLine
10
21.116752422429933
20
41.275729899968596
30
0
11
21.116752422429933
21
41.050627594556303
31
0
0
LINE
5
202
100
AcDbEntity
8
0
100
AcDbLine
10
21.116752422429933
20
41.050627594556303
30
0
11
20.846629536725892
21
41.050627594556303
31
0
0
LINE
5
203
100
AcDbEntity
8
0
100
AcDbLine
10
20.846629536725892
20
41.050627594556303
30
0
11
20.846629536725892
21
40.571773564185591
31
0
0
LINE
5
204
100
AcDbEntity
8
0
100
AcDbLine
10
20.846629536725892
20
40.571773564185591
30
0
11
20.601063764669313
21
40.571773564185591
31
0
0
LINE
5
205
100
AcDbEntity
8
0
100
AcDbLine
10
20.601063764669313
20
41.275729899968596
30
0
11
20.601063764669313
21
42.177503471936674
31
0
0
LINE
5
206
100
AcDbEntity
8
0
100
AcDbLine
10
20.601063764669313
20
42.177503471936674
30
0
11
19.974869883634462
21
41.275729899968596
31
0
0
LINE
5
207
100
AcDbEntity
8
0
100
AcDbLine
10
19.974869883634462
20
41.275729899968596
30
0
11
20.601063764669313
21
41.275729899968596
31
0
0
ENDSEC
0
SECTION
2
OBJECTS
0
DICTIONARY
5
C
100
AcDbDictionary
3
ACAD_GROUP
350
D
3
ACAD_MLINESTYLE
350
17
0
DICTIONARY
5
D
100
AcDbDictionary
0
DICTIONARY
5
1A
330
C
100
AcDbDictionary
0
DICTIONARY
5
17
100
AcDbDictionary
0
ENDSEC
0
EOF
