  0
SECTION
  2
HEADER
  9
$ACADVER
  1
AC1009
  0
ENDSEC
  0
SECTION
  2
ENTITIES
  0
CIRCLE
  5
90
  8
Layer_0
  62
1
  10
233.01822
  20
297.25095
  30
0
  40
1.5
  0
CIRCLE
  5
90
  8
Layer_0
  62
1
  10
273.01822
  20
297.25095
  30
0
  40
1.5
  0
CIRCLE
  5
90
  8
Layer_0
  62
1
  10
233.01822
  20
345.25095
  30
0
  40
1.5
  0
CIRCLE
  5
90
  8
Layer_0
  62
1
  10
273.01822
  20
345.25095
  30
0
  40
1.5
  0
CIRCLE
  5
90
  8
Layer_0
  62
1
  10
253.01822
  20
321.25095
  30
0
  40
13.5
  0
CIRCLE
  5
90
  8
Layer_0
  62
1
  10
253.01822
  20
337.25095
  30
0
  40
1.5
  0
CIRCLE
  5
90
  8
Layer_0
  62
1
  10
239.16182
  20
313.25095
  30
0
  40
1.5
  0
CIRCLE
  5
90
  8
Layer_0
  62
1
  10
266.87463
  20
313.25095
  30
0
  40
1.5
  0
POLYLINE
  5
90
  8
Layer_0
  62
1
  66
1
  10
0
  20
0
  30
0
  0
VERTEX
  5
90
  8
Layer_0
  10
238.01822
  20
350.25095
  0
VERTEX
  5
91
  8
Layer_0
  10
238.01822
  20
353.25095
  0
VERTEX
  5
92
  8
Layer_0
  10
268.01822
  20
353.25095
  0
VERTEX
  5
93
  8
Layer_0
  10
268.01822
  20
350.25095
  0
VERTEX
  5
94
  8
Layer_0
  10
278.01822
  20
350.25095
  0
VERTEX
  5
95
  8
Layer_0
  10
278.01822
  20
336.25095
  0
VERTEX
  5
96
  8
Layer_0
  10
281.01822
  20
336.25095
  0
VERTEX
  5
97
  8
Layer_0
  10
281.01822
  20
306.25095
  0
VERTEX
  5
98
  8
Layer_0
  10
278.01822
  20
306.25095
  0
VERTEX
  5
99
  8
Layer_0
  10
278.01822
  20
292.25095
  0
VERTEX
  5
9a
  8
Layer_0
  10
268.01822
  20
292.25095
  0
VERTEX
  5
9b
  8
Layer_0
  10
268.01822
  20
289.25095
  0
VERTEX
  5
9c
  8
Layer_0
  10
238.01822
  20
289.25095
  0
VERTEX
  5
9d
  8
Layer_0
  10
238.01822
  20
292.25095
  0
VERTEX
  5
9e
  8
Layer_0
  10
228.01822
  20
292.25095
  0
VERTEX
  5
9f
  8
Layer_0
  10
228.01822
  20
306.25095
  0
VERTEX
  5
a0
  8
Layer_0
  10
225.01822
  20
306.25095
  0
VERTEX
  5
a1
  8
Layer_0
  10
225.01822
  20
336.25095
  0
VERTEX
  5
a2
  8
Layer_0
  10
228.01822
  20
336.25095
  0
VERTEX
  5
a3
  8
Layer_0
  10
228.01822
  20
350.25095
  0
VERTEX
  5
a4
  8
Layer_0
  10
238.01822
  20
350.25095
  0
SEQEND
  0
ENDSEC
  0
EOF
