0
SECTION
2
HEADER
9
$INSUNITS
70
4
9
$ACADVER
1
AC1014
9
$HANDSEED
5
FFFF
0
ENDSEC
0
SECTION
2
TABLES
0
TABLE
2
VPORT
5
8
100
AcDbSymbolTable
0
ENDTAB
0
TABLE
2
LTYPE
5
5
100
AcDbSymbolTable
0
LTYPE
5
14
100
AcDbSymbolTableRecord
100
AcDbLinetypeTableRecord
2
BYBLOCK
70
0
0
LTYPE
5
15
100
AcDbSymbolTableRecord
100
AcDbLinetypeTableRecord
2
BYLAYER
70
0
0
ENDTAB
0
TABLE
2
LAYER
5
2
100
AcDbSymbolTable
70
2
0
LAYER
5
50
100
AcDbSymbolTableRecord
100
AcDbLayerTableRecord
2
0
70
0
6
CONTINUOUS
0
ENDTAB
0
TABLE
2
STYLE
5
3
100
AcDbSymbolTable
70
1
0
STYLE
5
11
100
AcDbSymbolTableRecord
100
AcDbTextStyleTableRecord
2
STANDARD
70
0
0
ENDTAB
0
TABLE
2
VIEW
5
6
100
AcDbSymbolTable
70
0
0
ENDTAB
0
TABLE
2
UCS
5
7
100
AcDbSymbolTable
70
0
0
ENDTAB
0
TABLE
2
APPID
5
9
100
AcDbSymbolTable
70
2
0
APPID
5
12
100
AcDbSymbolTableRecord
100
AcDbRegAppTableRecord
2
ACAD
70
0
0
ENDTAB
0
TABLE
2
DIMSTYLE
5
A
100
AcDbSymbolTable
70
1
0
ENDTAB
0
TABLE
2
BLOCK_RECORD
5
1
100
AcDbSymbolTable
70
1
0
BLOCK_RECORD
5
1F
100
AcDbSymbolTableRecord
100
AcDbBlockTableRecord
2
*MODEL_SPACE
0
BLOCK_RECORD
5
1B
100
AcDbSymbolTableRecord
100
AcDbBlockTableRecord
2
*PAPER_SPACE
0
ENDTAB
0
ENDSEC
0
SECTION
2
BLOCKS
0
BLOCK
5
20
100
AcDbEntity
100
AcDbBlockBegin
2
*MODEL_SPACE
0
ENDBLK
5
21
100
AcDbEntity
100
AcDbBlockEnd
0
BLOCK
5
1C
100
AcDbEntity
100
AcDbBlockBegin
2
*PAPER_SPACE
0
ENDBLK
5
1D
100
AcDbEntity
100
AcDbBlockEnd
0
ENDSEC
0
SECTION
2
ENTITIES
0
LINE
5
100
100
AcDbEntity
8
0
100
AcDbLine
10
29.000000000000004
20
63.999999999999943
30
0
11
29.000000000000004
21
-6.4292064988189967e-14
31
0
0
LINE
5
101
100
AcDbEntity
8
0
100
AcDbLine
10
58.000000000000007
20
31.99999999999994
30
0
11
0
21
31.999999999999986
31
0
0
LINE
5
102
100
AcDbEntity
8
0
100
AcDbLine
10
14.050000000000002
20
63.999999999999943
30
0
11
14.050000000000002
21
60.999999999999943
31
0
0
LINE
5
103
100
AcDbEntity
8
0
100
AcDbLine
10
14.050000000000002
20
60.999999999999943
30
0
11
43.950000000000017
21
60.999999999999943
31
0
0
LINE
5
104
100
AcDbEntity
8
0
100
AcDbLine
10
43.950000000000017
20
60.999999999999943
30
0
11
43.950000000000017
21
63.999999999999943
31
0
0
LINE
5
105
100
AcDbEntity
8
0
100
AcDbLine
10
0
20
46.949999999999989
30
0
11
2.9999999999999978
21
46.949999999999989
31
0
0
LINE
5
106
100
AcDbEntity
8
0
100
AcDbLine
10
2.9999999999999978
20
46.949999999999989
30
0
11
2.9999999999999711
21
17.049999999999979
31
0
0
LINE
5
107
100
AcDbEntity
8
0
100
AcDbLine
10
2.9999999999999711
20
17.049999999999979
30
0
11
0
21
17.049999999999979
31
0
0
LINE
5
108
100
AcDbEntity
8
0
100
AcDbLine
10
58
20
46.949999999999932
30
0
11
55.000000000000007
21
46.949999999999932
31
0
0
LINE
5
109
100
AcDbEntity
8
0
100
AcDbLine
10
55.000000000000007
20
46.949999999999932
30
0
11
55.000000000000043
21
17.049999999999926
31
0
0
LINE
5
110
100
AcDbEntity
8
0
100
AcDbLine
10
55.000000000000043
20
17.049999999999926
30
0
11
58.000000000000007
21
17.049999999999926
31
0
0
LINE
5
111
100
AcDbEntity
8
0
100
AcDbLine
10
43.950000000000024
20
2.9999999999999352
30
0
11
43.950000000000024
21
-5.8045401483756206e-14
31
0
0
LINE
5
112
100
AcDbEntity
8
0
100
AcDbLine
10
14.050000000000008
20
2.9999999999999281
30
0
11
43.950000000000024
21
2.9999999999999352
31
0
0
LINE
5
113
100
AcDbEntity
8
0
100
AcDbLine
10
14.050000000000008
20
-1.9124761374385837e-14
30
0
11
14.050000000000008
21
2.9999999999999281
31
0
0
LINE
5
114
100
AcDbEntity
8
0
100
AcDbLine
10
58.000000000000007
20
-5.21747913006596e-14
30
0
11
43.950000000000024
21
-5.8045401483756206e-14
31
0
0
LINE
5
115
100
AcDbEntity
8
0
100
AcDbLine
10
14.050000000000008
20
-1.9124761374385837e-14
30
0
11
0
21
0
31
0
0
LINE
5
116
100
AcDbEntity
8
0
100
AcDbLine
10
0
20
0
30
0
11
0
21
17.049999999999979
31
0
0
LINE
5
117
100
AcDbEntity
8
0
100
AcDbLine
10
0
20
46.949999999999989
30
0
11
0
21
63.999999999999993
31
0
0
LINE
5
118
100
AcDbEntity
8
0
100
AcDbLine
10
0
20
63.999999999999993
30
0
11
14.050000000000002
21
63.999999999999943
31
0
0
LINE
5
119
100
AcDbEntity
8
0
100
AcDbLine
10
43.950000000000017
20
63.999999999999943
30
0
11
58
21
63.999999999999943
31
0
0
LINE
5
120
100
AcDbEntity
8
0
100
AcDbLine
10
58
20
63.999999999999943
30
0
11
58
21
46.949999999999932
31
0
0
LINE
5
121
100
AcDbEntity
8
0
100
AcDbLine
10
58.000000000000007
20
17.049999999999926
30
0
11
58.000000000000007
21
-5.21747913006596e-14
31
0
0
CIRCLE
5
122
100
AcDbEntity
8
0
100
AcDbCircle
10
8.0000000000000036
20
8.0000000000000142
30
0
40
1.5000000000000002
210
0
220
0
230
1
0
CIRCLE
5
123
100
AcDbEntity
8
0
100
AcDbCircle
10
50.000000000000014
20
8.0000000000000142
30
0
40
1.5000000000000002
210
0
220
0
230
1
0
CIRCLE
5
124
100
AcDbEntity
8
0
100
AcDbCircle
10
50.000000000000043
20
55.999999999999872
30
0
40
1.5000000000000002
210
0
220
0
230
1
0
CIRCLE
5
125
100
AcDbEntity
8
0
100
AcDbCircle
10
8.0000000000000409
20
55.999999999999936
30
0
40
1.5000000000000002
210
0
220
0
230
1
0
LWPOLYLINE
5
126
100
AcDbEntity
8
0
100
AcDbPolyline
90
4
70
1
43
0.0
10
14.515879068219537
20
5.3712822385390098
10
25.238106882969632
20
5.4281127777924283
10
25.214760581997378
20
9.8328634794766856
10
14.492532767247546
20
9.7760329402233292
0
LINE
5
127
100
AcDbEntity
8
0
100
AcDbLine
10
14.505582060504061
20
8.3436126457987037
30
0
11
14.744150035627532
21
8.3776197492342135
31
0
0
SPLINE
5
128
100
AcDbEntity
8
0
100
AcDbSpline
70
0
71
2
72
6
73
3
74
0
42
0.000000001
43
0.0000000001
44
0.0000000001
40
0
40
0
40
0
40
1
40
1
40
1
10
14.744150035627532
20
8.3776197492342135
30
0
10
14.754914495564346
20
8.1484785259371932
30
0
10
14.831760060383454
20
8.0643007306032928
30
0
0
SPLINE
5
129
100
AcDbEntity
8
0
100
AcDbSpline
70
0
71
2
72
6
73
3
74
0
42
0.000000001
43
0.0000000001
44
0.0000000001
40
0
40
0
40
0
40
1
40
1
40
1
10
14.831760060383454
20
8.0643007306032928
30
0
10
14.908605662454939
20
7.9801229354668388
30
0
10
15.043665170974201
20
7.9808387852727805
30
0
0
SPLINE
5
130
100
AcDbEntity
8
0
100
AcDbSpline
70
0
71
2
72
6
73
3
74
0
42
0.000000001
43
0.0000000001
44
0.0000000001
40
0
40
0
40
0
40
1
40
1
40
1
10
15.043665170974201
20
7.9808387852727805
30
0
10
15.14325452811611
20
7.9813666342392509
30
0
10
15.215316855465327
20
8.0274518313243206
30
0
0
SPLINE
5
131
100
AcDbEntity
8
0
100
AcDbSpline
70
0
71
2
72
6
73
3
74
0
42
0.000000001
43
0.0000000001
44
0.0000000001
40
0
40
0
40
0
40
1
40
1
40
1
10
15.215316855465327
20
8.0274518313243206
30
0
10
15.287379183604333
20
8.0735368793998745
30
0
10
15.314248172614146
20
8.1521251726617034
30
0
0
SPLINE
5
132
100
AcDbEntity
8
0
100
AcDbSpline
70
0
71
2
72
6
73
3
74
0
42
0.000000001
43
0.0000000001
44
0.0000000001
40
0
40
0
40
0
40
1
40
1
40
1
10
15.314248172614146
20
8.1521251726617034
30
0
10
15.341117161623961
20
8.2307134659235341
30
0
10
15.340206079873253
20
8.4026074197229388
30
0
0
LINE
5
133
100
AcDbEntity
8
0
100
AcDbLine
10
15.340206079873253
20
8.4026074197229388
30
0
11
15.332902966421303
21
9.7804871163904501
31
0
0
LINE
5
134
100
AcDbEntity
8
0
100
AcDbLine
10
15.332902966421305
20
9.7804871163904501
30
0
11
15.597565031362945
21
9.7818898927658857
31
0
0
LINE
5
135
100
AcDbEntity
8
0
100
AcDbLine
10
15.597565031362945
20
9.7818898927658857
30
0
11
15.604788606013384
21
8.4190167957386102
31
0
0
SPLINE
5
136
100
AcDbEntity
8
0
100
AcDbSpline
70
0
71
2
72
6
73
3
74
0
42
0.000000001
43
0.0000000001
44
0.0000000001
40
0
40
0
40
0
40
1
40
1
40
1
10
15.604788606013384
20
8.4190167957386102
30
0
10
15.606119074100262
20
8.167997148291553
30
0
10
15.546140821780803
20
8.0298873183616806
30
0
0
SPLINE
5
137
100
AcDbEntity
8
0
100
AcDbSpline
70
0
71
2
72
6
73
3
74
0
42
0.000000001
43
0.0000000001
44
0.0000000001
40
0
40
0
40
0
40
1
40
1
40
1
10
15.546140821780803
20
8.0298873183616806
30
0
10
15.486162568671553
20
7.8917776374413275
30
0
10
15.354896860255236
20
7.8187752306002034
30
0
0
SPLINE
5
138
100
AcDbEntity
8
0
100
AcDbSpline
70
0
71
2
72
6
73
3
74
0
42
0.000000001
43
0.0000000001
44
0.0000000001
40
0
40
0
40
0
40
1
40
1
40
1
10
15.354896860255236
20
7.8187752306002034
30
0
10
15.223631225553886
20
7.7457729731634926
30
0
10
15.046280319657599
20
7.7448329681763468
30
0
0
SPLINE
5
139
100
AcDbEntity
8
0
100
AcDbSpline
70
0
71
2
72
6
73
3
74
0
42
0.000000001
43
0.0000000001
44
0.0000000001
40
0
40
0
40
0
40
1
40
1
40
1
10
15.046280319657599
20
7.7448329681763468
30
0
10
14.782982548618747
20
7.7434374229061964
30
0
10
14.642345597009959
20
7.8941265928752529
30
0
0
SPLINE
5
140
100
AcDbEntity
8
0
100
AcDbSpline
70
0
71
2
72
6
73
3
74
0
42
0.000000001
43
0.0000000001
44
0.0000000001
40
0
40
0
40
0
40
1
40
1
40
1
10
14.642345597009959
20
7.8941265928752529
30
0
10
14.501708659370811
20
8.0448157629183505
30
0
10
14.505582060504061
20
8.3436126457987037
30
0
0
LINE
5
141
100
AcDbEntity
8
0
100
AcDbLine
10
15.938262542961752
20
8.3075493741983077
30
0
11
16.195987706210303
21
8.3307438048169864
31
0
0
SPLINE
5
142
100
AcDbEntity
8
0
100
AcDbSpline
70
0
71
2
72
6
73
3
74
0
42
0.000000001
43
0.0000000001
44
0.0000000001
40
0
40
0
40
0
40
1
40
1
40
1
10
16.195987706210303
20
8.3307438048169846
30
0
10
16.225634574410282
20
8.1426309163217745
30
0
10
16.330501147103401
20
8.0483696134155149
30
0
0
SPLINE
5
143
100
AcDbEntity
8
0
100
AcDbSpline
70
0
71
2
72
6
73
3
74
0
42
0.000000001
43
0.0000000001
44
0.0000000001
40
0
40
0
40
0
40
1
40
1
40
1
10
16.330501147103401
20
8.0483696134155149
30
0
10
16.435367869595826
20
7.9541081622895256
30
0
10
16.582705501706883
20
7.9548890892787538
30
0
0
SPLINE
5
144
100
AcDbEntity
8
0
100
AcDbSpline
70
0
71
2
72
6
73
3
74
0
42
0.000000001
43
0.0000000001
44
0.0000000001
40
0
40
0
40
0
40
1
40
1
40
1
10
16.582705501706883
20
7.9548890892787538
30
0
10
16.760056333098412
20
7.9558290938710039
30
0
10
16.88212917304018
20
8.0901752305145447
30
0
0
SPLINE
5
145
100
AcDbEntity
8
0
100
AcDbSpline
70
0
71
2
72
6
73
3
74
0
42
0.000000001
43
0.0000000001
44
0.0000000001
40
0
40
0
40
0
40
1
40
1
40
1
10
16.88212917304018
20
8.0901752305145447
30
0
10
17.004201715752703
20
8.2245212165689878
30
0
10
17.003030325268853
20
8.4455276647355735
30
0
0
SPLINE
5
146
100
AcDbEntity
8
0
100
AcDbSpline
70
0
71
2
72
6
73
3
74
0
42
0.000000001
43
0.0000000001
44
0.0000000001
40
0
40
0
40
0
40
1
40
1
40
1
10
17.003030325268853
20
8.4455276647355735
30
0
10
17.001916781257897
20
8.6556202087083953
30
0
10
16.883266939153934
20
8.7764118735274579
30
0
0
SPLINE
5
147
100
AcDbEntity
8
0
100
AcDbSpline
70
0
71
2
72
6
73
3
74
0
42
0.000000001
43
0.0000000001
44
0.0000000001
40
0
40
0
40
0
40
1
40
1
40
1
10
16.883266939153934
20
8.7764118735274579
30
0
10
16.764616799030939
20
8.8972035367669413
30
0
10
16.573623550144827
20
8.8961912238861238
30
0
0
SPLINE
5
148
100
AcDbEntity
8
0
100
AcDbSpline
70
0
71
2
72
6
73
3
74
0
42
0.000000001
43
0.0000000001
44
0.0000000001
40
0
40
0
40
0
40
1
40
1
40
1
10
16.573623550144827
20
8.8961912238861238
30
0
10
16.454934935168591
20
8.8955621439869752
30
0
10
16.359723927438662
20
8.8411686321553304
30
0
0
SPLINE
5
149
100
AcDbEntity
8
0
100
AcDbSpline
70
0
71
2
72
6
73
3
74
0
42
0.000000001
43
0.0000000001
44
0.0000000001
40
0
40
0
40
0
40
1
40
1
40
1
10
16.359723927438662
20
8.8411686321553304
30
0
10
16.264512919708732
20
8.7867751203236839
30
0
10
16.210398940010158
20
8.7005388365547311
30
0
0
LINE
5
150
100
AcDbEntity
8
0
100
AcDbLine
10
16.210398940010158
20
8.7005388365547311
30
0
11
15.979683841201954
21
8.7293300301811918
31
0
0
LINE
5
151
100
AcDbEntity
8
0
100
AcDbLine
10
15.979683841201954
20
8.7293300301811918
30
0
11
16.167960657783325
21
9.7576275334188232
31
0
0
LINE
5
152
100
AcDbEntity
8
0
100
AcDbLine
10
16.167960657783329
20
9.7576275334188214
30
0
11
17.162489674532964
21
9.7628987905961129
31
0
0
LINE
5
153
100
AcDbEntity
8
0
100
AcDbLine
10
17.16248967453296
20
9.7628987905961129
30
0
11
17.163733372515598
21
9.5282500739444629
31
0
0
LINE
5
154
100
AcDbEntity
8
0
100
AcDbLine
10
17.163733372515601
20
9.5282500739444611
30
0
11
16.365654631253722
21
9.5240200532793331
31
0
0
LINE
5
155
100
AcDbEntity
8
0
100
AcDbLine
10
16.365654631253719
20
9.5240200532793331
30
0
11
16.260728708869856
21
8.9859392982870681
31
0
0
SPLINE
5
156
100
AcDbEntity
8
0
100
AcDbSpline
70
0
71
2
72
6
73
3
74
0
42
0.000000001
43
0.0000000001
44
0.0000000001
40
0
40
0
40
0
40
1
40
1
40
1
10
16.260728708869856
20
8.9859392982870681
30
0
10
16.440142819518762
20
9.1124035884185179
30
0
10
16.637957277152168
20
9.1134520554436236
30
0
0
SPLINE
5
157
100
AcDbEntity
8
0
100
AcDbSpline
70
0
71
2
72
6
73
3
74
0
42
0.000000001
43
0.0000000001
44
0.0000000001
40
0
40
0
40
0
40
1
40
1
40
1
10
16.637957277152168
20
9.1134520554436236
30
0
10
16.899890828792991
20
9.1148403700033871
30
0
10
17.080931870406214
20
8.9343513095733087
30
0
0
SPLINE
5
158
100
AcDbEntity
8
0
100
AcDbSpline
70
0
71
2
72
6
73
3
74
0
42
0.000000001
43
0.0000000001
44
0.0000000001
40
0
40
0
40
0
40
1
40
1
40
1
10
17.080931870406214
20
8.9343513095733087
30
0
10
17.261972763799708
20
8.7538620993439231
30
0
10
17.263484001818224
20
8.4687365571699242
30
0
0
SPLINE
5
159
100
AcDbEntity
8
0
100
AcDbSpline
70
0
71
2
72
6
73
3
74
0
42
0.000000001
43
0.0000000001
44
0.0000000001
40
0
40
0
40
0
40
1
40
1
40
1
10
17.263484001818224
20
8.4687365571699242
30
0
10
17.26492293233796
20
8.1972532834809879
30
0
10
17.107720011277983
20
7.9986002021847646
30
0
0
SPLINE
5
160
100
AcDbEntity
8
0
100
AcDbSpline
70
0
71
2
72
6
73
3
74
0
42
0.000000001
43
0.0000000001
44
0.0000000001
40
0
40
0
40
0
40
1
40
1
40
1
10
17.107720011277983
20
7.9986002021847646
30
0
10
16.91664951466635
20
7.7547464014471004
30
0
10
16.583775660270824
20
7.7529820852083953
30
0
0
SPLINE
5
161
100
AcDbEntity
8
0
100
AcDbSpline
70
0
71
2
72
6
73
3
74
0
42
0.000000001
43
0.0000000001
44
0.0000000001
40
0
40
0
40
0
40
1
40
1
40
1
10
16.583775660270824
20
7.7529820852083953
30
0
10
16.310928204436237
20
7.7515359241757338
30
0
10
16.137542384237975
20
7.9034157372666414
30
0
0
SPLINE
5
162
100
AcDbEntity
8
0
100
AcDbSpline
70
0
71
2
72
6
73
3
74
0
42
0.000000001
43
0.0000000001
44
0.0000000001
40
0
40
0
40
0
40
1
40
1
40
1
10
16.137542384237975
20
7.9034157372666414
30
0
10
15.964156563249922
20
8.0552956993670666
30
0
10
15.938262542961752
20
8.3075493741983077
30
0
0
LINE
5
163
100
AcDbEntity
8
0
100
AcDbLine
10
18.761098697686535
20
9.308882459940417
30
0
11
18.517001639126413
21
9.288488851700917
31
0
0
SPLINE
5
164
100
AcDbEntity
8
0
100
AcDbSpline
70
0
71
2
72
6
73
3
74
0
42
0.000000001
43
0.0000000001
44
0.0000000001
40
0
40
0
40
0
40
1
40
1
40
1
10
18.517001639126413
20
9.288488851700917
30
0
10
18.483493312362036
20
9.4329244303026698
30
0
10
18.4231198349637
20
9.4980897002592108
30
0
0
SPLINE
5
165
100
AcDbEntity
8
0
100
AcDbSpline
70
0
71
2
72
6
73
3
74
0
42
0.000000001
43
0.0000000001
44
0.0000000001
40
0
40
0
40
0
40
1
40
1
40
1
10
18.4231198349637
20
9.4980897002592108
30
0
10
18.322973743463589
20
9.6026080489718382
30
0
10
18.177000442507701
20
9.6018343532853407
30
0
0
SPLINE
5
166
100
AcDbEntity
8
0
100
AcDbSpline
70
0
71
2
72
6
73
3
74
0
42
0.000000001
43
0.0000000001
44
0.0000000001
40
0
40
0
40
0
40
1
40
1
40
1
10
18.177000442507701
20
9.6018343532853407
30
0
10
18.059676009677116
20
9.6012125038991343
30
0
10
17.971347523019435
20
9.5352592246601553
30
0
0
SPLINE
5
167
100
AcDbEntity
8
0
100
AcDbSpline
70
0
71
2
72
6
73
3
74
0
42
0.000000001
43
0.0000000001
44
0.0000000001
40
0
40
0
40
0
40
1
40
1
40
1
10
17.971347523019435
20
9.5352592246601553
30
0
10
17.85583573131154
20
9.4500618863273864
30
0
10
17.78984873880357
20
9.2873633460155531
30
0
0
SPLINE
5
168
100
AcDbEntity
8
0
100
AcDbSpline
70
0
71
2
72
6
73
3
74
0
42
0.000000001
43
0.0000000001
44
0.0000000001
40
0
40
0
40
0
40
1
40
1
40
1
10
17.78984873880357
20
9.2873633460155531
30
0
10
17.723861449066352
20
9.1246646551146231
30
0
10
17.722723861595078
20
8.8245180522745041
30
0
0
SPLINE
5
169
100
AcDbEntity
8
0
100
AcDbSpline
70
0
71
2
72
6
73
3
74
0
42
0.000000001
43
0.0000000001
44
0.0000000001
40
0
40
0
40
0
40
1
40
1
40
1
10
17.722723861595078
20
8.8245180522745041
30
0
10
17.810683279067717
20
8.9600474505429641
30
0
10
17.938574388245154
20
9.0262105707748646
30
0
0
SPLINE
5
170
100
AcDbEntity
8
0
100
AcDbSpline
70
0
71
2
72
6
73
3
74
0
42
0.000000001
43
0.0000000001
44
0.0000000001
40
0
40
0
40
0
40
1
40
1
40
1
10
17.938574388245154
20
9.0262105707748646
30
0
10
18.06646579544163
20
9.0923736925863423
30
0
10
18.206982069795878
20
9.0931184646414955
30
0
0
SPLINE
5
171
100
AcDbEntity
8
0
100
AcDbSpline
70
0
71
2
72
6
73
3
74
0
42
0.000000001
43
0.0000000001
44
0.0000000001
40
0
40
0
40
0
40
1
40
1
40
1
10
18.206982069795878
20
9.0931184646414955
30
0
10
18.452544988660332
20
9.0944200106765951
30
0
10
18.626079041087099
20
8.9145731970189335
30
0
0
SPLINE
5
172
100
AcDbEntity
8
0
100
AcDbSpline
70
0
71
2
72
6
73
3
74
0
42
0.000000001
43
0.0000000001
44
0.0000000001
40
0
40
0
40
0
40
1
40
1
40
1
10
18.626079041087099
20
8.9145731970189335
30
0
10
18.79961309272408
20
8.7347265323707912
30
0
10
18.801131562045327
20
8.4482366590416209
30
0
0
SPLINE
5
173
100
AcDbEntity
8
0
100
AcDbSpline
70
0
71
2
72
6
73
3
74
0
42
0.000000001
43
0.0000000001
44
0.0000000001
40
0
40
0
40
0
40
1
40
1
40
1
10
18.801131562045327
20
8.4482366590416209
30
0
10
18.802129413110485
20
8.2599719234563285
30
0
10
18.721814221878983
20
8.097879624782145
30
0
0
SPLINE
5
174
100
AcDbEntity
8
0
100
AcDbSpline
70
0
71
2
72
6
73
3
74
0
42
0.000000001
43
0.0000000001
44
0.0000000001
40
0
40
0
40
0
40
1
40
1
40
1
10
18.721814221878983
20
8.097879624782145
30
0
10
18.641499031437267
20
7.9357871770984421
30
0
10
18.500073668389273
20
7.8490882697660371
30
0
0
SPLINE
5
175
100
AcDbEntity
8
0
100
AcDbSpline
70
0
71
2
72
6
73
3
74
0
42
0.000000001
43
0.0000000001
44
0.0000000001
40
0
40
0
40
0
40
1
40
1
40
1
10
18.500073668389273
20
7.8490882697660371
30
0
10
18.358648603360315
20
7.7623893640132096
30
0
10
18.178569407677486
20
7.7614348983950743
30
0
0
SPLINE
5
176
100
AcDbEntity
8
0
100
AcDbSpline
70
0
71
2
72
6
73
3
74
0
42
0.000000001
43
0.0000000001
44
0.0000000001
40
0
40
0
40
0
40
1
40
1
40
1
10
18.178569407677486
20
7.7614348983950743
30
0
10
17.871616057115958
20
7.7598079674307785
30
0
10
17.676697447455673
20
7.9845625011351391
30
0
0
SPLINE
5
177
100
AcDbEntity
8
0
100
AcDbSpline
70
0
71
2
72
6
73
3
74
0
42
0.000000001
43
0.0000000001
44
0.0000000001
40
0
40
0
40
0
40
1
40
1
40
1
10
17.676697447455673
20
7.9845625011351391
30
0
10
17.48177913660421
20
8.2093168874095586
30
0
10
17.479031430326209
20
8.7277271130990783
30
0
0
SPLINE
5
178
100
AcDbEntity
8
0
100
AcDbSpline
70
0
71
2
72
6
73
3
74
0
42
0.000000001
43
0.0000000001
44
0.0000000001
40
0
40
0
40
0
40
1
40
1
40
1
10
17.479031430326209
20
8.7277271130990783
30
0
10
17.475958338329221
20
9.3075279194951932
30
0
10
17.688748180895526
20
9.571961039420529
30
0
0
SPLINE
5
179
100
AcDbEntity
8
0
100
AcDbSpline
70
0
71
2
72
6
73
3
74
0
42
0.000000001
43
0.0000000001
44
0.0000000001
40
0
40
0
40
0
40
1
40
1
40
1
10
17.688748180895526
20
9.571961039420529
30
0
10
17.874433661175047
20
9.8021434974526898
30
0
10
18.190936733784689
20
9.8038210443769422
30
0
0
SPLINE
5
180
100
AcDbEntity
8
0
100
AcDbSpline
70
0
71
2
72
6
73
3
74
0
42
0.000000001
43
0.0000000001
44
0.0000000001
40
0
40
0
40
0
40
1
40
1
40
1
10
18.190936733784689
20
9.8038210443769422
30
0
10
18.42694993060103
20
9.8050719744520833
30
0
10
18.578399480768695
20
9.6735399456477396
30
0
0
SPLINE
5
181
100
AcDbEntity
8
0
100
AcDbSpline
70
0
71
2
72
6
73
3
74
0
42
0.000000001
43
0.0000000001
44
0.0000000001
40
0
40
0
40
0
40
1
40
1
40
1
10
18.578399480768695
20
9.6735399456477396
30
0
10
18.729849328955403
20
9.5420079184229714
30
0
10
18.761098697686535
20
9.308882459940417
30
0
0
SPLINE
5
182
100
AcDbEntity
8
0
100
AcDbSpline
70
0
71
2
72
6
73
3
74
0
42
0.000000001
43
0.0000000001
44
0.0000000001
40
0
40
0
40
0
40
1
40
1
40
1
10
17.762954308043099
20
8.4413698346168751
30
0
10
17.76362677259948
20
8.3144958287476953
30
0
10
17.818128597854464
20
8.1988211939860971
30
0
0
SPLINE
5
183
100
AcDbEntity
8
0
100
AcDbSpline
70
0
71
2
72
6
73
3
74
0
42
0.000000001
43
0.0000000001
44
0.0000000001
40
0
40
0
40
0
40
1
40
1
40
1
10
17.818128597854464
20
8.1988211939860971
30
0
10
17.872630721128495
20
8.0831465608040762
30
0
10
17.96981344758413
20
8.0229513844086888
30
0
0
SPLINE
5
184
100
AcDbEntity
8
0
100
AcDbSpline
70
0
71
2
72
6
73
3
74
0
42
0.000000001
43
0.0000000001
44
0.0000000001
40
0
40
0
40
0
40
1
40
1
40
1
10
17.96981344758413
20
8.0229513844086888
30
0
10
18.066995876020734
20
7.9627562064337232
30
0
10
18.173406553667071
20
7.9633202101368195
30
0
0
SPLINE
5
185
100
AcDbEntity
8
0
100
AcDbSpline
70
0
71
2
72
6
73
3
74
0
42
0.000000001
43
0.0000000001
44
0.0000000001
40
0
40
0
40
0
40
1
40
1
40
1
10
18.173406553667071
20
7.9633202101368195
30
0
10
18.328929576671072
20
7.9641445217832754
30
0
10
18.440131748856576
20
8.0902472712616653
30
0
0
SPLINE
5
186
100
AcDbEntity
8
0
100
AcDbSpline
70
0
71
2
72
6
73
3
74
0
42
0.000000001
43
0.0000000001
44
0.0000000001
40
0
40
0
40
0
40
1
40
1
40
1
10
18.440131748856576
20
8.0902472712616653
30
0
10
18.551333920252294
20
8.2163501697495764
30
0
10
18.550191453399783
20
8.4318995913145205
30
0
0
SPLINE
5
187
100
AcDbEntity
8
0
100
AcDbSpline
70
0
71
2
72
6
73
3
74
0
42
0.000000001
43
0.0000000001
44
0.0000000001
40
0
40
0
40
0
40
1
40
1
40
1
10
18.550191453399783
20
8.4318995913145205
30
0
10
18.549092371204495
20
8.6392636219865206
30
0
10
18.437956600580204
20
8.758048708088209
30
0
0
SPLINE
5
188
100
AcDbEntity
8
0
100
AcDbSpline
70
0
71
2
72
6
73
3
74
0
42
0.000000001
43
0.0000000001
44
0.0000000001
40
0
40
0
40
0
40
1
40
1
40
1
10
18.437956600580204
20
8.758048708088209
30
0
10
18.326820531936875
20
8.87683379261032
30
0
10
18.15901942259346
20
8.8759444039780249
30
0
0
SPLINE
5
189
100
AcDbEntity
8
0
100
AcDbSpline
70
0
71
2
72
6
73
3
74
0
42
0.000000001
43
0.0000000001
44
0.0000000001
40
0
40
0
40
0
40
1
40
1
40
1
10
18.15901942259346
20
8.8759444039780249
30
0
10
17.992582346386175
20
8.8750622450688841
30
0
10
17.877254940261281
20
8.7550768464315869
30
0
0
SPLINE
5
190
100
AcDbEntity
8
0
100
AcDbSpline
70
0
71
2
72
6
73
3
74
0
42
0.000000001
43
0.0000000001
44
0.0000000001
40
0
40
0
40
0
40
1
40
1
40
1
10
17.877254940261281
20
8.7550768464315869
30
0
10
17.761927534136383
20
8.6350914477942897
30
0
10
17.762954308043099
20
8.4413698346168751
30
0
0
LINE
5
191
100
AcDbEntity
8
0
100
AcDbLine
10
18.893463265628576
20
7.2440706387996201
30
0
11
18.892523261036313
21
7.4214214701911487
31
0
0
LINE
5
192
100
AcDbEntity
8
0
100
AcDbLine
10
18.89252326103631
20
7.4214214701911487
30
0
11
20.520058273995708
21
7.4300478204271574
31
0
0
LINE
5
193
100
AcDbEntity
8
0
100
AcDbLine
10
20.520058273995716
20
7.4300478204271574
30
0
11
20.520998278587975
21
7.2526969890356288
31
0
0
LINE
5
194
100
AcDbEntity
8
0
100
AcDbLine
10
20.520998278587971
20
7.2526969890356288
30
0
11
18.893463265628576
21
7.2440706387996201
31
0
0
LINE
5
195
100
AcDbEntity
8
0
100
AcDbLine
10
20.564159670909174
20
8.3757246507529697
30
0
11
20.802727990617157
21
8.4097317560148639
31
0
0
SPLINE
5
196
100
AcDbEntity
8
0
100
AcDbSpline
70
0
71
2
72
6
73
3
74
0
42
0.000000001
43
0.0000000001
44
0.0000000001
40
0
40
0
40
0
40
1
40
1
40
1
10
20.802727990617157
20
8.4097317560148639
30
0
10
20.813492487806357
20
8.180590532915291
30
0
10
20.890337978120698
20
8.0964127371864958
30
0
0
SPLINE
5
197
100
AcDbEntity
8
0
100
AcDbSpline
70
0
71
2
72
6
73
3
74
0
42
0.000000001
43
0.0000000001
44
0.0000000001
40
0
40
0
40
0
40
1
40
1
40
1
10
20.890337978120698
20
8.0964127371864958
30
0
10
20.967183468435046
20
8.0122349414577005
30
0
10
21.10224271618765
20
8.0129507898815113
30
0
0
SPLINE
5
198
100
AcDbEntity
8
0
100
AcDbSpline
70
0
71
2
72
6
73
3
74
0
42
0.000000001
43
0.0000000001
44
0.0000000001
40
0
40
0
40
0
40
1
40
1
40
1
10
21.10224271618765
20
8.0129507898815113
30
0
10
21.201832334096217
20
8.0134786402301135
30
0
10
21.273894884959713
20
8.0595638384998658
30
0
0
SPLINE
5
199
100
AcDbEntity
8
0
100
AcDbSpline
70
0
71
2
72
6
73
3
74
0
42
0.000000001
43
0.0000000001
44
0.0000000001
40
0
40
0
40
0
40
1
40
1
40
1
10
21.273894884959713
20
8.0595638384998658
30
0
10
21.345956840574921
20
8.1056488846009458
30
0
10
21.372825904089492
20
8.1842371782576713
30
0
0
SPLINE
5
200
100
AcDbEntity
8
0
100
AcDbSpline
70
0
71
2
72
6
73
3
74
0
42
0.000000001
43
0.0000000001
44
0.0000000001
40
0
40
0
40
0
40
1
40
1
40
1
10
21.372825904089492
20
8.1842371782576713
30
0
10
21.39969496760407
20
8.262825471914395
30
0
10
21.398783885853362
20
8.4347194257138014
30
0
0
LINE
5
201
100
AcDbEntity
8
0
100
AcDbLine
10
21.398783885853362
20
8.4347194257138014
30
0
11
21.391480772401415
21
9.8125991223813127
31
0
0
LINE
5
202
100
AcDbEntity
8
0
100
AcDbLine
10
21.391480772401408
20
9.8125991223813127
30
0
11
21.656142539324016
21
9.814001897177171
31
0
0
LINE
5
203
100
AcDbEntity
8
0
100
AcDbLine
10
21.656142539324016
20
9.814001897177171
30
0
11
21.663366113974455
21
8.4511288001498954
31
0
0
SPLINE
5
204
100
AcDbEntity
8
0
100
AcDbSpline
70
0
71
2
72
6
73
3
74
0
42
0.000000001
43
0.0000000001
44
0.0000000001
40
0
40
0
40
0
40
1
40
1
40
1
10
21.663366113974455
20
8.4511288001498954
30
0
10
21.664696582061332
20
8.2001091527028382
30
0
10
21.60471862776091
20
8.0619993243525414
30
0
0
SPLINE
5
205
100
AcDbEntity
8
0
100
AcDbSpline
70
0
71
2
72
6
73
3
74
0
42
0.000000001
43
0.0000000001
44
0.0000000001
40
0
40
0
40
0
40
1
40
1
40
1
10
21.60471862776091
20
8.0619993243525414
30
0
10
21.544740672670699
20
7.9238896450117666
30
0
10
21.413474591730584
20
7.8508872361961712
30
0
0
SPLINE
5
206
100
AcDbEntity
8
0
100
AcDbSpline
70
0
71
2
72
6
73
3
74
0
42
0.000000001
43
0.0000000001
44
0.0000000001
40
0
40
0
40
0
40
1
40
1
40
1
10
21.413474591730584
20
7.8508872361961712
30
0
10
21.282209106038756
20
7.77788497954925
30
0
10
21.104857976628185
20
7.7769449733774216
30
0
0
SPLINE
5
207
100
AcDbEntity
8
0
100
AcDbSpline
70
0
71
2
72
6
73
3
74
0
42
0.000000001
43
0.0000000001
44
0.0000000001
40
0
40
0
40
0
40
1
40
1
40
1
10
21.104857976628185
20
7.7769449733774216
30
0
10
20.841560540860755
20
7.7755494298842942
30
0
10
20.700923216728167
20
7.9262385978788785
30
0
0
SPLINE
5
208
100
AcDbEntity
8
0
100
AcDbSpline
70
0
71
2
72
6
73
3
74
0
42
0.000000001
43
0.0000000001
44
0.0000000001
40
0
40
0
40
0
40
1
40
1
40
1
10
20.700923216728167
20
7.9262385978788785
30
0
10
20.560286488633658
20
8.0769277690326167
30
0
10
20.564159670909174
20
8.3757246507529697
30
0
0
LINE
5
209
100
AcDbEntity
8
0
100
AcDbLine
10
21.969150663147161
20
8.4159140933632735
30
0
11
21.967841887388893
21
8.6628410453638587
31
0
0
LINE
5
210
100
AcDbEntity
8
0
100
AcDbLine
10
21.967841887388893
20
8.6628410453638587
30
0
11
22.722265160885236
21
8.6668396809271844
31
0
0
LINE
5
211
100
AcDbEntity
8
0
100
AcDbLine
10
22.722265160885232
20
8.6668396809271826
30
0
11
22.723573936643501
21
8.4199127289265974
31
0
0
LINE
5
212
100
AcDbEntity
8
0
100
AcDbLine
10
22.723573936643501
20
8.4199127289265991
30
0
11
21.969150663147161
21
8.4159140933632735
31
0
0
LINE
5
213
100
AcDbEntity
8
0
100
AcDbLine
10
24.219344658149943
20
8.0635790772103544
30
0
11
24.220595587435309
21
7.827566029403533
31
0
0
LINE
5
214
100
AcDbEntity
8
0
100
AcDbLine
10
24.220595587435309
20
7.827566029403533
30
0
11
22.898649891901307
21
7.8205593804086684
31
0
0
SPLINE
5
215
100
AcDbEntity
8
0
100
AcDbSpline
70
0
71
2
72
6
73
3
74
0
42
0.000000001
43
0.0000000001
44
0.0000000001
40
0
40
0
40
0
40
1
40
1
40
1
10
22.898649891901307
20
7.8205593804086684
30
0
10
22.895451227294839
20
7.9092203334989719
30
0
10
22.926394611559594
20
7.9912408477736196
30
0
0
SPLINE
5
216
100
AcDbEntity
8
0
100
AcDbSpline
70
0
71
2
72
6
73
3
74
0
42
0.000000001
43
0.0000000001
44
0.0000000001
40
0
40
0
40
0
40
1
40
1
40
1
10
22.926394611559594
20
7.9912408477736196
30
0
10
22.976156034107106
20
8.1265679359505025
30
0
10
23.08664681985443
20
8.258123945790075
30
0
0
SPLINE
5
217
100
AcDbEntity
8
0
100
AcDbSpline
70
0
71
2
72
6
73
3
74
0
42
0.000000001
43
0.0000000001
44
0.0000000001
40
0
40
0
40
0
40
1
40
1
40
1
10
23.08664681985443
20
8.258123945790075
30
0
10
23.197138200850045
20
8.3896801077983199
30
0
10
23.406319812871466
20
8.5626874573889395
30
0
0
SPLINE
5
218
100
AcDbEntity
8
0
100
AcDbSpline
70
0
71
2
72
6
73
3
74
0
42
0.000000001
43
0.0000000001
44
0.0000000001
40
0
40
0
40
0
40
1
40
1
40
1
10
23.406319812871466
20
8.5626874573889395
30
0
10
23.730955071319066
20
8.831806196936034
30
0
10
23.84472321256052
20
8.9886187738779419
30
0
0
SPLINE
5
219
100
AcDbEntity
8
0
100
AcDbSpline
70
0
71
2
72
6
73
3
74
0
42
0.000000001
43
0.0000000001
44
0.0000000001
40
0
40
0
40
0
40
1
40
1
40
1
10
23.84472321256052
20
8.9886187738779419
30
0
10
23.958490757763897
20
9.145431347660697
30
0
10
23.95775321543189
20
9.2845835888788102
30
0
0
SPLINE
5
220
100
AcDbEntity
8
0
100
AcDbSpline
70
0
71
2
72
6
73
3
74
0
42
0.000000001
43
0.0000000001
44
0.0000000001
40
0
40
0
40
0
40
1
40
1
40
1
10
23.95775321543189
20
9.2845835888788102
30
0
10
23.956979519745385
20
9.4305568898346976
30
0
10
23.852084172430441
20
9.5302752201323866
30
0
0
SPLINE
5
221
100
AcDbEntity
8
0
100
AcDbSpline
70
0
71
2
72
6
73
3
74
0
42
0.000000001
43
0.0000000001
44
0.0000000001
40
0
40
0
40
0
40
1
40
1
40
1
10
23.852084172430441
20
9.5302752201323866
30
0
10
23.747188825115501
20
9.6299935504300738
30
0
10
23.579387417753047
20
9.629104160218203
30
0
0
SPLINE
5
222
100
AcDbEntity
8
0
100
AcDbSpline
70
0
71
2
72
6
73
3
74
0
42
0.000000001
43
0.0000000001
44
0.0000000001
40
0
40
0
40
0
40
1
40
1
40
1
10
23.579387417753047
20
9.629104160218203
30
0
10
23.40203628834248
20
9.6281641540463756
30
0
10
23.296190209647531
20
9.5211896248656114
30
0
0
SPLINE
5
223
100
AcDbEntity
8
0
100
AcDbSpline
70
0
71
2
72
6
73
3
74
0
42
0.000000001
43
0.0000000001
44
0.0000000001
40
0
40
0
40
0
40
1
40
1
40
1
10
23.296190209647531
20
9.5211896248656114
30
0
10
23.190343534914504
20
9.4142150925256942
30
0
10
23.189977054824492
20
9.2259431256376718
30
0
0
LINE
5
224
100
AcDbEntity
8
0
100
AcDbLine
10
23.189977054824492
20
9.2259431256376718
30
0
11
22.937455690947854
21
9.2505259300820768
31
0
0
SPLINE
5
225
100
AcDbEntity
8
0
100
AcDbSpline
70
0
71
2
72
6
73
3
74
0
42
0.000000001
43
0.0000000001
44
0.0000000001
40
0
40
0
40
0
40
1
40
1
40
1
10
22.937455690947857
20
9.2505259300820768
30
0
10
22.961879418579013
20
9.533060344229666
30
0
10
23.130260614456034
20
9.6819767634329086
30
0
0
SPLINE
5
226
100
AcDbEntity
8
0
100
AcDbSpline
70
0
71
2
72
6
73
3
74
0
42
0.000000001
43
0.0000000001
44
0.0000000001
40
0
40
0
40
0
40
1
40
1
40
1
10
23.130260614456034
20
9.6819767634329086
30
0
10
23.298641214294982
20
9.8308931794769983
30
0
10
23.583766756468982
20
9.8324044174954981
30
0
0
SPLINE
5
227
100
AcDbEntity
8
0
100
AcDbSpline
70
0
71
2
72
6
73
3
74
0
42
0.000000001
43
0.0000000001
44
0.0000000001
40
0
40
0
40
0
40
1
40
1
40
1
10
23.583766756468982
20
9.8324044174954981
30
0
10
23.871620960953322
20
9.8339301181194578
30
0
10
24.040268372290853
20
9.6752037898808574
30
0
0
SPLINE
5
228
100
AcDbEntity
8
0
100
AcDbSpline
70
0
71
2
72
6
73
3
74
0
42
0.000000001
43
0.0000000001
44
0.0000000001
40
0
40
0
40
0
40
1
40
1
40
1
10
24.040268372290853
20
9.6752037898808574
30
0
10
24.208915188380089
20
9.5164773094735846
30
0
10
24.210166117665462
20
9.2804642616667632
30
0
0
SPLINE
5
229
100
AcDbEntity
8
0
100
AcDbSpline
70
0
71
2
72
6
73
3
74
0
42
0.000000001
43
0.0000000001
44
0.0000000001
40
0
40
0
40
0
40
1
40
1
40
1
10
24.210166117665462
20
9.2804642616667632
30
0
10
24.210802428077557
20
9.1604114645448771
30
0
10
24.162304701593165
20
9.044190905916583
30
0
0
SPLINE
5
230
100
AcDbEntity
8
0
100
AcDbSpline
70
0
71
2
72
6
73
3
74
0
42
0.000000001
43
0.0000000001
44
0.0000000001
40
0
40
0
40
0
40
1
40
1
40
1
10
24.162304701593165
20
9.044190905916583
30
0
10
24.113806974318987
20
8.9279704962978101
30
0
10
24.000572469197365
20
8.7991283849849271
30
0
0
SPLINE
5
231
100
AcDbEntity
8
0
100
AcDbSpline
70
0
71
2
72
6
73
3
74
0
42
0.000000001
43
0.0000000001
44
0.0000000001
40
0
40
0
40
0
40
1
40
1
40
1
10
24.000572469197365
20
8.7991283849849271
30
0
10
23.887338560113811
20
8.6702862768311952
30
0
10
23.623862644700946
20
8.4451486895774526
30
0
0
SPLINE
5
232
100
AcDbEntity
8
0
100
AcDbSpline
70
0
71
2
72
6
73
3
74
0
42
0.000000001
43
0.0000000001
44
0.0000000001
40
0
40
0
40
0
40
1
40
1
40
1
10
23.623862644700946
20
8.4451486895774526
30
0
10
23.4038392885546
20
8.2584409262200413
30
0
10
23.341434921382284
20
8.191942866677886
30
0
0
SPLINE
5
233
100
AcDbEntity
8
0
100
AcDbSpline
70
0
71
2
72
6
73
3
74
0
42
0.000000001
43
0.0000000001
44
0.0000000001
40
0
40
0
40
0
40
1
40
1
40
1
10
23.341434921382284
20
8.191942866677886
30
0
10
23.279031151037834
20
8.1254446612853659
30
0
10
23.238457909885373
20
8.0583801275318443
30
0
0
LINE
5
234
100
AcDbEntity
8
0
100
AcDbLine
10
23.238457909885373
20
8.0583801275318443
30
0
11
24.219344658149939
21
8.0635790772103526
31
0
0
ENDSEC
0
SECTION
2
OBJECTS
0
DICTIONARY
5
C
100
AcDbDictionary
3
ACAD_GROUP
350
D
3
ACAD_MLINESTYLE
350
17
0
DICTIONARY
5
D
100
AcDbDictionary
0
DICTIONARY
5
1A
330
C
100
AcDbDictionary
0
DICTIONARY
5
17
100
AcDbDictionary
0
ENDSEC
0
EOF
