0
SECTION
2
HEADER
9
$INSUNITS
70
4
9
$ACADVER
1
AC1014
9
$HANDSEED
5
FFFF
0
ENDSEC
0
SECTION
2
TABLES
0
TABLE
2
VPORT
5
8
100
AcDbSymbolTable
0
ENDTAB
0
TABLE
2
LTYPE
5
5
100
AcDbSymbolTable
0
LTYPE
5
14
100
AcDbSymbolTableRecord
100
AcDbLinetypeTableRecord
2
BYBLOCK
70
0
0
LTYPE
5
15
100
AcDbSymbolTableRecord
100
AcDbLinetypeTableRecord
2
BYLAYER
70
0
0
ENDTAB
0
TABLE
2
LAYER
5
2
100
AcDbSymbolTable
70
2
0
LAYER
5
50
100
AcDbSymbolTableRecord
100
AcDbLayerTableRecord
2
0
70
0
6
CONTINUOUS
0
ENDTAB
0
TABLE
2
STYLE
5
3
100
AcDbSymbolTable
70
1
0
STYLE
5
11
100
AcDbSymbolTableRecord
100
AcDbTextStyleTableRecord
2
STANDARD
70
0
0
ENDTAB
0
TABLE
2
VIEW
5
6
100
AcDbSymbolTable
70
0
0
ENDTAB
0
TABLE
2
UCS
5
7
100
AcDbSymbolTable
70
0
0
ENDTAB
0
TABLE
2
APPID
5
9
100
AcDbSymbolTable
70
2
0
APPID
5
12
100
AcDbSymbolTableRecord
100
AcDbRegAppTableRecord
2
ACAD
70
0
0
ENDTAB
0
TABLE
2
DIMSTYLE
5
A
100
AcDbSymbolTable
70
1
0
ENDTAB
0
TABLE
2
BLOCK_RECORD
5
1
100
AcDbSymbolTable
70
1
0
BLOCK_RECORD
5
1F
100
AcDbSymbolTableRecord
100
AcDbBlockTableRecord
2
*MODEL_SPACE
0
BLOCK_RECORD
5
1B
100
AcDbSymbolTableRecord
100
AcDbBlockTableRecord
2
*PAPER_SPACE
0
ENDTAB
0
ENDSEC
0
SECTION
2
BLOCKS
0
BLOCK
5
20
100
AcDbEntity
100
AcDbBlockBegin
2
*MODEL_SPACE
0
ENDBLK
5
21
100
AcDbEntity
100
AcDbBlockEnd
0
BLOCK
5
1C
100
AcDbEntity
100
AcDbBlockBegin
2
*PAPER_SPACE
0
ENDBLK
5
1D
100
AcDbEntity
100
AcDbBlockEnd
0
ENDSEC
0
SECTION
2
ENTITIES
0
LINE
5
100
100
AcDbEntity
8
0
100
AcDbLine
10
44
20
29
30
0
11
0
21
29.000000000000014
31
0
0
LINE
5
101
100
AcDbEntity
8
0
100
AcDbLine
10
22
20
58.000000000000007
30
0
11
22
21
0
31
0
0
LWPOLYLINE
5
102
100
AcDbEntity
8
0
100
AcDbPolyline
90
20
70
1
43
0.0
10
7.0000000000000018
20
58.000000000000007
10
7.0000000000000018
20
61.000000000000007
10
37
20
61.000000000000014
10
36.999999999999986
20
58.000000000000007
10
44
20
58.000000000000007
10
44
20
44
10
46.999999999999993
20
44
10
47
20
14.000000000000005
10
44
20
14.000000000000005
10
44
20
-1.0846837446788912e-30
10
36.999999999999972
20
0
10
36.999999999999986
20
-3.0000000000000067
10
6.9999999999999831
20
-2.9999999999999782
10
6.9999999999999849
20
0
10
0
20
0
10
0
20
14.000000000000005
10
-3.0000000000000022
20
14.000000000000004
10
-2.9999999999999871
20
44
10
0
20
44
10
0
20
58.000000000000007
0
CIRCLE
5
103
100
AcDbEntity
8
0
100
AcDbCircle
10
5
20
5
30
0
40
1.5000000000000002
210
0
220
0
230
1
0
CIRCLE
5
104
100
AcDbEntity
8
0
100
AcDbCircle
10
39
20
5
30
0
40
1.5000000000000002
210
0
220
0
230
1
0
CIRCLE
5
105
100
AcDbEntity
8
0
100
AcDbCircle
10
5.0000000000000133
20
53.000000000000036
30
0
40
1.5000000000000002
210
0
220
0
230
1
0
CIRCLE
5
106
100
AcDbEntity
8
0
100
AcDbCircle
10
39.000000000000014
20
53.000000000000007
30
0
40
1.5000000000000002
210
0
220
0
230
1
0
CIRCLE
5
107
100
AcDbEntity
8
0
100
AcDbCircle
10
22
20
29.000000000000007
30
0
40
13.5
210
0
220
0
230
1
0
CIRCLE
5
108
100
AcDbEntity
8
0
100
AcDbCircle
10
22
20
45.000000000000007
30
0
40
1.5000000000000002
210
0
220
0
230
1
0
CIRCLE
5
109
100
AcDbEntity
8
0
100
AcDbCircle
10
8.1435935394489807
20
21.000000000000011
30
0
40
1.5000000000000002
210
0
220
0
230
1
0
CIRCLE
5
110
100
AcDbEntity
8
0
100
AcDbCircle
10
35.856406460551014
20
21
30
0
40
1.5000000000000002
210
0
220
0
230
1
0
LWPOLYLINE
5
111
100
AcDbEntity
8
0
100
AcDbPolyline
90
4
70
1
43
0.0
10
10.741439064948104
20
-1.5102850339824669
10
29.687952144845575
20
-1.5102850339824681
10
29.687952144845575
20
5.3396081564420026
10
10.741439064948104
20
5.3396081564420044
0
LINE
5
112
100
AcDbEntity
8
0
100
AcDbLine
10
10.746896089038096
20
3.9071388182633693
30
0
11
10.985640957003675
21
3.9398809907429988
31
0
0
SPLINE
5
113
100
AcDbEntity
8
0
100
AcDbSpline
70
0
71
2
72
6
73
3
74
0
42
0.000000001
43
0.0000000001
44
0.0000000001
40
0
40
0
40
0
40
1
40
1
40
1
10
10.985640957003675
20
3.9398809907429988
30
0
10
10.995190775936685
20
3.7106859323972041
30
0
10
11.071589103883348
20
3.6261020240777309
30
0
0
SPLINE
5
114
100
AcDbEntity
8
0
100
AcDbSpline
70
0
71
2
72
6
73
3
74
0
42
0.000000001
43
0.0000000001
44
0.0000000001
40
0
40
0
40
0
40
1
40
1
40
1
10
11.071589103883348
20
3.6261020240777309
30
0
10
11.147987469082913
20
3.5415181157582576
30
0
10
11.283048874682031
20
3.5415181157582576
30
0
0
SPLINE
5
115
100
AcDbEntity
8
0
100
AcDbSpline
70
0
71
2
72
6
73
3
74
0
42
0.000000001
43
0.0000000001
44
0.0000000001
40
0
40
0
40
0
40
1
40
1
40
1
10
11.283048874682031
20
3.5415181157582576
30
0
10
11.382639630681119
20
3.5415181157582576
30
0
10
11.45494520569428
20
3.587220722197848
30
0
0
SPLINE
5
116
100
AcDbEntity
8
0
100
AcDbSpline
70
0
71
2
72
6
73
3
74
0
42
0.000000001
43
0.0000000001
44
0.0000000001
40
0
40
0
40
0
40
1
40
1
40
1
10
11.45494520569428
20
3.587220722197848
30
0
10
11.52725078070744
20
3.6329231796258266
30
0
10
11.554535924440465
20
3.7113679585450465
30
0
0
SPLINE
5
117
100
AcDbEntity
8
0
100
AcDbSpline
70
0
71
2
72
6
73
3
74
0
42
0.000000001
43
0.0000000001
44
0.0000000001
40
0
40
0
40
0
40
1
40
1
40
1
10
11.554535924440465
20
3.7113679585450465
30
0
10
11.58182106817349
20
3.7898127374642665
30
0
10
11.58182106817349
20
3.9617091057294185
30
0
0
LINE
5
118
100
AcDbEntity
8
0
100
AcDbLine
10
11.58182106817349
20
3.9617091057294185
30
0
11
11.58182106817349
21
5.3396081564420044
31
0
0
LINE
5
119
100
AcDbEntity
8
0
100
AcDbLine
10
11.58182106817349
20
5.3396081564420044
30
0
11
11.846486850625119
21
5.3396081564420044
31
0
0
LINE
5
120
100
AcDbEntity
8
0
100
AcDbLine
10
11.846486850625119
20
5.3396081564420044
30
0
11
11.846486850625119
21
3.9767159161561305
31
0
0
SPLINE
5
121
100
AcDbEntity
8
0
100
AcDbSpline
70
0
71
2
72
6
73
3
74
0
42
0.000000001
43
0.0000000001
44
0.0000000001
40
0
40
0
40
0
40
1
40
1
40
1
10
11.846486850625119
20
3.9767159161561305
30
0
10
11.846486850625119
20
3.7256927428239162
30
0
10
11.785777433758817
20
3.5879027483456905
30
0
0
SPLINE
5
122
100
AcDbEntity
8
0
100
AcDbSpline
70
0
71
2
72
6
73
3
74
0
42
0.000000001
43
0.0000000001
44
0.0000000001
40
0
40
0
40
0
40
1
40
1
40
1
10
11.785777433758817
20
3.5879027483456905
30
0
10
11.725068016892514
20
3.4501129028790767
30
0
10
11.593417226320348
20
3.37780725336011
30
0
0
SPLINE
5
123
100
AcDbEntity
8
0
100
AcDbSpline
70
0
71
2
72
6
73
3
74
0
42
0.000000001
43
0.0000000001
44
0.0000000001
40
0
40
0
40
0
40
1
40
1
40
1
10
11.593417226320348
20
3.37780725336011
30
0
10
11.461766510253987
20
3.3055017528527553
30
0
10
11.284413113242231
20
3.3055017528527553
30
0
0
SPLINE
5
124
100
AcDbEntity
8
0
100
AcDbSpline
70
0
71
2
72
6
73
3
74
0
42
0.000000001
43
0.0000000001
44
0.0000000001
40
0
40
0
40
0
40
1
40
1
40
1
10
11.284413113242231
20
3.3055017528527553
30
0
10
11.021111643856607
20
3.3055017528527553
30
0
10
10.881275347417436
20
3.4569342074387843
30
0
0
SPLINE
5
125
100
AcDbEntity
8
0
100
AcDbSpline
70
0
71
2
72
6
73
3
74
0
42
0.000000001
43
0.0000000001
44
0.0000000001
40
0
40
0
40
0
40
1
40
1
40
1
10
10.881275347417436
20
3.4569342074387843
30
0
10
10.741439064948104
20
3.6083666620248134
30
0
10
10.746896089038096
20
3.9071388182633693
30
0
0
LINE
5
126
100
AcDbEntity
8
0
100
AcDbLine
10
12.179365306144796
20
3.8634825882905299
30
0
11
12.437209784036718
21
3.8853107032769496
31
0
0
SPLINE
5
127
100
AcDbEntity
8
0
100
AcDbSpline
70
0
71
2
72
6
73
3
74
0
42
0.000000001
43
0.0000000001
44
0.0000000001
40
0
40
0
40
0
40
1
40
1
40
1
10
12.437209784036718
20
3.8853107032769496
30
0
10
12.465859203582845
20
3.6970433232777888
30
0
10
12.570224701410375
20
3.6022275326245601
30
0
0
SPLINE
5
128
100
AcDbEntity
8
0
100
AcDbSpline
70
0
71
2
72
6
73
3
74
0
42
0.000000001
43
0.0000000001
44
0.0000000001
40
0
40
0
40
0
40
1
40
1
40
1
10
12.570224701410375
20
3.6022275326245601
30
0
10
12.674590348249517
20
3.5074115929597194
30
0
10
12.821930049902043
20
3.5074115929597194
30
0
0
SPLINE
5
129
100
AcDbEntity
8
0
100
AcDbSpline
70
0
71
2
72
6
73
3
74
0
42
0.000000001
43
0.0000000001
44
0.0000000001
40
0
40
0
40
0
40
1
40
1
40
1
10
12.821930049902043
20
3.5074115929597194
30
0
10
12.999283372407994
20
3.5074115929597194
30
0
10
13.122066556459508
20
3.6411088345044429
30
0
0
SPLINE
5
130
100
AcDbEntity
8
0
100
AcDbSpline
70
0
71
2
72
6
73
3
74
0
42
0.000000001
43
0.0000000001
44
0.0000000001
40
0
40
0
40
0
40
1
40
1
40
1
10
13.122066556459508
20
3.6411088345044429
30
0
10
13.244849442487798
20
3.7748059270375545
30
0
10
13.244849442487798
20
3.9958154795163447
30
0
0
SPLINE
5
131
100
AcDbEntity
8
0
100
AcDbSpline
70
0
71
2
72
6
73
3
74
0
42
0.000000001
43
0.0000000001
44
0.0000000001
40
0
40
0
40
0
40
1
40
1
40
1
10
13.244849442487798
20
3.9958154795163447
30
0
10
13.244849442487798
20
4.2059109745019256
30
0
10
13.126841484552465
20
4.3273298082345306
30
0
0
SPLINE
5
132
100
AcDbEntity
8
0
100
AcDbSpline
70
0
71
2
72
6
73
3
74
0
42
0.000000001
43
0.0000000001
44
0.0000000001
40
0
40
0
40
0
40
1
40
1
40
1
10
13.126841484552465
20
4.3273298082345306
30
0
10
13.008833228593907
20
4.4487486419671356
30
0
10
12.817837296968541
20
4.4487486419671356
30
0
0
SPLINE
5
133
100
AcDbEntity
8
0
100
AcDbSpline
70
0
71
2
72
6
73
3
74
0
42
0.000000001
43
0.0000000001
44
0.0000000001
40
0
40
0
40
0
40
1
40
1
40
1
10
12.817837296968541
20
4.4487486419671356
30
0
10
12.699147014862142
20
4.4487486419671356
30
0
10
12.603649049049459
20
4.3948605296605407
30
0
0
SPLINE
5
134
100
AcDbEntity
8
0
100
AcDbSpline
70
0
71
2
72
6
73
3
74
0
42
0.000000001
43
0.0000000001
44
0.0000000001
40
0
40
0
40
0
40
1
40
1
40
1
10
12.603649049049459
20
4.3948605296605407
30
0
10
12.508151083236775
20
4.3409724173539459
30
0
10
12.453580795770726
20
4.2550241587155639
30
0
0
LINE
5
135
100
AcDbEntity
8
0
100
AcDbLine
10
12.453580795770726
20
4.2550241587155639
30
0
11
12.223021536117635
21
4.285037779568988
31
0
0
LINE
5
136
100
AcDbEntity
8
0
100
AcDbLine
10
12.223021536117635
20
4.285037779568988
30
0
11
12.416745870357595
21
5.3123229382031738
31
0
0
LINE
5
137
100
AcDbEntity
8
0
100
AcDbLine
10
12.416745870357595
20
5.3123229382031738
30
0
11
13.411288856512151
21
5.3123229382031738
31
0
0
LINE
5
138
100
AcDbEntity
8
0
100
AcDbLine
10
13.411288856512151
20
5.3123229382031738
30
0
11
13.411288856512151
21
5.0776709256165802
31
0
0
LINE
5
139
100
AcDbEntity
8
0
100
AcDbLine
10
13.411288856512151
20
5.0776709256165802
30
0
11
12.613198905235372
21
5.0776709256165802
31
0
0
LINE
5
140
100
AcDbEntity
8
0
100
AcDbLine
10
12.613198905235372
20
5.0776709256165802
30
0
11
12.50542253161057
21
4.5401538548463165
31
0
0
SPLINE
5
141
100
AcDbEntity
8
0
100
AcDbSpline
70
0
71
2
72
6
73
3
74
0
42
0.000000001
43
0.0000000001
44
0.0000000001
40
0
40
0
40
0
40
1
40
1
40
1
10
12.50542253161057
20
4.5401538548463165
30
0
10
12.685504405742726
20
4.6656654415124237
30
0
10
12.8833216419278
20
4.6656654415124237
30
0
0
SPLINE
5
142
100
AcDbEntity
8
0
100
AcDbSpline
70
0
71
2
72
6
73
3
74
0
42
0.000000001
43
0.0000000001
44
0.0000000001
40
0
40
0
40
0
40
1
40
1
40
1
10
12.8833216419278
20
4.6656654415124237
30
0
10
13.145258872753224
20
4.6656654415124237
30
0
10
13.325340746885381
20
4.4842193660729706
30
0
0
SPLINE
5
143
100
AcDbEntity
8
0
100
AcDbSpline
70
0
71
2
72
6
73
3
74
0
42
0.000000001
43
0.0000000001
44
0.0000000001
40
0
40
0
40
0
40
1
40
1
40
1
10
13.325340746885381
20
4.4842193660729706
30
0
10
13.505422472005925
20
4.3027731416219055
30
0
10
13.505422472005925
20
4.0176435945027649
30
0
0
SPLINE
5
144
100
AcDbEntity
8
0
100
AcDbSpline
70
0
71
2
72
6
73
3
74
0
42
0.000000001
43
0.0000000001
44
0.0000000001
40
0
40
0
40
0
40
1
40
1
40
1
10
13.505422472005925
20
4.0176435945027649
30
0
10
13.505422472005925
20
3.7461565074914271
30
0
10
13.347168861871801
20
3.5483394203179652
30
0
0
SPLINE
5
145
100
AcDbEntity
8
0
100
AcDbSpline
70
0
71
2
72
6
73
3
74
0
42
0.000000001
43
0.0000000001
44
0.0000000001
40
0
40
0
40
0
40
1
40
1
40
1
10
13.347168861871801
20
3.5483394203179652
30
0
10
13.154808579927526
20
3.3055017528527553
30
0
10
12.821930049902043
20
3.3055017528527553
30
0
0
SPLINE
5
146
100
AcDbEntity
8
0
100
AcDbSpline
70
0
71
2
72
6
73
3
74
0
42
0.000000001
43
0.0000000001
44
0.0000000001
40
0
40
0
40
0
40
1
40
1
40
1
10
12.821930049902043
20
3.3055017528527553
30
0
10
12.549078761583409
20
3.3055017528527553
30
0
10
12.376500367170415
20
3.4582984087460811
30
0
0
SPLINE
5
147
100
AcDbEntity
8
0
100
AcDbSpline
70
0
71
2
72
6
73
3
74
0
42
0.000000001
43
0.0000000001
44
0.0000000001
40
0
40
0
40
0
40
1
40
1
40
1
10
12.376500367170415
20
3.4582984087460811
30
0
10
12.203921972757421
20
3.6110952136510188
30
0
10
12.179365306144796
20
3.8634825882905299
30
0
0
LINE
5
148
100
AcDbEntity
8
0
100
AcDbLine
10
15.007469057088933
20
4.8498400685780823
30
0
11
14.763267337328038
21
4.830740505217868
31
0
0
SPLINE
5
149
100
AcDbEntity
8
0
100
AcDbSpline
70
0
71
2
72
6
73
3
74
0
42
0.000000001
43
0.0000000001
44
0.0000000001
40
0
40
0
40
0
40
1
40
1
40
1
10
14.763267337328038
20
4.830740505217868
30
0
10
14.730525015836797
20
4.9753516552441894
30
0
10
14.670497774129949
20
5.0408360002034485
30
0
0
SPLINE
5
150
100
AcDbEntity
8
0
100
AcDbSpline
70
0
71
2
72
6
73
3
74
0
42
0.000000001
43
0.0000000001
44
0.0000000001
40
0
40
0
40
0
40
1
40
1
40
1
10
14.670497774129949
20
5.0408360002034485
30
0
10
14.570907055383763
20
5.1458836731904327
30
0
10
14.424931704050145
20
5.1458836731904327
30
0
0
SPLINE
5
151
100
AcDbEntity
8
0
100
AcDbSpline
70
0
71
2
72
6
73
3
74
0
42
0.000000001
43
0.0000000001
44
0.0000000001
40
0
40
0
40
0
40
1
40
1
40
1
10
14.424931704050145
20
5.1458836731904327
30
0
10
14.307605623251042
20
5.1458836731904327
30
0
10
14.218928812986455
20
5.0803994772427856
30
0
0
SPLINE
5
152
100
AcDbEntity
8
0
100
AcDbSpline
70
0
71
2
72
6
73
3
74
0
42
0.000000001
43
0.0000000001
44
0.0000000001
40
0
40
0
40
0
40
1
40
1
40
1
10
14.218928812986455
20
5.0803994772427856
30
0
10
14.102967082506261
20
4.9958155689233124
30
0
10
14.036118685251317
20
4.8334690568440735
30
0
0
SPLINE
5
153
100
AcDbEntity
8
0
100
AcDbSpline
70
0
71
2
72
6
73
3
74
0
42
0.000000001
43
0.0000000001
44
0.0000000001
40
0
40
0
40
0
40
1
40
1
40
1
10
14.036118685251317
20
4.8334690568440735
30
0
10
13.969269989973149
20
4.6711223957532226
30
0
10
13.966541587358556
20
4.37098603820737
30
0
0
SPLINE
5
154
100
AcDbEntity
8
0
100
AcDbSpline
70
0
71
2
72
6
73
3
74
0
42
0.000000001
43
0.0000000001
44
0.0000000001
40
0
40
0
40
0
40
1
40
1
40
1
10
13.966541587358556
20
4.37098603820737
30
0
10
14.055218099599919
20
4.5060473320477783
30
0
10
14.18345808888062
20
4.5715316770070373
30
0
0
SPLINE
5
155
100
AcDbEntity
8
0
100
AcDbSpline
70
0
71
2
72
6
73
3
74
0
42
0.000000001
43
0.0000000001
44
0.0000000001
40
0
40
0
40
0
40
1
40
1
40
1
10
14.18345808888062
20
4.5715316770070373
30
0
10
14.311698376184545
20
4.6370160219662964
30
0
10
14.452216624265752
20
4.6370160219662964
30
0
0
SPLINE
5
156
100
AcDbEntity
8
0
100
AcDbSpline
70
0
71
2
72
6
73
3
74
0
42
0.000000001
43
0.0000000001
44
0.0000000001
40
0
40
0
40
0
40
1
40
1
40
1
10
14.452216624265752
20
4.6370160219662964
30
0
10
14.697782992368779
20
4.6370160219662964
30
0
10
14.870361386781774
20
4.4562519726746856
30
0
0
SPLINE
5
157
100
AcDbEntity
8
0
100
AcDbSpline
70
0
71
2
72
6
73
3
74
0
42
0.000000001
43
0.0000000001
44
0.0000000001
40
0
40
0
40
0
40
1
40
1
40
1
10
14.870361386781774
20
4.4562519726746856
30
0
10
15.042939781194768
20
4.2754880723946869
30
0
10
15.042939781194768
20
3.9889941749566371
30
0
0
SPLINE
5
158
100
AcDbEntity
8
0
100
AcDbSpline
70
0
71
2
72
6
73
3
74
0
42
0.000000001
43
0.0000000001
44
0.0000000001
40
0
40
0
40
0
40
1
40
1
40
1
10
15.042939781194768
20
3.9889941749566371
30
0
10
15.042939781194768
20
3.8007267949574763
30
0
10
14.961766599660955
20
3.6390624580376918
30
0
0
SPLINE
5
159
100
AcDbEntity
8
0
100
AcDbSpline
70
0
71
2
72
6
73
3
74
0
42
0.000000001
43
0.0000000001
44
0.0000000001
40
0
40
0
40
0
40
1
40
1
40
1
10
14.961766599660955
20
3.6390624580376918
30
0
10
14.880593418127141
20
3.4773979721062953
30
0
10
14.738710521703801
20
3.3914498624795253
30
0
0
SPLINE
5
160
100
AcDbEntity
8
0
100
AcDbSpline
70
0
71
2
72
6
73
3
74
0
42
0.000000001
43
0.0000000001
44
0.0000000001
40
0
40
0
40
0
40
1
40
1
40
1
10
14.738710521703801
20
3.3914498624795253
30
0
10
14.596827923303685
20
3.3055017528527553
30
0
10
14.416746198183141
20
3.3055017528527553
30
0
0
SPLINE
5
161
100
AcDbEntity
8
0
100
AcDbSpline
70
0
71
2
72
6
73
3
74
0
42
0.000000001
43
0.0000000001
44
0.0000000001
40
0
40
0
40
0
40
1
40
1
40
1
10
14.416746198183141
20
3.3055017528527553
30
0
10
14.109788536077581
20
3.3055017528527553
30
0
10
13.916063903814397
20
3.5312862334245021
30
0
0
SPLINE
5
162
100
AcDbEntity
8
0
100
AcDbSpline
70
0
71
2
72
6
73
3
74
0
42
0.000000001
43
0.0000000001
44
0.0000000001
40
0
40
0
40
0
40
1
40
1
40
1
10
13.916063903814397
20
3.5312862334245021
30
0
10
13.722339569574437
20
3.757070564984637
30
0
10
13.722339569574437
20
4.2754880723946869
30
0
0
SPLINE
5
163
100
AcDbEntity
8
0
100
AcDbSpline
70
0
71
2
72
6
73
3
74
0
42
0.000000001
43
0.0000000001
44
0.0000000001
40
0
40
0
40
0
40
1
40
1
40
1
10
13.722339569574437
20
4.2754880723946869
30
0
10
13.722339569574437
20
4.8552970228188812
30
0
10
13.936527966505132
20
5.1185986039632141
30
0
0
SPLINE
5
164
100
AcDbEntity
8
0
100
AcDbSpline
70
0
71
2
72
6
73
3
74
0
42
0.000000001
43
0.0000000001
44
0.0000000001
40
0
40
0
40
0
40
1
40
1
40
1
10
13.936527966505132
20
5.1185986039632141
30
0
10
14.123430847173772
20
5.3477936623090088
30
0
10
14.439938365465245
20
5.3477936623090088
30
0
0
SPLINE
5
165
100
AcDbEntity
8
0
100
AcDbSpline
70
0
71
2
72
6
73
3
74
0
42
0.000000001
43
0.0000000001
44
0.0000000001
40
0
40
0
40
0
40
1
40
1
40
1
10
14.439938365465245
20
5.3477936623090088
30
0
10
14.67595487738236
20
5.3477936623090088
30
0
10
14.826705156808934
20
5.2154607710831939
30
0
0
SPLINE
5
166
100
AcDbEntity
8
0
100
AcDbSpline
70
0
71
2
72
6
73
3
74
0
42
0.000000001
43
0.0000000001
44
0.0000000001
40
0
40
0
40
0
40
1
40
1
40
1
10
14.826705156808934
20
5.2154607710831939
30
0
10
14.977455734258733
20
5.0831278798573791
30
0
10
15.007469057088933
20
4.8498400685780823
30
0
0
SPLINE
5
167
100
AcDbEntity
8
0
100
AcDbSpline
70
0
71
2
72
6
73
3
74
0
42
0.000000001
43
0.0000000001
44
0.0000000001
40
0
40
0
40
0
40
1
40
1
40
1
10
14.004740714078984
20
3.9876299736493404
30
0
10
14.004740714078984
20
3.8607541856759364
30
0
10
14.058628677373967
20
3.7447923061841304
30
0
0
SPLINE
5
168
100
AcDbEntity
8
0
100
AcDbSpline
70
0
71
2
72
6
73
3
74
0
42
0.000000001
43
0.0000000001
44
0.0000000001
40
0
40
0
40
0
40
1
40
1
40
1
10
14.058628677373967
20
3.7447923061841304
30
0
10
14.112516938692174
20
3.6288304266923244
30
0
10
14.209379254823766
20
3.5681210098260219
30
0
0
SPLINE
5
169
100
AcDbEntity
8
0
100
AcDbSpline
70
0
71
2
72
6
73
3
74
0
42
0.000000001
43
0.0000000001
44
0.0000000001
40
0
40
0
40
0
40
1
40
1
40
1
10
14.209379254823766
20
3.5681210098260219
30
0
10
14.306241272932134
20
3.5074115929597194
30
0
10
14.412653445249639
20
3.5074115929597194
30
0
0
SPLINE
5
170
100
AcDbEntity
8
0
100
AcDbSpline
70
0
71
2
72
6
73
3
74
0
42
0.000000001
43
0.0000000001
44
0.0000000001
40
0
40
0
40
0
40
1
40
1
40
1
10
14.412653445249639
20
3.5074115929597194
30
0
10
14.56817865276917
20
3.5074115929597194
30
0
10
14.680047630315862
20
3.6329231796258266
30
0
0
SPLINE
5
171
100
AcDbEntity
8
0
100
AcDbSpline
70
0
71
2
72
6
73
3
74
0
42
0.000000001
43
0.0000000001
44
0.0000000001
40
0
40
0
40
0
40
1
40
1
40
1
10
14.680047630315862
20
3.6329231796258266
30
0
10
14.791916607862554
20
3.7584349153035457
30
0
10
14.791916607862554
20
3.9739873645299251
30
0
0
SPLINE
5
172
100
AcDbEntity
8
0
100
AcDbSpline
70
0
71
2
72
6
73
3
74
0
42
0.000000001
43
0.0000000001
44
0.0000000001
40
0
40
0
40
0
40
1
40
1
40
1
10
14.791916607862554
20
3.9739873645299251
30
0
10
14.791916607862554
20
4.1813543078893005
30
0
10
14.68141198063477
20
4.3007267651551544
30
0
0
SPLINE
5
173
100
AcDbEntity
8
0
100
AcDbSpline
70
0
71
2
72
6
73
3
74
0
42
0.000000001
43
0.0000000001
44
0.0000000001
40
0
40
0
40
0
40
1
40
1
40
1
10
14.68141198063477
20
4.3007267651551544
30
0
10
14.570907055383763
20
4.4200992224210083
30
0
10
14.403103589063726
20
4.4200992224210083
30
0
0
SPLINE
5
174
100
AcDbEntity
8
0
100
AcDbSpline
70
0
71
2
72
6
73
3
74
0
42
0.000000001
43
0.0000000001
44
0.0000000001
40
0
40
0
40
0
40
1
40
1
40
1
10
14.403103589063726
20
4.4200992224210083
30
0
10
14.236664175039373
20
4.4200992224210083
30
0
10
14.120702444559178
20
4.3007267651551544
30
0
0
SPLINE
5
175
100
AcDbEntity
8
0
100
AcDbSpline
70
0
71
2
72
6
73
3
74
0
42
0.000000001
43
0.0000000001
44
0.0000000001
40
0
40
0
40
0
40
1
40
1
40
1
10
14.120702444559178
20
4.3007267651551544
30
0
10
14.004740714078984
20
4.1813543078893005
30
0
10
14.004740714078984
20
3.9876299736493404
30
0
0
LINE
5
176
100
AcDbEntity
8
0
100
AcDbLine
10
15.128887890821538
20
2.7843556938165004
30
0
11
15.128887890821538
21
2.9617090163224513
31
0
0
LINE
5
177
100
AcDbEntity
8
0
100
AcDbLine
10
15.128887890821538
20
2.9617090163224513
30
0
11
16.756445764547429
21
2.9617090163224513
31
0
0
LINE
5
178
100
AcDbEntity
8
0
100
AcDbLine
10
16.756445764547429
20
2.9617090163224509
30
0
11
16.756445764547429
21
2.7843556938164999
31
0
0
LINE
5
179
100
AcDbEntity
8
0
100
AcDbLine
10
16.756445764547429
20
2.7843556938164999
30
0
11
15.128887890821538
21
2.7843556938164999
31
0
0
LINE
5
180
100
AcDbEntity
8
0
100
AcDbLine
10
16.805558799749456
20
3.9071388182633693
30
0
11
17.044304012304387
21
3.9398809907429988
31
0
0
SPLINE
5
181
100
AcDbEntity
8
0
100
AcDbSpline
70
0
71
2
72
6
73
3
74
0
42
0.000000001
43
0.0000000001
44
0.0000000001
40
0
40
0
40
0
40
1
40
1
40
1
10
17.044304012304387
20
3.9398809907429988
30
0
10
17.0538538684903
20
3.7106859323972041
30
0
10
17.130252121931157
20
3.6261020240777309
30
0
0
SPLINE
5
182
100
AcDbEntity
8
0
100
AcDbSpline
70
0
71
2
72
6
73
3
74
0
42
0.000000001
43
0.0000000001
44
0.0000000001
40
0
40
0
40
0
40
1
40
1
40
1
10
17.130252121931157
20
3.6261020240777309
30
0
10
17.206650375372014
20
3.5415181157582576
30
0
10
17.341711520200811
20
3.5415181157582576
30
0
0
SPLINE
5
183
100
AcDbEntity
8
0
100
AcDbSpline
70
0
71
2
72
6
73
3
74
0
42
0.000000001
43
0.0000000001
44
0.0000000001
40
0
40
0
40
0
40
1
40
1
40
1
10
17.341711520200811
20
3.5415181157582576
30
0
10
17.44130253697022
20
3.5415181157582576
30
0
10
17.513608335500798
20
3.587220722197848
30
0
0
SPLINE
5
184
100
AcDbEntity
8
0
100
AcDbSpline
70
0
71
2
72
6
73
3
74
0
42
0.000000001
43
0.0000000001
44
0.0000000001
40
0
40
0
40
0
40
1
40
1
40
1
10
17.513608335500798
20
3.587220722197848
30
0
10
17.585913537984929
20
3.6329231796258266
30
0
10
17.61319875622376
20
3.7113679585450465
30
0
0
SPLINE
5
185
100
AcDbEntity
8
0
100
AcDbSpline
70
0
71
2
72
6
73
3
74
0
42
0.000000001
43
0.0000000001
44
0.0000000001
40
0
40
0
40
0
40
1
40
1
40
1
10
17.61319875622376
20
3.7113679585450465
30
0
10
17.64048397446259
20
3.7898127374642665
30
0
10
17.64048397446259
20
3.9617091057294185
30
0
0
LINE
5
186
100
AcDbEntity
8
0
100
AcDbLine
10
17.64048397446259
20
3.9617091057294185
30
0
11
17.64048397446259
21
5.3396081564420044
31
0
0
LINE
5
187
100
AcDbEntity
8
0
100
AcDbLine
10
17.64048397446259
20
5.3396081564420044
30
0
11
17.905149458890996
21
5.3396081564420044
31
0
0
LINE
5
188
100
AcDbEntity
8
0
100
AcDbLine
10
17.905149458890996
20
5.3396081564420044
30
0
11
17.905149458890996
21
3.9767159161561305
31
0
0
SPLINE
5
189
100
AcDbEntity
8
0
100
AcDbSpline
70
0
71
2
72
6
73
3
74
0
42
0.000000001
43
0.0000000001
44
0.0000000001
40
0
40
0
40
0
40
1
40
1
40
1
10
17.905149458890996
20
3.9767159161561301
30
0
10
17.905149458890996
20
3.7256927428239157
30
0
10
17.844440340047917
20
3.58790274834569
30
0
0
SPLINE
5
190
100
AcDbEntity
8
0
100
AcDbSpline
70
0
71
2
72
6
73
3
74
0
42
0.000000001
43
0.0000000001
44
0.0000000001
40
0
40
0
40
0
40
1
40
1
40
1
10
17.844440340047917
20
3.58790274834569
30
0
10
17.783731221204839
20
3.4501129028790762
30
0
10
17.652080058103643
20
3.37780725336011
30
0
0
SPLINE
5
191
100
AcDbEntity
8
0
100
AcDbSpline
70
0
71
2
72
6
73
3
74
0
42
0.000000001
43
0.0000000001
44
0.0000000001
40
0
40
0
40
0
40
1
40
1
40
1
10
17.652080058103643
20
3.37780725336011
30
0
10
17.520429491048894
20
3.3055017528527548
30
0
10
17.343075870519719
20
3.3055017528527548
30
0
0
SPLINE
5
192
100
AcDbEntity
8
0
100
AcDbSpline
70
0
71
2
72
6
73
3
74
0
42
0.000000001
43
0.0000000001
44
0.0000000001
40
0
40
0
40
0
40
1
40
1
40
1
10
17.343075870519719
20
3.3055017528527548
30
0
10
17.079774736410222
20
3.3055017528527548
30
0
10
16.939938067442021
20
3.4569342074387843
30
0
0
SPLINE
5
193
100
AcDbEntity
8
0
100
AcDbSpline
70
0
71
2
72
6
73
3
74
0
42
0.000000001
43
0.0000000001
44
0.0000000001
40
0
40
0
40
0
40
1
40
1
40
1
10
16.939938067442021
20
3.4569342074387843
30
0
10
16.800101994520269
20
3.6083666620248134
30
0
10
16.805558799749456
20
3.9071388182633693
30
0
0
LINE
5
194
100
AcDbEntity
8
0
100
AcDbLine
10
18.210743068700872
20
3.9398809907429984
30
0
11
18.210743068700872
21
4.1868114111417105
31
0
0
LINE
5
195
100
AcDbEntity
8
0
100
AcDbLine
10
18.210743068700872
20
4.1868114111417105
30
0
11
18.965176939016423
21
4.1868114111417105
31
0
0
LINE
5
196
100
AcDbEntity
8
0
100
AcDbLine
10
18.965176939016423
20
4.1868114111417105
30
0
11
18.965176939016423
21
3.9398809907429984
31
0
0
LINE
5
197
100
AcDbEntity
8
0
100
AcDbLine
10
18.965176939016423
20
3.9398809907429984
30
0
11
18.210743068700872
21
3.9398809907429984
31
0
0
LINE
5
198
100
AcDbEntity
8
0
100
AcDbLine
10
20.093417166715703
20
3.3396081266396811
30
0
11
19.847850798612676
21
3.3396081266396811
31
0
0
LINE
5
199
100
AcDbEntity
8
0
100
AcDbLine
10
19.847850798612676
20
3.3396081266396811
30
0
11
19.847850798612676
21
4.9044103560441306
31
0
0
SPLINE
5
200
100
AcDbEntity
8
0
100
AcDbSpline
70
0
71
2
72
6
73
3
74
0
42
0.000000001
43
0.0000000001
44
0.0000000001
40
0
40
0
40
0
40
1
40
1
40
1
10
19.847850798612676
20
4.9044103560441306
30
0
10
19.759174584394536
20
4.8198264477246573
30
0
10
19.615245460516057
20
4.735242539405184
30
0
0
SPLINE
5
201
100
AcDbEntity
8
0
100
AcDbSpline
70
0
71
2
72
6
73
3
74
0
42
0.000000001
43
0.0000000001
44
0.0000000001
40
0
40
0
40
0
40
1
40
1
40
1
10
19.615245460516057
20
4.735242539405184
30
0
10
19.471316336637578
20
4.6506586310857108
30
0
10
19.356718658453069
20
4.6083666024201682
30
0
0
LINE
5
202
100
AcDbEntity
8
0
100
AcDbLine
10
19.356718658453069
20
4.6083666024201682
30
0
11
19.356718658453069
21
4.8457473156445792
31
0
0
SPLINE
5
203
100
AcDbEntity
8
0
100
AcDbSpline
70
0
71
2
72
6
73
3
74
0
42
0.000000001
43
0.0000000001
44
0.0000000001
40
0
40
0
40
0
40
1
40
1
40
1
10
19.356718658453069
20
4.8457473156445792
30
0
10
19.562721251493535
20
4.942609482764559
30
0
10
19.716882108694158
20
5.0803993282311737
30
0
0
SPLINE
5
204
100
AcDbEntity
8
0
100
AcDbSpline
70
0
71
2
72
6
73
3
74
0
42
0.000000001
43
0.0000000001
44
0.0000000001
40
0
40
0
40
0
40
1
40
1
40
1
10
19.716882108694158
20
5.0803993282311737
30
0
10
19.871043561941228
20
5.2181893227093994
30
0
10
19.935163258558354
20
5.3477936623090088
30
0
0
LINE
5
205
100
AcDbEntity
8
0
100
AcDbLine
10
19.935163258558354
20
5.3477936623090088
30
0
11
20.093417166715703
21
5.3477936623090088
31
0
0
LINE
5
206
100
AcDbEntity
8
0
100
AcDbLine
10
20.093417166715703
20
5.3477936623090088
30
0
11
20.093417166715703
21
3.3396081266396815
31
0
0
ENDSEC
0
SECTION
2
OBJECTS
0
DICTIONARY
5
C
100
AcDbDictionary
3
ACAD_GROUP
350
D
3
ACAD_MLINESTYLE
350
17
0
DICTIONARY
5
D
100
AcDbDictionary
0
DICTIONARY
5
1A
330
C
100
AcDbDictionary
0
DICTIONARY
5
17
100
AcDbDictionary
0
ENDSEC
0
EOF
