  0
SECTION
  2
HEADER
  9
$ACADVER
  1
AC1009
  0
ENDSEC
  0
SECTION
  2
ENTITIES
  0
CIRCLE
  5
90
  8
Layer_1
  62
1
  10
297.62308
  20
271.40021
  30
0
  40
37.5
  0
CIRCLE
  5
90
  8
Layer_1
  62
1
  10
297.62308
  20
312.50021
  30
0
  40
1.5
  0
CIRCLE
  5
90
  8
Layer_1
  62
1
  10
256.52307
  20
271.40021
  30
0
  40
1.5
  0
CIRCLE
  5
90
  8
Layer_1
  62
1
  10
297.62308
  20
230.3002
  30
0
  40
1.5
  0
CIRCLE
  5
90
  8
Layer_1
  62
1
  10
338.72308
  20
271.40021
  30
0
  40
1.5
  0
CIRCLE
  5
90
  8
Layer_1
  62
1
  10
297.62308
  20
171.40021
  30
0
  40
12.5
  0
CIRCLE
  5
90
  8
Layer_1
  62
1
  10
242.62308
  20
316.40021
  30
0
  40
1.5
  0
CIRCLE
  5
90
  8
Layer_1
  62
1
  10
352.62308
  20
316.40021
  30
0
  40
1.5
  0
CIRCLE
  5
90
  8
Layer_1
  62
1
  10
242.62308
  20
146.40021
  30
0
  40
1.5
  0
CIRCLE
  5
90
  8
Layer_1
  62
1
  10
352.62308
  20
146.40021
  30
0
  40
1.5
  0
CIRCLE
  5
90
  8
Layer_1
  62
1
  10
280.62308
  20
206.90021
  30
0
  40
3.075
  0
CIRCLE
  5
90
  8
Layer_1
  62
1
  10
294.62308
  20
206.90021
  30
0
  40
3.075
  0
POLYLINE
  5
90
  8
Layer_1
  62
1
  66
1
  10
0
  20
0
  30
0
  0
VERTEX
  5
90
  8
Layer_1
  10
282.62308
  20
321.40021
  0
VERTEX
  5
91
  8
Layer_1
  10
282.62308
  20
330.40021
  0
VERTEX
  5
92
  8
Layer_1
  10
312.62308
  20
330.40021
  0
VERTEX
  5
93
  8
Layer_1
  10
312.62308
  20
321.40021
  0
VERTEX
  5
94
  8
Layer_1
  10
357.62308
  20
321.40021
  0
VERTEX
  5
95
  8
Layer_1
  10
357.62308
  20
291.40021
  0
VERTEX
  5
96
  8
Layer_1
  10
366.62308
  20
291.40021
  0
VERTEX
  5
97
  8
Layer_1
  10
366.62308
  20
261.40021
  0
VERTEX
  5
98
  8
Layer_1
  10
357.62308
  20
261.40021
  0
VERTEX
  5
99
  8
Layer_1
  10
357.62308
  20
201.40021
  0
VERTEX
  5
9a
  8
Layer_1
  10
366.62308
  20
201.40021
  0
VERTEX
  5
9b
  8
Layer_1
  10
366.62308
  20
171.40021
  0
VERTEX
  5
9c
  8
Layer_1
  10
357.62308
  20
171.40021
  0
VERTEX
  5
9d
  8
Layer_1
  10
357.62308
  20
141.40021
  0
VERTEX
  5
9e
  8
Layer_1
  10
312.62308
  20
141.40021
  0
VERTEX
  5
9f
  8
Layer_1
  10
312.62308
  20
132.40021
  0
VERTEX
  5
a0
  8
Layer_1
  10
282.62308
  20
132.40021
  0
VERTEX
  5
a1
  8
Layer_1
  10
282.62308
  20
141.40021
  0
VERTEX
  5
a2
  8
Layer_1
  10
237.62308
  20
141.40021
  0
VERTEX
  5
a3
  8
Layer_1
  10
237.62308
  20
171.40021
  0
VERTEX
  5
a4
  8
Layer_1
  10
228.62308
  20
171.40021
  0
VERTEX
  5
a5
  8
Layer_1
  10
228.62308
  20
201.40021
  0
VERTEX
  5
a6
  8
Layer_1
  10
237.62308
  20
201.40021
  0
VERTEX
  5
a7
  8
Layer_1
  10
237.62308
  20
261.40021
  0
VERTEX
  5
a8
  8
Layer_1
  10
228.62308
  20
261.40021
  0
VERTEX
  5
a9
  8
Layer_1
  10
228.62308
  20
291.40021
  0
VERTEX
  5
aa
  8
Layer_1
  10
237.62308
  20
291.40021
  0
VERTEX
  5
ab
  8
Layer_1
  10
237.62308
  20
321.40021
  0
VERTEX
  5
ac
  8
Layer_1
  10
282.62308
  20
321.40021
  0
SEQEND
  0
POLYLINE
  5
ae
  8
Layer_1
  62
1
  66
1
  10
0
  20
0
  30
0
  0
VERTEX
  5
ae
  8
Layer_1
  10
280.62308
  20
191.90021
  0
VERTEX
  5
af
  8
Layer_1
  10
280.62308
  20
181.90021
  42
0.41421356
  0
VERTEX
  5
b0
  8
Layer_1
  10
282.12308
  20
180.40021
  42
0.41421356
  0
VERTEX
  5
b1
  8
Layer_1
  10
283.62308
  20
181.90021
  0
VERTEX
  5
b2
  8
Layer_1
  10
283.62308
  20
191.90021
  42
0.41421356
  0
VERTEX
  5
b3
  8
Layer_1
  10
282.12308
  20
193.40021
  42
0.41421356
  0
VERTEX
  5
b4
  8
Layer_1
  10
280.62308
  20
191.90021
  0
SEQEND
  0
POLYLINE
  5
b6
  8
Layer_1
  62
1
  66
1
  10
0
  20
0
  30
0
  0
VERTEX
  5
b6
  8
Layer_1
  10
311.62308
  20
181.90021
  42
0.41421356
  0
VERTEX
  5
b7
  8
Layer_1
  10
313.12308
  20
180.40021
  42
0.41421356
  0
VERTEX
  5
b8
  8
Layer_1
  10
314.62308
  20
181.90021
  0
VERTEX
  5
b9
  8
Layer_1
  10
314.62308
  20
191.90021
  42
0.41421356
  0
VERTEX
  5
ba
  8
Layer_1
  10
313.12308
  20
193.40021
  42
0.41421356
  0
VERTEX
  5
bb
  8
Layer_1
  10
311.62308
  20
191.90021
  0
VERTEX
  5
bc
  8
Layer_1
  10
311.62308
  20
181.90021
  0
SEQEND
  0
POLYLINE
  5
be
  8
Layer_1
  62
1
  66
1
  10
0
  20
0
  30
0
  0
VERTEX
  5
be
  8
Layer_1
  10
283.62308
  20
150.90021
  0
VERTEX
  5
bf
  8
Layer_1
  10
283.62308
  20
160.90021
  42
0.41421356
  0
VERTEX
  5
c0
  8
Layer_1
  10
282.12308
  20
162.40021
  42
0.41421356
  0
VERTEX
  5
c1
  8
Layer_1
  10
280.62308
  20
160.90021
  0
VERTEX
  5
c2
  8
Layer_1
  10
280.62308
  20
150.90021
  42
0.41421356
  0
VERTEX
  5
c3
  8
Layer_1
  10
282.12308
  20
149.40021
  42
0.41421356
  0
VERTEX
  5
c4
  8
Layer_1
  10
283.62308
  20
150.90021
  0
SEQEND
  0
POLYLINE
  5
c6
  8
Layer_1
  62
1
  66
1
  10
0
  20
0
  30
0
  0
VERTEX
  5
c6
  8
Layer_1
  10
311.62308
  20
150.90021
  42
0.41421356
  0
VERTEX
  5
c7
  8
Layer_1
  10
313.12308
  20
149.40021
  42
0.41421356
  0
VERTEX
  5
c8
  8
Layer_1
  10
314.62308
  20
150.90021
  0
VERTEX
  5
c9
  8
Layer_1
  10
314.62308
  20
160.90021
  42
0.41421356
  0
VERTEX
  5
ca
  8
Layer_1
  10
313.12308
  20
162.40021
  42
0.41421356
  0
VERTEX
  5
cb
  8
Layer_1
  10
311.62308
  20
160.90021
  0
VERTEX
  5
cc
  8
Layer_1
  10
311.62308
  20
150.90021
  0
SEQEND
  0
POLYLINE
  5
ce
  8
Layer_0
  62
3
  66
1
  10
0
  20
0
  30
0
  0
VERTEX
  5
ce
  8
Layer_0
  10
248.18172
  20
154.20016
  0
VERTEX
  5
cf
  8
Layer_0
  10
248.19789
  20
154.18291
  42
0.20841323
  0
VERTEX
  5
d0
  8
Layer_0
  10
248.71036
  20
153.98871
  0
VERTEX
  5
d1
  8
Layer_0
  10
248.73099
  20
153.98891
  42
0.13894041
  0
VERTEX
  5
d2
  8
Layer_0
  10
249.14011
  20
154.10297
  0
VERTEX
  5
d3
  8
Layer_0
  10
249.15497
  20
154.11263
  42
0.16721022
  0
VERTEX
  5
d4
  8
Layer_0
  10
249.38908
  20
154.41333
  42
0.076111388
  0
VERTEX
  5
d5
  8
Layer_0
  10
249.45729
  20
155.03918
  0
VERTEX
  5
d6
  8
Layer_0
  10
249.45729
  20
158.48393
  0
VERTEX
  5
d7
  8
Layer_0
  10
250.11896
  20
158.48393
  0
VERTEX
  5
d8
  8
Layer_0
  10
250.11896
  20
155.07671
  42
-0.099831605
  0
VERTEX
  5
d9
  8
Layer_0
  10
249.96718
  20
154.10468
  42
-0.089575204
  0
VERTEX
  5
da
  8
Layer_0
  10
249.75073
  20
153.77953
  42
-0.075120175
  0
VERTEX
  5
db
  8
Layer_0
  10
249.48628
  20
153.57944
  0
VERTEX
  5
dc
  8
Layer_0
  10
249.45866
  20
153.56468
  42
-0.12090808
  0
VERTEX
  5
dd
  8
Layer_0
  10
248.71378
  20
153.39867
  0
VERTEX
  5
de
  8
Layer_0
  10
248.65945
  20
153.39932
  42
-0.20903268
  0
VERTEX
  5
df
  8
Layer_0
  10
247.70593
  20
153.77725
  0
VERTEX
  5
e0
  8
Layer_0
  10
247.67743
  20
153.80943
  42
-0.18200772
  0
VERTEX
  5
e1
  8
Layer_0
  10
247.36998
  20
154.90276
  0
VERTEX
  5
e2
  8
Layer_0
  10
247.96684
  20
154.98462
  0
VERTEX
  5
e3
  8
Layer_0
  10
247.96912
  20
154.9375
  42
0.16161081
  0
VERTEX
  5
e4
  8
Layer_0
  10
248.18172
  20
154.20016
  0
SEQEND
  0
POLYLINE
  5
e6
  8
Layer_0
  62
3
  66
1
  10
0
  20
0
  30
0
  0
VERTEX
  5
e6
  8
Layer_0
  10
252.06815
  20
156.97302
  0
VERTEX
  5
e7
  8
Layer_0
  10
252.03828
  20
156.95558
  42
-0.042571361
  0
VERTEX
  5
e8
  8
Layer_0
  10
251.42183
  20
156.65582
  0
VERTEX
  5
e9
  8
Layer_0
  10
251.42183
  20
157.24928
  0
VERTEX
  5
ea
  8
Layer_0
  10
251.50676
  20
157.29034
  42
0.067421582
  0
VERTEX
  5
eb
  8
Layer_0
  10
252.32224
  20
157.83591
  0
VERTEX
  5
ec
  8
Layer_0
  10
252.35396
  20
157.86458
  42
0.091957138
  0
VERTEX
  5
ed
  8
Layer_0
  10
252.86794
  20
158.50439
  0
VERTEX
  5
ee
  8
Layer_0
  10
253.26357
  20
158.50439
  0
VERTEX
  5
ef
  8
Layer_0
  10
253.26357
  20
153.48393
  0
VERTEX
  5
f0
  8
Layer_0
  10
252.64966
  20
153.48393
  0
VERTEX
  5
f1
  8
Layer_0
  10
252.64966
  20
157.39594
  0
VERTEX
  5
f2
  8
Layer_0
  10
252.63094
  20
157.37831
  42
-0.053518387
  0
VERTEX
  5
f3
  8
Layer_0
  10
252.06815
  20
156.97302
  0
SEQEND
  0
POLYLINE
  5
f5
  8
Layer_0
  62
3
  66
1
  10
0
  20
0
  30
0
  0
VERTEX
  5
f5
  8
Layer_0
  10
256.65375
  20
154.98462
  0
VERTEX
  5
f6
  8
Layer_0
  10
256.65375
  20
155.60194
  0
VERTEX
  5
f7
  8
Layer_0
  10
254.76767
  20
155.60194
  0
VERTEX
  5
f8
  8
Layer_0
  10
254.76767
  20
154.98462
  0
VERTEX
  5
f9
  8
Layer_0
  10
256.65375
  20
154.98462
  0
SEQEND
  0
POLYLINE
  5
fb
  8
Layer_0
  62
3
  66
1
  10
0
  20
0
  30
0
  0
VERTEX
  5
fb
  8
Layer_0
  10
258.19534
  20
154.40651
  42
-0.02456315
  0
VERTEX
  5
fc
  8
Layer_0
  10
258.81543
  20
154.96054
  0
VERTEX
  5
fd
  8
Layer_0
  10
258.90479
  20
155.03578
  42
0.032488139
  0
VERTEX
  5
fe
  8
Layer_0
  10
259.85123
  20
155.91573
  42
0.08056806
  0
VERTEX
  5
ff
  8
Layer_0
  10
260.25879
  20
156.52623
  42
0.10137272
  0
VERTEX
  5
100
  8
Layer_0
  10
260.38159
  20
157.11627
  42
0.21355379
  0
VERTEX
  5
101
  8
Layer_0
  10
259.96207
  20
158.10535
  42
0.19706882
  0
VERTEX
  5
102
  8
Layer_0
  10
258.82291
  20
158.50439
  42
0.18501511
  0
VERTEX
  5
103
  8
Layer_0
  10
257.68716
  20
158.13434
  42
0.19110669
  0
VERTEX
  5
104
  8
Layer_0
  10
257.20547
  20
157.11653
  0
VERTEX
  5
105
  8
Layer_0
  10
257.19946
  20
157.05829
  0
VERTEX
  5
106
  8
Layer_0
  10
257.83041
  20
156.99348
  42
-0.19097298
  0
VERTEX
  5
107
  8
Layer_0
  10
258.07816
  20
157.70766
  0
VERTEX
  5
108
  8
Layer_0
  10
258.09985
  20
157.73018
  42
-0.026451805
  0
VERTEX
  5
109
  8
Layer_0
  10
258.16913
  20
157.79253
  42
-0.175415
  0
VERTEX
  5
10a
  8
Layer_0
  10
258.80927
  20
157.99622
  42
-0.19957902
  0
VERTEX
  5
10b
  8
Layer_0
  10
259.48969
  20
157.74553
  42
-0.21208497
  0
VERTEX
  5
10c
  8
Layer_0
  10
259.75061
  20
157.12991
  42
-0.159655
  0
VERTEX
  5
10d
  8
Layer_0
  10
259.46411
  20
156.39151
  42
-0.056079261
  0
VERTEX
  5
10e
  8
Layer_0
  10
258.36249
  20
155.3325
  42
0.038029213
  0
VERTEX
  5
10f
  8
Layer_0
  10
257.60733
  20
154.63062
  0
VERTEX
  5
110
  8
Layer_0
  10
257.55927
  20
154.57533
  42
0.0824334
  0
VERTEX
  5
111
  8
Layer_0
  10
257.16589
  20
153.93839
  0
VERTEX
  5
112
  8
Layer_0
  10
257.15512
  20
153.91026
  42
0.092151763
  0
VERTEX
  5
113
  8
Layer_0
  10
257.08295
  20
153.52077
  0
VERTEX
  5
114
  8
Layer_0
  10
257.0835
  20
153.48393
  0
VERTEX
  5
115
  8
Layer_0
  10
260.3884
  20
153.48393
  0
VERTEX
  5
116
  8
Layer_0
  10
260.3884
  20
154.07397
  0
VERTEX
  5
117
  8
Layer_0
  10
257.93616
  20
154.07397
  42
-0.048760022
  0
VERTEX
  5
118
  8
Layer_0
  10
258.16959
  20
154.37894
  0
VERTEX
  5
119
  8
Layer_0
  10
258.19534
  20
154.40651
  0
SEQEND
  0
ENDSEC
  0
EOF
