  0
SECTION
  2
HEADER
  9
$ACADVER
  1
AC1009
  0
ENDSEC
  0
SECTION
  2
ENTITIES
  0
CIRCLE
  5
90
  8
Layer_1
  62
1
  10
195.98975
  20
152.9292
  30
0
  40
1.5
  0
CIRCLE
  5
90
  8
Layer_1
  62
1
  10
225.98975
  20
152.9292
  30
0
  40
1.5
  0
CIRCLE
  5
90
  8
Layer_1
  62
1
  10
195.98975
  20
322.9292
  30
0
  40
1.5
  0
CIRCLE
  5
90
  8
Layer_1
  62
1
  10
225.98975
  20
322.9292
  30
0
  40
1.5
  0
POLYLINE
  5
90
  8
Layer_1
  62
1
  66
1
  10
0
  20
0
  30
0
  0
VERTEX
  5
90
  8
Layer_1
  10
225.93974
  20
138.9292
  0
VERTEX
  5
91
  8
Layer_1
  10
225.93974
  20
147.9292
  0
VERTEX
  5
92
  8
Layer_1
  10
196.03975
  20
147.9292
  0
VERTEX
  5
93
  8
Layer_1
  10
196.03975
  20
138.9292
  0
VERTEX
  5
94
  8
Layer_1
  10
181.98975
  20
138.9292
  0
VERTEX
  5
95
  8
Layer_1
  10
181.98975
  20
177.9792
  0
VERTEX
  5
96
  8
Layer_1
  10
190.98975
  20
177.9792
  0
VERTEX
  5
97
  8
Layer_1
  10
190.98975
  20
207.8792
  0
VERTEX
  5
98
  8
Layer_1
  10
181.98975
  20
207.8792
  0
VERTEX
  5
99
  8
Layer_1
  10
181.98975
  20
267.9792
  0
VERTEX
  5
9a
  8
Layer_1
  10
190.98975
  20
267.9792
  0
VERTEX
  5
9b
  8
Layer_1
  10
190.98975
  20
297.8792
  0
VERTEX
  5
9c
  8
Layer_1
  10
181.98975
  20
297.8792
  0
VERTEX
  5
9d
  8
Layer_1
  10
181.98975
  20
336.9292
  0
VERTEX
  5
9e
  8
Layer_1
  10
196.03975
  20
336.9292
  0
VERTEX
  5
9f
  8
Layer_1
  10
196.03975
  20
327.9292
  0
VERTEX
  5
a0
  8
Layer_1
  10
225.93974
  20
327.9292
  0
VERTEX
  5
a1
  8
Layer_1
  10
225.93974
  20
336.9292
  0
VERTEX
  5
a2
  8
Layer_1
  10
239.98975
  20
336.9292
  0
VERTEX
  5
a3
  8
Layer_1
  10
239.98975
  20
297.8792
  0
VERTEX
  5
a4
  8
Layer_1
  10
230.98975
  20
297.8792
  0
VERTEX
  5
a5
  8
Layer_1
  10
230.98975
  20
267.9792
  0
VERTEX
  5
a6
  8
Layer_1
  10
239.98975
  20
267.9792
  0
VERTEX
  5
a7
  8
Layer_1
  10
239.98975
  20
207.8792
  0
VERTEX
  5
a8
  8
Layer_1
  10
230.98975
  20
207.8792
  0
VERTEX
  5
a9
  8
Layer_1
  10
230.98975
  20
177.9792
  0
VERTEX
  5
aa
  8
Layer_1
  10
239.98975
  20
177.9792
  0
VERTEX
  5
ab
  8
Layer_1
  10
239.98975
  20
138.9292
  0
VERTEX
  5
ac
  8
Layer_1
  10
225.93974
  20
138.9292
  0
SEQEND
  0
POLYLINE
  5
ae
  8
Layer_0
  62
3
  66
1
  10
0
  20
0
  30
0
  0
VERTEX
  5
ae
  8
Layer_0
  10
218.96573
  20
323.75444
  0
VERTEX
  5
af
  8
Layer_0
  10
218.94955
  20
323.7717
  0
VERTEX
  5
b0
  8
Layer_0
  10
218.93288
  20
323.78822
  42
0.19833977
  0
VERTEX
  5
b1
  8
Layer_0
  10
218.43707
  20
323.9659
  42
0.14378313
  0
VERTEX
  5
b2
  8
Layer_0
  10
218.00734
  20
323.85164
  42
0.1746894
  0
VERTEX
  5
b3
  8
Layer_0
  10
217.75836
  20
323.54128
  42
0.033514639
  0
VERTEX
  5
b4
  8
Layer_0
  10
217.72852
  20
323.42862
  42
0.04709186
  0
VERTEX
  5
b5
  8
Layer_0
  10
217.69016
  20
322.91542
  0
VERTEX
  5
b6
  8
Layer_0
  10
217.69016
  20
319.47067
  0
VERTEX
  5
b7
  8
Layer_0
  10
217.02849
  20
319.47067
  0
VERTEX
  5
b8
  8
Layer_0
  10
217.02849
  20
322.8779
  0
VERTEX
  5
b9
  8
Layer_0
  10
217.02875
  20
322.92972
  42
-0.098356367
  0
VERTEX
  5
ba
  8
Layer_0
  10
217.18027
  20
323.84995
  42
-0.16867567
  0
VERTEX
  5
bb
  8
Layer_0
  10
217.66116
  20
324.37518
  42
-0.12741866
  0
VERTEX
  5
bc
  8
Layer_0
  10
218.43367
  20
324.55594
  42
-0.21507372
  0
VERTEX
  5
bd
  8
Layer_0
  10
219.44151
  20
324.17735
  42
-0.19424782
  0
VERTEX
  5
be
  8
Layer_0
  10
219.77747
  20
323.05185
  0
VERTEX
  5
bf
  8
Layer_0
  10
219.1806
  20
322.96999
  42
0.1625489
  0
VERTEX
  5
c0
  8
Layer_0
  10
218.96573
  20
323.75444
  0
SEQEND
  0
POLYLINE
  5
c2
  8
Layer_0
  62
3
  66
1
  10
0
  20
0
  30
0
  0
VERTEX
  5
c2
  8
Layer_0
  10
215.0793
  20
320.98158
  42
-0.043696416
  0
VERTEX
  5
c3
  8
Layer_0
  10
215.72562
  20
321.29878
  0
VERTEX
  5
c4
  8
Layer_0
  10
215.72562
  20
320.70532
  42
0.072767894
  0
VERTEX
  5
c5
  8
Layer_0
  10
214.82521
  20
320.1187
  42
0.094183534
  0
VERTEX
  5
c6
  8
Layer_0
  10
214.27951
  20
319.45021
  0
VERTEX
  5
c7
  8
Layer_0
  10
213.88388
  20
319.45021
  0
VERTEX
  5
c8
  8
Layer_0
  10
213.88388
  20
324.47067
  0
VERTEX
  5
c9
  8
Layer_0
  10
214.49779
  20
324.47067
  0
VERTEX
  5
ca
  8
Layer_0
  10
214.49779
  20
320.55867
  42
-0.056699679
  0
VERTEX
  5
cb
  8
Layer_0
  10
215.0793
  20
320.98158
  0
SEQEND
  0
POLYLINE
  5
cd
  8
Layer_0
  62
3
  66
1
  10
0
  20
0
  30
0
  0
VERTEX
  5
cd
  8
Layer_0
  10
210.4937
  20
322.96999
  0
VERTEX
  5
ce
  8
Layer_0
  10
210.4937
  20
322.35266
  0
VERTEX
  5
cf
  8
Layer_0
  10
212.37978
  20
322.35266
  0
VERTEX
  5
d0
  8
Layer_0
  10
212.37978
  20
322.96999
  0
VERTEX
  5
d1
  8
Layer_0
  10
210.4937
  20
322.96999
  0
SEQEND
  0
POLYLINE
  5
d3
  8
Layer_0
  62
3
  66
1
  10
0
  20
0
  30
0
  0
VERTEX
  5
d3
  8
Layer_0
  10
207.1274
  20
321.33971
  42
0.14290477
  0
VERTEX
  5
d4
  8
Layer_0
  10
206.95375
  20
320.77657
  0
VERTEX
  5
d5
  8
Layer_0
  10
206.95345
  20
320.74966
  42
0.13306489
  0
VERTEX
  5
d6
  8
Layer_0
  10
207.12103
  20
320.13042
  0
VERTEX
  5
d7
  8
Layer_0
  10
207.13593
  20
320.10506
  42
0.13723214
  0
VERTEX
  5
d8
  8
Layer_0
  10
207.63445
  20
319.64072
  0
VERTEX
  5
d9
  8
Layer_0
  10
207.66287
  20
319.62585
  42
0.11525755
  0
VERTEX
  5
da
  8
Layer_0
  10
208.38263
  20
319.45052
  0
VERTEX
  5
db
  8
Layer_0
  10
208.41661
  20
319.45021
  42
0.16507958
  0
VERTEX
  5
dc
  8
Layer_0
  10
209.34125
  20
319.73537
  0
VERTEX
  5
dd
  8
Layer_0
  10
209.40912
  20
319.78957
  42
0.16531276
  0
VERTEX
  5
de
  8
Layer_0
  10
209.89996
  20
320.64529
  0
VERTEX
  5
df
  8
Layer_0
  10
209.92072
  20
320.74626
  0
VERTEX
  5
e0
  8
Layer_0
  10
209.30679
  20
320.85539
  42
-0.15847166
  0
VERTEX
  5
e1
  8
Layer_0
  10
209.01944
  20
320.19923
  0
VERTEX
  5
e2
  8
Layer_0
  10
208.99983
  20
320.18008
  42
-0.19019117
  0
VERTEX
  5
e3
  8
Layer_0
  10
208.43262
  20
319.95538
  0
VERTEX
  5
e4
  8
Layer_0
  10
208.40297
  20
319.95499
  42
-0.19128055
  0
VERTEX
  5
e5
  8
Layer_0
  10
207.83221
  20
320.15858
  0
VERTEX
  5
e6
  8
Layer_0
  10
207.81293
  20
320.17668
  42
-0.20233828
  0
VERTEX
  5
e7
  8
Layer_0
  10
207.58481
  20
320.70808
  0
VERTEX
  5
e8
  8
Layer_0
  10
207.58441
  20
320.73602
  42
-0.041965205
  0
VERTEX
  5
e9
  8
Layer_0
  10
207.59804
  20
320.90404
  42
-0.21698216
  0
VERTEX
  5
ea
  8
Layer_0
  10
207.89819
  20
321.36699
  42
-0.14832534
  0
VERTEX
  5
eb
  8
Layer_0
  10
208.6042
  20
321.57162
  42
-0.024525247
  0
VERTEX
  5
ec
  8
Layer_0
  10
208.70311
  20
321.5648
  0
VERTEX
  5
ed
  8
Layer_0
  10
208.77132
  20
322.10368
  42
-0.054302506
  0
VERTEX
  5
ee
  8
Layer_0
  10
208.36775
  20
322.03595
  0
VERTEX
  5
ef
  8
Layer_0
  10
208.33817
  20
322.03548
  42
-0.19526229
  0
VERTEX
  5
f0
  8
Layer_0
  10
207.65886
  20
322.28763
  0
VERTEX
  5
f1
  8
Layer_0
  10
207.63557
  20
322.31003
  42
-0.19892594
  0
VERTEX
  5
f2
  8
Layer_0
  10
207.3598
  20
322.97252
  0
VERTEX
  5
f3
  8
Layer_0
  10
207.35931
  20
323.00751
  42
-0.038210076
  0
VERTEX
  5
f4
  8
Layer_0
  10
207.37227
  20
323.18604
  42
-0.16337975
  0
VERTEX
  5
f5
  8
Layer_0
  10
207.65775
  20
323.75102
  42
-0.20724535
  0
VERTEX
  5
f6
  8
Layer_0
  10
208.38933
  20
324.05116
  42
-0.1920389
  0
VERTEX
  5
f7
  8
Layer_0
  10
209.00836
  20
323.82095
  42
-0.15718414
  0
VERTEX
  5
f8
  8
Layer_0
  10
209.36818
  20
323.06889
  0
VERTEX
  5
f9
  8
Layer_0
  10
209.9821
  20
323.15076
  42
0.19267401
  0
VERTEX
  5
fa
  8
Layer_0
  10
209.48586
  20
324.16713
  42
0.19104068
  0
VERTEX
  5
fb
  8
Layer_0
  10
208.39275
  20
324.55936
  42
0.19905421
  0
VERTEX
  5
fc
  8
Layer_0
  10
207.18538
  20
324.10403
  42
0.20410965
  0
VERTEX
  5
fd
  8
Layer_0
  10
206.70871
  20
323.0481
  0
VERTEX
  5
fe
  8
Layer_0
  10
206.70789
  20
322.99387
  42
0.15865059
  0
VERTEX
  5
ff
  8
Layer_0
  10
206.93341
  20
322.21439
  0
VERTEX
  5
100
  8
Layer_0
  10
206.95345
  20
322.18726
  42
0.17290944
  0
VERTEX
  5
101
  8
Layer_0
  10
207.60579
  20
321.77153
  0
VERTEX
  5
102
  8
Layer_0
  10
207.6424
  20
321.76262
  42
0.14281521
  0
VERTEX
  5
103
  8
Layer_0
  10
207.1274
  20
321.33971
  0
SEQEND
  0
ENDSEC
  0
EOF
