  0
SECTION
  2
HEADER
  9
$ACADVER
  1
AC1009
  0
ENDSEC
  0
SECTION
  2
ENTITIES
  0
CIRCLE
  5
90
  8
Layer_1
  62
1
  10
150.83325
  20
194.74452
  30
0
  40
1.5
  0
CIRCLE
  5
90
  8
Layer_1
  62
1
  10
180.83325
  20
194.74452
  30
0
  40
1.5
  0
CIRCLE
  5
90
  8
Layer_1
  62
1
  10
150.83325
  20
364.74451
  30
0
  40
1.5
  0
CIRCLE
  5
90
  8
Layer_1
  62
1
  10
180.83325
  20
364.74451
  30
0
  40
1.5
  0
POLYLINE
  5
90
  8
Layer_1
  62
1
  66
1
  10
0
  20
0
  30
0
  0
VERTEX
  5
90
  8
Layer_1
  10
180.78325
  20
180.74452
  0
VERTEX
  5
91
  8
Layer_1
  10
180.78325
  20
189.74452
  0
VERTEX
  5
92
  8
Layer_1
  10
150.88326
  20
189.74452
  0
VERTEX
  5
93
  8
Layer_1
  10
150.88326
  20
180.74452
  0
VERTEX
  5
94
  8
Layer_1
  10
136.83325
  20
180.74452
  0
VERTEX
  5
95
  8
Layer_1
  10
136.83325
  20
219.79453
  0
VERTEX
  5
96
  8
Layer_1
  10
145.83325
  20
219.79453
  0
VERTEX
  5
97
  8
Layer_1
  10
145.83325
  20
249.69452
  0
VERTEX
  5
98
  8
Layer_1
  10
136.83325
  20
249.69452
  0
VERTEX
  5
99
  8
Layer_1
  10
136.83325
  20
309.79453
  0
VERTEX
  5
9a
  8
Layer_1
  10
145.83325
  20
309.79453
  0
VERTEX
  5
9b
  8
Layer_1
  10
145.83325
  20
339.69452
  0
VERTEX
  5
9c
  8
Layer_1
  10
136.83325
  20
339.69452
  0
VERTEX
  5
9d
  8
Layer_1
  10
136.83325
  20
378.74452
  0
VERTEX
  5
9e
  8
Layer_1
  10
150.88326
  20
378.74452
  0
VERTEX
  5
9f
  8
Layer_1
  10
150.88326
  20
369.74452
  0
VERTEX
  5
a0
  8
Layer_1
  10
180.78325
  20
369.74452
  0
VERTEX
  5
a1
  8
Layer_1
  10
180.78325
  20
378.74452
  0
VERTEX
  5
a2
  8
Layer_1
  10
194.83325
  20
378.74452
  0
VERTEX
  5
a3
  8
Layer_1
  10
194.83325
  20
339.69452
  0
VERTEX
  5
a4
  8
Layer_1
  10
185.83325
  20
339.69452
  0
VERTEX
  5
a5
  8
Layer_1
  10
185.83325
  20
309.79453
  0
VERTEX
  5
a6
  8
Layer_1
  10
194.83325
  20
309.79453
  0
VERTEX
  5
a7
  8
Layer_1
  10
194.83325
  20
249.69452
  0
VERTEX
  5
a8
  8
Layer_1
  10
185.83325
  20
249.69452
  0
VERTEX
  5
a9
  8
Layer_1
  10
185.83325
  20
219.79453
  0
VERTEX
  5
aa
  8
Layer_1
  10
194.83325
  20
219.79453
  0
VERTEX
  5
ab
  8
Layer_1
  10
194.83325
  20
180.74452
  0
VERTEX
  5
ac
  8
Layer_1
  10
180.78325
  20
180.74452
  0
SEQEND
  0
POLYLINE
  5
ae
  8
Layer_0
  62
3
  66
1
  10
0
  20
0
  30
0
  0
VERTEX
  5
ae
  8
Layer_0
  10
171.71252
  20
364.75281
  42
0.21986627
  0
VERTEX
  5
af
  8
Layer_0
  10
171.18376
  20
364.964
  42
0.14400337
  0
VERTEX
  5
b0
  8
Layer_0
  10
170.75409
  20
364.84952
  42
0.17460652
  0
VERTEX
  5
b1
  8
Layer_0
  10
170.50526
  20
364.53903
  42
0.033747154
  0
VERTEX
  5
b2
  8
Layer_0
  10
170.47548
  20
364.42635
  42
0.047523925
  0
VERTEX
  5
b3
  8
Layer_0
  10
170.43738
  20
363.91313
  0
VERTEX
  5
b4
  8
Layer_0
  10
170.43913
  20
360.46838
  0
VERTEX
  5
b5
  8
Layer_0
  10
169.77747
  20
360.46805
  0
VERTEX
  5
b6
  8
Layer_0
  10
169.77573
  20
363.87527
  0
VERTEX
  5
b7
  8
Layer_0
  10
169.77597
  20
363.92709
  42
-0.098341908
  0
VERTEX
  5
b8
  8
Layer_0
  10
169.927
  20
364.8474
  42
-0.16911549
  0
VERTEX
  5
b9
  8
Layer_0
  10
170.40764
  20
365.37288
  42
-0.1273855
  0
VERTEX
  5
ba
  8
Layer_0
  10
171.18005
  20
365.55403
  42
-0.21517413
  0
VERTEX
  5
bb
  8
Layer_0
  10
172.18808
  20
365.17596
  42
-0.19429265
  0
VERTEX
  5
bc
  8
Layer_0
  10
172.52461
  20
364.05063
  0
VERTEX
  5
bd
  8
Layer_0
  10
171.9278
  20
363.96848
  42
0.1624529
  0
VERTEX
  5
be
  8
Layer_0
  10
171.71252
  20
364.75281
  0
SEQEND
  0
POLYLINE
  5
c0
  8
Layer_0
  62
3
  66
1
  10
0
  20
0
  30
0
  0
VERTEX
  5
c0
  8
Layer_0
  10
167.82751
  20
361.97797
  42
-0.043781988
  0
VERTEX
  5
c1
  8
Layer_0
  10
168.47366
  20
362.29549
  0
VERTEX
  5
c2
  8
Layer_0
  10
168.47397
  20
361.70204
  42
0.072838071
  0
VERTEX
  5
c3
  8
Layer_0
  10
167.57387
  20
361.11494
  42
0.094267569
  0
VERTEX
  5
c4
  8
Layer_0
  10
167.0285
  20
360.44618
  0
VERTEX
  5
c5
  8
Layer_0
  10
166.63287
  20
360.44597
  0
VERTEX
  5
c6
  8
Layer_0
  10
166.63029
  20
365.46643
  0
VERTEX
  5
c7
  8
Layer_0
  10
167.24422
  20
365.46675
  0
VERTEX
  5
c8
  8
Layer_0
  10
167.24622
  20
361.55475
  42
-0.056813545
  0
VERTEX
  5
c9
  8
Layer_0
  10
167.82751
  20
361.97797
  0
SEQEND
  0
POLYLINE
  5
cb
  8
Layer_0
  62
3
  66
1
  10
0
  20
0
  30
0
  0
VERTEX
  5
cb
  8
Layer_0
  10
163.24121
  20
363.34669
  0
VERTEX
  5
cc
  8
Layer_0
  10
163.24089
  20
363.96402
  0
VERTEX
  5
cd
  8
Layer_0
  10
165.12698
  20
363.96498
  0
VERTEX
  5
ce
  8
Layer_0
  10
165.12729
  20
363.34766
  0
VERTEX
  5
cf
  8
Layer_0
  10
163.24121
  20
363.34669
  0
SEQEND
  0
POLYLINE
  5
d1
  8
Layer_0
  62
3
  66
1
  10
0
  20
0
  30
0
  0
VERTEX
  5
d1
  8
Layer_0
  10
160.1507
  20
364.26598
  0
VERTEX
  5
d2
  8
Layer_0
  10
160.15009
  20
365.46312
  0
VERTEX
  5
d3
  8
Layer_0
  10
160.76399
  20
365.46342
  0
VERTEX
  5
d4
  8
Layer_0
  10
160.76462
  20
364.2663
  0
VERTEX
  5
d5
  8
Layer_0
  10
162.93378
  20
364.26741
  0
VERTEX
  5
d6
  8
Layer_0
  10
162.93407
  20
363.70465
  0
VERTEX
  5
d7
  8
Layer_0
  10
160.65401
  20
360.46338
  0
VERTEX
  5
d8
  8
Layer_0
  10
160.15265
  20
360.46312
  0
VERTEX
  5
d9
  8
Layer_0
  10
160.15099
  20
363.70323
  0
VERTEX
  5
da
  8
Layer_0
  10
159.47568
  20
363.70288
  0
VERTEX
  5
db
  8
Layer_0
  10
159.47539
  20
364.26564
  0
VERTEX
  5
dc
  8
Layer_0
  10
160.1507
  20
364.26598
  0
SEQEND
  0
POLYLINE
  5
de
  8
Layer_0
  62
3
  66
1
  10
0
  20
0
  30
0
  0
VERTEX
  5
de
  8
Layer_0
  10
162.33038
  20
363.70435
  0
VERTEX
  5
df
  8
Layer_0
  10
160.76489
  20
363.70354
  0
VERTEX
  5
e0
  8
Layer_0
  10
160.76605
  20
361.44911
  0
VERTEX
  5
e1
  8
Layer_0
  10
162.33038
  20
363.70435
  0
SEQEND
  0
ENDSEC
  0
EOF
