  0
SECTION
  2
HEADER
  9
$ACADVER
  1
AC1009
  0
ENDSEC
  0
SECTION
  2
ENTITIES
  0
CIRCLE
  5
90
  8
Layer_1
  62
1
  10
300
  20
240
  30
0
  40
37.5
  0
CIRCLE
  5
90
  8
Layer_1
  62
1
  10
300
  20
281.10001
  30
0
  40
1.5
  0
CIRCLE
  5
90
  8
Layer_1
  62
1
  10
258.89999
  20
240
  30
0
  40
1.5
  0
CIRCLE
  5
90
  8
Layer_1
  62
1
  10
300
  20
198.89999
  30
0
  40
1.5
  0
CIRCLE
  5
90
  8
Layer_1
  62
1
  10
341.10001
  20
240
  30
0
  40
1.5
  0
CIRCLE
  5
90
  8
Layer_1
  62
1
  10
245
  20
285
  30
0
  40
1.5
  0
CIRCLE
  5
90
  8
Layer_1
  62
1
  10
355
  20
285
  30
0
  40
1.5
  0
CIRCLE
  5
90
  8
Layer_1
  62
1
  10
245
  20
115
  30
0
  40
1.5
  0
CIRCLE
  5
90
  8
Layer_1
  62
1
  10
355
  20
115
  30
0
  40
1.5
  0
POLYLINE
  5
90
  8
Layer_1
  62
1
  66
1
  10
0
  20
0
  30
0
  0
VERTEX
  5
90
  8
Layer_1
  10
285
  20
290
  0
VERTEX
  5
91
  8
Layer_1
  10
285
  20
299
  0
VERTEX
  5
92
  8
Layer_1
  10
315
  20
299
  0
VERTEX
  5
93
  8
Layer_1
  10
315
  20
290
  0
VERTEX
  5
94
  8
Layer_1
  10
360
  20
290
  0
VERTEX
  5
95
  8
Layer_1
  10
360
  20
260
  0
VERTEX
  5
96
  8
Layer_1
  10
369
  20
260
  0
VERTEX
  5
97
  8
Layer_1
  10
369
  20
230
  0
VERTEX
  5
98
  8
Layer_1
  10
360
  20
230
  0
VERTEX
  5
99
  8
Layer_1
  10
360
  20
170
  0
VERTEX
  5
9a
  8
Layer_1
  10
369
  20
170
  0
VERTEX
  5
9b
  8
Layer_1
  10
369
  20
140
  0
VERTEX
  5
9c
  8
Layer_1
  10
360
  20
140
  0
VERTEX
  5
9d
  8
Layer_1
  10
360
  20
110
  0
VERTEX
  5
9e
  8
Layer_1
  10
315
  20
110
  0
VERTEX
  5
9f
  8
Layer_1
  10
315
  20
101
  0
VERTEX
  5
a0
  8
Layer_1
  10
285
  20
101
  0
VERTEX
  5
a1
  8
Layer_1
  10
285
  20
110
  0
VERTEX
  5
a2
  8
Layer_1
  10
240
  20
110
  0
VERTEX
  5
a3
  8
Layer_1
  10
240
  20
140
  0
VERTEX
  5
a4
  8
Layer_1
  10
231
  20
140
  0
VERTEX
  5
a5
  8
Layer_1
  10
231
  20
170
  0
VERTEX
  5
a6
  8
Layer_1
  10
240
  20
170
  0
VERTEX
  5
a7
  8
Layer_1
  10
240
  20
230
  0
VERTEX
  5
a8
  8
Layer_1
  10
231
  20
230
  0
VERTEX
  5
a9
  8
Layer_1
  10
231
  20
260
  0
VERTEX
  5
aa
  8
Layer_1
  10
240
  20
260
  0
VERTEX
  5
ab
  8
Layer_1
  10
240
  20
290
  0
VERTEX
  5
ac
  8
Layer_1
  10
285
  20
290
  0
SEQEND
  0
POLYLINE
  5
ae
  8
Layer_0
  62
3
  66
1
  10
0
  20
0
  30
0
  0
VERTEX
  5
ae
  8
Layer_0
  10
250.45972
  20
121.38354
  0
VERTEX
  5
af
  8
Layer_0
  10
250.47588
  20
121.3663
  42
0.20840878
  0
VERTEX
  5
b0
  8
Layer_0
  10
250.98836
  20
121.17209
  0
VERTEX
  5
b1
  8
Layer_0
  10
251.00899
  20
121.1723
  42
0.13896008
  0
VERTEX
  5
b2
  8
Layer_0
  10
251.41811
  20
121.28635
  0
VERTEX
  5
b3
  8
Layer_0
  10
251.43297
  20
121.29602
  42
0.16720263
  0
VERTEX
  5
b4
  8
Layer_0
  10
251.66708
  20
121.59671
  42
0.076113695
  0
VERTEX
  5
b5
  8
Layer_0
  10
251.73529
  20
122.22256
  0
VERTEX
  5
b6
  8
Layer_0
  10
251.73529
  20
125.66733
  0
VERTEX
  5
b7
  8
Layer_0
  10
252.39696
  20
125.66733
  0
VERTEX
  5
b8
  8
Layer_0
  10
252.39696
  20
122.2601
  42
-0.099832838
  0
VERTEX
  5
b9
  8
Layer_0
  10
252.24518
  20
121.28806
  42
-0.10414126
  0
VERTEX
  5
ba
  8
Layer_0
  10
251.98619
  20
120.92142
  42
-0.060789379
  0
VERTEX
  5
bb
  8
Layer_0
  10
251.76428
  20
120.76282
  0
VERTEX
  5
bc
  8
Layer_0
  10
251.73666
  20
120.74808
  42
-0.12091819
  0
VERTEX
  5
bd
  8
Layer_0
  10
250.99178
  20
120.58206
  0
VERTEX
  5
be
  8
Layer_0
  10
250.93745
  20
120.5827
  42
-0.20903036
  0
VERTEX
  5
bf
  8
Layer_0
  10
249.98393
  20
120.96063
  0
VERTEX
  5
c0
  8
Layer_0
  10
249.95543
  20
120.99283
  42
-0.18200822
  0
VERTEX
  5
c1
  8
Layer_0
  10
249.64798
  20
122.08615
  0
VERTEX
  5
c2
  8
Layer_0
  10
250.24484
  20
122.168
  0
VERTEX
  5
c3
  8
Layer_0
  10
250.24712
  20
122.12088
  42
0.16161758
  0
VERTEX
  5
c4
  8
Layer_0
  10
250.45972
  20
121.38354
  0
SEQEND
  0
POLYLINE
  5
c6
  8
Layer_0
  62
3
  66
1
  10
0
  20
0
  30
0
  0
VERTEX
  5
c6
  8
Layer_0
  10
254.34613
  20
124.1564
  0
VERTEX
  5
c7
  8
Layer_0
  10
254.31628
  20
124.13898
  42
-0.042578285
  0
VERTEX
  5
c8
  8
Layer_0
  10
253.69981
  20
123.8392
  0
VERTEX
  5
c9
  8
Layer_0
  10
253.69981
  20
124.43268
  0
VERTEX
  5
ca
  8
Layer_0
  10
253.78476
  20
124.47372
  42
0.067420192
  0
VERTEX
  5
cb
  8
Layer_0
  10
254.60023
  20
125.01929
  0
VERTEX
  5
cc
  8
Layer_0
  10
254.63196
  20
125.04797
  42
0.091949506
  0
VERTEX
  5
cd
  8
Layer_0
  10
255.14594
  20
125.68777
  0
VERTEX
  5
ce
  8
Layer_0
  10
255.54156
  20
125.68777
  0
VERTEX
  5
cf
  8
Layer_0
  10
255.54156
  20
120.66733
  0
VERTEX
  5
d0
  8
Layer_0
  10
254.92766
  20
120.66733
  0
VERTEX
  5
d1
  8
Layer_0
  10
254.92766
  20
124.57932
  0
VERTEX
  5
d2
  8
Layer_0
  10
254.90894
  20
124.56171
  42
-0.053516728
  0
VERTEX
  5
d3
  8
Layer_0
  10
254.34613
  20
124.1564
  0
SEQEND
  0
POLYLINE
  5
d5
  8
Layer_0
  62
3
  66
1
  10
0
  20
0
  30
0
  0
VERTEX
  5
d5
  8
Layer_0
  10
258.93173
  20
122.168
  0
VERTEX
  5
d6
  8
Layer_0
  10
258.93173
  20
122.78534
  0
VERTEX
  5
d7
  8
Layer_0
  10
257.04565
  20
122.78534
  0
VERTEX
  5
d8
  8
Layer_0
  10
257.04565
  20
122.168
  0
VERTEX
  5
d9
  8
Layer_0
  10
258.93173
  20
122.168
  0
SEQEND
  0
POLYLINE
  5
db
  8
Layer_0
  62
3
  66
1
  10
0
  20
0
  30
0
  0
VERTEX
  5
db
  8
Layer_0
  10
260.55692
  20
124.1564
  0
VERTEX
  5
dc
  8
Layer_0
  10
260.52707
  20
124.13898
  42
-0.042565363
  0
VERTEX
  5
dd
  8
Layer_0
  10
259.91058
  20
123.8392
  0
VERTEX
  5
de
  8
Layer_0
  10
259.91058
  20
124.43268
  0
VERTEX
  5
df
  8
Layer_0
  10
259.99554
  20
124.47372
  42
0.067425635
  0
VERTEX
  5
e0
  8
Layer_0
  10
260.811
  20
125.01929
  42
0.094167812
  0
VERTEX
  5
e1
  8
Layer_0
  10
261.35672
  20
125.68777
  0
VERTEX
  5
e2
  8
Layer_0
  10
261.75235
  20
125.68777
  0
VERTEX
  5
e3
  8
Layer_0
  10
261.75235
  20
120.66733
  0
VERTEX
  5
e4
  8
Layer_0
  10
261.13843
  20
120.66733
  0
VERTEX
  5
e5
  8
Layer_0
  10
261.13843
  20
124.57932
  42
-0.037651761
  0
VERTEX
  5
e6
  8
Layer_0
  10
260.83279
  20
124.33261
  42
-0.019724485
  0
VERTEX
  5
e7
  8
Layer_0
  10
260.55692
  20
124.1564
  0
SEQEND
  0
ENDSEC
  0
EOF
