  0
SECTION
  2
HEADER
  9
$ACADVER
  1
AC1009
  0
ENDSEC
  0
SECTION
  2
ENTITIES
  0
CIRCLE
  5
90
  8
Layer_1
  62
1
  10
131.16032
  20
255.70782
  30
0
  40
1.5
  0
CIRCLE
  5
90
  8
Layer_1
  62
1
  10
131.16032
  20
225.70782
  30
0
  40
1.5
  0
CIRCLE
  5
90
  8
Layer_1
  62
1
  10
241.16032
  20
255.70782
  30
0
  40
1.5
  0
CIRCLE
  5
90
  8
Layer_1
  62
1
  10
241.16032
  20
225.70782
  30
0
  40
1.5
  0
POLYLINE
  5
90
  8
Layer_1
  62
1
  66
1
  10
0
  20
0
  30
0
  0
VERTEX
  5
90
  8
Layer_1
  10
171.21033
  20
211.70782
  0
VERTEX
  5
91
  8
Layer_1
  10
171.21033
  20
220.70782
  0
VERTEX
  5
92
  8
Layer_1
  10
201.11032
  20
220.70782
  0
VERTEX
  5
93
  8
Layer_1
  10
201.11032
  20
211.70782
  0
VERTEX
  5
94
  8
Layer_1
  10
246.16032
  20
211.70782
  0
VERTEX
  5
95
  8
Layer_1
  10
246.16032
  20
225.70782
  0
VERTEX
  5
96
  8
Layer_1
  10
255.16032
  20
225.70782
  0
VERTEX
  5
97
  8
Layer_1
  10
255.16032
  20
255.70782
  0
VERTEX
  5
98
  8
Layer_1
  10
246.16032
  20
255.70782
  0
VERTEX
  5
99
  8
Layer_1
  10
246.16032
  20
269.70782
  0
VERTEX
  5
9a
  8
Layer_1
  10
201.11032
  20
269.70782
  0
VERTEX
  5
9b
  8
Layer_1
  10
201.11032
  20
260.70782
  0
VERTEX
  5
9c
  8
Layer_1
  10
171.21033
  20
260.70782
  0
VERTEX
  5
9d
  8
Layer_1
  10
171.21033
  20
269.70782
  0
VERTEX
  5
9e
  8
Layer_1
  10
126.16032
  20
269.70782
  0
VERTEX
  5
9f
  8
Layer_1
  10
126.16032
  20
255.70782
  0
VERTEX
  5
a0
  8
Layer_1
  10
117.16032
  20
255.70782
  0
VERTEX
  5
a1
  8
Layer_1
  10
117.16032
  20
225.70782
  0
VERTEX
  5
a2
  8
Layer_1
  10
126.16032
  20
225.70782
  0
VERTEX
  5
a3
  8
Layer_1
  10
126.16032
  20
211.70782
  0
VERTEX
  5
a4
  8
Layer_1
  10
171.21033
  20
211.70782
  0
SEQEND
  0
POLYLINE
  5
a6
  8
Layer_0
  62
3
  66
1
  10
0
  20
0
  30
0
  0
VERTEX
  5
a6
  8
Layer_0
  10
225.95172
  20
217.29248
  0
VERTEX
  5
a7
  8
Layer_0
  10
225.96793
  20
217.27525
  42
0.20834832
  0
VERTEX
  5
a8
  8
Layer_0
  10
226.48076
  20
217.08202
  0
VERTEX
  5
a9
  8
Layer_0
  10
226.50139
  20
217.08226
  42
0.13901693
  0
VERTEX
  5
aa
  8
Layer_0
  10
226.91028
  20
217.1971
  42
0.17420348
  0
VERTEX
  5
ab
  8
Layer_0
  10
227.15868
  20
217.50793
  42
0.076117573
  0
VERTEX
  5
ac
  8
Layer_0
  10
227.22571
  20
218.13391
  0
VERTEX
  5
ad
  8
Layer_0
  10
227.21918
  20
221.57866
  0
VERTEX
  5
ae
  8
Layer_0
  10
227.88086
  20
221.57991
  0
VERTEX
  5
af
  8
Layer_0
  10
227.8873
  20
218.17268
  42
-0.099839531
  0
VERTEX
  5
b0
  8
Layer_0
  10
227.73737
  20
217.20036
  42
-0.16903501
  0
VERTEX
  5
b1
  8
Layer_0
  10
227.25745
  20
216.67421
  42
-0.10907641
  0
VERTEX
  5
b2
  8
Layer_0
  10
226.6299
  20
216.49728
  42
-0.017655344
  0
VERTEX
  5
b3
  8
Layer_0
  10
226.48529
  20
216.49199
  0
VERTEX
  5
b4
  8
Layer_0
  10
226.43097
  20
216.49254
  42
-0.20904337
  0
VERTEX
  5
b5
  8
Layer_0
  10
225.47673
  20
216.86867
  0
VERTEX
  5
b6
  8
Layer_0
  10
225.44817
  20
216.9008
  42
-0.18200704
  0
VERTEX
  5
b7
  8
Layer_0
  10
225.13864
  20
217.99353
  0
VERTEX
  5
b8
  8
Layer_0
  10
225.73535
  20
218.07652
  0
VERTEX
  5
b9
  8
Layer_0
  10
225.73773
  20
218.0294
  42
0.1616208
  0
VERTEX
  5
ba
  8
Layer_0
  10
225.95172
  20
217.29248
  0
SEQEND
  0
POLYLINE
  5
bc
  8
Layer_0
  62
3
  66
1
  10
0
  20
0
  30
0
  0
VERTEX
  5
bc
  8
Layer_0
  10
229.83289
  20
220.07268
  42
-0.043714359
  0
VERTEX
  5
bd
  8
Layer_0
  10
229.18716
  20
219.75427
  0
VERTEX
  5
be
  8
Layer_0
  10
229.18605
  20
220.34772
  42
0.072805878
  0
VERTEX
  5
bf
  8
Layer_0
  10
230.08534
  20
220.93605
  42
0.094182712
  0
VERTEX
  5
c0
  8
Layer_0
  10
230.62979
  20
221.60558
  0
VERTEX
  5
c1
  8
Layer_0
  10
231.02542
  20
221.60632
  0
VERTEX
  5
c2
  8
Layer_0
  10
231.03491
  20
216.58586
  0
VERTEX
  5
c3
  8
Layer_0
  10
230.42099
  20
216.5847
  0
VERTEX
  5
c4
  8
Layer_0
  10
230.4136
  20
220.4967
  42
-0.056787458
  0
VERTEX
  5
c5
  8
Layer_0
  10
229.83289
  20
220.07268
  0
SEQEND
  0
POLYLINE
  5
c7
  8
Layer_0
  62
3
  66
1
  10
0
  20
0
  30
0
  0
VERTEX
  5
c7
  8
Layer_0
  10
234.42224
  20
218.09296
  0
VERTEX
  5
c8
  8
Layer_0
  10
234.42108
  20
218.71028
  0
VERTEX
  5
c9
  8
Layer_0
  10
232.535
  20
218.70671
  0
VERTEX
  5
ca
  8
Layer_0
  10
232.53616
  20
218.08939
  0
VERTEX
  5
cb
  8
Layer_0
  10
234.42224
  20
218.09296
  0
SEQEND
  0
POLYLINE
  5
cd
  8
Layer_0
  62
3
  66
1
  10
0
  20
0
  30
0
  0
VERTEX
  5
cd
  8
Layer_0
  10
236.00963
  20
220.94044
  0
VERTEX
  5
ce
  8
Layer_0
  10
238.00485
  20
220.94421
  0
VERTEX
  5
cf
  8
Layer_0
  10
238.00375
  20
221.53084
  0
VERTEX
  5
d0
  8
Layer_0
  10
235.5174
  20
221.52614
  0
VERTEX
  5
d1
  8
Layer_0
  10
235.03793
  20
218.95702
  0
VERTEX
  5
d2
  8
Layer_0
  10
235.61447
  20
218.88307
  42
-0.12027064
  0
VERTEX
  5
d3
  8
Layer_0
  10
235.9693
  20
219.22197
  0
VERTEX
  5
d4
  8
Layer_0
  10
235.98898
  20
219.23337
  42
-0.11580211
  0
VERTEX
  5
d5
  8
Layer_0
  10
236.45093
  20
219.36687
  42
-0.014695039
  0
VERTEX
  5
d6
  8
Layer_0
  10
236.5242
  20
219.36911
  42
-0.20973991
  0
VERTEX
  5
d7
  8
Layer_0
  10
237.29729
  20
219.06702
  42
-0.2001549
  0
VERTEX
  5
d8
  8
Layer_0
  10
237.59387
  20
218.23878
  42
-0.19245822
  0
VERTEX
  5
d9
  8
Layer_0
  10
237.28859
  20
217.35144
  42
-0.21871589
  0
VERTEX
  5
da
  8
Layer_0
  10
236.53888
  20
217.01578
  42
-0.18394154
  0
VERTEX
  5
db
  8
Layer_0
  10
235.93115
  20
217.23233
  0
VERTEX
  5
dc
  8
Layer_0
  10
235.90918
  20
217.25163
  42
-0.16919467
  0
VERTEX
  5
dd
  8
Layer_0
  10
235.58167
  20
217.91991
  0
VERTEX
  5
de
  8
Layer_0
  10
235.57529
  20
217.95871
  0
VERTEX
  5
df
  8
Layer_0
  10
234.93079
  20
217.90292
  42
0.17700455
  0
VERTEX
  5
e0
  8
Layer_0
  10
235.35608
  20
216.95616
  0
VERTEX
  5
e1
  8
Layer_0
  10
235.42554
  20
216.8909
  42
0.18168469
  0
VERTEX
  5
e2
  8
Layer_0
  10
236.48343
  20
216.51157
  0
VERTEX
  5
e3
  8
Layer_0
  10
236.53984
  20
216.51102
  42
0.023914204
  0
VERTEX
  5
e4
  8
Layer_0
  10
236.74237
  20
216.52087
  42
0.21185915
  0
VERTEX
  5
e5
  8
Layer_0
  10
237.85178
  20
217.12059
  42
0.17474859
  0
VERTEX
  5
e6
  8
Layer_0
  10
238.24521
  20
218.2946
  42
0.20468938
  0
VERTEX
  5
e7
  8
Layer_0
  10
237.79279
  20
219.46017
  42
0.20736479
  0
VERTEX
  5
e8
  8
Layer_0
  10
236.68689
  20
219.9117
  42
0.15069937
  0
VERTEX
  5
e9
  8
Layer_0
  10
235.78027
  20
219.62181
  0
VERTEX
  5
ea
  8
Layer_0
  10
235.74274
  20
219.59615
  0
VERTEX
  5
eb
  8
Layer_0
  10
236.00963
  20
220.94044
  0
SEQEND
  0
ENDSEC
  0
EOF
