  0
SECTION
  2
HEADER
  9
$ACADVER
  1
AC1009
  0
ENDSEC
  0
SECTION
  2
ENTITIES
  0
CIRCLE
  5
90
  8
Layer_1
  62
1
  10
60.830963
  20
259.92218
  30
0
  40
1.5
  0
CIRCLE
  5
90
  8
Layer_1
  62
1
  10
60.830963
  20
229.9222
  30
0
  40
1.5
  0
CIRCLE
  5
90
  8
Layer_1
  62
1
  10
170.83096
  20
259.92218
  30
0
  40
1.5
  0
CIRCLE
  5
90
  8
Layer_1
  62
1
  10
170.83096
  20
229.9222
  30
0
  40
1.5
  0
POLYLINE
  5
90
  8
Layer_1
  62
1
  66
1
  10
0
  20
0
  30
0
  0
VERTEX
  5
90
  8
Layer_1
  10
100.88097
  20
215.9222
  0
VERTEX
  5
91
  8
Layer_1
  10
100.88097
  20
224.9222
  0
VERTEX
  5
92
  8
Layer_1
  10
130.78096
  20
224.9222
  0
VERTEX
  5
93
  8
Layer_1
  10
130.78096
  20
215.9222
  0
VERTEX
  5
94
  8
Layer_1
  10
175.83096
  20
215.9222
  0
VERTEX
  5
95
  8
Layer_1
  10
175.83096
  20
229.9222
  0
VERTEX
  5
96
  8
Layer_1
  10
184.83096
  20
229.9222
  0
VERTEX
  5
97
  8
Layer_1
  10
184.83096
  20
259.9222
  0
VERTEX
  5
98
  8
Layer_1
  10
175.83096
  20
259.9222
  0
VERTEX
  5
99
  8
Layer_1
  10
175.83096
  20
273.9222
  0
VERTEX
  5
9a
  8
Layer_1
  10
130.78096
  20
273.9222
  0
VERTEX
  5
9b
  8
Layer_1
  10
130.78096
  20
264.9222
  0
VERTEX
  5
9c
  8
Layer_1
  10
100.88097
  20
264.9222
  0
VERTEX
  5
9d
  8
Layer_1
  10
100.88097
  20
273.9222
  0
VERTEX
  5
9e
  8
Layer_1
  10
55.830963
  20
273.9222
  0
VERTEX
  5
9f
  8
Layer_1
  10
55.830963
  20
259.9222
  0
VERTEX
  5
a0
  8
Layer_1
  10
46.830963
  20
259.9222
  0
VERTEX
  5
a1
  8
Layer_1
  10
46.830963
  20
229.9222
  0
VERTEX
  5
a2
  8
Layer_1
  10
55.830963
  20
229.9222
  0
VERTEX
  5
a3
  8
Layer_1
  10
55.830963
  20
215.9222
  0
VERTEX
  5
a4
  8
Layer_1
  10
100.88097
  20
215.9222
  0
SEQEND
  0
POLYLINE
  5
a6
  8
Layer_0
  62
3
  66
1
  10
0
  20
0
  30
0
  0
VERTEX
  5
a6
  8
Layer_0
  10
157.92099
  20
219.804
  0
VERTEX
  5
a7
  8
Layer_0
  10
157.93719
  20
219.78676
  42
0.2084076
  0
VERTEX
  5
a8
  8
Layer_0
  10
158.44992
  20
219.5932
  42
0.14383595
  0
VERTEX
  5
a9
  8
Layer_0
  10
158.87952
  20
219.70801
  42
0.17413639
  0
VERTEX
  5
aa
  8
Layer_0
  10
159.1281
  20
220.01869
  42
0.076095481
  0
VERTEX
  5
ab
  8
Layer_0
  10
159.19553
  20
220.64462
  0
VERTEX
  5
ac
  8
Layer_0
  10
159.19116
  20
224.08937
  0
VERTEX
  5
ad
  8
Layer_0
  10
159.85281
  20
224.09021
  0
VERTEX
  5
ae
  8
Layer_0
  10
159.85713
  20
220.68298
  42
-0.099831665
  0
VERTEX
  5
af
  8
Layer_0
  10
159.70659
  20
219.71075
  42
-0.16899196
  0
VERTEX
  5
b0
  8
Layer_0
  10
159.22635
  20
219.18491
  42
-0.11359162
  0
VERTEX
  5
b1
  8
Layer_0
  10
158.56314
  20
219.00613
  42
-0.013115376
  0
VERTEX
  5
b2
  8
Layer_0
  10
158.45407
  20
219.00317
  0
VERTEX
  5
b3
  8
Layer_0
  10
158.39975
  20
219.00375
  42
-0.20903936
  0
VERTEX
  5
b4
  8
Layer_0
  10
157.44576
  20
219.38048
  0
VERTEX
  5
b5
  8
Layer_0
  10
157.41721
  20
219.41263
  42
-0.1820056
  0
VERTEX
  5
b6
  8
Layer_0
  10
157.10838
  20
220.50555
  0
VERTEX
  5
b7
  8
Layer_0
  10
157.70514
  20
220.58817
  0
VERTEX
  5
b8
  8
Layer_0
  10
157.70749
  20
220.54105
  42
0.16160512
  0
VERTEX
  5
b9
  8
Layer_0
  10
157.92099
  20
219.804
  0
SEQEND
  0
POLYLINE
  5
bb
  8
Layer_0
  62
3
  66
1
  10
0
  20
0
  30
0
  0
VERTEX
  5
bb
  8
Layer_0
  10
161.80391
  20
222.58177
  42
-0.043727344
  0
VERTEX
  5
bc
  8
Layer_0
  10
161.15799
  20
222.26376
  0
VERTEX
  5
bd
  8
Layer_0
  10
161.15726
  20
222.85721
  42
0.072812439
  0
VERTEX
  5
be
  8
Layer_0
  10
162.05692
  20
223.44498
  42
0.094174019
  0
VERTEX
  5
bf
  8
Layer_0
  10
162.60178
  20
224.11415
  0
VERTEX
  5
c0
  8
Layer_0
  10
162.99741
  20
224.11465
  0
VERTEX
  5
c1
  8
Layer_0
  10
163.00375
  20
219.09419
  0
VERTEX
  5
c2
  8
Layer_0
  10
162.38985
  20
219.09341
  0
VERTEX
  5
c3
  8
Layer_0
  10
162.38489
  20
223.00542
  42
-0.056796654
  0
VERTEX
  5
c4
  8
Layer_0
  10
161.80391
  20
222.58177
  0
SEQEND
  0
POLYLINE
  5
c6
  8
Layer_0
  62
3
  66
1
  10
0
  20
0
  30
0
  0
VERTEX
  5
c6
  8
Layer_0
  10
166.39203
  20
220.59917
  0
VERTEX
  5
c7
  8
Layer_0
  10
166.39125
  20
221.21649
  0
VERTEX
  5
c8
  8
Layer_0
  10
164.50517
  20
221.21411
  0
VERTEX
  5
c9
  8
Layer_0
  10
164.50595
  20
220.59679
  0
VERTEX
  5
ca
  8
Layer_0
  10
166.39203
  20
220.59917
  0
SEQEND
  0
POLYLINE
  5
cc
  8
Layer_0
  62
3
  66
1
  10
0
  20
0
  30
0
  0
VERTEX
  5
cc
  8
Layer_0
  10
168.02373
  20
222.18036
  0
VERTEX
  5
cd
  8
Layer_0
  10
168.05048
  20
222.19376
  42
-0.11525301
  0
VERTEX
  5
ce
  8
Layer_0
  10
168.69542
  20
222.34492
  42
-0.21302222
  0
VERTEX
  5
cf
  8
Layer_0
  10
169.74135
  20
221.89433
  42
-0.19880631
  0
VERTEX
  5
d0
  8
Layer_0
  10
170.17429
  20
220.72675
  42
-0.11828971
  0
VERTEX
  5
d1
  8
Layer_0
  10
169.97244
  20
219.85165
  42
-0.14348653
  0
VERTEX
  5
d2
  8
Layer_0
  10
169.41559
  20
219.23192
  42
-0.12848531
  0
VERTEX
  5
d3
  8
Layer_0
  10
168.68533
  20
219.01761
  42
-0.010164283
  0
VERTEX
  5
d4
  8
Layer_0
  10
168.61096
  20
219.01602
  0
VERTEX
  5
d5
  8
Layer_0
  10
168.5475
  20
219.01692
  42
-0.21951118
  0
VERTEX
  5
d6
  8
Layer_0
  10
167.35854
  20
219.5789
  0
VERTEX
  5
d7
  8
Layer_0
  10
167.31897
  20
219.62717
  42
-0.15067968
  0
VERTEX
  5
d8
  8
Layer_0
  10
166.87982
  20
221.12622
  42
-0.012430154
  0
VERTEX
  5
d9
  8
Layer_0
  10
166.87187
  20
221.4388
  0
VERTEX
  5
da
  8
Layer_0
  10
166.87265
  20
221.55821
  42
-0.13178915
  0
VERTEX
  5
db
  8
Layer_0
  10
167.27939
  20
223.37016
  42
-0.032339082
  0
VERTEX
  5
dc
  8
Layer_0
  10
167.40466
  20
223.54724
  0
VERTEX
  5
dd
  8
Layer_0
  10
167.44412
  20
223.59406
  42
-0.22517564
  0
VERTEX
  5
de
  8
Layer_0
  10
168.66248
  20
224.12183
  42
-0.18668759
  0
VERTEX
  5
df
  8
Layer_0
  10
169.62981
  20
223.79222
  42
-0.18730629
  0
VERTEX
  5
e0
  8
Layer_0
  10
170.08289
  20
222.87874
  0
VERTEX
  5
e1
  8
Layer_0
  10
169.47243
  20
222.83022
  42
0.12569464
  0
VERTEX
  5
e2
  8
Layer_0
  10
169.23984
  20
223.35516
  42
0.21405115
  0
VERTEX
  5
e3
  8
Layer_0
  10
168.6256
  20
223.617
  42
0.012456373
  0
VERTEX
  5
e4
  8
Layer_0
  10
168.57721
  20
223.61581
  42
0.15113722
  0
VERTEX
  5
e5
  8
Layer_0
  10
168.11079
  20
223.45264
  0
VERTEX
  5
e6
  8
Layer_0
  10
168.08688
  20
223.43466
  42
0.13228702
  0
VERTEX
  5
e7
  8
Layer_0
  10
167.65456
  20
222.83473
  0
VERTEX
  5
e8
  8
Layer_0
  10
167.6279
  20
222.76466
  42
0.078694232
  0
VERTEX
  5
e9
  8
Layer_0
  10
167.48207
  20
221.67831
  0
VERTEX
  5
ea
  8
Layer_0
  10
167.50069
  20
221.70618
  42
-0.12709618
  0
VERTEX
  5
eb
  8
Layer_0
  10
168.02373
  20
222.18036
  0
SEQEND
  0
POLYLINE
  5
ed
  8
Layer_0
  62
3
  66
1
  10
0
  20
0
  30
0
  0
VERTEX
  5
ed
  8
Layer_0
  10
169.26817
  20
219.83542
  42
0.18735722
  0
VERTEX
  5
ee
  8
Layer_0
  10
169.54677
  20
220.68843
  42
0.1927441
  0
VERTEX
  5
ef
  8
Layer_0
  10
169.26947
  20
221.50493
  42
0.21747451
  0
VERTEX
  5
f0
  8
Layer_0
  10
168.57333
  20
221.80247
  0
VERTEX
  5
f1
  8
Layer_0
  10
168.53888
  20
221.80191
  42
0.20167354
  0
VERTEX
  5
f2
  8
Layer_0
  10
167.86771
  20
221.50316
  0
VERTEX
  5
f3
  8
Layer_0
  10
167.84409
  20
221.47794
  42
0.1909844
  0
VERTEX
  5
f4
  8
Layer_0
  10
167.5788
  20
220.72005
  0
VERTEX
  5
f5
  8
Layer_0
  10
167.57906
  20
220.69366
  42
0.10571069
  0
VERTEX
  5
f6
  8
Layer_0
  10
167.71426
  20
220.11313
  0
VERTEX
  5
f7
  8
Layer_0
  10
167.72571
  20
220.08922
  42
0.14211986
  0
VERTEX
  5
f8
  8
Layer_0
  10
168.09171
  20
219.67192
  0
VERTEX
  5
f9
  8
Layer_0
  10
168.11194
  20
219.65956
  42
0.13790451
  0
VERTEX
  5
fa
  8
Layer_0
  10
168.60008
  20
219.5208
  42
0.22282871
  0
VERTEX
  5
fb
  8
Layer_0
  10
169.26817
  20
219.83542
  0
SEQEND
  0
ENDSEC
  0
EOF
