  0
SECTION
  2
HEADER
  9
$ACADVER
  1
AC1009
  0
ENDSEC
  0
SECTION
  2
ENTITIES
  0
CIRCLE
  5
90
  8
Layer_1
  62
1
  10
299.57913
  20
169.88864
  30
0
  40
1.5
  0
CIRCLE
  5
90
  8
Layer_1
  62
1
  10
299.57913
  20
214.88864
  30
0
  40
1.5
  0
CIRCLE
  5
90
  8
Layer_1
  62
1
  10
387.07913
  20
217.38864
  30
0
  40
1.5
  0
CIRCLE
  5
90
  8
Layer_1
  62
1
  10
387.07913
  20
167.38864
  30
0
  40
1.5
  0
CIRCLE
  5
90
  8
Layer_1
  62
1
  10
351.57913
  20
207.88864
  30
0
  40
1.5
  0
CIRCLE
  5
90
  8
Layer_1
  62
1
  10
351.57913
  20
176.88864
  30
0
  40
1.5
  0
CIRCLE
  5
90
  8
Layer_1
  62
1
  10
382.57913
  20
176.88864
  30
0
  40
1.5
  0
CIRCLE
  5
90
  8
Layer_1
  62
1
  10
382.57913
  20
207.88864
  30
0
  40
1.5
  0
CIRCLE
  5
90
  8
Layer_1
  62
1
  10
367.07913
  20
192.38864
  30
0
  40
7.5
  0
CIRCLE
  5
90
  8
Layer_1
  62
1
  10
224.57913
  20
169.88864
  30
0
  40
1.5
  0
CIRCLE
  5
90
  8
Layer_1
  62
1
  10
224.57913
  20
214.88864
  30
0
  40
1.5
  0
CIRCLE
  5
90
  8
Layer_1
  62
1
  10
245.62914
  20
192.38864
  30
0
  40
19.700001
  0
CIRCLE
  5
90
  8
Layer_1
  62
1
  10
245.62914
  20
216.38864
  30
0
  40
1.5
  0
CIRCLE
  5
90
  8
Layer_1
  62
1
  10
224.84451
  20
180.38864
  30
0
  40
1.5
  0
CIRCLE
  5
90
  8
Layer_1
  62
1
  10
266.41376
  20
180.38864
  30
0
  40
1.5
  0
CIRCLE
  5
90
  8
Layer_1
  62
1
  10
332.07913
  20
172.38864
  30
0
  40
5
  0
POLYLINE
  5
90
  8
Layer_1
  62
1
  66
1
  10
0
  20
0
  30
0
  0
VERTEX
  5
90
  8
Layer_1
  10
395.07913
  20
177.38864
  0
VERTEX
  5
91
  8
Layer_1
  10
395.07913
  20
207.38864
  0
VERTEX
  5
92
  8
Layer_1
  10
392.07913
  20
207.38864
  0
VERTEX
  5
93
  8
Layer_1
  10
392.07913
  20
222.38864
  0
VERTEX
  5
94
  8
Layer_1
  10
382.07913
  20
222.38864
  0
VERTEX
  5
95
  8
Layer_1
  10
382.07913
  20
225.38864
  0
VERTEX
  5
96
  8
Layer_1
  10
352.07913
  20
225.38864
  0
VERTEX
  5
97
  8
Layer_1
  10
352.07913
  20
222.38864
  0
VERTEX
  5
98
  8
Layer_1
  10
332.07913
  20
222.38864
  0
VERTEX
  5
99
  8
Layer_1
  10
332.07913
  20
225.38864
  0
VERTEX
  5
9a
  8
Layer_1
  10
302.07913
  20
225.38864
  0
VERTEX
  5
9b
  8
Layer_1
  10
302.07913
  20
222.38864
  0
VERTEX
  5
9c
  8
Layer_1
  10
292.07913
  20
222.38864
  0
VERTEX
  5
9d
  8
Layer_1
  10
269.57913
  20
222.38864
  0
VERTEX
  5
9e
  8
Layer_1
  10
269.57913
  20
225.38864
  0
VERTEX
  5
9f
  8
Layer_1
  10
239.57913
  20
225.38864
  0
VERTEX
  5
a0
  8
Layer_1
  10
239.57913
  20
222.38864
  0
VERTEX
  5
a1
  8
Layer_1
  10
217.07913
  20
222.38864
  0
VERTEX
  5
a2
  8
Layer_1
  10
217.07913
  20
207.38864
  0
VERTEX
  5
a3
  8
Layer_1
  10
214.07913
  20
207.38864
  0
VERTEX
  5
a4
  8
Layer_1
  10
214.07913
  20
177.38864
  0
VERTEX
  5
a5
  8
Layer_1
  10
217.07913
  20
177.38864
  0
VERTEX
  5
a6
  8
Layer_1
  10
217.07913
  20
162.38864
  0
VERTEX
  5
a7
  8
Layer_1
  10
239.57913
  20
162.38864
  0
VERTEX
  5
a8
  8
Layer_1
  10
239.57913
  20
159.38864
  0
VERTEX
  5
a9
  8
Layer_1
  10
269.57913
  20
159.38864
  0
VERTEX
  5
aa
  8
Layer_1
  10
269.57913
  20
162.38864
  0
VERTEX
  5
ab
  8
Layer_1
  10
292.07913
  20
162.38864
  0
VERTEX
  5
ac
  8
Layer_1
  10
302.07913
  20
162.38864
  0
VERTEX
  5
ad
  8
Layer_1
  10
302.07913
  20
159.38864
  0
VERTEX
  5
ae
  8
Layer_1
  10
332.07913
  20
159.38864
  0
VERTEX
  5
af
  8
Layer_1
  10
332.07913
  20
162.38864
  0
VERTEX
  5
b0
  8
Layer_1
  10
352.07913
  20
162.38864
  0
VERTEX
  5
b1
  8
Layer_1
  10
352.07913
  20
159.38864
  0
VERTEX
  5
b2
  8
Layer_1
  10
382.07913
  20
159.38864
  0
VERTEX
  5
b3
  8
Layer_1
  10
382.07913
  20
162.38864
  0
VERTEX
  5
b4
  8
Layer_1
  10
392.07913
  20
162.38864
  0
VERTEX
  5
b5
  8
Layer_1
  10
392.07913
  20
177.38864
  0
VERTEX
  5
b6
  8
Layer_1
  10
395.07913
  20
177.38864
  0
SEQEND
  0
POLYLINE
  5
b8
  8
Layer_1
  62
1
  66
1
  10
0
  20
0
  30
0
  0
VERTEX
  5
b8
  8
Layer_1
  10
392.07913
  20
177.38864
  0
VERTEX
  5
b9
  8
Layer_1
  10
392.07913
  20
162.38864
  0
VERTEX
  5
ba
  8
Layer_1
  10
382.07913
  20
162.38864
  0
SEQEND
  0
POLYLINE
  5
bc
  8
Layer_1
  62
1
  66
1
  10
0
  20
0
  30
0
  0
VERTEX
  5
bc
  8
Layer_1
  10
292.07913
  20
207.38864
  0
VERTEX
  5
bd
  8
Layer_1
  10
288.97913
  20
207.38864
  0
VERTEX
  5
be
  8
Layer_1
  10
288.97913
  20
177.38864
  0
VERTEX
  5
bf
  8
Layer_1
  10
292.07913
  20
177.38864
  0
SEQEND
  0
POLYLINE
  5
c1
  8
Layer_1
  62
1
  66
1
  10
0
  20
0
  30
0
  0
VERTEX
  5
c1
  8
Layer_1
  10
305.07913
  20
204.88864
  0
VERTEX
  5
c2
  8
Layer_1
  10
305.07913
  20
179.88864
  42
-0.41421356
  0
VERTEX
  5
c3
  8
Layer_1
  10
302.57913
  20
177.38864
  42
-0.41421356
  0
VERTEX
  5
c4
  8
Layer_1
  10
300.07913
  20
179.88864
  0
VERTEX
  5
c5
  8
Layer_1
  10
300.07913
  20
204.88864
  42
-0.41421356
  0
VERTEX
  5
c6
  8
Layer_1
  10
302.57913
  20
207.38864
  42
-0.41421356
  0
VERTEX
  5
c7
  8
Layer_1
  10
305.07913
  20
204.88864
  0
SEQEND
  0
POLYLINE
  5
c9
  8
Layer_0
  62
3
  66
1
  10
0
  20
0
  30
0
  0
VERTEX
  5
c9
  8
Layer_0
  10
363.8454
  20
217.33911
  0
VERTEX
  5
ca
  8
Layer_0
  10
363.8551
  20
217.32877
  42
0.20850841
  0
VERTEX
  5
cb
  8
Layer_0
  10
364.1626
  20
217.21223
  0
VERTEX
  5
cc
  8
Layer_0
  10
364.18719
  20
217.21271
  42
0.13379299
  0
VERTEX
  5
cd
  8
Layer_0
  10
364.42044
  20
217.28079
  42
0.17540274
  0
VERTEX
  5
ce
  8
Layer_0
  10
364.56982
  20
217.46701
  42
0.076252932
  0
VERTEX
  5
cf
  8
Layer_0
  10
364.61075
  20
217.84253
  0
VERTEX
  5
d0
  8
Layer_0
  10
364.61075
  20
219.90936
  0
VERTEX
  5
d1
  8
Layer_0
  10
365.00775
  20
219.90936
  0
VERTEX
  5
d2
  8
Layer_0
  10
365.00775
  20
217.86504
  42
-0.099690553
  0
VERTEX
  5
d3
  8
Layer_0
  10
364.91669
  20
217.28181
  42
-0.12577512
  0
VERTEX
  5
d4
  8
Layer_0
  10
364.72025
  20
217.02704
  42
-0.038165
  0
VERTEX
  5
d5
  8
Layer_0
  10
364.62814
  20
216.96667
  0
VERTEX
  5
d6
  8
Layer_0
  10
364.61157
  20
216.95782
  42
-0.12081209
  0
VERTEX
  5
d7
  8
Layer_0
  10
364.16464
  20
216.85822
  0
VERTEX
  5
d8
  8
Layer_0
  10
364.13205
  20
216.85861
  42
-0.20903142
  0
VERTEX
  5
d9
  8
Layer_0
  10
363.55994
  20
217.08536
  0
VERTEX
  5
da
  8
Layer_0
  10
363.54285
  20
217.10468
  42
-0.18185603
  0
VERTEX
  5
db
  8
Layer_0
  10
363.35837
  20
217.76067
  0
VERTEX
  5
dc
  8
Layer_0
  10
363.71649
  20
217.80978
  0
VERTEX
  5
dd
  8
Layer_0
  10
363.71783
  20
217.78151
  42
0.16175629
  0
VERTEX
  5
de
  8
Layer_0
  10
363.8454
  20
217.33911
  0
SEQEND
  0
POLYLINE
  5
e0
  8
Layer_0
  62
3
  66
1
  10
0
  20
0
  30
0
  0
VERTEX
  5
e0
  8
Layer_0
  10
366.15784
  20
219.51646
  0
VERTEX
  5
e1
  8
Layer_0
  10
367.35495
  20
219.51646
  0
VERTEX
  5
e2
  8
Layer_0
  10
367.35495
  20
219.86844
  0
VERTEX
  5
e3
  8
Layer_0
  10
365.86316
  20
219.86844
  0
VERTEX
  5
e4
  8
Layer_0
  10
365.57257
  20
218.32751
  0
VERTEX
  5
e5
  8
Layer_0
  10
365.9184
  20
218.2825
  42
-0.093787981
  0
VERTEX
  5
e6
  8
Layer_0
  10
366.07571
  20
218.44882
  42
-0.023019131
  0
VERTEX
  5
e7
  8
Layer_0
  10
366.14349
  20
218.49225
  42
-0.13028916
  0
VERTEX
  5
e8
  8
Layer_0
  10
366.46478
  20
218.57309
  42
-0.21021067
  0
VERTEX
  5
e9
  8
Layer_0
  10
366.92828
  20
218.39096
  42
-0.20028447
  0
VERTEX
  5
ea
  8
Layer_0
  10
367.10529
  20
217.89368
  42
-0.19291575
  0
VERTEX
  5
eb
  8
Layer_0
  10
366.92111
  20
217.36162
  42
-0.20916212
  0
VERTEX
  5
ec
  8
Layer_0
  10
366.49295
  20
217.16142
  0
VERTEX
  5
ed
  8
Layer_0
  10
366.47092
  20
217.16107
  42
-0.18382929
  0
VERTEX
  5
ee
  8
Layer_0
  10
366.10651
  20
217.29169
  0
VERTEX
  5
ef
  8
Layer_0
  10
366.09335
  20
217.3033
  42
-0.16960033
  0
VERTEX
  5
f0
  8
Layer_0
  10
365.89761
  20
217.70464
  0
VERTEX
  5
f1
  8
Layer_0
  10
365.89383
  20
217.72792
  0
VERTEX
  5
f2
  8
Layer_0
  10
365.50708
  20
217.69519
  42
0.18638543
  0
VERTEX
  5
f3
  8
Layer_0
  10
365.78159
  20
217.10677
  0
VERTEX
  5
f4
  8
Layer_0
  10
365.80276
  20
217.0874
  42
0.18170355
  0
VERTEX
  5
f5
  8
Layer_0
  10
366.43707
  20
216.85861
  0
VERTEX
  5
f6
  8
Layer_0
  10
366.47092
  20
216.85822
  42
0.16321889
  0
VERTEX
  5
f7
  8
Layer_0
  10
367.07254
  20
217.04097
  42
0.066707215
  0
VERTEX
  5
f8
  8
Layer_0
  10
367.25879
  20
217.22247
  42
0.17473316
  0
VERTEX
  5
f9
  8
Layer_0
  10
367.49615
  20
217.92642
  42
0.20464722
  0
VERTEX
  5
fa
  8
Layer_0
  10
367.22604
  20
218.62628
  42
0.20749224
  0
VERTEX
  5
fb
  8
Layer_0
  10
366.56299
  20
218.89845
  42
0.156174
  0
VERTEX
  5
fc
  8
Layer_0
  10
365.99615
  20
218.71019
  0
VERTEX
  5
fd
  8
Layer_0
  10
366.15784
  20
219.51646
  0
SEQEND
  0
POLYLINE
  5
ff
  8
Layer_0
  62
3
  66
1
  10
0
  20
0
  30
0
  0
VERTEX
  5
ff
  8
Layer_0
  10
368.51321
  20
218.75726
  42
-0.12019968
  0
VERTEX
  5
100
  8
Layer_0
  10
368.91635
  20
218.85548
  42
-0.2131928
  0
VERTEX
  5
101
  8
Layer_0
  10
369.54358
  20
218.58434
  42
-0.19876794
  0
VERTEX
  5
102
  8
Layer_0
  10
369.80243
  20
217.88345
  42
-0.11806587
  0
VERTEX
  5
103
  8
Layer_0
  10
369.68066
  20
217.35855
  42
-0.12477995
  0
VERTEX
  5
104
  8
Layer_0
  10
369.39789
  20
217.02113
  42
-0.01799886
  0
VERTEX
  5
105
  8
Layer_0
  10
369.3461
  20
216.98714
  0
VERTEX
  5
106
  8
Layer_0
  10
369.32825
  20
216.97661
  42
-0.13220167
  0
VERTEX
  5
107
  8
Layer_0
  10
368.86316
  20
216.85822
  0
VERTEX
  5
108
  8
Layer_0
  10
368.82507
  20
216.8588
  42
-0.21968217
  0
VERTEX
  5
109
  8
Layer_0
  10
368.11212
  20
217.19688
  0
VERTEX
  5
10a
  8
Layer_0
  10
368.08841
  20
217.22588
  42
-0.16022756
  0
VERTEX
  5
10b
  8
Layer_0
  10
367.82153
  20
218.31319
  0
VERTEX
  5
10c
  8
Layer_0
  10
367.82208
  20
218.38484
  42
-0.16453835
  0
VERTEX
  5
10d
  8
Layer_0
  10
368.14282
  20
219.57785
  0
VERTEX
  5
10e
  8
Layer_0
  10
368.1665
  20
219.60591
  42
-0.2252113
  0
VERTEX
  5
10f
  8
Layer_0
  10
368.89795
  20
219.92165
  42
-0.18644287
  0
VERTEX
  5
110
  8
Layer_0
  10
369.47809
  20
219.72314
  42
-0.18716445
  0
VERTEX
  5
111
  8
Layer_0
  10
369.74924
  20
219.17471
  0
VERTEX
  5
112
  8
Layer_0
  10
369.38293
  20
219.14607
  42
0.12694573
  0
VERTEX
  5
113
  8
Layer_0
  10
369.24377
  20
219.46121
  42
0.21357325
  0
VERTEX
  5
114
  8
Layer_0
  10
368.87543
  20
219.61877
  42
0.16493461
  0
VERTEX
  5
115
  8
Layer_0
  10
368.56641
  20
219.52055
  0
VERTEX
  5
116
  8
Layer_0
  10
368.55206
  20
219.50978
  42
0.1321031
  0
VERTEX
  5
117
  8
Layer_0
  10
368.29221
  20
219.15016
  0
VERTEX
  5
118
  8
Layer_0
  10
368.284
  20
219.12952
  42
0.08464588
  0
VERTEX
  5
119
  8
Layer_0
  10
368.18784
  20
218.45644
  42
0.022170787
  0
VERTEX
  5
11a
  8
Layer_0
  10
368.21042
  20
218.48947
  0
VERTEX
  5
11b
  8
Layer_0
  10
368.22202
  20
218.50546
  42
-0.11696984
  0
VERTEX
  5
11c
  8
Layer_0
  10
368.51321
  20
218.75726
  0
SEQEND
  0
POLYLINE
  5
11e
  8
Layer_0
  62
3
  66
1
  10
0
  20
0
  30
0
  0
VERTEX
  5
11e
  8
Layer_0
  10
368.85699
  20
217.16107
  0
VERTEX
  5
11f
  8
Layer_0
  10
368.87634
  20
217.16141
  42
0.21279389
  0
VERTEX
  5
120
  8
Layer_0
  10
369.25809
  20
217.34933
  42
0.18769989
  0
VERTEX
  5
121
  8
Layer_0
  10
369.4259
  20
217.86093
  42
0.19229402
  0
VERTEX
  5
122
  8
Layer_0
  10
369.26013
  20
218.35104
  42
0.21859083
  0
VERTEX
  5
123
  8
Layer_0
  10
368.84268
  20
218.53011
  42
0.15539669
  0
VERTEX
  5
124
  8
Layer_0
  10
368.51077
  20
218.42938
  0
VERTEX
  5
125
  8
Layer_0
  10
368.49484
  20
218.41788
  42
0.039002006
  0
VERTEX
  5
126
  8
Layer_0
  10
368.41907
  20
218.35104
  0
VERTEX
  5
127
  8
Layer_0
  10
368.40488
  20
218.33594
  42
0.19150405
  0
VERTEX
  5
128
  8
Layer_0
  10
368.24512
  20
217.88141
  0
VERTEX
  5
129
  8
Layer_0
  10
368.2457
  20
217.84979
  42
0.10188458
  0
VERTEX
  5
12a
  8
Layer_0
  10
368.32596
  20
217.51715
  0
VERTEX
  5
12b
  8
Layer_0
  10
368.3399
  20
217.48874
  42
0.13774254
  0
VERTEX
  5
12c
  8
Layer_0
  10
368.55209
  20
217.25214
  0
VERTEX
  5
12d
  8
Layer_0
  10
368.57642
  20
217.23759
  42
0.13235328
  0
VERTEX
  5
12e
  8
Layer_0
  10
368.85699
  20
217.16107
  0
SEQEND
  0
POLYLINE
  5
130
  8
Layer_0
  62
3
  66
1
  10
0
  20
0
  30
0
  0
VERTEX
  5
130
  8
Layer_0
  10
372.37268
  20
216.07649
  0
VERTEX
  5
131
  8
Layer_0
  10
372.37268
  20
216.34253
  0
VERTEX
  5
132
  8
Layer_0
  10
369.93137
  20
216.34253
  0
VERTEX
  5
133
  8
Layer_0
  10
369.93137
  20
216.07649
  0
VERTEX
  5
134
  8
Layer_0
  10
372.37268
  20
216.07649
  0
SEQEND
  0
POLYLINE
  5
136
  8
Layer_0
  62
3
  66
1
  10
0
  20
0
  30
0
  0
VERTEX
  5
136
  8
Layer_0
  10
374.75162
  20
218.23338
  42
-0.16789846
  0
VERTEX
  5
137
  8
Layer_0
  10
374.89795
  20
217.77908
  42
-0.11657901
  0
VERTEX
  5
138
  8
Layer_0
  10
374.8089
  20
217.38721
  42
-0.1189515
  0
VERTEX
  5
139
  8
Layer_0
  10
374.58893
  20
217.10786
  0
VERTEX
  5
13a
  8
Layer_0
  10
374.56665
  20
217.09183
  42
-0.088531316
  0
VERTEX
  5
13b
  8
Layer_0
  10
374.2605
  20
216.9595
  0
VERTEX
  5
13c
  8
Layer_0
  10
374.22696
  20
216.95151
  42
-0.054026688
  0
VERTEX
  5
13d
  8
Layer_0
  10
373.77652
  20
216.90936
  0
VERTEX
  5
13e
  8
Layer_0
  10
372.63257
  20
216.90936
  0
VERTEX
  5
13f
  8
Layer_0
  10
372.63257
  20
219.90936
  0
VERTEX
  5
140
  8
Layer_0
  10
373.75809
  20
219.90936
  42
-0.10152058
  0
VERTEX
  5
141
  8
Layer_0
  10
374.3096
  20
219.8183
  0
VERTEX
  5
142
  8
Layer_0
  10
374.32675
  20
219.81055
  0
VERTEX
  5
143
  8
Layer_0
  10
374.3436
  20
219.80244
  42
-0.14215054
  0
VERTEX
  5
144
  8
Layer_0
  10
374.63498
  20
219.53795
  42
-0.14247108
  0
VERTEX
  5
145
  8
Layer_0
  10
374.75262
  20
219.14197
  42
-0.14089462
  0
VERTEX
  5
146
  8
Layer_0
  10
374.64825
  20
218.77977
  42
-0.10096946
  0
VERTEX
  5
147
  8
Layer_0
  10
374.46182
  20
218.5824
  42
-0.043011682
  0
VERTEX
  5
148
  8
Layer_0
  10
374.33313
  20
218.50555
  42
-0.16285976
  0
VERTEX
  5
149
  8
Layer_0
  10
374.75162
  20
218.23338
  0
SEQEND
  0
POLYLINE
  5
14b
  8
Layer_0
  62
3
  66
1
  10
0
  20
0
  30
0
  0
VERTEX
  5
14b
  8
Layer_0
  10
373.02957
  20
219.55534
  0
VERTEX
  5
14c
  8
Layer_0
  10
373.62918
  20
219.55534
  42
-0.067315259
  0
VERTEX
  5
14d
  8
Layer_0
  10
374.08551
  20
219.5134
  42
-0.18287135
  0
VERTEX
  5
14e
  8
Layer_0
  10
374.29016
  20
219.35786
  42
-0.14477292
  0
VERTEX
  5
14f
  8
Layer_0
  10
374.36179
  20
219.09491
  42
-0.160473
  0
VERTEX
  5
150
  8
Layer_0
  10
374.28503
  20
218.83298
  42
-0.15665704
  0
VERTEX
  5
151
  8
Layer_0
  10
374.0816
  20
218.6915
  0
VERTEX
  5
152
  8
Layer_0
  10
374.05688
  20
218.68359
  42
-0.065817156
  0
VERTEX
  5
153
  8
Layer_0
  10
373.70001
  20
218.64886
  0
VERTEX
  5
154
  8
Layer_0
  10
373.67828
  20
218.6488
  0
VERTEX
  5
155
  8
Layer_0
  10
373.02957
  20
218.6488
  0
VERTEX
  5
156
  8
Layer_0
  10
373.02957
  20
219.55534
  0
SEQEND
  0
POLYLINE
  5
158
  8
Layer_0
  62
3
  66
1
  10
0
  20
0
  30
0
  0
VERTEX
  5
158
  8
Layer_0
  10
373.02957
  20
218.29477
  0
VERTEX
  5
159
  8
Layer_0
  10
373.7233
  20
218.29477
  42
-0.075100275
  0
VERTEX
  5
15a
  8
Layer_0
  10
374.16226
  20
218.24463
  42
-0.16540789
  0
VERTEX
  5
15b
  8
Layer_0
  10
374.40067
  20
218.07069
  42
-0.15447473
  0
VERTEX
  5
15c
  8
Layer_0
  10
374.4866
  20
217.77908
  42
-0.12615436
  0
VERTEX
  5
15d
  8
Layer_0
  10
374.42725
  20
217.52635
  42
-0.13390023
  0
VERTEX
  5
15e
  8
Layer_0
  10
374.27582
  20
217.35957
  42
-0.089963941
  0
VERTEX
  5
15f
  8
Layer_0
  10
374.06918
  20
217.28204
  0
VERTEX
  5
160
  8
Layer_0
  10
374.04663
  20
217.27771
  42
-0.039609555
  0
VERTEX
  5
161
  8
Layer_0
  10
373.83746
  20
217.26379
  0
VERTEX
  5
162
  8
Layer_0
  10
373.77652
  20
217.2634
  0
VERTEX
  5
163
  8
Layer_0
  10
373.02957
  20
217.2634
  0
VERTEX
  5
164
  8
Layer_0
  10
373.02957
  20
218.29477
  0
SEQEND
  0
POLYLINE
  5
166
  8
Layer_0
  62
3
  66
1
  10
0
  20
0
  30
0
  0
VERTEX
  5
166
  8
Layer_0
  10
376.38565
  20
217.80978
  0
VERTEX
  5
167
  8
Layer_0
  10
376.38565
  20
218.18018
  0
VERTEX
  5
168
  8
Layer_0
  10
375.254
  20
218.18018
  0
VERTEX
  5
169
  8
Layer_0
  10
375.254
  20
217.80978
  0
VERTEX
  5
16a
  8
Layer_0
  10
376.38565
  20
217.80978
  0
SEQEND
  0
POLYLINE
  5
16c
  8
Layer_0
  62
3
  66
1
  10
0
  20
0
  30
0
  0
VERTEX
  5
16c
  8
Layer_0
  10
377.34131
  20
219.51646
  0
VERTEX
  5
16d
  8
Layer_0
  10
378.53845
  20
219.51646
  0
VERTEX
  5
16e
  8
Layer_0
  10
378.53845
  20
219.86844
  0
VERTEX
  5
16f
  8
Layer_0
  10
377.04663
  20
219.86844
  0
VERTEX
  5
170
  8
Layer_0
  10
376.75604
  20
218.32751
  0
VERTEX
  5
171
  8
Layer_0
  10
377.1019
  20
218.2825
  42
-0.11445955
  0
VERTEX
  5
172
  8
Layer_0
  10
377.30353
  20
218.47844
  0
VERTEX
  5
173
  8
Layer_0
  10
377.327
  20
218.49225
  42
-0.13066128
  0
VERTEX
  5
174
  8
Layer_0
  10
377.64825
  20
218.57309
  42
-0.21039403
  0
VERTEX
  5
175
  8
Layer_0
  10
378.11179
  20
218.39096
  42
-0.20075706
  0
VERTEX
  5
176
  8
Layer_0
  10
378.28879
  20
217.89368
  42
-0.19299505
  0
VERTEX
  5
177
  8
Layer_0
  10
378.10461
  20
217.36162
  42
-0.20951737
  0
VERTEX
  5
178
  8
Layer_0
  10
377.67645
  20
217.16142
  0
VERTEX
  5
179
  8
Layer_0
  10
377.65442
  20
217.16107
  42
-0.18320831
  0
VERTEX
  5
17a
  8
Layer_0
  10
377.29001
  20
217.29169
  0
VERTEX
  5
17b
  8
Layer_0
  10
377.27686
  20
217.3033
  42
-0.169023
  0
VERTEX
  5
17c
  8
Layer_0
  10
377.08112
  20
217.70464
  0
VERTEX
  5
17d
  8
Layer_0
  10
377.07733
  20
217.72792
  0
VERTEX
  5
17e
  8
Layer_0
  10
376.69055
  20
217.69519
  42
0.18646802
  0
VERTEX
  5
17f
  8
Layer_0
  10
376.96509
  20
217.10677
  0
VERTEX
  5
180
  8
Layer_0
  10
376.98627
  20
217.0874
  42
0.18165204
  0
VERTEX
  5
181
  8
Layer_0
  10
377.62057
  20
216.85861
  0
VERTEX
  5
182
  8
Layer_0
  10
377.65442
  20
216.85822
  42
0.15257163
  0
VERTEX
  5
183
  8
Layer_0
  10
378.2265
  20
217.02011
  42
0.076869364
  0
VERTEX
  5
184
  8
Layer_0
  10
378.44226
  20
217.22247
  42
0.17505813
  0
VERTEX
  5
185
  8
Layer_0
  10
378.67966
  20
217.92642
  42
0.20481869
  0
VERTEX
  5
186
  8
Layer_0
  10
378.40955
  20
218.62628
  42
0.20698517
  0
VERTEX
  5
187
  8
Layer_0
  10
377.74649
  20
218.89845
  42
0.15665948
  0
VERTEX
  5
188
  8
Layer_0
  10
377.17966
  20
218.71019
  0
VERTEX
  5
189
  8
Layer_0
  10
377.34131
  20
219.51646
  0
SEQEND
  0
POLYLINE
  5
18b
  8
Layer_1
  62
1
  66
1
  10
0
  20
0
  30
0
  0
VERTEX
  5
18b
  8
Layer_1
  10
292.07913
  20
207.38318
  0
VERTEX
  5
18c
  8
Layer_1
  10
292.07913
  20
177.38864
  0
SEQEND
  0
ENDSEC
  0
EOF
