  0
SECTION
  2
HEADER
  9
$ACADVER
  1
AC1009
  0
ENDSEC
  0
SECTION
  2
ENTITIES
  0
CIRCLE
  5
90
  8
Layer_1
  62
1
  10
170.25974
  20
211.04765
  30
0
  40
1.5
  0
CIRCLE
  5
90
  8
Layer_1
  62
1
  10
170.25974
  20
256.04767
  30
0
  40
1.5
  0
CIRCLE
  5
90
  8
Layer_1
  62
1
  10
255.25974
  20
256.04767
  30
0
  40
1.5
  0
CIRCLE
  5
90
  8
Layer_1
  62
1
  10
255.25974
  20
211.04765
  30
0
  40
1.5
  0
CIRCLE
  5
90
  8
Layer_1
  62
1
  10
222.25974
  20
249.04765
  30
0
  40
1.5
  0
CIRCLE
  5
90
  8
Layer_1
  62
1
  10
222.25974
  20
218.04765
  30
0
  40
1.5
  0
CIRCLE
  5
90
  8
Layer_1
  62
1
  10
253.25974
  20
218.04765
  30
0
  40
1.5
  0
CIRCLE
  5
90
  8
Layer_1
  62
1
  10
253.25974
  20
249.04765
  30
0
  40
1.5
  0
CIRCLE
  5
90
  8
Layer_1
  62
1
  10
237.75974
  20
233.54765
  30
0
  40
7.5
  0
CIRCLE
  5
90
  8
Layer_1
  62
1
  10
95.259735
  20
211.04765
  30
0
  40
1.5
  0
CIRCLE
  5
90
  8
Layer_1
  62
1
  10
95.259735
  20
256.04767
  30
0
  40
1.5
  0
CIRCLE
  5
90
  8
Layer_1
  62
1
  10
116.30974
  20
233.54765
  30
0
  40
19.700001
  0
CIRCLE
  5
90
  8
Layer_1
  62
1
  10
116.30974
  20
257.54767
  30
0
  40
1.5
  0
CIRCLE
  5
90
  8
Layer_1
  62
1
  10
95.525124
  20
221.54765
  30
0
  40
1.5
  0
CIRCLE
  5
90
  8
Layer_1
  62
1
  10
137.09435
  20
221.54765
  30
0
  40
1.5
  0
CIRCLE
  5
90
  8
Layer_1
  62
1
  10
202.75974
  20
213.54765
  30
0
  40
5
  0
POLYLINE
  5
90
  8
Layer_1
  62
1
  66
1
  10
0
  20
0
  30
0
  0
VERTEX
  5
90
  8
Layer_1
  10
162.75974
  20
203.54765
  0
VERTEX
  5
91
  8
Layer_1
  10
140.25974
  20
203.54765
  0
VERTEX
  5
92
  8
Layer_1
  10
140.25974
  20
200.54765
  0
VERTEX
  5
93
  8
Layer_1
  10
110.25974
  20
200.54765
  0
VERTEX
  5
94
  8
Layer_1
  10
110.25974
  20
203.54765
  0
VERTEX
  5
95
  8
Layer_1
  10
87.759735
  20
203.54765
  0
VERTEX
  5
96
  8
Layer_1
  10
87.759735
  20
218.54765
  0
VERTEX
  5
97
  8
Layer_1
  10
84.759735
  20
218.54765
  0
VERTEX
  5
98
  8
Layer_1
  10
84.759735
  20
248.54765
  0
VERTEX
  5
99
  8
Layer_1
  10
87.759735
  20
248.54765
  0
VERTEX
  5
9a
  8
Layer_1
  10
87.759735
  20
263.54765
  0
VERTEX
  5
9b
  8
Layer_1
  10
110.25974
  20
263.54765
  0
VERTEX
  5
9c
  8
Layer_1
  10
110.25974
  20
266.54765
  0
VERTEX
  5
9d
  8
Layer_1
  10
140.25974
  20
266.54765
  0
VERTEX
  5
9e
  8
Layer_1
  10
140.25974
  20
263.54765
  0
VERTEX
  5
9f
  8
Layer_1
  10
162.75974
  20
263.54765
  0
VERTEX
  5
a0
  8
Layer_1
  10
172.75974
  20
263.54765
  0
VERTEX
  5
a1
  8
Layer_1
  10
172.75974
  20
266.54765
  0
VERTEX
  5
a2
  8
Layer_1
  10
202.75974
  20
266.54765
  0
VERTEX
  5
a3
  8
Layer_1
  10
202.75974
  20
263.54765
  0
VERTEX
  5
a4
  8
Layer_1
  10
222.75974
  20
263.54765
  0
VERTEX
  5
a5
  8
Layer_1
  10
222.75974
  20
266.54765
  0
VERTEX
  5
a6
  8
Layer_1
  10
252.75974
  20
266.54765
  0
VERTEX
  5
a7
  8
Layer_1
  10
252.75974
  20
263.54765
  0
VERTEX
  5
a8
  8
Layer_1
  10
262.75974
  20
263.54765
  0
VERTEX
  5
a9
  8
Layer_1
  10
262.75974
  20
248.54765
  0
VERTEX
  5
aa
  8
Layer_1
  10
265.75974
  20
248.54765
  0
VERTEX
  5
ab
  8
Layer_1
  10
265.75974
  20
218.54765
  0
VERTEX
  5
ac
  8
Layer_1
  10
262.75974
  20
218.54765
  0
VERTEX
  5
ad
  8
Layer_1
  10
262.75974
  20
203.54765
  0
VERTEX
  5
ae
  8
Layer_1
  10
252.75974
  20
203.54765
  0
VERTEX
  5
af
  8
Layer_1
  10
252.75974
  20
200.54765
  0
VERTEX
  5
b0
  8
Layer_1
  10
222.75974
  20
200.54765
  0
VERTEX
  5
b1
  8
Layer_1
  10
222.75974
  20
203.54765
  0
VERTEX
  5
b2
  8
Layer_1
  10
202.75974
  20
203.54765
  0
VERTEX
  5
b3
  8
Layer_1
  10
202.75974
  20
200.54765
  0
VERTEX
  5
b4
  8
Layer_1
  10
172.75974
  20
200.54765
  0
VERTEX
  5
b5
  8
Layer_1
  10
172.75974
  20
203.54765
  0
VERTEX
  5
b6
  8
Layer_1
  10
162.75974
  20
203.54765
  0
SEQEND
  0
POLYLINE
  5
b8
  8
Layer_1
  62
1
  66
1
  10
0
  20
0
  30
0
  0
VERTEX
  5
b8
  8
Layer_1
  10
162.75974
  20
248.54765
  0
VERTEX
  5
b9
  8
Layer_1
  10
159.65973
  20
248.54765
  0
VERTEX
  5
ba
  8
Layer_1
  10
159.65973
  20
218.54765
  0
VERTEX
  5
bb
  8
Layer_1
  10
162.75974
  20
218.54765
  0
SEQEND
  0
POLYLINE
  5
bd
  8
Layer_1
  62
1
  66
1
  10
0
  20
0
  30
0
  0
VERTEX
  5
bd
  8
Layer_1
  10
175.75974
  20
246.04765
  0
VERTEX
  5
be
  8
Layer_1
  10
175.75974
  20
221.04765
  42
-0.41421356
  0
VERTEX
  5
bf
  8
Layer_1
  10
173.25974
  20
218.54765
  42
-0.41421356
  0
VERTEX
  5
c0
  8
Layer_1
  10
170.75974
  20
221.04765
  0
VERTEX
  5
c1
  8
Layer_1
  10
170.75974
  20
246.04765
  42
-0.41421356
  0
VERTEX
  5
c2
  8
Layer_1
  10
173.25974
  20
248.54765
  42
-0.41421356
  0
VERTEX
  5
c3
  8
Layer_1
  10
175.75974
  20
246.04765
  0
SEQEND
  0
POLYLINE
  5
c5
  8
Layer_1
  62
1
  66
1
  10
0
  20
0
  30
0
  0
VERTEX
  5
c5
  8
Layer_1
  10
162.75974
  20
248.54752
  0
VERTEX
  5
c6
  8
Layer_1
  10
162.75974
  20
218.54764
  0
SEQEND
  0
POLYLINE
  5
c8
  8
Layer_0
  62
3
  66
1
  10
0
  20
0
  30
0
  0
VERTEX
  5
c8
  8
Layer_0
  10
230.68314
  20
256.09448
  42
0.21942935
  0
VERTEX
  5
c9
  8
Layer_0
  10
231.00034
  20
255.96761
  42
0.14414044
  0
VERTEX
  5
ca
  8
Layer_0
  10
231.25818
  20
256.03616
  42
0.17540274
  0
VERTEX
  5
cb
  8
Layer_0
  10
231.40756
  20
256.22238
  42
0.076252932
  0
VERTEX
  5
cc
  8
Layer_0
  10
231.44849
  20
256.5979
  0
VERTEX
  5
cd
  8
Layer_0
  10
231.44849
  20
258.66473
  0
VERTEX
  5
ce
  8
Layer_0
  10
231.84549
  20
258.66473
  0
VERTEX
  5
cf
  8
Layer_0
  10
231.84549
  20
256.62041
  42
-0.099690553
  0
VERTEX
  5
d0
  8
Layer_0
  10
231.75443
  20
256.03719
  42
-0.16885037
  0
VERTEX
  5
d1
  8
Layer_0
  10
231.46588
  20
255.72205
  42
-0.12743172
  0
VERTEX
  5
d2
  8
Layer_0
  10
231.00238
  20
255.61359
  42
-0.21496162
  0
VERTEX
  5
d3
  8
Layer_0
  10
230.39767
  20
255.84073
  42
-0.19428865
  0
VERTEX
  5
d4
  8
Layer_0
  10
230.19611
  20
256.51604
  0
VERTEX
  5
d5
  8
Layer_0
  10
230.55423
  20
256.56516
  42
0.16217066
  0
VERTEX
  5
d6
  8
Layer_0
  10
230.68314
  20
256.09448
  0
SEQEND
  0
POLYLINE
  5
d8
  8
Layer_0
  62
3
  66
1
  10
0
  20
0
  30
0
  0
VERTEX
  5
d8
  8
Layer_0
  10
232.99556
  20
258.27184
  0
VERTEX
  5
d9
  8
Layer_0
  10
234.19269
  20
258.27184
  0
VERTEX
  5
da
  8
Layer_0
  10
234.19269
  20
258.62381
  0
VERTEX
  5
db
  8
Layer_0
  10
232.70088
  20
258.62381
  0
VERTEX
  5
dc
  8
Layer_0
  10
232.41029
  20
257.08289
  0
VERTEX
  5
dd
  8
Layer_0
  10
232.75613
  20
257.03787
  42
-0.12573326
  0
VERTEX
  5
de
  8
Layer_0
  10
232.98123
  20
257.24762
  42
-0.13028916
  0
VERTEX
  5
df
  8
Layer_0
  10
233.30252
  20
257.32846
  42
-0.21021067
  0
VERTEX
  5
e0
  8
Layer_0
  10
233.76602
  20
257.14633
  42
-0.20028447
  0
VERTEX
  5
e1
  8
Layer_0
  10
233.94304
  20
256.64905
  42
-0.19291575
  0
VERTEX
  5
e2
  8
Layer_0
  10
233.75885
  20
256.11699
  42
-0.21880184
  0
VERTEX
  5
e3
  8
Layer_0
  10
233.30865
  20
255.91644
  42
-0.1921616
  0
VERTEX
  5
e4
  8
Layer_0
  10
232.93109
  20
256.05867
  42
-0.17409003
  0
VERTEX
  5
e5
  8
Layer_0
  10
232.73157
  20
256.48329
  0
VERTEX
  5
e6
  8
Layer_0
  10
232.34482
  20
256.45056
  42
0.19557343
  0
VERTEX
  5
e7
  8
Layer_0
  10
232.6405
  20
255.84277
  42
0.18774799
  0
VERTEX
  5
e8
  8
Layer_0
  10
233.30865
  20
255.61359
  42
0.24017244
  0
VERTEX
  5
e9
  8
Layer_0
  10
234.09651
  20
255.97784
  42
0.17473316
  0
VERTEX
  5
ea
  8
Layer_0
  10
234.33389
  20
256.68179
  42
0.20464722
  0
VERTEX
  5
eb
  8
Layer_0
  10
234.06378
  20
257.38165
  42
0.20749224
  0
VERTEX
  5
ec
  8
Layer_0
  10
233.40074
  20
257.65382
  42
0.156174
  0
VERTEX
  5
ed
  8
Layer_0
  10
232.83389
  20
257.46556
  0
VERTEX
  5
ee
  8
Layer_0
  10
232.99556
  20
258.27184
  0
SEQEND
  0
POLYLINE
  5
f0
  8
Layer_0
  62
3
  66
1
  10
0
  20
0
  30
0
  0
VERTEX
  5
f0
  8
Layer_0
  10
235.35095
  20
257.51263
  42
-0.12019968
  0
VERTEX
  5
f1
  8
Layer_0
  10
235.75409
  20
257.61086
  42
-0.2131928
  0
VERTEX
  5
f2
  8
Layer_0
  10
236.3813
  20
257.33971
  42
-0.19876794
  0
VERTEX
  5
f3
  8
Layer_0
  10
236.64017
  20
256.63882
  42
-0.11806587
  0
VERTEX
  5
f4
  8
Layer_0
  10
236.5184
  20
256.11392
  42
-0.14333193
  0
VERTEX
  5
f5
  8
Layer_0
  10
236.18384
  20
255.74251
  0
VERTEX
  5
f6
  8
Layer_0
  10
236.16599
  20
255.73198
  42
-0.13220167
  0
VERTEX
  5
f7
  8
Layer_0
  10
235.70088
  20
255.61359
  42
-0.22864404
  0
VERTEX
  5
f8
  8
Layer_0
  10
234.94986
  20
255.95226
  0
VERTEX
  5
f9
  8
Layer_0
  10
234.92615
  20
255.98125
  42
-0.16022756
  0
VERTEX
  5
fa
  8
Layer_0
  10
234.65927
  20
257.06856
  0
VERTEX
  5
fb
  8
Layer_0
  10
234.65982
  20
257.14021
  42
-0.16453835
  0
VERTEX
  5
fc
  8
Layer_0
  10
234.98056
  20
258.33322
  42
-0.23582301
  0
VERTEX
  5
fd
  8
Layer_0
  10
235.73567
  20
258.67702
  42
-0.18644287
  0
VERTEX
  5
fe
  8
Layer_0
  10
236.31583
  20
258.47852
  42
-0.18716445
  0
VERTEX
  5
ff
  8
Layer_0
  10
236.58698
  20
257.93008
  0
VERTEX
  5
100
  8
Layer_0
  10
236.22067
  20
257.90144
  42
0.12694573
  0
VERTEX
  5
101
  8
Layer_0
  10
236.08151
  20
258.21658
  42
0.21357325
  0
VERTEX
  5
102
  8
Layer_0
  10
235.71317
  20
258.37415
  42
0.16493461
  0
VERTEX
  5
103
  8
Layer_0
  10
235.40414
  20
258.27592
  42
0.13986581
  0
VERTEX
  5
104
  8
Layer_0
  10
235.12994
  20
257.90553
  42
0.091192992
  0
VERTEX
  5
105
  8
Layer_0
  10
235.02557
  20
257.21181
  42
-0.1319659
  0
VERTEX
  5
106
  8
Layer_0
  10
235.35095
  20
257.51263
  0
SEQEND
  0
POLYLINE
  5
108
  8
Layer_0
  62
3
  66
1
  10
0
  20
0
  30
0
  0
VERTEX
  5
108
  8
Layer_0
  10
235.38983
  20
256.00751
  42
0.14302042
  0
VERTEX
  5
109
  8
Layer_0
  10
235.69473
  20
255.91644
  0
VERTEX
  5
10a
  8
Layer_0
  10
235.71407
  20
255.91678
  42
0.21279389
  0
VERTEX
  5
10b
  8
Layer_0
  10
236.09583
  20
256.10471
  42
0.18769989
  0
VERTEX
  5
10c
  8
Layer_0
  10
236.26364
  20
256.6163
  42
0.19229402
  0
VERTEX
  5
10d
  8
Layer_0
  10
236.09787
  20
257.10641
  42
0.21859083
  0
VERTEX
  5
10e
  8
Layer_0
  10
235.68042
  20
257.28548
  42
0.20956779
  0
VERTEX
  5
10f
  8
Layer_0
  10
235.25681
  20
257.10641
  42
0.2012545
  0
VERTEX
  5
110
  8
Layer_0
  10
235.08287
  20
256.63678
  42
0.11048359
  0
VERTEX
  5
111
  8
Layer_0
  10
235.1637
  20
256.27252
  42
0.14808129
  0
VERTEX
  5
112
  8
Layer_0
  10
235.38983
  20
256.00751
  0
SEQEND
  0
POLYLINE
  5
114
  8
Layer_0
  62
3
  66
1
  10
0
  20
0
  30
0
  0
VERTEX
  5
114
  8
Layer_0
  10
239.21042
  20
254.83186
  0
VERTEX
  5
115
  8
Layer_0
  10
239.21042
  20
255.0979
  0
VERTEX
  5
116
  8
Layer_0
  10
236.7691
  20
255.0979
  0
VERTEX
  5
117
  8
Layer_0
  10
236.7691
  20
254.83186
  0
VERTEX
  5
118
  8
Layer_0
  10
239.21042
  20
254.83186
  0
SEQEND
  0
POLYLINE
  5
11a
  8
Layer_0
  62
3
  66
1
  10
0
  20
0
  30
0
  0
VERTEX
  5
11a
  8
Layer_0
  10
241.58936
  20
256.98875
  42
-0.16789846
  0
VERTEX
  5
11b
  8
Layer_0
  10
241.73567
  20
256.53445
  42
-0.11657901
  0
VERTEX
  5
11c
  8
Layer_0
  10
241.64665
  20
256.14258
  42
-0.1189515
  0
VERTEX
  5
11d
  8
Layer_0
  10
241.42667
  20
255.86324
  42
-0.098727267
  0
VERTEX
  5
11e
  8
Layer_0
  10
241.09822
  20
255.71487
  42
-0.06127637
  0
VERTEX
  5
11f
  8
Layer_0
  10
240.61426
  20
255.66473
  0
VERTEX
  5
120
  8
Layer_0
  10
239.47032
  20
255.66473
  0
VERTEX
  5
121
  8
Layer_0
  10
239.47032
  20
258.66473
  0
VERTEX
  5
122
  8
Layer_0
  10
240.59583
  20
258.66473
  42
-0.10152058
  0
VERTEX
  5
123
  8
Layer_0
  10
241.14734
  20
258.57367
  42
-0.15473189
  0
VERTEX
  5
124
  8
Layer_0
  10
241.47272
  20
258.29332
  42
-0.14247108
  0
VERTEX
  5
125
  8
Layer_0
  10
241.59038
  20
257.89734
  42
-0.14089462
  0
VERTEX
  5
126
  8
Layer_0
  10
241.48601
  20
257.53514
  42
-0.14245178
  0
VERTEX
  5
127
  8
Layer_0
  10
241.17087
  20
257.26093
  42
-0.16285976
  0
VERTEX
  5
128
  8
Layer_0
  10
241.58936
  20
256.98875
  0
SEQEND
  0
POLYLINE
  5
12a
  8
Layer_0
  62
3
  66
1
  10
0
  20
0
  30
0
  0
VERTEX
  5
12a
  8
Layer_0
  10
239.86731
  20
258.31071
  0
VERTEX
  5
12b
  8
Layer_0
  10
240.46692
  20
258.31071
  42
-0.067315259
  0
VERTEX
  5
12c
  8
Layer_0
  10
240.92325
  20
258.26877
  42
-0.18287135
  0
VERTEX
  5
12d
  8
Layer_0
  10
241.1279
  20
258.11324
  42
-0.14477292
  0
VERTEX
  5
12e
  8
Layer_0
  10
241.19952
  20
257.85028
  42
-0.160473
  0
VERTEX
  5
12f
  8
Layer_0
  10
241.12277
  20
257.58835
  42
-0.16517381
  0
VERTEX
  5
130
  8
Layer_0
  10
240.89461
  20
257.43896
  42
-0.066074057
  0
VERTEX
  5
131
  8
Layer_0
  10
240.51602
  20
257.40417
  0
VERTEX
  5
132
  8
Layer_0
  10
239.86731
  20
257.40417
  0
VERTEX
  5
133
  8
Layer_0
  10
239.86731
  20
258.31071
  0
SEQEND
  0
POLYLINE
  5
135
  8
Layer_0
  62
3
  66
1
  10
0
  20
0
  30
0
  0
VERTEX
  5
135
  8
Layer_0
  10
239.86731
  20
257.05014
  0
VERTEX
  5
136
  8
Layer_0
  10
240.56104
  20
257.05014
  42
-0.075100275
  0
VERTEX
  5
137
  8
Layer_0
  10
241
  20
257
  42
-0.16540789
  0
VERTEX
  5
138
  8
Layer_0
  10
241.2384
  20
256.82607
  42
-0.15447473
  0
VERTEX
  5
139
  8
Layer_0
  10
241.32434
  20
256.53445
  42
-0.12615436
  0
VERTEX
  5
13a
  8
Layer_0
  10
241.265
  20
256.28172
  42
-0.13390023
  0
VERTEX
  5
13b
  8
Layer_0
  10
241.11357
  20
256.11494
  42
-0.095388217
  0
VERTEX
  5
13c
  8
Layer_0
  10
240.88437
  20
256.03308
  42
-0.042007101
  0
VERTEX
  5
13d
  8
Layer_0
  10
240.61426
  20
256.01877
  0
VERTEX
  5
13e
  8
Layer_0
  10
239.86731
  20
256.01877
  0
VERTEX
  5
13f
  8
Layer_0
  10
239.86731
  20
257.05014
  0
SEQEND
  0
POLYLINE
  5
141
  8
Layer_0
  62
3
  66
1
  10
0
  20
0
  30
0
  0
VERTEX
  5
141
  8
Layer_0
  10
243.22339
  20
256.56516
  0
VERTEX
  5
142
  8
Layer_0
  10
243.22339
  20
256.93555
  0
VERTEX
  5
143
  8
Layer_0
  10
242.09174
  20
256.93555
  0
VERTEX
  5
144
  8
Layer_0
  10
242.09174
  20
256.56516
  0
VERTEX
  5
145
  8
Layer_0
  10
243.22339
  20
256.56516
  0
SEQEND
  0
POLYLINE
  5
147
  8
Layer_0
  62
3
  66
1
  10
0
  20
0
  30
0
  0
VERTEX
  5
147
  8
Layer_0
  10
244.17905
  20
258.27184
  0
VERTEX
  5
148
  8
Layer_0
  10
245.37619
  20
258.27184
  0
VERTEX
  5
149
  8
Layer_0
  10
245.37619
  20
258.62381
  0
VERTEX
  5
14a
  8
Layer_0
  10
243.88437
  20
258.62381
  0
VERTEX
  5
14b
  8
Layer_0
  10
243.59378
  20
257.08289
  0
VERTEX
  5
14c
  8
Layer_0
  10
243.93964
  20
257.03787
  42
-0.12461513
  0
VERTEX
  5
14d
  8
Layer_0
  10
244.16473
  20
257.24762
  42
-0.13066128
  0
VERTEX
  5
14e
  8
Layer_0
  10
244.48601
  20
257.32846
  42
-0.21039403
  0
VERTEX
  5
14f
  8
Layer_0
  10
244.94952
  20
257.14633
  42
-0.20075706
  0
VERTEX
  5
150
  8
Layer_0
  10
245.12653
  20
256.64905
  42
-0.19299505
  0
VERTEX
  5
151
  8
Layer_0
  10
244.94235
  20
256.11699
  42
-0.21913792
  0
VERTEX
  5
152
  8
Layer_0
  10
244.49216
  20
255.91644
  42
-0.19203737
  0
VERTEX
  5
153
  8
Layer_0
  10
244.11459
  20
256.05867
  42
-0.17366152
  0
VERTEX
  5
154
  8
Layer_0
  10
243.91507
  20
256.48329
  0
VERTEX
  5
155
  8
Layer_0
  10
243.52831
  20
256.45056
  42
0.19530182
  0
VERTEX
  5
156
  8
Layer_0
  10
243.82401
  20
255.84277
  42
0.187573
  0
VERTEX
  5
157
  8
Layer_0
  10
244.49216
  20
255.61359
  42
0.2403195
  0
VERTEX
  5
158
  8
Layer_0
  10
245.28
  20
255.97784
  42
0.17505813
  0
VERTEX
  5
159
  8
Layer_0
  10
245.5174
  20
256.68179
  42
0.20481869
  0
VERTEX
  5
15a
  8
Layer_0
  10
245.24727
  20
257.38165
  42
0.20698517
  0
VERTEX
  5
15b
  8
Layer_0
  10
244.58423
  20
257.65382
  42
0.15665948
  0
VERTEX
  5
15c
  8
Layer_0
  10
244.0174
  20
257.46556
  0
VERTEX
  5
15d
  8
Layer_0
  10
244.17905
  20
258.27184
  0
SEQEND
  0
ENDSEC
  0
EOF
