  0
SECTION
  2
HEADER
  9
$ACADVER
  1
AC1009
  0
ENDSEC
  0
SECTION
  2
ENTITIES
  0
CIRCLE
  5
90
  8
Layer_1
  62
1
  10
185.51158
  20
259.5748
  30
0
  40
1.5
  0
CIRCLE
  5
90
  8
Layer_1
  62
1
  10
170.51158
  20
244.5748
  30
0
  40
1.5
  0
CIRCLE
  5
90
  8
Layer_1
  62
1
  10
185.51158
  20
229.5748
  30
0
  40
1.5
  0
CIRCLE
  5
90
  8
Layer_1
  62
1
  10
200.51158
  20
244.5748
  30
0
  40
1.5
  0
CIRCLE
  5
90
  8
Layer_1
  62
1
  10
157.51158
  20
219.5748
  30
0
  40
1.5
  0
CIRCLE
  5
90
  8
Layer_1
  62
1
  10
157.51158
  20
269.5748
  30
0
  40
1.5
  0
CIRCLE
  5
90
  8
Layer_1
  62
1
  10
213.51158
  20
219.5748
  30
0
  40
1.5
  0
CIRCLE
  5
90
  8
Layer_1
  62
1
  10
213.51158
  20
269.5748
  30
0
  40
1.5
  0
CIRCLE
  5
90
  8
Layer_1
  62
1
  10
122.51158
  20
269.5748
  30
0
  40
1.5
  0
CIRCLE
  5
90
  8
Layer_1
  62
1
  10
122.51158
  20
219.5748
  30
0
  40
1.5
  0
CIRCLE
  5
90
  8
Layer_1
  62
1
  10
248.51158
  20
219.5748
  30
0
  40
1.5
  0
CIRCLE
  5
90
  8
Layer_1
  62
1
  10
248.51158
  20
269.5748
  30
0
  40
1.5
  0
CIRCLE
  5
90
  8
Layer_1
  62
1
  10
144.51158
  20
219.5748
  30
0
  40
1.5
  0
CIRCLE
  5
90
  8
Layer_1
  62
1
  10
144.51158
  20
269.5748
  30
0
  40
1.5
  0
CIRCLE
  5
90
  8
Layer_1
  62
1
  10
226.51158
  20
269.5748
  30
0
  40
1.5
  0
CIRCLE
  5
90
  8
Layer_1
  62
1
  10
226.51158
  20
219.5748
  30
0
  40
1.5
  0
POLYLINE
  5
90
  8
Layer_1
  62
1
  66
1
  10
0
  20
0
  30
0
  0
VERTEX
  5
90
  8
Layer_1
  10
149.51158
  20
259.5748
  0
VERTEX
  5
91
  8
Layer_1
  10
152.51158
  20
259.5748
  0
VERTEX
  5
92
  8
Layer_1
  10
152.51158
  20
229.5748
  0
SEQEND
  0
POLYLINE
  5
94
  8
Layer_1
  62
1
  66
1
  10
0
  20
0
  30
0
  0
VERTEX
  5
94
  8
Layer_1
  10
152.51158
  20
229.6248
  0
VERTEX
  5
95
  8
Layer_1
  10
149.51158
  20
229.6248
  0
SEQEND
  0
POLYLINE
  5
97
  8
Layer_1
  62
1
  66
1
  10
0
  20
0
  30
0
  0
VERTEX
  5
97
  8
Layer_1
  10
221.51158
  20
211.5748
  0
VERTEX
  5
98
  8
Layer_1
  10
230.06158
  20
211.5748
  0
VERTEX
  5
99
  8
Layer_1
  10
230.06158
  20
214.5748
  0
VERTEX
  5
9a
  8
Layer_1
  10
244.96158
  20
214.5748
  0
VERTEX
  5
9b
  8
Layer_1
  10
244.96158
  20
211.5748
  0
VERTEX
  5
9c
  8
Layer_1
  10
256.5116
  20
211.5748
  0
VERTEX
  5
9d
  8
Layer_1
  10
256.5116
  20
229.6248
  0
VERTEX
  5
9e
  8
Layer_1
  10
253.51158
  20
229.6248
  0
VERTEX
  5
9f
  8
Layer_1
  10
253.51158
  20
259.5248
  0
VERTEX
  5
a0
  8
Layer_1
  10
256.5116
  20
259.5248
  0
VERTEX
  5
a1
  8
Layer_1
  10
256.5116
  20
277.5748
  0
VERTEX
  5
a2
  8
Layer_1
  10
244.96158
  20
277.5748
  0
VERTEX
  5
a3
  8
Layer_1
  10
244.96158
  20
274.5748
  0
VERTEX
  5
a4
  8
Layer_1
  10
230.06158
  20
274.5748
  0
VERTEX
  5
a5
  8
Layer_1
  10
230.06158
  20
277.5748
  0
VERTEX
  5
a6
  8
Layer_1
  10
221.51158
  20
277.5748
  0
SEQEND
  0
POLYLINE
  5
a8
  8
Layer_1
  62
1
  66
1
  10
0
  20
0
  30
0
  0
VERTEX
  5
a8
  8
Layer_1
  10
221.51158
  20
259.5748
  0
VERTEX
  5
a9
  8
Layer_1
  10
221.61157
  20
259.5748
  0
VERTEX
  5
aa
  8
Layer_1
  10
221.61157
  20
229.6248
  0
VERTEX
  5
ab
  8
Layer_1
  10
221.51158
  20
229.6248
  0
SEQEND
  0
POLYLINE
  5
ad
  8
Layer_0
  62
3
  66
1
  10
0
  20
0
  30
0
  0
VERTEX
  5
ad
  8
Layer_0
  10
232.11624
  20
263.772
  42
0.21917905
  0
VERTEX
  5
ae
  8
Layer_0
  10
232.43344
  20
263.64513
  42
0.14381973
  0
VERTEX
  5
af
  8
Layer_0
  10
232.69128
  20
263.71368
  42
0.17153477
  0
VERTEX
  5
b0
  8
Layer_0
  10
232.84067
  20
263.8999
  42
0.076437413
  0
VERTEX
  5
b1
  8
Layer_0
  10
232.88159
  20
264.27542
  0
VERTEX
  5
b2
  8
Layer_0
  10
232.88159
  20
266.34225
  0
VERTEX
  5
b3
  8
Layer_0
  10
233.27859
  20
266.34225
  0
VERTEX
  5
b4
  8
Layer_0
  10
233.27859
  20
264.29793
  42
-0.099576607
  0
VERTEX
  5
b5
  8
Layer_0
  10
233.18753
  20
263.71471
  0
VERTEX
  5
b6
  8
Layer_0
  10
233.17975
  20
263.69765
  42
-0.16153361
  0
VERTEX
  5
b7
  8
Layer_0
  10
232.89899
  20
263.39957
  42
-0.1273136
  0
VERTEX
  5
b8
  8
Layer_0
  10
232.43549
  20
263.29111
  42
-0.21486008
  0
VERTEX
  5
b9
  8
Layer_0
  10
231.83078
  20
263.51825
  42
-0.1940988
  0
VERTEX
  5
ba
  8
Layer_0
  10
231.62921
  20
264.19356
  0
VERTEX
  5
bb
  8
Layer_0
  10
231.98734
  20
264.24268
  42
0.16136759
  0
VERTEX
  5
bc
  8
Layer_0
  10
232.11624
  20
263.772
  0
SEQEND
  0
POLYLINE
  5
be
  8
Layer_0
  62
3
  66
1
  10
0
  20
0
  30
0
  0
VERTEX
  5
be
  8
Layer_0
  10
234.42867
  20
265.94936
  0
VERTEX
  5
bf
  8
Layer_0
  10
235.62579
  20
265.94936
  0
VERTEX
  5
c0
  8
Layer_0
  10
235.62579
  20
266.30133
  0
VERTEX
  5
c1
  8
Layer_0
  10
234.13399
  20
266.30133
  0
VERTEX
  5
c2
  8
Layer_0
  10
233.8434
  20
264.76041
  0
VERTEX
  5
c3
  8
Layer_0
  10
234.18924
  20
264.71539
  42
-0.12508565
  0
VERTEX
  5
c4
  8
Layer_0
  10
234.41434
  20
264.92514
  42
-0.13087931
  0
VERTEX
  5
c5
  8
Layer_0
  10
234.73563
  20
265.00597
  42
-0.21021041
  0
VERTEX
  5
c6
  8
Layer_0
  10
235.19913
  20
264.82385
  42
-0.20023662
  0
VERTEX
  5
c7
  8
Layer_0
  10
235.37613
  20
264.32657
  42
-0.17292095
  0
VERTEX
  5
c8
  8
Layer_0
  10
235.22137
  20
263.82884
  0
VERTEX
  5
c9
  8
Layer_0
  10
235.207
  20
263.81145
  0
VERTEX
  5
ca
  8
Layer_0
  10
235.19196
  20
263.79451
  42
-0.21816039
  0
VERTEX
  5
cb
  8
Layer_0
  10
234.74176
  20
263.59396
  42
-0.19295355
  0
VERTEX
  5
cc
  8
Layer_0
  10
234.3642
  20
263.73619
  42
-0.17417084
  0
VERTEX
  5
cd
  8
Layer_0
  10
234.16467
  20
264.16081
  0
VERTEX
  5
ce
  8
Layer_0
  10
233.77792
  20
264.12807
  42
0.19541215
  0
VERTEX
  5
cf
  8
Layer_0
  10
234.07361
  20
263.52029
  42
0.18771129
  0
VERTEX
  5
d0
  8
Layer_0
  10
234.74176
  20
263.29111
  42
0.24044272
  0
VERTEX
  5
d1
  8
Layer_0
  10
235.52962
  20
263.65536
  42
0.17440132
  0
VERTEX
  5
d2
  8
Layer_0
  10
235.767
  20
264.35931
  42
0.20433246
  0
VERTEX
  5
d3
  8
Layer_0
  10
235.49689
  20
265.05917
  42
0.20735521
  0
VERTEX
  5
d4
  8
Layer_0
  10
234.83385
  20
265.33134
  42
0.15642821
  0
VERTEX
  5
d5
  8
Layer_0
  10
234.267
  20
265.14308
  0
VERTEX
  5
d6
  8
Layer_0
  10
234.42867
  20
265.94936
  0
SEQEND
  0
POLYLINE
  5
d8
  8
Layer_0
  62
3
  66
1
  10
0
  20
0
  30
0
  0
VERTEX
  5
d8
  8
Layer_0
  10
236.78406
  20
265.19016
  42
-0.11998905
  0
VERTEX
  5
d9
  8
Layer_0
  10
237.18719
  20
265.28838
  42
-0.21304169
  0
VERTEX
  5
da
  8
Layer_0
  10
237.81441
  20
265.01723
  42
-0.19907095
  0
VERTEX
  5
db
  8
Layer_0
  10
238.07327
  20
264.31635
  42
-0.11840082
  0
VERTEX
  5
dc
  8
Layer_0
  10
237.95151
  20
263.79144
  42
-0.14300433
  0
VERTEX
  5
dd
  8
Layer_0
  10
237.61693
  20
263.42003
  0
VERTEX
  5
de
  8
Layer_0
  10
237.59909
  20
263.4095
  42
-0.13284093
  0
VERTEX
  5
df
  8
Layer_0
  10
237.13399
  20
263.29111
  42
-0.22880558
  0
VERTEX
  5
e0
  8
Layer_0
  10
236.38297
  20
263.62978
  42
-0.17283992
  0
VERTEX
  5
e1
  8
Layer_0
  10
236.09238
  20
264.74608
  42
-0.15689385
  0
VERTEX
  5
e2
  8
Layer_0
  10
236.38745
  20
265.97701
  0
VERTEX
  5
e3
  8
Layer_0
  10
236.41367
  20
266.01074
  42
-0.23590292
  0
VERTEX
  5
e4
  8
Layer_0
  10
237.16876
  20
266.35454
  42
-0.18710276
  0
VERTEX
  5
e5
  8
Layer_0
  10
237.74893
  20
266.15604
  42
-0.18738105
  0
VERTEX
  5
e6
  8
Layer_0
  10
238.02008
  20
265.6076
  0
VERTEX
  5
e7
  8
Layer_0
  10
237.65378
  20
265.57896
  42
0.12616908
  0
VERTEX
  5
e8
  8
Layer_0
  10
237.51462
  20
265.8941
  42
0.21356228
  0
VERTEX
  5
e9
  8
Layer_0
  10
237.14627
  20
266.05167
  42
0.1639715
  0
VERTEX
  5
ea
  8
Layer_0
  10
236.83725
  20
265.95345
  0
VERTEX
  5
eb
  8
Layer_0
  10
236.82289
  20
265.94267
  42
0.13308703
  0
VERTEX
  5
ec
  8
Layer_0
  10
236.56305
  20
265.58305
  42
0.090821915
  0
VERTEX
  5
ed
  8
Layer_0
  10
236.45868
  20
264.88933
  42
-0.13154397
  0
VERTEX
  5
ee
  8
Layer_0
  10
236.78406
  20
265.19016
  0
SEQEND
  0
POLYLINE
  5
f0
  8
Layer_0
  62
3
  66
1
  10
0
  20
0
  30
0
  0
VERTEX
  5
f0
  8
Layer_0
  10
236.82294
  20
263.68503
  42
0.14363143
  0
VERTEX
  5
f1
  8
Layer_0
  10
237.12784
  20
263.59396
  42
0.22270462
  0
VERTEX
  5
f2
  8
Layer_0
  10
237.52893
  20
263.78223
  42
0.18697266
  0
VERTEX
  5
f3
  8
Layer_0
  10
237.69675
  20
264.29382
  42
0.19293219
  0
VERTEX
  5
f4
  8
Layer_0
  10
237.53098
  20
264.78394
  42
0.21730129
  0
VERTEX
  5
f5
  8
Layer_0
  10
237.11353
  20
264.963
  42
0.21027651
  0
VERTEX
  5
f6
  8
Layer_0
  10
236.68991
  20
264.78394
  42
0.2014765
  0
VERTEX
  5
f7
  8
Layer_0
  10
236.51598
  20
264.3143
  42
0.11034918
  0
VERTEX
  5
f8
  8
Layer_0
  10
236.5968
  20
263.95004
  42
0.14842678
  0
VERTEX
  5
f9
  8
Layer_0
  10
236.82294
  20
263.68503
  0
SEQEND
  0
POLYLINE
  5
fb
  8
Layer_0
  62
3
  66
1
  10
0
  20
0
  30
0
  0
VERTEX
  5
fb
  8
Layer_0
  10
240.64352
  20
262.50938
  0
VERTEX
  5
fc
  8
Layer_0
  10
240.64352
  20
262.77542
  0
VERTEX
  5
fd
  8
Layer_0
  10
238.20219
  20
262.77542
  0
VERTEX
  5
fe
  8
Layer_0
  10
238.20219
  20
262.50938
  0
VERTEX
  5
ff
  8
Layer_0
  10
240.64352
  20
262.50938
  0
SEQEND
  0
POLYLINE
  5
101
  8
Layer_0
  62
3
  66
1
  10
0
  20
0
  30
0
  0
VERTEX
  5
101
  8
Layer_0
  10
243.02246
  20
264.66628
  42
-0.16798226
  0
VERTEX
  5
102
  8
Layer_0
  10
243.16876
  20
264.21198
  42
-0.11567413
  0
VERTEX
  5
103
  8
Layer_0
  10
243.07976
  20
263.8201
  42
-0.11930254
  0
VERTEX
  5
104
  8
Layer_0
  10
242.85977
  20
263.54076
  42
-0.098721356
  0
VERTEX
  5
105
  8
Layer_0
  10
242.53133
  20
263.3924
  42
-0.061159528
  0
VERTEX
  5
106
  8
Layer_0
  10
242.04736
  20
263.34225
  0
VERTEX
  5
107
  8
Layer_0
  10
240.90343
  20
263.34225
  0
VERTEX
  5
108
  8
Layer_0
  10
240.90343
  20
266.34225
  0
VERTEX
  5
109
  8
Layer_0
  10
242.02893
  20
266.34225
  42
-0.10106115
  0
VERTEX
  5
10a
  8
Layer_0
  10
242.58044
  20
266.25119
  42
-0.15500127
  0
VERTEX
  5
10b
  8
Layer_0
  10
242.90582
  20
265.97084
  42
-0.14191494
  0
VERTEX
  5
10c
  8
Layer_0
  10
243.02348
  20
265.57486
  42
-0.14069243
  0
VERTEX
  5
10d
  8
Layer_0
  10
242.91911
  20
265.21266
  42
-0.1430544
  0
VERTEX
  5
10e
  8
Layer_0
  10
242.60397
  20
264.93845
  42
-0.16342267
  0
VERTEX
  5
10f
  8
Layer_0
  10
243.02246
  20
264.66628
  0
SEQEND
  0
POLYLINE
  5
111
  8
Layer_0
  62
3
  66
1
  10
0
  20
0
  30
0
  0
VERTEX
  5
111
  8
Layer_0
  10
241.30042
  20
265.98824
  0
VERTEX
  5
112
  8
Layer_0
  10
241.90002
  20
265.98824
  42
-0.066881526
  0
VERTEX
  5
113
  8
Layer_0
  10
242.35635
  20
265.94629
  42
-0.18444473
  0
VERTEX
  5
114
  8
Layer_0
  10
242.561
  20
265.79076
  42
-0.10919087
  0
VERTEX
  5
115
  8
Layer_0
  10
242.62814
  20
265.60025
  0
VERTEX
  5
116
  8
Layer_0
  10
242.63063
  20
265.5766
  0
VERTEX
  5
117
  8
Layer_0
  10
242.63213
  20
265.55244
  0
VERTEX
  5
118
  8
Layer_0
  10
242.63263
  20
265.5278
  42
-0.16327017
  0
VERTEX
  5
119
  8
Layer_0
  10
242.55588
  20
265.26587
  42
-0.16365894
  0
VERTEX
  5
11a
  8
Layer_0
  10
242.3277
  20
265.11649
  42
-0.065324823
  0
VERTEX
  5
11b
  8
Layer_0
  10
241.94913
  20
265.0817
  0
VERTEX
  5
11c
  8
Layer_0
  10
241.30042
  20
265.0817
  0
VERTEX
  5
11d
  8
Layer_0
  10
241.30042
  20
265.98824
  0
SEQEND
  0
POLYLINE
  5
11f
  8
Layer_0
  62
3
  66
1
  10
0
  20
0
  30
0
  0
VERTEX
  5
11f
  8
Layer_0
  10
241.30042
  20
264.72766
  0
VERTEX
  5
120
  8
Layer_0
  10
241.99414
  20
264.72766
  42
-0.075270427
  0
VERTEX
  5
121
  8
Layer_0
  10
242.43311
  20
264.67752
  42
-0.16814792
  0
VERTEX
  5
122
  8
Layer_0
  10
242.67151
  20
264.50359
  42
-0.1556549
  0
VERTEX
  5
123
  8
Layer_0
  10
242.75745
  20
264.21198
  42
-0.12705495
  0
VERTEX
  5
124
  8
Layer_0
  10
242.6981
  20
263.95924
  42
-0.13133269
  0
VERTEX
  5
125
  8
Layer_0
  10
242.54666
  20
263.79247
  42
-0.094450915
  0
VERTEX
  5
126
  8
Layer_0
  10
242.31747
  20
263.7106
  42
-0.042273734
  0
VERTEX
  5
127
  8
Layer_0
  10
242.04736
  20
263.69629
  0
VERTEX
  5
128
  8
Layer_0
  10
241.30042
  20
263.69629
  0
VERTEX
  5
129
  8
Layer_0
  10
241.30042
  20
264.72766
  0
SEQEND
  0
POLYLINE
  5
12b
  8
Layer_0
  62
3
  66
1
  10
0
  20
0
  30
0
  0
VERTEX
  5
12b
  8
Layer_0
  10
244.65649
  20
264.24268
  0
VERTEX
  5
12c
  8
Layer_0
  10
244.65649
  20
264.61307
  0
VERTEX
  5
12d
  8
Layer_0
  10
243.52484
  20
264.61307
  0
VERTEX
  5
12e
  8
Layer_0
  10
243.52484
  20
264.24268
  0
VERTEX
  5
12f
  8
Layer_0
  10
244.65649
  20
264.24268
  0
SEQEND
  0
POLYLINE
  5
131
  8
Layer_0
  62
3
  66
1
  10
0
  20
0
  30
0
  0
VERTEX
  5
131
  8
Layer_0
  10
246.67627
  20
265.22084
  42
0.14805523
  0
VERTEX
  5
132
  8
Layer_0
  10
246.78064
  20
265.57486
  42
0.13834067
  0
VERTEX
  5
133
  8
Layer_0
  10
246.67116
  20
265.96164
  42
0.14302903
  0
VERTEX
  5
134
  8
Layer_0
  10
246.355
  20
266.24915
  42
0.11966076
  0
VERTEX
  5
135
  8
Layer_0
  10
245.90274
  20
266.35454
  42
0.18272268
  0
VERTEX
  5
136
  8
Layer_0
  10
245.30725
  20
266.15092
  42
0.17651801
  0
VERTEX
  5
137
  8
Layer_0
  10
245.00029
  20
265.5769
  0
VERTEX
  5
138
  8
Layer_0
  10
245.36864
  20
265.51143
  42
-0.16854172
  0
VERTEX
  5
139
  8
Layer_0
  10
245.55281
  20
265.91661
  42
-0.19717575
  0
VERTEX
  5
13a
  8
Layer_0
  10
245.91092
  20
266.05167
  42
-0.20011041
  0
VERTEX
  5
13b
  8
Layer_0
  10
246.26495
  20
265.91866
  42
-0.21058916
  0
VERTEX
  5
13c
  8
Layer_0
  10
246.40207
  20
265.58305
  42
-0.22720934
  0
VERTEX
  5
13d
  8
Layer_0
  10
246.25792
  20
265.23724
  0
VERTEX
  5
13e
  8
Layer_0
  10
246.24387
  20
265.22586
  0
VERTEX
  5
13f
  8
Layer_0
  10
246.22916
  20
265.21494
  0
VERTEX
  5
140
  8
Layer_0
  10
246.21379
  20
265.20447
  42
-0.14841067
  0
VERTEX
  5
141
  8
Layer_0
  10
245.79019
  20
265.0817
  42
-0.027727672
  0
VERTEX
  5
142
  8
Layer_0
  10
245.73085
  20
265.08578
  0
VERTEX
  5
143
  8
Layer_0
  10
245.68991
  20
264.76245
  42
-0.062482341
  0
VERTEX
  5
144
  8
Layer_0
  10
245.94981
  20
264.80338
  42
-0.20605035
  0
VERTEX
  5
145
  8
Layer_0
  10
246.37137
  20
264.63864
  42
-0.20692047
  0
VERTEX
  5
146
  8
Layer_0
  10
246.53712
  20
264.22015
  42
-0.20481401
  0
VERTEX
  5
147
  8
Layer_0
  10
246.35806
  20
263.77405
  42
-0.20730081
  0
VERTEX
  5
148
  8
Layer_0
  10
245.91911
  20
263.59396
  42
-0.19204439
  0
VERTEX
  5
149
  8
Layer_0
  10
245.5477
  20
263.7321
  42
-0.15748687
  0
VERTEX
  5
14a
  8
Layer_0
  10
245.3318
  20
264.18332
  0
VERTEX
  5
14b
  8
Layer_0
  10
244.96346
  20
264.13422
  42
0.19298859
  0
VERTEX
  5
14c
  8
Layer_0
  10
245.2612
  20
263.52438
  42
0.19107111
  0
VERTEX
  5
14d
  8
Layer_0
  10
245.91707
  20
263.28906
  42
0.19938575
  0
VERTEX
  5
14e
  8
Layer_0
  10
246.64148
  20
263.56226
  42
0.21311687
  0
VERTEX
  5
14f
  8
Layer_0
  10
246.92798
  20
264.22835
  42
0.16749995
  0
VERTEX
  5
150
  8
Layer_0
  10
246.78064
  20
264.71231
  42
0.17984608
  0
VERTEX
  5
151
  8
Layer_0
  10
246.36728
  20
264.96709
  42
0.14271296
  0
VERTEX
  5
152
  8
Layer_0
  10
246.67627
  20
265.22084
  0
SEQEND
  0
POLYLINE
  5
154
  8
Layer_1
  62
1
  66
1
  10
0
  20
0
  30
0
  0
VERTEX
  5
154
  8
Layer_1
  10
170.56158
  20
211.5748
  0
VERTEX
  5
155
  8
Layer_1
  10
170.56158
  20
214.5748
  0
SEQEND
  0
POLYLINE
  5
157
  8
Layer_1
  62
1
  66
1
  10
0
  20
0
  30
0
  0
VERTEX
  5
157
  8
Layer_1
  10
170.56158
  20
214.5748
  0
VERTEX
  5
158
  8
Layer_1
  10
200.46158
  20
214.5748
  0
SEQEND
  0
POLYLINE
  5
15a
  8
Layer_1
  62
1
  66
1
  10
0
  20
0
  30
0
  0
VERTEX
  5
15a
  8
Layer_1
  10
200.46158
  20
214.5748
  0
VERTEX
  5
15b
  8
Layer_1
  10
200.46158
  20
211.5748
  0
SEQEND
  0
POLYLINE
  5
15d
  8
Layer_1
  62
1
  66
1
  10
0
  20
0
  30
0
  0
VERTEX
  5
15d
  8
Layer_1
  10
200.46158
  20
211.5748
  0
VERTEX
  5
15e
  8
Layer_1
  10
221.51158
  20
211.5748
  0
SEQEND
  0
POLYLINE
  5
160
  8
Layer_1
  62
1
  66
1
  10
0
  20
0
  30
0
  0
VERTEX
  5
160
  8
Layer_1
  10
221.51158
  20
229.6248
  0
VERTEX
  5
161
  8
Layer_1
  10
218.51158
  20
229.6248
  0
SEQEND
  0
POLYLINE
  5
163
  8
Layer_1
  62
1
  66
1
  10
0
  20
0
  30
0
  0
VERTEX
  5
163
  8
Layer_1
  10
218.51158
  20
229.6248
  0
VERTEX
  5
164
  8
Layer_1
  10
218.51158
  20
259.5748
  0
SEQEND
  0
POLYLINE
  5
166
  8
Layer_1
  62
1
  66
1
  10
0
  20
0
  30
0
  0
VERTEX
  5
166
  8
Layer_1
  10
218.51158
  20
259.5748
  0
VERTEX
  5
167
  8
Layer_1
  10
221.51158
  20
259.5748
  0
SEQEND
  0
POLYLINE
  5
169
  8
Layer_1
  62
1
  66
1
  10
0
  20
0
  30
0
  0
VERTEX
  5
169
  8
Layer_1
  10
221.51158
  20
277.5748
  0
VERTEX
  5
16a
  8
Layer_1
  10
200.46158
  20
277.5748
  0
SEQEND
  0
POLYLINE
  5
16c
  8
Layer_1
  62
1
  66
1
  10
0
  20
0
  30
0
  0
VERTEX
  5
16c
  8
Layer_1
  10
200.46158
  20
277.5748
  0
VERTEX
  5
16d
  8
Layer_1
  10
200.46158
  20
274.5748
  0
SEQEND
  0
POLYLINE
  5
16f
  8
Layer_1
  62
1
  66
1
  10
0
  20
0
  30
0
  0
VERTEX
  5
16f
  8
Layer_1
  10
200.46158
  20
274.5748
  0
VERTEX
  5
170
  8
Layer_1
  10
170.56158
  20
274.5748
  0
SEQEND
  0
POLYLINE
  5
172
  8
Layer_1
  62
1
  66
1
  10
0
  20
0
  30
0
  0
VERTEX
  5
172
  8
Layer_1
  10
170.56158
  20
274.5748
  0
VERTEX
  5
173
  8
Layer_1
  10
170.56158
  20
277.5748
  0
SEQEND
  0
POLYLINE
  5
175
  8
Layer_1
  62
1
  66
1
  10
0
  20
0
  30
0
  0
VERTEX
  5
175
  8
Layer_1
  10
170.56158
  20
277.5748
  0
VERTEX
  5
176
  8
Layer_1
  10
149.51158
  20
277.5748
  0
SEQEND
  0
POLYLINE
  5
178
  8
Layer_1
  62
1
  66
1
  10
0
  20
0
  30
0
  0
VERTEX
  5
178
  8
Layer_1
  10
149.51158
  20
259.5748
  0
VERTEX
  5
179
  8
Layer_1
  10
149.41158
  20
259.5748
  0
SEQEND
  0
POLYLINE
  5
17b
  8
Layer_1
  62
1
  66
1
  10
0
  20
0
  30
0
  0
VERTEX
  5
17b
  8
Layer_1
  10
149.41158
  20
259.5748
  0
VERTEX
  5
17c
  8
Layer_1
  10
149.41158
  20
229.6248
  0
SEQEND
  0
POLYLINE
  5
17e
  8
Layer_1
  62
1
  66
1
  10
0
  20
0
  30
0
  0
VERTEX
  5
17e
  8
Layer_1
  10
149.41158
  20
229.6248
  0
VERTEX
  5
17f
  8
Layer_1
  10
149.51158
  20
229.6248
  0
SEQEND
  0
POLYLINE
  5
181
  8
Layer_1
  62
1
  66
1
  10
0
  20
0
  30
0
  0
VERTEX
  5
181
  8
Layer_1
  10
149.51158
  20
211.5748
  0
VERTEX
  5
182
  8
Layer_1
  10
170.56158
  20
211.5748
  0
SEQEND
  0
POLYLINE
  5
184
  8
Layer_1
  62
1
  66
1
  10
0
  20
0
  30
0
  0
VERTEX
  5
184
  8
Layer_1
  10
149.51158
  20
211.5748
  0
VERTEX
  5
185
  8
Layer_1
  10
140.96158
  20
211.5748
  0
SEQEND
  0
POLYLINE
  5
187
  8
Layer_1
  62
1
  66
1
  10
0
  20
0
  30
0
  0
VERTEX
  5
187
  8
Layer_1
  10
140.96158
  20
211.5748
  0
VERTEX
  5
188
  8
Layer_1
  10
140.96158
  20
214.5748
  0
SEQEND
  0
POLYLINE
  5
18a
  8
Layer_1
  62
1
  66
1
  10
0
  20
0
  30
0
  0
VERTEX
  5
18a
  8
Layer_1
  10
140.96158
  20
214.5748
  0
VERTEX
  5
18b
  8
Layer_1
  10
126.06158
  20
214.5748
  0
SEQEND
  0
POLYLINE
  5
18d
  8
Layer_1
  62
1
  66
1
  10
0
  20
0
  30
0
  0
VERTEX
  5
18d
  8
Layer_1
  10
126.06158
  20
214.5748
  0
VERTEX
  5
18e
  8
Layer_1
  10
126.06158
  20
211.5748
  0
SEQEND
  0
POLYLINE
  5
190
  8
Layer_1
  62
1
  66
1
  10
0
  20
0
  30
0
  0
VERTEX
  5
190
  8
Layer_1
  10
126.06158
  20
211.5748
  0
VERTEX
  5
191
  8
Layer_1
  10
114.51158
  20
211.5748
  0
SEQEND
  0
POLYLINE
  5
193
  8
Layer_1
  62
1
  66
1
  10
0
  20
0
  30
0
  0
VERTEX
  5
193
  8
Layer_1
  10
114.51158
  20
211.5748
  0
VERTEX
  5
194
  8
Layer_1
  10
114.51158
  20
229.6248
  0
SEQEND
  0
POLYLINE
  5
196
  8
Layer_1
  62
1
  66
1
  10
0
  20
0
  30
0
  0
VERTEX
  5
196
  8
Layer_1
  10
114.51158
  20
229.6248
  0
VERTEX
  5
197
  8
Layer_1
  10
117.51158
  20
229.6248
  0
SEQEND
  0
POLYLINE
  5
199
  8
Layer_1
  62
1
  66
1
  10
0
  20
0
  30
0
  0
VERTEX
  5
199
  8
Layer_1
  10
117.51158
  20
229.6248
  0
VERTEX
  5
19a
  8
Layer_1
  10
117.51158
  20
259.5248
  0
SEQEND
  0
POLYLINE
  5
19c
  8
Layer_1
  62
1
  66
1
  10
0
  20
0
  30
0
  0
VERTEX
  5
19c
  8
Layer_1
  10
117.51158
  20
259.5248
  0
VERTEX
  5
19d
  8
Layer_1
  10
114.51158
  20
259.5248
  0
SEQEND
  0
POLYLINE
  5
19f
  8
Layer_1
  62
1
  66
1
  10
0
  20
0
  30
0
  0
VERTEX
  5
19f
  8
Layer_1
  10
114.51158
  20
259.5248
  0
VERTEX
  5
1a0
  8
Layer_1
  10
114.51158
  20
277.5748
  0
SEQEND
  0
POLYLINE
  5
1a2
  8
Layer_1
  62
1
  66
1
  10
0
  20
0
  30
0
  0
VERTEX
  5
1a2
  8
Layer_1
  10
114.51158
  20
277.5748
  0
VERTEX
  5
1a3
  8
Layer_1
  10
126.06158
  20
277.5748
  0
SEQEND
  0
POLYLINE
  5
1a5
  8
Layer_1
  62
1
  66
1
  10
0
  20
0
  30
0
  0
VERTEX
  5
1a5
  8
Layer_1
  10
126.06158
  20
277.5748
  0
VERTEX
  5
1a6
  8
Layer_1
  10
126.06158
  20
274.5748
  0
SEQEND
  0
POLYLINE
  5
1a8
  8
Layer_1
  62
1
  66
1
  10
0
  20
0
  30
0
  0
VERTEX
  5
1a8
  8
Layer_1
  10
126.06158
  20
274.5748
  0
VERTEX
  5
1a9
  8
Layer_1
  10
140.96158
  20
274.5748
  0
SEQEND
  0
POLYLINE
  5
1ab
  8
Layer_1
  62
1
  66
1
  10
0
  20
0
  30
0
  0
VERTEX
  5
1ab
  8
Layer_1
  10
140.96158
  20
274.5748
  0
VERTEX
  5
1ac
  8
Layer_1
  10
140.96158
  20
277.5748
  0
SEQEND
  0
POLYLINE
  5
1ae
  8
Layer_1
  62
1
  66
1
  10
0
  20
0
  30
0
  0
VERTEX
  5
1ae
  8
Layer_1
  10
140.96158
  20
277.5748
  0
VERTEX
  5
1af
  8
Layer_1
  10
149.51158
  20
277.5748
  0
SEQEND
  0
ENDSEC
  0
EOF
