  0
SECTION
  2
HEADER
  9
$ACADVER
  1
AC1009
  0
ENDSEC
  0
SECTION
  2
ENTITIES
  0
CIRCLE
  5
90
  8
Layer_1
  62
1
  10
240.1629
  20
167.33368
  30
0
  40
1.5
  0
CIRCLE
  5
90
  8
Layer_1
  62
1
  10
327.6629
  20
164.83368
  30
0
  40
1.5
  0
CIRCLE
  5
90
  8
Layer_1
  62
1
  10
240.1629
  20
218.13367
  30
0
  40
1.5
  0
CIRCLE
  5
90
  8
Layer_1
  62
1
  10
327.6629
  20
220.63367
  30
0
  40
1.5
  0
CIRCLE
  5
90
  8
Layer_1
  62
1
  10
165.1629
  20
149.23367
  30
0
  40
1.5
  0
CIRCLE
  5
90
  8
Layer_1
  62
1
  10
165.1629
  20
132.23367
  30
0
  40
1.5
  0
CIRCLE
  5
90
  8
Layer_1
  62
1
  10
327.6629
  20
132.23367
  30
0
  40
1.5
  0
CIRCLE
  5
90
  8
Layer_1
  62
1
  10
327.6629
  20
253.23367
  30
0
  40
1.5
  0
CIRCLE
  5
90
  8
Layer_1
  62
1
  10
165.1629
  20
236.23367
  30
0
  40
1.5
  0
CIRCLE
  5
90
  8
Layer_1
  62
1
  10
165.1629
  20
253.23367
  30
0
  40
1.5
  0
CIRCLE
  5
90
  8
Layer_1
  62
1
  10
214.21291
  20
132.23367
  30
0
  40
1.5
  0
CIRCLE
  5
90
  8
Layer_1
  62
1
  10
224.21291
  20
132.23367
  30
0
  40
1.5
  0
CIRCLE
  5
90
  8
Layer_1
  62
1
  10
214.21291
  20
256.73367
  30
0
  40
1.5
  0
CIRCLE
  5
90
  8
Layer_1
  62
1
  10
224.21291
  20
256.73367
  30
0
  40
1.5
  0
CIRCLE
  5
90
  8
Layer_1
  62
1
  10
312.6629
  20
192.73367
  30
0
  40
10
  0
POLYLINE
  5
90
  8
Layer_1
  62
1
  66
1
  10
0
  20
0
  30
0
  0
VERTEX
  5
90
  8
Layer_1
  10
272.6629
  20
156.73367
  0
VERTEX
  5
91
  8
Layer_1
  10
272.6629
  20
159.83368
  0
VERTEX
  5
92
  8
Layer_1
  10
242.6629
  20
159.83368
  0
VERTEX
  5
93
  8
Layer_1
  10
242.6629
  20
156.73367
  0
VERTEX
  5
94
  8
Layer_1
  10
272.6629
  20
156.73367
  0
SEQEND
  0
POLYLINE
  5
96
  8
Layer_1
  62
1
  66
1
  10
0
  20
0
  30
0
  0
VERTEX
  5
96
  8
Layer_1
  10
292.6629
  20
159.83368
  0
VERTEX
  5
97
  8
Layer_1
  10
292.6629
  20
156.73367
  0
VERTEX
  5
98
  8
Layer_1
  10
322.6629
  20
156.73367
  0
VERTEX
  5
99
  8
Layer_1
  10
322.6629
  20
159.83368
  0
VERTEX
  5
9a
  8
Layer_1
  10
292.6629
  20
159.83368
  0
SEQEND
  0
POLYLINE
  5
9c
  8
Layer_1
  62
1
  66
1
  10
0
  20
0
  30
0
  0
VERTEX
  5
9c
  8
Layer_1
  10
232.6629
  20
121.73367
  0
VERTEX
  5
9d
  8
Layer_1
  10
210.1129
  20
121.73367
  0
VERTEX
  5
9e
  8
Layer_1
  10
210.1129
  20
124.73367
  0
VERTEX
  5
9f
  8
Layer_1
  10
180.21291
  20
124.73367
  0
VERTEX
  5
a0
  8
Layer_1
  10
180.21291
  20
121.73367
  0
VERTEX
  5
a1
  8
Layer_1
  10
157.6629
  20
121.73367
  0
VERTEX
  5
a2
  8
Layer_1
  10
157.6629
  20
133.23367
  0
VERTEX
  5
a3
  8
Layer_1
  10
154.6629
  20
133.23367
  0
VERTEX
  5
a4
  8
Layer_1
  10
154.6629
  20
148.23367
  0
VERTEX
  5
a5
  8
Layer_1
  10
157.6629
  20
148.23367
  0
VERTEX
  5
a6
  8
Layer_1
  10
157.6629
  20
156.73367
  0
VERTEX
  5
a7
  8
Layer_1
  10
157.6629
  20
159.73367
  0
VERTEX
  5
a8
  8
Layer_1
  10
180.21291
  20
159.73367
  0
VERTEX
  5
a9
  8
Layer_1
  10
180.21291
  20
156.73367
  0
VERTEX
  5
aa
  8
Layer_1
  10
210.1129
  20
156.73367
  0
VERTEX
  5
ab
  8
Layer_1
  10
210.1129
  20
159.73367
  0
VERTEX
  5
ac
  8
Layer_1
  10
232.6629
  20
159.73367
  0
SEQEND
  0
POLYLINE
  5
ae
  8
Layer_1
  62
1
  66
1
  10
0
  20
0
  30
0
  0
VERTEX
  5
ae
  8
Layer_1
  10
332.6629
  20
228.73367
  0
VERTEX
  5
af
  8
Layer_1
  10
332.6629
  20
237.23367
  0
VERTEX
  5
b0
  8
Layer_1
  10
335.6629
  20
237.23367
  0
VERTEX
  5
b1
  8
Layer_1
  10
335.6629
  20
252.23367
  0
VERTEX
  5
b2
  8
Layer_1
  10
332.6629
  20
252.23367
  0
VERTEX
  5
b3
  8
Layer_1
  10
332.6629
  20
263.73367
  0
VERTEX
  5
b4
  8
Layer_1
  10
322.61292
  20
263.73367
  0
VERTEX
  5
b5
  8
Layer_1
  10
322.61292
  20
260.73367
  0
VERTEX
  5
b6
  8
Layer_1
  10
292.71289
  20
260.73367
  0
VERTEX
  5
b7
  8
Layer_1
  10
292.71289
  20
263.73367
  0
VERTEX
  5
b8
  8
Layer_1
  10
272.61292
  20
263.73367
  0
VERTEX
  5
b9
  8
Layer_1
  10
272.61292
  20
260.73367
  0
VERTEX
  5
ba
  8
Layer_1
  10
242.71291
  20
260.73367
  0
VERTEX
  5
bb
  8
Layer_1
  10
242.71291
  20
263.73367
  0
VERTEX
  5
bc
  8
Layer_1
  10
232.6629
  20
263.73367
  0
VERTEX
  5
bd
  8
Layer_1
  10
210.1129
  20
263.73367
  0
VERTEX
  5
be
  8
Layer_1
  10
210.1129
  20
260.73367
  0
VERTEX
  5
bf
  8
Layer_1
  10
180.21291
  20
260.73367
  0
VERTEX
  5
c0
  8
Layer_1
  10
180.21291
  20
263.73367
  0
VERTEX
  5
c1
  8
Layer_1
  10
157.6629
  20
263.73367
  0
VERTEX
  5
c2
  8
Layer_1
  10
157.6629
  20
252.23367
  0
VERTEX
  5
c3
  8
Layer_1
  10
154.6629
  20
252.23367
  0
VERTEX
  5
c4
  8
Layer_1
  10
154.6629
  20
237.23367
  0
VERTEX
  5
c5
  8
Layer_1
  10
157.6629
  20
237.23367
  0
VERTEX
  5
c6
  8
Layer_1
  10
157.6629
  20
225.73367
  0
VERTEX
  5
c7
  8
Layer_1
  10
180.21291
  20
225.73367
  0
VERTEX
  5
c8
  8
Layer_1
  10
180.21291
  20
228.73367
  0
VERTEX
  5
c9
  8
Layer_1
  10
210.1129
  20
228.73367
  0
VERTEX
  5
ca
  8
Layer_1
  10
210.1129
  20
225.73367
  0
VERTEX
  5
cb
  8
Layer_1
  10
232.6629
  20
225.73367
  0
SEQEND
  0
POLYLINE
  5
cd
  8
Layer_0
  62
3
  66
1
  10
0
  20
0
  30
0
  0
VERTEX
  5
cd
  8
Layer_0
  10
304.62042
  20
255.23611
  0
VERTEX
  5
ce
  8
Layer_0
  10
304.63013
  20
255.22577
  0
VERTEX
  5
cf
  8
Layer_0
  10
304.64014
  20
255.21585
  0
VERTEX
  5
d0
  8
Layer_0
  10
304.65045
  20
255.20639
  0
VERTEX
  5
d1
  8
Layer_0
  10
304.66107
  20
255.19736
  0
VERTEX
  5
d2
  8
Layer_0
  10
304.672
  20
255.18875
  0
VERTEX
  5
d3
  8
Layer_0
  10
304.68323
  20
255.1806
  0
VERTEX
  5
d4
  8
Layer_0
  10
304.69476
  20
255.17291
  42
0.14725445
  0
VERTEX
  5
d5
  8
Layer_0
  10
304.93762
  20
255.10925
  0
VERTEX
  5
d6
  8
Layer_0
  10
304.96225
  20
255.10971
  42
0.13377563
  0
VERTEX
  5
d7
  8
Layer_0
  10
305.19547
  20
255.1778
  0
VERTEX
  5
d8
  8
Layer_0
  10
305.21307
  20
255.18958
  0
VERTEX
  5
d9
  8
Layer_0
  10
305.22974
  20
255.20201
  0
VERTEX
  5
da
  8
Layer_0
  10
305.24548
  20
255.21515
  42
0.13045093
  0
VERTEX
  5
db
  8
Layer_0
  10
305.34485
  20
255.36401
  42
0.075811562
  0
VERTEX
  5
dc
  8
Layer_0
  10
305.3858
  20
255.73953
  0
VERTEX
  5
dd
  8
Layer_0
  10
305.3858
  20
257.80638
  0
VERTEX
  5
de
  8
Layer_0
  10
305.78278
  20
257.80638
  0
VERTEX
  5
df
  8
Layer_0
  10
305.78278
  20
255.76204
  42
-0.10000403
  0
VERTEX
  5
e0
  8
Layer_0
  10
305.69171
  20
255.17882
  42
-0.051382124
  0
VERTEX
  5
e1
  8
Layer_0
  10
305.6192
  20
255.05194
  42
-0.11274911
  0
VERTEX
  5
e2
  8
Layer_0
  10
305.4032
  20
254.86368
  0
VERTEX
  5
e3
  8
Layer_0
  10
305.3866
  20
254.85483
  0
VERTEX
  5
e4
  8
Layer_0
  10
305.36978
  20
254.84636
  0
VERTEX
  5
e5
  8
Layer_0
  10
305.35272
  20
254.83826
  42
-0.10947927
  0
VERTEX
  5
e6
  8
Layer_0
  10
304.93967
  20
254.75522
  0
VERTEX
  5
e7
  8
Layer_0
  10
304.90707
  20
254.75562
  42
-0.20891554
  0
VERTEX
  5
e8
  8
Layer_0
  10
304.33496
  20
254.98236
  0
VERTEX
  5
e9
  8
Layer_0
  10
304.31787
  20
255.00168
  42
-0.18190977
  0
VERTEX
  5
ea
  8
Layer_0
  10
304.13339
  20
255.65768
  0
VERTEX
  5
eb
  8
Layer_0
  10
304.49152
  20
255.70679
  0
VERTEX
  5
ec
  8
Layer_0
  10
304.49289
  20
255.67853
  42
0.16229764
  0
VERTEX
  5
ed
  8
Layer_0
  10
304.62042
  20
255.23611
  0
SEQEND
  0
POLYLINE
  5
ef
  8
Layer_0
  62
3
  66
1
  10
0
  20
0
  30
0
  0
VERTEX
  5
ef
  8
Layer_0
  10
306.93286
  20
257.41348
  0
VERTEX
  5
f0
  8
Layer_0
  10
308.13
  20
257.41348
  0
VERTEX
  5
f1
  8
Layer_0
  10
308.13
  20
257.76544
  0
VERTEX
  5
f2
  8
Layer_0
  10
306.63818
  20
257.76544
  0
VERTEX
  5
f3
  8
Layer_0
  10
306.3476
  20
256.22452
  0
VERTEX
  5
f4
  8
Layer_0
  10
306.69342
  20
256.1795
  0
VERTEX
  5
f5
  8
Layer_0
  10
306.70749
  20
256.20065
  0
VERTEX
  5
f6
  8
Layer_0
  10
306.72241
  20
256.22115
  42
-0.10385601
  0
VERTEX
  5
f7
  8
Layer_0
  10
306.91852
  20
256.38925
  42
-0.13184263
  0
VERTEX
  5
f8
  8
Layer_0
  10
307.23981
  20
256.47009
  42
-0.20945557
  0
VERTEX
  5
f9
  8
Layer_0
  10
307.70331
  20
256.28796
  42
-0.20038032
  0
VERTEX
  5
fa
  8
Layer_0
  10
307.88031
  20
255.79068
  42
-0.17319816
  0
VERTEX
  5
fb
  8
Layer_0
  10
307.72559
  20
255.29297
  42
-0.071601874
  0
VERTEX
  5
fc
  8
Layer_0
  10
307.69617
  20
255.25864
  42
-0.20885489
  0
VERTEX
  5
fd
  8
Layer_0
  10
307.26797
  20
255.05844
  0
VERTEX
  5
fe
  8
Layer_0
  10
307.24594
  20
255.05807
  42
-0.16608101
  0
VERTEX
  5
ff
  8
Layer_0
  10
306.90854
  20
255.16698
  0
VERTEX
  5
100
  8
Layer_0
  10
306.89493
  20
255.17758
  42
0.0037309587
  0
VERTEX
  5
101
  8
Layer_0
  10
306.86841
  20
255.20032
  42
-0.16855509
  0
VERTEX
  5
102
  8
Layer_0
  10
306.67264
  20
255.60165
  0
VERTEX
  5
103
  8
Layer_0
  10
306.66888
  20
255.62494
  0
VERTEX
  5
104
  8
Layer_0
  10
306.2821
  20
255.59219
  42
0.18622422
  0
VERTEX
  5
105
  8
Layer_0
  10
306.55661
  20
255.00378
  0
VERTEX
  5
106
  8
Layer_0
  10
306.57782
  20
254.98441
  42
0.18130692
  0
VERTEX
  5
107
  8
Layer_0
  10
307.2121
  20
254.75562
  0
VERTEX
  5
108
  8
Layer_0
  10
307.24594
  20
254.75522
  42
0.22889214
  0
VERTEX
  5
109
  8
Layer_0
  10
308.0094
  20
255.08975
  0
VERTEX
  5
10a
  8
Layer_0
  10
308.03381
  20
255.11948
  0
VERTEX
  5
10b
  8
Layer_0
  10
308.05316
  20
255.14439
  42
0.16707421
  0
VERTEX
  5
10c
  8
Layer_0
  10
308.27118
  20
255.82343
  42
0.2044369
  0
VERTEX
  5
10d
  8
Layer_0
  10
308.00107
  20
256.52328
  42
0.2075778
  0
VERTEX
  5
10e
  8
Layer_0
  10
307.33804
  20
256.79547
  42
0.15649533
  0
VERTEX
  5
10f
  8
Layer_0
  10
306.77118
  20
256.60721
  0
VERTEX
  5
110
  8
Layer_0
  10
306.93286
  20
257.41348
  0
SEQEND
  0
POLYLINE
  5
112
  8
Layer_0
  62
3
  66
1
  10
0
  20
0
  30
0
  0
VERTEX
  5
112
  8
Layer_0
  10
309.28824
  20
256.65427
  42
-0.12043661
  0
VERTEX
  5
113
  8
Layer_0
  10
309.69138
  20
256.75249
  42
-0.21337289
  0
VERTEX
  5
114
  8
Layer_0
  10
310.3186
  20
256.48135
  42
-0.19864489
  0
VERTEX
  5
115
  8
Layer_0
  10
310.57745
  20
255.78046
  42
-0.11839271
  0
VERTEX
  5
116
  8
Layer_0
  10
310.45569
  20
255.25555
  42
-0.04961403
  0
VERTEX
  5
117
  8
Layer_0
  10
310.35156
  20
255.08966
  42
-0.092007459
  0
VERTEX
  5
118
  8
Layer_0
  10
310.12112
  20
254.88414
  0
VERTEX
  5
119
  8
Layer_0
  10
310.10327
  20
254.87363
  42
-0.13294888
  0
VERTEX
  5
11a
  8
Layer_0
  10
309.63818
  20
254.75522
  0
VERTEX
  5
11b
  8
Layer_0
  10
309.6001
  20
254.7558
  42
-0.21975944
  0
VERTEX
  5
11c
  8
Layer_0
  10
308.88715
  20
255.0939
  0
VERTEX
  5
11d
  8
Layer_0
  10
308.86343
  20
255.12288
  42
-0.16027399
  0
VERTEX
  5
11e
  8
Layer_0
  10
308.59656
  20
256.21021
  0
VERTEX
  5
11f
  8
Layer_0
  10
308.59711
  20
256.28186
  42
-0.16468718
  0
VERTEX
  5
120
  8
Layer_0
  10
308.91785
  20
257.47485
  42
-0.2361507
  0
VERTEX
  5
121
  8
Layer_0
  10
309.67297
  20
257.81866
  42
-0.18663565
  0
VERTEX
  5
122
  8
Layer_0
  10
310.25311
  20
257.62015
  42
-0.18729119
  0
VERTEX
  5
123
  8
Layer_0
  10
310.52426
  20
257.07172
  0
VERTEX
  5
124
  8
Layer_0
  10
310.15796
  20
257.04308
  0
VERTEX
  5
125
  8
Layer_0
  10
310.15381
  20
257.06094
  42
0.12449023
  0
VERTEX
  5
126
  8
Layer_0
  10
310.0188
  20
257.35822
  42
0.2133687
  0
VERTEX
  5
127
  8
Layer_0
  10
309.65045
  20
257.51579
  42
0.16490315
  0
VERTEX
  5
128
  8
Layer_0
  10
309.34143
  20
257.41757
  42
0.063503183
  0
VERTEX
  5
129
  8
Layer_0
  10
309.20929
  20
257.29158
  42
0.074375238
  0
VERTEX
  5
12a
  8
Layer_0
  10
309.06723
  20
257.04718
  0
VERTEX
  5
12b
  8
Layer_0
  10
309.05905
  20
257.02652
  0
VERTEX
  5
12c
  8
Layer_0
  10
309.05118
  20
257.00516
  42
0.07959058
  0
VERTEX
  5
12d
  8
Layer_0
  10
308.96286
  20
256.35345
  0
VERTEX
  5
12e
  8
Layer_0
  10
308.97406
  20
256.37015
  42
-0.12678502
  0
VERTEX
  5
12f
  8
Layer_0
  10
309.28824
  20
256.65427
  0
SEQEND
  0
POLYLINE
  5
131
  8
Layer_0
  62
3
  66
1
  10
0
  20
0
  30
0
  0
VERTEX
  5
131
  8
Layer_0
  10
309.63202
  20
255.05807
  0
VERTEX
  5
132
  8
Layer_0
  10
309.65137
  20
255.05841
  42
0.21245079
  0
VERTEX
  5
133
  8
Layer_0
  10
310.03314
  20
255.24635
  42
0.18769148
  0
VERTEX
  5
134
  8
Layer_0
  10
310.20093
  20
255.75795
  42
0.19263305
  0
VERTEX
  5
135
  8
Layer_0
  10
310.03516
  20
256.24805
  42
0.21653636
  0
VERTEX
  5
136
  8
Layer_0
  10
309.61771
  20
256.42712
  42
0.21019285
  0
VERTEX
  5
137
  8
Layer_0
  10
309.19409
  20
256.24805
  42
0.017630731
  0
VERTEX
  5
138
  8
Layer_0
  10
309.16632
  20
256.21744
  42
0.18143757
  0
VERTEX
  5
139
  8
Layer_0
  10
309.02017
  20
255.77841
  0
VERTEX
  5
13a
  8
Layer_0
  10
309.02072
  20
255.74681
  42
0.10028474
  0
VERTEX
  5
13b
  8
Layer_0
  10
309.10101
  20
255.41415
  0
VERTEX
  5
13c
  8
Layer_0
  10
309.11493
  20
255.38574
  42
0.13686953
  0
VERTEX
  5
13d
  8
Layer_0
  10
309.32712
  20
255.14914
  0
VERTEX
  5
13e
  8
Layer_0
  10
309.35144
  20
255.13461
  42
0.13273859
  0
VERTEX
  5
13f
  8
Layer_0
  10
309.63202
  20
255.05807
  0
SEQEND
  0
POLYLINE
  5
141
  8
Layer_0
  62
3
  66
1
  10
0
  20
0
  30
0
  0
VERTEX
  5
141
  8
Layer_0
  10
313.14771
  20
253.97351
  0
VERTEX
  5
142
  8
Layer_0
  10
313.14771
  20
254.23953
  0
VERTEX
  5
143
  8
Layer_0
  10
310.70639
  20
254.23953
  0
VERTEX
  5
144
  8
Layer_0
  10
310.70639
  20
253.97351
  0
VERTEX
  5
145
  8
Layer_0
  10
313.14771
  20
253.97351
  0
SEQEND
  0
POLYLINE
  5
147
  8
Layer_0
  62
3
  66
1
  10
0
  20
0
  30
0
  0
VERTEX
  5
147
  8
Layer_0
  10
315.52664
  20
256.13039
  0
VERTEX
  5
148
  8
Layer_0
  10
315.53857
  20
256.11424
  42
-0.16009592
  0
VERTEX
  5
149
  8
Layer_0
  10
315.67297
  20
255.67609
  42
-0.11583733
  0
VERTEX
  5
14a
  8
Layer_0
  10
315.58395
  20
255.28421
  42
-0.052658197
  0
VERTEX
  5
14b
  8
Layer_0
  10
315.48444
  20
255.12383
  42
-0.066753768
  0
VERTEX
  5
14c
  8
Layer_0
  10
315.36395
  20
255.00488
  0
VERTEX
  5
14d
  8
Layer_0
  10
315.34167
  20
254.98885
  42
-0.08881195
  0
VERTEX
  5
14e
  8
Layer_0
  10
315.03552
  20
254.85651
  0
VERTEX
  5
14f
  8
Layer_0
  10
315.00198
  20
254.84851
  42
-0.053835228
  0
VERTEX
  5
150
  8
Layer_0
  10
314.55154
  20
254.80638
  0
VERTEX
  5
151
  8
Layer_0
  10
313.40762
  20
254.80638
  0
VERTEX
  5
152
  8
Layer_0
  10
313.40762
  20
257.80638
  0
VERTEX
  5
153
  8
Layer_0
  10
314.53314
  20
257.80638
  42
-0.10153068
  0
VERTEX
  5
154
  8
Layer_0
  10
315.08463
  20
257.71532
  42
-0.15509415
  0
VERTEX
  5
155
  8
Layer_0
  10
315.41
  20
257.43497
  42
-0.14233948
  0
VERTEX
  5
156
  8
Layer_0
  10
315.52768
  20
257.03899
  42
-0.13884798
  0
VERTEX
  5
157
  8
Layer_0
  10
315.42331
  20
256.67677
  0
VERTEX
  5
158
  8
Layer_0
  10
315.41443
  20
256.66273
  0
VERTEX
  5
159
  8
Layer_0
  10
315.40518
  20
256.64893
  42
-0.12795488
  0
VERTEX
  5
15a
  8
Layer_0
  10
315.10815
  20
256.40256
  42
-0.16236108
  0
VERTEX
  5
15b
  8
Layer_0
  10
315.52664
  20
256.13039
  0
SEQEND
  0
POLYLINE
  5
15d
  8
Layer_0
  62
3
  66
1
  10
0
  20
0
  30
0
  0
VERTEX
  5
15d
  8
Layer_0
  10
313.80463
  20
257.45236
  0
VERTEX
  5
15e
  8
Layer_0
  10
314.40421
  20
257.45236
  42
-0.057797556
  0
VERTEX
  5
15f
  8
Layer_0
  10
314.83707
  20
257.41711
  0
VERTEX
  5
160
  8
Layer_0
  10
314.84912
  20
257.41382
  0
VERTEX
  5
161
  8
Layer_0
  10
314.86053
  20
257.4104
  42
-0.18321384
  0
VERTEX
  5
162
  8
Layer_0
  10
315.06519
  20
257.25488
  42
-0.12842913
  0
VERTEX
  5
163
  8
Layer_0
  10
315.13483
  20
257.04071
  0
VERTEX
  5
164
  8
Layer_0
  10
315.13632
  20
257.01657
  0
VERTEX
  5
165
  8
Layer_0
  10
315.13681
  20
256.99191
  42
-0.16750104
  0
VERTEX
  5
166
  8
Layer_0
  10
315.06006
  20
256.72998
  42
-0.15464385
  0
VERTEX
  5
167
  8
Layer_0
  10
314.85663
  20
256.5885
  0
VERTEX
  5
168
  8
Layer_0
  10
314.83191
  20
256.5806
  42
-0.064910967
  0
VERTEX
  5
169
  8
Layer_0
  10
314.47507
  20
256.54587
  0
VERTEX
  5
16a
  8
Layer_0
  10
314.45331
  20
256.54581
  0
VERTEX
  5
16b
  8
Layer_0
  10
313.80463
  20
256.54581
  0
VERTEX
  5
16c
  8
Layer_0
  10
313.80463
  20
257.45236
  0
SEQEND
  0
POLYLINE
  5
16e
  8
Layer_0
  62
3
  66
1
  10
0
  20
0
  30
0
  0
VERTEX
  5
16e
  8
Layer_0
  10
313.80463
  20
256.19177
  0
VERTEX
  5
16f
  8
Layer_0
  10
314.49835
  20
256.19177
  42
-0.065583696
  0
VERTEX
  5
170
  8
Layer_0
  10
314.91095
  20
256.14966
  0
VERTEX
  5
171
  8
Layer_0
  10
314.92435
  20
256.14574
  0
VERTEX
  5
172
  8
Layer_0
  10
314.93729
  20
256.14165
  42
-0.16667387
  0
VERTEX
  5
173
  8
Layer_0
  10
315.17569
  20
255.96771
  42
-0.15776798
  0
VERTEX
  5
174
  8
Layer_0
  10
315.26166
  20
255.67609
  42
-0.12405581
  0
VERTEX
  5
175
  8
Layer_0
  10
315.2023
  20
255.42337
  42
-0.099036782
  0
VERTEX
  5
176
  8
Layer_0
  10
315.09485
  20
255.2885
  0
VERTEX
  5
177
  8
Layer_0
  10
315.08063
  20
255.27713
  42
0.034059946
  0
VERTEX
  5
178
  8
Layer_0
  10
315.05087
  20
255.25659
  42
-0.087791185
  0
VERTEX
  5
179
  8
Layer_0
  10
314.84421
  20
255.17905
  0
VERTEX
  5
17a
  8
Layer_0
  10
314.82166
  20
255.17473
  42
-0.039937869
  0
VERTEX
  5
17b
  8
Layer_0
  10
314.61249
  20
255.1608
  0
VERTEX
  5
17c
  8
Layer_0
  10
314.55154
  20
255.1604
  0
VERTEX
  5
17d
  8
Layer_0
  10
313.80463
  20
255.1604
  0
VERTEX
  5
17e
  8
Layer_0
  10
313.80463
  20
256.19177
  0
SEQEND
  0
POLYLINE
  5
180
  8
Layer_0
  62
3
  66
1
  10
0
  20
0
  30
0
  0
VERTEX
  5
180
  8
Layer_0
  10
317.16068
  20
255.70679
  0
VERTEX
  5
181
  8
Layer_0
  10
317.16068
  20
256.07718
  0
VERTEX
  5
182
  8
Layer_0
  10
316.02902
  20
256.07718
  0
VERTEX
  5
183
  8
Layer_0
  10
316.02902
  20
255.70679
  0
VERTEX
  5
184
  8
Layer_0
  10
317.16068
  20
255.70679
  0
SEQEND
  0
POLYLINE
  5
186
  8
Layer_0
  62
3
  66
1
  10
0
  20
0
  30
0
  0
VERTEX
  5
186
  8
Layer_0
  10
318.08563
  20
255.35992
  42
-0.023822891
  0
VERTEX
  5
187
  8
Layer_0
  10
318.51129
  20
255.73749
  42
0.023985551
  0
VERTEX
  5
188
  8
Layer_0
  10
319.01593
  20
256.19736
  0
VERTEX
  5
189
  8
Layer_0
  10
319.03293
  20
256.21512
  0
VERTEX
  5
18a
  8
Layer_0
  10
319.04913
  20
256.23239
  0
VERTEX
  5
18b
  8
Layer_0
  10
319.06454
  20
256.24918
  0
VERTEX
  5
18c
  8
Layer_0
  10
319.07916
  20
256.26544
  42
0.071824993
  0
VERTEX
  5
18d
  8
Layer_0
  10
319.31076
  20
256.60263
  0
VERTEX
  5
18e
  8
Layer_0
  10
319.32373
  20
256.63174
  42
0.10147891
  0
VERTEX
  5
18f
  8
Layer_0
  10
319.3974
  20
256.98578
  42
0.21317054
  0
VERTEX
  5
190
  8
Layer_0
  10
319.14569
  20
257.57922
  42
0.19778733
  0
VERTEX
  5
191
  8
Layer_0
  10
318.46219
  20
257.81866
  42
0.18455827
  0
VERTEX
  5
192
  8
Layer_0
  10
317.78073
  20
257.59662
  42
0.18448068
  0
VERTEX
  5
193
  8
Layer_0
  10
317.49609
  20
257.0202
  0
VERTEX
  5
194
  8
Layer_0
  10
317.49173
  20
256.98593
  0
VERTEX
  5
195
  8
Layer_0
  10
317.4881
  20
256.95099
  0
VERTEX
  5
196
  8
Layer_0
  10
317.8667
  20
256.91211
  42
-0.13101238
  0
VERTEX
  5
197
  8
Layer_0
  10
317.94864
  20
257.25058
  0
VERTEX
  5
198
  8
Layer_0
  10
317.95837
  20
257.26665
  42
0.013069506
  0
VERTEX
  5
199
  8
Layer_0
  10
317.99091
  20
257.3123
  0
VERTEX
  5
19a
  8
Layer_0
  10
318.00284
  20
257.32668
  0
VERTEX
  5
19b
  8
Layer_0
  10
318.01532
  20
257.34061
  0
VERTEX
  5
19c
  8
Layer_0
  10
318.02835
  20
257.35413
  42
-0.20478564
  0
VERTEX
  5
19d
  8
Layer_0
  10
318.45401
  20
257.51375
  42
-0.20125831
  0
VERTEX
  5
19e
  8
Layer_0
  10
318.86224
  20
257.36334
  42
-0.14645541
  0
VERTEX
  5
19f
  8
Layer_0
  10
319.00549
  20
257.11586
  42
-0.023046439
  0
VERTEX
  5
1a0
  8
Layer_0
  10
319.01202
  20
257.08221
  42
-0.016233989
  0
VERTEX
  5
1a1
  8
Layer_0
  10
319.01636
  20
257.04764
  0
VERTEX
  5
1a2
  8
Layer_0
  10
319.0177
  20
257.02998
  0
VERTEX
  5
1a3
  8
Layer_0
  10
319.01852
  20
257.01208
  0
VERTEX
  5
1a4
  8
Layer_0
  10
319.0188
  20
256.99396
  42
-0.15992344
  0
VERTEX
  5
1a5
  8
Layer_0
  10
318.84692
  20
256.55092
  42
-0.056041251
  0
VERTEX
  5
1a6
  8
Layer_0
  10
318.22614
  20
255.94865
  0
VERTEX
  5
1a7
  8
Layer_0
  10
318.18591
  20
255.91553
  42
0.043694062
  0
VERTEX
  5
1a8
  8
Layer_0
  10
317.70401
  20
255.46121
  42
0.077890194
  0
VERTEX
  5
1a9
  8
Layer_0
  10
317.47476
  20
255.0959
  0
VERTEX
  5
1aa
  8
Layer_0
  10
317.46149
  20
255.06218
  42
0.061241501
  0
VERTEX
  5
1ab
  8
Layer_0
  10
317.42401
  20
254.91544
  0
VERTEX
  5
1ac
  8
Layer_0
  10
317.42148
  20
254.89392
  0
VERTEX
  5
1ad
  8
Layer_0
  10
317.41968
  20
254.87225
  0
VERTEX
  5
1ae
  8
Layer_0
  10
317.41858
  20
254.85043
  0
VERTEX
  5
1af
  8
Layer_0
  10
317.41821
  20
254.82848
  0
VERTEX
  5
1b0
  8
Layer_0
  10
317.41852
  20
254.80638
  0
VERTEX
  5
1b1
  8
Layer_0
  10
319.40149
  20
254.80638
  0
VERTEX
  5
1b2
  8
Layer_0
  10
319.40149
  20
255.1604
  0
VERTEX
  5
1b3
  8
Layer_0
  10
317.93011
  20
255.1604
  42
-0.045541682
  0
VERTEX
  5
1b4
  8
Layer_0
  10
318.05518
  20
255.32681
  42
-0.0044057553
  0
VERTEX
  5
1b5
  8
Layer_0
  10
318.08563
  20
255.35992
  0
SEQEND
  0
POLYLINE
  5
1b7
  8
Layer_1
  62
1
  66
1
  10
0
  20
0
  30
0
  0
VERTEX
  5
1b7
  8
Layer_1
  10
332.6629
  20
171.73367
  0
VERTEX
  5
1b8
  8
Layer_1
  10
332.6629
  20
156.73367
  0
SEQEND
  0
POLYLINE
  5
1ba
  8
Layer_1
  62
1
  66
1
  10
0
  20
0
  30
0
  0
VERTEX
  5
1ba
  8
Layer_1
  10
332.6629
  20
156.73367
  0
VERTEX
  5
1bb
  8
Layer_1
  10
332.6629
  20
148.23367
  0
SEQEND
  0
POLYLINE
  5
1bd
  8
Layer_1
  62
1
  66
1
  10
0
  20
0
  30
0
  0
VERTEX
  5
1bd
  8
Layer_1
  10
332.6629
  20
148.23367
  0
VERTEX
  5
1be
  8
Layer_1
  10
335.6629
  20
148.23367
  0
SEQEND
  0
POLYLINE
  5
1c0
  8
Layer_1
  62
1
  66
1
  10
0
  20
0
  30
0
  0
VERTEX
  5
1c0
  8
Layer_1
  10
335.6629
  20
148.23367
  0
VERTEX
  5
1c1
  8
Layer_1
  10
335.6629
  20
133.23367
  0
SEQEND
  0
POLYLINE
  5
1c3
  8
Layer_1
  62
1
  66
1
  10
0
  20
0
  30
0
  0
VERTEX
  5
1c3
  8
Layer_1
  10
335.6629
  20
133.23367
  0
VERTEX
  5
1c4
  8
Layer_1
  10
332.6629
  20
133.23367
  0
SEQEND
  0
POLYLINE
  5
1c6
  8
Layer_1
  62
1
  66
1
  10
0
  20
0
  30
0
  0
VERTEX
  5
1c6
  8
Layer_1
  10
332.6629
  20
133.23367
  0
VERTEX
  5
1c7
  8
Layer_1
  10
332.6629
  20
121.73367
  0
SEQEND
  0
POLYLINE
  5
1c9
  8
Layer_1
  62
1
  66
1
  10
0
  20
0
  30
0
  0
VERTEX
  5
1c9
  8
Layer_1
  10
332.6629
  20
121.73367
  0
VERTEX
  5
1ca
  8
Layer_1
  10
322.61292
  20
121.73367
  0
SEQEND
  0
POLYLINE
  5
1cc
  8
Layer_1
  62
1
  66
1
  10
0
  20
0
  30
0
  0
VERTEX
  5
1cc
  8
Layer_1
  10
322.61292
  20
121.73367
  0
VERTEX
  5
1cd
  8
Layer_1
  10
322.61292
  20
124.73367
  0
SEQEND
  0
POLYLINE
  5
1cf
  8
Layer_1
  62
1
  66
1
  10
0
  20
0
  30
0
  0
VERTEX
  5
1cf
  8
Layer_1
  10
322.61292
  20
124.73367
  0
VERTEX
  5
1d0
  8
Layer_1
  10
292.71289
  20
124.73367
  0
SEQEND
  0
POLYLINE
  5
1d2
  8
Layer_1
  62
1
  66
1
  10
0
  20
0
  30
0
  0
VERTEX
  5
1d2
  8
Layer_1
  10
292.71289
  20
124.73367
  0
VERTEX
  5
1d3
  8
Layer_1
  10
292.71289
  20
121.73367
  0
SEQEND
  0
POLYLINE
  5
1d5
  8
Layer_1
  62
1
  66
1
  10
0
  20
0
  30
0
  0
VERTEX
  5
1d5
  8
Layer_1
  10
292.71289
  20
121.73367
  0
VERTEX
  5
1d6
  8
Layer_1
  10
272.61292
  20
121.73367
  0
SEQEND
  0
POLYLINE
  5
1d8
  8
Layer_1
  62
1
  66
1
  10
0
  20
0
  30
0
  0
VERTEX
  5
1d8
  8
Layer_1
  10
272.61292
  20
121.73367
  0
VERTEX
  5
1d9
  8
Layer_1
  10
272.61292
  20
124.73367
  0
SEQEND
  0
POLYLINE
  5
1db
  8
Layer_1
  62
1
  66
1
  10
0
  20
0
  30
0
  0
VERTEX
  5
1db
  8
Layer_1
  10
272.61292
  20
124.73367
  0
VERTEX
  5
1dc
  8
Layer_1
  10
242.71291
  20
124.73367
  0
SEQEND
  0
POLYLINE
  5
1de
  8
Layer_1
  62
1
  66
1
  10
0
  20
0
  30
0
  0
VERTEX
  5
1de
  8
Layer_1
  10
242.71291
  20
124.73367
  0
VERTEX
  5
1df
  8
Layer_1
  10
242.71291
  20
121.73367
  0
SEQEND
  0
POLYLINE
  5
1e1
  8
Layer_1
  62
1
  66
1
  10
0
  20
0
  30
0
  0
VERTEX
  5
1e1
  8
Layer_1
  10
242.71291
  20
121.73367
  0
VERTEX
  5
1e2
  8
Layer_1
  10
232.6629
  20
121.73367
  0
SEQEND
  0
POLYLINE
  5
1e4
  8
Layer_1
  62
1
  66
1
  10
0
  20
0
  30
0
  0
VERTEX
  5
1e4
  8
Layer_1
  10
232.6629
  20
177.73367
  0
VERTEX
  5
1e5
  8
Layer_1
  10
229.6629
  20
177.73367
  0
SEQEND
  0
POLYLINE
  5
1e7
  8
Layer_1
  62
1
  66
1
  10
0
  20
0
  30
0
  0
VERTEX
  5
1e7
  8
Layer_1
  10
229.6629
  20
177.73367
  0
VERTEX
  5
1e8
  8
Layer_1
  10
229.6629
  20
207.73367
  0
SEQEND
  0
POLYLINE
  5
1ea
  8
Layer_1
  62
1
  66
1
  10
0
  20
0
  30
0
  0
VERTEX
  5
1ea
  8
Layer_1
  10
229.6629
  20
207.73367
  0
VERTEX
  5
1eb
  8
Layer_1
  10
232.6629
  20
207.73367
  0
SEQEND
  0
POLYLINE
  5
1ed
  8
Layer_1
  62
1
  66
1
  10
0
  20
0
  30
0
  0
VERTEX
  5
1ed
  8
Layer_1
  10
242.6629
  20
228.73367
  0
VERTEX
  5
1ee
  8
Layer_1
  10
272.6629
  20
228.73367
  0
SEQEND
  0
POLYLINE
  5
1f0
  8
Layer_1
  62
1
  66
1
  10
0
  20
0
  30
0
  0
VERTEX
  5
1f0
  8
Layer_1
  10
272.6629
  20
228.73367
  0
VERTEX
  5
1f1
  8
Layer_1
  10
272.6629
  20
225.63367
  0
SEQEND
  0
POLYLINE
  5
1f3
  8
Layer_1
  62
1
  66
1
  10
0
  20
0
  30
0
  0
VERTEX
  5
1f3
  8
Layer_1
  10
272.6629
  20
225.63367
  0
VERTEX
  5
1f4
  8
Layer_1
  10
242.6629
  20
225.63367
  0
SEQEND
  0
POLYLINE
  5
1f6
  8
Layer_1
  62
1
  66
1
  10
0
  20
0
  30
0
  0
VERTEX
  5
1f6
  8
Layer_1
  10
242.6629
  20
225.63367
  0
VERTEX
  5
1f7
  8
Layer_1
  10
242.6629
  20
228.73367
  0
SEQEND
  0
POLYLINE
  5
1f9
  8
Layer_1
  62
1
  66
1
  10
0
  20
0
  30
0
  0
VERTEX
  5
1f9
  8
Layer_1
  10
232.6629
  20
159.73924
  0
VERTEX
  5
1fa
  8
Layer_1
  10
232.6629
  20
177.73367
  0
SEQEND
  0
POLYLINE
  5
1fc
  8
Layer_1
  62
1
  66
1
  10
0
  20
0
  30
0
  0
VERTEX
  5
1fc
  8
Layer_1
  10
332.6629
  20
156.73367
  0
VERTEX
  5
1fd
  8
Layer_1
  10
332.6629
  20
177.73367
  0
SEQEND
  0
POLYLINE
  5
1ff
  8
Layer_1
  62
1
  66
1
  10
0
  20
0
  30
0
  0
VERTEX
  5
1ff
  8
Layer_1
  10
332.6629
  20
177.73367
  0
VERTEX
  5
200
  8
Layer_1
  10
335.6629
  20
177.73367
  0
SEQEND
  0
POLYLINE
  5
202
  8
Layer_1
  62
1
  66
1
  10
0
  20
0
  30
0
  0
VERTEX
  5
202
  8
Layer_1
  10
335.6629
  20
177.73367
  0
VERTEX
  5
203
  8
Layer_1
  10
335.6629
  20
207.73367
  0
SEQEND
  0
POLYLINE
  5
205
  8
Layer_1
  62
1
  66
1
  10
0
  20
0
  30
0
  0
VERTEX
  5
205
  8
Layer_1
  10
335.6629
  20
207.73367
  0
VERTEX
  5
206
  8
Layer_1
  10
332.6629
  20
207.73367
  0
SEQEND
  0
POLYLINE
  5
208
  8
Layer_1
  62
1
  66
1
  10
0
  20
0
  30
0
  0
VERTEX
  5
208
  8
Layer_1
  10
332.6629
  20
207.73367
  0
VERTEX
  5
209
  8
Layer_1
  10
332.6629
  20
228.73367
  0
SEQEND
  0
POLYLINE
  5
20b
  8
Layer_1
  62
1
  66
1
  10
0
  20
0
  30
0
  0
VERTEX
  5
20b
  8
Layer_1
  10
322.6629
  20
228.73367
  0
VERTEX
  5
20c
  8
Layer_1
  10
292.6629
  20
228.73367
  0
SEQEND
  0
POLYLINE
  5
20e
  8
Layer_1
  62
1
  66
1
  10
0
  20
0
  30
0
  0
VERTEX
  5
20e
  8
Layer_1
  10
292.6629
  20
228.73367
  0
VERTEX
  5
20f
  8
Layer_1
  10
292.6629
  20
225.63367
  0
SEQEND
  0
POLYLINE
  5
211
  8
Layer_1
  62
1
  66
1
  10
0
  20
0
  30
0
  0
VERTEX
  5
211
  8
Layer_1
  10
292.6629
  20
225.63367
  0
VERTEX
  5
212
  8
Layer_1
  10
322.6629
  20
225.63367
  0
SEQEND
  0
POLYLINE
  5
214
  8
Layer_1
  62
1
  66
1
  10
0
  20
0
  30
0
  0
VERTEX
  5
214
  8
Layer_1
  10
322.6629
  20
225.63367
  0
VERTEX
  5
215
  8
Layer_1
  10
322.6629
  20
228.73367
  0
SEQEND
  0
POLYLINE
  5
217
  8
Layer_1
  62
1
  66
1
  10
0
  20
0
  30
0
  0
VERTEX
  5
217
  8
Layer_1
  10
232.6629
  20
207.73367
  0
VERTEX
  5
218
  8
Layer_1
  10
232.6629
  20
225.73401
  0
SEQEND
  0
ENDSEC
  0
EOF
