  0
SECTION
  2
HEADER
  9
$ACADVER
  1
AC1009
  0
ENDSEC
  0
SECTION
  2
ENTITIES
  0
CIRCLE
  5
90
  8
Layer_0
  62
1
  10
154.5
  20
185.85809
  30
0
  40
1.5
  0
CIRCLE
  5
90
  8
Layer_0
  62
1
  10
239.5
  20
185.85809
  30
0
  40
1.5
  0
CIRCLE
  5
90
  8
Layer_0
  62
1
  10
154.5
  20
236.65811
  30
0
  40
1.5
  0
CIRCLE
  5
90
  8
Layer_0
  62
1
  10
239.5
  20
236.65811
  30
0
  40
1.5
  0
CIRCLE
  5
90
  8
Layer_0
  62
1
  10
79.5
  20
167.75812
  30
0
  40
1.5
  0
CIRCLE
  5
90
  8
Layer_0
  62
1
  10
79.5
  20
150.75809
  30
0
  40
1.5
  0
CIRCLE
  5
90
  8
Layer_0
  62
1
  10
239.5
  20
150.75809
  30
0
  40
1.5
  0
CIRCLE
  5
90
  8
Layer_0
  62
1
  10
239.5
  20
271.75812
  30
0
  40
1.5
  0
CIRCLE
  5
90
  8
Layer_0
  62
1
  10
79.5
  20
254.7581
  30
0
  40
1.5
  0
CIRCLE
  5
90
  8
Layer_0
  62
1
  10
79.5
  20
271.75812
  30
0
  40
1.5
  0
CIRCLE
  5
90
  8
Layer_0
  62
1
  10
227
  20
211.25812
  30
0
  40
10
  0
POLYLINE
  5
90
  8
Layer_0
  62
1
  66
1
  10
0
  20
0
  30
0
  0
VERTEX
  5
90
  8
Layer_0
  10
207
  20
178.35812
  0
VERTEX
  5
91
  8
Layer_0
  10
207
  20
175.25812
  0
VERTEX
  5
92
  8
Layer_0
  10
237
  20
175.25812
  0
VERTEX
  5
93
  8
Layer_0
  10
237
  20
178.35812
  0
VERTEX
  5
94
  8
Layer_0
  10
207
  20
178.35812
  0
SEQEND
  0
POLYLINE
  5
96
  8
Layer_0
  62
1
  66
1
  10
0
  20
0
  30
0
  0
VERTEX
  5
96
  8
Layer_0
  10
187
  20
247.25812
  0
VERTEX
  5
97
  8
Layer_0
  10
187
  20
244.15811
  0
VERTEX
  5
98
  8
Layer_0
  10
157
  20
244.15811
  0
VERTEX
  5
99
  8
Layer_0
  10
157
  20
247.25812
  0
SEQEND
  0
POLYLINE
  5
9b
  8
Layer_0
  62
1
  66
1
  10
0
  20
0
  30
0
  0
VERTEX
  5
9b
  8
Layer_0
  10
207
  20
247.25812
  0
VERTEX
  5
9c
  8
Layer_0
  10
207
  20
244.15811
  0
VERTEX
  5
9d
  8
Layer_0
  10
237
  20
244.15811
  0
VERTEX
  5
9e
  8
Layer_0
  10
237
  20
247.25812
  0
SEQEND
  0
POLYLINE
  5
a0
  8
Layer_0
  62
1
  66
1
  10
0
  20
0
  30
0
  0
VERTEX
  5
a0
  8
Layer_0
  10
247
  20
175.25812
  0
VERTEX
  5
a1
  8
Layer_0
  10
247
  20
196.25812
  0
VERTEX
  5
a2
  8
Layer_0
  10
250
  20
196.25812
  0
VERTEX
  5
a3
  8
Layer_0
  10
250
  20
226.25812
  0
VERTEX
  5
a4
  8
Layer_0
  10
247
  20
226.25812
  0
VERTEX
  5
a5
  8
Layer_0
  10
247
  20
247.25812
  0
SEQEND
  0
POLYLINE
  5
a7
  8
Layer_0
  62
1
  66
1
  10
0
  20
0
  30
0
  0
VERTEX
  5
a7
  8
Layer_0
  10
157
  20
175.25812
  0
VERTEX
  5
a8
  8
Layer_0
  10
187
  20
175.25812
  0
SEQEND
  0
POLYLINE
  5
aa
  8
Layer_0
  62
1
  66
1
  10
0
  20
0
  30
0
  0
VERTEX
  5
aa
  8
Layer_0
  10
187
  20
175.25812
  0
VERTEX
  5
ab
  8
Layer_0
  10
187
  20
178.35812
  0
SEQEND
  0
POLYLINE
  5
ad
  8
Layer_0
  62
1
  66
1
  10
0
  20
0
  30
0
  0
VERTEX
  5
ad
  8
Layer_0
  10
187
  20
178.35812
  0
VERTEX
  5
ae
  8
Layer_0
  10
157
  20
178.35812
  0
SEQEND
  0
POLYLINE
  5
b0
  8
Layer_0
  62
1
  66
1
  10
0
  20
0
  30
0
  0
VERTEX
  5
b0
  8
Layer_0
  10
157
  20
178.35812
  0
VERTEX
  5
b1
  8
Layer_0
  10
157
  20
175.25812
  0
SEQEND
  0
POLYLINE
  5
b3
  8
Layer_0
  62
1
  66
1
  10
0
  20
0
  30
0
  0
VERTEX
  5
b3
  8
Layer_0
  10
147
  20
196.25812
  0
VERTEX
  5
b4
  8
Layer_0
  10
144
  20
196.25812
  0
SEQEND
  0
POLYLINE
  5
b6
  8
Layer_0
  62
1
  66
1
  10
0
  20
0
  30
0
  0
VERTEX
  5
b6
  8
Layer_0
  10
144
  20
196.25812
  0
VERTEX
  5
b7
  8
Layer_0
  10
144
  20
226.25812
  0
SEQEND
  0
POLYLINE
  5
b9
  8
Layer_0
  62
1
  66
1
  10
0
  20
0
  30
0
  0
VERTEX
  5
b9
  8
Layer_0
  10
144
  20
226.25812
  0
VERTEX
  5
ba
  8
Layer_0
  10
147
  20
226.25812
  0
SEQEND
  0
POLYLINE
  5
bc
  8
Layer_0
  62
1
  66
1
  10
0
  20
0
  30
0
  0
VERTEX
  5
bc
  8
Layer_0
  10
157
  20
247.25812
  0
VERTEX
  5
bd
  8
Layer_0
  10
187
  20
247.25812
  0
SEQEND
  0
POLYLINE
  5
bf
  8
Layer_0
  62
1
  66
1
  10
0
  20
0
  30
0
  0
VERTEX
  5
bf
  8
Layer_0
  10
207
  20
247.25812
  0
VERTEX
  5
c0
  8
Layer_0
  10
237
  20
247.25812
  0
SEQEND
  0
POLYLINE
  5
c2
  8
Layer_0
  62
1
  66
1
  10
0
  20
0
  30
0
  0
VERTEX
  5
c2
  8
Layer_0
  10
247
  20
247.25812
  0
VERTEX
  5
c3
  8
Layer_0
  10
247
  20
255.75812
  0
SEQEND
  0
POLYLINE
  5
c5
  8
Layer_0
  62
1
  66
1
  10
0
  20
0
  30
0
  0
VERTEX
  5
c5
  8
Layer_0
  10
247
  20
255.75812
  0
VERTEX
  5
c6
  8
Layer_0
  10
250
  20
255.75812
  0
SEQEND
  0
POLYLINE
  5
c8
  8
Layer_0
  62
1
  66
1
  10
0
  20
0
  30
0
  0
VERTEX
  5
c8
  8
Layer_0
  10
250
  20
255.75812
  0
VERTEX
  5
c9
  8
Layer_0
  10
250
  20
270.75812
  0
SEQEND
  0
POLYLINE
  5
cb
  8
Layer_0
  62
1
  66
1
  10
0
  20
0
  30
0
  0
VERTEX
  5
cb
  8
Layer_0
  10
250
  20
270.75812
  0
VERTEX
  5
cc
  8
Layer_0
  10
247
  20
270.75812
  0
SEQEND
  0
POLYLINE
  5
ce
  8
Layer_0
  62
1
  66
1
  10
0
  20
0
  30
0
  0
VERTEX
  5
ce
  8
Layer_0
  10
247
  20
270.75812
  0
VERTEX
  5
cf
  8
Layer_0
  10
247
  20
282.25812
  0
SEQEND
  0
POLYLINE
  5
d1
  8
Layer_0
  62
1
  66
1
  10
0
  20
0
  30
0
  0
VERTEX
  5
d1
  8
Layer_0
  10
247
  20
282.25812
  0
VERTEX
  5
d2
  8
Layer_0
  10
236.95
  20
282.25812
  0
SEQEND
  0
POLYLINE
  5
d4
  8
Layer_0
  62
1
  66
1
  10
0
  20
0
  30
0
  0
VERTEX
  5
d4
  8
Layer_0
  10
236.95
  20
282.25812
  0
VERTEX
  5
d5
  8
Layer_0
  10
236.95
  20
279.25812
  0
SEQEND
  0
POLYLINE
  5
d7
  8
Layer_0
  62
1
  66
1
  10
0
  20
0
  30
0
  0
VERTEX
  5
d7
  8
Layer_0
  10
236.95
  20
279.25812
  0
VERTEX
  5
d8
  8
Layer_0
  10
207.05
  20
279.25812
  0
SEQEND
  0
POLYLINE
  5
da
  8
Layer_0
  62
1
  66
1
  10
0
  20
0
  30
0
  0
VERTEX
  5
da
  8
Layer_0
  10
207.05
  20
279.25812
  0
VERTEX
  5
db
  8
Layer_0
  10
207.05
  20
282.25812
  0
SEQEND
  0
POLYLINE
  5
dd
  8
Layer_0
  62
1
  66
1
  10
0
  20
0
  30
0
  0
VERTEX
  5
dd
  8
Layer_0
  10
207.05
  20
282.25812
  0
VERTEX
  5
de
  8
Layer_0
  10
186.95
  20
282.25812
  0
SEQEND
  0
POLYLINE
  5
e0
  8
Layer_0
  62
1
  66
1
  10
0
  20
0
  30
0
  0
VERTEX
  5
e0
  8
Layer_0
  10
186.95
  20
282.25812
  0
VERTEX
  5
e1
  8
Layer_0
  10
186.95
  20
279.25812
  0
SEQEND
  0
POLYLINE
  5
e3
  8
Layer_0
  62
1
  66
1
  10
0
  20
0
  30
0
  0
VERTEX
  5
e3
  8
Layer_0
  10
186.95
  20
279.25812
  0
VERTEX
  5
e4
  8
Layer_0
  10
157.05
  20
279.25812
  0
SEQEND
  0
POLYLINE
  5
e6
  8
Layer_0
  62
1
  66
1
  10
0
  20
0
  30
0
  0
VERTEX
  5
e6
  8
Layer_0
  10
157.05
  20
279.25812
  0
VERTEX
  5
e7
  8
Layer_0
  10
157.05
  20
282.25812
  0
SEQEND
  0
POLYLINE
  5
e9
  8
Layer_0
  62
1
  66
1
  10
0
  20
0
  30
0
  0
VERTEX
  5
e9
  8
Layer_0
  10
157.05
  20
282.25812
  0
VERTEX
  5
ea
  8
Layer_0
  10
147
  20
282.25812
  0
SEQEND
  0
POLYLINE
  5
ec
  8
Layer_0
  62
1
  66
1
  10
0
  20
0
  30
0
  0
VERTEX
  5
ec
  8
Layer_0
  10
147
  20
282.25812
  0
VERTEX
  5
ed
  8
Layer_0
  10
124.45
  20
282.25812
  0
SEQEND
  0
POLYLINE
  5
ef
  8
Layer_0
  62
1
  66
1
  10
0
  20
0
  30
0
  0
VERTEX
  5
ef
  8
Layer_0
  10
124.45
  20
282.25812
  0
VERTEX
  5
f0
  8
Layer_0
  10
124.45
  20
279.25812
  0
SEQEND
  0
POLYLINE
  5
f2
  8
Layer_0
  62
1
  66
1
  10
0
  20
0
  30
0
  0
VERTEX
  5
f2
  8
Layer_0
  10
124.45
  20
279.25812
  0
VERTEX
  5
f3
  8
Layer_0
  10
94.550003
  20
279.25812
  0
SEQEND
  0
POLYLINE
  5
f5
  8
Layer_0
  62
1
  66
1
  10
0
  20
0
  30
0
  0
VERTEX
  5
f5
  8
Layer_0
  10
94.550003
  20
279.25812
  0
VERTEX
  5
f6
  8
Layer_0
  10
94.550003
  20
282.25812
  0
SEQEND
  0
POLYLINE
  5
f8
  8
Layer_0
  62
1
  66
1
  10
0
  20
0
  30
0
  0
VERTEX
  5
f8
  8
Layer_0
  10
94.550003
  20
282.25812
  0
VERTEX
  5
f9
  8
Layer_0
  10
72
  20
282.25812
  0
SEQEND
  0
POLYLINE
  5
fb
  8
Layer_0
  62
1
  66
1
  10
0
  20
0
  30
0
  0
VERTEX
  5
fb
  8
Layer_0
  10
72
  20
282.25812
  0
VERTEX
  5
fc
  8
Layer_0
  10
72
  20
270.75812
  0
SEQEND
  0
POLYLINE
  5
fe
  8
Layer_0
  62
1
  66
1
  10
0
  20
0
  30
0
  0
VERTEX
  5
fe
  8
Layer_0
  10
72
  20
270.75812
  0
VERTEX
  5
ff
  8
Layer_0
  10
69
  20
270.75812
  0
SEQEND
  0
POLYLINE
  5
101
  8
Layer_0
  62
1
  66
1
  10
0
  20
0
  30
0
  0
VERTEX
  5
101
  8
Layer_0
  10
69
  20
270.75812
  0
VERTEX
  5
102
  8
Layer_0
  10
69
  20
255.75812
  0
SEQEND
  0
POLYLINE
  5
104
  8
Layer_0
  62
1
  66
1
  10
0
  20
0
  30
0
  0
VERTEX
  5
104
  8
Layer_0
  10
69
  20
255.75812
  0
VERTEX
  5
105
  8
Layer_0
  10
72
  20
255.75812
  0
SEQEND
  0
POLYLINE
  5
107
  8
Layer_0
  62
1
  66
1
  10
0
  20
0
  30
0
  0
VERTEX
  5
107
  8
Layer_0
  10
72
  20
255.75812
  0
VERTEX
  5
108
  8
Layer_0
  10
72
  20
244.25812
  0
SEQEND
  0
POLYLINE
  5
10a
  8
Layer_0
  62
1
  66
1
  10
0
  20
0
  30
0
  0
VERTEX
  5
10a
  8
Layer_0
  10
72
  20
244.25812
  0
VERTEX
  5
10b
  8
Layer_0
  10
94.550003
  20
244.25812
  0
SEQEND
  0
POLYLINE
  5
10d
  8
Layer_0
  62
1
  66
1
  10
0
  20
0
  30
0
  0
VERTEX
  5
10d
  8
Layer_0
  10
94.550003
  20
244.25812
  0
VERTEX
  5
10e
  8
Layer_0
  10
94.550003
  20
247.25812
  0
SEQEND
  0
POLYLINE
  5
110
  8
Layer_0
  62
1
  66
1
  10
0
  20
0
  30
0
  0
VERTEX
  5
110
  8
Layer_0
  10
94.550003
  20
247.25812
  0
VERTEX
  5
111
  8
Layer_0
  10
124.45
  20
247.25812
  0
SEQEND
  0
POLYLINE
  5
113
  8
Layer_0
  62
1
  66
1
  10
0
  20
0
  30
0
  0
VERTEX
  5
113
  8
Layer_0
  10
124.45
  20
247.25812
  0
VERTEX
  5
114
  8
Layer_0
  10
124.45
  20
244.25812
  0
SEQEND
  0
POLYLINE
  5
116
  8
Layer_0
  62
1
  66
1
  10
0
  20
0
  30
0
  0
VERTEX
  5
116
  8
Layer_0
  10
124.45
  20
244.25812
  0
VERTEX
  5
117
  8
Layer_0
  10
147
  20
244.25812
  0
SEQEND
  0
POLYLINE
  5
119
  8
Layer_0
  62
1
  66
1
  10
0
  20
0
  30
0
  0
VERTEX
  5
119
  8
Layer_0
  10
147
  20
226.25812
  0
VERTEX
  5
11a
  8
Layer_0
  10
147
  20
244.25717
  0
SEQEND
  0
POLYLINE
  5
11c
  8
Layer_0
  62
1
  66
1
  10
0
  20
0
  30
0
  0
VERTEX
  5
11c
  8
Layer_0
  10
247
  20
175.25812
  0
VERTEX
  5
11d
  8
Layer_0
  10
247
  20
166.75812
  0
SEQEND
  0
POLYLINE
  5
11f
  8
Layer_0
  62
1
  66
1
  10
0
  20
0
  30
0
  0
VERTEX
  5
11f
  8
Layer_0
  10
247
  20
166.75812
  0
VERTEX
  5
120
  8
Layer_0
  10
250
  20
166.75812
  0
SEQEND
  0
POLYLINE
  5
122
  8
Layer_0
  62
1
  66
1
  10
0
  20
0
  30
0
  0
VERTEX
  5
122
  8
Layer_0
  10
250
  20
166.75812
  0
VERTEX
  5
123
  8
Layer_0
  10
250
  20
151.75812
  0
SEQEND
  0
POLYLINE
  5
125
  8
Layer_0
  62
1
  66
1
  10
0
  20
0
  30
0
  0
VERTEX
  5
125
  8
Layer_0
  10
250
  20
151.75812
  0
VERTEX
  5
126
  8
Layer_0
  10
247
  20
151.75812
  0
SEQEND
  0
POLYLINE
  5
128
  8
Layer_0
  62
1
  66
1
  10
0
  20
0
  30
0
  0
VERTEX
  5
128
  8
Layer_0
  10
247
  20
151.75812
  0
VERTEX
  5
129
  8
Layer_0
  10
247
  20
140.25812
  0
SEQEND
  0
POLYLINE
  5
12b
  8
Layer_0
  62
1
  66
1
  10
0
  20
0
  30
0
  0
VERTEX
  5
12b
  8
Layer_0
  10
247
  20
140.25812
  0
VERTEX
  5
12c
  8
Layer_0
  10
236.95
  20
140.25812
  0
SEQEND
  0
POLYLINE
  5
12e
  8
Layer_0
  62
1
  66
1
  10
0
  20
0
  30
0
  0
VERTEX
  5
12e
  8
Layer_0
  10
236.95
  20
140.25812
  0
VERTEX
  5
12f
  8
Layer_0
  10
236.95
  20
143.25812
  0
SEQEND
  0
POLYLINE
  5
131
  8
Layer_0
  62
1
  66
1
  10
0
  20
0
  30
0
  0
VERTEX
  5
131
  8
Layer_0
  10
236.95
  20
143.25812
  0
VERTEX
  5
132
  8
Layer_0
  10
207.05
  20
143.25812
  0
SEQEND
  0
POLYLINE
  5
134
  8
Layer_0
  62
1
  66
1
  10
0
  20
0
  30
0
  0
VERTEX
  5
134
  8
Layer_0
  10
207.05
  20
143.25812
  0
VERTEX
  5
135
  8
Layer_0
  10
207.05
  20
140.25812
  0
SEQEND
  0
POLYLINE
  5
137
  8
Layer_0
  62
1
  66
1
  10
0
  20
0
  30
0
  0
VERTEX
  5
137
  8
Layer_0
  10
207.05
  20
140.25812
  0
VERTEX
  5
138
  8
Layer_0
  10
186.95
  20
140.25812
  0
SEQEND
  0
POLYLINE
  5
13a
  8
Layer_0
  62
1
  66
1
  10
0
  20
0
  30
0
  0
VERTEX
  5
13a
  8
Layer_0
  10
186.95
  20
140.25812
  0
VERTEX
  5
13b
  8
Layer_0
  10
186.95
  20
143.25812
  0
SEQEND
  0
POLYLINE
  5
13d
  8
Layer_0
  62
1
  66
1
  10
0
  20
0
  30
0
  0
VERTEX
  5
13d
  8
Layer_0
  10
186.95
  20
143.25812
  0
VERTEX
  5
13e
  8
Layer_0
  10
157.05
  20
143.25812
  0
SEQEND
  0
POLYLINE
  5
140
  8
Layer_0
  62
1
  66
1
  10
0
  20
0
  30
0
  0
VERTEX
  5
140
  8
Layer_0
  10
157.05
  20
143.25812
  0
VERTEX
  5
141
  8
Layer_0
  10
157.05
  20
140.25812
  0
SEQEND
  0
POLYLINE
  5
143
  8
Layer_0
  62
1
  66
1
  10
0
  20
0
  30
0
  0
VERTEX
  5
143
  8
Layer_0
  10
157.05
  20
140.25812
  0
VERTEX
  5
144
  8
Layer_0
  10
147
  20
140.25812
  0
SEQEND
  0
POLYLINE
  5
146
  8
Layer_0
  62
1
  66
1
  10
0
  20
0
  30
0
  0
VERTEX
  5
146
  8
Layer_0
  10
147
  20
140.25812
  0
VERTEX
  5
147
  8
Layer_0
  10
124.45
  20
140.25812
  0
SEQEND
  0
POLYLINE
  5
149
  8
Layer_0
  62
1
  66
1
  10
0
  20
0
  30
0
  0
VERTEX
  5
149
  8
Layer_0
  10
124.45
  20
140.25812
  0
VERTEX
  5
14a
  8
Layer_0
  10
124.45
  20
143.25812
  0
SEQEND
  0
POLYLINE
  5
14c
  8
Layer_0
  62
1
  66
1
  10
0
  20
0
  30
0
  0
VERTEX
  5
14c
  8
Layer_0
  10
124.45
  20
143.25812
  0
VERTEX
  5
14d
  8
Layer_0
  10
94.550003
  20
143.25812
  0
SEQEND
  0
POLYLINE
  5
14f
  8
Layer_0
  62
1
  66
1
  10
0
  20
0
  30
0
  0
VERTEX
  5
14f
  8
Layer_0
  10
94.550003
  20
143.25812
  0
VERTEX
  5
150
  8
Layer_0
  10
94.550003
  20
140.25812
  0
SEQEND
  0
POLYLINE
  5
152
  8
Layer_0
  62
1
  66
1
  10
0
  20
0
  30
0
  0
VERTEX
  5
152
  8
Layer_0
  10
94.550003
  20
140.25812
  0
VERTEX
  5
153
  8
Layer_0
  10
72
  20
140.25812
  0
SEQEND
  0
POLYLINE
  5
155
  8
Layer_0
  62
1
  66
1
  10
0
  20
0
  30
0
  0
VERTEX
  5
155
  8
Layer_0
  10
72
  20
140.25812
  0
VERTEX
  5
156
  8
Layer_0
  10
72
  20
151.75812
  0
SEQEND
  0
POLYLINE
  5
158
  8
Layer_0
  62
1
  66
1
  10
0
  20
0
  30
0
  0
VERTEX
  5
158
  8
Layer_0
  10
72
  20
151.75812
  0
VERTEX
  5
159
  8
Layer_0
  10
69
  20
151.75812
  0
SEQEND
  0
POLYLINE
  5
15b
  8
Layer_0
  62
1
  66
1
  10
0
  20
0
  30
0
  0
VERTEX
  5
15b
  8
Layer_0
  10
69
  20
151.75812
  0
VERTEX
  5
15c
  8
Layer_0
  10
69
  20
166.75812
  0
SEQEND
  0
POLYLINE
  5
15e
  8
Layer_0
  62
1
  66
1
  10
0
  20
0
  30
0
  0
VERTEX
  5
15e
  8
Layer_0
  10
69
  20
166.75812
  0
VERTEX
  5
15f
  8
Layer_0
  10
72
  20
166.75812
  0
SEQEND
  0
POLYLINE
  5
161
  8
Layer_0
  62
1
  66
1
  10
0
  20
0
  30
0
  0
VERTEX
  5
161
  8
Layer_0
  10
72
  20
166.75812
  0
VERTEX
  5
162
  8
Layer_0
  10
72
  20
175.25812
  0
SEQEND
  0
POLYLINE
  5
164
  8
Layer_0
  62
1
  66
1
  10
0
  20
0
  30
0
  0
VERTEX
  5
164
  8
Layer_0
  10
72
  20
175.25812
  0
VERTEX
  5
165
  8
Layer_0
  10
72
  20
178.25812
  0
SEQEND
  0
POLYLINE
  5
167
  8
Layer_0
  62
1
  66
1
  10
0
  20
0
  30
0
  0
VERTEX
  5
167
  8
Layer_0
  10
72
  20
178.25812
  0
VERTEX
  5
168
  8
Layer_0
  10
94.550003
  20
178.25812
  0
SEQEND
  0
POLYLINE
  5
16a
  8
Layer_0
  62
1
  66
1
  10
0
  20
0
  30
0
  0
VERTEX
  5
16a
  8
Layer_0
  10
94.550003
  20
178.25812
  0
VERTEX
  5
16b
  8
Layer_0
  10
94.550003
  20
175.25812
  0
SEQEND
  0
POLYLINE
  5
16d
  8
Layer_0
  62
1
  66
1
  10
0
  20
0
  30
0
  0
VERTEX
  5
16d
  8
Layer_0
  10
94.550003
  20
175.25812
  0
VERTEX
  5
16e
  8
Layer_0
  10
124.45
  20
175.25812
  0
SEQEND
  0
POLYLINE
  5
170
  8
Layer_0
  62
1
  66
1
  10
0
  20
0
  30
0
  0
VERTEX
  5
170
  8
Layer_0
  10
124.45
  20
175.25812
  0
VERTEX
  5
171
  8
Layer_0
  10
124.45
  20
178.25812
  0
SEQEND
  0
POLYLINE
  5
173
  8
Layer_0
  62
1
  66
1
  10
0
  20
0
  30
0
  0
VERTEX
  5
173
  8
Layer_0
  10
124.45
  20
178.25812
  0
VERTEX
  5
174
  8
Layer_0
  10
147
  20
178.25812
  0
SEQEND
  0
POLYLINE
  5
176
  8
Layer_0
  62
1
  66
1
  10
0
  20
0
  30
0
  0
VERTEX
  5
176
  8
Layer_0
  10
147
  20
178.25923
  0
VERTEX
  5
177
  8
Layer_0
  10
147
  20
196.25812
  0
SEQEND
  0
POLYLINE
  5
179
  8
Layer_1
  62
3
  66
1
  10
0
  20
0
  30
0
  0
VERTEX
  5
179
  8
Layer_1
  10
218.16713
  20
268.69031
  42
0.21799351
  0
VERTEX
  5
17a
  8
Layer_1
  10
218.48431
  20
268.56345
  42
0.14404731
  0
VERTEX
  5
17b
  8
Layer_1
  10
218.74216
  20
268.63199
  42
0.17171824
  0
VERTEX
  5
17c
  8
Layer_1
  10
218.89154
  20
268.81821
  42
0.075811562
  0
VERTEX
  5
17d
  8
Layer_1
  10
218.93248
  20
269.19373
  0
VERTEX
  5
17e
  8
Layer_1
  10
218.93248
  20
271.26057
  0
VERTEX
  5
17f
  8
Layer_1
  10
219.32947
  20
271.26057
  0
VERTEX
  5
180
  8
Layer_1
  10
219.32947
  20
269.21623
  42
-0.10000403
  0
VERTEX
  5
181
  8
Layer_1
  10
219.2384
  20
268.63301
  42
-0.1698287
  0
VERTEX
  5
182
  8
Layer_1
  10
218.94987
  20
268.31787
  42
-0.12798882
  0
VERTEX
  5
183
  8
Layer_1
  10
218.48636
  20
268.20941
  42
-0.21522836
  0
VERTEX
  5
184
  8
Layer_1
  10
217.88165
  20
268.43655
  42
-0.19432654
  0
VERTEX
  5
185
  8
Layer_1
  10
217.68008
  20
269.11188
  0
VERTEX
  5
186
  8
Layer_1
  10
218.03821
  20
269.16098
  42
0.16269784
  0
VERTEX
  5
187
  8
Layer_1
  10
218.16713
  20
268.69031
  0
SEQEND
  0
POLYLINE
  5
189
  8
Layer_1
  62
3
  66
1
  10
0
  20
0
  30
0
  0
VERTEX
  5
189
  8
Layer_1
  10
220.47955
  20
270.86768
  0
VERTEX
  5
18a
  8
Layer_1
  10
221.67668
  20
270.86768
  0
VERTEX
  5
18b
  8
Layer_1
  10
221.67668
  20
271.21964
  0
VERTEX
  5
18c
  8
Layer_1
  10
220.18488
  20
271.21964
  0
VERTEX
  5
18d
  8
Layer_1
  10
219.89429
  20
269.67871
  0
VERTEX
  5
18e
  8
Layer_1
  10
220.24011
  20
269.6337
  42
-0.12519227
  0
VERTEX
  5
18f
  8
Layer_1
  10
220.46521
  20
269.84344
  42
-0.13184263
  0
VERTEX
  5
190
  8
Layer_1
  10
220.7865
  20
269.92429
  42
-0.20945557
  0
VERTEX
  5
191
  8
Layer_1
  10
221.25
  20
269.74216
  42
-0.20038032
  0
VERTEX
  5
192
  8
Layer_1
  10
221.42702
  20
269.24487
  42
-0.1924153
  0
VERTEX
  5
193
  8
Layer_1
  10
221.24284
  20
268.71283
  42
-0.21889744
  0
VERTEX
  5
194
  8
Layer_1
  10
220.79263
  20
268.51227
  42
-0.19278494
  0
VERTEX
  5
195
  8
Layer_1
  10
220.41508
  20
268.65451
  42
-0.17412909
  0
VERTEX
  5
196
  8
Layer_1
  10
220.21556
  20
269.07913
  0
VERTEX
  5
197
  8
Layer_1
  10
219.8288
  20
269.04639
  42
0.19540892
  0
VERTEX
  5
198
  8
Layer_1
  10
220.1245
  20
268.4386
  42
0.18780398
  0
VERTEX
  5
199
  8
Layer_1
  10
220.79263
  20
268.20941
  42
0.24016461
  0
VERTEX
  5
19a
  8
Layer_1
  10
221.58051
  20
268.57367
  42
0.17475764
  0
VERTEX
  5
19b
  8
Layer_1
  10
221.81787
  20
269.27762
  42
0.2044369
  0
VERTEX
  5
19c
  8
Layer_1
  10
221.54776
  20
269.97748
  42
0.2075778
  0
VERTEX
  5
19d
  8
Layer_1
  10
220.88474
  20
270.24966
  42
0.15649533
  0
VERTEX
  5
19e
  8
Layer_1
  10
220.31787
  20
270.0614
  0
VERTEX
  5
19f
  8
Layer_1
  10
220.47955
  20
270.86768
  0
SEQEND
  0
POLYLINE
  5
1a1
  8
Layer_1
  62
3
  66
1
  10
0
  20
0
  30
0
  0
VERTEX
  5
1a1
  8
Layer_1
  10
222.83493
  20
270.10846
  42
-0.12043661
  0
VERTEX
  5
1a2
  8
Layer_1
  10
223.23807
  20
270.20668
  42
-0.21337289
  0
VERTEX
  5
1a3
  8
Layer_1
  10
223.8653
  20
269.93555
  42
-0.19864489
  0
VERTEX
  5
1a4
  8
Layer_1
  10
224.12415
  20
269.23465
  42
-0.11839271
  0
VERTEX
  5
1a5
  8
Layer_1
  10
224.0024
  20
268.70975
  42
-0.14385182
  0
VERTEX
  5
1a6
  8
Layer_1
  10
223.66782
  20
268.33833
  42
-0.13923673
  0
VERTEX
  5
1a7
  8
Layer_1
  10
223.18488
  20
268.20941
  42
-0.22866985
  0
VERTEX
  5
1a8
  8
Layer_1
  10
222.43384
  20
268.5481
  0
VERTEX
  5
1a9
  8
Layer_1
  10
222.41013
  20
268.57707
  42
-0.16027399
  0
VERTEX
  5
1aa
  8
Layer_1
  10
222.14325
  20
269.6644
  0
VERTEX
  5
1ab
  8
Layer_1
  10
222.14381
  20
269.73605
  42
-0.16468718
  0
VERTEX
  5
1ac
  8
Layer_1
  10
222.46454
  20
270.92905
  42
-0.2361507
  0
VERTEX
  5
1ad
  8
Layer_1
  10
223.21965
  20
271.27286
  42
-0.18663565
  0
VERTEX
  5
1ae
  8
Layer_1
  10
223.7998
  20
271.07434
  42
-0.18729119
  0
VERTEX
  5
1af
  8
Layer_1
  10
224.07095
  20
270.52591
  0
VERTEX
  5
1b0
  8
Layer_1
  10
223.70465
  20
270.49727
  0
VERTEX
  5
1b1
  8
Layer_1
  10
223.70049
  20
270.51514
  42
0.12449023
  0
VERTEX
  5
1b2
  8
Layer_1
  10
223.56549
  20
270.81241
  42
0.2133687
  0
VERTEX
  5
1b3
  8
Layer_1
  10
223.19714
  20
270.96999
  42
0.16490315
  0
VERTEX
  5
1b4
  8
Layer_1
  10
222.88814
  20
270.87177
  42
0.1390233
  0
VERTEX
  5
1b5
  8
Layer_1
  10
222.61392
  20
270.50137
  0
VERTEX
  5
1b6
  8
Layer_1
  10
222.60574
  20
270.48071
  0
VERTEX
  5
1b7
  8
Layer_1
  10
222.59787
  20
270.45935
  42
0.07959058
  0
VERTEX
  5
1b8
  8
Layer_1
  10
222.50955
  20
269.80765
  42
-0.13153913
  0
VERTEX
  5
1b9
  8
Layer_1
  10
222.83493
  20
270.10846
  0
SEQEND
  0
POLYLINE
  5
1bb
  8
Layer_1
  62
3
  66
1
  10
0
  20
0
  30
0
  0
VERTEX
  5
1bb
  8
Layer_1
  10
222.87381
  20
268.60333
  42
0.14454508
  0
VERTEX
  5
1bc
  8
Layer_1
  10
223.17873
  20
268.51227
  42
0.22394537
  0
VERTEX
  5
1bd
  8
Layer_1
  10
223.57982
  20
268.70055
  42
0.18769148
  0
VERTEX
  5
1be
  8
Layer_1
  10
223.74762
  20
269.21214
  42
0.19263305
  0
VERTEX
  5
1bf
  8
Layer_1
  10
223.58186
  20
269.70224
  42
0.21653636
  0
VERTEX
  5
1c0
  8
Layer_1
  10
223.1644
  20
269.88132
  42
0.21019285
  0
VERTEX
  5
1c1
  8
Layer_1
  10
222.7408
  20
269.70224
  42
0.20137068
  0
VERTEX
  5
1c2
  8
Layer_1
  10
222.56686
  20
269.2326
  42
0.10992775
  0
VERTEX
  5
1c3
  8
Layer_1
  10
222.64769
  20
268.86835
  42
0.14738122
  0
VERTEX
  5
1c4
  8
Layer_1
  10
222.87381
  20
268.60333
  0
SEQEND
  0
POLYLINE
  5
1c6
  8
Layer_1
  62
3
  66
1
  10
0
  20
0
  30
0
  0
VERTEX
  5
1c6
  8
Layer_1
  10
226.69441
  20
267.4277
  0
VERTEX
  5
1c7
  8
Layer_1
  10
226.69441
  20
267.69373
  0
VERTEX
  5
1c8
  8
Layer_1
  10
224.25308
  20
267.69373
  0
VERTEX
  5
1c9
  8
Layer_1
  10
224.25308
  20
267.4277
  0
VERTEX
  5
1ca
  8
Layer_1
  10
226.69441
  20
267.4277
  0
SEQEND
  0
POLYLINE
  5
1cc
  8
Layer_1
  62
3
  66
1
  10
0
  20
0
  30
0
  0
VERTEX
  5
1cc
  8
Layer_1
  10
229.07333
  20
269.58458
  0
VERTEX
  5
1cd
  8
Layer_1
  10
229.08528
  20
269.56844
  42
-0.16009592
  0
VERTEX
  5
1ce
  8
Layer_1
  10
229.21967
  20
269.13028
  42
-0.11583733
  0
VERTEX
  5
1cf
  8
Layer_1
  10
229.13065
  20
268.7384
  42
-0.1187386
  0
VERTEX
  5
1d0
  8
Layer_1
  10
228.91064
  20
268.45908
  42
-0.098604099
  0
VERTEX
  5
1d1
  8
Layer_1
  10
228.58221
  20
268.3107
  42
-0.061016204
  0
VERTEX
  5
1d2
  8
Layer_1
  10
228.09824
  20
268.26057
  0
VERTEX
  5
1d3
  8
Layer_1
  10
226.95432
  20
268.26057
  0
VERTEX
  5
1d4
  8
Layer_1
  10
226.95432
  20
271.26057
  0
VERTEX
  5
1d5
  8
Layer_1
  10
228.07982
  20
271.26057
  42
-0.10153068
  0
VERTEX
  5
1d6
  8
Layer_1
  10
228.63132
  20
271.16951
  42
-0.15509415
  0
VERTEX
  5
1d7
  8
Layer_1
  10
228.9567
  20
270.88916
  42
-0.14233948
  0
VERTEX
  5
1d8
  8
Layer_1
  10
229.07437
  20
270.49318
  42
-0.13884798
  0
VERTEX
  5
1d9
  8
Layer_1
  10
228.97
  20
270.13097
  42
0.0038200456
  0
VERTEX
  5
1da
  8
Layer_1
  10
228.95187
  20
270.10312
  0
VERTEX
  5
1db
  8
Layer_1
  10
228.94223
  20
270.08954
  0
VERTEX
  5
1dc
  8
Layer_1
  10
228.93225
  20
270.07617
  42
-0.11327863
  0
VERTEX
  5
1dd
  8
Layer_1
  10
228.65485
  20
269.85675
  42
-0.16236108
  0
VERTEX
  5
1de
  8
Layer_1
  10
229.07333
  20
269.58458
  0
SEQEND
  0
POLYLINE
  5
1e0
  8
Layer_1
  62
3
  66
1
  10
0
  20
0
  30
0
  0
VERTEX
  5
1e0
  8
Layer_1
  10
227.3513
  20
270.90656
  0
VERTEX
  5
1e1
  8
Layer_1
  10
227.9509
  20
270.90656
  42
-0.030378194
  0
VERTEX
  5
1e2
  8
Layer_1
  10
228.28072
  20
270.89017
  0
VERTEX
  5
1e3
  8
Layer_1
  10
228.29742
  20
270.88791
  42
-0.00035619105
  0
VERTEX
  5
1e4
  8
Layer_1
  10
228.32883
  20
270.88295
  42
0.015238937
  0
VERTEX
  5
1e5
  8
Layer_1
  10
228.3576
  20
270.87741
  0
VERTEX
  5
1e6
  8
Layer_1
  10
228.371
  20
270.87442
  0
VERTEX
  5
1e7
  8
Layer_1
  10
228.38376
  20
270.87131
  42
0.0054899198
  0
VERTEX
  5
1e8
  8
Layer_1
  10
228.40724
  20
270.86459
  42
-0.18321384
  0
VERTEX
  5
1e9
  8
Layer_1
  10
228.61188
  20
270.70908
  42
-0.13829103
  0
VERTEX
  5
1ea
  8
Layer_1
  10
228.6835
  20
270.44611
  42
-0.16750104
  0
VERTEX
  5
1eb
  8
Layer_1
  10
228.60677
  20
270.18417
  42
-0.16833538
  0
VERTEX
  5
1ec
  8
Layer_1
  10
228.3786
  20
270.03479
  42
-0.066471309
  0
VERTEX
  5
1ed
  8
Layer_1
  10
228
  20
270
  0
VERTEX
  5
1ee
  8
Layer_1
  10
227.3513
  20
270
  0
VERTEX
  5
1ef
  8
Layer_1
  10
227.3513
  20
270.90656
  0
SEQEND
  0
POLYLINE
  5
1f1
  8
Layer_1
  62
3
  66
1
  10
0
  20
0
  30
0
  0
VERTEX
  5
1f1
  8
Layer_1
  10
227.3513
  20
269.64597
  0
VERTEX
  5
1f2
  8
Layer_1
  10
228.04503
  20
269.64597
  42
-0.074760724
  0
VERTEX
  5
1f3
  8
Layer_1
  10
228.48398
  20
269.59584
  42
-0.16667387
  0
VERTEX
  5
1f4
  8
Layer_1
  10
228.72238
  20
269.42191
  42
-0.15776798
  0
VERTEX
  5
1f5
  8
Layer_1
  10
228.80833
  20
269.13028
  42
-0.12405581
  0
VERTEX
  5
1f6
  8
Layer_1
  10
228.74899
  20
268.87756
  42
-0.13066417
  0
VERTEX
  5
1f7
  8
Layer_1
  10
228.59756
  20
268.71078
  42
-0.095111976
  0
VERTEX
  5
1f8
  8
Layer_1
  10
228.36835
  20
268.62892
  42
-0.043025081
  0
VERTEX
  5
1f9
  8
Layer_1
  10
228.09824
  20
268.61459
  0
VERTEX
  5
1fa
  8
Layer_1
  10
227.3513
  20
268.61459
  0
VERTEX
  5
1fb
  8
Layer_1
  10
227.3513
  20
269.64597
  0
SEQEND
  0
POLYLINE
  5
1fd
  8
Layer_1
  62
3
  66
1
  10
0
  20
0
  30
0
  0
VERTEX
  5
1fd
  8
Layer_1
  10
230.70737
  20
269.16098
  0
VERTEX
  5
1fe
  8
Layer_1
  10
230.70737
  20
269.53137
  0
VERTEX
  5
1ff
  8
Layer_1
  10
229.57571
  20
269.53137
  0
VERTEX
  5
200
  8
Layer_1
  10
229.57571
  20
269.16098
  0
VERTEX
  5
201
  8
Layer_1
  10
230.70737
  20
269.16098
  0
SEQEND
  0
POLYLINE
  5
203
  8
Layer_1
  62
3
  66
1
  10
0
  20
0
  30
0
  0
VERTEX
  5
203
  8
Layer_1
  10
231.63234
  20
268.81412
  42
-0.023822891
  0
VERTEX
  5
204
  8
Layer_1
  10
232.05798
  20
269.19168
  42
0.032352119
  0
VERTEX
  5
205
  8
Layer_1
  10
232.62585
  20
269.71964
  42
0.080247996
  0
VERTEX
  5
206
  8
Layer_1
  10
232.87041
  20
270.08594
  42
0.10147891
  0
VERTEX
  5
207
  8
Layer_1
  10
232.94408
  20
270.43997
  42
0.21317054
  0
VERTEX
  5
208
  8
Layer_1
  10
232.69237
  20
271.03342
  42
0.19778733
  0
VERTEX
  5
209
  8
Layer_1
  10
232.00888
  20
271.27286
  42
0.18455827
  0
VERTEX
  5
20a
  8
Layer_1
  10
231.32742
  20
271.05081
  42
0.18448068
  0
VERTEX
  5
20b
  8
Layer_1
  10
231.04277
  20
270.4744
  0
VERTEX
  5
20c
  8
Layer_1
  10
231.03842
  20
270.44012
  0
VERTEX
  5
20d
  8
Layer_1
  10
231.03479
  20
270.40518
  0
VERTEX
  5
20e
  8
Layer_1
  10
231.41338
  20
270.3663
  42
-0.20051637
  0
VERTEX
  5
20f
  8
Layer_1
  10
231.57504
  20
270.80832
  42
-0.20478564
  0
VERTEX
  5
210
  8
Layer_1
  10
232.0007
  20
270.96794
  42
-0.20125831
  0
VERTEX
  5
211
  8
Layer_1
  10
232.40894
  20
270.81754
  42
-0.20956557
  0
VERTEX
  5
212
  8
Layer_1
  10
232.56549
  20
270.44815
  42
-0.15992344
  0
VERTEX
  5
213
  8
Layer_1
  10
232.3936
  20
270.00511
  42
-0.056144555
  0
VERTEX
  5
214
  8
Layer_1
  10
231.7326
  20
269.36972
  42
0.043694062
  0
VERTEX
  5
215
  8
Layer_1
  10
231.2507
  20
268.91541
  42
0.08616817
  0
VERTEX
  5
216
  8
Layer_1
  10
231.00819
  20
268.51637
  42
0.10303719
  0
VERTEX
  5
217
  8
Layer_1
  10
230.96521
  20
268.26057
  0
VERTEX
  5
218
  8
Layer_1
  10
232.94817
  20
268.26057
  0
VERTEX
  5
219
  8
Layer_1
  10
232.94817
  20
268.61459
  0
VERTEX
  5
21a
  8
Layer_1
  10
231.47681
  20
268.61459
  42
-0.052634882
  0
VERTEX
  5
21b
  8
Layer_1
  10
231.63234
  20
268.81412
  0
SEQEND
  0
ENDSEC
  0
EOF
