  0
SECTION
  2
HEADER
  9
$ACADVER
  1
AC1009
  0
ENDSEC
  0
SECTION
  2
ENTITIES
  0
CIRCLE
  5
90
  8
Layer_1
  62
1
  10
142.48462
  20
200.04295
  30
0
  40
1.5
  0
CIRCLE
  5
90
  8
Layer_1
  62
1
  10
142.48462
  20
245.04295
  30
0
  40
1.5
  0
CIRCLE
  5
90
  8
Layer_1
  62
1
  10
193.48462
  20
200.04295
  30
0
  40
1.5
  0
CIRCLE
  5
90
  8
Layer_1
  62
1
  10
193.48462
  20
245.04295
  30
0
  40
1.5
  0
POLYLINE
  5
90
  8
Layer_1
  62
1
  66
1
  10
0
  20
0
  30
0
  0
VERTEX
  5
90
  8
Layer_1
  10
134.98462
  20
189.54295
  0
VERTEX
  5
91
  8
Layer_1
  10
134.98462
  20
207.54295
  0
VERTEX
  5
92
  8
Layer_1
  10
131.98462
  20
207.54295
  0
VERTEX
  5
93
  8
Layer_1
  10
131.98462
  20
237.54295
  0
VERTEX
  5
94
  8
Layer_1
  10
134.98462
  20
237.54295
  0
VERTEX
  5
95
  8
Layer_1
  10
134.98462
  20
255.54295
  0
VERTEX
  5
96
  8
Layer_1
  10
153.03462
  20
255.54295
  0
VERTEX
  5
97
  8
Layer_1
  10
153.03462
  20
252.54295
  0
VERTEX
  5
98
  8
Layer_1
  10
182.93462
  20
252.54295
  0
VERTEX
  5
99
  8
Layer_1
  10
182.93462
  20
255.54295
  0
VERTEX
  5
9a
  8
Layer_1
  10
200.98462
  20
255.54295
  0
VERTEX
  5
9b
  8
Layer_1
  10
200.98462
  20
237.54295
  0
VERTEX
  5
9c
  8
Layer_1
  10
203.98462
  20
237.54295
  0
VERTEX
  5
9d
  8
Layer_1
  10
203.98462
  20
207.54295
  0
VERTEX
  5
9e
  8
Layer_1
  10
200.98462
  20
207.54295
  0
VERTEX
  5
9f
  8
Layer_1
  10
200.98462
  20
189.54295
  0
VERTEX
  5
a0
  8
Layer_1
  10
182.93462
  20
189.54295
  0
VERTEX
  5
a1
  8
Layer_1
  10
182.93462
  20
192.54295
  0
VERTEX
  5
a2
  8
Layer_1
  10
153.03462
  20
192.54295
  0
VERTEX
  5
a3
  8
Layer_1
  10
153.03462
  20
189.54295
  0
VERTEX
  5
a4
  8
Layer_1
  10
134.98462
  20
189.54295
  0
SEQEND
  0
POLYLINE
  5
a6
  8
Layer_0
  62
3
  66
1
  10
0
  20
0
  30
0
  0
VERTEX
  5
a6
  8
Layer_0
  10
172.94215
  20
245.96996
  42
0.22078143
  0
VERTEX
  5
a7
  8
Layer_0
  10
173.26035
  20
245.84564
  42
0.14379501
  0
VERTEX
  5
a8
  8
Layer_0
  10
173.51764
  20
245.91626
  42
0.17472619
  0
VERTEX
  5
a9
  8
Layer_0
  10
173.66553
  20
246.10368
  42
0.076202816
  0
VERTEX
  5
aa
  8
Layer_0
  10
173.70343
  20
246.47951
  0
VERTEX
  5
ab
  8
Layer_0
  10
173.6868
  20
248.5463
  0
VERTEX
  5
ac
  8
Layer_0
  10
174.08379
  20
248.54948
  0
VERTEX
  5
ad
  8
Layer_0
  10
174.10022
  20
246.50522
  42
-0.099983554
  0
VERTEX
  5
ae
  8
Layer_0
  10
174.01385
  20
245.92128
  42
-0.16913427
  0
VERTEX
  5
af
  8
Layer_0
  10
173.72786
  20
245.60382
  42
-0.12736378
  0
VERTEX
  5
b0
  8
Layer_0
  10
173.26524
  20
245.49164
  42
-0.21507032
  0
VERTEX
  5
b1
  8
Layer_0
  10
172.65872
  20
245.71391
  42
-0.19426692
  0
VERTEX
  5
b2
  8
Layer_0
  10
172.45174
  20
246.38757
  0
VERTEX
  5
b3
  8
Layer_0
  10
172.80945
  20
246.43958
  42
0.16259319
  0
VERTEX
  5
b4
  8
Layer_0
  10
172.94215
  20
245.96996
  0
SEQEND
  0
POLYLINE
  5
b6
  8
Layer_0
  62
3
  66
1
  10
0
  20
0
  30
0
  0
VERTEX
  5
b6
  8
Layer_0
  10
175.23697
  20
248.16585
  0
VERTEX
  5
b7
  8
Layer_0
  10
176.43407
  20
248.17548
  0
VERTEX
  5
b8
  8
Layer_0
  10
176.43124
  20
248.52744
  0
VERTEX
  5
b9
  8
Layer_0
  10
174.93947
  20
248.51544
  0
VERTEX
  5
ba
  8
Layer_0
  10
174.66129
  20
246.97223
  0
VERTEX
  5
bb
  8
Layer_0
  10
175.00748
  20
246.92999
  42
-0.12557935
  0
VERTEX
  5
bc
  8
Layer_0
  10
175.2309
  20
247.14154
  42
-0.13041491
  0
VERTEX
  5
bd
  8
Layer_0
  10
175.55151
  20
247.22496
  42
-0.20971793
  0
VERTEX
  5
be
  8
Layer_0
  10
176.01646
  20
247.04657
  42
-0.20002465
  0
VERTEX
  5
bf
  8
Layer_0
  10
176.19748
  20
246.55074
  42
-0.19243707
  0
VERTEX
  5
c0
  8
Layer_0
  10
176.01758
  20
246.01721
  42
-0.21903355
  0
VERTEX
  5
c1
  8
Layer_0
  10
175.569
  20
245.81305
  42
-0.19313697
  0
VERTEX
  5
c2
  8
Layer_0
  10
175.19032
  20
245.95224
  42
-0.1737706
  0
VERTEX
  5
c3
  8
Layer_0
  10
174.9874
  20
246.37524
  0
VERTEX
  5
c4
  8
Layer_0
  10
174.60089
  20
246.33939
  42
0.19526234
  0
VERTEX
  5
c5
  8
Layer_0
  10
174.90147
  20
245.73401
  42
0.18774631
  0
VERTEX
  5
c6
  8
Layer_0
  10
175.57144
  20
245.51019
  42
0.24016374
  0
VERTEX
  5
c7
  8
Layer_0
  10
176.35635
  20
245.88078
  42
0.17470786
  0
VERTEX
  5
c8
  8
Layer_0
  10
176.58806
  20
246.58662
  42
0.20491291
  0
VERTEX
  5
c9
  8
Layer_0
  10
176.31232
  20
247.28429
  42
0.20738971
  0
VERTEX
  5
ca
  8
Layer_0
  10
175.64713
  20
247.55112
  42
0.15637337
  0
VERTEX
  5
cb
  8
Layer_0
  10
175.0818
  20
247.35829
  0
VERTEX
  5
cc
  8
Layer_0
  10
175.23697
  20
248.16585
  0
SEQEND
  0
POLYLINE
  5
ce
  8
Layer_0
  62
3
  66
1
  10
0
  20
0
  30
0
  0
VERTEX
  5
ce
  8
Layer_0
  10
177.59839
  20
247.42561
  42
-0.12015216
  0
VERTEX
  5
cf
  8
Layer_0
  10
178.00073
  20
247.52707
  42
-0.21322896
  0
VERTEX
  5
d0
  8
Layer_0
  10
178.63011
  20
247.26099
  42
-0.1987572
  0
VERTEX
  5
d1
  8
Layer_0
  10
178.89461
  20
246.56219
  42
-0.11813802
  0
VERTEX
  5
d2
  8
Layer_0
  10
178.77707
  20
246.03635
  42
-0.14353401
  0
VERTEX
  5
d3
  8
Layer_0
  10
178.4455
  20
245.66225
  42
-0.1395018
  0
VERTEX
  5
d4
  8
Layer_0
  10
177.96359
  20
245.52945
  42
-0.22848929
  0
VERTEX
  5
d5
  8
Layer_0
  10
177.20987
  20
245.86206
  42
-0.17282511
  0
VERTEX
  5
d6
  8
Layer_0
  10
176.91031
  20
246.976
  42
-0.15687977
  0
VERTEX
  5
d7
  8
Layer_0
  10
177.19547
  20
248.20926
  0
VERTEX
  5
d8
  8
Layer_0
  10
177.22141
  20
248.24319
  42
-0.23609426
  0
VERTEX
  5
d9
  8
Layer_0
  10
177.97372
  20
248.59306
  42
-0.18674113
  0
VERTEX
  5
da
  8
Layer_0
  10
178.55547
  20
248.39923
  42
-0.18740284
  0
VERTEX
  5
db
  8
Layer_0
  10
178.83101
  20
247.853
  0
VERTEX
  5
dc
  8
Layer_0
  10
178.46495
  20
247.82141
  42
0.12598233
  0
VERTEX
  5
dd
  8
Layer_0
  10
178.32327
  20
248.13542
  42
0.21402508
  0
VERTEX
  5
de
  8
Layer_0
  10
177.95366
  20
248.29002
  42
0.16381446
  0
VERTEX
  5
df
  8
Layer_0
  10
177.64546
  20
248.18932
  42
0.13978233
  0
VERTEX
  5
e0
  8
Layer_0
  10
177.37424
  20
247.81673
  42
0.091059235
  0
VERTEX
  5
e1
  8
Layer_0
  10
177.27545
  20
247.12219
  42
-0.13172547
  0
VERTEX
  5
e2
  8
Layer_0
  10
177.59839
  20
247.42561
  0
SEQEND
  0
POLYLINE
  5
e4
  8
Layer_0
  62
3
  66
1
  10
0
  20
0
  30
0
  0
VERTEX
  5
e4
  8
Layer_0
  10
177.64938
  20
245.92085
  42
0.1440172
  0
VERTEX
  5
e5
  8
Layer_0
  10
177.95502
  20
245.83224
  42
0.22258012
  0
VERTEX
  5
e6
  8
Layer_0
  10
178.35458
  20
246.02374
  42
0.18720988
  0
VERTEX
  5
e7
  8
Layer_0
  10
178.51826
  20
246.53667
  42
0.19255023
  0
VERTEX
  5
e8
  8
Layer_0
  10
178.34857
  20
247.02542
  42
0.2173911
  0
VERTEX
  5
e9
  8
Layer_0
  10
177.92969
  20
247.20111
  42
0.2104508
  0
VERTEX
  5
ea
  8
Layer_0
  10
177.50754
  20
247.01866
  42
0.20112524
  0
VERTEX
  5
eb
  8
Layer_0
  10
177.33737
  20
246.54764
  42
0.11013521
  0
VERTEX
  5
ec
  8
Layer_0
  10
177.42113
  20
246.18404
  42
0.14701282
  0
VERTEX
  5
ed
  8
Layer_0
  10
177.64938
  20
245.92085
  0
SEQEND
  0
POLYLINE
  5
ef
  8
Layer_0
  62
3
  66
1
  10
0
  20
0
  30
0
  0
VERTEX
  5
ef
  8
Layer_0
  10
181.47717
  20
245.04201
  0
VERTEX
  5
f0
  8
Layer_0
  10
181.47931
  20
244.77599
  0
VERTEX
  5
f1
  8
Layer_0
  10
179.03806
  20
244.75635
  0
VERTEX
  5
f2
  8
Layer_0
  10
179.03592
  20
245.02237
  0
VERTEX
  5
f3
  8
Layer_0
  10
181.47717
  20
245.04201
  0
SEQEND
  0
POLYLINE
  5
f5
  8
Layer_0
  62
3
  66
1
  10
0
  20
0
  30
0
  0
VERTEX
  5
f5
  8
Layer_0
  10
183.73308
  20
247.49748
  42
0.14100579
  0
VERTEX
  5
f6
  8
Layer_0
  10
183.83452
  20
247.86052
  42
0.14216882
  0
VERTEX
  5
f7
  8
Layer_0
  10
183.71368
  20
248.25552
  42
0.15495756
  0
VERTEX
  5
f8
  8
Layer_0
  10
183.38605
  20
248.53326
  42
0.10097754
  0
VERTEX
  5
f9
  8
Layer_0
  10
182.83383
  20
248.61989
  0
VERTEX
  5
fa
  8
Layer_0
  10
181.70836
  20
248.61082
  0
VERTEX
  5
fb
  8
Layer_0
  10
181.7325
  20
245.61093
  0
VERTEX
  5
fc
  8
Layer_0
  10
182.87639
  20
245.62013
  42
0.060894954
  0
VERTEX
  5
fd
  8
Layer_0
  10
183.35994
  20
245.67416
  42
0.099293419
  0
VERTEX
  5
fe
  8
Layer_0
  10
183.68718
  20
245.82516
  42
0.11842488
  0
VERTEX
  5
ff
  8
Layer_0
  10
183.90491
  20
246.10625
  42
0.11583174
  0
VERTEX
  5
100
  8
Layer_0
  10
183.99078
  20
246.49884
  42
0.16792451
  0
VERTEX
  5
101
  8
Layer_0
  10
183.84081
  20
246.95193
  42
0.16355605
  0
VERTEX
  5
102
  8
Layer_0
  10
183.42015
  20
247.22073
  42
0.14302696
  0
VERTEX
  5
103
  8
Layer_0
  10
183.73308
  20
247.49748
  0
SEQEND
  0
POLYLINE
  5
105
  8
Layer_0
  62
3
  66
1
  10
0
  20
0
  30
0
  0
VERTEX
  5
105
  8
Layer_0
  10
182.1082
  20
248.26001
  0
VERTEX
  5
106
  8
Layer_0
  10
182.70776
  20
248.26483
  42
-0.067054916
  0
VERTEX
  5
107
  8
Layer_0
  10
183.16443
  20
248.22656
  42
-0.18309794
  0
VERTEX
  5
108
  8
Layer_0
  10
183.37032
  20
248.07268
  42
-0.14436533
  0
VERTEX
  5
109
  8
Layer_0
  10
183.44406
  20
247.8103
  42
-0.1613647
  0
VERTEX
  5
10a
  8
Layer_0
  10
183.36943
  20
247.54776
  42
-0.1648324
  0
VERTEX
  5
10b
  8
Layer_0
  10
183.14246
  20
247.39655
  42
-0.06574831
  0
VERTEX
  5
10c
  8
Layer_0
  10
182.76418
  20
247.3587
  0
VERTEX
  5
10d
  8
Layer_0
  10
182.11549
  20
247.35349
  0
VERTEX
  5
10e
  8
Layer_0
  10
182.1082
  20
248.26001
  0
SEQEND
  0
POLYLINE
  5
110
  8
Layer_0
  62
3
  66
1
  10
0
  20
0
  30
0
  0
VERTEX
  5
110
  8
Layer_0
  10
182.11835
  20
246.99948
  0
VERTEX
  5
111
  8
Layer_0
  10
182.81204
  20
247.00507
  42
-0.069504857
  0
VERTEX
  5
112
  8
Layer_0
  10
183.2384
  20
246.96245
  0
VERTEX
  5
113
  8
Layer_0
  10
183.25137
  20
246.95845
  42
-0.16838058
  0
VERTEX
  5
114
  8
Layer_0
  10
183.49118
  20
246.78644
  42
-0.15626902
  0
VERTEX
  5
115
  8
Layer_0
  10
183.57947
  20
246.49553
  42
-0.12604382
  0
VERTEX
  5
116
  8
Layer_0
  10
183.52216
  20
246.24232
  42
-0.13205933
  0
VERTEX
  5
117
  8
Layer_0
  10
183.37207
  20
246.07434
  42
-0.094679274
  0
VERTEX
  5
118
  8
Layer_0
  10
183.14354
  20
245.99063
  42
-0.043076865
  0
VERTEX
  5
119
  8
Layer_0
  10
182.87354
  20
245.97415
  0
VERTEX
  5
11a
  8
Layer_0
  10
182.12663
  20
245.96814
  0
VERTEX
  5
11b
  8
Layer_0
  10
182.11835
  20
246.99948
  0
SEQEND
  0
POLYLINE
  5
11d
  8
Layer_0
  62
3
  66
1
  10
0
  20
0
  30
0
  0
VERTEX
  5
11d
  8
Layer_0
  10
185.47821
  20
246.5415
  0
VERTEX
  5
11e
  8
Layer_0
  10
184.34659
  20
246.53239
  0
VERTEX
  5
11f
  8
Layer_0
  10
184.34361
  20
246.90277
  0
VERTEX
  5
120
  8
Layer_0
  10
185.47522
  20
246.91188
  0
VERTEX
  5
121
  8
Layer_0
  10
185.47821
  20
246.5415
  0
SEQEND
  0
POLYLINE
  5
123
  8
Layer_0
  62
3
  66
1
  10
0
  20
0
  30
0
  0
VERTEX
  5
123
  8
Layer_0
  10
187.33092
  20
246.71194
  0
VERTEX
  5
124
  8
Layer_0
  10
187.73608
  20
246.71519
  0
VERTEX
  5
125
  8
Layer_0
  10
187.7388
  20
246.37756
  0
VERTEX
  5
126
  8
Layer_0
  10
187.33363
  20
246.3743
  0
VERTEX
  5
127
  8
Layer_0
  10
187.33942
  20
245.65604
  0
VERTEX
  5
128
  8
Layer_0
  10
186.97107
  20
245.65308
  0
VERTEX
  5
129
  8
Layer_0
  10
186.9653
  20
246.37134
  0
VERTEX
  5
12a
  8
Layer_0
  10
185.66383
  20
246.36086
  0
VERTEX
  5
12b
  8
Layer_0
  10
185.66112
  20
246.6985
  0
VERTEX
  5
12c
  8
Layer_0
  10
187.01447
  20
248.65352
  0
VERTEX
  5
12d
  8
Layer_0
  10
187.31528
  20
248.65594
  0
VERTEX
  5
12e
  8
Layer_0
  10
187.33092
  20
246.71194
  0
SEQEND
  0
POLYLINE
  5
130
  8
Layer_0
  62
3
  66
1
  10
0
  20
0
  30
0
  0
VERTEX
  5
130
  8
Layer_0
  10
186.02332
  20
246.70142
  0
VERTEX
  5
131
  8
Layer_0
  10
186.96259
  20
246.70897
  0
VERTEX
  5
132
  8
Layer_0
  10
186.95169
  20
248.06158
  0
VERTEX
  5
133
  8
Layer_0
  10
186.02332
  20
246.70142
  0
SEQEND
  0
ENDSEC
  0
EOF
