  0
SECTION
  2
HEADER
  9
$ACADVER
  1
AC1009
  0
ENDSEC
  0
SECTION
  2
ENTITIES
  0
CIRCLE
  5
90
  8
Layer_0
  62
1
  10
214.99992
  20
137.7002
  30
0
  40
1.5
  0
CIRCLE
  5
90
  8
Layer_0
  62
1
  10
214.99992
  20
182.7002
  30
0
  40
1.5
  0
CIRCLE
  5
90
  8
Layer_0
  62
1
  10
129.99992
  20
137.7002
  30
0
  40
1.5
  0
CIRCLE
  5
90
  8
Layer_0
  62
1
  10
129.99992
  20
182.7002
  30
0
  40
1.5
  0
CIRCLE
  5
90
  8
Layer_0
  62
1
  10
54.999924
  20
137.7002
  30
0
  40
1.5
  0
CIRCLE
  5
90
  8
Layer_0
  62
1
  10
54.999924
  20
182.7002
  30
0
  40
1.5
  0
POLYLINE
  5
90
  8
Layer_0
  62
1
  66
1
  10
0
  20
0
  30
0
  0
VERTEX
  5
90
  8
Layer_0
  10
122.49992
  20
190.2002
  0
VERTEX
  5
91
  8
Layer_0
  10
99.999924
  20
190.2002
  0
VERTEX
  5
92
  8
Layer_0
  10
99.999924
  20
193.2002
  0
VERTEX
  5
93
  8
Layer_0
  10
69.999924
  20
193.2002
  0
VERTEX
  5
94
  8
Layer_0
  10
69.999924
  20
190.2002
  0
VERTEX
  5
95
  8
Layer_0
  10
47.499924
  20
190.2002
  0
VERTEX
  5
96
  8
Layer_0
  10
47.499924
  20
175.2002
  0
VERTEX
  5
97
  8
Layer_0
  10
44.499924
  20
175.2002
  0
VERTEX
  5
98
  8
Layer_0
  10
44.499924
  20
145.2002
  0
VERTEX
  5
99
  8
Layer_0
  10
47.499924
  20
145.2002
  0
VERTEX
  5
9a
  8
Layer_0
  10
47.499924
  20
130.2002
  0
VERTEX
  5
9b
  8
Layer_0
  10
69.999924
  20
130.2002
  0
VERTEX
  5
9c
  8
Layer_0
  10
69.999924
  20
127.2002
  0
VERTEX
  5
9d
  8
Layer_0
  10
99.999924
  20
127.2002
  0
VERTEX
  5
9e
  8
Layer_0
  10
99.999924
  20
130.2002
  0
VERTEX
  5
9f
  8
Layer_0
  10
122.49992
  20
130.2002
  0
SEQEND
  0
POLYLINE
  5
a1
  8
Layer_0
  62
1
  66
1
  10
0
  20
0
  30
0
  0
VERTEX
  5
a1
  8
Layer_0
  10
122.49992
  20
130.2002
  0
VERTEX
  5
a2
  8
Layer_0
  10
132.49992
  20
130.2002
  0
SEQEND
  0
POLYLINE
  5
a4
  8
Layer_0
  62
1
  66
1
  10
0
  20
0
  30
0
  0
VERTEX
  5
a4
  8
Layer_0
  10
132.49992
  20
130.2002
  0
VERTEX
  5
a5
  8
Layer_0
  10
132.49992
  20
127.2002
  0
SEQEND
  0
POLYLINE
  5
a7
  8
Layer_0
  62
1
  66
1
  10
0
  20
0
  30
0
  0
VERTEX
  5
a7
  8
Layer_0
  10
132.49992
  20
127.2002
  0
VERTEX
  5
a8
  8
Layer_0
  10
162.49992
  20
127.2002
  0
SEQEND
  0
POLYLINE
  5
aa
  8
Layer_0
  62
1
  66
1
  10
0
  20
0
  30
0
  0
VERTEX
  5
aa
  8
Layer_0
  10
162.49992
  20
127.2002
  0
VERTEX
  5
ab
  8
Layer_0
  10
162.49992
  20
130.2002
  0
SEQEND
  0
POLYLINE
  5
ad
  8
Layer_0
  62
1
  66
1
  10
0
  20
0
  30
0
  0
VERTEX
  5
ad
  8
Layer_0
  10
162.49992
  20
130.2002
  0
VERTEX
  5
ae
  8
Layer_0
  10
182.49992
  20
130.2002
  0
SEQEND
  0
POLYLINE
  5
b0
  8
Layer_0
  62
1
  66
1
  10
0
  20
0
  30
0
  0
VERTEX
  5
b0
  8
Layer_0
  10
182.49992
  20
130.2002
  0
VERTEX
  5
b1
  8
Layer_0
  10
182.49992
  20
127.2002
  0
SEQEND
  0
POLYLINE
  5
b3
  8
Layer_0
  62
1
  66
1
  10
0
  20
0
  30
0
  0
VERTEX
  5
b3
  8
Layer_0
  10
182.49992
  20
127.2002
  0
VERTEX
  5
b4
  8
Layer_0
  10
212.49992
  20
127.2002
  0
SEQEND
  0
POLYLINE
  5
b6
  8
Layer_0
  62
1
  66
1
  10
0
  20
0
  30
0
  0
VERTEX
  5
b6
  8
Layer_0
  10
212.49992
  20
127.2002
  0
VERTEX
  5
b7
  8
Layer_0
  10
212.49992
  20
130.2002
  0
SEQEND
  0
POLYLINE
  5
b9
  8
Layer_0
  62
1
  66
1
  10
0
  20
0
  30
0
  0
VERTEX
  5
b9
  8
Layer_0
  10
212.49992
  20
130.2002
  0
VERTEX
  5
ba
  8
Layer_0
  10
222.49992
  20
130.2002
  0
SEQEND
  0
POLYLINE
  5
bc
  8
Layer_0
  62
1
  66
1
  10
0
  20
0
  30
0
  0
VERTEX
  5
bc
  8
Layer_0
  10
222.49992
  20
130.2002
  0
VERTEX
  5
bd
  8
Layer_0
  10
222.49992
  20
145.2002
  0
SEQEND
  0
POLYLINE
  5
bf
  8
Layer_0
  62
1
  66
1
  10
0
  20
0
  30
0
  0
VERTEX
  5
bf
  8
Layer_0
  10
222.49992
  20
145.2002
  0
VERTEX
  5
c0
  8
Layer_0
  10
225.49992
  20
145.2002
  0
SEQEND
  0
POLYLINE
  5
c2
  8
Layer_0
  62
1
  66
1
  10
0
  20
0
  30
0
  0
VERTEX
  5
c2
  8
Layer_0
  10
225.49992
  20
145.2002
  0
VERTEX
  5
c3
  8
Layer_0
  10
225.49992
  20
175.2002
  0
SEQEND
  0
POLYLINE
  5
c5
  8
Layer_0
  62
1
  66
1
  10
0
  20
0
  30
0
  0
VERTEX
  5
c5
  8
Layer_0
  10
225.49992
  20
175.2002
  0
VERTEX
  5
c6
  8
Layer_0
  10
222.49992
  20
175.2002
  0
SEQEND
  0
POLYLINE
  5
c8
  8
Layer_0
  62
1
  66
1
  10
0
  20
0
  30
0
  0
VERTEX
  5
c8
  8
Layer_0
  10
222.49992
  20
175.2002
  0
VERTEX
  5
c9
  8
Layer_0
  10
222.49992
  20
190.2002
  0
SEQEND
  0
POLYLINE
  5
cb
  8
Layer_0
  62
1
  66
1
  10
0
  20
0
  30
0
  0
VERTEX
  5
cb
  8
Layer_0
  10
222.49992
  20
190.2002
  0
VERTEX
  5
cc
  8
Layer_0
  10
212.49992
  20
190.2002
  0
SEQEND
  0
POLYLINE
  5
ce
  8
Layer_0
  62
1
  66
1
  10
0
  20
0
  30
0
  0
VERTEX
  5
ce
  8
Layer_0
  10
212.49992
  20
190.2002
  0
VERTEX
  5
cf
  8
Layer_0
  10
212.49992
  20
193.2002
  0
SEQEND
  0
POLYLINE
  5
d1
  8
Layer_0
  62
1
  66
1
  10
0
  20
0
  30
0
  0
VERTEX
  5
d1
  8
Layer_0
  10
212.49992
  20
193.2002
  0
VERTEX
  5
d2
  8
Layer_0
  10
182.49992
  20
193.2002
  0
SEQEND
  0
POLYLINE
  5
d4
  8
Layer_0
  62
1
  66
1
  10
0
  20
0
  30
0
  0
VERTEX
  5
d4
  8
Layer_0
  10
182.49992
  20
193.2002
  0
VERTEX
  5
d5
  8
Layer_0
  10
182.49992
  20
190.2002
  0
SEQEND
  0
POLYLINE
  5
d7
  8
Layer_0
  62
1
  66
1
  10
0
  20
0
  30
0
  0
VERTEX
  5
d7
  8
Layer_0
  10
182.49992
  20
190.2002
  0
VERTEX
  5
d8
  8
Layer_0
  10
162.49992
  20
190.2002
  0
SEQEND
  0
POLYLINE
  5
da
  8
Layer_0
  62
1
  66
1
  10
0
  20
0
  30
0
  0
VERTEX
  5
da
  8
Layer_0
  10
162.49992
  20
190.2002
  0
VERTEX
  5
db
  8
Layer_0
  10
162.49992
  20
193.2002
  0
SEQEND
  0
POLYLINE
  5
dd
  8
Layer_0
  62
1
  66
1
  10
0
  20
0
  30
0
  0
VERTEX
  5
dd
  8
Layer_0
  10
162.49992
  20
193.2002
  0
VERTEX
  5
de
  8
Layer_0
  10
132.49992
  20
193.2002
  0
SEQEND
  0
POLYLINE
  5
e0
  8
Layer_0
  62
1
  66
1
  10
0
  20
0
  30
0
  0
VERTEX
  5
e0
  8
Layer_0
  10
132.49992
  20
193.2002
  0
VERTEX
  5
e1
  8
Layer_0
  10
132.49992
  20
190.2002
  0
SEQEND
  0
POLYLINE
  5
e3
  8
Layer_0
  62
1
  66
1
  10
0
  20
0
  30
0
  0
VERTEX
  5
e3
  8
Layer_0
  10
132.49992
  20
190.2002
  0
VERTEX
  5
e4
  8
Layer_0
  10
122.49992
  20
190.2002
  0
SEQEND
  0
POLYLINE
  5
e6
  8
Layer_1
  62
3
  66
1
  10
0
  20
0
  30
0
  0
VERTEX
  5
e6
  8
Layer_1
  10
63.343697
  20
181.97626
  42
0.21999434
  0
VERTEX
  5
e7
  8
Layer_1
  10
63.660858
  20
181.84933
  42
0.14359498
  0
VERTEX
  5
e8
  8
Layer_1
  10
63.918716
  20
181.91783
  42
0.17420584
  0
VERTEX
  5
e9
  8
Layer_1
  10
64.068146
  20
182.10402
  42
0.076352968
  0
VERTEX
  5
ea
  8
Layer_1
  10
64.109146
  20
182.47952
  0
VERTEX
  5
eb
  8
Layer_1
  10
64.109558
  20
184.54637
  0
VERTEX
  5
ec
  8
Layer_1
  10
64.506561
  20
184.5463
  0
VERTEX
  5
ed
  8
Layer_1
  10
64.506149
  20
182.50195
  42
-0.099838986
  0
VERTEX
  5
ee
  8
Layer_1
  10
64.414963
  20
181.91875
  42
-0.16895187
  0
VERTEX
  5
ef
  8
Layer_1
  10
64.126358
  20
181.60367
  42
-0.12725576
  0
VERTEX
  5
f0
  8
Layer_1
  10
63.662834
  20
181.4953
  42
-0.2150647
  0
VERTEX
  5
f1
  8
Layer_1
  10
63.058174
  20
181.72256
  42
-0.194301
  0
VERTEX
  5
f2
  8
Layer_1
  10
62.856739
  20
182.39792
  0
VERTEX
  5
f3
  8
Layer_1
  10
63.214867
  20
182.44696
  42
0.16218041
  0
VERTEX
  5
f4
  8
Layer_1
  10
63.343697
  20
181.97626
  0
SEQEND
  0
POLYLINE
  5
f6
  8
Layer_1
  62
3
  66
1
  10
0
  20
0
  30
0
  0
VERTEX
  5
f6
  8
Layer_1
  10
65.656548
  20
184.15315
  0
VERTEX
  5
f7
  8
Layer_1
  10
66.853683
  20
184.15292
  0
VERTEX
  5
f8
  8
Layer_1
  10
66.853752
  20
184.5049
  0
VERTEX
  5
f9
  8
Layer_1
  10
65.361938
  20
184.50519
  0
VERTEX
  5
fa
  8
Layer_1
  10
65.071045
  20
182.96432
  0
VERTEX
  5
fb
  8
Layer_1
  10
65.41687
  20
182.91924
  42
-0.12500398
  0
VERTEX
  5
fc
  8
Layer_1
  10
65.642014
  20
183.12894
  42
-0.13118318
  0
VERTEX
  5
fd
  8
Layer_1
  10
65.963318
  20
183.20972
  42
-0.20976164
  0
VERTEX
  5
fe
  8
Layer_1
  10
66.426788
  20
183.0275
  42
-0.20013258
  0
VERTEX
  5
ff
  8
Layer_1
  10
66.603699
  20
182.53018
  42
-0.19258625
  0
VERTEX
  5
100
  8
Layer_1
  10
66.419418
  20
181.99815
  42
-0.21847125
  0
VERTEX
  5
101
  8
Layer_1
  10
65.969177
  20
181.7977
  42
-0.19317134
  0
VERTEX
  5
102
  8
Layer_1
  10
65.591644
  20
181.94
  42
-0.1735393
  0
VERTEX
  5
103
  8
Layer_1
  10
65.392204
  20
182.36467
  0
VERTEX
  5
104
  8
Layer_1
  10
65.005432
  20
182.332
  42
0.19551053
  0
VERTEX
  5
105
  8
Layer_1
  10
65.30101
  20
181.72417
  42
0.18775611
  0
VERTEX
  5
106
  8
Layer_1
  10
65.969116
  20
181.49484
  42
0.24025297
  0
VERTEX
  5
107
  8
Layer_1
  10
66.757042
  20
181.85893
  42
0.17462793
  0
VERTEX
  5
108
  8
Layer_1
  10
66.994568
  20
182.56285
  42
0.20476899
  0
VERTEX
  5
109
  8
Layer_1
  10
66.724579
  20
183.26276
  42
0.20752971
  0
VERTEX
  5
10a
  8
Layer_1
  10
66.061607
  20
183.53506
  42
0.15622583
  0
VERTEX
  5
10b
  8
Layer_1
  10
65.49472
  20
183.34691
  0
VERTEX
  5
10c
  8
Layer_1
  10
65.656548
  20
184.15315
  0
SEQEND
  0
POLYLINE
  5
10e
  8
Layer_1
  62
3
  66
1
  10
0
  20
0
  30
0
  0
VERTEX
  5
10e
  8
Layer_1
  10
68.01178
  20
183.39348
  42
-0.12038788
  0
VERTEX
  5
10f
  8
Layer_1
  10
68.41494
  20
183.49162
  42
-0.21321539
  0
VERTEX
  5
110
  8
Layer_1
  10
69.042099
  20
183.22035
  42
-0.19884631
  0
VERTEX
  5
111
  8
Layer_1
  10
69.300827
  20
182.51941
  42
-0.11831153
  0
VERTEX
  5
112
  8
Layer_1
  10
69.17897
  20
181.99454
  42
-0.14348909
  0
VERTEX
  5
113
  8
Layer_1
  10
68.844307
  20
181.62318
  42
-0.13921844
  0
VERTEX
  5
114
  8
Layer_1
  10
68.361336
  20
181.49435
  42
-0.22853678
  0
VERTEX
  5
115
  8
Layer_1
  10
67.610382
  20
181.83319
  42
-0.17286027
  0
VERTEX
  5
116
  8
Layer_1
  10
67.320015
  20
182.94955
  42
-0.15682148
  0
VERTEX
  5
117
  8
Layer_1
  10
67.615326
  20
184.18042
  0
VERTEX
  5
118
  8
Layer_1
  10
67.641556
  20
184.21414
  42
-0.23604666
  0
VERTEX
  5
119
  8
Layer_1
  10
68.396736
  20
184.55779
  42
-0.18657869
  0
VERTEX
  5
11a
  8
Layer_1
  10
68.976852
  20
184.35918
  42
-0.18753387
  0
VERTEX
  5
11b
  8
Layer_1
  10
69.247879
  20
183.81068
  0
VERTEX
  5
11c
  8
Layer_1
  10
68.881577
  20
183.7821
  42
0.12598513
  0
VERTEX
  5
11d
  8
Layer_1
  10
68.742485
  20
184.09729
  42
0.21435373
  0
VERTEX
  5
11e
  8
Layer_1
  10
68.374161
  20
184.25493
  42
0.16355516
  0
VERTEX
  5
11f
  8
Layer_1
  10
68.06514
  20
184.15677
  42
0.13946377
  0
VERTEX
  5
120
  8
Layer_1
  10
67.790848
  20
183.78642
  42
0.091181572
  0
VERTEX
  5
121
  8
Layer_1
  10
67.686348
  20
183.09271
  42
-0.13197791
  0
VERTEX
  5
122
  8
Layer_1
  10
68.01178
  20
183.39348
  0
SEQEND
  0
POLYLINE
  5
124
  8
Layer_1
  62
3
  66
1
  10
0
  20
0
  30
0
  0
VERTEX
  5
124
  8
Layer_1
  10
68.050362
  20
181.88835
  42
0.14272911
  0
VERTEX
  5
125
  8
Layer_1
  10
68.355255
  20
181.79723
  42
0.22265827
  0
VERTEX
  5
126
  8
Layer_1
  10
68.756386
  20
181.98541
  42
0.187608
  0
VERTEX
  5
127
  8
Layer_1
  10
68.924286
  20
182.49698
  42
0.19265353
  0
VERTEX
  5
128
  8
Layer_1
  10
68.758636
  20
182.98712
  42
0.21724955
  0
VERTEX
  5
129
  8
Layer_1
  10
68.341202
  20
183.16626
  42
0.21049238
  0
VERTEX
  5
12a
  8
Layer_1
  10
67.917572
  20
182.98729
  42
0.20108966
  0
VERTEX
  5
12b
  8
Layer_1
  10
67.74353
  20
182.51767
  42
0.11027513
  0
VERTEX
  5
12c
  8
Layer_1
  10
67.824295
  20
182.15341
  42
0.1477009
  0
VERTEX
  5
12d
  8
Layer_1
  10
68.050362
  20
181.88835
  0
SEQEND
  0
POLYLINE
  5
12f
  8
Layer_1
  62
3
  66
1
  10
0
  20
0
  30
0
  0
VERTEX
  5
12f
  8
Layer_1
  10
71.870728
  20
180.71194
  0
VERTEX
  5
130
  8
Layer_1
  10
71.870781
  20
180.97797
  0
VERTEX
  5
131
  8
Layer_1
  10
69.429443
  20
180.97845
  0
VERTEX
  5
132
  8
Layer_1
  10
69.42939
  20
180.71243
  0
VERTEX
  5
133
  8
Layer_1
  10
71.870728
  20
180.71194
  0
SEQEND
  0
POLYLINE
  5
135
  8
Layer_1
  62
3
  66
1
  10
0
  20
0
  30
0
  0
VERTEX
  5
135
  8
Layer_1
  10
74.146851
  20
183.41475
  42
0.14114765
  0
VERTEX
  5
136
  8
Layer_1
  10
74.251289
  20
183.77695
  42
0.14241885
  0
VERTEX
  5
137
  8
Layer_1
  10
74.133698
  20
184.17294
  42
0.15449846
  0
VERTEX
  5
138
  8
Layer_1
  10
73.80838
  20
184.45337
  42
0.10107003
  0
VERTEX
  5
139
  8
Layer_1
  10
73.256897
  20
184.54454
  0
VERTEX
  5
13a
  8
Layer_1
  10
72.131386
  20
184.54477
  0
VERTEX
  5
13b
  8
Layer_1
  10
72.130783
  20
181.54477
  0
VERTEX
  5
13c
  8
Layer_1
  10
73.274719
  20
181.54453
  42
0.061108483
  0
VERTEX
  5
13d
  8
Layer_1
  10
73.758698
  20
181.59457
  42
0.098725205
  0
VERTEX
  5
13e
  8
Layer_1
  10
74.087173
  20
181.74287
  42
0.11833247
  0
VERTEX
  5
13f
  8
Layer_1
  10
74.307213
  20
182.02216
  42
0.11606566
  0
VERTEX
  5
140
  8
Layer_1
  10
74.396309
  20
182.41402
  42
0.16826248
  0
VERTEX
  5
141
  8
Layer_1
  10
74.250084
  20
182.86835
  42
0.16311054
  0
VERTEX
  5
142
  8
Layer_1
  10
73.83165
  20
183.14059
  42
0.14274175
  0
VERTEX
  5
143
  8
Layer_1
  10
74.146851
  20
183.41475
  0
SEQEND
  0
POLYLINE
  5
145
  8
Layer_1
  62
3
  66
1
  10
0
  20
0
  30
0
  0
VERTEX
  5
145
  8
Layer_1
  10
72.52832
  20
184.19066
  0
VERTEX
  5
146
  8
Layer_1
  10
73.127907
  20
184.19054
  42
-0.067047786
  0
VERTEX
  5
147
  8
Layer_1
  10
73.584244
  20
184.1485
  42
-0.18370364
  0
VERTEX
  5
148
  8
Layer_1
  10
73.788849
  20
183.99294
  42
-0.14479659
  0
VERTEX
  5
149
  8
Layer_1
  10
73.86042
  20
183.72995
  42
-0.16299934
  0
VERTEX
  5
14a
  8
Layer_1
  10
73.78363
  20
183.46803
  42
-0.16486011
  0
VERTEX
  5
14b
  8
Layer_1
  10
73.55542
  20
183.3187
  42
-0.065633605
  0
VERTEX
  5
14c
  8
Layer_1
  10
73.176834
  20
183.28398
  0
VERTEX
  5
14d
  8
Layer_1
  10
72.528137
  20
183.28412
  0
VERTEX
  5
14e
  8
Layer_1
  10
72.52832
  20
184.19066
  0
SEQEND
  0
POLYLINE
  5
150
  8
Layer_1
  62
3
  66
1
  10
0
  20
0
  30
0
  0
VERTEX
  5
150
  8
Layer_1
  10
72.528061
  20
182.93008
  0
VERTEX
  5
151
  8
Layer_1
  10
73.221786
  20
182.92995
  42
-0.075035914
  0
VERTEX
  5
152
  8
Layer_1
  10
73.660721
  20
182.87973
  42
-0.16663149
  0
VERTEX
  5
153
  8
Layer_1
  10
73.899094
  20
182.70573
  42
-0.15613326
  0
VERTEX
  5
154
  8
Layer_1
  10
73.984985
  20
182.41411
  42
-0.12609477
  0
VERTEX
  5
155
  8
Layer_1
  10
73.925591
  20
182.16139
  42
-0.13186235
  0
VERTEX
  5
156
  8
Layer_1
  10
73.774124
  20
181.99463
  42
-0.094068645
  0
VERTEX
  5
157
  8
Layer_1
  10
73.544907
  20
181.91283
  42
-0.042504146
  0
VERTEX
  5
158
  8
Layer_1
  10
73.274788
  20
181.89856
  0
VERTEX
  5
159
  8
Layer_1
  10
72.527855
  20
181.89871
  0
VERTEX
  5
15a
  8
Layer_1
  10
72.528061
  20
182.93008
  0
SEQEND
  0
POLYLINE
  5
15c
  8
Layer_1
  62
3
  66
1
  10
0
  20
0
  30
0
  0
VERTEX
  5
15c
  8
Layer_1
  10
75.884033
  20
182.44443
  0
VERTEX
  5
15d
  8
Layer_1
  10
75.884109
  20
182.81482
  0
VERTEX
  5
15e
  8
Layer_1
  10
74.752457
  20
182.81503
  0
VERTEX
  5
15f
  8
Layer_1
  10
74.75238
  20
182.44464
  0
VERTEX
  5
160
  8
Layer_1
  10
75.884033
  20
182.44443
  0
SEQEND
  0
POLYLINE
  5
162
  8
Layer_1
  62
3
  66
1
  10
0
  20
0
  30
0
  0
VERTEX
  5
162
  8
Layer_1
  10
77.154007
  20
183.36606
  42
0.058046541
  0
VERTEX
  5
163
  8
Layer_1
  10
76.772156
  20
182.39923
  42
0.059100226
  0
VERTEX
  5
164
  8
Layer_1
  10
76.632828
  20
181.54385
  0
VERTEX
  5
165
  8
Layer_1
  10
77.011414
  20
181.54379
  42
-0.054284203
  0
VERTEX
  5
166
  8
Layer_1
  10
77.152779
  20
182.36845
  42
-0.057261221
  0
VERTEX
  5
167
  8
Layer_1
  10
77.587845
  20
183.40793
  42
-0.060607882
  0
VERTEX
  5
168
  8
Layer_1
  10
78.155884
  20
184.21819
  0
VERTEX
  5
169
  8
Layer_1
  10
78.155937
  20
184.50467
  0
VERTEX
  5
16a
  8
Layer_1
  10
76.213913
  20
184.50507
  0
VERTEX
  5
16b
  8
Layer_1
  10
76.213844
  20
184.15103
  0
VERTEX
  5
16c
  8
Layer_1
  10
77.683151
  20
184.15074
  42
0.057267269
  0
VERTEX
  5
16d
  8
Layer_1
  10
77.154007
  20
183.36606
  0
SEQEND
  0
ENDSEC
  0
EOF
