  0
SECTION
  2
HEADER
  9
$ACADVER
  1
AC1009
  0
ENDSEC
  0
SECTION
  2
ENTITIES
  0
CIRCLE
  5
90
  8
Layer_1
  62
1
  10
116.67251
  20
151.40839
  30
0
  40
1.5
  0
CIRCLE
  5
90
  8
Layer_1
  62
1
  10
116.67251
  20
196.40839
  30
0
  40
1.5
  0
CIRCLE
  5
90
  8
Layer_1
  62
1
  10
201.67252
  20
196.40839
  30
0
  40
1.5
  0
CIRCLE
  5
90
  8
Layer_1
  62
1
  10
201.67252
  20
151.40839
  30
0
  40
1.5
  0
CIRCLE
  5
90
  8
Layer_1
  62
1
  10
168.67252
  20
189.40839
  30
0
  40
1.5
  0
CIRCLE
  5
90
  8
Layer_1
  62
1
  10
168.67252
  20
158.40839
  30
0
  40
1.5
  0
CIRCLE
  5
90
  8
Layer_1
  62
1
  10
199.67252
  20
158.40839
  30
0
  40
1.5
  0
CIRCLE
  5
90
  8
Layer_1
  62
1
  10
199.67252
  20
189.40839
  30
0
  40
1.5
  0
CIRCLE
  5
90
  8
Layer_1
  62
1
  10
184.17252
  20
173.90839
  30
0
  40
7.5
  0
CIRCLE
  5
90
  8
Layer_1
  62
1
  10
39.172508
  20
148.90839
  30
0
  40
1.5
  0
CIRCLE
  5
90
  8
Layer_1
  62
1
  10
39.172508
  20
198.90839
  30
0
  40
1.5
  0
CIRCLE
  5
90
  8
Layer_1
  62
1
  10
62.722507
  20
173.90839
  30
0
  40
19.700001
  0
CIRCLE
  5
90
  8
Layer_1
  62
1
  10
62.722507
  20
197.90839
  30
0
  40
1.5
  0
CIRCLE
  5
90
  8
Layer_1
  62
1
  10
41.937897
  20
161.90839
  30
0
  40
1.5
  0
CIRCLE
  5
90
  8
Layer_1
  62
1
  10
83.507118
  20
161.90839
  30
0
  40
1.5
  0
CIRCLE
  5
90
  8
Layer_1
  62
1
  10
149.17252
  20
153.90839
  30
0
  40
5
  0
POLYLINE
  5
90
  8
Layer_1
  62
1
  66
1
  10
0
  20
0
  30
0
  0
VERTEX
  5
90
  8
Layer_1
  10
109.17251
  20
203.90839
  0
VERTEX
  5
91
  8
Layer_1
  10
86.672508
  20
203.90839
  0
VERTEX
  5
92
  8
Layer_1
  10
86.672508
  20
206.90839
  0
VERTEX
  5
93
  8
Layer_1
  10
56.672508
  20
206.90839
  0
VERTEX
  5
94
  8
Layer_1
  10
56.672508
  20
203.90839
  0
VERTEX
  5
95
  8
Layer_1
  10
34.172508
  20
203.90839
  0
VERTEX
  5
96
  8
Layer_1
  10
34.172508
  20
188.90839
  0
VERTEX
  5
97
  8
Layer_1
  10
31.172508
  20
188.90839
  0
VERTEX
  5
98
  8
Layer_1
  10
31.172508
  20
158.90839
  0
VERTEX
  5
99
  8
Layer_1
  10
34.172508
  20
158.90839
  0
VERTEX
  5
9a
  8
Layer_1
  10
34.172508
  20
143.90839
  0
VERTEX
  5
9b
  8
Layer_1
  10
56.672508
  20
143.90839
  0
VERTEX
  5
9c
  8
Layer_1
  10
56.672508
  20
140.90839
  0
VERTEX
  5
9d
  8
Layer_1
  10
86.672508
  20
140.90839
  0
VERTEX
  5
9e
  8
Layer_1
  10
86.672508
  20
143.90839
  0
VERTEX
  5
9f
  8
Layer_1
  10
109.17251
  20
143.90839
  0
SEQEND
  0
POLYLINE
  5
a1
  8
Layer_1
  62
1
  66
1
  10
0
  20
0
  30
0
  0
VERTEX
  5
a1
  8
Layer_1
  10
122.17251
  20
161.40839
  0
VERTEX
  5
a2
  8
Layer_1
  10
122.17251
  20
186.40839
  42
0.41421356
  0
VERTEX
  5
a3
  8
Layer_1
  10
119.67251
  20
188.90839
  42
0.41421356
  0
VERTEX
  5
a4
  8
Layer_1
  10
117.17251
  20
186.40839
  0
VERTEX
  5
a5
  8
Layer_1
  10
117.17251
  20
161.40839
  42
0.41421356
  0
VERTEX
  5
a6
  8
Layer_1
  10
119.67251
  20
158.90839
  42
0.41421356
  0
VERTEX
  5
a7
  8
Layer_1
  10
122.17251
  20
161.40839
  0
SEQEND
  0
POLYLINE
  5
a9
  8
Layer_1
  62
1
  66
1
  10
0
  20
0
  30
0
  0
VERTEX
  5
a9
  8
Layer_1
  10
119.17251
  20
143.90839
  0
VERTEX
  5
aa
  8
Layer_1
  10
119.17251
  20
140.90839
  0
SEQEND
  0
POLYLINE
  5
ac
  8
Layer_1
  62
1
  66
1
  10
0
  20
0
  30
0
  0
VERTEX
  5
ac
  8
Layer_1
  10
119.17251
  20
140.90839
  0
VERTEX
  5
ad
  8
Layer_1
  10
149.17252
  20
140.90839
  0
SEQEND
  0
POLYLINE
  5
af
  8
Layer_1
  62
1
  66
1
  10
0
  20
0
  30
0
  0
VERTEX
  5
af
  8
Layer_1
  10
149.17252
  20
140.90839
  0
VERTEX
  5
b0
  8
Layer_1
  10
149.17252
  20
143.90839
  0
SEQEND
  0
POLYLINE
  5
b2
  8
Layer_1
  62
1
  66
1
  10
0
  20
0
  30
0
  0
VERTEX
  5
b2
  8
Layer_1
  10
149.17252
  20
143.90839
  0
VERTEX
  5
b3
  8
Layer_1
  10
169.17252
  20
143.90839
  0
SEQEND
  0
POLYLINE
  5
b5
  8
Layer_1
  62
1
  66
1
  10
0
  20
0
  30
0
  0
VERTEX
  5
b5
  8
Layer_1
  10
169.17252
  20
143.90839
  0
VERTEX
  5
b6
  8
Layer_1
  10
169.17252
  20
140.90839
  0
SEQEND
  0
POLYLINE
  5
b8
  8
Layer_1
  62
1
  66
1
  10
0
  20
0
  30
0
  0
VERTEX
  5
b8
  8
Layer_1
  10
169.17252
  20
140.90839
  0
VERTEX
  5
b9
  8
Layer_1
  10
199.17252
  20
140.90839
  0
SEQEND
  0
POLYLINE
  5
bb
  8
Layer_1
  62
1
  66
1
  10
0
  20
0
  30
0
  0
VERTEX
  5
bb
  8
Layer_1
  10
199.17252
  20
140.90839
  0
VERTEX
  5
bc
  8
Layer_1
  10
199.17252
  20
143.90839
  0
SEQEND
  0
POLYLINE
  5
be
  8
Layer_1
  62
1
  66
1
  10
0
  20
0
  30
0
  0
VERTEX
  5
be
  8
Layer_1
  10
199.17252
  20
143.90839
  0
VERTEX
  5
bf
  8
Layer_1
  10
209.17252
  20
143.90839
  0
SEQEND
  0
POLYLINE
  5
c1
  8
Layer_1
  62
1
  66
1
  10
0
  20
0
  30
0
  0
VERTEX
  5
c1
  8
Layer_1
  10
209.17252
  20
143.90839
  0
VERTEX
  5
c2
  8
Layer_1
  10
209.17252
  20
158.90839
  0
SEQEND
  0
POLYLINE
  5
c4
  8
Layer_1
  62
1
  66
1
  10
0
  20
0
  30
0
  0
VERTEX
  5
c4
  8
Layer_1
  10
209.17252
  20
158.90839
  0
VERTEX
  5
c5
  8
Layer_1
  10
212.17252
  20
158.90839
  0
SEQEND
  0
POLYLINE
  5
c7
  8
Layer_1
  62
1
  66
1
  10
0
  20
0
  30
0
  0
VERTEX
  5
c7
  8
Layer_1
  10
212.17252
  20
158.90839
  0
VERTEX
  5
c8
  8
Layer_1
  10
212.17252
  20
188.90839
  0
SEQEND
  0
POLYLINE
  5
ca
  8
Layer_1
  62
1
  66
1
  10
0
  20
0
  30
0
  0
VERTEX
  5
ca
  8
Layer_1
  10
212.17252
  20
188.90839
  0
VERTEX
  5
cb
  8
Layer_1
  10
209.17252
  20
188.90839
  0
SEQEND
  0
POLYLINE
  5
cd
  8
Layer_1
  62
1
  66
1
  10
0
  20
0
  30
0
  0
VERTEX
  5
cd
  8
Layer_1
  10
209.17252
  20
188.90839
  0
VERTEX
  5
ce
  8
Layer_1
  10
209.17252
  20
203.90839
  0
SEQEND
  0
POLYLINE
  5
d0
  8
Layer_1
  62
1
  66
1
  10
0
  20
0
  30
0
  0
VERTEX
  5
d0
  8
Layer_1
  10
209.17252
  20
203.90839
  0
VERTEX
  5
d1
  8
Layer_1
  10
199.17252
  20
203.90839
  0
SEQEND
  0
POLYLINE
  5
d3
  8
Layer_1
  62
1
  66
1
  10
0
  20
0
  30
0
  0
VERTEX
  5
d3
  8
Layer_1
  10
199.17252
  20
203.90839
  0
VERTEX
  5
d4
  8
Layer_1
  10
199.17252
  20
206.90839
  0
SEQEND
  0
POLYLINE
  5
d6
  8
Layer_1
  62
1
  66
1
  10
0
  20
0
  30
0
  0
VERTEX
  5
d6
  8
Layer_1
  10
199.17252
  20
206.90839
  0
VERTEX
  5
d7
  8
Layer_1
  10
169.17252
  20
206.90839
  0
SEQEND
  0
POLYLINE
  5
d9
  8
Layer_1
  62
1
  66
1
  10
0
  20
0
  30
0
  0
VERTEX
  5
d9
  8
Layer_1
  10
169.17252
  20
206.90839
  0
VERTEX
  5
da
  8
Layer_1
  10
169.17252
  20
203.90839
  0
SEQEND
  0
POLYLINE
  5
dc
  8
Layer_1
  62
1
  66
1
  10
0
  20
0
  30
0
  0
VERTEX
  5
dc
  8
Layer_1
  10
169.17252
  20
203.90839
  0
VERTEX
  5
dd
  8
Layer_1
  10
149.17252
  20
203.90839
  0
SEQEND
  0
POLYLINE
  5
df
  8
Layer_1
  62
1
  66
1
  10
0
  20
0
  30
0
  0
VERTEX
  5
df
  8
Layer_1
  10
149.17252
  20
203.90839
  0
VERTEX
  5
e0
  8
Layer_1
  10
149.17252
  20
206.90839
  0
SEQEND
  0
POLYLINE
  5
e2
  8
Layer_1
  62
1
  66
1
  10
0
  20
0
  30
0
  0
VERTEX
  5
e2
  8
Layer_1
  10
149.17252
  20
206.90839
  0
VERTEX
  5
e3
  8
Layer_1
  10
119.17251
  20
206.90839
  0
SEQEND
  0
POLYLINE
  5
e5
  8
Layer_1
  62
1
  66
1
  10
0
  20
0
  30
0
  0
VERTEX
  5
e5
  8
Layer_1
  10
119.17251
  20
206.90839
  0
VERTEX
  5
e6
  8
Layer_1
  10
119.17251
  20
203.90839
  0
SEQEND
  0
POLYLINE
  5
e8
  8
Layer_1
  62
1
  66
1
  10
0
  20
0
  30
0
  0
VERTEX
  5
e8
  8
Layer_1
  10
119.17251
  20
203.90839
  0
VERTEX
  5
e9
  8
Layer_1
  10
109.17251
  20
203.90839
  0
SEQEND
  0
POLYLINE
  5
eb
  8
Layer_1
  62
1
  66
1
  10
0
  20
0
  30
0
  0
VERTEX
  5
eb
  8
Layer_1
  10
109.17251
  20
158.90839
  0
VERTEX
  5
ec
  8
Layer_1
  10
106.07251
  20
158.90839
  0
SEQEND
  0
POLYLINE
  5
ee
  8
Layer_1
  62
1
  66
1
  10
0
  20
0
  30
0
  0
VERTEX
  5
ee
  8
Layer_1
  10
106.07251
  20
158.90839
  0
VERTEX
  5
ef
  8
Layer_1
  10
106.07251
  20
188.90839
  0
SEQEND
  0
POLYLINE
  5
f1
  8
Layer_1
  62
1
  66
1
  10
0
  20
0
  30
0
  0
VERTEX
  5
f1
  8
Layer_1
  10
106.07251
  20
188.90839
  0
VERTEX
  5
f2
  8
Layer_1
  10
109.17251
  20
188.90839
  0
SEQEND
  0
POLYLINE
  5
f4
  8
Layer_1
  62
1
  66
1
  10
0
  20
0
  30
0
  0
VERTEX
  5
f4
  8
Layer_1
  10
109.17251
  20
188.90839
  0
VERTEX
  5
f5
  8
Layer_1
  10
109.17251
  20
158.90839
  0
SEQEND
  0
POLYLINE
  5
f7
  8
Layer_1
  62
1
  66
1
  10
0
  20
0
  30
0
  0
VERTEX
  5
f7
  8
Layer_1
  10
109.17251
  20
143.90839
  0
VERTEX
  5
f8
  8
Layer_1
  10
119.17251
  20
143.90839
  0
SEQEND
  0
POLYLINE
  5
fa
  8
Layer_0
  62
3
  66
1
  10
0
  20
0
  30
0
  0
VERTEX
  5
fa
  8
Layer_0
  10
177.12723
  20
196.34003
  42
0.21946999
  0
VERTEX
  5
fb
  8
Layer_0
  10
177.44441
  20
196.21317
  42
0.14406029
  0
VERTEX
  5
fc
  8
Layer_0
  10
177.70226
  20
196.28171
  42
0.1739789
  0
VERTEX
  5
fd
  8
Layer_0
  10
177.85164
  20
196.46793
  0
VERTEX
  5
fe
  8
Layer_0
  10
177.85498
  20
196.47798
  42
0.070190629
  0
VERTEX
  5
ff
  8
Layer_0
  10
177.89258
  20
196.84344
  0
VERTEX
  5
100
  8
Layer_0
  10
177.89258
  20
198.91029
  0
VERTEX
  5
101
  8
Layer_0
  10
178.28957
  20
198.91029
  0
VERTEX
  5
102
  8
Layer_0
  10
178.28957
  20
196.86595
  42
-0.099750836
  0
VERTEX
  5
103
  8
Layer_0
  10
178.1985
  20
196.28275
  0
VERTEX
  5
104
  8
Layer_0
  10
178.19073
  20
196.26569
  0
VERTEX
  5
105
  8
Layer_0
  10
178.18259
  20
196.24898
  42
-0.15486437
  0
VERTEX
  5
106
  8
Layer_0
  10
177.90997
  20
195.96759
  42
-0.12766944
  0
VERTEX
  5
107
  8
Layer_0
  10
177.44646
  20
195.85913
  42
-0.2149209
  0
VERTEX
  5
108
  8
Layer_0
  10
176.84175
  20
196.08629
  42
-0.19404916
  0
VERTEX
  5
109
  8
Layer_0
  10
176.64018
  20
196.7616
  0
VERTEX
  5
10a
  8
Layer_0
  10
176.99829
  20
196.8107
  42
0.16251963
  0
VERTEX
  5
10b
  8
Layer_0
  10
177.12723
  20
196.34003
  0
SEQEND
  0
POLYLINE
  5
10d
  8
Layer_0
  62
3
  66
1
  10
0
  20
0
  30
0
  0
VERTEX
  5
10d
  8
Layer_0
  10
179.43964
  20
198.5174
  0
VERTEX
  5
10e
  8
Layer_0
  10
180.63678
  20
198.5174
  0
VERTEX
  5
10f
  8
Layer_0
  10
180.63678
  20
198.86937
  0
VERTEX
  5
110
  8
Layer_0
  10
179.14496
  20
198.86937
  0
VERTEX
  5
111
  8
Layer_0
  10
178.85437
  20
197.32843
  0
VERTEX
  5
112
  8
Layer_0
  10
179.20021
  20
197.28342
  42
-0.12543441
  0
VERTEX
  5
113
  8
Layer_0
  10
179.42531
  20
197.49316
  42
-0.13056063
  0
VERTEX
  5
114
  8
Layer_0
  10
179.7466
  20
197.57401
  42
-0.20955007
  0
VERTEX
  5
115
  8
Layer_0
  10
180.2101
  20
197.39188
  42
-0.1998887
  0
VERTEX
  5
116
  8
Layer_0
  10
180.38712
  20
196.89461
  42
-0.19223464
  0
VERTEX
  5
117
  8
Layer_0
  10
180.20294
  20
196.36255
  42
-0.21838612
  0
VERTEX
  5
118
  8
Layer_0
  10
179.75273
  20
196.162
  42
-0.19223126
  0
VERTEX
  5
119
  8
Layer_0
  10
179.37518
  20
196.30423
  42
-0.17326041
  0
VERTEX
  5
11a
  8
Layer_0
  10
179.17566
  20
196.72885
  0
VERTEX
  5
11b
  8
Layer_0
  10
178.78888
  20
196.69611
  42
0.19542059
  0
VERTEX
  5
11c
  8
Layer_0
  10
179.08459
  20
196.08833
  42
0.18781478
  0
VERTEX
  5
11d
  8
Layer_0
  10
179.75273
  20
195.85913
  42
0.24026208
  0
VERTEX
  5
11e
  8
Layer_0
  10
180.54059
  20
196.22339
  42
0.17472785
  0
VERTEX
  5
11f
  8
Layer_0
  10
180.77797
  20
196.92735
  42
0.20464945
  0
VERTEX
  5
120
  8
Layer_0
  10
180.50784
  20
197.62721
  42
0.20765479
  0
VERTEX
  5
121
  8
Layer_0
  10
179.84482
  20
197.89938
  42
0.15633334
  0
VERTEX
  5
122
  8
Layer_0
  10
179.27797
  20
197.71112
  0
VERTEX
  5
123
  8
Layer_0
  10
179.43964
  20
198.5174
  0
SEQEND
  0
POLYLINE
  5
125
  8
Layer_0
  62
3
  66
1
  10
0
  20
0
  30
0
  0
VERTEX
  5
125
  8
Layer_0
  10
181.79503
  20
197.75818
  42
-0.11935707
  0
VERTEX
  5
126
  8
Layer_0
  10
182.19817
  20
197.85641
  42
-0.2130265
  0
VERTEX
  5
127
  8
Layer_0
  10
182.82538
  20
197.58527
  42
-0.19861142
  0
VERTEX
  5
128
  8
Layer_0
  10
183.08426
  20
196.88437
  42
-0.11791895
  0
VERTEX
  5
129
  8
Layer_0
  10
182.96249
  20
196.35948
  42
-0.14402951
  0
VERTEX
  5
12a
  8
Layer_0
  10
182.6279
  20
195.98805
  42
-0.13915468
  0
VERTEX
  5
12b
  8
Layer_0
  10
182.14496
  20
195.85913
  42
-0.22871986
  0
VERTEX
  5
12c
  8
Layer_0
  10
181.39394
  20
196.19781
  0
VERTEX
  5
12d
  8
Layer_0
  10
181.37022
  20
196.22681
  42
-0.16022088
  0
VERTEX
  5
12e
  8
Layer_0
  10
181.10335
  20
197.31412
  0
VERTEX
  5
12f
  8
Layer_0
  10
181.10391
  20
197.38577
  42
-0.16457341
  0
VERTEX
  5
130
  8
Layer_0
  10
181.42462
  20
198.57878
  42
-0.2362315
  0
VERTEX
  5
131
  8
Layer_0
  10
182.17975
  20
198.92258
  42
-0.18701126
  0
VERTEX
  5
132
  8
Layer_0
  10
182.75989
  20
198.72408
  42
-0.18703881
  0
VERTEX
  5
133
  8
Layer_0
  10
183.03104
  20
198.17564
  0
VERTEX
  5
134
  8
Layer_0
  10
182.66473
  20
198.14699
  42
0.1271856
  0
VERTEX
  5
135
  8
Layer_0
  10
182.52557
  20
198.46213
  42
0.21404368
  0
VERTEX
  5
136
  8
Layer_0
  10
182.15723
  20
198.61971
  42
0.16323917
  0
VERTEX
  5
137
  8
Layer_0
  10
181.84824
  20
198.52148
  42
0.13940031
  0
VERTEX
  5
138
  8
Layer_0
  10
181.57401
  20
198.15109
  42
0.091318396
  0
VERTEX
  5
139
  8
Layer_0
  10
181.46965
  20
197.45737
  42
-0.13138736
  0
VERTEX
  5
13a
  8
Layer_0
  10
181.79503
  20
197.75818
  0
SEQEND
  0
POLYLINE
  5
13c
  8
Layer_0
  62
3
  66
1
  10
0
  20
0
  30
0
  0
VERTEX
  5
13c
  8
Layer_0
  10
181.83391
  20
196.25307
  42
0.1439681
  0
VERTEX
  5
13d
  8
Layer_0
  10
182.13882
  20
196.162
  42
0.22244918
  0
VERTEX
  5
13e
  8
Layer_0
  10
182.53992
  20
196.35027
  42
0.18725706
  0
VERTEX
  5
13f
  8
Layer_0
  10
182.7077
  20
196.86186
  42
0.19200986
  0
VERTEX
  5
140
  8
Layer_0
  10
182.54196
  20
197.35197
  42
0.21787478
  0
VERTEX
  5
141
  8
Layer_0
  10
182.1245
  20
197.53104
  42
0.20988524
  0
VERTEX
  5
142
  8
Layer_0
  10
181.7009
  20
197.35197
  42
0.20129212
  0
VERTEX
  5
143
  8
Layer_0
  10
181.52695
  20
196.88232
  42
0.11016571
  0
VERTEX
  5
144
  8
Layer_0
  10
181.60779
  20
196.51807
  42
0.14710489
  0
VERTEX
  5
145
  8
Layer_0
  10
181.83391
  20
196.25307
  0
SEQEND
  0
POLYLINE
  5
147
  8
Layer_0
  62
3
  66
1
  10
0
  20
0
  30
0
  0
VERTEX
  5
147
  8
Layer_0
  10
185.65451
  20
195.07742
  0
VERTEX
  5
148
  8
Layer_0
  10
185.65451
  20
195.34344
  0
VERTEX
  5
149
  8
Layer_0
  10
183.21317
  20
195.34344
  0
VERTEX
  5
14a
  8
Layer_0
  10
183.21317
  20
195.07742
  0
VERTEX
  5
14b
  8
Layer_0
  10
185.65451
  20
195.07742
  0
SEQEND
  0
POLYLINE
  5
14d
  8
Layer_0
  62
3
  66
1
  10
0
  20
0
  30
0
  0
VERTEX
  5
14d
  8
Layer_0
  10
188.03343
  20
197.23431
  42
-0.16764456
  0
VERTEX
  5
14e
  8
Layer_0
  10
188.17975
  20
196.78
  42
-0.11646133
  0
VERTEX
  5
14f
  8
Layer_0
  10
188.09073
  20
196.38812
  42
-0.11838042
  0
VERTEX
  5
150
  8
Layer_0
  10
187.87074
  20
196.1088
  42
-0.098749694
  0
VERTEX
  5
151
  8
Layer_0
  10
187.5423
  20
195.96043
  42
-0.061279855
  0
VERTEX
  5
152
  8
Layer_0
  10
187.05832
  20
195.91029
  0
VERTEX
  5
153
  8
Layer_0
  10
185.9144
  20
195.91029
  0
VERTEX
  5
154
  8
Layer_0
  10
185.9144
  20
198.91029
  0
VERTEX
  5
155
  8
Layer_0
  10
187.03992
  20
198.91029
  42
-0.10102996
  0
VERTEX
  5
156
  8
Layer_0
  10
187.5914
  20
198.81923
  42
-0.15407628
  0
VERTEX
  5
157
  8
Layer_0
  10
187.91678
  20
198.53888
  42
-0.1416973
  0
VERTEX
  5
158
  8
Layer_0
  10
188.03445
  20
198.1429
  42
-0.14224328
  0
VERTEX
  5
159
  8
Layer_0
  10
187.93008
  20
197.78069
  42
-0.0082128504
  0
VERTEX
  5
15a
  8
Layer_0
  10
187.91196
  20
197.75284
  42
-0.12989381
  0
VERTEX
  5
15b
  8
Layer_0
  10
187.61494
  20
197.50647
  42
-0.16344271
  0
VERTEX
  5
15c
  8
Layer_0
  10
188.03343
  20
197.23431
  0
SEQEND
  0
POLYLINE
  5
15e
  8
Layer_0
  62
3
  66
1
  10
0
  20
0
  30
0
  0
VERTEX
  5
15e
  8
Layer_0
  10
186.3114
  20
198.55627
  0
VERTEX
  5
15f
  8
Layer_0
  10
186.91098
  20
198.55627
  42
-0.067069462
  0
VERTEX
  5
160
  8
Layer_0
  10
187.36734
  20
198.51431
  42
-0.18503815
  0
VERTEX
  5
161
  8
Layer_0
  10
187.57196
  20
198.3588
  42
-0.1452162
  0
VERTEX
  5
162
  8
Layer_0
  10
187.64359
  20
198.09583
  42
-0.16114919
  0
VERTEX
  5
163
  8
Layer_0
  10
187.56686
  20
197.83389
  42
-0.16572719
  0
VERTEX
  5
164
  8
Layer_0
  10
187.33868
  20
197.68451
  42
-0.06543874
  0
VERTEX
  5
165
  8
Layer_0
  10
186.9601
  20
197.64972
  0
VERTEX
  5
166
  8
Layer_0
  10
186.3114
  20
197.64972
  0
VERTEX
  5
167
  8
Layer_0
  10
186.3114
  20
198.55627
  0
SEQEND
  0
POLYLINE
  5
169
  8
Layer_0
  62
3
  66
1
  10
0
  20
0
  30
0
  0
VERTEX
  5
169
  8
Layer_0
  10
186.3114
  20
197.2957
  0
VERTEX
  5
16a
  8
Layer_0
  10
187.00513
  20
197.2957
  42
-0.074966508
  0
VERTEX
  5
16b
  8
Layer_0
  10
187.44406
  20
197.24556
  42
-0.16615156
  0
VERTEX
  5
16c
  8
Layer_0
  10
187.68246
  20
197.07162
  42
-0.1559883
  0
VERTEX
  5
16d
  8
Layer_0
  10
187.76843
  20
196.78
  42
-0.10468505
  0
VERTEX
  5
16e
  8
Layer_0
  10
187.7272
  20
196.56471
  0
VERTEX
  5
16f
  8
Layer_0
  10
187.71857
  20
196.54576
  0
VERTEX
  5
170
  8
Layer_0
  10
187.70908
  20
196.52728
  42
-0.13093188
  0
VERTEX
  5
171
  8
Layer_0
  10
187.55765
  20
196.3605
  42
-0.094014485
  0
VERTEX
  5
172
  8
Layer_0
  10
187.32846
  20
196.27864
  42
-0.044377251
  0
VERTEX
  5
173
  8
Layer_0
  10
187.05832
  20
196.26431
  0
VERTEX
  5
174
  8
Layer_0
  10
186.3114
  20
196.26431
  0
VERTEX
  5
175
  8
Layer_0
  10
186.3114
  20
197.2957
  0
SEQEND
  0
POLYLINE
  5
177
  8
Layer_0
  62
3
  66
1
  10
0
  20
0
  30
0
  0
VERTEX
  5
177
  8
Layer_0
  10
189.66747
  20
196.8107
  0
VERTEX
  5
178
  8
Layer_0
  10
189.66747
  20
197.18109
  0
VERTEX
  5
179
  8
Layer_0
  10
188.53583
  20
197.18109
  0
VERTEX
  5
17a
  8
Layer_0
  10
188.53583
  20
196.8107
  0
VERTEX
  5
17b
  8
Layer_0
  10
189.66747
  20
196.8107
  0
SEQEND
  0
POLYLINE
  5
17d
  8
Layer_0
  62
3
  66
1
  10
0
  20
0
  30
0
  0
VERTEX
  5
17d
  8
Layer_0
  10
190.64258
  20
198.00375
  42
-0.043435107
  0
VERTEX
  5
17e
  8
Layer_0
  10
190.25479
  20
197.81343
  0
VERTEX
  5
17f
  8
Layer_0
  10
190.25479
  20
198.16949
  42
0.072720778
  0
VERTEX
  5
180
  8
Layer_0
  10
190.79503
  20
198.52148
  42
0.094067809
  0
VERTEX
  5
181
  8
Layer_0
  10
191.12244
  20
198.92258
  0
VERTEX
  5
182
  8
Layer_0
  10
191.35983
  20
198.92258
  0
VERTEX
  5
183
  8
Layer_0
  10
191.35983
  20
195.91029
  0
VERTEX
  5
184
  8
Layer_0
  10
190.99149
  20
195.91029
  0
VERTEX
  5
185
  8
Layer_0
  10
190.99149
  20
198.25751
  42
-0.056775295
  0
VERTEX
  5
186
  8
Layer_0
  10
190.64258
  20
198.00375
  0
SEQEND
  0
ENDSEC
  0
EOF
