  0
SECTION
  2
HEADER
  9
$ACADVER
  1
AC1009
  0
ENDSEC
  0
SECTION
  2
ENTITIES
  0
CIRCLE
  5
90
  8
Layer_1
  62
1
  10
193.68987
  20
215.72638
  30
0
  40
1.5
  0
CIRCLE
  5
90
  8
Layer_1
  62
1
  10
178.68987
  20
200.72638
  30
0
  40
1.5
  0
CIRCLE
  5
90
  8
Layer_1
  62
1
  10
193.68987
  20
185.72638
  30
0
  40
1.5
  0
CIRCLE
  5
90
  8
Layer_1
  62
1
  10
208.68987
  20
200.72638
  30
0
  40
1.5
  0
CIRCLE
  5
90
  8
Layer_1
  62
1
  10
168.18987
  20
178.22638
  30
0
  40
1.5
  0
CIRCLE
  5
90
  8
Layer_1
  62
1
  10
168.18987
  20
223.22638
  30
0
  40
1.5
  0
CIRCLE
  5
90
  8
Layer_1
  62
1
  10
219.18987
  20
178.22638
  30
0
  40
1.5
  0
CIRCLE
  5
90
  8
Layer_1
  62
1
  10
219.18987
  20
223.22638
  30
0
  40
1.5
  0
CIRCLE
  5
90
  8
Layer_1
  62
1
  10
133.18987
  20
223.22638
  30
0
  40
1.5
  0
CIRCLE
  5
90
  8
Layer_1
  62
1
  10
133.18987
  20
178.22638
  30
0
  40
1.5
  0
CIRCLE
  5
90
  8
Layer_1
  62
1
  10
254.18987
  20
178.22638
  30
0
  40
1.5
  0
CIRCLE
  5
90
  8
Layer_1
  62
1
  10
254.18987
  20
223.22638
  30
0
  40
1.5
  0
POLYLINE
  5
90
  8
Layer_1
  62
1
  66
1
  10
0
  20
0
  30
0
  0
VERTEX
  5
90
  8
Layer_1
  10
157.68987
  20
215.72638
  0
VERTEX
  5
91
  8
Layer_1
  10
160.68987
  20
215.72638
  0
VERTEX
  5
92
  8
Layer_1
  10
160.68987
  20
185.72638
  0
SEQEND
  0
POLYLINE
  5
94
  8
Layer_1
  62
1
  66
1
  10
0
  20
0
  30
0
  0
VERTEX
  5
94
  8
Layer_1
  10
160.68987
  20
185.77638
  0
VERTEX
  5
95
  8
Layer_1
  10
157.68987
  20
185.77638
  0
SEQEND
  0
POLYLINE
  5
97
  8
Layer_1
  62
1
  66
1
  10
0
  20
0
  30
0
  0
VERTEX
  5
97
  8
Layer_1
  10
157.68987
  20
167.72638
  0
VERTEX
  5
98
  8
Layer_1
  10
149.13986
  20
167.72638
  0
VERTEX
  5
99
  8
Layer_1
  10
149.13986
  20
170.72638
  0
VERTEX
  5
9a
  8
Layer_1
  10
134.23987
  20
170.72638
  0
VERTEX
  5
9b
  8
Layer_1
  10
134.23987
  20
167.72638
  0
VERTEX
  5
9c
  8
Layer_1
  10
122.68987
  20
167.72638
  0
VERTEX
  5
9d
  8
Layer_1
  10
122.68987
  20
185.77638
  0
VERTEX
  5
9e
  8
Layer_1
  10
125.68987
  20
185.77638
  0
VERTEX
  5
9f
  8
Layer_1
  10
125.68987
  20
215.67638
  0
VERTEX
  5
a0
  8
Layer_1
  10
122.68987
  20
215.67638
  0
VERTEX
  5
a1
  8
Layer_1
  10
122.68987
  20
233.72638
  0
VERTEX
  5
a2
  8
Layer_1
  10
134.23987
  20
233.72638
  0
VERTEX
  5
a3
  8
Layer_1
  10
134.23987
  20
230.72638
  0
VERTEX
  5
a4
  8
Layer_1
  10
149.13986
  20
230.72638
  0
VERTEX
  5
a5
  8
Layer_1
  10
149.13986
  20
233.72638
  0
VERTEX
  5
a6
  8
Layer_1
  10
157.68987
  20
233.72638
  0
SEQEND
  0
POLYLINE
  5
a8
  8
Layer_1
  62
1
  66
1
  10
0
  20
0
  30
0
  0
VERTEX
  5
a8
  8
Layer_1
  10
229.68987
  20
167.72638
  0
VERTEX
  5
a9
  8
Layer_1
  10
238.23987
  20
167.72638
  0
VERTEX
  5
aa
  8
Layer_1
  10
238.23987
  20
170.72638
  0
VERTEX
  5
ab
  8
Layer_1
  10
253.13986
  20
170.72638
  0
VERTEX
  5
ac
  8
Layer_1
  10
253.13986
  20
167.72638
  0
VERTEX
  5
ad
  8
Layer_1
  10
264.68988
  20
167.72638
  0
VERTEX
  5
ae
  8
Layer_1
  10
264.68988
  20
185.77638
  0
VERTEX
  5
af
  8
Layer_1
  10
261.68988
  20
185.77638
  0
VERTEX
  5
b0
  8
Layer_1
  10
261.68988
  20
215.67638
  0
VERTEX
  5
b1
  8
Layer_1
  10
264.68988
  20
215.67638
  0
VERTEX
  5
b2
  8
Layer_1
  10
264.68988
  20
233.72638
  0
VERTEX
  5
b3
  8
Layer_1
  10
253.13986
  20
233.72638
  0
VERTEX
  5
b4
  8
Layer_1
  10
253.13986
  20
230.72638
  0
VERTEX
  5
b5
  8
Layer_1
  10
238.23987
  20
230.72638
  0
VERTEX
  5
b6
  8
Layer_1
  10
238.23987
  20
233.72638
  0
VERTEX
  5
b7
  8
Layer_1
  10
229.68987
  20
233.72638
  0
SEQEND
  0
POLYLINE
  5
b9
  8
Layer_1
  62
1
  66
1
  10
0
  20
0
  30
0
  0
VERTEX
  5
b9
  8
Layer_1
  10
229.68987
  20
215.72638
  0
VERTEX
  5
ba
  8
Layer_1
  10
229.78986
  20
215.72638
  0
VERTEX
  5
bb
  8
Layer_1
  10
229.78986
  20
185.77638
  0
VERTEX
  5
bc
  8
Layer_1
  10
229.68987
  20
185.77638
  0
SEQEND
  0
POLYLINE
  5
be
  8
Layer_1
  62
1
  66
1
  10
0
  20
0
  30
0
  0
VERTEX
  5
be
  8
Layer_1
  10
178.73987
  20
167.72638
  0
VERTEX
  5
bf
  8
Layer_1
  10
178.73987
  20
170.72638
  0
SEQEND
  0
POLYLINE
  5
c1
  8
Layer_1
  62
1
  66
1
  10
0
  20
0
  30
0
  0
VERTEX
  5
c1
  8
Layer_1
  10
178.73987
  20
170.72638
  0
VERTEX
  5
c2
  8
Layer_1
  10
208.63986
  20
170.72638
  0
SEQEND
  0
POLYLINE
  5
c4
  8
Layer_1
  62
1
  66
1
  10
0
  20
0
  30
0
  0
VERTEX
  5
c4
  8
Layer_1
  10
208.63986
  20
170.72638
  0
VERTEX
  5
c5
  8
Layer_1
  10
208.63986
  20
167.72638
  0
SEQEND
  0
POLYLINE
  5
c7
  8
Layer_1
  62
1
  66
1
  10
0
  20
0
  30
0
  0
VERTEX
  5
c7
  8
Layer_1
  10
208.63986
  20
167.72638
  0
VERTEX
  5
c8
  8
Layer_1
  10
229.68987
  20
167.72638
  0
SEQEND
  0
POLYLINE
  5
ca
  8
Layer_1
  62
1
  66
1
  10
0
  20
0
  30
0
  0
VERTEX
  5
ca
  8
Layer_1
  10
229.68987
  20
185.77638
  0
VERTEX
  5
cb
  8
Layer_1
  10
226.68987
  20
185.77638
  0
SEQEND
  0
POLYLINE
  5
cd
  8
Layer_1
  62
1
  66
1
  10
0
  20
0
  30
0
  0
VERTEX
  5
cd
  8
Layer_1
  10
226.68987
  20
185.77638
  0
VERTEX
  5
ce
  8
Layer_1
  10
226.68987
  20
215.72638
  0
SEQEND
  0
POLYLINE
  5
d0
  8
Layer_1
  62
1
  66
1
  10
0
  20
0
  30
0
  0
VERTEX
  5
d0
  8
Layer_1
  10
226.68987
  20
215.72638
  0
VERTEX
  5
d1
  8
Layer_1
  10
229.68987
  20
215.72638
  0
SEQEND
  0
POLYLINE
  5
d3
  8
Layer_1
  62
1
  66
1
  10
0
  20
0
  30
0
  0
VERTEX
  5
d3
  8
Layer_1
  10
229.68987
  20
233.72638
  0
VERTEX
  5
d4
  8
Layer_1
  10
208.63986
  20
233.72638
  0
SEQEND
  0
POLYLINE
  5
d6
  8
Layer_1
  62
1
  66
1
  10
0
  20
0
  30
0
  0
VERTEX
  5
d6
  8
Layer_1
  10
208.63986
  20
233.72638
  0
VERTEX
  5
d7
  8
Layer_1
  10
208.63986
  20
230.72638
  0
SEQEND
  0
POLYLINE
  5
d9
  8
Layer_1
  62
1
  66
1
  10
0
  20
0
  30
0
  0
VERTEX
  5
d9
  8
Layer_1
  10
208.63986
  20
230.72638
  0
VERTEX
  5
da
  8
Layer_1
  10
178.73987
  20
230.72638
  0
SEQEND
  0
POLYLINE
  5
dc
  8
Layer_1
  62
1
  66
1
  10
0
  20
0
  30
0
  0
VERTEX
  5
dc
  8
Layer_1
  10
178.73987
  20
230.72638
  0
VERTEX
  5
dd
  8
Layer_1
  10
178.73987
  20
233.72638
  0
SEQEND
  0
POLYLINE
  5
df
  8
Layer_1
  62
1
  66
1
  10
0
  20
0
  30
0
  0
VERTEX
  5
df
  8
Layer_1
  10
178.73987
  20
233.72638
  0
VERTEX
  5
e0
  8
Layer_1
  10
157.68987
  20
233.72638
  0
SEQEND
  0
POLYLINE
  5
e2
  8
Layer_1
  62
1
  66
1
  10
0
  20
0
  30
0
  0
VERTEX
  5
e2
  8
Layer_1
  10
157.68987
  20
215.72638
  0
VERTEX
  5
e3
  8
Layer_1
  10
157.58986
  20
215.72638
  0
SEQEND
  0
POLYLINE
  5
e5
  8
Layer_1
  62
1
  66
1
  10
0
  20
0
  30
0
  0
VERTEX
  5
e5
  8
Layer_1
  10
157.58986
  20
215.72638
  0
VERTEX
  5
e6
  8
Layer_1
  10
157.58986
  20
185.77638
  0
SEQEND
  0
POLYLINE
  5
e8
  8
Layer_1
  62
1
  66
1
  10
0
  20
0
  30
0
  0
VERTEX
  5
e8
  8
Layer_1
  10
157.58986
  20
185.77638
  0
VERTEX
  5
e9
  8
Layer_1
  10
157.68987
  20
185.77638
  0
SEQEND
  0
POLYLINE
  5
eb
  8
Layer_1
  62
1
  66
1
  10
0
  20
0
  30
0
  0
VERTEX
  5
eb
  8
Layer_1
  10
157.68987
  20
167.72638
  0
VERTEX
  5
ec
  8
Layer_1
  10
178.73987
  20
167.72638
  0
SEQEND
  0
POLYLINE
  5
ee
  8
Layer_0
  62
3
  66
1
  10
0
  20
0
  30
0
  0
VERTEX
  5
ee
  8
Layer_0
  10
233.81583
  20
223.04434
  42
0.21917905
  0
VERTEX
  5
ef
  8
Layer_0
  10
234.13303
  20
222.91747
  42
0.14381973
  0
VERTEX
  5
f0
  8
Layer_0
  10
234.39087
  20
222.98602
  42
0.17153477
  0
VERTEX
  5
f1
  8
Layer_0
  10
234.54025
  20
223.17224
  42
0.076437413
  0
VERTEX
  5
f2
  8
Layer_0
  10
234.58118
  20
223.54776
  0
VERTEX
  5
f3
  8
Layer_0
  10
234.58118
  20
225.61459
  0
VERTEX
  5
f4
  8
Layer_0
  10
234.97818
  20
225.61459
  0
VERTEX
  5
f5
  8
Layer_0
  10
234.97818
  20
223.57027
  42
-0.099576607
  0
VERTEX
  5
f6
  8
Layer_0
  10
234.88712
  20
222.98705
  0
VERTEX
  5
f7
  8
Layer_0
  10
234.87933
  20
222.96999
  42
-0.16153361
  0
VERTEX
  5
f8
  8
Layer_0
  10
234.59857
  20
222.67191
  42
-0.1273136
  0
VERTEX
  5
f9
  8
Layer_0
  10
234.13507
  20
222.56345
  42
-0.21486008
  0
VERTEX
  5
fa
  8
Layer_0
  10
233.53036
  20
222.79059
  42
-0.1940988
  0
VERTEX
  5
fb
  8
Layer_0
  10
233.3288
  20
223.4659
  0
VERTEX
  5
fc
  8
Layer_0
  10
233.68692
  20
223.51501
  42
0.16136759
  0
VERTEX
  5
fd
  8
Layer_0
  10
233.81583
  20
223.04434
  0
SEQEND
  0
POLYLINE
  5
ff
  8
Layer_0
  62
3
  66
1
  10
0
  20
0
  30
0
  0
VERTEX
  5
ff
  8
Layer_0
  10
236.12825
  20
225.22169
  0
VERTEX
  5
100
  8
Layer_0
  10
237.32538
  20
225.22169
  0
VERTEX
  5
101
  8
Layer_0
  10
237.32538
  20
225.57367
  0
VERTEX
  5
102
  8
Layer_0
  10
235.83357
  20
225.57367
  0
VERTEX
  5
103
  8
Layer_0
  10
235.54298
  20
224.03275
  0
VERTEX
  5
104
  8
Layer_0
  10
235.88882
  20
223.98773
  42
-0.12508565
  0
VERTEX
  5
105
  8
Layer_0
  10
236.11392
  20
224.19748
  42
-0.13087931
  0
VERTEX
  5
106
  8
Layer_0
  10
236.43521
  20
224.27831
  42
-0.21021041
  0
VERTEX
  5
107
  8
Layer_0
  10
236.89871
  20
224.09619
  42
-0.20023662
  0
VERTEX
  5
108
  8
Layer_0
  10
237.07571
  20
223.59891
  42
-0.17292095
  0
VERTEX
  5
109
  8
Layer_0
  10
236.92096
  20
223.10118
  0
VERTEX
  5
10a
  8
Layer_0
  10
236.90659
  20
223.08379
  0
VERTEX
  5
10b
  8
Layer_0
  10
236.89154
  20
223.06685
  42
-0.21816039
  0
VERTEX
  5
10c
  8
Layer_0
  10
236.44135
  20
222.8663
  42
-0.19295355
  0
VERTEX
  5
10d
  8
Layer_0
  10
236.06378
  20
223.00853
  42
-0.17417084
  0
VERTEX
  5
10e
  8
Layer_0
  10
235.86426
  20
223.43315
  0
VERTEX
  5
10f
  8
Layer_0
  10
235.47751
  20
223.40041
  42
0.19541215
  0
VERTEX
  5
110
  8
Layer_0
  10
235.77319
  20
222.79263
  42
0.18771129
  0
VERTEX
  5
111
  8
Layer_0
  10
236.44135
  20
222.56345
  42
0.24044272
  0
VERTEX
  5
112
  8
Layer_0
  10
237.2292
  20
222.9277
  42
0.17440132
  0
VERTEX
  5
113
  8
Layer_0
  10
237.46658
  20
223.63165
  42
0.20433246
  0
VERTEX
  5
114
  8
Layer_0
  10
237.19647
  20
224.33151
  42
0.20735521
  0
VERTEX
  5
115
  8
Layer_0
  10
236.53343
  20
224.60368
  42
0.15642821
  0
VERTEX
  5
116
  8
Layer_0
  10
235.96658
  20
224.41542
  0
VERTEX
  5
117
  8
Layer_0
  10
236.12825
  20
225.22169
  0
SEQEND
  0
POLYLINE
  5
119
  8
Layer_0
  62
3
  66
1
  10
0
  20
0
  30
0
  0
VERTEX
  5
119
  8
Layer_0
  10
238.48364
  20
224.46249
  42
-0.11998905
  0
VERTEX
  5
11a
  8
Layer_0
  10
238.88678
  20
224.56071
  42
-0.21304169
  0
VERTEX
  5
11b
  8
Layer_0
  10
239.51399
  20
224.28957
  42
-0.19907095
  0
VERTEX
  5
11c
  8
Layer_0
  10
239.77286
  20
223.58868
  42
-0.11840082
  0
VERTEX
  5
11d
  8
Layer_0
  10
239.65109
  20
223.06378
  42
-0.14300433
  0
VERTEX
  5
11e
  8
Layer_0
  10
239.31651
  20
222.69237
  0
VERTEX
  5
11f
  8
Layer_0
  10
239.29868
  20
222.68184
  42
-0.13284093
  0
VERTEX
  5
120
  8
Layer_0
  10
238.83357
  20
222.56345
  42
-0.22880558
  0
VERTEX
  5
121
  8
Layer_0
  10
238.08255
  20
222.90211
  42
-0.17283992
  0
VERTEX
  5
122
  8
Layer_0
  10
237.79196
  20
224.01842
  42
-0.15689385
  0
VERTEX
  5
123
  8
Layer_0
  10
238.08704
  20
225.24934
  0
VERTEX
  5
124
  8
Layer_0
  10
238.11325
  20
225.28308
  42
-0.23590292
  0
VERTEX
  5
125
  8
Layer_0
  10
238.86835
  20
225.62688
  42
-0.18710276
  0
VERTEX
  5
126
  8
Layer_0
  10
239.44852
  20
225.42838
  42
-0.18738105
  0
VERTEX
  5
127
  8
Layer_0
  10
239.71967
  20
224.87994
  0
VERTEX
  5
128
  8
Layer_0
  10
239.35336
  20
224.8513
  42
0.12616908
  0
VERTEX
  5
129
  8
Layer_0
  10
239.2142
  20
225.16644
  42
0.21356228
  0
VERTEX
  5
12a
  8
Layer_0
  10
238.84586
  20
225.32401
  42
0.1639715
  0
VERTEX
  5
12b
  8
Layer_0
  10
238.53683
  20
225.22578
  0
VERTEX
  5
12c
  8
Layer_0
  10
238.52248
  20
225.21501
  42
0.13308703
  0
VERTEX
  5
12d
  8
Layer_0
  10
238.26263
  20
224.85539
  42
0.090821915
  0
VERTEX
  5
12e
  8
Layer_0
  10
238.15826
  20
224.16167
  42
-0.13154397
  0
VERTEX
  5
12f
  8
Layer_0
  10
238.48364
  20
224.46249
  0
SEQEND
  0
POLYLINE
  5
131
  8
Layer_0
  62
3
  66
1
  10
0
  20
0
  30
0
  0
VERTEX
  5
131
  8
Layer_0
  10
238.52252
  20
222.95737
  42
0.14363143
  0
VERTEX
  5
132
  8
Layer_0
  10
238.82742
  20
222.8663
  42
0.22270462
  0
VERTEX
  5
133
  8
Layer_0
  10
239.22852
  20
223.05457
  42
0.18697266
  0
VERTEX
  5
134
  8
Layer_0
  10
239.39633
  20
223.56616
  42
0.19293219
  0
VERTEX
  5
135
  8
Layer_0
  10
239.23056
  20
224.05627
  42
0.21730129
  0
VERTEX
  5
136
  8
Layer_0
  10
238.81311
  20
224.23534
  42
0.21027651
  0
VERTEX
  5
137
  8
Layer_0
  10
238.3895
  20
224.05627
  42
0.2014765
  0
VERTEX
  5
138
  8
Layer_0
  10
238.21556
  20
223.58664
  42
0.11034918
  0
VERTEX
  5
139
  8
Layer_0
  10
238.29639
  20
223.22238
  42
0.14842678
  0
VERTEX
  5
13a
  8
Layer_0
  10
238.52252
  20
222.95737
  0
SEQEND
  0
POLYLINE
  5
13c
  8
Layer_0
  62
3
  66
1
  10
0
  20
0
  30
0
  0
VERTEX
  5
13c
  8
Layer_0
  10
242.34311
  20
221.78172
  0
VERTEX
  5
13d
  8
Layer_0
  10
242.34311
  20
222.04776
  0
VERTEX
  5
13e
  8
Layer_0
  10
239.90178
  20
222.04776
  0
VERTEX
  5
13f
  8
Layer_0
  10
239.90178
  20
221.78172
  0
VERTEX
  5
140
  8
Layer_0
  10
242.34311
  20
221.78172
  0
SEQEND
  0
POLYLINE
  5
142
  8
Layer_0
  62
3
  66
1
  10
0
  20
0
  30
0
  0
VERTEX
  5
142
  8
Layer_0
  10
244.72205
  20
223.93861
  42
-0.16798226
  0
VERTEX
  5
143
  8
Layer_0
  10
244.86835
  20
223.48431
  42
-0.11567413
  0
VERTEX
  5
144
  8
Layer_0
  10
244.77934
  20
223.09244
  42
-0.11930254
  0
VERTEX
  5
145
  8
Layer_0
  10
244.55936
  20
222.8131
  42
-0.098721356
  0
VERTEX
  5
146
  8
Layer_0
  10
244.23091
  20
222.66473
  42
-0.061159528
  0
VERTEX
  5
147
  8
Layer_0
  10
243.74695
  20
222.61459
  0
VERTEX
  5
148
  8
Layer_0
  10
242.60301
  20
222.61459
  0
VERTEX
  5
149
  8
Layer_0
  10
242.60301
  20
225.61459
  0
VERTEX
  5
14a
  8
Layer_0
  10
243.72852
  20
225.61459
  42
-0.10106115
  0
VERTEX
  5
14b
  8
Layer_0
  10
244.28003
  20
225.52353
  42
-0.15500127
  0
VERTEX
  5
14c
  8
Layer_0
  10
244.60541
  20
225.24318
  42
-0.14191494
  0
VERTEX
  5
14d
  8
Layer_0
  10
244.72307
  20
224.8472
  42
-0.14069243
  0
VERTEX
  5
14e
  8
Layer_0
  10
244.6187
  20
224.485
  42
-0.1430544
  0
VERTEX
  5
14f
  8
Layer_0
  10
244.30356
  20
224.21078
  42
-0.16342267
  0
VERTEX
  5
150
  8
Layer_0
  10
244.72205
  20
223.93861
  0
SEQEND
  0
POLYLINE
  5
152
  8
Layer_0
  62
3
  66
1
  10
0
  20
0
  30
0
  0
VERTEX
  5
152
  8
Layer_0
  10
243
  20
225.26057
  0
VERTEX
  5
153
  8
Layer_0
  10
243.59961
  20
225.26057
  42
-0.066881526
  0
VERTEX
  5
154
  8
Layer_0
  10
244.05594
  20
225.21863
  42
-0.18444473
  0
VERTEX
  5
155
  8
Layer_0
  10
244.26059
  20
225.0631
  42
-0.10919087
  0
VERTEX
  5
156
  8
Layer_0
  10
244.32773
  20
224.87259
  0
VERTEX
  5
157
  8
Layer_0
  10
244.33022
  20
224.84894
  0
VERTEX
  5
158
  8
Layer_0
  10
244.33171
  20
224.82478
  0
VERTEX
  5
159
  8
Layer_0
  10
244.33221
  20
224.80014
  42
-0.16327017
  0
VERTEX
  5
15a
  8
Layer_0
  10
244.25546
  20
224.53821
  42
-0.16365894
  0
VERTEX
  5
15b
  8
Layer_0
  10
244.02728
  20
224.38882
  42
-0.065324823
  0
VERTEX
  5
15c
  8
Layer_0
  10
243.64871
  20
224.35403
  0
VERTEX
  5
15d
  8
Layer_0
  10
243
  20
224.35403
  0
VERTEX
  5
15e
  8
Layer_0
  10
243
  20
225.26057
  0
SEQEND
  0
POLYLINE
  5
160
  8
Layer_0
  62
3
  66
1
  10
0
  20
0
  30
0
  0
VERTEX
  5
160
  8
Layer_0
  10
243
  20
224
  0
VERTEX
  5
161
  8
Layer_0
  10
243.69373
  20
224
  42
-0.075270427
  0
VERTEX
  5
162
  8
Layer_0
  10
244.13269
  20
223.94986
  42
-0.16814792
  0
VERTEX
  5
163
  8
Layer_0
  10
244.37109
  20
223.77592
  42
-0.1556549
  0
VERTEX
  5
164
  8
Layer_0
  10
244.45703
  20
223.48431
  42
-0.12705495
  0
VERTEX
  5
165
  8
Layer_0
  10
244.39769
  20
223.23158
  42
-0.13133269
  0
VERTEX
  5
166
  8
Layer_0
  10
244.24625
  20
223.0648
  42
-0.094450915
  0
VERTEX
  5
167
  8
Layer_0
  10
244.01706
  20
222.98294
  42
-0.042273734
  0
VERTEX
  5
168
  8
Layer_0
  10
243.74695
  20
222.96863
  0
VERTEX
  5
169
  8
Layer_0
  10
243
  20
222.96863
  0
VERTEX
  5
16a
  8
Layer_0
  10
243
  20
224
  0
SEQEND
  0
POLYLINE
  5
16c
  8
Layer_0
  62
3
  66
1
  10
0
  20
0
  30
0
  0
VERTEX
  5
16c
  8
Layer_0
  10
246.35608
  20
223.51501
  0
VERTEX
  5
16d
  8
Layer_0
  10
246.35608
  20
223.88541
  0
VERTEX
  5
16e
  8
Layer_0
  10
245.22443
  20
223.88541
  0
VERTEX
  5
16f
  8
Layer_0
  10
245.22443
  20
223.51501
  0
VERTEX
  5
170
  8
Layer_0
  10
246.35608
  20
223.51501
  0
SEQEND
  0
POLYLINE
  5
172
  8
Layer_0
  62
3
  66
1
  10
0
  20
0
  30
0
  0
VERTEX
  5
172
  8
Layer_0
  10
248.37585
  20
224.49318
  42
0.14805523
  0
VERTEX
  5
173
  8
Layer_0
  10
248.48022
  20
224.8472
  42
0.13834067
  0
VERTEX
  5
174
  8
Layer_0
  10
248.37074
  20
225.23398
  42
0.14302903
  0
VERTEX
  5
175
  8
Layer_0
  10
248.05458
  20
225.52148
  42
0.11966076
  0
VERTEX
  5
176
  8
Layer_0
  10
247.60233
  20
225.62688
  42
0.18272268
  0
VERTEX
  5
177
  8
Layer_0
  10
247.00684
  20
225.42326
  42
0.17651801
  0
VERTEX
  5
178
  8
Layer_0
  10
246.69987
  20
224.84924
  0
VERTEX
  5
179
  8
Layer_0
  10
247.06822
  20
224.78377
  42
-0.16854172
  0
VERTEX
  5
17a
  8
Layer_0
  10
247.2524
  20
225.18895
  42
-0.19717575
  0
VERTEX
  5
17b
  8
Layer_0
  10
247.6105
  20
225.32401
  42
-0.20011041
  0
VERTEX
  5
17c
  8
Layer_0
  10
247.96454
  20
225.19099
  42
-0.21058916
  0
VERTEX
  5
17d
  8
Layer_0
  10
248.10165
  20
224.85539
  42
-0.22720934
  0
VERTEX
  5
17e
  8
Layer_0
  10
247.9575
  20
224.50958
  0
VERTEX
  5
17f
  8
Layer_0
  10
247.94345
  20
224.4982
  0
VERTEX
  5
180
  8
Layer_0
  10
247.92874
  20
224.48727
  0
VERTEX
  5
181
  8
Layer_0
  10
247.91338
  20
224.47681
  42
-0.14841067
  0
VERTEX
  5
182
  8
Layer_0
  10
247.48978
  20
224.35403
  42
-0.027727672
  0
VERTEX
  5
183
  8
Layer_0
  10
247.43044
  20
224.35812
  0
VERTEX
  5
184
  8
Layer_0
  10
247.3895
  20
224.03479
  42
-0.062482341
  0
VERTEX
  5
185
  8
Layer_0
  10
247.6494
  20
224.07571
  42
-0.20605035
  0
VERTEX
  5
186
  8
Layer_0
  10
248.07095
  20
223.91098
  42
-0.20692047
  0
VERTEX
  5
187
  8
Layer_0
  10
248.23671
  20
223.49249
  42
-0.20481401
  0
VERTEX
  5
188
  8
Layer_0
  10
248.05765
  20
223.04639
  42
-0.20730081
  0
VERTEX
  5
189
  8
Layer_0
  10
247.6187
  20
222.8663
  42
-0.19204439
  0
VERTEX
  5
18a
  8
Layer_0
  10
247.24728
  20
223.00444
  42
-0.15748687
  0
VERTEX
  5
18b
  8
Layer_0
  10
247.03139
  20
223.45566
  0
VERTEX
  5
18c
  8
Layer_0
  10
246.66304
  20
223.40656
  42
0.19298859
  0
VERTEX
  5
18d
  8
Layer_0
  10
246.96078
  20
222.79672
  42
0.19107111
  0
VERTEX
  5
18e
  8
Layer_0
  10
247.61665
  20
222.5614
  42
0.19938575
  0
VERTEX
  5
18f
  8
Layer_0
  10
248.34106
  20
222.83459
  42
0.21311687
  0
VERTEX
  5
190
  8
Layer_0
  10
248.62756
  20
223.50069
  42
0.16749995
  0
VERTEX
  5
191
  8
Layer_0
  10
248.48022
  20
223.98465
  42
0.17984608
  0
VERTEX
  5
192
  8
Layer_0
  10
248.06686
  20
224.23943
  42
0.14271296
  0
VERTEX
  5
193
  8
Layer_0
  10
248.37585
  20
224.49318
  0
SEQEND
  0
ENDSEC
  0
EOF
