  0
SECTION
  2
HEADER
  9
$ACADVER
  1
AC1009
  0
ENDSEC
  0
SECTION
  2
ENTITIES
  0
CIRCLE
  5
90
  8
Layer_1
  62
1
  10
305.61566
  20
158.18733
  30
0
  40
1.5
  0
CIRCLE
  5
90
  8
Layer_1
  62
1
  10
305.61566
  20
203.18733
  30
0
  40
1.5
  0
CIRCLE
  5
90
  8
Layer_1
  62
1
  10
393.11566
  20
205.68733
  30
0
  40
1.5
  0
CIRCLE
  5
90
  8
Layer_1
  62
1
  10
393.11566
  20
155.68733
  30
0
  40
1.5
  0
CIRCLE
  5
90
  8
Layer_1
  62
1
  10
357.61566
  20
196.18733
  30
0
  40
1.5
  0
CIRCLE
  5
90
  8
Layer_1
  62
1
  10
357.61566
  20
165.18733
  30
0
  40
1.5
  0
CIRCLE
  5
90
  8
Layer_1
  62
1
  10
388.61566
  20
165.18733
  30
0
  40
1.5
  0
CIRCLE
  5
90
  8
Layer_1
  62
1
  10
388.61566
  20
196.18733
  30
0
  40
1.5
  0
CIRCLE
  5
90
  8
Layer_1
  62
1
  10
373.11566
  20
180.68733
  30
0
  40
7.5
  0
CIRCLE
  5
90
  8
Layer_1
  62
1
  10
228.11566
  20
155.68733
  30
0
  40
1.5
  0
CIRCLE
  5
90
  8
Layer_1
  62
1
  10
228.11566
  20
205.68733
  30
0
  40
1.5
  0
CIRCLE
  5
90
  8
Layer_1
  62
1
  10
251.66566
  20
180.68733
  30
0
  40
19.700001
  0
CIRCLE
  5
90
  8
Layer_1
  62
1
  10
251.66566
  20
204.68733
  30
0
  40
1.5
  0
CIRCLE
  5
90
  8
Layer_1
  62
1
  10
230.88104
  20
168.68733
  30
0
  40
1.5
  0
CIRCLE
  5
90
  8
Layer_1
  62
1
  10
272.45026
  20
168.68733
  30
0
  40
1.5
  0
CIRCLE
  5
90
  8
Layer_1
  62
1
  10
338.11566
  20
160.68733
  30
0
  40
5
  0
POLYLINE
  5
90
  8
Layer_1
  62
1
  66
1
  10
0
  20
0
  30
0
  0
VERTEX
  5
90
  8
Layer_1
  10
298.11566
  20
210.68733
  0
VERTEX
  5
91
  8
Layer_1
  10
275.61566
  20
210.68733
  0
VERTEX
  5
92
  8
Layer_1
  10
275.61566
  20
213.68733
  0
VERTEX
  5
93
  8
Layer_1
  10
245.61566
  20
213.68733
  0
VERTEX
  5
94
  8
Layer_1
  10
245.61566
  20
210.68733
  0
VERTEX
  5
95
  8
Layer_1
  10
223.11566
  20
210.68733
  0
VERTEX
  5
96
  8
Layer_1
  10
223.11566
  20
195.68733
  0
VERTEX
  5
97
  8
Layer_1
  10
220.11566
  20
195.68733
  0
VERTEX
  5
98
  8
Layer_1
  10
220.11566
  20
165.68733
  0
VERTEX
  5
99
  8
Layer_1
  10
223.11566
  20
165.68733
  0
VERTEX
  5
9a
  8
Layer_1
  10
223.11566
  20
150.68733
  0
VERTEX
  5
9b
  8
Layer_1
  10
245.61566
  20
150.68733
  0
VERTEX
  5
9c
  8
Layer_1
  10
245.61566
  20
147.68733
  0
VERTEX
  5
9d
  8
Layer_1
  10
275.61566
  20
147.68733
  0
VERTEX
  5
9e
  8
Layer_1
  10
275.61566
  20
150.68733
  0
VERTEX
  5
9f
  8
Layer_1
  10
298.11566
  20
150.68733
  0
SEQEND
  0
POLYLINE
  5
a1
  8
Layer_1
  62
1
  66
1
  10
0
  20
0
  30
0
  0
VERTEX
  5
a1
  8
Layer_1
  10
311.11566
  20
168.18733
  0
VERTEX
  5
a2
  8
Layer_1
  10
311.11566
  20
193.18733
  42
0.41421356
  0
VERTEX
  5
a3
  8
Layer_1
  10
308.61566
  20
195.68733
  42
0.41421356
  0
VERTEX
  5
a4
  8
Layer_1
  10
306.11566
  20
193.18733
  0
VERTEX
  5
a5
  8
Layer_1
  10
306.11566
  20
168.18733
  42
0.41421356
  0
VERTEX
  5
a6
  8
Layer_1
  10
308.61566
  20
165.68733
  42
0.41421356
  0
VERTEX
  5
a7
  8
Layer_1
  10
311.11566
  20
168.18733
  0
SEQEND
  0
POLYLINE
  5
a9
  8
Layer_0
  62
3
  66
1
  10
0
  20
0
  30
0
  0
VERTEX
  5
a9
  8
Layer_0
  10
367.9794
  20
205.32217
  0
VERTEX
  5
aa
  8
Layer_0
  10
367.98911
  20
205.31181
  42
0.20708605
  0
VERTEX
  5
ab
  8
Layer_0
  10
368.2966
  20
205.1953
  0
VERTEX
  5
ac
  8
Layer_0
  10
368.3212
  20
205.19577
  42
0.13389688
  0
VERTEX
  5
ad
  8
Layer_0
  10
368.55444
  20
205.26385
  0
VERTEX
  5
ae
  8
Layer_0
  10
368.57205
  20
205.2756
  42
0.15875588
  0
VERTEX
  5
af
  8
Layer_0
  10
368.70383
  20
205.45007
  0
VERTEX
  5
b0
  8
Layer_0
  10
368.70715
  20
205.46011
  42
0.070190629
  0
VERTEX
  5
b1
  8
Layer_0
  10
368.74475
  20
205.82558
  0
VERTEX
  5
b2
  8
Layer_0
  10
368.74475
  20
207.89243
  0
VERTEX
  5
b3
  8
Layer_0
  10
369.14175
  20
207.89243
  0
VERTEX
  5
b4
  8
Layer_0
  10
369.14175
  20
205.84808
  42
-0.099750836
  0
VERTEX
  5
b5
  8
Layer_0
  10
369.05069
  20
205.26486
  0
VERTEX
  5
b6
  8
Layer_0
  10
369.04291
  20
205.24782
  0
VERTEX
  5
b7
  8
Layer_0
  10
369.03476
  20
205.23111
  42
-0.15486437
  0
VERTEX
  5
b8
  8
Layer_0
  10
368.76215
  20
204.94972
  0
VERTEX
  5
b9
  8
Layer_0
  10
368.74557
  20
204.94087
  42
-0.12085646
  0
VERTEX
  5
ba
  8
Layer_0
  10
368.29865
  20
204.84126
  0
VERTEX
  5
bb
  8
Layer_0
  10
368.26605
  20
204.84166
  42
-0.20890948
  0
VERTEX
  5
bc
  8
Layer_0
  10
367.69394
  20
205.06842
  0
VERTEX
  5
bd
  8
Layer_0
  10
367.67682
  20
205.08774
  42
-0.18196744
  0
VERTEX
  5
be
  8
Layer_0
  10
367.49237
  20
205.74371
  0
VERTEX
  5
bf
  8
Layer_0
  10
367.85046
  20
205.79283
  0
VERTEX
  5
c0
  8
Layer_0
  10
367.85184
  20
205.76456
  42
0.16159455
  0
VERTEX
  5
c1
  8
Layer_0
  10
367.9794
  20
205.32217
  0
SEQEND
  0
POLYLINE
  5
c3
  8
Layer_0
  62
3
  66
1
  10
0
  20
0
  30
0
  0
VERTEX
  5
c3
  8
Layer_0
  10
370.29181
  20
207.49951
  0
VERTEX
  5
c4
  8
Layer_0
  10
371.48895
  20
207.49951
  0
VERTEX
  5
c5
  8
Layer_0
  10
371.48895
  20
207.8515
  0
VERTEX
  5
c6
  8
Layer_0
  10
369.99713
  20
207.8515
  0
VERTEX
  5
c7
  8
Layer_0
  10
369.70654
  20
206.31058
  0
VERTEX
  5
c8
  8
Layer_0
  10
370.0524
  20
206.26555
  42
-0.09579386
  0
VERTEX
  5
c9
  8
Layer_0
  10
370.20972
  20
206.43188
  42
-0.033694616
  0
VERTEX
  5
ca
  8
Layer_0
  10
370.2775
  20
206.47531
  42
-0.13056063
  0
VERTEX
  5
cb
  8
Layer_0
  10
370.59879
  20
206.55614
  42
-0.20955007
  0
VERTEX
  5
cc
  8
Layer_0
  10
371.06229
  20
206.37401
  42
-0.1998887
  0
VERTEX
  5
cd
  8
Layer_0
  10
371.23929
  20
205.87674
  42
-0.19223464
  0
VERTEX
  5
ce
  8
Layer_0
  10
371.05511
  20
205.34468
  42
-0.20889661
  0
VERTEX
  5
cf
  8
Layer_0
  10
370.62695
  20
205.14449
  0
VERTEX
  5
d0
  8
Layer_0
  10
370.60492
  20
205.14413
  42
-0.18357444
  0
VERTEX
  5
d1
  8
Layer_0
  10
370.24051
  20
205.27475
  0
VERTEX
  5
d2
  8
Layer_0
  10
370.22736
  20
205.28635
  42
-0.16891443
  0
VERTEX
  5
d3
  8
Layer_0
  10
370.03162
  20
205.68768
  0
VERTEX
  5
d4
  8
Layer_0
  10
370.02783
  20
205.71098
  0
VERTEX
  5
d5
  8
Layer_0
  10
369.64105
  20
205.67824
  42
0.18605593
  0
VERTEX
  5
d6
  8
Layer_0
  10
369.91559
  20
205.08981
  0
VERTEX
  5
d7
  8
Layer_0
  10
369.93677
  20
205.07047
  42
0.18171714
  0
VERTEX
  5
d8
  8
Layer_0
  10
370.57108
  20
204.84167
  0
VERTEX
  5
d9
  8
Layer_0
  10
370.60492
  20
204.84126
  42
0.17416751
  0
VERTEX
  5
da
  8
Layer_0
  10
371.23532
  20
205.04616
  42
0.056037309
  0
VERTEX
  5
db
  8
Layer_0
  10
371.39276
  20
205.20552
  42
0.17472785
  0
VERTEX
  5
dc
  8
Layer_0
  10
371.63016
  20
205.90948
  42
0.20464945
  0
VERTEX
  5
dd
  8
Layer_0
  10
371.36005
  20
206.60934
  42
0.20765479
  0
VERTEX
  5
de
  8
Layer_0
  10
370.69699
  20
206.88152
  42
0.15633334
  0
VERTEX
  5
df
  8
Layer_0
  10
370.13016
  20
206.69324
  0
VERTEX
  5
e0
  8
Layer_0
  10
370.29181
  20
207.49951
  0
SEQEND
  0
POLYLINE
  5
e2
  8
Layer_0
  62
3
  66
1
  10
0
  20
0
  30
0
  0
VERTEX
  5
e2
  8
Layer_0
  10
372.64722
  20
206.74031
  42
-0.11935707
  0
VERTEX
  5
e3
  8
Layer_0
  10
373.05035
  20
206.83853
  42
-0.2130265
  0
VERTEX
  5
e4
  8
Layer_0
  10
373.67755
  20
206.5674
  42
-0.19861142
  0
VERTEX
  5
e5
  8
Layer_0
  10
373.93643
  20
205.8665
  42
-0.11791895
  0
VERTEX
  5
e6
  8
Layer_0
  10
373.81467
  20
205.34161
  42
-0.12379612
  0
VERTEX
  5
e7
  8
Layer_0
  10
373.53186
  20
205.0042
  42
-0.017725186
  0
VERTEX
  5
e8
  8
Layer_0
  10
373.4801
  20
204.97018
  0
VERTEX
  5
e9
  8
Layer_0
  10
373.46225
  20
204.95967
  42
-0.13306695
  0
VERTEX
  5
ea
  8
Layer_0
  10
372.99713
  20
204.84126
  0
VERTEX
  5
eb
  8
Layer_0
  10
372.95905
  20
204.84186
  42
-0.21955663
  0
VERTEX
  5
ec
  8
Layer_0
  10
372.24612
  20
205.17995
  0
VERTEX
  5
ed
  8
Layer_0
  10
372.22241
  20
205.20892
  42
-0.16022088
  0
VERTEX
  5
ee
  8
Layer_0
  10
371.95554
  20
206.29625
  0
VERTEX
  5
ef
  8
Layer_0
  10
371.95609
  20
206.3679
  42
-0.16457341
  0
VERTEX
  5
f0
  8
Layer_0
  10
372.27679
  20
207.56091
  0
VERTEX
  5
f1
  8
Layer_0
  10
372.30051
  20
207.58896
  42
-0.22566166
  0
VERTEX
  5
f2
  8
Layer_0
  10
373.03192
  20
207.90471
  42
-0.18701126
  0
VERTEX
  5
f3
  8
Layer_0
  10
373.61206
  20
207.70621
  42
-0.18703881
  0
VERTEX
  5
f4
  8
Layer_0
  10
373.88324
  20
207.15778
  0
VERTEX
  5
f5
  8
Layer_0
  10
373.51691
  20
207.12912
  42
0.1271856
  0
VERTEX
  5
f6
  8
Layer_0
  10
373.37775
  20
207.44427
  42
0.21404368
  0
VERTEX
  5
f7
  8
Layer_0
  10
373.0094
  20
207.60184
  42
0.16323917
  0
VERTEX
  5
f8
  8
Layer_0
  10
372.70041
  20
207.50362
  0
VERTEX
  5
f9
  8
Layer_0
  10
372.68604
  20
207.49284
  42
0.13276325
  0
VERTEX
  5
fa
  8
Layer_0
  10
372.42621
  20
207.13321
  0
VERTEX
  5
fb
  8
Layer_0
  10
372.418
  20
207.11256
  42
0.084852849
  0
VERTEX
  5
fc
  8
Layer_0
  10
372.32184
  20
206.4395
  0
VERTEX
  5
fd
  8
Layer_0
  10
372.33301
  20
206.45619
  42
-0.12693397
  0
VERTEX
  5
fe
  8
Layer_0
  10
372.64722
  20
206.74031
  0
SEQEND
  0
POLYLINE
  5
100
  8
Layer_0
  62
3
  66
1
  10
0
  20
0
  30
0
  0
VERTEX
  5
100
  8
Layer_0
  10
372.991
  20
205.14413
  0
VERTEX
  5
101
  8
Layer_0
  10
373.01031
  20
205.14445
  42
0.2124495
  0
VERTEX
  5
102
  8
Layer_0
  10
373.39209
  20
205.3324
  42
0.18725706
  0
VERTEX
  5
103
  8
Layer_0
  10
373.55988
  20
205.84399
  42
0.19200986
  0
VERTEX
  5
104
  8
Layer_0
  10
373.39413
  20
206.33411
  42
0.21787478
  0
VERTEX
  5
105
  8
Layer_0
  10
372.97668
  20
206.51317
  42
0.15487912
  0
VERTEX
  5
106
  8
Layer_0
  10
372.64478
  20
206.41245
  42
0.045467522
  0
VERTEX
  5
107
  8
Layer_0
  10
372.55307
  20
206.33411
  0
VERTEX
  5
108
  8
Layer_0
  10
372.53888
  20
206.31898
  42
0.19119184
  0
VERTEX
  5
109
  8
Layer_0
  10
372.37912
  20
205.86446
  0
VERTEX
  5
10a
  8
Layer_0
  10
372.3797
  20
205.83286
  42
0.10161028
  0
VERTEX
  5
10b
  8
Layer_0
  10
372.45996
  20
205.5002
  0
VERTEX
  5
10c
  8
Layer_0
  10
372.47388
  20
205.47179
  42
0.13671134
  0
VERTEX
  5
10d
  8
Layer_0
  10
372.6861
  20
205.2352
  0
VERTEX
  5
10e
  8
Layer_0
  10
372.71039
  20
205.22066
  42
0.1320713
  0
VERTEX
  5
10f
  8
Layer_0
  10
372.991
  20
205.14413
  0
SEQEND
  0
POLYLINE
  5
111
  8
Layer_0
  62
3
  66
1
  10
0
  20
0
  30
0
  0
VERTEX
  5
111
  8
Layer_0
  10
376.50668
  20
204.05954
  0
VERTEX
  5
112
  8
Layer_0
  10
376.50668
  20
204.32558
  0
VERTEX
  5
113
  8
Layer_0
  10
374.06537
  20
204.32558
  0
VERTEX
  5
114
  8
Layer_0
  10
374.06537
  20
204.05954
  0
VERTEX
  5
115
  8
Layer_0
  10
376.50668
  20
204.05954
  0
SEQEND
  0
POLYLINE
  5
117
  8
Layer_0
  62
3
  66
1
  10
0
  20
0
  30
0
  0
VERTEX
  5
117
  8
Layer_0
  10
378.88562
  20
206.21643
  42
-0.16764456
  0
VERTEX
  5
118
  8
Layer_0
  10
379.03192
  20
205.76215
  42
-0.11646133
  0
VERTEX
  5
119
  8
Layer_0
  10
378.9429
  20
205.37025
  42
-0.11838042
  0
VERTEX
  5
11a
  8
Layer_0
  10
378.72293
  20
205.09093
  0
VERTEX
  5
11b
  8
Layer_0
  10
378.70062
  20
205.07489
  42
-0.088485405
  0
VERTEX
  5
11c
  8
Layer_0
  10
378.39447
  20
204.94257
  0
VERTEX
  5
11d
  8
Layer_0
  10
378.36096
  20
204.93456
  42
-0.053996207
  0
VERTEX
  5
11e
  8
Layer_0
  10
377.91052
  20
204.89243
  0
VERTEX
  5
11f
  8
Layer_0
  10
376.76657
  20
204.89243
  0
VERTEX
  5
120
  8
Layer_0
  10
376.76657
  20
207.89243
  0
VERTEX
  5
121
  8
Layer_0
  10
377.89209
  20
207.89243
  42
-0.10102996
  0
VERTEX
  5
122
  8
Layer_0
  10
378.4436
  20
207.80136
  42
-0.15407628
  0
VERTEX
  5
123
  8
Layer_0
  10
378.76898
  20
207.52101
  42
-0.1416973
  0
VERTEX
  5
124
  8
Layer_0
  10
378.88663
  20
207.12503
  42
-0.14224328
  0
VERTEX
  5
125
  8
Layer_0
  10
378.78226
  20
206.76282
  42
-0.0082128504
  0
VERTEX
  5
126
  8
Layer_0
  10
378.76413
  20
206.73497
  42
-0.12989381
  0
VERTEX
  5
127
  8
Layer_0
  10
378.46713
  20
206.4886
  42
-0.16344271
  0
VERTEX
  5
128
  8
Layer_0
  10
378.88562
  20
206.21643
  0
SEQEND
  0
POLYLINE
  5
12a
  8
Layer_0
  62
3
  66
1
  10
0
  20
0
  30
0
  0
VERTEX
  5
12a
  8
Layer_0
  10
377.16357
  20
207.53841
  0
VERTEX
  5
12b
  8
Layer_0
  10
377.76318
  20
207.53841
  42
-0.067069462
  0
VERTEX
  5
12c
  8
Layer_0
  10
378.21951
  20
207.49646
  42
-0.18503815
  0
VERTEX
  5
12d
  8
Layer_0
  10
378.42413
  20
207.34093
  42
-0.1452162
  0
VERTEX
  5
12e
  8
Layer_0
  10
378.49579
  20
207.07797
  42
-0.16114919
  0
VERTEX
  5
12f
  8
Layer_0
  10
378.41904
  20
206.81602
  42
-0.15255222
  0
VERTEX
  5
130
  8
Layer_0
  10
378.21558
  20
206.67456
  0
VERTEX
  5
131
  8
Layer_0
  10
378.19086
  20
206.66664
  42
-0.06557052
  0
VERTEX
  5
132
  8
Layer_0
  10
377.83401
  20
206.63191
  0
VERTEX
  5
133
  8
Layer_0
  10
377.81229
  20
206.63185
  0
VERTEX
  5
134
  8
Layer_0
  10
377.16357
  20
206.63185
  0
VERTEX
  5
135
  8
Layer_0
  10
377.16357
  20
207.53841
  0
SEQEND
  0
POLYLINE
  5
137
  8
Layer_0
  62
3
  66
1
  10
0
  20
0
  30
0
  0
VERTEX
  5
137
  8
Layer_0
  10
377.16357
  20
206.27783
  0
VERTEX
  5
138
  8
Layer_0
  10
377.8573
  20
206.27783
  42
-0.065435645
  0
VERTEX
  5
139
  8
Layer_0
  10
378.2699
  20
206.2357
  0
VERTEX
  5
13a
  8
Layer_0
  10
378.28333
  20
206.23178
  0
VERTEX
  5
13b
  8
Layer_0
  10
378.29626
  20
206.22769
  42
-0.16615156
  0
VERTEX
  5
13c
  8
Layer_0
  10
378.53467
  20
206.05374
  42
-0.1559883
  0
VERTEX
  5
13d
  8
Layer_0
  10
378.62061
  20
205.76215
  42
-0.10468505
  0
VERTEX
  5
13e
  8
Layer_0
  10
378.57941
  20
205.54684
  0
VERTEX
  5
13f
  8
Layer_0
  10
378.57074
  20
205.52789
  0
VERTEX
  5
140
  8
Layer_0
  10
378.56125
  20
205.50941
  42
-0.13093188
  0
VERTEX
  5
141
  8
Layer_0
  10
378.40982
  20
205.34264
  42
-0.09030157
  0
VERTEX
  5
142
  8
Layer_0
  10
378.20319
  20
205.26511
  0
VERTEX
  5
143
  8
Layer_0
  10
378.18063
  20
205.26077
  42
-0.040757878
  0
VERTEX
  5
144
  8
Layer_0
  10
377.97144
  20
205.24686
  0
VERTEX
  5
145
  8
Layer_0
  10
377.91052
  20
205.24646
  0
VERTEX
  5
146
  8
Layer_0
  10
377.16357
  20
205.24646
  0
VERTEX
  5
147
  8
Layer_0
  10
377.16357
  20
206.27783
  0
SEQEND
  0
POLYLINE
  5
149
  8
Layer_0
  62
3
  66
1
  10
0
  20
0
  30
0
  0
VERTEX
  5
149
  8
Layer_0
  10
380.51965
  20
205.79283
  0
VERTEX
  5
14a
  8
Layer_0
  10
380.51965
  20
206.16324
  0
VERTEX
  5
14b
  8
Layer_0
  10
379.388
  20
206.16324
  0
VERTEX
  5
14c
  8
Layer_0
  10
379.388
  20
205.79283
  0
VERTEX
  5
14d
  8
Layer_0
  10
380.51965
  20
205.79283
  0
SEQEND
  0
POLYLINE
  5
14f
  8
Layer_0
  62
3
  66
1
  10
0
  20
0
  30
0
  0
VERTEX
  5
14f
  8
Layer_0
  10
381.49475
  20
206.98587
  0
VERTEX
  5
150
  8
Layer_0
  10
381.45908
  20
206.96518
  42
-0.041234866
  0
VERTEX
  5
151
  8
Layer_0
  10
381.10696
  20
206.79556
  0
VERTEX
  5
152
  8
Layer_0
  10
381.10696
  20
207.15164
  0
VERTEX
  5
153
  8
Layer_0
  10
381.15793
  20
207.17627
  42
0.067362778
  0
VERTEX
  5
154
  8
Layer_0
  10
381.64722
  20
207.50362
  42
0.094067809
  0
VERTEX
  5
155
  8
Layer_0
  10
381.97461
  20
207.90471
  0
VERTEX
  5
156
  8
Layer_0
  10
382.21201
  20
207.90471
  0
VERTEX
  5
157
  8
Layer_0
  10
382.21201
  20
204.89243
  0
VERTEX
  5
158
  8
Layer_0
  10
381.84366
  20
204.89243
  0
VERTEX
  5
159
  8
Layer_0
  10
381.84366
  20
207.23962
  42
-0.038435569
  0
VERTEX
  5
15a
  8
Layer_0
  10
381.66028
  20
207.09161
  42
-0.018984668
  0
VERTEX
  5
15b
  8
Layer_0
  10
381.49475
  20
206.98587
  0
SEQEND
  0
POLYLINE
  5
15d
  8
Layer_1
  62
1
  66
1
  10
0
  20
0
  30
0
  0
VERTEX
  5
15d
  8
Layer_1
  10
308.11566
  20
150.68733
  0
VERTEX
  5
15e
  8
Layer_1
  10
308.11566
  20
147.68733
  0
SEQEND
  0
POLYLINE
  5
160
  8
Layer_1
  62
1
  66
1
  10
0
  20
0
  30
0
  0
VERTEX
  5
160
  8
Layer_1
  10
308.11566
  20
147.68733
  0
VERTEX
  5
161
  8
Layer_1
  10
338.11566
  20
147.68733
  0
SEQEND
  0
POLYLINE
  5
163
  8
Layer_1
  62
1
  66
1
  10
0
  20
0
  30
0
  0
VERTEX
  5
163
  8
Layer_1
  10
338.11566
  20
147.68733
  0
VERTEX
  5
164
  8
Layer_1
  10
338.11566
  20
150.68733
  0
SEQEND
  0
POLYLINE
  5
166
  8
Layer_1
  62
1
  66
1
  10
0
  20
0
  30
0
  0
VERTEX
  5
166
  8
Layer_1
  10
338.11566
  20
150.68733
  0
VERTEX
  5
167
  8
Layer_1
  10
358.11566
  20
150.68733
  0
SEQEND
  0
POLYLINE
  5
169
  8
Layer_1
  62
1
  66
1
  10
0
  20
0
  30
0
  0
VERTEX
  5
169
  8
Layer_1
  10
358.11566
  20
150.68733
  0
VERTEX
  5
16a
  8
Layer_1
  10
358.11566
  20
147.68733
  0
SEQEND
  0
POLYLINE
  5
16c
  8
Layer_1
  62
1
  66
1
  10
0
  20
0
  30
0
  0
VERTEX
  5
16c
  8
Layer_1
  10
358.11566
  20
147.68733
  0
VERTEX
  5
16d
  8
Layer_1
  10
388.11566
  20
147.68733
  0
SEQEND
  0
POLYLINE
  5
16f
  8
Layer_1
  62
1
  66
1
  10
0
  20
0
  30
0
  0
VERTEX
  5
16f
  8
Layer_1
  10
388.11566
  20
147.68733
  0
VERTEX
  5
170
  8
Layer_1
  10
388.11566
  20
150.68733
  0
SEQEND
  0
POLYLINE
  5
172
  8
Layer_1
  62
1
  66
1
  10
0
  20
0
  30
0
  0
VERTEX
  5
172
  8
Layer_1
  10
388.11566
  20
150.68733
  0
VERTEX
  5
173
  8
Layer_1
  10
398.11566
  20
150.68733
  0
SEQEND
  0
POLYLINE
  5
175
  8
Layer_1
  62
1
  66
1
  10
0
  20
0
  30
0
  0
VERTEX
  5
175
  8
Layer_1
  10
398.11566
  20
150.68733
  0
VERTEX
  5
176
  8
Layer_1
  10
398.11566
  20
165.68733
  0
SEQEND
  0
POLYLINE
  5
178
  8
Layer_1
  62
1
  66
1
  10
0
  20
0
  30
0
  0
VERTEX
  5
178
  8
Layer_1
  10
398.11566
  20
165.68733
  0
VERTEX
  5
179
  8
Layer_1
  10
401.11566
  20
165.68733
  0
SEQEND
  0
POLYLINE
  5
17b
  8
Layer_1
  62
1
  66
1
  10
0
  20
0
  30
0
  0
VERTEX
  5
17b
  8
Layer_1
  10
401.11566
  20
165.68733
  0
VERTEX
  5
17c
  8
Layer_1
  10
401.11566
  20
195.68733
  0
SEQEND
  0
POLYLINE
  5
17e
  8
Layer_1
  62
1
  66
1
  10
0
  20
0
  30
0
  0
VERTEX
  5
17e
  8
Layer_1
  10
401.11566
  20
195.68733
  0
VERTEX
  5
17f
  8
Layer_1
  10
398.11566
  20
195.68733
  0
SEQEND
  0
POLYLINE
  5
181
  8
Layer_1
  62
1
  66
1
  10
0
  20
0
  30
0
  0
VERTEX
  5
181
  8
Layer_1
  10
398.11566
  20
195.68733
  0
VERTEX
  5
182
  8
Layer_1
  10
398.11566
  20
210.68733
  0
SEQEND
  0
POLYLINE
  5
184
  8
Layer_1
  62
1
  66
1
  10
0
  20
0
  30
0
  0
VERTEX
  5
184
  8
Layer_1
  10
398.11566
  20
210.68733
  0
VERTEX
  5
185
  8
Layer_1
  10
388.11566
  20
210.68733
  0
SEQEND
  0
POLYLINE
  5
187
  8
Layer_1
  62
1
  66
1
  10
0
  20
0
  30
0
  0
VERTEX
  5
187
  8
Layer_1
  10
388.11566
  20
210.68733
  0
VERTEX
  5
188
  8
Layer_1
  10
388.11566
  20
213.68733
  0
SEQEND
  0
POLYLINE
  5
18a
  8
Layer_1
  62
1
  66
1
  10
0
  20
0
  30
0
  0
VERTEX
  5
18a
  8
Layer_1
  10
388.11566
  20
213.68733
  0
VERTEX
  5
18b
  8
Layer_1
  10
358.11566
  20
213.68733
  0
SEQEND
  0
POLYLINE
  5
18d
  8
Layer_1
  62
1
  66
1
  10
0
  20
0
  30
0
  0
VERTEX
  5
18d
  8
Layer_1
  10
358.11566
  20
213.68733
  0
VERTEX
  5
18e
  8
Layer_1
  10
358.11566
  20
210.68733
  0
SEQEND
  0
POLYLINE
  5
190
  8
Layer_1
  62
1
  66
1
  10
0
  20
0
  30
0
  0
VERTEX
  5
190
  8
Layer_1
  10
358.11566
  20
210.68733
  0
VERTEX
  5
191
  8
Layer_1
  10
338.11566
  20
210.68733
  0
SEQEND
  0
POLYLINE
  5
193
  8
Layer_1
  62
1
  66
1
  10
0
  20
0
  30
0
  0
VERTEX
  5
193
  8
Layer_1
  10
338.11566
  20
210.68733
  0
VERTEX
  5
194
  8
Layer_1
  10
338.11566
  20
213.68733
  0
SEQEND
  0
POLYLINE
  5
196
  8
Layer_1
  62
1
  66
1
  10
0
  20
0
  30
0
  0
VERTEX
  5
196
  8
Layer_1
  10
338.11566
  20
213.68733
  0
VERTEX
  5
197
  8
Layer_1
  10
308.11566
  20
213.68733
  0
SEQEND
  0
POLYLINE
  5
199
  8
Layer_1
  62
1
  66
1
  10
0
  20
0
  30
0
  0
VERTEX
  5
199
  8
Layer_1
  10
308.11566
  20
213.68733
  0
VERTEX
  5
19a
  8
Layer_1
  10
308.11566
  20
210.68733
  0
SEQEND
  0
POLYLINE
  5
19c
  8
Layer_1
  62
1
  66
1
  10
0
  20
0
  30
0
  0
VERTEX
  5
19c
  8
Layer_1
  10
308.11566
  20
210.68733
  0
VERTEX
  5
19d
  8
Layer_1
  10
298.11566
  20
210.68733
  0
SEQEND
  0
POLYLINE
  5
19f
  8
Layer_1
  62
1
  66
1
  10
0
  20
0
  30
0
  0
VERTEX
  5
19f
  8
Layer_1
  10
298.11566
  20
165.68733
  0
VERTEX
  5
1a0
  8
Layer_1
  10
295.01566
  20
165.68733
  0
SEQEND
  0
POLYLINE
  5
1a2
  8
Layer_1
  62
1
  66
1
  10
0
  20
0
  30
0
  0
VERTEX
  5
1a2
  8
Layer_1
  10
295.01566
  20
165.68733
  0
VERTEX
  5
1a3
  8
Layer_1
  10
295.01566
  20
195.68733
  0
SEQEND
  0
POLYLINE
  5
1a5
  8
Layer_1
  62
1
  66
1
  10
0
  20
0
  30
0
  0
VERTEX
  5
1a5
  8
Layer_1
  10
295.01566
  20
195.68733
  0
VERTEX
  5
1a6
  8
Layer_1
  10
298.11566
  20
195.68733
  0
SEQEND
  0
POLYLINE
  5
1a8
  8
Layer_1
  62
1
  66
1
  10
0
  20
0
  30
0
  0
VERTEX
  5
1a8
  8
Layer_1
  10
298.11566
  20
195.68733
  0
VERTEX
  5
1a9
  8
Layer_1
  10
298.11566
  20
165.68733
  0
SEQEND
  0
POLYLINE
  5
1ab
  8
Layer_1
  62
1
  66
1
  10
0
  20
0
  30
0
  0
VERTEX
  5
1ab
  8
Layer_1
  10
298.11566
  20
150.68733
  0
VERTEX
  5
1ac
  8
Layer_1
  10
308.11566
  20
150.68733
  0
SEQEND
  0
ENDSEC
  0
EOF
