  0
SECTION
  2
HEADER
  9
$ACADVER
  1
AC1009
  0
ENDSEC
  0
SECTION
  2
ENTITIES
  0
POLYLINE
  5
90
  8
Layer_0
  62
3
  66
1
  10
0
  20
0
  30
0
  0
VERTEX
  5
90
  8
Layer_0
  10
194.91933
  20
240.60501
  42
0.21978268
  0
VERTEX
  5
91
  8
Layer_0
  10
195.13078
  20
240.52042
  42
0.14375595
  0
VERTEX
  5
92
  8
Layer_0
  10
195.30269
  20
240.56613
  42
0.17437143
  0
VERTEX
  5
93
  8
Layer_0
  10
195.40227
  20
240.69028
  42
0.076092695
  0
VERTEX
  5
94
  8
Layer_0
  10
195.42957
  20
240.94061
  0
VERTEX
  5
95
  8
Layer_0
  10
195.42957
  20
242.31851
  0
VERTEX
  5
96
  8
Layer_0
  10
195.69423
  20
242.31851
  0
VERTEX
  5
97
  8
Layer_0
  10
195.69423
  20
240.95563
  42
-0.099842692
  0
VERTEX
  5
98
  8
Layer_0
  10
195.63351
  20
240.5668
  42
-0.16897283
  0
VERTEX
  5
99
  8
Layer_0
  10
195.44116
  20
240.3567
  42
-0.12732742
  0
VERTEX
  5
9a
  8
Layer_0
  10
195.13216
  20
240.28441
  42
-0.21508661
  0
VERTEX
  5
9b
  8
Layer_0
  10
194.72902
  20
240.43584
  42
-0.19422227
  0
VERTEX
  5
9c
  8
Layer_0
  10
194.59464
  20
240.88605
  0
VERTEX
  5
9d
  8
Layer_0
  10
194.83337
  20
240.91878
  42
0.16254963
  0
VERTEX
  5
9e
  8
Layer_0
  10
194.91933
  20
240.60501
  0
SEQEND
  0
POLYLINE
  5
a0
  8
Layer_0
  62
3
  66
1
  10
0
  20
0
  30
0
  0
VERTEX
  5
a0
  8
Layer_0
  10
196.46094
  20
242.05658
  0
VERTEX
  5
a1
  8
Layer_0
  10
197.25903
  20
242.05658
  0
VERTEX
  5
a2
  8
Layer_0
  10
197.25903
  20
242.29123
  0
VERTEX
  5
a3
  8
Layer_0
  10
196.26448
  20
242.29123
  0
VERTEX
  5
a4
  8
Layer_0
  10
196.07076
  20
241.26395
  0
VERTEX
  5
a5
  8
Layer_0
  10
196.30132
  20
241.23392
  42
-0.12494461
  0
VERTEX
  5
a6
  8
Layer_0
  10
196.45139
  20
241.37376
  42
-0.13112564
  0
VERTEX
  5
a7
  8
Layer_0
  10
196.66557
  20
241.42764
  42
-0.20972297
  0
VERTEX
  5
a8
  8
Layer_0
  10
196.97458
  20
241.30623
  42
-0.20002207
  0
VERTEX
  5
a9
  8
Layer_0
  10
197.09259
  20
240.97472
  42
-0.19259362
  0
VERTEX
  5
aa
  8
Layer_0
  10
196.9698
  20
240.62001
  42
-0.21862472
  0
VERTEX
  5
ab
  8
Layer_0
  10
196.66966
  20
240.48631
  42
-0.19249842
  0
VERTEX
  5
ac
  8
Layer_0
  10
196.41797
  20
240.58113
  42
-0.17359273
  0
VERTEX
  5
ad
  8
Layer_0
  10
196.28494
  20
240.86421
  0
VERTEX
  5
ae
  8
Layer_0
  10
196.0271
  20
240.84238
  42
0.19547713
  0
VERTEX
  5
af
  8
Layer_0
  10
196.22424
  20
240.43719
  42
0.18772211
  0
VERTEX
  5
b0
  8
Layer_0
  10
196.66966
  20
240.28441
  42
0.24022941
  0
VERTEX
  5
b1
  8
Layer_0
  10
197.1949
  20
240.52724
  42
0.17470775
  0
VERTEX
  5
b2
  8
Layer_0
  10
197.35316
  20
240.99655
  42
0.20468047
  0
VERTEX
  5
b3
  8
Layer_0
  10
197.17308
  20
241.46312
  42
0.20738789
  0
VERTEX
  5
b4
  8
Layer_0
  10
196.73106
  20
241.64456
  42
0.15628295
  0
VERTEX
  5
b5
  8
Layer_0
  10
196.35316
  20
241.51906
  0
VERTEX
  5
b6
  8
Layer_0
  10
196.46094
  20
242.05658
  0
SEQEND
  0
POLYLINE
  5
b8
  8
Layer_0
  62
3
  66
1
  10
0
  20
0
  30
0
  0
VERTEX
  5
b8
  8
Layer_0
  10
198.03119
  20
241.55043
  42
-0.12011418
  0
VERTEX
  5
b9
  8
Layer_0
  10
198.29996
  20
241.61592
  42
-0.21305947
  0
VERTEX
  5
ba
  8
Layer_0
  10
198.71809
  20
241.43515
  42
-0.19885132
  0
VERTEX
  5
bb
  8
Layer_0
  10
198.89067
  20
240.9679
  42
-0.11830893
  0
VERTEX
  5
bc
  8
Layer_0
  10
198.80951
  20
240.61797
  42
-0.14355421
  0
VERTEX
  5
bd
  8
Layer_0
  10
198.58644
  20
240.37036
  42
-0.13917897
  0
VERTEX
  5
be
  8
Layer_0
  10
198.26448
  20
240.28441
  42
-0.22865688
  0
VERTEX
  5
bf
  8
Layer_0
  10
197.76379
  20
240.51019
  42
-0.1728968
  0
VERTEX
  5
c0
  8
Layer_0
  10
197.57008
  20
241.25439
  42
-0.16682268
  0
VERTEX
  5
c1
  8
Layer_0
  10
197.78427
  20
242.0975
  42
-0.2359831
  0
VERTEX
  5
c2
  8
Layer_0
  10
198.28767
  20
242.32669
  42
-0.18662154
  0
VERTEX
  5
c3
  8
Layer_0
  10
198.67444
  20
242.19437
  42
-0.18726044
  0
VERTEX
  5
c4
  8
Layer_0
  10
198.85521
  20
241.82874
  0
VERTEX
  5
c5
  8
Layer_0
  10
198.61101
  20
241.80965
  42
0.12575755
  0
VERTEX
  5
c6
  8
Layer_0
  10
198.51823
  20
242.01974
  42
0.2139752
  0
VERTEX
  5
c7
  8
Layer_0
  10
198.27267
  20
242.12479
  42
0.16393923
  0
VERTEX
  5
c8
  8
Layer_0
  10
198.06667
  20
242.0593
  42
0.13963191
  0
VERTEX
  5
c9
  8
Layer_0
  10
197.88385
  20
241.81238
  42
0.09112943
  0
VERTEX
  5
ca
  8
Layer_0
  10
197.81429
  20
241.34988
  42
-0.13183704
  0
VERTEX
  5
cb
  8
Layer_0
  10
198.03119
  20
241.55043
  0
SEQEND
  0
POLYLINE
  5
cd
  8
Layer_0
  62
3
  66
1
  10
0
  20
0
  30
0
  0
VERTEX
  5
cd
  8
Layer_0
  10
198.05711
  20
240.54703
  42
0.14349872
  0
VERTEX
  5
ce
  8
Layer_0
  10
198.26039
  20
240.48631
  42
0.2228132
  0
VERTEX
  5
cf
  8
Layer_0
  10
198.52779
  20
240.61182
  42
0.18742198
  0
VERTEX
  5
d0
  8
Layer_0
  10
198.63965
  20
240.95288
  42
0.19278809
  0
VERTEX
  5
d1
  8
Layer_0
  10
198.52914
  20
241.27963
  42
0.2173649
  0
VERTEX
  5
d2
  8
Layer_0
  10
198.25084
  20
241.399
  42
0.21050254
  0
VERTEX
  5
d3
  8
Layer_0
  10
197.96844
  20
241.27963
  42
0.20116505
  0
VERTEX
  5
d4
  8
Layer_0
  10
197.85248
  20
240.96654
  42
0.11026028
  0
VERTEX
  5
d5
  8
Layer_0
  10
197.90637
  20
240.72369
  42
0.14746374
  0
VERTEX
  5
d6
  8
Layer_0
  10
198.05711
  20
240.54703
  0
SEQEND
  0
POLYLINE
  5
d8
  8
Layer_0
  62
3
  66
1
  10
0
  20
0
  30
0
  0
VERTEX
  5
d8
  8
Layer_0
  10
200.60419
  20
239.76326
  0
VERTEX
  5
d9
  8
Layer_0
  10
200.60419
  20
239.94061
  0
VERTEX
  5
da
  8
Layer_0
  10
198.97662
  20
239.94061
  0
VERTEX
  5
db
  8
Layer_0
  10
198.97662
  20
239.76326
  0
VERTEX
  5
dc
  8
Layer_0
  10
200.60419
  20
239.76326
  0
SEQEND
  0
POLYLINE
  5
de
  8
Layer_0
  62
3
  66
1
  10
0
  20
0
  30
0
  0
VERTEX
  5
de
  8
Layer_0
  10
202.19012
  20
241.20119
  42
-0.16796036
  0
VERTEX
  5
df
  8
Layer_0
  10
202.28767
  20
240.89832
  42
-0.11581381
  0
VERTEX
  5
e0
  8
Layer_0
  10
202.22833
  20
240.63707
  42
-0.11884688
  0
VERTEX
  5
e1
  8
Layer_0
  10
202.08167
  20
240.45084
  42
-0.09896742
  0
VERTEX
  5
e2
  8
Layer_0
  10
201.8627
  20
240.35193
  42
-0.061052446
  0
VERTEX
  5
e3
  8
Layer_0
  10
201.54007
  20
240.31851
  0
VERTEX
  5
e4
  8
Layer_0
  10
200.77745
  20
240.31851
  0
VERTEX
  5
e5
  8
Layer_0
  10
200.77745
  20
242.31851
  0
VERTEX
  5
e6
  8
Layer_0
  10
201.52779
  20
242.31851
  42
-0.10110695
  0
VERTEX
  5
e7
  8
Layer_0
  10
201.89545
  20
242.2578
  42
-0.15502712
  0
VERTEX
  5
e8
  8
Layer_0
  10
202.11237
  20
242.07089
  42
-0.14211398
  0
VERTEX
  5
e9
  8
Layer_0
  10
202.19081
  20
241.80692
  42
-0.14103287
  0
VERTEX
  5
ea
  8
Layer_0
  10
202.12123
  20
241.56544
  42
-0.14279394
  0
VERTEX
  5
eb
  8
Layer_0
  10
201.91113
  20
241.38263
  42
-0.16400883
  0
VERTEX
  5
ec
  8
Layer_0
  10
202.19012
  20
241.20119
  0
SEQEND
  0
POLYLINE
  5
ee
  8
Layer_0
  62
3
  66
1
  10
0
  20
0
  30
0
  0
VERTEX
  5
ee
  8
Layer_0
  10
201.04211
  20
242.08249
  0
VERTEX
  5
ef
  8
Layer_0
  10
201.44183
  20
242.08249
  42
-0.067062659
  0
VERTEX
  5
f0
  8
Layer_0
  10
201.74606
  20
242.05453
  42
-0.18243544
  0
VERTEX
  5
f1
  8
Layer_0
  10
201.88249
  20
241.95084
  42
-0.14429451
  0
VERTEX
  5
f2
  8
Layer_0
  10
201.93024
  20
241.77554
  42
-0.16200394
  0
VERTEX
  5
f3
  8
Layer_0
  10
201.87907
  20
241.60091
  42
-0.16589445
  0
VERTEX
  5
f4
  8
Layer_0
  10
201.72696
  20
241.50131
  42
-0.065714257
  0
VERTEX
  5
f5
  8
Layer_0
  10
201.47458
  20
241.47812
  0
VERTEX
  5
f6
  8
Layer_0
  10
201.04211
  20
241.47812
  0
VERTEX
  5
f7
  8
Layer_0
  10
201.04211
  20
242.08249
  0
SEQEND
  0
POLYLINE
  5
f9
  8
Layer_0
  62
3
  66
1
  10
0
  20
0
  30
0
  0
VERTEX
  5
f9
  8
Layer_0
  10
201.04211
  20
241.24211
  0
VERTEX
  5
fa
  8
Layer_0
  10
201.50459
  20
241.24211
  42
-0.074929879
  0
VERTEX
  5
fb
  8
Layer_0
  10
201.79723
  20
241.20868
  42
-0.1664487
  0
VERTEX
  5
fc
  8
Layer_0
  10
201.95616
  20
241.09273
  42
-0.15623724
  0
VERTEX
  5
fd
  8
Layer_0
  10
202.01346
  20
240.89832
  42
-0.12674803
  0
VERTEX
  5
fe
  8
Layer_0
  10
201.97389
  20
240.72983
  42
-0.13258684
  0
VERTEX
  5
ff
  8
Layer_0
  10
201.87294
  20
240.61865
  42
-0.094514686
  0
VERTEX
  5
100
  8
Layer_0
  10
201.72014
  20
240.56407
  42
-0.039226364
  0
VERTEX
  5
101
  8
Layer_0
  10
201.54007
  20
240.55453
  0
VERTEX
  5
102
  8
Layer_0
  10
201.04211
  20
240.55453
  0
VERTEX
  5
103
  8
Layer_0
  10
201.04211
  20
241.24211
  0
SEQEND
  0
POLYLINE
  5
105
  8
Layer_0
  62
3
  66
1
  10
0
  20
0
  30
0
  0
VERTEX
  5
105
  8
Layer_0
  10
203.2795
  20
240.91878
  0
VERTEX
  5
106
  8
Layer_0
  10
203.2795
  20
241.16571
  0
VERTEX
  5
107
  8
Layer_0
  10
202.52505
  20
241.16571
  0
VERTEX
  5
108
  8
Layer_0
  10
202.52505
  20
240.91878
  0
VERTEX
  5
109
  8
Layer_0
  10
203.2795
  20
240.91878
  0
SEQEND
  0
POLYLINE
  5
10b
  8
Layer_0
  62
3
  66
1
  10
0
  20
0
  30
0
  0
VERTEX
  5
10b
  8
Layer_0
  10
203.93297
  20
241.55043
  42
-0.12020732
  0
VERTEX
  5
10c
  8
Layer_0
  10
204.20172
  20
241.61592
  42
-0.21312523
  0
VERTEX
  5
10d
  8
Layer_0
  10
204.61987
  20
241.43515
  42
-0.19874207
  0
VERTEX
  5
10e
  8
Layer_0
  10
204.79245
  20
240.9679
  42
-0.11833344
  0
VERTEX
  5
10f
  8
Layer_0
  10
204.71127
  20
240.61797
  42
-0.14364068
  0
VERTEX
  5
110
  8
Layer_0
  10
204.48822
  20
240.37036
  42
-0.13903392
  0
VERTEX
  5
111
  8
Layer_0
  10
204.16626
  20
240.28441
  42
-0.22862867
  0
VERTEX
  5
112
  8
Layer_0
  10
203.66557
  20
240.51019
  42
-0.17290467
  0
VERTEX
  5
113
  8
Layer_0
  10
203.47185
  20
241.25439
  42
-0.16682986
  0
VERTEX
  5
114
  8
Layer_0
  10
203.68604
  20
242.0975
  42
-0.23605031
  0
VERTEX
  5
115
  8
Layer_0
  10
204.18945
  20
242.32669
  42
-0.18663482
  0
VERTEX
  5
116
  8
Layer_0
  10
204.57622
  20
242.19437
  42
-0.18724179
  0
VERTEX
  5
117
  8
Layer_0
  10
204.75697
  20
241.82874
  0
VERTEX
  5
118
  8
Layer_0
  10
204.51277
  20
241.80965
  42
0.12552147
  0
VERTEX
  5
119
  8
Layer_0
  10
204.42001
  20
242.01974
  42
0.21391377
  0
VERTEX
  5
11a
  8
Layer_0
  10
204.17444
  20
242.12479
  42
0.1646484
  0
VERTEX
  5
11b
  8
Layer_0
  10
203.96844
  20
242.0593
  42
0.1396991
  0
VERTEX
  5
11c
  8
Layer_0
  10
203.78563
  20
241.81238
  42
0.091156616
  0
VERTEX
  5
11d
  8
Layer_0
  10
203.71605
  20
241.34988
  42
-0.13174239
  0
VERTEX
  5
11e
  8
Layer_0
  10
203.93297
  20
241.55043
  0
SEQEND
  0
POLYLINE
  5
120
  8
Layer_0
  62
3
  66
1
  10
0
  20
0
  30
0
  0
VERTEX
  5
120
  8
Layer_0
  10
203.95889
  20
240.54703
  42
0.14338381
  0
VERTEX
  5
121
  8
Layer_0
  10
204.16217
  20
240.48631
  42
0.22292037
  0
VERTEX
  5
122
  8
Layer_0
  10
204.42957
  20
240.61182
  42
0.18719276
  0
VERTEX
  5
123
  8
Layer_0
  10
204.54143
  20
240.95288
  42
0.1929509
  0
VERTEX
  5
124
  8
Layer_0
  10
204.43092
  20
241.27963
  42
0.21762328
  0
VERTEX
  5
125
  8
Layer_0
  10
204.15262
  20
241.399
  42
0.21060587
  0
VERTEX
  5
126
  8
Layer_0
  10
203.87021
  20
241.27963
  42
0.20101642
  0
VERTEX
  5
127
  8
Layer_0
  10
203.75426
  20
240.96654
  42
0.11043918
  0
VERTEX
  5
128
  8
Layer_0
  10
203.80814
  20
240.72369
  42
0.14775063
  0
VERTEX
  5
129
  8
Layer_0
  10
203.95889
  20
240.54703
  0
SEQEND
  0
CIRCLE
  5
12b
  8
Layer_1
  62
1
  10
218.67488
  20
196.49734
  30
0
  40
1.5
  0
CIRCLE
  5
12b
  8
Layer_1
  62
1
  10
218.67488
  20
246.49734
  30
0
  40
1.5
  0
CIRCLE
  5
12b
  8
Layer_1
  62
1
  10
196.67488
  20
196.49734
  30
0
  40
1.5
  0
CIRCLE
  5
12b
  8
Layer_1
  62
1
  10
196.67488
  20
246.49734
  30
0
  40
1.5
  0
POLYLINE
  5
12b
  8
Layer_1
  62
1
  66
1
  10
0
  20
0
  30
0
  0
VERTEX
  5
12b
  8
Layer_1
  10
226.67488
  20
188.49734
  0
VERTEX
  5
12c
  8
Layer_1
  10
226.67488
  20
206.54933
  0
SEQEND
  0
POLYLINE
  5
12e
  8
Layer_1
  62
1
  66
1
  10
0
  20
0
  30
0
  0
VERTEX
  5
12e
  8
Layer_1
  10
226.67488
  20
206.54735
  0
VERTEX
  5
12f
  8
Layer_1
  10
223.67488
  20
206.54735
  0
SEQEND
  0
POLYLINE
  5
131
  8
Layer_1
  62
1
  66
1
  10
0
  20
0
  30
0
  0
VERTEX
  5
131
  8
Layer_1
  10
223.67488
  20
206.54735
  0
VERTEX
  5
132
  8
Layer_1
  10
223.67488
  20
236.44734
  0
SEQEND
  0
POLYLINE
  5
134
  8
Layer_1
  62
1
  66
1
  10
0
  20
0
  30
0
  0
VERTEX
  5
134
  8
Layer_1
  10
223.67488
  20
236.44734
  0
VERTEX
  5
135
  8
Layer_1
  10
226.67488
  20
236.44734
  0
SEQEND
  0
POLYLINE
  5
137
  8
Layer_1
  62
1
  66
1
  10
0
  20
0
  30
0
  0
VERTEX
  5
137
  8
Layer_1
  10
226.67488
  20
236.44734
  0
VERTEX
  5
138
  8
Layer_1
  10
226.67488
  20
246.49734
  0
SEQEND
  0
POLYLINE
  5
13a
  8
Layer_1
  62
1
  66
1
  10
0
  20
0
  30
0
  0
VERTEX
  5
13a
  8
Layer_1
  10
226.67488
  20
246.49734
  0
VERTEX
  5
13b
  8
Layer_1
  10
226.67488
  20
254.49734
  0
SEQEND
  0
POLYLINE
  5
13d
  8
Layer_1
  62
1
  66
1
  10
0
  20
0
  30
0
  0
VERTEX
  5
13d
  8
Layer_1
  10
226.67488
  20
254.49734
  0
VERTEX
  5
13e
  8
Layer_1
  10
224.17488
  20
254.49734
  0
SEQEND
  0
POLYLINE
  5
140
  8
Layer_1
  62
1
  66
1
  10
0
  20
0
  30
0
  0
VERTEX
  5
140
  8
Layer_1
  10
224.17488
  20
254.49734
  0
VERTEX
  5
141
  8
Layer_1
  10
215.12488
  20
254.49734
  0
SEQEND
  0
POLYLINE
  5
143
  8
Layer_1
  62
1
  66
1
  10
0
  20
0
  30
0
  0
VERTEX
  5
143
  8
Layer_1
  10
215.12488
  20
254.49734
  0
VERTEX
  5
144
  8
Layer_1
  10
215.12488
  20
251.49734
  0
SEQEND
  0
POLYLINE
  5
146
  8
Layer_1
  62
1
  66
1
  10
0
  20
0
  30
0
  0
VERTEX
  5
146
  8
Layer_1
  10
215.12488
  20
251.49734
  0
VERTEX
  5
147
  8
Layer_1
  10
200.22488
  20
251.49734
  0
SEQEND
  0
POLYLINE
  5
149
  8
Layer_1
  62
1
  66
1
  10
0
  20
0
  30
0
  0
VERTEX
  5
149
  8
Layer_1
  10
200.22488
  20
251.49734
  0
VERTEX
  5
14a
  8
Layer_1
  10
200.22488
  20
254.49734
  0
SEQEND
  0
POLYLINE
  5
14c
  8
Layer_1
  62
1
  66
1
  10
0
  20
0
  30
0
  0
VERTEX
  5
14c
  8
Layer_1
  10
200.22522
  20
254.49734
  0
VERTEX
  5
14d
  8
Layer_1
  10
188.67488
  20
254.49734
  0
SEQEND
  0
POLYLINE
  5
14f
  8
Layer_1
  62
1
  66
1
  10
0
  20
0
  30
0
  0
VERTEX
  5
14f
  8
Layer_1
  10
188.67488
  20
254.49734
  0
VERTEX
  5
150
  8
Layer_1
  10
188.67488
  20
246.49734
  0
SEQEND
  0
POLYLINE
  5
152
  8
Layer_1
  62
1
  66
1
  10
0
  20
0
  30
0
  0
VERTEX
  5
152
  8
Layer_1
  10
188.67488
  20
246.49734
  0
VERTEX
  5
153
  8
Layer_1
  10
188.67488
  20
236.44734
  0
SEQEND
  0
POLYLINE
  5
155
  8
Layer_1
  62
1
  66
1
  10
0
  20
0
  30
0
  0
VERTEX
  5
155
  8
Layer_1
  10
188.67488
  20
236.44734
  0
VERTEX
  5
156
  8
Layer_1
  10
191.67488
  20
236.44734
  0
SEQEND
  0
POLYLINE
  5
158
  8
Layer_1
  62
1
  66
1
  10
0
  20
0
  30
0
  0
VERTEX
  5
158
  8
Layer_1
  10
191.67488
  20
236.44734
  0
VERTEX
  5
159
  8
Layer_1
  10
191.67488
  20
206.54735
  0
SEQEND
  0
POLYLINE
  5
15b
  8
Layer_1
  62
1
  66
1
  10
0
  20
0
  30
0
  0
VERTEX
  5
15b
  8
Layer_1
  10
191.67488
  20
206.54735
  0
VERTEX
  5
15c
  8
Layer_1
  10
188.67488
  20
206.54735
  0
SEQEND
  0
POLYLINE
  5
15e
  8
Layer_1
  62
1
  66
1
  10
0
  20
0
  30
0
  0
VERTEX
  5
15e
  8
Layer_1
  10
188.67488
  20
188.49734
  0
VERTEX
  5
15f
  8
Layer_1
  10
200.22488
  20
188.49734
  0
SEQEND
  0
POLYLINE
  5
161
  8
Layer_1
  62
1
  66
1
  10
0
  20
0
  30
0
  0
VERTEX
  5
161
  8
Layer_1
  10
200.22488
  20
188.49734
  0
VERTEX
  5
162
  8
Layer_1
  10
200.22488
  20
191.49734
  0
SEQEND
  0
POLYLINE
  5
164
  8
Layer_1
  62
1
  66
1
  10
0
  20
0
  30
0
  0
VERTEX
  5
164
  8
Layer_1
  10
200.22488
  20
191.49734
  0
VERTEX
  5
165
  8
Layer_1
  10
215.12488
  20
191.49734
  0
SEQEND
  0
POLYLINE
  5
167
  8
Layer_1
  62
1
  66
1
  10
0
  20
0
  30
0
  0
VERTEX
  5
167
  8
Layer_1
  10
215.12488
  20
191.49734
  0
VERTEX
  5
168
  8
Layer_1
  10
215.12488
  20
188.49734
  0
SEQEND
  0
POLYLINE
  5
16a
  8
Layer_1
  62
1
  66
1
  10
0
  20
0
  30
0
  0
VERTEX
  5
16a
  8
Layer_1
  10
215.12488
  20
188.49734
  0
VERTEX
  5
16b
  8
Layer_1
  10
226.67488
  20
188.49734
  0
SEQEND
  0
POLYLINE
  5
16d
  8
Layer_1
  62
1
  66
1
  10
0
  20
0
  30
0
  0
VERTEX
  5
16d
  8
Layer_1
  10
188.67488
  20
206.54997
  0
VERTEX
  5
16e
  8
Layer_1
  10
188.67488
  20
188.49734
  0
SEQEND
  0
ENDSEC
  0
EOF
