  0
SECTION
  2
HEADER
  9
$ACADVER
  1
AC1009
  0
ENDSEC
  0
SECTION
  2
ENTITIES
  0
CIRCLE
  5
90
  8
Layer_0
  62
0
  10
536.90656
  20
526.98633
  30
0
  40
1.5
  0
CIRCLE
  5
90
  8
Layer_0
  62
0
  10
536.90656
  20
441.98633
  30
0
  40
1.5
  0
CIRCLE
  5
90
  8
Layer_0
  62
0
  10
706.90656
  20
441.98633
  30
0
  40
1.5
  0
CIRCLE
  5
90
  8
Layer_0
  62
0
  10
706.90656
  20
526.98633
  30
0
  40
1.5
  0
POLYLINE
  5
90
  8
Layer_0
  62
0
  66
1
  10
0
  20
0
  30
0
  0
VERTEX
  5
90
  8
Layer_0
  10
529.40656
  20
499.41132
  0
VERTEX
  5
91
  8
Layer_0
  10
523.40656
  20
499.41132
  0
VERTEX
  5
92
  8
Layer_0
  10
523.40656
  20
469.56134
  0
SEQEND
  0
POLYLINE
  5
94
  8
Layer_0
  62
0
  66
1
  10
0
  20
0
  30
0
  0
VERTEX
  5
94
  8
Layer_0
  10
560.65656
  20
540.48633
  0
VERTEX
  5
95
  8
Layer_0
  10
560.65656
  20
534.48633
  0
SEQEND
  0
POLYLINE
  5
97
  8
Layer_0
  62
0
  66
1
  10
0
  20
0
  30
0
  0
VERTEX
  5
97
  8
Layer_0
  10
560.65656
  20
534.48633
  0
VERTEX
  5
98
  8
Layer_0
  10
529.40656
  20
534.48633
  0
SEQEND
  0
POLYLINE
  5
9a
  8
Layer_0
  62
0
  66
1
  10
0
  20
0
  30
0
  0
VERTEX
  5
9a
  8
Layer_0
  10
529.40656
  20
534.48633
  0
VERTEX
  5
9b
  8
Layer_0
  10
529.40656
  20
499.48633
  0
SEQEND
  0
POLYLINE
  5
9d
  8
Layer_0
  62
0
  66
1
  10
0
  20
0
  30
0
  0
VERTEX
  5
9d
  8
Layer_0
  10
523.40656
  20
469.48633
  0
VERTEX
  5
9e
  8
Layer_0
  10
529.40656
  20
469.48633
  0
SEQEND
  0
POLYLINE
  5
a0
  8
Layer_0
  62
0
  66
1
  10
0
  20
0
  30
0
  0
VERTEX
  5
a0
  8
Layer_0
  10
529.40656
  20
469.48633
  0
VERTEX
  5
a1
  8
Layer_0
  10
529.40656
  20
434.48633
  0
SEQEND
  0
POLYLINE
  5
a3
  8
Layer_0
  62
0
  66
1
  10
0
  20
0
  30
0
  0
VERTEX
  5
a3
  8
Layer_0
  10
529.40656
  20
434.48633
  0
VERTEX
  5
a4
  8
Layer_0
  10
560.65656
  20
434.48633
  0
SEQEND
  0
POLYLINE
  5
a6
  8
Layer_0
  62
0
  66
1
  10
0
  20
0
  30
0
  0
VERTEX
  5
a6
  8
Layer_0
  10
560.65656
  20
434.48633
  0
VERTEX
  5
a7
  8
Layer_0
  10
560.65656
  20
428.48633
  0
SEQEND
  0
POLYLINE
  5
a9
  8
Layer_0
  62
0
  66
1
  10
0
  20
0
  30
0
  0
VERTEX
  5
a9
  8
Layer_0
  10
560.65656
  20
428.48633
  0
VERTEX
  5
aa
  8
Layer_0
  10
590.65656
  20
428.48633
  0
SEQEND
  0
POLYLINE
  5
ac
  8
Layer_0
  62
0
  66
1
  10
0
  20
0
  30
0
  0
VERTEX
  5
ac
  8
Layer_0
  10
590.65656
  20
428.48633
  0
VERTEX
  5
ad
  8
Layer_0
  10
590.65656
  20
434.48633
  0
SEQEND
  0
POLYLINE
  5
af
  8
Layer_0
  62
0
  66
1
  10
0
  20
0
  30
0
  0
VERTEX
  5
af
  8
Layer_0
  10
590.65656
  20
434.48633
  0
VERTEX
  5
b0
  8
Layer_0
  10
653.15656
  20
434.48633
  0
SEQEND
  0
POLYLINE
  5
b2
  8
Layer_0
  62
0
  66
1
  10
0
  20
0
  30
0
  0
VERTEX
  5
b2
  8
Layer_0
  10
653.15656
  20
434.48633
  0
VERTEX
  5
b3
  8
Layer_0
  10
653.15656
  20
428.48633
  0
SEQEND
  0
POLYLINE
  5
b5
  8
Layer_0
  62
0
  66
1
  10
0
  20
0
  30
0
  0
VERTEX
  5
b5
  8
Layer_0
  10
653.15656
  20
428.48633
  0
VERTEX
  5
b6
  8
Layer_0
  10
683.15656
  20
428.48633
  0
SEQEND
  0
POLYLINE
  5
b8
  8
Layer_0
  62
0
  66
1
  10
0
  20
0
  30
0
  0
VERTEX
  5
b8
  8
Layer_0
  10
683.15656
  20
428.48633
  0
VERTEX
  5
b9
  8
Layer_0
  10
683.15656
  20
434.48633
  0
SEQEND
  0
POLYLINE
  5
bb
  8
Layer_0
  62
0
  66
1
  10
0
  20
0
  30
0
  0
VERTEX
  5
bb
  8
Layer_0
  10
683.15656
  20
434.48633
  0
VERTEX
  5
bc
  8
Layer_0
  10
714.40656
  20
434.48633
  0
SEQEND
  0
POLYLINE
  5
be
  8
Layer_0
  62
0
  66
1
  10
0
  20
0
  30
0
  0
VERTEX
  5
be
  8
Layer_0
  10
714.40656
  20
434.48633
  0
VERTEX
  5
bf
  8
Layer_0
  10
714.40656
  20
469.48633
  0
SEQEND
  0
POLYLINE
  5
c1
  8
Layer_0
  62
0
  66
1
  10
0
  20
0
  30
0
  0
VERTEX
  5
c1
  8
Layer_0
  10
714.40656
  20
469.48633
  0
VERTEX
  5
c2
  8
Layer_0
  10
720.40656
  20
469.48633
  0
SEQEND
  0
POLYLINE
  5
c4
  8
Layer_0
  62
0
  66
1
  10
0
  20
0
  30
0
  0
VERTEX
  5
c4
  8
Layer_0
  10
720.40656
  20
469.48633
  0
VERTEX
  5
c5
  8
Layer_0
  10
720.40656
  20
499.48633
  0
SEQEND
  0
POLYLINE
  5
c7
  8
Layer_0
  62
0
  66
1
  10
0
  20
0
  30
0
  0
VERTEX
  5
c7
  8
Layer_0
  10
720.40656
  20
499.48633
  0
VERTEX
  5
c8
  8
Layer_0
  10
714.40656
  20
499.48633
  0
SEQEND
  0
POLYLINE
  5
ca
  8
Layer_0
  62
0
  66
1
  10
0
  20
0
  30
0
  0
VERTEX
  5
ca
  8
Layer_0
  10
714.40656
  20
499.48633
  0
VERTEX
  5
cb
  8
Layer_0
  10
714.40656
  20
534.48633
  0
SEQEND
  0
POLYLINE
  5
cd
  8
Layer_0
  62
0
  66
1
  10
0
  20
0
  30
0
  0
VERTEX
  5
cd
  8
Layer_0
  10
714.40656
  20
534.48633
  0
VERTEX
  5
ce
  8
Layer_0
  10
683.15656
  20
534.48633
  0
SEQEND
  0
POLYLINE
  5
d0
  8
Layer_0
  62
0
  66
1
  10
0
  20
0
  30
0
  0
VERTEX
  5
d0
  8
Layer_0
  10
683.15656
  20
534.48633
  0
VERTEX
  5
d1
  8
Layer_0
  10
683.15656
  20
540.48633
  0
SEQEND
  0
POLYLINE
  5
d3
  8
Layer_0
  62
0
  66
1
  10
0
  20
0
  30
0
  0
VERTEX
  5
d3
  8
Layer_0
  10
683.15656
  20
540.48633
  0
VERTEX
  5
d4
  8
Layer_0
  10
653.15656
  20
540.48633
  0
SEQEND
  0
POLYLINE
  5
d6
  8
Layer_0
  62
0
  66
1
  10
0
  20
0
  30
0
  0
VERTEX
  5
d6
  8
Layer_0
  10
653.15656
  20
540.48633
  0
VERTEX
  5
d7
  8
Layer_0
  10
653.15656
  20
534.48633
  0
SEQEND
  0
POLYLINE
  5
d9
  8
Layer_0
  62
0
  66
1
  10
0
  20
0
  30
0
  0
VERTEX
  5
d9
  8
Layer_0
  10
653.15656
  20
534.48633
  0
VERTEX
  5
da
  8
Layer_0
  10
590.65656
  20
534.48633
  0
SEQEND
  0
POLYLINE
  5
dc
  8
Layer_0
  62
0
  66
1
  10
0
  20
0
  30
0
  0
VERTEX
  5
dc
  8
Layer_0
  10
590.65656
  20
534.48633
  0
VERTEX
  5
dd
  8
Layer_0
  10
590.65656
  20
540.48633
  0
SEQEND
  0
POLYLINE
  5
df
  8
Layer_0
  62
0
  66
1
  10
0
  20
0
  30
0
  0
VERTEX
  5
df
  8
Layer_0
  10
590.65656
  20
540.48633
  0
VERTEX
  5
e0
  8
Layer_0
  10
560.65656
  20
540.48633
  0
SEQEND
  0
ENDSEC
  0
EOF
