  0
SECTION
  2
HEADER
  9
$ACADVER
  1
AC1009
  0
ENDSEC
  0
SECTION
  2
ENTITIES
  0
POLYLINE
  5
90
  8
Layer_0
  62
0
  66
1
  10
0
  20
0
  30
0
  0
VERTEX
  5
90
  8
Layer_0
  10
537.17236
  20
505.25763
  0
VERTEX
  5
91
  8
Layer_0
  10
537.14185
  20
504.95532
  0
VERTEX
  5
92
  8
Layer_0
  10
537.05444
  20
504.67377
  0
VERTEX
  5
93
  8
Layer_0
  10
536.9162
  20
504.41898
  0
VERTEX
  5
94
  8
Layer_0
  10
536.73303
  20
504.19696
  0
VERTEX
  5
95
  8
Layer_0
  10
536.51099
  20
504.01379
  0
VERTEX
  5
96
  8
Layer_0
  10
536.25623
  20
503.87552
  0
VERTEX
  5
97
  8
Layer_0
  10
535.97467
  20
503.78812
  0
VERTEX
  5
98
  8
Layer_0
  10
535.67236
  20
503.75763
  0
SEQEND
  0
POLYLINE
  5
9a
  8
Layer_0
  62
0
  66
1
  10
0
  20
0
  30
0
  0
VERTEX
  5
9a
  8
Layer_0
  10
535.67236
  20
503.75763
  0
VERTEX
  5
9b
  8
Layer_0
  10
535.37006
  20
503.78812
  0
VERTEX
  5
9c
  8
Layer_0
  10
535.0885
  20
503.87552
  0
VERTEX
  5
9d
  8
Layer_0
  10
534.83374
  20
504.01379
  0
VERTEX
  5
9e
  8
Layer_0
  10
534.61169
  20
504.19696
  0
VERTEX
  5
9f
  8
Layer_0
  10
534.42853
  20
504.41898
  0
VERTEX
  5
a0
  8
Layer_0
  10
534.29028
  20
504.67377
  0
VERTEX
  5
a1
  8
Layer_0
  10
534.20288
  20
504.95532
  0
VERTEX
  5
a2
  8
Layer_0
  10
534.17236
  20
505.25763
  0
SEQEND
  0
POLYLINE
  5
a4
  8
Layer_0
  62
0
  66
1
  10
0
  20
0
  30
0
  0
VERTEX
  5
a4
  8
Layer_0
  10
534.17236
  20
505.25763
  0
VERTEX
  5
a5
  8
Layer_0
  10
534.20288
  20
505.55994
  0
VERTEX
  5
a6
  8
Layer_0
  10
534.29028
  20
505.84149
  0
VERTEX
  5
a7
  8
Layer_0
  10
534.42853
  20
506.09628
  0
VERTEX
  5
a8
  8
Layer_0
  10
534.61169
  20
506.3183
  0
VERTEX
  5
a9
  8
Layer_0
  10
534.83374
  20
506.50146
  0
VERTEX
  5
aa
  8
Layer_0
  10
535.0885
  20
506.63974
  0
VERTEX
  5
ab
  8
Layer_0
  10
535.37006
  20
506.72714
  0
VERTEX
  5
ac
  8
Layer_0
  10
535.67236
  20
506.75763
  0
SEQEND
  0
POLYLINE
  5
ae
  8
Layer_0
  62
0
  66
1
  10
0
  20
0
  30
0
  0
VERTEX
  5
ae
  8
Layer_0
  10
535.67236
  20
506.75763
  0
VERTEX
  5
af
  8
Layer_0
  10
535.97467
  20
506.72714
  0
VERTEX
  5
b0
  8
Layer_0
  10
536.25623
  20
506.63974
  0
VERTEX
  5
b1
  8
Layer_0
  10
536.51099
  20
506.50146
  0
VERTEX
  5
b2
  8
Layer_0
  10
536.73303
  20
506.3183
  0
VERTEX
  5
b3
  8
Layer_0
  10
536.9162
  20
506.09628
  0
VERTEX
  5
b4
  8
Layer_0
  10
537.05444
  20
505.84149
  0
VERTEX
  5
b5
  8
Layer_0
  10
537.14185
  20
505.55994
  0
VERTEX
  5
b6
  8
Layer_0
  10
537.17236
  20
505.25763
  0
SEQEND
  0
POLYLINE
  5
b8
  8
Layer_0
  62
0
  66
1
  10
0
  20
0
  30
0
  0
VERTEX
  5
b8
  8
Layer_0
  10
602.17236
  20
505.25763
  0
VERTEX
  5
b9
  8
Layer_0
  10
602.14185
  20
504.95532
  0
VERTEX
  5
ba
  8
Layer_0
  10
602.05444
  20
504.67377
  0
VERTEX
  5
bb
  8
Layer_0
  10
601.9162
  20
504.41898
  0
VERTEX
  5
bc
  8
Layer_0
  10
601.73303
  20
504.19696
  0
VERTEX
  5
bd
  8
Layer_0
  10
601.51099
  20
504.01379
  0
VERTEX
  5
be
  8
Layer_0
  10
601.25623
  20
503.87552
  0
VERTEX
  5
bf
  8
Layer_0
  10
600.97467
  20
503.78812
  0
VERTEX
  5
c0
  8
Layer_0
  10
600.67236
  20
503.75763
  0
SEQEND
  0
POLYLINE
  5
c2
  8
Layer_0
  62
0
  66
1
  10
0
  20
0
  30
0
  0
VERTEX
  5
c2
  8
Layer_0
  10
600.67236
  20
503.75763
  0
VERTEX
  5
c3
  8
Layer_0
  10
600.37006
  20
503.78812
  0
VERTEX
  5
c4
  8
Layer_0
  10
600.0885
  20
503.87552
  0
VERTEX
  5
c5
  8
Layer_0
  10
599.83374
  20
504.01379
  0
VERTEX
  5
c6
  8
Layer_0
  10
599.61169
  20
504.19696
  0
VERTEX
  5
c7
  8
Layer_0
  10
599.42853
  20
504.41898
  0
VERTEX
  5
c8
  8
Layer_0
  10
599.29028
  20
504.67377
  0
VERTEX
  5
c9
  8
Layer_0
  10
599.20288
  20
504.95532
  0
VERTEX
  5
ca
  8
Layer_0
  10
599.17236
  20
505.25763
  0
SEQEND
  0
POLYLINE
  5
cc
  8
Layer_0
  62
0
  66
1
  10
0
  20
0
  30
0
  0
VERTEX
  5
cc
  8
Layer_0
  10
599.17236
  20
505.25763
  0
VERTEX
  5
cd
  8
Layer_0
  10
599.20288
  20
505.55994
  0
VERTEX
  5
ce
  8
Layer_0
  10
599.29028
  20
505.84149
  0
VERTEX
  5
cf
  8
Layer_0
  10
599.42853
  20
506.09628
  0
VERTEX
  5
d0
  8
Layer_0
  10
599.61169
  20
506.3183
  0
VERTEX
  5
d1
  8
Layer_0
  10
599.83374
  20
506.50146
  0
VERTEX
  5
d2
  8
Layer_0
  10
600.0885
  20
506.63974
  0
VERTEX
  5
d3
  8
Layer_0
  10
600.37006
  20
506.72714
  0
VERTEX
  5
d4
  8
Layer_0
  10
600.67236
  20
506.75763
  0
SEQEND
  0
POLYLINE
  5
d6
  8
Layer_0
  62
0
  66
1
  10
0
  20
0
  30
0
  0
VERTEX
  5
d6
  8
Layer_0
  10
600.67236
  20
506.75763
  0
VERTEX
  5
d7
  8
Layer_0
  10
600.97467
  20
506.72714
  0
VERTEX
  5
d8
  8
Layer_0
  10
601.25623
  20
506.63974
  0
VERTEX
  5
d9
  8
Layer_0
  10
601.51099
  20
506.50146
  0
VERTEX
  5
da
  8
Layer_0
  10
601.73303
  20
506.3183
  0
VERTEX
  5
db
  8
Layer_0
  10
601.9162
  20
506.09628
  0
VERTEX
  5
dc
  8
Layer_0
  10
602.05444
  20
505.84149
  0
VERTEX
  5
dd
  8
Layer_0
  10
602.14185
  20
505.55994
  0
VERTEX
  5
de
  8
Layer_0
  10
602.17236
  20
505.25763
  0
SEQEND
  0
POLYLINE
  5
e0
  8
Layer_0
  62
0
  66
1
  10
0
  20
0
  30
0
  0
VERTEX
  5
e0
  8
Layer_0
  10
602.17236
  20
335.25763
  0
VERTEX
  5
e1
  8
Layer_0
  10
602.14185
  20
334.95532
  0
VERTEX
  5
e2
  8
Layer_0
  10
602.05444
  20
334.67377
  0
VERTEX
  5
e3
  8
Layer_0
  10
601.9162
  20
334.41898
  0
VERTEX
  5
e4
  8
Layer_0
  10
601.73303
  20
334.19696
  0
VERTEX
  5
e5
  8
Layer_0
  10
601.51099
  20
334.01379
  0
VERTEX
  5
e6
  8
Layer_0
  10
601.25623
  20
333.87552
  0
VERTEX
  5
e7
  8
Layer_0
  10
600.97467
  20
333.78812
  0
VERTEX
  5
e8
  8
Layer_0
  10
600.67236
  20
333.75763
  0
SEQEND
  0
POLYLINE
  5
ea
  8
Layer_0
  62
0
  66
1
  10
0
  20
0
  30
0
  0
VERTEX
  5
ea
  8
Layer_0
  10
600.67236
  20
333.75763
  0
VERTEX
  5
eb
  8
Layer_0
  10
600.37006
  20
333.78812
  0
VERTEX
  5
ec
  8
Layer_0
  10
600.0885
  20
333.87552
  0
VERTEX
  5
ed
  8
Layer_0
  10
599.83374
  20
334.01379
  0
VERTEX
  5
ee
  8
Layer_0
  10
599.61169
  20
334.19696
  0
VERTEX
  5
ef
  8
Layer_0
  10
599.42853
  20
334.41898
  0
VERTEX
  5
f0
  8
Layer_0
  10
599.29028
  20
334.67377
  0
VERTEX
  5
f1
  8
Layer_0
  10
599.20288
  20
334.95532
  0
VERTEX
  5
f2
  8
Layer_0
  10
599.17236
  20
335.25763
  0
SEQEND
  0
POLYLINE
  5
f4
  8
Layer_0
  62
0
  66
1
  10
0
  20
0
  30
0
  0
VERTEX
  5
f4
  8
Layer_0
  10
599.17236
  20
335.25763
  0
VERTEX
  5
f5
  8
Layer_0
  10
599.20288
  20
335.55994
  0
VERTEX
  5
f6
  8
Layer_0
  10
599.29028
  20
335.84149
  0
VERTEX
  5
f7
  8
Layer_0
  10
599.42853
  20
336.09628
  0
VERTEX
  5
f8
  8
Layer_0
  10
599.61169
  20
336.3183
  0
VERTEX
  5
f9
  8
Layer_0
  10
599.83374
  20
336.50146
  0
VERTEX
  5
fa
  8
Layer_0
  10
600.0885
  20
336.63974
  0
VERTEX
  5
fb
  8
Layer_0
  10
600.37006
  20
336.72714
  0
VERTEX
  5
fc
  8
Layer_0
  10
600.67236
  20
336.75763
  0
SEQEND
  0
POLYLINE
  5
fe
  8
Layer_0
  62
0
  66
1
  10
0
  20
0
  30
0
  0
VERTEX
  5
fe
  8
Layer_0
  10
600.67236
  20
336.75763
  0
VERTEX
  5
ff
  8
Layer_0
  10
600.97467
  20
336.72714
  0
VERTEX
  5
100
  8
Layer_0
  10
601.25623
  20
336.63974
  0
VERTEX
  5
101
  8
Layer_0
  10
601.51099
  20
336.50146
  0
VERTEX
  5
102
  8
Layer_0
  10
601.73303
  20
336.3183
  0
VERTEX
  5
103
  8
Layer_0
  10
601.9162
  20
336.09628
  0
VERTEX
  5
104
  8
Layer_0
  10
602.05444
  20
335.84149
  0
VERTEX
  5
105
  8
Layer_0
  10
602.14185
  20
335.55994
  0
VERTEX
  5
106
  8
Layer_0
  10
602.17236
  20
335.25763
  0
SEQEND
  0
POLYLINE
  5
108
  8
Layer_0
  62
0
  66
1
  10
0
  20
0
  30
0
  0
VERTEX
  5
108
  8
Layer_0
  10
537.17236
  20
335.25763
  0
VERTEX
  5
109
  8
Layer_0
  10
537.14185
  20
334.95532
  0
VERTEX
  5
10a
  8
Layer_0
  10
537.05444
  20
334.67377
  0
VERTEX
  5
10b
  8
Layer_0
  10
536.9162
  20
334.41898
  0
VERTEX
  5
10c
  8
Layer_0
  10
536.73303
  20
334.19696
  0
VERTEX
  5
10d
  8
Layer_0
  10
536.51099
  20
334.01379
  0
VERTEX
  5
10e
  8
Layer_0
  10
536.25623
  20
333.87552
  0
VERTEX
  5
10f
  8
Layer_0
  10
535.97467
  20
333.78812
  0
VERTEX
  5
110
  8
Layer_0
  10
535.67236
  20
333.75763
  0
SEQEND
  0
POLYLINE
  5
112
  8
Layer_0
  62
0
  66
1
  10
0
  20
0
  30
0
  0
VERTEX
  5
112
  8
Layer_0
  10
535.67236
  20
333.75763
  0
VERTEX
  5
113
  8
Layer_0
  10
535.37006
  20
333.78812
  0
VERTEX
  5
114
  8
Layer_0
  10
535.0885
  20
333.87552
  0
VERTEX
  5
115
  8
Layer_0
  10
534.83374
  20
334.01379
  0
VERTEX
  5
116
  8
Layer_0
  10
534.61169
  20
334.19696
  0
VERTEX
  5
117
  8
Layer_0
  10
534.42853
  20
334.41898
  0
VERTEX
  5
118
  8
Layer_0
  10
534.29028
  20
334.67377
  0
VERTEX
  5
119
  8
Layer_0
  10
534.20288
  20
334.95532
  0
VERTEX
  5
11a
  8
Layer_0
  10
534.17236
  20
335.25763
  0
SEQEND
  0
POLYLINE
  5
11c
  8
Layer_0
  62
0
  66
1
  10
0
  20
0
  30
0
  0
VERTEX
  5
11c
  8
Layer_0
  10
534.17236
  20
335.25763
  0
VERTEX
  5
11d
  8
Layer_0
  10
534.20288
  20
335.55994
  0
VERTEX
  5
11e
  8
Layer_0
  10
534.29028
  20
335.84149
  0
VERTEX
  5
11f
  8
Layer_0
  10
534.42853
  20
336.09628
  0
VERTEX
  5
120
  8
Layer_0
  10
534.61169
  20
336.3183
  0
VERTEX
  5
121
  8
Layer_0
  10
534.83374
  20
336.50146
  0
VERTEX
  5
122
  8
Layer_0
  10
535.0885
  20
336.63974
  0
VERTEX
  5
123
  8
Layer_0
  10
535.37006
  20
336.72714
  0
VERTEX
  5
124
  8
Layer_0
  10
535.67236
  20
336.75763
  0
SEQEND
  0
POLYLINE
  5
126
  8
Layer_0
  62
0
  66
1
  10
0
  20
0
  30
0
  0
VERTEX
  5
126
  8
Layer_0
  10
535.67236
  20
336.75763
  0
VERTEX
  5
127
  8
Layer_0
  10
535.97467
  20
336.72714
  0
VERTEX
  5
128
  8
Layer_0
  10
536.25623
  20
336.63974
  0
VERTEX
  5
129
  8
Layer_0
  10
536.51099
  20
336.50146
  0
VERTEX
  5
12a
  8
Layer_0
  10
536.73303
  20
336.3183
  0
VERTEX
  5
12b
  8
Layer_0
  10
536.9162
  20
336.09628
  0
VERTEX
  5
12c
  8
Layer_0
  10
537.05444
  20
335.84149
  0
VERTEX
  5
12d
  8
Layer_0
  10
537.14185
  20
335.55994
  0
VERTEX
  5
12e
  8
Layer_0
  10
537.17236
  20
335.25763
  0
SEQEND
  0
POLYLINE
  5
130
  8
Layer_0
  62
0
  66
1
  10
0
  20
0
  30
0
  0
VERTEX
  5
130
  8
Layer_0
  10
580.57538
  20
419.07062
  0
VERTEX
  5
131
  8
Layer_0
  10
580.54492
  20
418.76831
  0
VERTEX
  5
132
  8
Layer_0
  10
580.45752
  20
418.48676
  0
VERTEX
  5
133
  8
Layer_0
  10
580.31921
  20
418.23196
  0
VERTEX
  5
134
  8
Layer_0
  10
580.13605
  20
418.00995
  0
VERTEX
  5
135
  8
Layer_0
  10
579.91406
  20
417.82678
  0
VERTEX
  5
136
  8
Layer_0
  10
579.6593
  20
417.68851
  0
VERTEX
  5
137
  8
Layer_0
  10
579.37769
  20
417.6011
  0
VERTEX
  5
138
  8
Layer_0
  10
579.07538
  20
417.57062
  0
SEQEND
  0
POLYLINE
  5
13a
  8
Layer_0
  62
0
  66
1
  10
0
  20
0
  30
0
  0
VERTEX
  5
13a
  8
Layer_0
  10
579.07538
  20
417.57062
  0
VERTEX
  5
13b
  8
Layer_0
  10
578.77307
  20
417.6011
  0
VERTEX
  5
13c
  8
Layer_0
  10
578.49146
  20
417.68851
  0
VERTEX
  5
13d
  8
Layer_0
  10
578.23669
  20
417.82678
  0
VERTEX
  5
13e
  8
Layer_0
  10
578.01471
  20
418.00995
  0
VERTEX
  5
13f
  8
Layer_0
  10
577.83154
  20
418.23196
  0
VERTEX
  5
140
  8
Layer_0
  10
577.69324
  20
418.48676
  0
VERTEX
  5
141
  8
Layer_0
  10
577.60583
  20
418.76831
  0
VERTEX
  5
142
  8
Layer_0
  10
577.57538
  20
419.07062
  0
SEQEND
  0
POLYLINE
  5
144
  8
Layer_0
  62
0
  66
1
  10
0
  20
0
  30
0
  0
VERTEX
  5
144
  8
Layer_0
  10
577.57538
  20
419.07062
  0
VERTEX
  5
145
  8
Layer_0
  10
577.60583
  20
419.37292
  0
VERTEX
  5
146
  8
Layer_0
  10
577.69324
  20
419.65448
  0
VERTEX
  5
147
  8
Layer_0
  10
577.83154
  20
419.90927
  0
VERTEX
  5
148
  8
Layer_0
  10
578.01471
  20
420.13129
  0
VERTEX
  5
149
  8
Layer_0
  10
578.23669
  20
420.31445
  0
VERTEX
  5
14a
  8
Layer_0
  10
578.49146
  20
420.45273
  0
VERTEX
  5
14b
  8
Layer_0
  10
578.77307
  20
420.54013
  0
VERTEX
  5
14c
  8
Layer_0
  10
579.07538
  20
420.57062
  0
SEQEND
  0
POLYLINE
  5
14e
  8
Layer_0
  62
0
  66
1
  10
0
  20
0
  30
0
  0
VERTEX
  5
14e
  8
Layer_0
  10
579.07538
  20
420.57062
  0
VERTEX
  5
14f
  8
Layer_0
  10
579.37769
  20
420.54013
  0
VERTEX
  5
150
  8
Layer_0
  10
579.6593
  20
420.45273
  0
VERTEX
  5
151
  8
Layer_0
  10
579.91406
  20
420.31445
  0
VERTEX
  5
152
  8
Layer_0
  10
580.13605
  20
420.13129
  0
VERTEX
  5
153
  8
Layer_0
  10
580.31921
  20
419.90927
  0
VERTEX
  5
154
  8
Layer_0
  10
580.45752
  20
419.65448
  0
VERTEX
  5
155
  8
Layer_0
  10
580.54492
  20
419.37292
  0
VERTEX
  5
156
  8
Layer_0
  10
580.57538
  20
419.07062
  0
SEQEND
  0
POLYLINE
  5
158
  8
Layer_0
  62
0
  66
1
  10
0
  20
0
  30
0
  0
VERTEX
  5
158
  8
Layer_0
  10
580.57538
  20
437.07062
  0
VERTEX
  5
159
  8
Layer_0
  10
580.54492
  20
436.76831
  0
VERTEX
  5
15a
  8
Layer_0
  10
580.45752
  20
436.48676
  0
VERTEX
  5
15b
  8
Layer_0
  10
580.31921
  20
436.23196
  0
VERTEX
  5
15c
  8
Layer_0
  10
580.13605
  20
436.00995
  0
VERTEX
  5
15d
  8
Layer_0
  10
579.91406
  20
435.82678
  0
VERTEX
  5
15e
  8
Layer_0
  10
579.6593
  20
435.68851
  0
VERTEX
  5
15f
  8
Layer_0
  10
579.37769
  20
435.6011
  0
VERTEX
  5
160
  8
Layer_0
  10
579.07538
  20
435.57062
  0
SEQEND
  0
POLYLINE
  5
162
  8
Layer_0
  62
0
  66
1
  10
0
  20
0
  30
0
  0
VERTEX
  5
162
  8
Layer_0
  10
579.07538
  20
435.57062
  0
VERTEX
  5
163
  8
Layer_0
  10
578.77307
  20
435.6011
  0
VERTEX
  5
164
  8
Layer_0
  10
578.49146
  20
435.68851
  0
VERTEX
  5
165
  8
Layer_0
  10
578.23669
  20
435.82678
  0
VERTEX
  5
166
  8
Layer_0
  10
578.01471
  20
436.00995
  0
VERTEX
  5
167
  8
Layer_0
  10
577.83154
  20
436.23196
  0
VERTEX
  5
168
  8
Layer_0
  10
577.69324
  20
436.48676
  0
VERTEX
  5
169
  8
Layer_0
  10
577.60583
  20
436.76831
  0
VERTEX
  5
16a
  8
Layer_0
  10
577.57538
  20
437.07062
  0
SEQEND
  0
POLYLINE
  5
16c
  8
Layer_0
  62
0
  66
1
  10
0
  20
0
  30
0
  0
VERTEX
  5
16c
  8
Layer_0
  10
577.57538
  20
437.07062
  0
VERTEX
  5
16d
  8
Layer_0
  10
577.60583
  20
437.37292
  0
VERTEX
  5
16e
  8
Layer_0
  10
577.69324
  20
437.65448
  0
VERTEX
  5
16f
  8
Layer_0
  10
577.83154
  20
437.90927
  0
VERTEX
  5
170
  8
Layer_0
  10
578.01471
  20
438.13129
  0
VERTEX
  5
171
  8
Layer_0
  10
578.23669
  20
438.31445
  0
VERTEX
  5
172
  8
Layer_0
  10
578.49146
  20
438.45273
  0
VERTEX
  5
173
  8
Layer_0
  10
578.77307
  20
438.54013
  0
VERTEX
  5
174
  8
Layer_0
  10
579.07538
  20
438.57062
  0
SEQEND
  0
POLYLINE
  5
176
  8
Layer_0
  62
0
  66
1
  10
0
  20
0
  30
0
  0
VERTEX
  5
176
  8
Layer_0
  10
579.07538
  20
438.57062
  0
VERTEX
  5
177
  8
Layer_0
  10
579.37769
  20
438.54013
  0
VERTEX
  5
178
  8
Layer_0
  10
579.6593
  20
438.45273
  0
VERTEX
  5
179
  8
Layer_0
  10
579.91406
  20
438.31445
  0
VERTEX
  5
17a
  8
Layer_0
  10
580.13605
  20
438.13129
  0
VERTEX
  5
17b
  8
Layer_0
  10
580.31921
  20
437.90927
  0
VERTEX
  5
17c
  8
Layer_0
  10
580.45752
  20
437.65448
  0
VERTEX
  5
17d
  8
Layer_0
  10
580.54492
  20
437.37292
  0
VERTEX
  5
17e
  8
Layer_0
  10
580.57538
  20
437.07062
  0
SEQEND
  0
POLYLINE
  5
180
  8
Layer_0
  62
0
  66
1
  10
0
  20
0
  30
0
  0
VERTEX
  5
180
  8
Layer_0
  10
569.67236
  20
431.50763
  0
VERTEX
  5
181
  8
Layer_0
  10
569.64185
  20
431.20532
  0
VERTEX
  5
182
  8
Layer_0
  10
569.55444
  20
430.92377
  0
VERTEX
  5
183
  8
Layer_0
  10
569.4162
  20
430.66898
  0
VERTEX
  5
184
  8
Layer_0
  10
569.23303
  20
430.44696
  0
VERTEX
  5
185
  8
Layer_0
  10
569.01099
  20
430.26379
  0
VERTEX
  5
186
  8
Layer_0
  10
568.75623
  20
430.12552
  0
VERTEX
  5
187
  8
Layer_0
  10
568.47467
  20
430.03812
  0
VERTEX
  5
188
  8
Layer_0
  10
568.17236
  20
430.00763
  0
SEQEND
  0
POLYLINE
  5
18a
  8
Layer_0
  62
0
  66
1
  10
0
  20
0
  30
0
  0
VERTEX
  5
18a
  8
Layer_0
  10
568.17236
  20
430.00763
  0
VERTEX
  5
18b
  8
Layer_0
  10
567.87006
  20
430.03812
  0
VERTEX
  5
18c
  8
Layer_0
  10
567.5885
  20
430.12552
  0
VERTEX
  5
18d
  8
Layer_0
  10
567.33374
  20
430.26379
  0
VERTEX
  5
18e
  8
Layer_0
  10
567.11169
  20
430.44696
  0
VERTEX
  5
18f
  8
Layer_0
  10
566.92853
  20
430.66898
  0
VERTEX
  5
190
  8
Layer_0
  10
566.79028
  20
430.92377
  0
VERTEX
  5
191
  8
Layer_0
  10
566.70288
  20
431.20532
  0
VERTEX
  5
192
  8
Layer_0
  10
566.67236
  20
431.50763
  0
SEQEND
  0
POLYLINE
  5
194
  8
Layer_0
  62
0
  66
1
  10
0
  20
0
  30
0
  0
VERTEX
  5
194
  8
Layer_0
  10
566.67236
  20
431.50763
  0
VERTEX
  5
195
  8
Layer_0
  10
566.70288
  20
431.80994
  0
VERTEX
  5
196
  8
Layer_0
  10
566.79028
  20
432.09149
  0
VERTEX
  5
197
  8
Layer_0
  10
566.92853
  20
432.34628
  0
VERTEX
  5
198
  8
Layer_0
  10
567.11169
  20
432.5683
  0
VERTEX
  5
199
  8
Layer_0
  10
567.33374
  20
432.75146
  0
VERTEX
  5
19a
  8
Layer_0
  10
567.5885
  20
432.88974
  0
VERTEX
  5
19b
  8
Layer_0
  10
567.87006
  20
432.97714
  0
VERTEX
  5
19c
  8
Layer_0
  10
568.17236
  20
433.00763
  0
SEQEND
  0
POLYLINE
  5
19e
  8
Layer_0
  62
0
  66
1
  10
0
  20
0
  30
0
  0
VERTEX
  5
19e
  8
Layer_0
  10
568.17236
  20
433.00763
  0
VERTEX
  5
19f
  8
Layer_0
  10
568.47467
  20
432.97714
  0
VERTEX
  5
1a0
  8
Layer_0
  10
568.75623
  20
432.88974
  0
VERTEX
  5
1a1
  8
Layer_0
  10
569.01099
  20
432.75146
  0
VERTEX
  5
1a2
  8
Layer_0
  10
569.23303
  20
432.5683
  0
VERTEX
  5
1a3
  8
Layer_0
  10
569.4162
  20
432.34628
  0
VERTEX
  5
1a4
  8
Layer_0
  10
569.55444
  20
432.09149
  0
VERTEX
  5
1a5
  8
Layer_0
  10
569.64185
  20
431.80994
  0
VERTEX
  5
1a6
  8
Layer_0
  10
569.67236
  20
431.50763
  0
SEQEND
  0
POLYLINE
  5
1a8
  8
Layer_0
  62
0
  66
1
  10
0
  20
0
  30
0
  0
VERTEX
  5
1a8
  8
Layer_0
  10
594.42108
  20
441.75888
  0
VERTEX
  5
1a9
  8
Layer_0
  10
594.39063
  20
441.45657
  0
VERTEX
  5
1aa
  8
Layer_0
  10
594.30322
  20
441.17499
  0
VERTEX
  5
1ab
  8
Layer_0
  10
594.16492
  20
440.9202
  0
VERTEX
  5
1ac
  8
Layer_0
  10
593.98175
  20
440.69821
  0
VERTEX
  5
1ad
  8
Layer_0
  10
593.75977
  20
440.51508
  0
VERTEX
  5
1ae
  8
Layer_0
  10
593.505
  20
440.37677
  0
VERTEX
  5
1af
  8
Layer_0
  10
593.22339
  20
440.28934
  0
VERTEX
  5
1b0
  8
Layer_0
  10
592.92108
  20
440.25888
  0
SEQEND
  0
POLYLINE
  5
1b2
  8
Layer_0
  62
0
  66
1
  10
0
  20
0
  30
0
  0
VERTEX
  5
1b2
  8
Layer_0
  10
592.92108
  20
440.25888
  0
VERTEX
  5
1b3
  8
Layer_0
  10
592.61877
  20
440.28934
  0
VERTEX
  5
1b4
  8
Layer_0
  10
592.33716
  20
440.37677
  0
VERTEX
  5
1b5
  8
Layer_0
  10
592.0824
  20
440.51508
  0
VERTEX
  5
1b6
  8
Layer_0
  10
591.86041
  20
440.69821
  0
VERTEX
  5
1b7
  8
Layer_0
  10
591.67725
  20
440.9202
  0
VERTEX
  5
1b8
  8
Layer_0
  10
591.53894
  20
441.17499
  0
VERTEX
  5
1b9
  8
Layer_0
  10
591.45154
  20
441.45657
  0
VERTEX
  5
1ba
  8
Layer_0
  10
591.42108
  20
441.75888
  0
SEQEND
  0
POLYLINE
  5
1bc
  8
Layer_0
  62
0
  66
1
  10
0
  20
0
  30
0
  0
VERTEX
  5
1bc
  8
Layer_0
  10
591.42108
  20
441.75888
  0
VERTEX
  5
1bd
  8
Layer_0
  10
591.45154
  20
442.06119
  0
VERTEX
  5
1be
  8
Layer_0
  10
591.53894
  20
442.34277
  0
VERTEX
  5
1bf
  8
Layer_0
  10
591.67725
  20
442.59756
  0
VERTEX
  5
1c0
  8
Layer_0
  10
591.86041
  20
442.81955
  0
VERTEX
  5
1c1
  8
Layer_0
  10
592.0824
  20
443.00269
  0
VERTEX
  5
1c2
  8
Layer_0
  10
592.33716
  20
443.14099
  0
VERTEX
  5
1c3
  8
Layer_0
  10
592.61877
  20
443.22842
  0
VERTEX
  5
1c4
  8
Layer_0
  10
592.92108
  20
443.25888
  0
SEQEND
  0
POLYLINE
  5
1c6
  8
Layer_0
  62
0
  66
1
  10
0
  20
0
  30
0
  0
VERTEX
  5
1c6
  8
Layer_0
  10
592.92108
  20
443.25888
  0
VERTEX
  5
1c7
  8
Layer_0
  10
593.22339
  20
443.22842
  0
VERTEX
  5
1c8
  8
Layer_0
  10
593.505
  20
443.14099
  0
VERTEX
  5
1c9
  8
Layer_0
  10
593.75977
  20
443.00269
  0
VERTEX
  5
1ca
  8
Layer_0
  10
593.98175
  20
442.81955
  0
VERTEX
  5
1cb
  8
Layer_0
  10
594.16492
  20
442.59756
  0
VERTEX
  5
1cc
  8
Layer_0
  10
594.30322
  20
442.34277
  0
VERTEX
  5
1cd
  8
Layer_0
  10
594.39063
  20
442.06119
  0
VERTEX
  5
1ce
  8
Layer_0
  10
594.42108
  20
441.75888
  0
SEQEND
  0
POLYLINE
  5
1d0
  8
Layer_0
  62
0
  66
1
  10
0
  20
0
  30
0
  0
VERTEX
  5
1d0
  8
Layer_0
  10
604.67236
  20
466.50763
  0
VERTEX
  5
1d1
  8
Layer_0
  10
604.64185
  20
466.20532
  0
VERTEX
  5
1d2
  8
Layer_0
  10
604.55444
  20
465.92377
  0
VERTEX
  5
1d3
  8
Layer_0
  10
604.4162
  20
465.66898
  0
VERTEX
  5
1d4
  8
Layer_0
  10
604.23303
  20
465.44696
  0
VERTEX
  5
1d5
  8
Layer_0
  10
604.01099
  20
465.26379
  0
VERTEX
  5
1d6
  8
Layer_0
  10
603.75623
  20
465.12552
  0
VERTEX
  5
1d7
  8
Layer_0
  10
603.47467
  20
465.03812
  0
VERTEX
  5
1d8
  8
Layer_0
  10
603.17236
  20
465.00763
  0
SEQEND
  0
POLYLINE
  5
1da
  8
Layer_0
  62
0
  66
1
  10
0
  20
0
  30
0
  0
VERTEX
  5
1da
  8
Layer_0
  10
603.17236
  20
465.00763
  0
VERTEX
  5
1db
  8
Layer_0
  10
602.87006
  20
465.03812
  0
VERTEX
  5
1dc
  8
Layer_0
  10
602.5885
  20
465.12552
  0
VERTEX
  5
1dd
  8
Layer_0
  10
602.33374
  20
465.26379
  0
VERTEX
  5
1de
  8
Layer_0
  10
602.11169
  20
465.44696
  0
VERTEX
  5
1df
  8
Layer_0
  10
601.92853
  20
465.66898
  0
VERTEX
  5
1e0
  8
Layer_0
  10
601.79028
  20
465.92377
  0
VERTEX
  5
1e1
  8
Layer_0
  10
601.70288
  20
466.20532
  0
VERTEX
  5
1e2
  8
Layer_0
  10
601.67236
  20
466.50763
  0
SEQEND
  0
POLYLINE
  5
1e4
  8
Layer_0
  62
0
  66
1
  10
0
  20
0
  30
0
  0
VERTEX
  5
1e4
  8
Layer_0
  10
601.67236
  20
466.50763
  0
VERTEX
  5
1e5
  8
Layer_0
  10
601.70288
  20
466.80994
  0
VERTEX
  5
1e6
  8
Layer_0
  10
601.79028
  20
467.09149
  0
VERTEX
  5
1e7
  8
Layer_0
  10
601.92853
  20
467.34628
  0
VERTEX
  5
1e8
  8
Layer_0
  10
602.11169
  20
467.5683
  0
VERTEX
  5
1e9
  8
Layer_0
  10
602.33374
  20
467.75146
  0
VERTEX
  5
1ea
  8
Layer_0
  10
602.5885
  20
467.88974
  0
VERTEX
  5
1eb
  8
Layer_0
  10
602.87006
  20
467.97714
  0
VERTEX
  5
1ec
  8
Layer_0
  10
603.17236
  20
468.00763
  0
SEQEND
  0
POLYLINE
  5
1ee
  8
Layer_0
  62
0
  66
1
  10
0
  20
0
  30
0
  0
VERTEX
  5
1ee
  8
Layer_0
  10
603.17236
  20
468.00763
  0
VERTEX
  5
1ef
  8
Layer_0
  10
603.47467
  20
467.97714
  0
VERTEX
  5
1f0
  8
Layer_0
  10
603.75623
  20
467.88974
  0
VERTEX
  5
1f1
  8
Layer_0
  10
604.01099
  20
467.75146
  0
VERTEX
  5
1f2
  8
Layer_0
  10
604.23303
  20
467.5683
  0
VERTEX
  5
1f3
  8
Layer_0
  10
604.4162
  20
467.34628
  0
VERTEX
  5
1f4
  8
Layer_0
  10
604.55444
  20
467.09149
  0
VERTEX
  5
1f5
  8
Layer_0
  10
604.64185
  20
466.80994
  0
VERTEX
  5
1f6
  8
Layer_0
  10
604.67236
  20
466.50763
  0
SEQEND
  0
POLYLINE
  5
1f8
  8
Layer_0
  62
0
  66
1
  10
0
  20
0
  30
0
  0
VERTEX
  5
1f8
  8
Layer_0
  10
594.42108
  20
491.25638
  0
VERTEX
  5
1f9
  8
Layer_0
  10
594.39063
  20
490.95407
  0
VERTEX
  5
1fa
  8
Layer_0
  10
594.30322
  20
490.67249
  0
VERTEX
  5
1fb
  8
Layer_0
  10
594.16492
  20
490.41769
  0
VERTEX
  5
1fc
  8
Layer_0
  10
593.98175
  20
490.19571
  0
VERTEX
  5
1fd
  8
Layer_0
  10
593.75977
  20
490.01257
  0
VERTEX
  5
1fe
  8
Layer_0
  10
593.505
  20
489.87427
  0
VERTEX
  5
1ff
  8
Layer_0
  10
593.22339
  20
489.78683
  0
VERTEX
  5
200
  8
Layer_0
  10
592.92108
  20
489.75638
  0
SEQEND
  0
POLYLINE
  5
202
  8
Layer_0
  62
0
  66
1
  10
0
  20
0
  30
0
  0
VERTEX
  5
202
  8
Layer_0
  10
592.92108
  20
489.75638
  0
VERTEX
  5
203
  8
Layer_0
  10
592.61877
  20
489.78683
  0
VERTEX
  5
204
  8
Layer_0
  10
592.33716
  20
489.87427
  0
VERTEX
  5
205
  8
Layer_0
  10
592.0824
  20
490.01257
  0
VERTEX
  5
206
  8
Layer_0
  10
591.86041
  20
490.19571
  0
VERTEX
  5
207
  8
Layer_0
  10
591.67725
  20
490.41769
  0
VERTEX
  5
208
  8
Layer_0
  10
591.53894
  20
490.67249
  0
VERTEX
  5
209
  8
Layer_0
  10
591.45154
  20
490.95407
  0
VERTEX
  5
20a
  8
Layer_0
  10
591.42108
  20
491.25638
  0
SEQEND
  0
POLYLINE
  5
20c
  8
Layer_0
  62
0
  66
1
  10
0
  20
0
  30
0
  0
VERTEX
  5
20c
  8
Layer_0
  10
591.42108
  20
491.25638
  0
VERTEX
  5
20d
  8
Layer_0
  10
591.45154
  20
491.55869
  0
VERTEX
  5
20e
  8
Layer_0
  10
591.53894
  20
491.84027
  0
VERTEX
  5
20f
  8
Layer_0
  10
591.67725
  20
492.09506
  0
VERTEX
  5
210
  8
Layer_0
  10
591.86041
  20
492.31705
  0
VERTEX
  5
211
  8
Layer_0
  10
592.0824
  20
492.50018
  0
VERTEX
  5
212
  8
Layer_0
  10
592.33716
  20
492.63849
  0
VERTEX
  5
213
  8
Layer_0
  10
592.61877
  20
492.72592
  0
VERTEX
  5
214
  8
Layer_0
  10
592.92108
  20
492.75638
  0
SEQEND
  0
POLYLINE
  5
216
  8
Layer_0
  62
0
  66
1
  10
0
  20
0
  30
0
  0
VERTEX
  5
216
  8
Layer_0
  10
592.92108
  20
492.75638
  0
VERTEX
  5
217
  8
Layer_0
  10
593.22339
  20
492.72592
  0
VERTEX
  5
218
  8
Layer_0
  10
593.505
  20
492.63849
  0
VERTEX
  5
219
  8
Layer_0
  10
593.75977
  20
492.50018
  0
VERTEX
  5
21a
  8
Layer_0
  10
593.98175
  20
492.31705
  0
VERTEX
  5
21b
  8
Layer_0
  10
594.16492
  20
492.09506
  0
VERTEX
  5
21c
  8
Layer_0
  10
594.30322
  20
491.84027
  0
VERTEX
  5
21d
  8
Layer_0
  10
594.39063
  20
491.55869
  0
VERTEX
  5
21e
  8
Layer_0
  10
594.42108
  20
491.25638
  0
SEQEND
  0
POLYLINE
  5
220
  8
Layer_0
  62
0
  66
1
  10
0
  20
0
  30
0
  0
VERTEX
  5
220
  8
Layer_0
  10
569.67236
  20
501.50763
  0
VERTEX
  5
221
  8
Layer_0
  10
569.64185
  20
501.20532
  0
VERTEX
  5
222
  8
Layer_0
  10
569.55444
  20
500.92377
  0
VERTEX
  5
223
  8
Layer_0
  10
569.4162
  20
500.66898
  0
VERTEX
  5
224
  8
Layer_0
  10
569.23303
  20
500.44696
  0
VERTEX
  5
225
  8
Layer_0
  10
569.01099
  20
500.26379
  0
VERTEX
  5
226
  8
Layer_0
  10
568.75623
  20
500.12552
  0
VERTEX
  5
227
  8
Layer_0
  10
568.47467
  20
500.03812
  0
VERTEX
  5
228
  8
Layer_0
  10
568.17236
  20
500.00763
  0
SEQEND
  0
POLYLINE
  5
22a
  8
Layer_0
  62
0
  66
1
  10
0
  20
0
  30
0
  0
VERTEX
  5
22a
  8
Layer_0
  10
568.17236
  20
500.00763
  0
VERTEX
  5
22b
  8
Layer_0
  10
567.87006
  20
500.03812
  0
VERTEX
  5
22c
  8
Layer_0
  10
567.5885
  20
500.12552
  0
VERTEX
  5
22d
  8
Layer_0
  10
567.33374
  20
500.26379
  0
VERTEX
  5
22e
  8
Layer_0
  10
567.11169
  20
500.44696
  0
VERTEX
  5
22f
  8
Layer_0
  10
566.92853
  20
500.66898
  0
VERTEX
  5
230
  8
Layer_0
  10
566.79028
  20
500.92377
  0
VERTEX
  5
231
  8
Layer_0
  10
566.70288
  20
501.20532
  0
VERTEX
  5
232
  8
Layer_0
  10
566.67236
  20
501.50763
  0
SEQEND
  0
POLYLINE
  5
234
  8
Layer_0
  62
0
  66
1
  10
0
  20
0
  30
0
  0
VERTEX
  5
234
  8
Layer_0
  10
566.67236
  20
501.50763
  0
VERTEX
  5
235
  8
Layer_0
  10
566.70288
  20
501.80994
  0
VERTEX
  5
236
  8
Layer_0
  10
566.79028
  20
502.09149
  0
VERTEX
  5
237
  8
Layer_0
  10
566.92853
  20
502.34628
  0
VERTEX
  5
238
  8
Layer_0
  10
567.11169
  20
502.5683
  0
VERTEX
  5
239
  8
Layer_0
  10
567.33374
  20
502.75146
  0
VERTEX
  5
23a
  8
Layer_0
  10
567.5885
  20
502.88974
  0
VERTEX
  5
23b
  8
Layer_0
  10
567.87006
  20
502.97714
  0
VERTEX
  5
23c
  8
Layer_0
  10
568.17236
  20
503.00763
  0
SEQEND
  0
POLYLINE
  5
23e
  8
Layer_0
  62
0
  66
1
  10
0
  20
0
  30
0
  0
VERTEX
  5
23e
  8
Layer_0
  10
568.17236
  20
503.00763
  0
VERTEX
  5
23f
  8
Layer_0
  10
568.47467
  20
502.97714
  0
VERTEX
  5
240
  8
Layer_0
  10
568.75623
  20
502.88974
  0
VERTEX
  5
241
  8
Layer_0
  10
569.01099
  20
502.75146
  0
VERTEX
  5
242
  8
Layer_0
  10
569.23303
  20
502.5683
  0
VERTEX
  5
243
  8
Layer_0
  10
569.4162
  20
502.34628
  0
VERTEX
  5
244
  8
Layer_0
  10
569.55444
  20
502.09149
  0
VERTEX
  5
245
  8
Layer_0
  10
569.64185
  20
501.80994
  0
VERTEX
  5
246
  8
Layer_0
  10
569.67236
  20
501.50763
  0
SEQEND
  0
POLYLINE
  5
248
  8
Layer_0
  62
0
  66
1
  10
0
  20
0
  30
0
  0
VERTEX
  5
248
  8
Layer_0
  10
544.92365
  20
491.25638
  0
VERTEX
  5
249
  8
Layer_0
  10
544.89319
  20
490.95407
  0
VERTEX
  5
24a
  8
Layer_0
  10
544.80579
  20
490.67249
  0
VERTEX
  5
24b
  8
Layer_0
  10
544.66748
  20
490.41769
  0
VERTEX
  5
24c
  8
Layer_0
  10
544.48431
  20
490.19571
  0
VERTEX
  5
24d
  8
Layer_0
  10
544.26233
  20
490.01257
  0
VERTEX
  5
24e
  8
Layer_0
  10
544.00757
  20
489.87427
  0
VERTEX
  5
24f
  8
Layer_0
  10
543.72595
  20
489.78683
  0
VERTEX
  5
250
  8
Layer_0
  10
543.42365
  20
489.75638
  0
SEQEND
  0
POLYLINE
  5
252
  8
Layer_0
  62
0
  66
1
  10
0
  20
0
  30
0
  0
VERTEX
  5
252
  8
Layer_0
  10
543.42365
  20
489.75638
  0
VERTEX
  5
253
  8
Layer_0
  10
543.12134
  20
489.78683
  0
VERTEX
  5
254
  8
Layer_0
  10
542.83972
  20
489.87427
  0
VERTEX
  5
255
  8
Layer_0
  10
542.58496
  20
490.01257
  0
VERTEX
  5
256
  8
Layer_0
  10
542.36298
  20
490.19571
  0
VERTEX
  5
257
  8
Layer_0
  10
542.17981
  20
490.41769
  0
VERTEX
  5
258
  8
Layer_0
  10
542.0415
  20
490.67249
  0
VERTEX
  5
259
  8
Layer_0
  10
541.9541
  20
490.95407
  0
VERTEX
  5
25a
  8
Layer_0
  10
541.92365
  20
491.25638
  0
SEQEND
  0
POLYLINE
  5
25c
  8
Layer_0
  62
0
  66
1
  10
0
  20
0
  30
0
  0
VERTEX
  5
25c
  8
Layer_0
  10
541.92365
  20
491.25638
  0
VERTEX
  5
25d
  8
Layer_0
  10
541.9541
  20
491.55869
  0
VERTEX
  5
25e
  8
Layer_0
  10
542.0415
  20
491.84027
  0
VERTEX
  5
25f
  8
Layer_0
  10
542.17981
  20
492.09506
  0
VERTEX
  5
260
  8
Layer_0
  10
542.36298
  20
492.31705
  0
VERTEX
  5
261
  8
Layer_0
  10
542.58496
  20
492.50018
  0
VERTEX
  5
262
  8
Layer_0
  10
542.83972
  20
492.63849
  0
VERTEX
  5
263
  8
Layer_0
  10
543.12134
  20
492.72592
  0
VERTEX
  5
264
  8
Layer_0
  10
543.42365
  20
492.75638
  0
SEQEND
  0
POLYLINE
  5
266
  8
Layer_0
  62
0
  66
1
  10
0
  20
0
  30
0
  0
VERTEX
  5
266
  8
Layer_0
  10
543.42365
  20
492.75638
  0
VERTEX
  5
267
  8
Layer_0
  10
543.72595
  20
492.72592
  0
VERTEX
  5
268
  8
Layer_0
  10
544.00757
  20
492.63849
  0
VERTEX
  5
269
  8
Layer_0
  10
544.26233
  20
492.50018
  0
VERTEX
  5
26a
  8
Layer_0
  10
544.48431
  20
492.31705
  0
VERTEX
  5
26b
  8
Layer_0
  10
544.66748
  20
492.09506
  0
VERTEX
  5
26c
  8
Layer_0
  10
544.80579
  20
491.84027
  0
VERTEX
  5
26d
  8
Layer_0
  10
544.89319
  20
491.55869
  0
VERTEX
  5
26e
  8
Layer_0
  10
544.92365
  20
491.25638
  0
SEQEND
  0
POLYLINE
  5
270
  8
Layer_0
  62
0
  66
1
  10
0
  20
0
  30
0
  0
VERTEX
  5
270
  8
Layer_0
  10
534.67236
  20
466.50763
  0
VERTEX
  5
271
  8
Layer_0
  10
534.64185
  20
466.20532
  0
VERTEX
  5
272
  8
Layer_0
  10
534.55444
  20
465.92377
  0
VERTEX
  5
273
  8
Layer_0
  10
534.4162
  20
465.66898
  0
VERTEX
  5
274
  8
Layer_0
  10
534.23303
  20
465.44696
  0
VERTEX
  5
275
  8
Layer_0
  10
534.01099
  20
465.26379
  0
VERTEX
  5
276
  8
Layer_0
  10
533.75623
  20
465.12552
  0
VERTEX
  5
277
  8
Layer_0
  10
533.47467
  20
465.03812
  0
VERTEX
  5
278
  8
Layer_0
  10
533.17236
  20
465.00763
  0
SEQEND
  0
POLYLINE
  5
27a
  8
Layer_0
  62
0
  66
1
  10
0
  20
0
  30
0
  0
VERTEX
  5
27a
  8
Layer_0
  10
533.17236
  20
465.00763
  0
VERTEX
  5
27b
  8
Layer_0
  10
532.87006
  20
465.03812
  0
VERTEX
  5
27c
  8
Layer_0
  10
532.5885
  20
465.12552
  0
VERTEX
  5
27d
  8
Layer_0
  10
532.33374
  20
465.26379
  0
VERTEX
  5
27e
  8
Layer_0
  10
532.11169
  20
465.44696
  0
VERTEX
  5
27f
  8
Layer_0
  10
531.92853
  20
465.66898
  0
VERTEX
  5
280
  8
Layer_0
  10
531.79028
  20
465.92377
  0
VERTEX
  5
281
  8
Layer_0
  10
531.70288
  20
466.20532
  0
VERTEX
  5
282
  8
Layer_0
  10
531.67236
  20
466.50763
  0
SEQEND
  0
POLYLINE
  5
284
  8
Layer_0
  62
0
  66
1
  10
0
  20
0
  30
0
  0
VERTEX
  5
284
  8
Layer_0
  10
531.67236
  20
466.50763
  0
VERTEX
  5
285
  8
Layer_0
  10
531.70288
  20
466.80994
  0
VERTEX
  5
286
  8
Layer_0
  10
531.79028
  20
467.09149
  0
VERTEX
  5
287
  8
Layer_0
  10
531.92853
  20
467.34628
  0
VERTEX
  5
288
  8
Layer_0
  10
532.11169
  20
467.5683
  0
VERTEX
  5
289
  8
Layer_0
  10
532.33374
  20
467.75146
  0
VERTEX
  5
28a
  8
Layer_0
  10
532.5885
  20
467.88974
  0
VERTEX
  5
28b
  8
Layer_0
  10
532.87006
  20
467.97714
  0
VERTEX
  5
28c
  8
Layer_0
  10
533.17236
  20
468.00763
  0
SEQEND
  0
POLYLINE
  5
28e
  8
Layer_0
  62
0
  66
1
  10
0
  20
0
  30
0
  0
VERTEX
  5
28e
  8
Layer_0
  10
533.17236
  20
468.00763
  0
VERTEX
  5
28f
  8
Layer_0
  10
533.47467
  20
467.97714
  0
VERTEX
  5
290
  8
Layer_0
  10
533.75623
  20
467.88974
  0
VERTEX
  5
291
  8
Layer_0
  10
534.01099
  20
467.75146
  0
VERTEX
  5
292
  8
Layer_0
  10
534.23303
  20
467.5683
  0
VERTEX
  5
293
  8
Layer_0
  10
534.4162
  20
467.34628
  0
VERTEX
  5
294
  8
Layer_0
  10
534.55444
  20
467.09149
  0
VERTEX
  5
295
  8
Layer_0
  10
534.64185
  20
466.80994
  0
VERTEX
  5
296
  8
Layer_0
  10
534.67236
  20
466.50763
  0
SEQEND
  0
POLYLINE
  5
298
  8
Layer_0
  62
0
  66
1
  10
0
  20
0
  30
0
  0
VERTEX
  5
298
  8
Layer_0
  10
544.92365
  20
441.75888
  0
VERTEX
  5
299
  8
Layer_0
  10
544.89319
  20
441.45657
  0
VERTEX
  5
29a
  8
Layer_0
  10
544.80579
  20
441.17499
  0
VERTEX
  5
29b
  8
Layer_0
  10
544.66748
  20
440.9202
  0
VERTEX
  5
29c
  8
Layer_0
  10
544.48431
  20
440.69821
  0
VERTEX
  5
29d
  8
Layer_0
  10
544.26233
  20
440.51508
  0
VERTEX
  5
29e
  8
Layer_0
  10
544.00757
  20
440.37677
  0
VERTEX
  5
29f
  8
Layer_0
  10
543.72595
  20
440.28934
  0
VERTEX
  5
2a0
  8
Layer_0
  10
543.42365
  20
440.25888
  0
SEQEND
  0
POLYLINE
  5
2a2
  8
Layer_0
  62
0
  66
1
  10
0
  20
0
  30
0
  0
VERTEX
  5
2a2
  8
Layer_0
  10
543.42365
  20
440.25888
  0
VERTEX
  5
2a3
  8
Layer_0
  10
543.12134
  20
440.28934
  0
VERTEX
  5
2a4
  8
Layer_0
  10
542.83972
  20
440.37677
  0
VERTEX
  5
2a5
  8
Layer_0
  10
542.58496
  20
440.51508
  0
VERTEX
  5
2a6
  8
Layer_0
  10
542.36298
  20
440.69821
  0
VERTEX
  5
2a7
  8
Layer_0
  10
542.17981
  20
440.9202
  0
VERTEX
  5
2a8
  8
Layer_0
  10
542.0415
  20
441.17499
  0
VERTEX
  5
2a9
  8
Layer_0
  10
541.9541
  20
441.45657
  0
VERTEX
  5
2aa
  8
Layer_0
  10
541.92365
  20
441.75888
  0
SEQEND
  0
POLYLINE
  5
2ac
  8
Layer_0
  62
0
  66
1
  10
0
  20
0
  30
0
  0
VERTEX
  5
2ac
  8
Layer_0
  10
541.92365
  20
441.75888
  0
VERTEX
  5
2ad
  8
Layer_0
  10
541.9541
  20
442.06119
  0
VERTEX
  5
2ae
  8
Layer_0
  10
542.0415
  20
442.34277
  0
VERTEX
  5
2af
  8
Layer_0
  10
542.17981
  20
442.59756
  0
VERTEX
  5
2b0
  8
Layer_0
  10
542.36298
  20
442.81955
  0
VERTEX
  5
2b1
  8
Layer_0
  10
542.58496
  20
443.00269
  0
VERTEX
  5
2b2
  8
Layer_0
  10
542.83972
  20
443.14099
  0
VERTEX
  5
2b3
  8
Layer_0
  10
543.12134
  20
443.22842
  0
VERTEX
  5
2b4
  8
Layer_0
  10
543.42365
  20
443.25888
  0
SEQEND
  0
POLYLINE
  5
2b6
  8
Layer_0
  62
0
  66
1
  10
0
  20
0
  30
0
  0
VERTEX
  5
2b6
  8
Layer_0
  10
543.42365
  20
443.25888
  0
VERTEX
  5
2b7
  8
Layer_0
  10
543.72595
  20
443.22842
  0
VERTEX
  5
2b8
  8
Layer_0
  10
544.00757
  20
443.14099
  0
VERTEX
  5
2b9
  8
Layer_0
  10
544.26233
  20
443.00269
  0
VERTEX
  5
2ba
  8
Layer_0
  10
544.48431
  20
442.81955
  0
VERTEX
  5
2bb
  8
Layer_0
  10
544.66748
  20
442.59756
  0
VERTEX
  5
2bc
  8
Layer_0
  10
544.80579
  20
442.34277
  0
VERTEX
  5
2bd
  8
Layer_0
  10
544.89319
  20
442.06119
  0
VERTEX
  5
2be
  8
Layer_0
  10
544.92365
  20
441.75888
  0
SEQEND
  0
POLYLINE
  5
2c0
  8
Layer_0
  62
0
  66
1
  10
0
  20
0
  30
0
  0
VERTEX
  5
2c0
  8
Layer_0
  10
501.17236
  20
335.25763
  0
VERTEX
  5
2c1
  8
Layer_0
  10
501.14188
  20
334.95532
  0
VERTEX
  5
2c2
  8
Layer_0
  10
501.05447
  20
334.67377
  0
VERTEX
  5
2c3
  8
Layer_0
  10
500.9162
  20
334.41898
  0
VERTEX
  5
2c4
  8
Layer_0
  10
500.73303
  20
334.19696
  0
VERTEX
  5
2c5
  8
Layer_0
  10
500.51102
  20
334.01379
  0
VERTEX
  5
2c6
  8
Layer_0
  10
500.25623
  20
333.87552
  0
VERTEX
  5
2c7
  8
Layer_0
  10
499.97467
  20
333.78812
  0
VERTEX
  5
2c8
  8
Layer_0
  10
499.67236
  20
333.75763
  0
SEQEND
  0
POLYLINE
  5
2ca
  8
Layer_0
  62
0
  66
1
  10
0
  20
0
  30
0
  0
VERTEX
  5
2ca
  8
Layer_0
  10
499.67236
  20
333.75763
  0
VERTEX
  5
2cb
  8
Layer_0
  10
499.37006
  20
333.78812
  0
VERTEX
  5
2cc
  8
Layer_0
  10
499.0885
  20
333.87552
  0
VERTEX
  5
2cd
  8
Layer_0
  10
498.83371
  20
334.01379
  0
VERTEX
  5
2ce
  8
Layer_0
  10
498.61169
  20
334.19696
  0
VERTEX
  5
2cf
  8
Layer_0
  10
498.42853
  20
334.41898
  0
VERTEX
  5
2d0
  8
Layer_0
  10
498.29025
  20
334.67377
  0
VERTEX
  5
2d1
  8
Layer_0
  10
498.20285
  20
334.95532
  0
VERTEX
  5
2d2
  8
Layer_0
  10
498.17236
  20
335.25763
  0
SEQEND
  0
POLYLINE
  5
2d4
  8
Layer_0
  62
0
  66
1
  10
0
  20
0
  30
0
  0
VERTEX
  5
2d4
  8
Layer_0
  10
498.17236
  20
335.25763
  0
VERTEX
  5
2d5
  8
Layer_0
  10
498.20285
  20
335.55994
  0
VERTEX
  5
2d6
  8
Layer_0
  10
498.29025
  20
335.84149
  0
VERTEX
  5
2d7
  8
Layer_0
  10
498.42853
  20
336.09628
  0
VERTEX
  5
2d8
  8
Layer_0
  10
498.61169
  20
336.3183
  0
VERTEX
  5
2d9
  8
Layer_0
  10
498.83371
  20
336.50146
  0
VERTEX
  5
2da
  8
Layer_0
  10
499.0885
  20
336.63974
  0
VERTEX
  5
2db
  8
Layer_0
  10
499.37006
  20
336.72714
  0
VERTEX
  5
2dc
  8
Layer_0
  10
499.67236
  20
336.75763
  0
SEQEND
  0
POLYLINE
  5
2de
  8
Layer_0
  62
0
  66
1
  10
0
  20
0
  30
0
  0
VERTEX
  5
2de
  8
Layer_0
  10
499.67236
  20
336.75763
  0
VERTEX
  5
2df
  8
Layer_0
  10
499.97467
  20
336.72714
  0
VERTEX
  5
2e0
  8
Layer_0
  10
500.25623
  20
336.63974
  0
VERTEX
  5
2e1
  8
Layer_0
  10
500.51102
  20
336.50146
  0
VERTEX
  5
2e2
  8
Layer_0
  10
500.73303
  20
336.3183
  0
VERTEX
  5
2e3
  8
Layer_0
  10
500.9162
  20
336.09628
  0
VERTEX
  5
2e4
  8
Layer_0
  10
501.05447
  20
335.84149
  0
VERTEX
  5
2e5
  8
Layer_0
  10
501.14188
  20
335.55994
  0
VERTEX
  5
2e6
  8
Layer_0
  10
501.17236
  20
335.25763
  0
SEQEND
  0
POLYLINE
  5
2e8
  8
Layer_0
  62
0
  66
1
  10
0
  20
0
  30
0
  0
VERTEX
  5
2e8
  8
Layer_0
  10
501.17236
  20
505.25763
  0
VERTEX
  5
2e9
  8
Layer_0
  10
501.14188
  20
504.95532
  0
VERTEX
  5
2ea
  8
Layer_0
  10
501.05447
  20
504.67377
  0
VERTEX
  5
2eb
  8
Layer_0
  10
500.9162
  20
504.41898
  0
VERTEX
  5
2ec
  8
Layer_0
  10
500.73303
  20
504.19696
  0
VERTEX
  5
2ed
  8
Layer_0
  10
500.51102
  20
504.01379
  0
VERTEX
  5
2ee
  8
Layer_0
  10
500.25623
  20
503.87552
  0
VERTEX
  5
2ef
  8
Layer_0
  10
499.97467
  20
503.78812
  0
VERTEX
  5
2f0
  8
Layer_0
  10
499.67236
  20
503.75763
  0
SEQEND
  0
POLYLINE
  5
2f2
  8
Layer_0
  62
0
  66
1
  10
0
  20
0
  30
0
  0
VERTEX
  5
2f2
  8
Layer_0
  10
499.67236
  20
503.75763
  0
VERTEX
  5
2f3
  8
Layer_0
  10
499.37006
  20
503.78812
  0
VERTEX
  5
2f4
  8
Layer_0
  10
499.0885
  20
503.87552
  0
VERTEX
  5
2f5
  8
Layer_0
  10
498.83371
  20
504.01379
  0
VERTEX
  5
2f6
  8
Layer_0
  10
498.61169
  20
504.19696
  0
VERTEX
  5
2f7
  8
Layer_0
  10
498.42853
  20
504.41898
  0
VERTEX
  5
2f8
  8
Layer_0
  10
498.29025
  20
504.67377
  0
VERTEX
  5
2f9
  8
Layer_0
  10
498.20285
  20
504.95532
  0
VERTEX
  5
2fa
  8
Layer_0
  10
498.17236
  20
505.25763
  0
SEQEND
  0
POLYLINE
  5
2fc
  8
Layer_0
  62
0
  66
1
  10
0
  20
0
  30
0
  0
VERTEX
  5
2fc
  8
Layer_0
  10
498.17236
  20
505.25763
  0
VERTEX
  5
2fd
  8
Layer_0
  10
498.20285
  20
505.55994
  0
VERTEX
  5
2fe
  8
Layer_0
  10
498.29025
  20
505.84149
  0
VERTEX
  5
2ff
  8
Layer_0
  10
498.42853
  20
506.09628
  0
VERTEX
  5
300
  8
Layer_0
  10
498.61169
  20
506.3183
  0
VERTEX
  5
301
  8
Layer_0
  10
498.83371
  20
506.50146
  0
VERTEX
  5
302
  8
Layer_0
  10
499.0885
  20
506.63974
  0
VERTEX
  5
303
  8
Layer_0
  10
499.37006
  20
506.72714
  0
VERTEX
  5
304
  8
Layer_0
  10
499.67236
  20
506.75763
  0
SEQEND
  0
POLYLINE
  5
306
  8
Layer_0
  62
0
  66
1
  10
0
  20
0
  30
0
  0
VERTEX
  5
306
  8
Layer_0
  10
499.67236
  20
506.75763
  0
VERTEX
  5
307
  8
Layer_0
  10
499.97467
  20
506.72714
  0
VERTEX
  5
308
  8
Layer_0
  10
500.25623
  20
506.63974
  0
VERTEX
  5
309
  8
Layer_0
  10
500.51102
  20
506.50146
  0
VERTEX
  5
30a
  8
Layer_0
  10
500.73303
  20
506.3183
  0
VERTEX
  5
30b
  8
Layer_0
  10
500.9162
  20
506.09628
  0
VERTEX
  5
30c
  8
Layer_0
  10
501.05447
  20
505.84149
  0
VERTEX
  5
30d
  8
Layer_0
  10
501.14188
  20
505.55994
  0
VERTEX
  5
30e
  8
Layer_0
  10
501.17236
  20
505.25763
  0
SEQEND
  0
POLYLINE
  5
310
  8
Layer_0
  62
0
  66
1
  10
0
  20
0
  30
0
  0
VERTEX
  5
310
  8
Layer_0
  10
528.17236
  20
481.50763
  0
VERTEX
  5
311
  8
Layer_0
  10
522.17236
  20
481.50763
  0
SEQEND
  0
POLYLINE
  5
313
  8
Layer_0
  62
0
  66
1
  10
0
  20
0
  30
0
  0
VERTEX
  5
313
  8
Layer_0
  10
522.17236
  20
451.58264
  0
VERTEX
  5
314
  8
Layer_0
  10
528.17236
  20
451.58264
  0
SEQEND
  0
POLYLINE
  5
316
  8
Layer_0
  62
0
  66
1
  10
0
  20
0
  30
0
  0
VERTEX
  5
316
  8
Layer_0
  10
528.17236
  20
451.58264
  0
VERTEX
  5
317
  8
Layer_0
  10
528.17236
  20
481.43262
  0
SEQEND
  0
POLYLINE
  5
319
  8
Layer_0
  62
0
  66
1
  10
0
  20
0
  30
0
  0
VERTEX
  5
319
  8
Layer_0
  10
528.17236
  20
481.43262
  0
VERTEX
  5
31a
  8
Layer_0
  10
522.17236
  20
481.43262
  0
SEQEND
  0
POLYLINE
  5
31c
  8
Layer_0
  62
0
  66
1
  10
0
  20
0
  30
0
  0
VERTEX
  5
31c
  8
Layer_0
  10
522.17236
  20
481.43262
  0
VERTEX
  5
31d
  8
Layer_0
  10
522.17236
  20
451.58264
  0
SEQEND
  0
POLYLINE
  5
31f
  8
Layer_0
  62
0
  66
1
  10
0
  20
0
  30
0
  0
VERTEX
  5
31f
  8
Layer_0
  10
522.17236
  20
388.93262
  0
VERTEX
  5
320
  8
Layer_0
  10
528.17236
  20
388.93262
  0
SEQEND
  0
POLYLINE
  5
322
  8
Layer_0
  62
0
  66
1
  10
0
  20
0
  30
0
  0
VERTEX
  5
322
  8
Layer_0
  10
528.17236
  20
388.93262
  0
VERTEX
  5
323
  8
Layer_0
  10
528.17236
  20
359.08264
  0
SEQEND
  0
POLYLINE
  5
325
  8
Layer_0
  62
0
  66
1
  10
0
  20
0
  30
0
  0
VERTEX
  5
325
  8
Layer_0
  10
528.17236
  20
359.08264
  0
VERTEX
  5
326
  8
Layer_0
  10
522.17236
  20
359.08264
  0
SEQEND
  0
POLYLINE
  5
328
  8
Layer_0
  62
0
  66
1
  10
0
  20
0
  30
0
  0
VERTEX
  5
328
  8
Layer_0
  10
522.17236
  20
359.08264
  0
VERTEX
  5
329
  8
Layer_0
  10
522.17236
  20
388.93262
  0
SEQEND
  0
POLYLINE
  5
32b
  8
Layer_0
  62
0
  66
1
  10
0
  20
0
  30
0
  0
VERTEX
  5
32b
  8
Layer_0
  10
522.17236
  20
518.75763
  0
VERTEX
  5
32c
  8
Layer_0
  10
553.24738
  20
518.75763
  0
SEQEND
  0
POLYLINE
  5
32e
  8
Layer_0
  62
0
  66
1
  10
0
  20
0
  30
0
  0
VERTEX
  5
32e
  8
Layer_0
  10
553.24738
  20
518.75763
  0
VERTEX
  5
32f
  8
Layer_0
  10
553.24738
  20
512.75763
  0
SEQEND
  0
POLYLINE
  5
331
  8
Layer_0
  62
0
  66
1
  10
0
  20
0
  30
0
  0
VERTEX
  5
331
  8
Layer_0
  10
553.24738
  20
512.75763
  0
VERTEX
  5
332
  8
Layer_0
  10
583.09735
  20
512.75763
  0
SEQEND
  0
POLYLINE
  5
334
  8
Layer_0
  62
0
  66
1
  10
0
  20
0
  30
0
  0
VERTEX
  5
334
  8
Layer_0
  10
583.09735
  20
512.75763
  0
VERTEX
  5
335
  8
Layer_0
  10
583.09735
  20
518.75763
  0
SEQEND
  0
POLYLINE
  5
337
  8
Layer_0
  62
0
  66
1
  10
0
  20
0
  30
0
  0
VERTEX
  5
337
  8
Layer_0
  10
583.09735
  20
518.75763
  0
VERTEX
  5
338
  8
Layer_0
  10
614.17236
  20
518.75763
  0
SEQEND
  0
POLYLINE
  5
33a
  8
Layer_0
  62
0
  66
1
  10
0
  20
0
  30
0
  0
VERTEX
  5
33a
  8
Layer_0
  10
614.17236
  20
518.75763
  0
VERTEX
  5
33b
  8
Layer_0
  10
614.17236
  20
481.43262
  0
SEQEND
  0
POLYLINE
  5
33d
  8
Layer_0
  62
0
  66
1
  10
0
  20
0
  30
0
  0
VERTEX
  5
33d
  8
Layer_0
  10
614.17236
  20
481.43262
  0
VERTEX
  5
33e
  8
Layer_0
  10
608.17236
  20
481.43262
  0
SEQEND
  0
POLYLINE
  5
340
  8
Layer_0
  62
0
  66
1
  10
0
  20
0
  30
0
  0
VERTEX
  5
340
  8
Layer_0
  10
608.17236
  20
481.43262
  0
VERTEX
  5
341
  8
Layer_0
  10
608.17236
  20
451.58264
  0
SEQEND
  0
POLYLINE
  5
343
  8
Layer_0
  62
0
  66
1
  10
0
  20
0
  30
0
  0
VERTEX
  5
343
  8
Layer_0
  10
608.17236
  20
451.58264
  0
VERTEX
  5
344
  8
Layer_0
  10
614.17236
  20
451.58264
  0
SEQEND
  0
POLYLINE
  5
346
  8
Layer_0
  62
0
  66
1
  10
0
  20
0
  30
0
  0
VERTEX
  5
346
  8
Layer_0
  10
614.17236
  20
451.58264
  0
VERTEX
  5
347
  8
Layer_0
  10
614.17236
  20
388.93262
  0
SEQEND
  0
POLYLINE
  5
349
  8
Layer_0
  62
0
  66
1
  10
0
  20
0
  30
0
  0
VERTEX
  5
349
  8
Layer_0
  10
614.17236
  20
388.93262
  0
VERTEX
  5
34a
  8
Layer_0
  10
608.17236
  20
388.93262
  0
SEQEND
  0
POLYLINE
  5
34c
  8
Layer_0
  62
0
  66
1
  10
0
  20
0
  30
0
  0
VERTEX
  5
34c
  8
Layer_0
  10
608.17236
  20
388.93262
  0
VERTEX
  5
34d
  8
Layer_0
  10
608.17236
  20
359.08264
  0
SEQEND
  0
POLYLINE
  5
34f
  8
Layer_0
  62
0
  66
1
  10
0
  20
0
  30
0
  0
VERTEX
  5
34f
  8
Layer_0
  10
608.17236
  20
359.08264
  0
VERTEX
  5
350
  8
Layer_0
  10
614.17236
  20
359.08264
  0
SEQEND
  0
POLYLINE
  5
352
  8
Layer_0
  62
0
  66
1
  10
0
  20
0
  30
0
  0
VERTEX
  5
352
  8
Layer_0
  10
614.17236
  20
359.08264
  0
VERTEX
  5
353
  8
Layer_0
  10
614.17236
  20
321.75763
  0
SEQEND
  0
POLYLINE
  5
355
  8
Layer_0
  62
0
  66
1
  10
0
  20
0
  30
0
  0
VERTEX
  5
355
  8
Layer_0
  10
614.17236
  20
321.75763
  0
VERTEX
  5
356
  8
Layer_0
  10
583.09735
  20
321.75763
  0
SEQEND
  0
POLYLINE
  5
358
  8
Layer_0
  62
0
  66
1
  10
0
  20
0
  30
0
  0
VERTEX
  5
358
  8
Layer_0
  10
583.09735
  20
321.75763
  0
VERTEX
  5
359
  8
Layer_0
  10
583.09735
  20
327.75763
  0
SEQEND
  0
POLYLINE
  5
35b
  8
Layer_0
  62
0
  66
1
  10
0
  20
0
  30
0
  0
VERTEX
  5
35b
  8
Layer_0
  10
583.09735
  20
327.75763
  0
VERTEX
  5
35c
  8
Layer_0
  10
553.24738
  20
327.75763
  0
SEQEND
  0
POLYLINE
  5
35e
  8
Layer_0
  62
0
  66
1
  10
0
  20
0
  30
0
  0
VERTEX
  5
35e
  8
Layer_0
  10
553.24738
  20
327.75763
  0
VERTEX
  5
35f
  8
Layer_0
  10
553.24738
  20
321.75763
  0
SEQEND
  0
POLYLINE
  5
361
  8
Layer_0
  62
0
  66
1
  10
0
  20
0
  30
0
  0
VERTEX
  5
361
  8
Layer_0
  10
553.24738
  20
321.75763
  0
VERTEX
  5
362
  8
Layer_0
  10
522.17236
  20
321.75763
  0
SEQEND
  0
POLYLINE
  5
364
  8
Layer_0
  62
0
  66
1
  10
0
  20
0
  30
0
  0
VERTEX
  5
364
  8
Layer_0
  10
522.17236
  20
321.75763
  0
VERTEX
  5
365
  8
Layer_0
  10
511.92236
  20
321.75763
  0
SEQEND
  0
POLYLINE
  5
367
  8
Layer_0
  62
0
  66
1
  10
0
  20
0
  30
0
  0
VERTEX
  5
367
  8
Layer_0
  10
511.92236
  20
321.75763
  0
VERTEX
  5
368
  8
Layer_0
  10
511.92236
  20
327.75763
  0
SEQEND
  0
POLYLINE
  5
36a
  8
Layer_0
  62
0
  66
1
  10
0
  20
0
  30
0
  0
VERTEX
  5
36a
  8
Layer_0
  10
511.92236
  20
327.75763
  0
VERTEX
  5
36b
  8
Layer_0
  10
502.42236
  20
327.75763
  0
SEQEND
  0
POLYLINE
  5
36d
  8
Layer_0
  62
0
  66
1
  10
0
  20
0
  30
0
  0
VERTEX
  5
36d
  8
Layer_0
  10
502.42236
  20
327.75763
  0
VERTEX
  5
36e
  8
Layer_0
  10
502.42236
  20
321.75763
  0
SEQEND
  0
POLYLINE
  5
370
  8
Layer_0
  62
0
  66
1
  10
0
  20
0
  30
0
  0
VERTEX
  5
370
  8
Layer_0
  10
502.42236
  20
321.75763
  0
VERTEX
  5
371
  8
Layer_0
  10
486.17236
  20
321.75763
  0
SEQEND
  0
POLYLINE
  5
373
  8
Layer_0
  62
0
  66
1
  10
0
  20
0
  30
0
  0
VERTEX
  5
373
  8
Layer_0
  10
486.17236
  20
321.75763
  0
VERTEX
  5
374
  8
Layer_0
  10
486.17236
  20
359.08264
  0
SEQEND
  0
POLYLINE
  5
376
  8
Layer_0
  62
0
  66
1
  10
0
  20
0
  30
0
  0
VERTEX
  5
376
  8
Layer_0
  10
486.17236
  20
359.08264
  0
VERTEX
  5
377
  8
Layer_0
  10
492.17236
  20
359.08264
  0
SEQEND
  0
POLYLINE
  5
379
  8
Layer_0
  62
0
  66
1
  10
0
  20
0
  30
0
  0
VERTEX
  5
379
  8
Layer_0
  10
492.17236
  20
359.08264
  0
VERTEX
  5
37a
  8
Layer_0
  10
492.17236
  20
388.93262
  0
SEQEND
  0
POLYLINE
  5
37c
  8
Layer_0
  62
0
  66
1
  10
0
  20
0
  30
0
  0
VERTEX
  5
37c
  8
Layer_0
  10
492.17236
  20
388.93262
  0
VERTEX
  5
37d
  8
Layer_0
  10
486.17236
  20
388.93262
  0
SEQEND
  0
POLYLINE
  5
37f
  8
Layer_0
  62
0
  66
1
  10
0
  20
0
  30
0
  0
VERTEX
  5
37f
  8
Layer_0
  10
486.17236
  20
388.93262
  0
VERTEX
  5
380
  8
Layer_0
  10
486.17236
  20
451.58264
  0
SEQEND
  0
POLYLINE
  5
382
  8
Layer_0
  62
0
  66
1
  10
0
  20
0
  30
0
  0
VERTEX
  5
382
  8
Layer_0
  10
486.17236
  20
451.58264
  0
VERTEX
  5
383
  8
Layer_0
  10
492.17236
  20
451.58264
  0
SEQEND
  0
POLYLINE
  5
385
  8
Layer_0
  62
0
  66
1
  10
0
  20
0
  30
0
  0
VERTEX
  5
385
  8
Layer_0
  10
492.17236
  20
451.58264
  0
VERTEX
  5
386
  8
Layer_0
  10
492.17236
  20
481.43262
  0
SEQEND
  0
POLYLINE
  5
388
  8
Layer_0
  62
0
  66
1
  10
0
  20
0
  30
0
  0
VERTEX
  5
388
  8
Layer_0
  10
492.17236
  20
481.43262
  0
VERTEX
  5
389
  8
Layer_0
  10
486.17236
  20
481.43262
  0
SEQEND
  0
POLYLINE
  5
38b
  8
Layer_0
  62
0
  66
1
  10
0
  20
0
  30
0
  0
VERTEX
  5
38b
  8
Layer_0
  10
486.17236
  20
481.43262
  0
VERTEX
  5
38c
  8
Layer_0
  10
486.17236
  20
518.75763
  0
SEQEND
  0
POLYLINE
  5
38e
  8
Layer_0
  62
0
  66
1
  10
0
  20
0
  30
0
  0
VERTEX
  5
38e
  8
Layer_0
  10
486.17236
  20
518.75763
  0
VERTEX
  5
38f
  8
Layer_0
  10
502.42236
  20
518.75763
  0
SEQEND
  0
POLYLINE
  5
391
  8
Layer_0
  62
0
  66
1
  10
0
  20
0
  30
0
  0
VERTEX
  5
391
  8
Layer_0
  10
502.42236
  20
518.75763
  0
VERTEX
  5
392
  8
Layer_0
  10
502.42236
  20
512.75763
  0
SEQEND
  0
POLYLINE
  5
394
  8
Layer_0
  62
0
  66
1
  10
0
  20
0
  30
0
  0
VERTEX
  5
394
  8
Layer_0
  10
502.42236
  20
512.75763
  0
VERTEX
  5
395
  8
Layer_0
  10
511.92236
  20
512.75763
  0
SEQEND
  0
POLYLINE
  5
397
  8
Layer_0
  62
0
  66
1
  10
0
  20
0
  30
0
  0
VERTEX
  5
397
  8
Layer_0
  10
511.92236
  20
512.75763
  0
VERTEX
  5
398
  8
Layer_0
  10
511.92236
  20
518.75763
  0
SEQEND
  0
POLYLINE
  5
39a
  8
Layer_0
  62
0
  66
1
  10
0
  20
0
  30
0
  0
VERTEX
  5
39a
  8
Layer_0
  10
511.92236
  20
518.75763
  0
VERTEX
  5
39b
  8
Layer_0
  10
522.17236
  20
518.75763
  0
SEQEND
  0
ENDSEC
  0
EOF
