  0
SECTION
  2
HEADER
  9
$ACADVER
  1
AC1009
  0
ENDSEC
  0
SECTION
  2
ENTITIES
  0
CIRCLE
  5
90
  8
Layer_0
  62
0
  10
506.68066
  20
471.24146
  30
0
  40
1.5
  0
CIRCLE
  5
90
  8
Layer_0
  62
0
  10
571.68066
  20
471.24146
  30
0
  40
1.5
  0
CIRCLE
  5
90
  8
Layer_0
  62
0
  10
506.68066
  20
386.24146
  30
0
  40
1.5
  0
CIRCLE
  5
90
  8
Layer_0
  62
0
  10
571.68066
  20
386.24146
  30
0
  40
1.5
  0
CIRCLE
  5
90
  8
Layer_0
  62
0
  10
607.68066
  20
471.24146
  30
0
  40
1.5
  0
CIRCLE
  5
90
  8
Layer_0
  62
0
  10
607.68066
  20
386.24146
  30
0
  40
1.5
  0
POLYLINE
  5
90
  8
Layer_0
  62
0
  70
1
  66
1
  10
0
  20
0
  30
0
  0
VERTEX
  5
90
  8
Layer_0
  10
493.18066
  20
478.74146
  0
VERTEX
  5
91
  8
Layer_0
  10
493.18066
  20
443.66644
  0
VERTEX
  5
92
  8
Layer_0
  10
499.18066
  20
443.66644
  0
VERTEX
  5
93
  8
Layer_0
  10
499.18066
  20
413.81647
  0
VERTEX
  5
94
  8
Layer_0
  10
493.18066
  20
413.81647
  0
VERTEX
  5
95
  8
Layer_0
  10
493.18066
  20
378.74146
  0
VERTEX
  5
96
  8
Layer_0
  10
524.18066
  20
378.74146
  0
VERTEX
  5
97
  8
Layer_0
  10
524.18066
  20
372.74146
  0
VERTEX
  5
98
  8
Layer_0
  10
554.18066
  20
372.74146
  0
VERTEX
  5
99
  8
Layer_0
  10
554.18066
  20
378.74146
  0
VERTEX
  5
9a
  8
Layer_0
  10
595.18066
  20
378.74146
  0
VERTEX
  5
9b
  8
Layer_0
  10
595.18066
  20
372.74146
  0
VERTEX
  5
9c
  8
Layer_0
  10
605.18066
  20
372.74146
  0
VERTEX
  5
9d
  8
Layer_0
  10
605.18066
  20
378.74146
  0
VERTEX
  5
9e
  8
Layer_0
  10
621.18066
  20
378.74146
  0
VERTEX
  5
9f
  8
Layer_0
  10
621.18066
  20
413.81647
  0
VERTEX
  5
a0
  8
Layer_0
  10
615.18066
  20
413.81647
  0
VERTEX
  5
a1
  8
Layer_0
  10
615.18066
  20
443.66644
  0
VERTEX
  5
a2
  8
Layer_0
  10
621.18066
  20
443.66644
  0
VERTEX
  5
a3
  8
Layer_0
  10
621.18066
  20
478.74146
  0
VERTEX
  5
a4
  8
Layer_0
  10
605.18066
  20
478.74146
  0
VERTEX
  5
a5
  8
Layer_0
  10
605.18066
  20
484.74146
  0
VERTEX
  5
a6
  8
Layer_0
  10
595.18066
  20
484.74146
  0
VERTEX
  5
a7
  8
Layer_0
  10
595.18066
  20
478.74146
  0
VERTEX
  5
a8
  8
Layer_0
  10
554.18066
  20
478.74146
  0
VERTEX
  5
a9
  8
Layer_0
  10
554.18066
  20
484.74146
  0
VERTEX
  5
aa
  8
Layer_0
  10
524.18066
  20
484.74146
  0
VERTEX
  5
ab
  8
Layer_0
  10
524.18066
  20
478.74146
  0
VERTEX
  5
ac
  8
Layer_0
  10
493.18066
  20
478.74146
  0
SEQEND
  0
POLYLINE
  5
ae
  8
Layer_0
  62
0
  66
1
  10
0
  20
0
  30
0
  0
VERTEX
  5
ae
  8
Layer_0
  10
585.18066
  20
443.74146
  0
VERTEX
  5
af
  8
Layer_0
  10
585.18066
  20
413.81647
  0
SEQEND
  0
POLYLINE
  5
b1
  8
Layer_0
  62
0
  66
1
  10
0
  20
0
  30
0
  0
VERTEX
  5
b1
  8
Layer_0
  10
585.18066
  20
443.66644
  0
VERTEX
  5
b2
  8
Layer_0
  10
579.18066
  20
443.66644
  0
SEQEND
  0
POLYLINE
  5
b4
  8
Layer_0
  62
0
  66
1
  10
0
  20
0
  30
0
  0
VERTEX
  5
b4
  8
Layer_0
  10
579.18066
  20
443.66644
  0
VERTEX
  5
b5
  8
Layer_0
  10
579.18066
  20
413.81647
  0
SEQEND
  0
POLYLINE
  5
b7
  8
Layer_0
  62
0
  66
1
  10
0
  20
0
  30
0
  0
VERTEX
  5
b7
  8
Layer_0
  10
579.18066
  20
413.81647
  0
VERTEX
  5
b8
  8
Layer_0
  10
585.18066
  20
413.81647
  0
SEQEND
  0
ENDSEC
  0
EOF
