  0
SECTION
  2
HEADER
  9
$ACADVER
  1
AC1009
  0
ENDSEC
  0
SECTION
  2
ENTITIES
  0
CIRCLE
  5
90
  8
Layer_0
  62
0
  10
572.42126
  20
479.02673
  30
0
  40
29.75
  0
CIRCLE
  5
90
  8
Layer_0
  62
0
  10
534.92126
  20
521.52673
  30
0
  40
1.5
  0
CIRCLE
  5
90
  8
Layer_0
  62
0
  10
704.92126
  20
521.52673
  30
0
  40
1.5
  0
CIRCLE
  5
90
  8
Layer_0
  62
0
  10
534.92126
  20
436.52673
  30
0
  40
1.5
  0
CIRCLE
  5
90
  8
Layer_0
  62
0
  10
704.92126
  20
436.52673
  30
0
  40
1.5
  0
CIRCLE
  5
90
  8
Layer_0
  62
0
  10
672.42126
  20
512.02673
  30
0
  40
1.5
  0
CIRCLE
  5
90
  8
Layer_0
  62
0
  10
572.42126
  20
516.22675
  30
0
  40
1.5
  0
CIRCLE
  5
90
  8
Layer_0
  62
0
  10
535.22125
  20
479.02673
  30
0
  40
1.5
  0
CIRCLE
  5
90
  8
Layer_0
  62
0
  10
572.42126
  20
441.82672
  30
0
  40
1.5
  0
CIRCLE
  5
90
  8
Layer_0
  62
0
  10
609.62128
  20
479.02673
  30
0
  40
1.5
  0
POLYLINE
  5
90
  8
Layer_0
  62
0
  70
1
  66
1
  10
0
  20
0
  30
0
  0
VERTEX
  5
90
  8
Layer_0
  10
558.67126
  20
535.02673
  0
VERTEX
  5
91
  8
Layer_0
  10
558.67126
  20
529.02673
  0
VERTEX
  5
92
  8
Layer_0
  10
527.42126
  20
529.02673
  0
VERTEX
  5
93
  8
Layer_0
  10
527.42126
  20
494.02673
  0
VERTEX
  5
94
  8
Layer_0
  10
521.42126
  20
494.02673
  0
VERTEX
  5
95
  8
Layer_0
  10
521.42126
  20
464.02673
  0
VERTEX
  5
96
  8
Layer_0
  10
527.42126
  20
464.02673
  0
VERTEX
  5
97
  8
Layer_0
  10
527.42126
  20
429.02673
  0
VERTEX
  5
98
  8
Layer_0
  10
558.67126
  20
429.02673
  0
VERTEX
  5
99
  8
Layer_0
  10
558.67126
  20
423.02673
  0
VERTEX
  5
9a
  8
Layer_0
  10
588.67126
  20
423.02673
  0
VERTEX
  5
9b
  8
Layer_0
  10
588.67126
  20
429.02673
  0
VERTEX
  5
9c
  8
Layer_0
  10
651.17126
  20
429.02673
  0
VERTEX
  5
9d
  8
Layer_0
  10
651.17126
  20
423.02673
  0
VERTEX
  5
9e
  8
Layer_0
  10
681.17126
  20
423.02673
  0
VERTEX
  5
9f
  8
Layer_0
  10
681.17126
  20
429.02673
  0
VERTEX
  5
a0
  8
Layer_0
  10
712.42126
  20
429.02673
  0
VERTEX
  5
a1
  8
Layer_0
  10
712.42126
  20
464.02673
  0
VERTEX
  5
a2
  8
Layer_0
  10
718.42126
  20
464.02673
  0
VERTEX
  5
a3
  8
Layer_0
  10
718.42126
  20
494.02673
  0
VERTEX
  5
a4
  8
Layer_0
  10
712.42126
  20
494.02673
  0
VERTEX
  5
a5
  8
Layer_0
  10
712.42126
  20
529.02673
  0
VERTEX
  5
a6
  8
Layer_0
  10
681.17126
  20
529.02673
  0
VERTEX
  5
a7
  8
Layer_0
  10
681.17126
  20
535.02673
  0
VERTEX
  5
a8
  8
Layer_0
  10
651.17126
  20
535.02673
  0
VERTEX
  5
a9
  8
Layer_0
  10
651.17126
  20
529.02673
  0
VERTEX
  5
aa
  8
Layer_0
  10
588.67126
  20
529.02673
  0
VERTEX
  5
ab
  8
Layer_0
  10
588.67126
  20
535.02673
  0
VERTEX
  5
ac
  8
Layer_0
  10
558.67126
  20
535.02673
  0
SEQEND
  0
ENDSEC
  0
EOF
