  0
SECTION
  2
HEADER
  9
$ACADVER
  1
AC1009
  0
ENDSEC
  0
SECTION
  2
ENTITIES
  0
CIRCLE
  5
90
  8
Layer_0
  62
0
  10
605.42126
  20
564.02673
  30
0
  40
1.5
  0
CIRCLE
  5
90
  8
Layer_0
  62
0
  10
670.42126
  20
564.02673
  30
0
  40
1.5
  0
CIRCLE
  5
90
  8
Layer_0
  62
0
  10
670.42126
  20
394.02673
  30
0
  40
1.5
  0
CIRCLE
  5
90
  8
Layer_0
  62
0
  10
605.42126
  20
394.02673
  30
0
  40
1.5
  0
CIRCLE
  5
90
  8
Layer_0
  62
0
  10
569.42126
  20
564.02673
  30
0
  40
1.5
  0
CIRCLE
  5
90
  8
Layer_0
  62
0
  10
569.42126
  20
394.02673
  30
0
  40
1.5
  0
POLYLINE
  5
90
  8
Layer_0
  62
0
  66
1
  10
0
  20
0
  30
0
  0
VERTEX
  5
90
  8
Layer_0
  10
591.92126
  20
417.85175
  0
VERTEX
  5
91
  8
Layer_0
  10
597.92126
  20
417.85175
  0
VERTEX
  5
92
  8
Layer_0
  10
597.92126
  20
447.70172
  0
VERTEX
  5
93
  8
Layer_0
  10
591.92126
  20
447.70172
  0
SEQEND
  0
POLYLINE
  5
95
  8
Layer_0
  62
0
  66
1
  10
0
  20
0
  30
0
  0
VERTEX
  5
95
  8
Layer_0
  10
591.92126
  20
380.52673
  0
VERTEX
  5
96
  8
Layer_0
  10
622.99628
  20
380.52673
  0
SEQEND
  0
POLYLINE
  5
98
  8
Layer_0
  62
0
  66
1
  10
0
  20
0
  30
0
  0
VERTEX
  5
98
  8
Layer_0
  10
622.99628
  20
380.52673
  0
VERTEX
  5
99
  8
Layer_0
  10
622.99628
  20
386.52673
  0
SEQEND
  0
POLYLINE
  5
9b
  8
Layer_0
  62
0
  66
1
  10
0
  20
0
  30
0
  0
VERTEX
  5
9b
  8
Layer_0
  10
622.99628
  20
386.52673
  0
VERTEX
  5
9c
  8
Layer_0
  10
652.84625
  20
386.52673
  0
SEQEND
  0
POLYLINE
  5
9e
  8
Layer_0
  62
0
  66
1
  10
0
  20
0
  30
0
  0
VERTEX
  5
9e
  8
Layer_0
  10
652.84625
  20
386.52673
  0
VERTEX
  5
9f
  8
Layer_0
  10
652.84625
  20
380.52673
  0
SEQEND
  0
POLYLINE
  5
a1
  8
Layer_0
  62
0
  66
1
  10
0
  20
0
  30
0
  0
VERTEX
  5
a1
  8
Layer_0
  10
652.84625
  20
380.52673
  0
VERTEX
  5
a2
  8
Layer_0
  10
683.92126
  20
380.52673
  0
SEQEND
  0
POLYLINE
  5
a4
  8
Layer_0
  62
0
  66
1
  10
0
  20
0
  30
0
  0
VERTEX
  5
a4
  8
Layer_0
  10
683.92126
  20
380.52673
  0
VERTEX
  5
a5
  8
Layer_0
  10
683.92126
  20
417.85175
  0
SEQEND
  0
POLYLINE
  5
a7
  8
Layer_0
  62
0
  66
1
  10
0
  20
0
  30
0
  0
VERTEX
  5
a7
  8
Layer_0
  10
683.92126
  20
417.85175
  0
VERTEX
  5
a8
  8
Layer_0
  10
677.92126
  20
417.85175
  0
SEQEND
  0
POLYLINE
  5
aa
  8
Layer_0
  62
0
  66
1
  10
0
  20
0
  30
0
  0
VERTEX
  5
aa
  8
Layer_0
  10
677.92126
  20
417.85175
  0
VERTEX
  5
ab
  8
Layer_0
  10
677.92126
  20
447.70172
  0
SEQEND
  0
POLYLINE
  5
ad
  8
Layer_0
  62
0
  66
1
  10
0
  20
0
  30
0
  0
VERTEX
  5
ad
  8
Layer_0
  10
677.92126
  20
447.70172
  0
VERTEX
  5
ae
  8
Layer_0
  10
683.92126
  20
447.70172
  0
SEQEND
  0
POLYLINE
  5
b0
  8
Layer_0
  62
0
  66
1
  10
0
  20
0
  30
0
  0
VERTEX
  5
b0
  8
Layer_0
  10
683.92126
  20
447.70172
  0
VERTEX
  5
b1
  8
Layer_0
  10
683.92126
  20
510.35175
  0
SEQEND
  0
POLYLINE
  5
b3
  8
Layer_0
  62
0
  66
1
  10
0
  20
0
  30
0
  0
VERTEX
  5
b3
  8
Layer_0
  10
683.92126
  20
510.35175
  0
VERTEX
  5
b4
  8
Layer_0
  10
677.92126
  20
510.35175
  0
SEQEND
  0
POLYLINE
  5
b6
  8
Layer_0
  62
0
  66
1
  10
0
  20
0
  30
0
  0
VERTEX
  5
b6
  8
Layer_0
  10
677.92126
  20
510.35175
  0
VERTEX
  5
b7
  8
Layer_0
  10
677.92126
  20
540.20172
  0
SEQEND
  0
POLYLINE
  5
b9
  8
Layer_0
  62
0
  66
1
  10
0
  20
0
  30
0
  0
VERTEX
  5
b9
  8
Layer_0
  10
677.92126
  20
540.20172
  0
VERTEX
  5
ba
  8
Layer_0
  10
683.92126
  20
540.20172
  0
SEQEND
  0
POLYLINE
  5
bc
  8
Layer_0
  62
0
  66
1
  10
0
  20
0
  30
0
  0
VERTEX
  5
bc
  8
Layer_0
  10
683.92126
  20
540.20172
  0
VERTEX
  5
bd
  8
Layer_0
  10
683.92126
  20
577.52673
  0
SEQEND
  0
POLYLINE
  5
bf
  8
Layer_0
  62
0
  66
1
  10
0
  20
0
  30
0
  0
VERTEX
  5
bf
  8
Layer_0
  10
683.92126
  20
577.52673
  0
VERTEX
  5
c0
  8
Layer_0
  10
652.84625
  20
577.52673
  0
SEQEND
  0
POLYLINE
  5
c2
  8
Layer_0
  62
0
  66
1
  10
0
  20
0
  30
0
  0
VERTEX
  5
c2
  8
Layer_0
  10
652.84625
  20
577.52673
  0
VERTEX
  5
c3
  8
Layer_0
  10
652.84625
  20
571.52673
  0
SEQEND
  0
POLYLINE
  5
c5
  8
Layer_0
  62
0
  66
1
  10
0
  20
0
  30
0
  0
VERTEX
  5
c5
  8
Layer_0
  10
652.84625
  20
571.52673
  0
VERTEX
  5
c6
  8
Layer_0
  10
622.99628
  20
571.52673
  0
SEQEND
  0
POLYLINE
  5
c8
  8
Layer_0
  62
0
  66
1
  10
0
  20
0
  30
0
  0
VERTEX
  5
c8
  8
Layer_0
  10
622.99628
  20
571.52673
  0
VERTEX
  5
c9
  8
Layer_0
  10
622.99628
  20
577.52673
  0
SEQEND
  0
POLYLINE
  5
cb
  8
Layer_0
  62
0
  66
1
  10
0
  20
0
  30
0
  0
VERTEX
  5
cb
  8
Layer_0
  10
622.99628
  20
577.52673
  0
VERTEX
  5
cc
  8
Layer_0
  10
591.92126
  20
577.52673
  0
SEQEND
  0
POLYLINE
  5
ce
  8
Layer_0
  62
0
  66
1
  10
0
  20
0
  30
0
  0
VERTEX
  5
ce
  8
Layer_0
  10
591.92126
  20
577.52673
  0
VERTEX
  5
cf
  8
Layer_0
  10
581.67126
  20
577.52673
  0
SEQEND
  0
POLYLINE
  5
d1
  8
Layer_0
  62
0
  66
1
  10
0
  20
0
  30
0
  0
VERTEX
  5
d1
  8
Layer_0
  10
581.67126
  20
577.52673
  0
VERTEX
  5
d2
  8
Layer_0
  10
581.67126
  20
571.52673
  0
SEQEND
  0
POLYLINE
  5
d4
  8
Layer_0
  62
0
  66
1
  10
0
  20
0
  30
0
  0
VERTEX
  5
d4
  8
Layer_0
  10
581.67126
  20
571.52673
  0
VERTEX
  5
d5
  8
Layer_0
  10
572.17126
  20
571.52673
  0
SEQEND
  0
POLYLINE
  5
d7
  8
Layer_0
  62
0
  66
1
  10
0
  20
0
  30
0
  0
VERTEX
  5
d7
  8
Layer_0
  10
572.17126
  20
571.52673
  0
VERTEX
  5
d8
  8
Layer_0
  10
572.17126
  20
577.52673
  0
SEQEND
  0
POLYLINE
  5
da
  8
Layer_0
  62
0
  66
1
  10
0
  20
0
  30
0
  0
VERTEX
  5
da
  8
Layer_0
  10
572.17126
  20
577.52673
  0
VERTEX
  5
db
  8
Layer_0
  10
555.92126
  20
577.52673
  0
SEQEND
  0
POLYLINE
  5
dd
  8
Layer_0
  62
0
  66
1
  10
0
  20
0
  30
0
  0
VERTEX
  5
dd
  8
Layer_0
  10
555.92126
  20
577.52673
  0
VERTEX
  5
de
  8
Layer_0
  10
555.92126
  20
540.20172
  0
SEQEND
  0
POLYLINE
  5
e0
  8
Layer_0
  62
0
  66
1
  10
0
  20
0
  30
0
  0
VERTEX
  5
e0
  8
Layer_0
  10
555.92126
  20
540.20172
  0
VERTEX
  5
e1
  8
Layer_0
  10
561.92126
  20
540.20172
  0
SEQEND
  0
POLYLINE
  5
e3
  8
Layer_0
  62
0
  66
1
  10
0
  20
0
  30
0
  0
VERTEX
  5
e3
  8
Layer_0
  10
561.92126
  20
540.20172
  0
VERTEX
  5
e4
  8
Layer_0
  10
561.92126
  20
510.35175
  0
SEQEND
  0
POLYLINE
  5
e6
  8
Layer_0
  62
0
  66
1
  10
0
  20
0
  30
0
  0
VERTEX
  5
e6
  8
Layer_0
  10
561.92126
  20
510.35175
  0
VERTEX
  5
e7
  8
Layer_0
  10
555.92126
  20
510.35175
  0
SEQEND
  0
POLYLINE
  5
e9
  8
Layer_0
  62
0
  66
1
  10
0
  20
0
  30
0
  0
VERTEX
  5
e9
  8
Layer_0
  10
555.92126
  20
510.35175
  0
VERTEX
  5
ea
  8
Layer_0
  10
555.92126
  20
447.70172
  0
SEQEND
  0
POLYLINE
  5
ec
  8
Layer_0
  62
0
  66
1
  10
0
  20
0
  30
0
  0
VERTEX
  5
ec
  8
Layer_0
  10
555.92126
  20
447.70172
  0
VERTEX
  5
ed
  8
Layer_0
  10
561.92126
  20
447.70172
  0
SEQEND
  0
POLYLINE
  5
ef
  8
Layer_0
  62
0
  66
1
  10
0
  20
0
  30
0
  0
VERTEX
  5
ef
  8
Layer_0
  10
561.92126
  20
447.70172
  0
VERTEX
  5
f0
  8
Layer_0
  10
561.92126
  20
417.85175
  0
SEQEND
  0
POLYLINE
  5
f2
  8
Layer_0
  62
0
  66
1
  10
0
  20
0
  30
0
  0
VERTEX
  5
f2
  8
Layer_0
  10
561.92126
  20
417.85175
  0
VERTEX
  5
f3
  8
Layer_0
  10
555.92126
  20
417.85175
  0
SEQEND
  0
POLYLINE
  5
f5
  8
Layer_0
  62
0
  66
1
  10
0
  20
0
  30
0
  0
VERTEX
  5
f5
  8
Layer_0
  10
555.92126
  20
417.85175
  0
VERTEX
  5
f6
  8
Layer_0
  10
555.92126
  20
380.52673
  0
SEQEND
  0
POLYLINE
  5
f8
  8
Layer_0
  62
0
  66
1
  10
0
  20
0
  30
0
  0
VERTEX
  5
f8
  8
Layer_0
  10
555.92126
  20
380.52673
  0
VERTEX
  5
f9
  8
Layer_0
  10
572.17126
  20
380.52673
  0
SEQEND
  0
POLYLINE
  5
fb
  8
Layer_0
  62
0
  66
1
  10
0
  20
0
  30
0
  0
VERTEX
  5
fb
  8
Layer_0
  10
572.17126
  20
380.52673
  0
VERTEX
  5
fc
  8
Layer_0
  10
572.17126
  20
386.52673
  0
SEQEND
  0
POLYLINE
  5
fe
  8
Layer_0
  62
0
  66
1
  10
0
  20
0
  30
0
  0
VERTEX
  5
fe
  8
Layer_0
  10
572.17126
  20
386.52673
  0
VERTEX
  5
ff
  8
Layer_0
  10
581.67126
  20
386.52673
  0
SEQEND
  0
POLYLINE
  5
101
  8
Layer_0
  62
0
  66
1
  10
0
  20
0
  30
0
  0
VERTEX
  5
101
  8
Layer_0
  10
581.67126
  20
386.52673
  0
VERTEX
  5
102
  8
Layer_0
  10
581.67126
  20
380.52673
  0
SEQEND
  0
POLYLINE
  5
104
  8
Layer_0
  62
0
  66
1
  10
0
  20
0
  30
0
  0
VERTEX
  5
104
  8
Layer_0
  10
581.67126
  20
380.52673
  0
VERTEX
  5
105
  8
Layer_0
  10
591.92126
  20
380.52673
  0
SEQEND
  0
POLYLINE
  5
107
  8
Layer_0
  62
0
  66
1
  10
0
  20
0
  30
0
  0
VERTEX
  5
107
  8
Layer_0
  10
591.92126
  20
417.85175
  0
VERTEX
  5
108
  8
Layer_0
  10
591.92126
  20
447.70172
  0
SEQEND
  0
POLYLINE
  5
10a
  8
Layer_0
  62
0
  66
1
  10
0
  20
0
  30
0
  0
VERTEX
  5
10a
  8
Layer_0
  10
591.92126
  20
510.35175
  0
VERTEX
  5
10b
  8
Layer_0
  10
597.92126
  20
510.35175
  0
SEQEND
  0
POLYLINE
  5
10d
  8
Layer_0
  62
0
  66
1
  10
0
  20
0
  30
0
  0
VERTEX
  5
10d
  8
Layer_0
  10
597.92126
  20
510.35175
  0
VERTEX
  5
10e
  8
Layer_0
  10
597.92126
  20
540.20172
  0
SEQEND
  0
POLYLINE
  5
110
  8
Layer_0
  62
0
  66
1
  10
0
  20
0
  30
0
  0
VERTEX
  5
110
  8
Layer_0
  10
597.92126
  20
540.20172
  0
VERTEX
  5
111
  8
Layer_0
  10
591.92126
  20
540.20172
  0
SEQEND
  0
POLYLINE
  5
113
  8
Layer_0
  62
0
  66
1
  10
0
  20
0
  30
0
  0
VERTEX
  5
113
  8
Layer_0
  10
591.92126
  20
540.20172
  0
VERTEX
  5
114
  8
Layer_0
  10
591.92126
  20
510.35175
  0
SEQEND
  0
ENDSEC
  0
EOF
