  0
SECTION
  2
HEADER
  9
$ACADVER
  1
AC1009
  0
ENDSEC
  0
SECTION
  2
ENTITIES
  0
CIRCLE
  5
90
  8
Layer_0
  62
1
  10
587.8822
  20
370.94669
  30
0
  40
25
  0
CIRCLE
  5
90
  8
Layer_0
  62
1
  10
587.8822
  20
470.94669
  30
0
  40
29.75
  0
CIRCLE
  5
90
  8
Layer_0
  62
1
  10
630.3822
  20
508.44669
  30
0
  40
1.5
  0
CIRCLE
  5
90
  8
Layer_0
  62
1
  10
630.3822
  20
338.44669
  30
0
  40
1.5
  0
CIRCLE
  5
90
  8
Layer_0
  62
1
  10
545.3822
  20
508.44669
  30
0
  40
1.5
  0
CIRCLE
  5
90
  8
Layer_0
  62
1
  10
545.3822
  20
338.44669
  30
0
  40
1.5
  0
CIRCLE
  5
90
  8
Layer_0
  62
1
  10
620.8822
  20
370.94669
  30
0
  40
1.5
  0
CIRCLE
  5
90
  8
Layer_0
  62
1
  10
554.8822
  20
370.94669
  30
0
  40
1.5
  0
CIRCLE
  5
90
  8
Layer_0
  62
1
  10
583.17542
  20
403.60928
  30
0
  40
1.5
  0
CIRCLE
  5
90
  8
Layer_0
  62
1
  10
583.17542
  20
338.28409
  30
0
  40
1.5
  0
CIRCLE
  5
90
  8
Layer_0
  62
1
  10
625.08221
  20
470.94669
  30
0
  40
1.5
  0
CIRCLE
  5
90
  8
Layer_0
  62
1
  10
587.8822
  20
508.1467
  30
0
  40
1.5
  0
CIRCLE
  5
90
  8
Layer_0
  62
1
  10
550.68219
  20
470.94669
  30
0
  40
1.5
  0
CIRCLE
  5
90
  8
Layer_0
  62
1
  10
587.8822
  20
433.74667
  30
0
  40
1.5
  0
CIRCLE
  5
90
  8
Layer_0
  62
1
  10
590.8822
  20
423.44669
  30
0
  40
1.5
  0
CIRCLE
  5
90
  8
Layer_0
  62
1
  10
596.8822
  20
423.44669
  30
0
  40
1.5
  0
CIRCLE
  5
90
  8
Layer_0
  62
1
  10
602.8822
  20
423.44669
  30
0
  40
1.5
  0
CIRCLE
  5
90
  8
Layer_0
  62
1
  10
608.8822
  20
423.44669
  30
0
  40
1.5
  0
CIRCLE
  5
90
  8
Layer_0
  62
1
  10
614.8822
  20
423.44669
  30
0
  40
1.5
  0
CIRCLE
  5
90
  8
Layer_0
  62
1
  10
560.8822
  20
423.44669
  30
0
  40
1.5
  0
CIRCLE
  5
90
  8
Layer_0
  62
1
  10
572.8822
  20
423.44669
  30
0
  40
1.5
  0
CIRCLE
  5
90
  8
Layer_0
  62
1
  10
584.8822
  20
423.44669
  30
0
  40
1.5
  0
CIRCLE
  5
90
  8
Layer_0
  62
1
  10
578.8822
  20
423.44669
  30
0
  40
1.5
  0
CIRCLE
  5
90
  8
Layer_0
  62
1
  10
566.8822
  20
423.44669
  30
0
  40
1.5
  0
CIRCLE
  5
90
  8
Layer_0
  62
1
  10
620.8822
  20
423.44669
  30
0
  40
1.5
  0
CIRCLE
  5
90
  8
Layer_0
  62
1
  10
554.8822
  20
423.44669
  30
0
  40
1.5
  0
POLYLINE
  5
90
  8
Layer_0
  62
1
  70
1
  66
1
  10
0
  20
0
  30
0
  0
VERTEX
  5
90
  8
Layer_0
  10
643.8822
  20
484.69669
  0
VERTEX
  5
91
  8
Layer_0
  10
637.8822
  20
484.69669
  0
VERTEX
  5
92
  8
Layer_0
  10
637.8822
  20
515.94666
  0
VERTEX
  5
93
  8
Layer_0
  10
602.8822
  20
515.94666
  0
VERTEX
  5
94
  8
Layer_0
  10
602.8822
  20
521.94666
  0
VERTEX
  5
95
  8
Layer_0
  10
572.8822
  20
521.94666
  0
VERTEX
  5
96
  8
Layer_0
  10
572.8822
  20
515.94666
  0
VERTEX
  5
97
  8
Layer_0
  10
537.8822
  20
515.94666
  0
VERTEX
  5
98
  8
Layer_0
  10
537.8822
  20
484.69669
  0
VERTEX
  5
99
  8
Layer_0
  10
531.8822
  20
484.69669
  0
VERTEX
  5
9a
  8
Layer_0
  10
531.8822
  20
454.69669
  0
VERTEX
  5
9b
  8
Layer_0
  10
537.8822
  20
454.69669
  0
VERTEX
  5
9c
  8
Layer_0
  10
537.8822
  20
392.19669
  0
VERTEX
  5
9d
  8
Layer_0
  10
531.8822
  20
392.19669
  0
VERTEX
  5
9e
  8
Layer_0
  10
531.8822
  20
362.19669
  0
VERTEX
  5
9f
  8
Layer_0
  10
537.8822
  20
362.19669
  0
VERTEX
  5
a0
  8
Layer_0
  10
537.8822
  20
330.94669
  0
VERTEX
  5
a1
  8
Layer_0
  10
572.8822
  20
330.94669
  0
VERTEX
  5
a2
  8
Layer_0
  10
572.8822
  20
324.94669
  0
VERTEX
  5
a3
  8
Layer_0
  10
602.8822
  20
324.94669
  0
VERTEX
  5
a4
  8
Layer_0
  10
602.8822
  20
330.94669
  0
VERTEX
  5
a5
  8
Layer_0
  10
637.8822
  20
330.94669
  0
VERTEX
  5
a6
  8
Layer_0
  10
637.8822
  20
362.19669
  0
VERTEX
  5
a7
  8
Layer_0
  10
643.8822
  20
362.19669
  0
VERTEX
  5
a8
  8
Layer_0
  10
643.8822
  20
392.19669
  0
VERTEX
  5
a9
  8
Layer_0
  10
637.8822
  20
392.19669
  0
VERTEX
  5
aa
  8
Layer_0
  10
637.8822
  20
454.69669
  0
VERTEX
  5
ab
  8
Layer_0
  10
643.8822
  20
454.69669
  0
VERTEX
  5
ac
  8
Layer_0
  10
643.8822
  20
484.69669
  0
SEQEND
  0
ENDSEC
  0
EOF
