  0
SECTION
  2
HEADER
  9
$ACADVER
  1
AC1009
  0
ENDSEC
  0
SECTION
  2
ENTITIES
  0
CIRCLE
  5
90
  8
Layer_0
  62
1
  10
647.07361
  20
528.63049
  30
0
  40
1.5
  0
CIRCLE
  5
90
  8
Layer_0
  62
1
  10
647.07361
  20
463.63049
  30
0
  40
1.5
  0
CIRCLE
  5
90
  8
Layer_0
  62
1
  10
562.07361
  20
528.63049
  30
0
  40
1.5
  0
CIRCLE
  5
90
  8
Layer_0
  62
1
  10
562.07361
  20
463.63049
  30
0
  40
1.5
  0
CIRCLE
  5
90
  8
Layer_0
  62
1
  10
647.07361
  20
427.63049
  30
0
  40
1.5
  0
CIRCLE
  5
90
  8
Layer_0
  62
1
  10
562.07355
  20
427.63049
  30
0
  40
1.5
  0
POLYLINE
  5
90
  8
Layer_0
  62
1
  70
1
  66
1
  10
0
  20
0
  30
0
  0
VERTEX
  5
90
  8
Layer_0
  10
654.57355
  20
542.13049
  0
VERTEX
  5
91
  8
Layer_0
  10
619.49854
  20
542.13049
  0
VERTEX
  5
92
  8
Layer_0
  10
619.49854
  20
536.13049
  0
VERTEX
  5
93
  8
Layer_0
  10
589.64856
  20
536.13049
  0
VERTEX
  5
94
  8
Layer_0
  10
589.64856
  20
542.13049
  0
VERTEX
  5
95
  8
Layer_0
  10
554.57355
  20
542.13049
  0
VERTEX
  5
96
  8
Layer_0
  10
554.57355
  20
511.13049
  0
VERTEX
  5
97
  8
Layer_0
  10
548.57355
  20
511.13049
  0
VERTEX
  5
98
  8
Layer_0
  10
548.57355
  20
481.13049
  0
VERTEX
  5
99
  8
Layer_0
  10
554.57355
  20
481.13049
  0
VERTEX
  5
9a
  8
Layer_0
  10
554.57355
  20
440.13049
  0
VERTEX
  5
9b
  8
Layer_0
  10
548.57355
  20
440.13049
  0
VERTEX
  5
9c
  8
Layer_0
  10
548.57355
  20
430.13049
  0
VERTEX
  5
9d
  8
Layer_0
  10
554.57355
  20
430.13049
  0
VERTEX
  5
9e
  8
Layer_0
  10
554.57355
  20
414.13049
  0
VERTEX
  5
9f
  8
Layer_0
  10
589.64856
  20
414.13049
  0
VERTEX
  5
a0
  8
Layer_0
  10
589.64856
  20
420.13049
  0
VERTEX
  5
a1
  8
Layer_0
  10
619.49854
  20
420.13049
  0
VERTEX
  5
a2
  8
Layer_0
  10
619.49854
  20
414.13049
  0
VERTEX
  5
a3
  8
Layer_0
  10
654.57355
  20
414.13049
  0
VERTEX
  5
a4
  8
Layer_0
  10
654.57355
  20
430.13049
  0
VERTEX
  5
a5
  8
Layer_0
  10
660.57355
  20
430.13049
  0
VERTEX
  5
a6
  8
Layer_0
  10
660.57355
  20
440.13049
  0
VERTEX
  5
a7
  8
Layer_0
  10
654.57355
  20
440.13049
  0
VERTEX
  5
a8
  8
Layer_0
  10
654.57355
  20
481.13049
  0
VERTEX
  5
a9
  8
Layer_0
  10
660.57355
  20
481.13049
  0
VERTEX
  5
aa
  8
Layer_0
  10
660.57355
  20
511.13049
  0
VERTEX
  5
ab
  8
Layer_0
  10
654.57355
  20
511.13049
  0
VERTEX
  5
ac
  8
Layer_0
  10
654.57355
  20
542.13049
  0
SEQEND
  0
POLYLINE
  5
ae
  8
Layer_0
  62
1
  70
1
  66
1
  10
0
  20
0
  30
0
  0
VERTEX
  5
ae
  8
Layer_0
  10
619.49854
  20
450.13049
  0
VERTEX
  5
af
  8
Layer_0
  10
619.49854
  20
456.13049
  0
VERTEX
  5
b0
  8
Layer_0
  10
589.64856
  20
456.13049
  0
VERTEX
  5
b1
  8
Layer_0
  10
589.64856
  20
450.13049
  0
VERTEX
  5
b2
  8
Layer_0
  10
619.49854
  20
450.13049
  0
SEQEND
  0
POLYLINE
  5
b4
  8
Layer_0
  62
1
  70
1
  66
1
  10
0
  20
0
  30
0
  0
VERTEX
  5
b4
  8
Layer_0
  10
582.07355
  20
511.13049
  0
VERTEX
  5
b5
  8
Layer_0
  10
582.07355
  20
481.13049
  0
VERTEX
  5
b6
  8
Layer_0
  10
582.03485
  20
480.36368
  0
VERTEX
  5
b7
  8
Layer_0
  10
581.9212
  20
479.61902
  0
VERTEX
  5
b8
  8
Layer_0
  10
581.73633
  20
478.90024
  0
VERTEX
  5
b9
  8
Layer_0
  10
581.48413
  20
478.21118
  0
VERTEX
  5
ba
  8
Layer_0
  10
581.16833
  20
477.55557
  0
VERTEX
  5
bb
  8
Layer_0
  10
580.79272
  20
476.93719
  0
VERTEX
  5
bc
  8
Layer_0
  10
580.36096
  20
476.3598
  0
VERTEX
  5
bd
  8
Layer_0
  10
579.87689
  20
475.82721
  0
VERTEX
  5
be
  8
Layer_0
  10
579.3443
  20
475.34314
  0
VERTEX
  5
bf
  8
Layer_0
  10
578.76685
  20
474.91141
  0
VERTEX
  5
c0
  8
Layer_0
  10
578.14844
  20
474.53574
  0
VERTEX
  5
c1
  8
Layer_0
  10
577.49292
  20
474.21991
  0
VERTEX
  5
c2
  8
Layer_0
  10
576.80383
  20
473.96771
  0
VERTEX
  5
c3
  8
Layer_0
  10
576.08508
  20
473.78287
  0
VERTEX
  5
c4
  8
Layer_0
  10
575.34039
  20
473.66922
  0
VERTEX
  5
c5
  8
Layer_0
  10
574.57355
  20
473.63049
  0
VERTEX
  5
c6
  8
Layer_0
  10
573.8067
  20
473.66922
  0
VERTEX
  5
c7
  8
Layer_0
  10
573.06201
  20
473.78287
  0
VERTEX
  5
c8
  8
Layer_0
  10
572.34326
  20
473.96771
  0
VERTEX
  5
c9
  8
Layer_0
  10
571.65417
  20
474.21991
  0
VERTEX
  5
ca
  8
Layer_0
  10
570.99866
  20
474.53574
  0
VERTEX
  5
cb
  8
Layer_0
  10
570.38025
  20
474.91141
  0
VERTEX
  5
cc
  8
Layer_0
  10
569.8028
  20
475.34314
  0
VERTEX
  5
cd
  8
Layer_0
  10
569.2702
  20
475.82721
  0
VERTEX
  5
ce
  8
Layer_0
  10
568.78613
  20
476.3598
  0
VERTEX
  5
cf
  8
Layer_0
  10
568.35437
  20
476.93719
  0
VERTEX
  5
d0
  8
Layer_0
  10
567.97876
  20
477.55557
  0
VERTEX
  5
d1
  8
Layer_0
  10
567.66296
  20
478.21118
  0
VERTEX
  5
d2
  8
Layer_0
  10
567.41077
  20
478.90024
  0
VERTEX
  5
d3
  8
Layer_0
  10
567.22589
  20
479.61902
  0
VERTEX
  5
d4
  8
Layer_0
  10
567.11224
  20
480.36368
  0
VERTEX
  5
d5
  8
Layer_0
  10
567.07355
  20
481.13049
  0
VERTEX
  5
d6
  8
Layer_0
  10
567.07355
  20
511.13049
  0
VERTEX
  5
d7
  8
Layer_0
  10
567.11224
  20
511.89734
  0
VERTEX
  5
d8
  8
Layer_0
  10
567.22589
  20
512.64203
  0
VERTEX
  5
d9
  8
Layer_0
  10
567.41077
  20
513.36072
  0
VERTEX
  5
da
  8
Layer_0
  10
567.66296
  20
514.0498
  0
VERTEX
  5
db
  8
Layer_0
  10
567.97876
  20
514.70532
  0
VERTEX
  5
dc
  8
Layer_0
  10
568.35437
  20
515.32373
  0
VERTEX
  5
dd
  8
Layer_0
  10
568.78613
  20
515.90118
  0
VERTEX
  5
de
  8
Layer_0
  10
569.2702
  20
516.43378
  0
VERTEX
  5
df
  8
Layer_0
  10
569.8028
  20
516.91785
  0
VERTEX
  5
e0
  8
Layer_0
  10
570.38025
  20
517.34961
  0
VERTEX
  5
e1
  8
Layer_0
  10
570.99866
  20
517.72534
  0
VERTEX
  5
e2
  8
Layer_0
  10
571.65417
  20
518.04114
  0
VERTEX
  5
e3
  8
Layer_0
  10
572.34326
  20
518.29333
  0
VERTEX
  5
e4
  8
Layer_0
  10
573.06201
  20
518.47815
  0
VERTEX
  5
e5
  8
Layer_0
  10
573.8067
  20
518.5918
  0
VERTEX
  5
e6
  8
Layer_0
  10
574.57355
  20
518.63049
  0
VERTEX
  5
e7
  8
Layer_0
  10
575.34039
  20
518.5918
  0
VERTEX
  5
e8
  8
Layer_0
  10
576.08508
  20
518.47815
  0
VERTEX
  5
e9
  8
Layer_0
  10
576.80383
  20
518.29333
  0
VERTEX
  5
ea
  8
Layer_0
  10
577.49292
  20
518.04114
  0
VERTEX
  5
eb
  8
Layer_0
  10
578.14844
  20
517.72534
  0
VERTEX
  5
ec
  8
Layer_0
  10
578.76685
  20
517.34961
  0
VERTEX
  5
ed
  8
Layer_0
  10
579.3443
  20
516.91785
  0
VERTEX
  5
ee
  8
Layer_0
  10
579.87689
  20
516.43378
  0
VERTEX
  5
ef
  8
Layer_0
  10
580.36096
  20
515.90118
  0
VERTEX
  5
f0
  8
Layer_0
  10
580.79272
  20
515.32373
  0
VERTEX
  5
f1
  8
Layer_0
  10
581.16833
  20
514.70532
  0
VERTEX
  5
f2
  8
Layer_0
  10
581.48413
  20
514.0498
  0
VERTEX
  5
f3
  8
Layer_0
  10
581.73633
  20
513.36072
  0
VERTEX
  5
f4
  8
Layer_0
  10
581.9212
  20
512.64203
  0
VERTEX
  5
f5
  8
Layer_0
  10
582.03485
  20
511.89734
  0
VERTEX
  5
f6
  8
Layer_0
  10
582.07355
  20
511.13049
  0
SEQEND
  0
POLYLINE
  5
f8
  8
Layer_0
  62
1
  66
1
  10
0
  20
0
  30
0
  0
VERTEX
  5
f8
  8
Layer_0
  10
619.49854
  20
420.13049
  0
VERTEX
  5
f9
  8
Layer_0
  10
589.64856
  20
420.13049
  0
SEQEND
  0
ENDSEC
  0
EOF
