  0
SECTION
  2
HEADER
  9
$ACADVER
  1
AC1009
  0
ENDSEC
  0
SECTION
  2
ENTITIES
  0
CIRCLE
  5
90
  8
Layer_1
  62
1
  10
195.13861
  20
162.69708
  30
0
  40
1.5
  0
CIRCLE
  5
90
  8
Layer_1
  62
1
  10
232.13861
  20
162.69708
  30
0
  40
1.5
  0
CIRCLE
  5
90
  8
Layer_1
  62
1
  10
232.13861
  20
205.69708
  30
0
  40
1.5
  0
CIRCLE
  5
90
  8
Layer_1
  62
1
  10
195.13861
  20
205.69708
  30
0
  40
1.5
  0
POLYLINE
  5
90
  8
Layer_1
  62
1
  66
1
  10
0
  20
0
  30
0
  0
VERTEX
  5
90
  8
Layer_1
  10
184.63861
  20
216.19708
  0
VERTEX
  5
91
  8
Layer_1
  10
184.63861
  20
199.14708
  0
VERTEX
  5
92
  8
Layer_1
  10
187.63861
  20
199.14708
  0
VERTEX
  5
93
  8
Layer_1
  10
187.63861
  20
169.24709
  0
VERTEX
  5
94
  8
Layer_1
  10
184.63861
  20
169.24709
  0
VERTEX
  5
95
  8
Layer_1
  10
184.63861
  20
152.19708
  0
VERTEX
  5
96
  8
Layer_1
  10
198.68861
  20
152.19708
  0
VERTEX
  5
97
  8
Layer_1
  10
198.68861
  20
155.19708
  0
VERTEX
  5
98
  8
Layer_1
  10
228.58861
  20
155.19708
  0
VERTEX
  5
99
  8
Layer_1
  10
228.58861
  20
152.19708
  0
VERTEX
  5
9a
  8
Layer_1
  10
242.63861
  20
152.19708
  0
VERTEX
  5
9b
  8
Layer_1
  10
242.63861
  20
169.24709
  0
VERTEX
  5
9c
  8
Layer_1
  10
239.63861
  20
169.24709
  0
VERTEX
  5
9d
  8
Layer_1
  10
239.63861
  20
199.14708
  0
VERTEX
  5
9e
  8
Layer_1
  10
242.63861
  20
199.14708
  0
VERTEX
  5
9f
  8
Layer_1
  10
242.63861
  20
216.19708
  0
VERTEX
  5
a0
  8
Layer_1
  10
228.58861
  20
216.19708
  0
VERTEX
  5
a1
  8
Layer_1
  10
228.58861
  20
213.19708
  0
VERTEX
  5
a2
  8
Layer_1
  10
198.68861
  20
213.19708
  0
VERTEX
  5
a3
  8
Layer_1
  10
198.68861
  20
216.19708
  0
VERTEX
  5
a4
  8
Layer_1
  10
184.63861
  20
216.19708
  0
SEQEND
  0
POLYLINE
  5
a6
  8
Layer_0
  62
3
  66
1
  10
0
  20
0
  30
0
  0
VERTEX
  5
a6
  8
Layer_0
  10
199.47037
  20
160.26138
  42
0.2198738
  0
VERTEX
  5
a7
  8
Layer_0
  10
199.68228
  20
160.17792
  42
0.14375931
  0
VERTEX
  5
a8
  8
Layer_0
  10
199.85393
  20
160.22453
  42
0.17429849
  0
VERTEX
  5
a9
  8
Layer_0
  10
199.95287
  20
160.34921
  42
0.076131846
  0
VERTEX
  5
aa
  8
Layer_0
  10
199.97882
  20
160.59969
  0
VERTEX
  5
ab
  8
Layer_0
  10
199.97151
  20
161.97757
  0
VERTEX
  5
ac
  8
Layer_0
  10
200.23618
  20
161.97897
  0
VERTEX
  5
ad
  8
Layer_0
  10
200.24339
  20
160.6161
  42
-0.099850326
  0
VERTEX
  5
ae
  8
Layer_0
  10
200.18475
  20
160.22697
  42
-0.16907098
  0
VERTEX
  5
af
  8
Layer_0
  10
199.9935
  20
160.01585
  42
-0.12737478
  0
VERTEX
  5
b0
  8
Layer_0
  10
199.68489
  20
159.94191
  42
-0.21507781
  0
VERTEX
  5
b1
  8
Layer_0
  10
199.28096
  20
160.0912
  42
-0.1942495
  0
VERTEX
  5
b2
  8
Layer_0
  10
199.1442
  20
160.5407
  0
VERTEX
  5
b3
  8
Layer_0
  10
199.38277
  20
160.57471
  42
0.16243926
  0
VERTEX
  5
b4
  8
Layer_0
  10
199.47037
  20
160.26138
  0
SEQEND
  0
POLYLINE
  5
b6
  8
Layer_0
  62
3
  66
1
  10
0
  20
0
  30
0
  0
VERTEX
  5
b6
  8
Layer_0
  10
201.00427
  20
161.7211
  0
VERTEX
  5
b7
  8
Layer_0
  10
201.80234
  20
161.72533
  0
VERTEX
  5
b8
  8
Layer_0
  10
201.8011
  20
161.95998
  0
VERTEX
  5
b9
  8
Layer_0
  10
200.80658
  20
161.95471
  0
VERTEX
  5
ba
  8
Layer_0
  10
200.6183
  20
160.92641
  0
VERTEX
  5
bb
  8
Layer_0
  10
200.84901
  20
160.89761
  42
-0.12514762
  0
VERTEX
  5
bc
  8
Layer_0
  10
200.99834
  20
161.03825
  42
-0.13104094
  0
VERTEX
  5
bd
  8
Layer_0
  10
201.21223
  20
161.09328
  42
-0.20977113
  0
VERTEX
  5
be
  8
Layer_0
  10
201.52188
  20
160.9735
  42
-0.20016792
  0
VERTEX
  5
bf
  8
Layer_0
  10
201.64165
  20
160.64261
  42
-0.1924574
  0
VERTEX
  5
c0
  8
Layer_0
  10
201.52074
  20
160.28726
  42
-0.21870336
  0
VERTEX
  5
c1
  8
Layer_0
  10
201.22131
  20
160.15198
  42
-0.19255207
  0
VERTEX
  5
c2
  8
Layer_0
  10
200.96912
  20
160.24545
  42
-0.17367639
  0
VERTEX
  5
c3
  8
Layer_0
  10
200.83459
  20
160.52783
  0
VERTEX
  5
c4
  8
Layer_0
  10
200.57687
  20
160.50464
  42
0.19546569
  0
VERTEX
  5
c5
  8
Layer_0
  10
200.77615
  20
160.10049
  42
0.18774961
  0
VERTEX
  5
c6
  8
Layer_0
  10
201.22238
  20
159.95006
  42
0.24025401
  0
VERTEX
  5
c7
  8
Layer_0
  10
201.74634
  20
160.19568
  42
0.17470879
  0
VERTEX
  5
c8
  8
Layer_0
  10
201.9021
  20
160.66582
  42
0.20464589
  0
VERTEX
  5
c9
  8
Layer_0
  10
201.71954
  20
161.13144
  42
0.20736027
  0
VERTEX
  5
ca
  8
Layer_0
  10
201.27657
  20
161.31053
  42
0.15634529
  0
VERTEX
  5
cb
  8
Layer_0
  10
200.89934
  20
161.18301
  0
VERTEX
  5
cc
  8
Layer_0
  10
201.00427
  20
161.7211
  0
SEQEND
  0
POLYLINE
  5
ce
  8
Layer_0
  62
3
  66
1
  10
0
  20
0
  30
0
  0
VERTEX
  5
ce
  8
Layer_0
  10
202.57718
  20
161.2233
  42
-0.12012032
  0
VERTEX
  5
cf
  8
Layer_0
  10
202.8456
  20
161.29021
  42
-0.21298806
  0
VERTEX
  5
d0
  8
Layer_0
  10
203.26469
  20
161.11166
  42
-0.19878965
  0
VERTEX
  5
d1
  8
Layer_0
  10
203.43974
  20
160.64532
  42
-0.11831472
  0
VERTEX
  5
d2
  8
Layer_0
  10
203.36043
  20
160.29497
  42
-0.14350612
  0
VERTEX
  5
d3
  8
Layer_0
  10
203.13869
  20
160.04617
  42
-0.13920014
  0
VERTEX
  5
d4
  8
Layer_0
  10
202.81718
  20
159.95851
  42
-0.22866518
  0
VERTEX
  5
d5
  8
Layer_0
  10
202.31531
  20
160.18164
  42
-0.17287797
  0
VERTEX
  5
d6
  8
Layer_0
  10
202.11765
  20
160.9248
  42
-0.16681811
  0
VERTEX
  5
d7
  8
Layer_0
  10
202.32736
  20
161.76904
  42
-0.23597587
  0
VERTEX
  5
d8
  8
Layer_0
  10
202.82954
  20
162.0009
  42
-0.18666649
  0
VERTEX
  5
d9
  8
Layer_0
  10
203.21701
  20
161.87062
  42
-0.18725032
  0
VERTEX
  5
da
  8
Layer_0
  10
203.3997
  20
161.50597
  0
VERTEX
  5
db
  8
Layer_0
  10
203.15561
  20
161.48557
  42
0.1257238
  0
VERTEX
  5
dc
  8
Layer_0
  10
203.06174
  20
161.69518
  42
0.21404559
  0
VERTEX
  5
dd
  8
Layer_0
  10
202.81561
  20
161.79892
  42
0.1640244
  0
VERTEX
  5
de
  8
Layer_0
  10
202.60995
  20
161.73235
  42
0.13969041
  0
VERTEX
  5
df
  8
Layer_0
  10
202.42847
  20
161.48445
  42
0.091118029
  0
VERTEX
  5
e0
  8
Layer_0
  10
202.36133
  20
161.02161
  42
-0.13181679
  0
VERTEX
  5
e1
  8
Layer_0
  10
202.57718
  20
161.2233
  0
SEQEND
  0
POLYLINE
  5
e3
  8
Layer_0
  62
3
  66
1
  10
0
  20
0
  30
0
  0
VERTEX
  5
e3
  8
Layer_0
  10
202.60843
  20
160.22003
  42
0.14329984
  0
VERTEX
  5
e4
  8
Layer_0
  10
202.81201
  20
160.1604
  42
0.22287958
  0
VERTEX
  5
e5
  8
Layer_0
  10
203.07874
  20
160.28732
  42
0.18732216
  0
VERTEX
  5
e6
  8
Layer_0
  10
203.1888
  20
160.62898
  42
0.19274108
  0
VERTEX
  5
e7
  8
Layer_0
  10
203.07657
  20
160.95514
  42
0.21756179
  0
VERTEX
  5
e8
  8
Layer_0
  10
202.79764
  20
161.07303
  42
0.21053068
  0
VERTEX
  5
e9
  8
Layer_0
  10
202.51587
  20
160.95216
  42
0.20110037
  0
VERTEX
  5
ea
  8
Layer_0
  10
202.40157
  20
160.63846
  42
0.11033044
  0
VERTEX
  5
eb
  8
Layer_0
  10
202.45674
  20
160.3959
  42
0.14745277
  0
VERTEX
  5
ec
  8
Layer_0
  10
202.60843
  20
160.22003
  0
SEQEND
  0
POLYLINE
  5
ee
  8
Layer_0
  62
3
  66
1
  10
0
  20
0
  30
0
  0
VERTEX
  5
ee
  8
Layer_0
  10
205.15866
  20
159.62714
  0
VERTEX
  5
ef
  8
Layer_0
  10
205.15961
  20
159.44978
  0
VERTEX
  5
f0
  8
Layer_0
  10
203.53207
  20
159.44115
  0
VERTEX
  5
f1
  8
Layer_0
  10
203.53113
  20
159.6185
  0
VERTEX
  5
f2
  8
Layer_0
  10
205.15866
  20
159.62714
  0
SEQEND
  0
POLYLINE
  5
f4
  8
Layer_0
  62
3
  66
1
  10
0
  20
0
  30
0
  0
VERTEX
  5
f4
  8
Layer_0
  10
205.52895
  20
160.29349
  42
0.21976575
  0
VERTEX
  5
f5
  8
Layer_0
  10
205.74086
  20
160.21004
  42
0.14379824
  0
VERTEX
  5
f6
  8
Layer_0
  10
205.91251
  20
160.25665
  42
0.17414779
  0
VERTEX
  5
f7
  8
Layer_0
  10
206.01144
  20
160.38132
  42
0.076163188
  0
VERTEX
  5
f8
  8
Layer_0
  10
206.0374
  20
160.63181
  0
VERTEX
  5
f9
  8
Layer_0
  10
206.03009
  20
162.00967
  0
VERTEX
  5
fa
  8
Layer_0
  10
206.29475
  20
162.01108
  0
VERTEX
  5
fb
  8
Layer_0
  10
206.30197
  20
160.64821
  42
-0.099813758
  0
VERTEX
  5
fc
  8
Layer_0
  10
206.24333
  20
160.25908
  42
-0.16908829
  0
VERTEX
  5
fd
  8
Layer_0
  10
206.05209
  20
160.04797
  42
-0.12738587
  0
VERTEX
  5
fe
  8
Layer_0
  10
205.74347
  20
159.97403
  42
-0.21508725
  0
VERTEX
  5
ff
  8
Layer_0
  10
205.33954
  20
160.12332
  42
-0.19424584
  0
VERTEX
  5
100
  8
Layer_0
  10
205.20277
  20
160.57281
  0
VERTEX
  5
101
  8
Layer_0
  10
205.44135
  20
160.60681
  42
0.16243621
  0
VERTEX
  5
102
  8
Layer_0
  10
205.52895
  20
160.29349
  0
SEQEND
  0
POLYLINE
  5
104
  8
Layer_0
  62
3
  66
1
  10
0
  20
0
  30
0
  0
VERTEX
  5
104
  8
Layer_0
  10
207.36218
  20
160.61699
  0
VERTEX
  5
105
  8
Layer_0
  10
206.60776
  20
160.61299
  0
VERTEX
  5
106
  8
Layer_0
  10
206.60645
  20
160.85992
  0
VERTEX
  5
107
  8
Layer_0
  10
207.36087
  20
160.86392
  0
VERTEX
  5
108
  8
Layer_0
  10
207.36218
  20
160.61699
  0
SEQEND
  0
POLYLINE
  5
10a
  8
Layer_0
  62
3
  66
1
  10
0
  20
0
  30
0
  0
VERTEX
  5
10a
  8
Layer_0
  10
207.98004
  20
160.38902
  42
-0.02720043
  0
VERTEX
  5
10b
  8
Layer_0
  10
208.26248
  20
160.64223
  42
0.032479178
  0
VERTEX
  5
10c
  8
Layer_0
  10
208.63919
  20
160.99622
  42
0.080573218
  0
VERTEX
  5
10d
  8
Layer_0
  10
208.80092
  20
161.24127
  42
0.10134193
  0
VERTEX
  5
10e
  8
Layer_0
  10
208.84879
  20
161.47754
  42
0.21355022
  0
VERTEX
  5
10f
  8
Layer_0
  10
208.67888
  20
161.87228
  42
0.1970715
  0
VERTEX
  5
110
  8
Layer_0
  10
208.22238
  20
162.02948
  42
0.18502253
  0
VERTEX
  5
111
  8
Layer_0
  10
207.76888
  20
161.87906
  42
0.19681583
  0
VERTEX
  5
112
  8
Layer_0
  10
207.57607
  20
161.4476
  0
VERTEX
  5
113
  8
Layer_0
  10
207.82858
  20
161.42302
  42
-0.20201284
  0
VERTEX
  5
114
  8
Layer_0
  10
207.9348
  20
161.71828
  42
-0.2051212
  0
VERTEX
  5
115
  8
Layer_0
  10
208.218
  20
161.82619
  42
-0.19957736
  0
VERTEX
  5
116
  8
Layer_0
  10
208.49069
  20
161.72736
  42
-0.21200392
  0
VERTEX
  5
117
  8
Layer_0
  10
208.59636
  20
161.48166
  42
-0.15967544
  0
VERTEX
  5
118
  8
Layer_0
  10
208.48334
  20
161.1857
  42
-0.056075633
  0
VERTEX
  5
119
  8
Layer_0
  10
208.04494
  20
160.75977
  42
0.043604034
  0
VERTEX
  5
11a
  8
Layer_0
  10
207.72525
  20
160.4552
  42
0.086852085
  0
VERTEX
  5
11b
  8
Layer_0
  10
207.565
  20
160.18832
  42
0.10051629
  0
VERTEX
  5
11c
  8
Layer_0
  10
207.53726
  20
160.01764
  0
VERTEX
  5
11d
  8
Layer_0
  10
208.85921
  20
160.02464
  0
VERTEX
  5
11e
  8
Layer_0
  10
208.85796
  20
160.26067
  0
VERTEX
  5
11f
  8
Layer_0
  10
207.87708
  20
160.25546
  42
-0.052324037
  0
VERTEX
  5
120
  8
Layer_0
  10
207.98004
  20
160.38902
  0
SEQEND
  0
ENDSEC
  0
EOF
