  0
SECTION
  2
HEADER
  9
$ACADVER
  1
AC1009
  0
ENDSEC
  0
SECTION
  2
ENTITIES
  0
CIRCLE
  5
90
  8
Layer_1
  62
1
  10
184.96469
  20
194.68459
  30
0
  40
1.5
  0
CIRCLE
  5
90
  8
Layer_1
  62
1
  10
226.96469
  20
194.68459
  30
0
  40
1.5
  0
CIRCLE
  5
90
  8
Layer_1
  62
1
  10
184.96469
  20
154.68459
  30
0
  40
1.5
  0
CIRCLE
  5
90
  8
Layer_1
  62
1
  10
226.96469
  20
154.68459
  30
0
  40
1.5
  0
POLYLINE
  5
90
  8
Layer_1
  62
1
  66
1
  10
0
  20
0
  30
0
  0
VERTEX
  5
90
  8
Layer_1
  10
190.96469
  20
149.68459
  0
VERTEX
  5
91
  8
Layer_1
  10
190.96469
  20
146.68459
  0
VERTEX
  5
92
  8
Layer_1
  10
220.96469
  20
146.68459
  0
VERTEX
  5
93
  8
Layer_1
  10
220.96469
  20
149.68459
  0
VERTEX
  5
94
  8
Layer_1
  10
234.96469
  20
149.68459
  0
VERTEX
  5
95
  8
Layer_1
  10
234.96469
  20
159.73459
  0
VERTEX
  5
96
  8
Layer_1
  10
231.96469
  20
159.73459
  0
VERTEX
  5
97
  8
Layer_1
  10
231.96469
  20
189.63458
  0
VERTEX
  5
98
  8
Layer_1
  10
234.96469
  20
189.63458
  0
VERTEX
  5
99
  8
Layer_1
  10
234.96469
  20
199.68459
  0
VERTEX
  5
9a
  8
Layer_1
  10
220.96469
  20
199.68459
  0
VERTEX
  5
9b
  8
Layer_1
  10
220.96469
  20
202.68459
  0
VERTEX
  5
9c
  8
Layer_1
  10
190.96469
  20
202.68459
  0
VERTEX
  5
9d
  8
Layer_1
  10
190.96469
  20
199.68459
  0
VERTEX
  5
9e
  8
Layer_1
  10
176.96469
  20
199.68459
  0
VERTEX
  5
9f
  8
Layer_1
  10
176.96469
  20
189.63458
  0
VERTEX
  5
a0
  8
Layer_1
  10
179.96469
  20
189.63458
  0
VERTEX
  5
a1
  8
Layer_1
  10
179.96469
  20
159.73459
  0
VERTEX
  5
a2
  8
Layer_1
  10
176.96469
  20
159.73459
  0
VERTEX
  5
a3
  8
Layer_1
  10
176.96469
  20
149.68459
  0
VERTEX
  5
a4
  8
Layer_1
  10
190.96469
  20
149.68459
  0
SEQEND
  0
POLYLINE
  5
a6
  8
Layer_0
  62
3
  66
1
  10
0
  20
0
  30
0
  0
VERTEX
  5
a6
  8
Layer_0
  10
188.68172
  20
190.54285
  42
0.21986724
  0
VERTEX
  5
a7
  8
Layer_0
  10
188.89317
  20
190.45827
  42
0.14390823
  0
VERTEX
  5
a8
  8
Layer_0
  10
189.06508
  20
190.50397
  42
0.17409433
  0
VERTEX
  5
a9
  8
Layer_0
  10
189.16466
  20
190.62811
  42
0.07615238
  0
VERTEX
  5
aa
  8
Layer_0
  10
189.19196
  20
190.87846
  0
VERTEX
  5
ab
  8
Layer_0
  10
189.19196
  20
192.25636
  0
VERTEX
  5
ac
  8
Layer_0
  10
189.45662
  20
192.25636
  0
VERTEX
  5
ad
  8
Layer_0
  10
189.45662
  20
190.89346
  42
-0.099840578
  0
VERTEX
  5
ae
  8
Layer_0
  10
189.3959
  20
190.50465
  42
-0.1690854
  0
VERTEX
  5
af
  8
Layer_0
  10
189.20355
  20
190.29456
  42
-0.12733963
  0
VERTEX
  5
b0
  8
Layer_0
  10
188.89455
  20
190.22226
  42
-0.21509949
  0
VERTEX
  5
b1
  8
Layer_0
  10
188.49141
  20
190.37369
  42
-0.19419763
  0
VERTEX
  5
b2
  8
Layer_0
  10
188.35703
  20
190.82388
  0
VERTEX
  5
b3
  8
Layer_0
  10
188.59576
  20
190.85663
  42
0.16246609
  0
VERTEX
  5
b4
  8
Layer_0
  10
188.68172
  20
190.54285
  0
SEQEND
  0
POLYLINE
  5
b6
  8
Layer_0
  62
3
  66
1
  10
0
  20
0
  30
0
  0
VERTEX
  5
b6
  8
Layer_0
  10
190.22333
  20
191.99442
  0
VERTEX
  5
b7
  8
Layer_0
  10
191.02142
  20
191.99442
  0
VERTEX
  5
b8
  8
Layer_0
  10
191.02142
  20
192.22906
  0
VERTEX
  5
b9
  8
Layer_0
  10
190.02687
  20
192.22906
  0
VERTEX
  5
ba
  8
Layer_0
  10
189.83315
  20
191.20178
  0
VERTEX
  5
bb
  8
Layer_0
  10
190.06371
  20
191.17178
  42
-0.12523716
  0
VERTEX
  5
bc
  8
Layer_0
  10
190.21378
  20
191.31161
  42
-0.13109285
  0
VERTEX
  5
bd
  8
Layer_0
  10
190.42796
  20
191.36551
  42
-0.20995709
  0
VERTEX
  5
be
  8
Layer_0
  10
190.73697
  20
191.24408
  42
-0.20012724
  0
VERTEX
  5
bf
  8
Layer_0
  10
190.85498
  20
190.91257
  42
-0.1925008
  0
VERTEX
  5
c0
  8
Layer_0
  10
190.73219
  20
190.55786
  42
-0.21899643
  0
VERTEX
  5
c1
  8
Layer_0
  10
190.43205
  20
190.42416
  42
-0.19218148
  0
VERTEX
  5
c2
  8
Layer_0
  10
190.18036
  20
190.51898
  42
-0.17373223
  0
VERTEX
  5
c3
  8
Layer_0
  10
190.04733
  20
190.80206
  0
VERTEX
  5
c4
  8
Layer_0
  10
189.78949
  20
190.78024
  42
0.19553559
  0
VERTEX
  5
c5
  8
Layer_0
  10
189.98663
  20
190.37505
  42
0.18775294
  0
VERTEX
  5
c6
  8
Layer_0
  10
190.43205
  20
190.22226
  42
0.24030007
  0
VERTEX
  5
c7
  8
Layer_0
  10
190.95729
  20
190.46509
  42
0.17468498
  0
VERTEX
  5
c8
  8
Layer_0
  10
191.11555
  20
190.93439
  42
0.20471022
  0
VERTEX
  5
c9
  8
Layer_0
  10
190.93547
  20
191.40097
  42
0.20745879
  0
VERTEX
  5
ca
  8
Layer_0
  10
190.49345
  20
191.58241
  42
0.15633494
  0
VERTEX
  5
cb
  8
Layer_0
  10
190.11555
  20
191.45691
  0
VERTEX
  5
cc
  8
Layer_0
  10
190.22333
  20
191.99442
  0
SEQEND
  0
POLYLINE
  5
ce
  8
Layer_0
  62
3
  66
1
  10
0
  20
0
  30
0
  0
VERTEX
  5
ce
  8
Layer_0
  10
191.79358
  20
191.48828
  42
-0.12030532
  0
VERTEX
  5
cf
  8
Layer_0
  10
192.06235
  20
191.55377
  42
-0.21301895
  0
VERTEX
  5
d0
  8
Layer_0
  10
192.48048
  20
191.373
  42
-0.19889765
  0
VERTEX
  5
d1
  8
Layer_0
  10
192.65306
  20
190.90575
  42
-0.11826786
  0
VERTEX
  5
d2
  8
Layer_0
  10
192.5719
  20
190.55582
  42
-0.14346013
  0
VERTEX
  5
d3
  8
Layer_0
  10
192.34883
  20
190.3082
  42
-0.13922692
  0
VERTEX
  5
d4
  8
Layer_0
  10
192.02687
  20
190.22226
  42
-0.22870085
  0
VERTEX
  5
d5
  8
Layer_0
  10
191.52618
  20
190.44803
  42
-0.17291376
  0
VERTEX
  5
d6
  8
Layer_0
  10
191.33247
  20
191.19223
  42
-0.16680088
  0
VERTEX
  5
d7
  8
Layer_0
  10
191.54666
  20
192.03535
  42
-0.2359955
  0
VERTEX
  5
d8
  8
Layer_0
  10
192.05006
  20
192.26454
  42
-0.18663666
  0
VERTEX
  5
d9
  8
Layer_0
  10
192.43683
  20
192.13222
  42
-0.18721736
  0
VERTEX
  5
da
  8
Layer_0
  10
192.6176
  20
191.76659
  0
VERTEX
  5
db
  8
Layer_0
  10
192.3734
  20
191.7475
  42
0.12578444
  0
VERTEX
  5
dc
  8
Layer_0
  10
192.28062
  20
191.95758
  42
0.213526
  0
VERTEX
  5
dd
  8
Layer_0
  10
192.03506
  20
192.06264
  42
0.16389682
  0
VERTEX
  5
de
  8
Layer_0
  10
191.82906
  20
191.99715
  42
0.13970354
  0
VERTEX
  5
df
  8
Layer_0
  10
191.64624
  20
191.75021
  42
0.091166986
  0
VERTEX
  5
e0
  8
Layer_0
  10
191.57668
  20
191.28773
  42
-0.13181098
  0
VERTEX
  5
e1
  8
Layer_0
  10
191.79358
  20
191.48828
  0
SEQEND
  0
POLYLINE
  5
e3
  8
Layer_0
  62
3
  66
1
  10
0
  20
0
  30
0
  0
VERTEX
  5
e3
  8
Layer_0
  10
191.8195
  20
190.48486
  42
0.14367675
  0
VERTEX
  5
e4
  8
Layer_0
  10
192.02278
  20
190.42416
  42
0.22261687
  0
VERTEX
  5
e5
  8
Layer_0
  10
192.29018
  20
190.54968
  42
0.1874473
  0
VERTEX
  5
e6
  8
Layer_0
  10
192.40204
  20
190.89075
  42
0.19275618
  0
VERTEX
  5
e7
  8
Layer_0
  10
192.29153
  20
191.21747
  42
0.21753407
  0
VERTEX
  5
e8
  8
Layer_0
  10
192.01323
  20
191.33685
  42
0.21053395
  0
VERTEX
  5
e9
  8
Layer_0
  10
191.73083
  20
191.21747
  42
0.20104717
  0
VERTEX
  5
ea
  8
Layer_0
  10
191.61487
  20
190.90439
  42
0.11004123
  0
VERTEX
  5
eb
  8
Layer_0
  10
191.66876
  20
190.66154
  42
0.1479428
  0
VERTEX
  5
ec
  8
Layer_0
  10
191.8195
  20
190.48486
  0
SEQEND
  0
POLYLINE
  5
ee
  8
Layer_0
  62
3
  66
1
  10
0
  20
0
  30
0
  0
VERTEX
  5
ee
  8
Layer_0
  10
194.36658
  20
189.70111
  0
VERTEX
  5
ef
  8
Layer_0
  10
194.36658
  20
189.87846
  0
VERTEX
  5
f0
  8
Layer_0
  10
192.73901
  20
189.87846
  0
VERTEX
  5
f1
  8
Layer_0
  10
192.73901
  20
189.70111
  0
VERTEX
  5
f2
  8
Layer_0
  10
194.36658
  20
189.70111
  0
SEQEND
  0
POLYLINE
  5
f4
  8
Layer_0
  62
3
  66
1
  10
0
  20
0
  30
0
  0
VERTEX
  5
f4
  8
Layer_0
  10
194.74039
  20
190.54285
  42
0.21965623
  0
VERTEX
  5
f5
  8
Layer_0
  10
194.95184
  20
190.45827
  42
0.14347236
  0
VERTEX
  5
f6
  8
Layer_0
  10
195.12373
  20
190.50397
  42
0.17408365
  0
VERTEX
  5
f7
  8
Layer_0
  10
195.22333
  20
190.62811
  42
0.075953523
  0
VERTEX
  5
f8
  8
Layer_0
  10
195.25061
  20
190.87846
  0
VERTEX
  5
f9
  8
Layer_0
  10
195.25061
  20
192.25636
  0
VERTEX
  5
fa
  8
Layer_0
  10
195.51527
  20
192.25636
  0
VERTEX
  5
fb
  8
Layer_0
  10
195.51527
  20
190.89346
  42
-0.099807186
  0
VERTEX
  5
fc
  8
Layer_0
  10
195.45457
  20
190.50465
  42
-0.16926177
  0
VERTEX
  5
fd
  8
Layer_0
  10
195.26221
  20
190.29456
  42
-0.12738671
  0
VERTEX
  5
fe
  8
Layer_0
  10
194.9532
  20
190.22226
  42
-0.21511966
  0
VERTEX
  5
ff
  8
Layer_0
  10
194.55006
  20
190.37369
  42
-0.19416773
  0
VERTEX
  5
100
  8
Layer_0
  10
194.41568
  20
190.82388
  0
VERTEX
  5
101
  8
Layer_0
  10
194.65443
  20
190.85663
  42
0.16256402
  0
VERTEX
  5
102
  8
Layer_0
  10
194.74039
  20
190.54285
  0
SEQEND
  0
POLYLINE
  5
104
  8
Layer_0
  62
3
  66
1
  10
0
  20
0
  30
0
  0
VERTEX
  5
104
  8
Layer_0
  10
196.5753
  20
190.85663
  0
VERTEX
  5
105
  8
Layer_0
  10
196.5753
  20
191.10356
  0
VERTEX
  5
106
  8
Layer_0
  10
195.82088
  20
191.10356
  0
VERTEX
  5
107
  8
Layer_0
  10
195.82088
  20
190.85663
  0
VERTEX
  5
108
  8
Layer_0
  10
196.5753
  20
190.85663
  0
SEQEND
  0
POLYLINE
  5
10a
  8
Layer_0
  62
3
  66
1
  10
0
  20
0
  30
0
  0
VERTEX
  5
10a
  8
Layer_0
  10
197.81133
  20
190.25636
  0
VERTEX
  5
10b
  8
Layer_0
  10
197.81133
  20
190.73521
  0
VERTEX
  5
10c
  8
Layer_0
  10
198.08145
  20
190.73521
  0
VERTEX
  5
10d
  8
Layer_0
  10
198.08145
  20
190.96031
  0
VERTEX
  5
10e
  8
Layer_0
  10
197.81133
  20
190.96031
  0
VERTEX
  5
10f
  8
Layer_0
  10
197.81133
  20
192.25636
  0
VERTEX
  5
110
  8
Layer_0
  10
197.61078
  20
192.25636
  0
VERTEX
  5
111
  8
Layer_0
  10
196.69809
  20
190.96031
  0
VERTEX
  5
112
  8
Layer_0
  10
196.69809
  20
190.73521
  0
VERTEX
  5
113
  8
Layer_0
  10
197.56575
  20
190.73521
  0
VERTEX
  5
114
  8
Layer_0
  10
197.56575
  20
190.25636
  0
VERTEX
  5
115
  8
Layer_0
  10
197.81133
  20
190.25636
  0
SEQEND
  0
POLYLINE
  5
117
  8
Layer_0
  62
3
  66
1
  10
0
  20
0
  30
0
  0
VERTEX
  5
117
  8
Layer_0
  10
196.93956
  20
190.96031
  0
VERTEX
  5
118
  8
Layer_0
  10
197.56575
  20
190.96031
  0
VERTEX
  5
119
  8
Layer_0
  10
197.56575
  20
191.86209
  0
VERTEX
  5
11a
  8
Layer_0
  10
196.93956
  20
190.96031
  0
SEQEND
  0
ENDSEC
  0
EOF
