  0
SECTION
  2
HEADER
  9
$ACADVER
  1
AC1009
  0
ENDSEC
  0
SECTION
  2
ENTITIES
  0
CIRCLE
  5
90
  8
Layer_1
  62
1
  10
112.8183
  20
283.87253
  30
0
  40
1.5
  0
CIRCLE
  5
90
  8
Layer_1
  62
1
  10
154.8183
  20
283.87253
  30
0
  40
1.5
  0
CIRCLE
  5
90
  8
Layer_1
  62
1
  10
154.8183
  20
331.87253
  30
0
  40
1.5
  0
CIRCLE
  5
90
  8
Layer_1
  62
1
  10
112.8183
  20
331.87253
  30
0
  40
1.5
  0
CIRCLE
  5
90
  8
Layer_1
  62
1
  10
133.8183
  20
307.87253
  30
0
  40
18.5
  0
CIRCLE
  5
90
  8
Layer_1
  62
1
  10
133.8183
  20
283.87253
  30
0
  40
3.0749969
  0
CIRCLE
  5
90
  8
Layer_1
  62
1
  10
154.60291
  20
319.87253
  30
0
  40
3.0749969
  0
CIRCLE
  5
90
  8
Layer_1
  62
1
  10
113.0337
  20
319.87253
  30
0
  40
3.0749969
  0
POLYLINE
  5
90
  8
Layer_1
  62
1
  66
1
  10
0
  20
0
  30
0
  0
VERTEX
  5
90
  8
Layer_1
  10
104.81831
  20
339.87253
  0
VERTEX
  5
91
  8
Layer_1
  10
104.81831
  20
322.82251
  0
VERTEX
  5
92
  8
Layer_1
  10
107.81831
  20
322.82251
  0
VERTEX
  5
93
  8
Layer_1
  10
107.81831
  20
292.92255
  0
VERTEX
  5
94
  8
Layer_1
  10
104.81831
  20
292.92255
  0
VERTEX
  5
95
  8
Layer_1
  10
104.81831
  20
275.87253
  0
VERTEX
  5
96
  8
Layer_1
  10
118.86831
  20
275.87253
  0
VERTEX
  5
97
  8
Layer_1
  10
118.86831
  20
278.87253
  0
VERTEX
  5
98
  8
Layer_1
  10
148.76831
  20
278.87253
  0
VERTEX
  5
99
  8
Layer_1
  10
148.76831
  20
275.87253
  0
VERTEX
  5
9a
  8
Layer_1
  10
162.8183
  20
275.87253
  0
VERTEX
  5
9b
  8
Layer_1
  10
162.8183
  20
292.92255
  0
VERTEX
  5
9c
  8
Layer_1
  10
159.8183
  20
292.92255
  0
VERTEX
  5
9d
  8
Layer_1
  10
159.8183
  20
322.82251
  0
VERTEX
  5
9e
  8
Layer_1
  10
162.8183
  20
322.82251
  0
VERTEX
  5
9f
  8
Layer_1
  10
162.8183
  20
339.87253
  0
VERTEX
  5
a0
  8
Layer_1
  10
148.76831
  20
339.87253
  0
VERTEX
  5
a1
  8
Layer_1
  10
148.76831
  20
336.87253
  0
VERTEX
  5
a2
  8
Layer_1
  10
118.86831
  20
336.87253
  0
VERTEX
  5
a3
  8
Layer_1
  10
118.86831
  20
339.87253
  0
VERTEX
  5
a4
  8
Layer_1
  10
104.81831
  20
339.87253
  0
SEQEND
  0
POLYLINE
  5
a6
  8
Layer_0
  62
3
  66
1
  10
0
  20
0
  30
0
  0
VERTEX
  5
a6
  8
Layer_0
  10
116.6231
  20
281.95258
  42
0.21993416
  0
VERTEX
  5
a7
  8
Layer_0
  10
116.83582
  20
281.87119
  42
0.14375353
  0
VERTEX
  5
a8
  8
Layer_0
  10
117.00699
  20
281.91946
  42
0.17421302
  0
VERTEX
  5
a9
  8
Layer_0
  10
117.10471
  20
282.04507
  42
0.07614618
  0
VERTEX
  5
aa
  8
Layer_0
  10
117.12824
  20
282.29578
  0
VERTEX
  5
ab
  8
Layer_0
  10
117.10758
  20
283.67355
  0
VERTEX
  5
ac
  8
Layer_0
  10
117.37222
  20
283.67749
  0
VERTEX
  5
ad
  8
Layer_0
  10
117.39264
  20
282.31476
  42
-0.099811406
  0
VERTEX
  5
ae
  8
Layer_0
  10
117.33777
  20
281.92508
  42
-0.16906696
  0
VERTEX
  5
af
  8
Layer_0
  10
117.14861
  20
281.71213
  42
-0.12733302
  0
VERTEX
  5
b0
  8
Layer_0
  10
116.8407
  20
281.63522
  42
-0.21518047
  0
VERTEX
  5
b1
  8
Layer_0
  10
116.43534
  20
281.78058
  42
-0.19423742
  0
VERTEX
  5
b2
  8
Layer_0
  10
116.29424
  20
282.2287
  0
VERTEX
  5
b3
  8
Layer_0
  10
116.53246
  20
282.26505
  42
0.16244442
  0
VERTEX
  5
b4
  8
Layer_0
  10
116.6231
  20
281.95258
  0
SEQEND
  0
POLYLINE
  5
b6
  8
Layer_0
  62
3
  66
1
  10
0
  20
0
  30
0
  0
VERTEX
  5
b6
  8
Layer_0
  10
118.14277
  20
283.42709
  0
VERTEX
  5
b7
  8
Layer_0
  10
118.94077
  20
283.43906
  0
VERTEX
  5
b8
  8
Layer_0
  10
118.93725
  20
283.67371
  0
VERTEX
  5
b9
  8
Layer_0
  10
117.94283
  20
283.65878
  0
VERTEX
  5
ba
  8
Layer_0
  10
117.76452
  20
282.62872
  0
VERTEX
  5
bb
  8
Layer_0
  10
117.9955
  20
282.60214
  42
-0.12516242
  0
VERTEX
  5
bc
  8
Layer_0
  10
118.14346
  20
282.74423
  42
-0.13098132
  0
VERTEX
  5
bd
  8
Layer_0
  10
118.35682
  20
282.8013
  42
-0.20973837
  0
VERTEX
  5
be
  8
Layer_0
  10
118.66761
  20
282.68454
  42
-0.20017222
  0
VERTEX
  5
bf
  8
Layer_0
  10
118.79057
  20
282.35483
  42
-0.19247132
  0
VERTEX
  5
c0
  8
Layer_0
  10
118.67312
  20
281.99832
  42
-0.21873312
  0
VERTEX
  5
c1
  8
Layer_0
  10
118.37502
  20
281.86014
  42
-0.19261556
  0
VERTEX
  5
c2
  8
Layer_0
  10
118.12193
  20
281.95117
  42
-0.17367194
  0
VERTEX
  5
c3
  8
Layer_0
  10
117.98467
  20
282.23224
  0
VERTEX
  5
c4
  8
Layer_0
  10
117.7272
  20
282.20654
  42
0.1955084
  0
VERTEX
  5
c5
  8
Layer_0
  10
117.93038
  20
281.80435
  42
0.18769705
  0
VERTEX
  5
c6
  8
Layer_0
  10
118.37804
  20
281.65826
  42
0.24022561
  0
VERTEX
  5
c7
  8
Layer_0
  10
118.89959
  20
281.90894
  42
0.17470215
  0
VERTEX
  5
c8
  8
Layer_0
  10
119.05079
  20
282.38058
  42
0.2047465
  0
VERTEX
  5
c9
  8
Layer_0
  10
118.86373
  20
282.84439
  42
0.207375
  0
VERTEX
  5
ca
  8
Layer_0
  10
118.41904
  20
283.0192
  42
0.15638848
  0
VERTEX
  5
cb
  8
Layer_0
  10
118.04308
  20
282.88803
  0
VERTEX
  5
cc
  8
Layer_0
  10
118.14277
  20
283.42709
  0
SEQEND
  0
POLYLINE
  5
ce
  8
Layer_0
  62
3
  66
1
  10
0
  20
0
  30
0
  0
VERTEX
  5
ce
  8
Layer_0
  10
119.72043
  20
282.94455
  42
-0.12010141
  0
VERTEX
  5
cf
  8
Layer_0
  10
119.98818
  20
283.01407
  42
-0.21303365
  0
VERTEX
  5
d0
  8
Layer_0
  10
120.409
  20
282.83957
  42
-0.19882619
  0
VERTEX
  5
d1
  8
Layer_0
  10
120.58855
  20
282.37497
  42
-0.11827443
  0
VERTEX
  5
d2
  8
Layer_0
  10
120.51264
  20
282.02386
  42
-0.14352273
  0
VERTEX
  5
d3
  8
Layer_0
  10
120.29333
  20
281.77292
  42
-0.13919434
  0
VERTEX
  5
d4
  8
Layer_0
  10
119.97268
  20
281.68216
  42
-0.22865982
  0
VERTEX
  5
d5
  8
Layer_0
  10
119.46868
  20
281.90042
  42
-0.17289019
  0
VERTEX
  5
d6
  8
Layer_0
  10
119.26381
  20
282.64163
  42
-0.16682135
  0
VERTEX
  5
d7
  8
Layer_0
  10
119.46534
  20
283.48785
  42
-0.23601824
  0
VERTEX
  5
d8
  8
Layer_0
  10
119.96526
  20
283.72458
  42
-0.18672553
  0
VERTEX
  5
d9
  8
Layer_0
  10
120.35397
  20
283.59805
  42
-0.1873068
  0
VERTEX
  5
da
  8
Layer_0
  10
120.54018
  20
283.23517
  0
VERTEX
  5
db
  8
Layer_0
  10
120.2963
  20
283.21243
  42
0.12573804
  0
VERTEX
  5
dc
  8
Layer_0
  10
120.20038
  20
283.42111
  42
0.21413327
  0
VERTEX
  5
dd
  8
Layer_0
  10
119.95327
  20
283.52246
  42
0.16389727
  0
VERTEX
  5
de
  8
Layer_0
  10
119.74828
  20
283.45389
  42
0.13962616
  0
VERTEX
  5
df
  8
Layer_0
  10
119.56919
  20
283.20425
  42
0.091156144
  0
VERTEX
  5
e0
  8
Layer_0
  10
119.50655
  20
282.74078
  42
-0.13175211
  0
VERTEX
  5
e1
  8
Layer_0
  10
119.72043
  20
282.94455
  0
SEQEND
  0
POLYLINE
  5
e3
  8
Layer_0
  62
3
  66
1
  10
0
  20
0
  30
0
  0
VERTEX
  5
e3
  8
Layer_0
  10
119.7614
  20
281.94165
  42
0.14327176
  0
VERTEX
  5
e4
  8
Layer_0
  10
119.96557
  20
281.884
  42
0.22285621
  0
VERTEX
  5
e5
  8
Layer_0
  10
120.23105
  20
282.01349
  42
0.18736595
  0
VERTEX
  5
e6
  8
Layer_0
  10
120.33779
  20
282.3562
  42
0.19277057
  0
VERTEX
  5
e7
  8
Layer_0
  10
120.2224
  20
282.68124
  42
0.21745454
  0
VERTEX
  5
e8
  8
Layer_0
  10
119.94233
  20
282.79642
  42
0.21061624
  0
VERTEX
  5
e9
  8
Layer_0
  10
119.66175
  20
282.67282
  42
0.2010908
  0
VERTEX
  5
ea
  8
Layer_0
  10
119.5505
  20
282.35806
  42
0.11028429
  0
VERTEX
  5
eb
  8
Layer_0
  10
119.60802
  20
282.11603
  42
0.14748203
  0
VERTEX
  5
ec
  8
Layer_0
  10
119.7614
  20
281.94165
  0
SEQEND
  0
POLYLINE
  5
ee
  8
Layer_0
  62
3
  66
1
  10
0
  20
0
  30
0
  0
VERTEX
  5
ee
  8
Layer_0
  10
122.31728
  20
281.3735
  0
VERTEX
  5
ef
  8
Layer_0
  10
122.31994
  20
281.19617
  0
VERTEX
  5
f0
  8
Layer_0
  10
120.69256
  20
281.17175
  0
VERTEX
  5
f1
  8
Layer_0
  10
120.6899
  20
281.34909
  0
VERTEX
  5
f2
  8
Layer_0
  10
122.31728
  20
281.3735
  0
SEQEND
  0
POLYLINE
  5
f4
  8
Layer_0
  62
3
  66
1
  10
0
  20
0
  30
0
  0
VERTEX
  5
f4
  8
Layer_0
  10
122.68108
  20
282.04343
  42
0.21974744
  0
VERTEX
  5
f5
  8
Layer_0
  10
122.89379
  20
281.96204
  42
0.14388221
  0
VERTEX
  5
f6
  8
Layer_0
  10
123.06498
  20
282.01028
  42
0.17401886
  0
VERTEX
  5
f7
  8
Layer_0
  10
123.16269
  20
282.13593
  42
0.076124135
  0
VERTEX
  5
f8
  8
Layer_0
  10
123.18622
  20
282.38663
  0
VERTEX
  5
f9
  8
Layer_0
  10
123.16557
  20
283.7644
  0
VERTEX
  5
fa
  8
Layer_0
  10
123.4302
  20
283.76834
  0
VERTEX
  5
fb
  8
Layer_0
  10
123.45063
  20
282.40561
  42
-0.099839634
  0
VERTEX
  5
fc
  8
Layer_0
  10
123.39576
  20
282.01593
  42
-0.16903962
  0
VERTEX
  5
fd
  8
Layer_0
  10
123.20656
  20
281.80298
  42
-0.12727828
  0
VERTEX
  5
fe
  8
Layer_0
  10
122.89869
  20
281.72604
  42
-0.21506262
  0
VERTEX
  5
ff
  8
Layer_0
  10
122.49332
  20
281.8714
  42
-0.1942805
  0
VERTEX
  5
100
  8
Layer_0
  10
122.35221
  20
282.31955
  0
VERTEX
  5
101
  8
Layer_0
  10
122.59044
  20
282.35587
  42
0.16247616
  0
VERTEX
  5
102
  8
Layer_0
  10
122.68108
  20
282.04343
  0
SEQEND
  0
POLYLINE
  5
104
  8
Layer_0
  62
3
  66
1
  10
0
  20
0
  30
0
  0
VERTEX
  5
104
  8
Layer_0
  10
124.5111
  20
282.38467
  0
VERTEX
  5
105
  8
Layer_0
  10
124.50739
  20
282.63156
  0
VERTEX
  5
106
  8
Layer_0
  10
123.75304
  20
282.62027
  0
VERTEX
  5
107
  8
Layer_0
  10
123.75675
  20
282.37338
  0
VERTEX
  5
108
  8
Layer_0
  10
124.5111
  20
282.38467
  0
SEQEND
  0
POLYLINE
  5
10a
  8
Layer_0
  62
3
  66
1
  10
0
  20
0
  30
0
  0
VERTEX
  5
10a
  8
Layer_0
  10
125.84768
  20
283.05692
  42
0.14865322
  0
VERTEX
  5
10b
  8
Layer_0
  10
125.91372
  20
283.29395
  42
0.13845447
  0
VERTEX
  5
10c
  8
Layer_0
  10
125.83687
  20
283.55066
  42
0.14272355
  0
VERTEX
  5
10d
  8
Layer_0
  10
125.62325
  20
283.73917
  42
0.11999719
  0
VERTEX
  5
10e
  8
Layer_0
  10
125.32073
  20
283.80487
  42
0.18267662
  0
VERTEX
  5
10f
  8
Layer_0
  10
124.9258
  20
283.66321
  42
0.17679654
  0
VERTEX
  5
110
  8
Layer_0
  10
124.72692
  20
283.27753
  0
VERTEX
  5
111
  8
Layer_0
  10
124.97312
  20
283.23752
  42
-0.1680726
  0
VERTEX
  5
112
  8
Layer_0
  10
125.09184
  20
283.50946
  42
-0.19755776
  0
VERTEX
  5
113
  8
Layer_0
  10
125.32921
  20
283.60306
  42
-0.20138259
  0
VERTEX
  5
114
  8
Layer_0
  10
125.56652
  20
283.51794
  42
-0.21058685
  0
VERTEX
  5
115
  8
Layer_0
  10
125.66129
  20
283.29562
  42
-0.26803729
  0
VERTEX
  5
116
  8
Layer_0
  10
125.53956
  20
283.04135
  42
-0.14824248
  0
VERTEX
  5
117
  8
Layer_0
  10
125.25842
  20
282.95529
  42
-0.027161558
  0
VERTEX
  5
118
  8
Layer_0
  10
125.21882
  20
282.95743
  0
VERTEX
  5
119
  8
Layer_0
  10
125.19477
  20
282.74149
  42
-0.062237813
  0
VERTEX
  5
11a
  8
Layer_0
  10
125.36761
  20
282.77136
  42
-0.20504696
  0
VERTEX
  5
11b
  8
Layer_0
  10
125.65026
  20
282.66577
  42
-0.20693162
  0
VERTEX
  5
11c
  8
Layer_0
  10
125.76493
  20
282.38846
  42
-0.2054321
  0
VERTEX
  5
11d
  8
Layer_0
  10
125.65003
  20
282.08932
  42
-0.20714828
  0
VERTEX
  5
11e
  8
Layer_0
  10
125.35923
  20
281.96487
  42
-0.19205582
  0
VERTEX
  5
11f
  8
Layer_0
  10
125.11028
  20
282.05325
  42
-0.15729668
  0
VERTEX
  5
120
  8
Layer_0
  10
124.96185
  20
282.35187
  0
VERTEX
  5
121
  8
Layer_0
  10
124.71679
  20
282.31543
  42
0.19266221
  0
VERTEX
  5
122
  8
Layer_0
  10
124.92136
  20
281.91193
  42
0.19094127
  0
VERTEX
  5
123
  8
Layer_0
  10
125.36091
  20
281.7616
  42
0.19910078
  0
VERTEX
  5
124
  8
Layer_0
  10
125.84107
  20
281.95096
  42
0.2131879
  0
VERTEX
  5
125
  8
Layer_0
  10
126.0254
  20
282.39783
  42
0.16719428
  0
VERTEX
  5
126
  8
Layer_0
  10
125.92234
  20
282.71896
  42
0.17949789
  0
VERTEX
  5
127
  8
Layer_0
  10
125.64425
  20
282.88467
  42
0.14284049
  0
VERTEX
  5
128
  8
Layer_0
  10
125.84768
  20
283.05692
  0
SEQEND
  0
ENDSEC
  0
EOF
