  0
SECTION
  2
HEADER
  9
$ACADVER
  1
AC1009
  0
ENDSEC
  0
SECTION
  2
ENTITIES
  0
CIRCLE
  5
90
  8
Layer_1
  62
1
  10
195.46631
  20
188.20703
  30
0
  40
1.5
  0
CIRCLE
  5
90
  8
Layer_1
  62
1
  10
235.46631
  20
188.20703
  30
0
  40
1.5
  0
CIRCLE
  5
90
  8
Layer_1
  62
1
  10
195.46631
  20
236.20703
  30
0
  40
1.5
  0
CIRCLE
  5
90
  8
Layer_1
  62
1
  10
235.46631
  20
236.20703
  30
0
  40
1.5
  0
CIRCLE
  5
90
  8
Layer_1
  62
1
  10
215.46631
  20
212.20703
  30
0
  40
17.5
  0
CIRCLE
  5
90
  8
Layer_1
  62
1
  10
215.46631
  20
232.20703
  30
0
  40
1.5
  0
CIRCLE
  5
90
  8
Layer_1
  62
1
  10
198.1458
  20
202.20703
  30
0
  40
1.5
  0
CIRCLE
  5
90
  8
Layer_1
  62
1
  10
232.78682
  20
202.20703
  30
0
  40
1.5
  0
POLYLINE
  5
90
  8
Layer_1
  62
1
  66
1
  10
0
  20
0
  30
0
  0
VERTEX
  5
90
  8
Layer_1
  10
200.46631
  20
241.20703
  0
VERTEX
  5
91
  8
Layer_1
  10
200.46631
  20
244.20703
  0
VERTEX
  5
92
  8
Layer_1
  10
230.46631
  20
244.20703
  0
VERTEX
  5
93
  8
Layer_1
  10
230.46631
  20
241.20703
  0
VERTEX
  5
94
  8
Layer_1
  10
240.46631
  20
241.20703
  0
VERTEX
  5
95
  8
Layer_1
  10
240.46631
  20
227.20703
  0
VERTEX
  5
96
  8
Layer_1
  10
243.46631
  20
227.20703
  0
VERTEX
  5
97
  8
Layer_1
  10
243.46631
  20
197.20703
  0
VERTEX
  5
98
  8
Layer_1
  10
240.46631
  20
197.20703
  0
VERTEX
  5
99
  8
Layer_1
  10
240.46631
  20
183.20703
  0
VERTEX
  5
9a
  8
Layer_1
  10
230.46631
  20
183.20703
  0
VERTEX
  5
9b
  8
Layer_1
  10
230.46631
  20
180.20703
  0
VERTEX
  5
9c
  8
Layer_1
  10
200.46631
  20
180.20703
  0
VERTEX
  5
9d
  8
Layer_1
  10
200.46631
  20
183.20703
  0
VERTEX
  5
9e
  8
Layer_1
  10
190.46631
  20
183.20703
  0
VERTEX
  5
9f
  8
Layer_1
  10
190.46631
  20
197.20703
  0
VERTEX
  5
a0
  8
Layer_1
  10
187.46631
  20
197.20703
  0
VERTEX
  5
a1
  8
Layer_1
  10
187.46631
  20
227.20703
  0
VERTEX
  5
a2
  8
Layer_1
  10
190.46631
  20
227.20703
  0
VERTEX
  5
a3
  8
Layer_1
  10
190.46631
  20
241.20703
  0
VERTEX
  5
a4
  8
Layer_1
  10
200.46631
  20
241.20703
  0
SEQEND
  0
POLYLINE
  5
a6
  8
Layer_0
  62
3
  66
1
  10
0
  20
0
  30
0
  0
VERTEX
  5
a6
  8
Layer_0
  10
201.5379
  20
186.83313
  42
0.21977961
  0
VERTEX
  5
a7
  8
Layer_0
  10
201.74936
  20
186.74855
  42
0.14385823
  0
VERTEX
  5
a8
  8
Layer_0
  10
201.92125
  20
186.79425
  42
0.17422369
  0
VERTEX
  5
a9
  8
Layer_0
  10
202.02084
  20
186.9184
  42
0.076134705
  0
VERTEX
  5
aa
  8
Layer_0
  10
202.04813
  20
187.16875
  0
VERTEX
  5
ab
  8
Layer_0
  10
202.04813
  20
188.54665
  0
VERTEX
  5
ac
  8
Layer_0
  10
202.31279
  20
188.54665
  0
VERTEX
  5
ad
  8
Layer_0
  10
202.31279
  20
187.18375
  42
-0.099830471
  0
VERTEX
  5
ae
  8
Layer_0
  10
202.25209
  20
186.79494
  42
-0.16901547
  0
VERTEX
  5
af
  8
Layer_0
  10
202.05972
  20
186.58484
  42
-0.12736304
  0
VERTEX
  5
b0
  8
Layer_0
  10
201.75072
  20
186.51253
  42
-0.21506322
  0
VERTEX
  5
b1
  8
Layer_0
  10
201.34758
  20
186.66397
  42
-0.19423955
  0
VERTEX
  5
b2
  8
Layer_0
  10
201.21321
  20
187.11417
  0
VERTEX
  5
b3
  8
Layer_0
  10
201.45195
  20
187.14691
  42
0.16243807
  0
VERTEX
  5
b4
  8
Layer_0
  10
201.5379
  20
186.83313
  0
SEQEND
  0
POLYLINE
  5
b6
  8
Layer_0
  62
3
  66
1
  10
0
  20
0
  30
0
  0
VERTEX
  5
b6
  8
Layer_0
  10
203.07951
  20
188.2847
  0
VERTEX
  5
b7
  8
Layer_0
  10
203.87759
  20
188.2847
  0
VERTEX
  5
b8
  8
Layer_0
  10
203.87759
  20
188.51935
  0
VERTEX
  5
b9
  8
Layer_0
  10
202.88306
  20
188.51935
  0
VERTEX
  5
ba
  8
Layer_0
  10
202.68933
  20
187.49207
  0
VERTEX
  5
bb
  8
Layer_0
  10
202.91989
  20
187.46205
  42
-0.12506728
  0
VERTEX
  5
bc
  8
Layer_0
  10
203.06996
  20
187.6019
  42
-0.13096383
  0
VERTEX
  5
bd
  8
Layer_0
  10
203.28415
  20
187.65578
  42
-0.20976218
  0
VERTEX
  5
be
  8
Layer_0
  10
203.59315
  20
187.53436
  42
-0.20014995
  0
VERTEX
  5
bf
  8
Layer_0
  10
203.71115
  20
187.20285
  42
-0.19247897
  0
VERTEX
  5
c0
  8
Layer_0
  10
203.58838
  20
186.84814
  42
-0.21869322
  0
VERTEX
  5
c1
  8
Layer_0
  10
203.28824
  20
186.71445
  42
-0.1925255
  0
VERTEX
  5
c2
  8
Layer_0
  10
203.03653
  20
186.80927
  42
-0.17367866
  0
VERTEX
  5
c3
  8
Layer_0
  10
202.90352
  20
187.09235
  0
VERTEX
  5
c4
  8
Layer_0
  10
202.64568
  20
187.07051
  42
0.19548341
  0
VERTEX
  5
c5
  8
Layer_0
  10
202.8428
  20
186.66533
  42
0.18776936
  0
VERTEX
  5
c6
  8
Layer_0
  10
203.28824
  20
186.51253
  42
0.24024149
  0
VERTEX
  5
c7
  8
Layer_0
  10
203.81348
  20
186.75537
  42
0.17471781
  0
VERTEX
  5
c8
  8
Layer_0
  10
203.97173
  20
187.22467
  42
0.20466801
  0
VERTEX
  5
c9
  8
Layer_0
  10
203.79166
  20
187.69125
  42
0.20735543
  0
VERTEX
  5
ca
  8
Layer_0
  10
203.34962
  20
187.8727
  42
0.15633907
  0
VERTEX
  5
cb
  8
Layer_0
  10
202.97173
  20
187.74719
  0
VERTEX
  5
cc
  8
Layer_0
  10
203.07951
  20
188.2847
  0
SEQEND
  0
POLYLINE
  5
ce
  8
Layer_0
  62
3
  66
1
  10
0
  20
0
  30
0
  0
VERTEX
  5
ce
  8
Layer_0
  10
204.64977
  20
187.77856
  42
-0.12009827
  0
VERTEX
  5
cf
  8
Layer_0
  10
204.91852
  20
187.84404
  42
-0.21301898
  0
VERTEX
  5
d0
  8
Layer_0
  10
205.33667
  20
187.66328
  42
-0.19882088
  0
VERTEX
  5
d1
  8
Layer_0
  10
205.50925
  20
187.19603
  42
-0.11829904
  0
VERTEX
  5
d2
  8
Layer_0
  10
205.42807
  20
186.8461
  42
-0.14351292
  0
VERTEX
  5
d3
  8
Layer_0
  10
205.20502
  20
186.59848
  42
-0.13920606
  0
VERTEX
  5
d4
  8
Layer_0
  10
204.88306
  20
186.51253
  42
-0.22867266
  0
VERTEX
  5
d5
  8
Layer_0
  10
204.38237
  20
186.73831
  42
-0.17288381
  0
VERTEX
  5
d6
  8
Layer_0
  10
204.18864
  20
187.48251
  42
-0.16681969
  0
VERTEX
  5
d7
  8
Layer_0
  10
204.40283
  20
188.32562
  42
-0.23599368
  0
VERTEX
  5
d8
  8
Layer_0
  10
204.90625
  20
188.55482
  42
-0.18663904
  0
VERTEX
  5
d9
  8
Layer_0
  10
205.29301
  20
188.42249
  42
-0.18726091
  0
VERTEX
  5
da
  8
Layer_0
  10
205.47379
  20
188.05687
  0
VERTEX
  5
db
  8
Layer_0
  10
205.22958
  20
188.03777
  42
0.12576399
  0
VERTEX
  5
dc
  8
Layer_0
  10
205.13681
  20
188.24786
  42
0.21403975
  0
VERTEX
  5
dd
  8
Layer_0
  10
204.89124
  20
188.35292
  42
0.16408634
  0
VERTEX
  5
de
  8
Layer_0
  10
204.68524
  20
188.28743
  42
0.13964865
  0
VERTEX
  5
df
  8
Layer_0
  10
204.50243
  20
188.0405
  42
0.091127688
  0
VERTEX
  5
e0
  8
Layer_0
  10
204.43285
  20
187.57802
  42
-0.13184539
  0
VERTEX
  5
e1
  8
Layer_0
  10
204.64977
  20
187.77856
  0
SEQEND
  0
POLYLINE
  5
e3
  8
Layer_0
  62
3
  66
1
  10
0
  20
0
  30
0
  0
VERTEX
  5
e3
  8
Layer_0
  10
204.67569
  20
186.77515
  42
0.14334781
  0
VERTEX
  5
e4
  8
Layer_0
  10
204.87897
  20
186.71445
  42
0.22279583
  0
VERTEX
  5
e5
  8
Layer_0
  10
205.14636
  20
186.83995
  42
0.1873562
  0
VERTEX
  5
e6
  8
Layer_0
  10
205.25822
  20
187.18102
  42
0.19276377
  0
VERTEX
  5
e7
  8
Layer_0
  10
205.14772
  20
187.50775
  42
0.21748968
  0
VERTEX
  5
e8
  8
Layer_0
  10
204.86942
  20
187.62714
  42
0.21052618
  0
VERTEX
  5
e9
  8
Layer_0
  10
204.58701
  20
187.50775
  42
0.20111602
  0
VERTEX
  5
ea
  8
Layer_0
  10
204.47105
  20
187.19466
  42
0.11038301
  0
VERTEX
  5
eb
  8
Layer_0
  10
204.52493
  20
186.95183
  42
0.14743188
  0
VERTEX
  5
ec
  8
Layer_0
  10
204.67569
  20
186.77515
  0
SEQEND
  0
POLYLINE
  5
ee
  8
Layer_0
  62
3
  66
1
  10
0
  20
0
  30
0
  0
VERTEX
  5
ee
  8
Layer_0
  10
207.22275
  20
185.99139
  0
VERTEX
  5
ef
  8
Layer_0
  10
207.22275
  20
186.16875
  0
VERTEX
  5
f0
  8
Layer_0
  10
205.5952
  20
186.16875
  0
VERTEX
  5
f1
  8
Layer_0
  10
205.5952
  20
185.99139
  0
VERTEX
  5
f2
  8
Layer_0
  10
207.22275
  20
185.99139
  0
SEQEND
  0
POLYLINE
  5
f4
  8
Layer_0
  62
3
  66
1
  10
0
  20
0
  30
0
  0
VERTEX
  5
f4
  8
Layer_0
  10
207.59656
  20
186.83313
  42
0.2198119
  0
VERTEX
  5
f5
  8
Layer_0
  10
207.80801
  20
186.74855
  42
0.1437848
  0
VERTEX
  5
f6
  8
Layer_0
  10
207.97992
  20
186.79425
  42
0.1742691
  0
VERTEX
  5
f7
  8
Layer_0
  10
208.07951
  20
186.9184
  42
0.076126254
  0
VERTEX
  5
f8
  8
Layer_0
  10
208.1068
  20
187.16875
  0
VERTEX
  5
f9
  8
Layer_0
  10
208.1068
  20
188.54665
  0
VERTEX
  5
fa
  8
Layer_0
  10
208.37146
  20
188.54665
  0
VERTEX
  5
fb
  8
Layer_0
  10
208.37146
  20
187.18375
  42
-0.099839506
  0
VERTEX
  5
fc
  8
Layer_0
  10
208.31075
  20
186.79494
  42
-0.16902142
  0
VERTEX
  5
fd
  8
Layer_0
  10
208.11839
  20
186.58484
  42
-0.12737043
  0
VERTEX
  5
fe
  8
Layer_0
  10
207.80939
  20
186.51253
  42
-0.21505753
  0
VERTEX
  5
ff
  8
Layer_0
  10
207.40625
  20
186.66397
  42
-0.19423777
  0
VERTEX
  5
100
  8
Layer_0
  10
207.27187
  20
187.11417
  0
VERTEX
  5
101
  8
Layer_0
  10
207.51062
  20
187.14691
  42
0.16243837
  0
VERTEX
  5
102
  8
Layer_0
  10
207.59656
  20
186.83313
  0
SEQEND
  0
POLYLINE
  5
104
  8
Layer_0
  62
3
  66
1
  10
0
  20
0
  30
0
  0
VERTEX
  5
104
  8
Layer_0
  10
209.43149
  20
187.14691
  0
VERTEX
  5
105
  8
Layer_0
  10
209.43149
  20
187.39384
  0
VERTEX
  5
106
  8
Layer_0
  10
208.67705
  20
187.39384
  0
VERTEX
  5
107
  8
Layer_0
  10
208.67705
  20
187.14691
  0
VERTEX
  5
108
  8
Layer_0
  10
209.43149
  20
187.14691
  0
SEQEND
  0
POLYLINE
  5
10a
  8
Layer_0
  62
3
  66
1
  10
0
  20
0
  30
0
  0
VERTEX
  5
10a
  8
Layer_0
  10
210.08156
  20
187.94228
  42
-0.043716531
  0
VERTEX
  5
10b
  8
Layer_0
  10
209.82303
  20
187.8154
  0
VERTEX
  5
10c
  8
Layer_0
  10
209.82303
  20
188.05278
  42
0.072809912
  0
VERTEX
  5
10d
  8
Layer_0
  10
210.1832
  20
188.28743
  42
0.094174816
  0
VERTEX
  5
10e
  8
Layer_0
  10
210.40147
  20
188.55482
  0
VERTEX
  5
10f
  8
Layer_0
  10
210.55972
  20
188.55482
  0
VERTEX
  5
110
  8
Layer_0
  10
210.55972
  20
186.54665
  0
VERTEX
  5
111
  8
Layer_0
  10
210.31416
  20
186.54665
  0
VERTEX
  5
112
  8
Layer_0
  10
210.31416
  20
188.11143
  42
-0.056790916
  0
VERTEX
  5
113
  8
Layer_0
  10
210.08156
  20
187.94228
  0
SEQEND
  0
ENDSEC
  0
EOF
