  0
SECTION
  2
HEADER
  9
$ACADVER
  1
AC1009
  0
ENDSEC
  0
SECTION
  2
ENTITIES
  0
CIRCLE
  5
90
  8
Layer_1
  62
1
  10
188.52965
  20
165.87137
  30
0
  40
1.5
  0
CIRCLE
  5
90
  8
Layer_1
  62
1
  10
230.52965
  20
165.87137
  30
0
  40
1.5
  0
CIRCLE
  5
90
  8
Layer_1
  62
1
  10
230.52965
  20
213.87137
  30
0
  40
1.5
  0
CIRCLE
  5
90
  8
Layer_1
  62
1
  10
188.52965
  20
213.87137
  30
0
  40
1.5
  0
CIRCLE
  5
90
  8
Layer_1
  62
1
  10
209.52965
  20
189.87137
  30
0
  40
18.5
  0
CIRCLE
  5
90
  8
Layer_1
  62
1
  10
209.52965
  20
165.87137
  30
0
  40
3.25
  0
CIRCLE
  5
90
  8
Layer_1
  62
1
  10
230.31425
  20
201.87137
  30
0
  40
3.25
  0
CIRCLE
  5
90
  8
Layer_1
  62
1
  10
188.74504
  20
201.87137
  30
0
  40
3.25
  0
POLYLINE
  5
90
  8
Layer_1
  62
1
  66
1
  10
0
  20
0
  30
0
  0
VERTEX
  5
90
  8
Layer_1
  10
180.52965
  20
221.87137
  0
VERTEX
  5
91
  8
Layer_1
  10
180.52965
  20
204.82137
  0
VERTEX
  5
92
  8
Layer_1
  10
183.52965
  20
204.82137
  0
VERTEX
  5
93
  8
Layer_1
  10
183.52965
  20
174.92137
  0
VERTEX
  5
94
  8
Layer_1
  10
180.52965
  20
174.92137
  0
VERTEX
  5
95
  8
Layer_1
  10
180.52965
  20
157.87137
  0
VERTEX
  5
96
  8
Layer_1
  10
194.57965
  20
157.87137
  0
VERTEX
  5
97
  8
Layer_1
  10
194.57965
  20
160.87137
  0
VERTEX
  5
98
  8
Layer_1
  10
224.47964
  20
160.87137
  0
VERTEX
  5
99
  8
Layer_1
  10
224.47964
  20
157.87137
  0
VERTEX
  5
9a
  8
Layer_1
  10
238.52965
  20
157.87137
  0
VERTEX
  5
9b
  8
Layer_1
  10
238.52965
  20
174.92137
  0
VERTEX
  5
9c
  8
Layer_1
  10
235.52965
  20
174.92137
  0
VERTEX
  5
9d
  8
Layer_1
  10
235.52965
  20
204.82137
  0
VERTEX
  5
9e
  8
Layer_1
  10
238.52965
  20
204.82137
  0
VERTEX
  5
9f
  8
Layer_1
  10
238.52965
  20
221.87137
  0
VERTEX
  5
a0
  8
Layer_1
  10
224.47964
  20
221.87137
  0
VERTEX
  5
a1
  8
Layer_1
  10
224.47964
  20
218.87137
  0
VERTEX
  5
a2
  8
Layer_1
  10
194.57965
  20
218.87137
  0
VERTEX
  5
a3
  8
Layer_1
  10
194.57965
  20
221.87137
  0
VERTEX
  5
a4
  8
Layer_1
  10
180.52965
  20
221.87137
  0
SEQEND
  0
POLYLINE
  5
a6
  8
Layer_0
  62
3
  66
1
  10
0
  20
0
  30
0
  0
VERTEX
  5
a6
  8
Layer_0
  10
192.33444
  20
163.95142
  42
0.21985221
  0
VERTEX
  5
a7
  8
Layer_0
  10
192.54715
  20
163.87001
  42
0.14375544
  0
VERTEX
  5
a8
  8
Layer_0
  10
192.71834
  20
163.91829
  42
0.17418835
  0
VERTEX
  5
a9
  8
Layer_0
  10
192.81606
  20
164.04391
  42
0.076118832
  0
VERTEX
  5
aa
  8
Layer_0
  10
192.83958
  20
164.29463
  0
VERTEX
  5
ab
  8
Layer_0
  10
192.81892
  20
165.67238
  0
VERTEX
  5
ac
  8
Layer_0
  10
193.08356
  20
165.67635
  0
VERTEX
  5
ad
  8
Layer_0
  10
193.10399
  20
164.31361
  42
-0.099834298
  0
VERTEX
  5
ae
  8
Layer_0
  10
193.04912
  20
163.92393
  42
-0.1690729
  0
VERTEX
  5
af
  8
Layer_0
  10
192.85994
  20
163.71097
  42
-0.12740093
  0
VERTEX
  5
b0
  8
Layer_0
  10
192.55205
  20
163.63405
  42
-0.21507093
  0
VERTEX
  5
b1
  8
Layer_0
  10
192.14668
  20
163.77942
  42
-0.19423435
  0
VERTEX
  5
b2
  8
Layer_0
  10
192.00557
  20
164.22755
  0
VERTEX
  5
b3
  8
Layer_0
  10
192.2438
  20
164.26387
  42
0.1624297
  0
VERTEX
  5
b4
  8
Layer_0
  10
192.33444
  20
163.95142
  0
SEQEND
  0
POLYLINE
  5
b6
  8
Layer_0
  62
3
  66
1
  10
0
  20
0
  30
0
  0
VERTEX
  5
b6
  8
Layer_0
  10
193.85411
  20
165.42593
  0
VERTEX
  5
b7
  8
Layer_0
  10
194.65211
  20
165.4379
  0
VERTEX
  5
b8
  8
Layer_0
  10
194.64859
  20
165.67253
  0
VERTEX
  5
b9
  8
Layer_0
  10
193.65416
  20
165.65762
  0
VERTEX
  5
ba
  8
Layer_0
  10
193.47586
  20
164.62755
  0
VERTEX
  5
bb
  8
Layer_0
  10
193.70685
  20
164.60098
  42
-0.12508681
  0
VERTEX
  5
bc
  8
Layer_0
  10
193.8548
  20
164.74306
  42
-0.13099446
  0
VERTEX
  5
bd
  8
Layer_0
  10
194.06816
  20
164.80016
  42
-0.20978621
  0
VERTEX
  5
be
  8
Layer_0
  10
194.37895
  20
164.68338
  42
-0.20016795
  0
VERTEX
  5
bf
  8
Layer_0
  10
194.50191
  20
164.35367
  42
-0.19247542
  0
VERTEX
  5
c0
  8
Layer_0
  10
194.38446
  20
163.99716
  42
-0.21867683
  0
VERTEX
  5
c1
  8
Layer_0
  10
194.08636
  20
163.85898
  42
-0.19255367
  0
VERTEX
  5
c2
  8
Layer_0
  10
193.83327
  20
163.95001
  42
-0.17366449
  0
VERTEX
  5
c3
  8
Layer_0
  10
193.69601
  20
164.23108
  0
VERTEX
  5
c4
  8
Layer_0
  10
193.43854
  20
164.20538
  42
0.19547523
  0
VERTEX
  5
c5
  8
Layer_0
  10
193.64172
  20
163.80319
  42
0.18777022
  0
VERTEX
  5
c6
  8
Layer_0
  10
194.08939
  20
163.6571
  42
0.24025351
  0
VERTEX
  5
c7
  8
Layer_0
  10
194.61093
  20
163.90778
  42
0.17471006
  0
VERTEX
  5
c8
  8
Layer_0
  10
194.76213
  20
164.37941
  42
0.20467617
  0
VERTEX
  5
c9
  8
Layer_0
  10
194.57507
  20
164.84323
  42
0.20735435
  0
VERTEX
  5
ca
  8
Layer_0
  10
194.13039
  20
165.01804
  42
0.15634316
  0
VERTEX
  5
cb
  8
Layer_0
  10
193.75441
  20
164.88687
  0
VERTEX
  5
cc
  8
Layer_0
  10
193.85411
  20
165.42593
  0
SEQEND
  0
POLYLINE
  5
ce
  8
Layer_0
  62
3
  66
1
  10
0
  20
0
  30
0
  0
VERTEX
  5
ce
  8
Layer_0
  10
195.43178
  20
164.94341
  42
-0.12009054
  0
VERTEX
  5
cf
  8
Layer_0
  10
195.69952
  20
165.01291
  42
-0.2129933
  0
VERTEX
  5
d0
  8
Layer_0
  10
196.12035
  20
164.83842
  42
-0.1988095
  0
VERTEX
  5
d1
  8
Layer_0
  10
196.2999
  20
164.37381
  42
-0.11830612
  0
VERTEX
  5
d2
  8
Layer_0
  10
196.22398
  20
164.02271
  42
-0.14352809
  0
VERTEX
  5
d3
  8
Layer_0
  10
196.00467
  20
163.77177
  42
-0.13920923
  0
VERTEX
  5
d4
  8
Layer_0
  10
195.68402
  20
163.68102
  42
-0.22865719
  0
VERTEX
  5
d5
  8
Layer_0
  10
195.18002
  20
163.89926
  42
-0.17288351
  0
VERTEX
  5
d6
  8
Layer_0
  10
194.97516
  20
164.64047
  42
-0.16682382
  0
VERTEX
  5
d7
  8
Layer_0
  10
195.17668
  20
165.48669
  42
-0.2359879
  0
VERTEX
  5
d8
  8
Layer_0
  10
195.67661
  20
165.72342
  42
-0.1866658
  0
VERTEX
  5
d9
  8
Layer_0
  10
196.06531
  20
165.59689
  42
-0.18724916
  0
VERTEX
  5
da
  8
Layer_0
  10
196.25153
  20
165.23402
  0
VERTEX
  5
db
  8
Layer_0
  10
196.00764
  20
165.21127
  42
0.1257603
  0
VERTEX
  5
dc
  8
Layer_0
  10
195.91173
  20
165.41995
  42
0.21402645
  0
VERTEX
  5
dd
  8
Layer_0
  10
195.66461
  20
165.5213
  42
0.16409942
  0
VERTEX
  5
de
  8
Layer_0
  10
195.45963
  20
165.45274
  42
0.1396468
  0
VERTEX
  5
df
  8
Layer_0
  10
195.28053
  20
165.20309
  42
0.091138156
  0
VERTEX
  5
e0
  8
Layer_0
  10
195.2179
  20
164.73962
  42
-0.13182983
  0
VERTEX
  5
e1
  8
Layer_0
  10
195.43178
  20
164.94341
  0
SEQEND
  0
POLYLINE
  5
e3
  8
Layer_0
  62
3
  66
1
  10
0
  20
0
  30
0
  0
VERTEX
  5
e3
  8
Layer_0
  10
195.47275
  20
163.94049
  42
0.1433141
  0
VERTEX
  5
e4
  8
Layer_0
  10
195.67691
  20
163.88283
  42
0.22280753
  0
VERTEX
  5
e5
  8
Layer_0
  10
195.9424
  20
164.01234
  42
0.1873867
  0
VERTEX
  5
e6
  8
Layer_0
  10
196.04913
  20
164.35504
  42
0.19274118
  0
VERTEX
  5
e7
  8
Layer_0
  10
195.93375
  20
164.68008
  42
0.21746179
  0
VERTEX
  5
e8
  8
Layer_0
  10
195.65367
  20
164.79527
  42
0.21051459
  0
VERTEX
  5
e9
  8
Layer_0
  10
195.37309
  20
164.67168
  42
0.20110469
  0
VERTEX
  5
ea
  8
Layer_0
  10
195.26184
  20
164.35689
  42
0.11038632
  0
VERTEX
  5
eb
  8
Layer_0
  10
195.31937
  20
164.11488
  42
0.14745379
  0
VERTEX
  5
ec
  8
Layer_0
  10
195.47275
  20
163.94049
  0
SEQEND
  0
POLYLINE
  5
ee
  8
Layer_0
  62
3
  66
1
  10
0
  20
0
  30
0
  0
VERTEX
  5
ee
  8
Layer_0
  10
198.02863
  20
163.37233
  0
VERTEX
  5
ef
  8
Layer_0
  10
198.03128
  20
163.19501
  0
VERTEX
  5
f0
  8
Layer_0
  10
196.4039
  20
163.17059
  0
VERTEX
  5
f1
  8
Layer_0
  10
196.40125
  20
163.34793
  0
VERTEX
  5
f2
  8
Layer_0
  10
198.02863
  20
163.37233
  0
SEQEND
  0
POLYLINE
  5
f4
  8
Layer_0
  62
3
  66
1
  10
0
  20
0
  30
0
  0
VERTEX
  5
f4
  8
Layer_0
  10
198.39243
  20
164.04225
  42
0.2198474
  0
VERTEX
  5
f5
  8
Layer_0
  10
198.60513
  20
163.96086
  42
0.14378744
  0
VERTEX
  5
f6
  8
Layer_0
  10
198.77632
  20
164.00912
  42
0.17415338
  0
VERTEX
  5
f7
  8
Layer_0
  10
198.87404
  20
164.13475
  42
0.076135601
  0
VERTEX
  5
f8
  8
Layer_0
  10
198.89757
  20
164.38548
  0
VERTEX
  5
f9
  8
Layer_0
  10
198.87691
  20
165.76323
  0
VERTEX
  5
fa
  8
Layer_0
  10
199.14154
  20
165.7672
  0
VERTEX
  5
fb
  8
Layer_0
  10
199.16197
  20
164.40445
  42
-0.099830313
  0
VERTEX
  5
fc
  8
Layer_0
  10
199.1071
  20
164.01477
  42
-0.16901297
  0
VERTEX
  5
fd
  8
Layer_0
  10
198.91791
  20
163.80182
  42
-0.12739099
  0
VERTEX
  5
fe
  8
Layer_0
  10
198.61003
  20
163.72488
  42
-0.21506176
  0
VERTEX
  5
ff
  8
Layer_0
  10
198.20467
  20
163.87025
  42
-0.19424257
  0
VERTEX
  5
100
  8
Layer_0
  10
198.06355
  20
164.31839
  0
VERTEX
  5
101
  8
Layer_0
  10
198.30179
  20
164.35471
  42
0.16247173
  0
VERTEX
  5
102
  8
Layer_0
  10
198.39243
  20
164.04225
  0
SEQEND
  0
POLYLINE
  5
104
  8
Layer_0
  62
3
  66
1
  10
0
  20
0
  30
0
  0
VERTEX
  5
104
  8
Layer_0
  10
200.22244
  20
164.38351
  0
VERTEX
  5
105
  8
Layer_0
  10
200.21873
  20
164.63042
  0
VERTEX
  5
106
  8
Layer_0
  10
199.46439
  20
164.61911
  0
VERTEX
  5
107
  8
Layer_0
  10
199.46809
  20
164.37221
  0
VERTEX
  5
108
  8
Layer_0
  10
200.22244
  20
164.38351
  0
SEQEND
  0
POLYLINE
  5
10a
  8
Layer_0
  62
3
  66
1
  10
0
  20
0
  30
0
  0
VERTEX
  5
10a
  8
Layer_0
  10
201.55902
  20
165.05574
  42
0.1486114
  0
VERTEX
  5
10b
  8
Layer_0
  10
201.62506
  20
165.29277
  42
0.13849709
  0
VERTEX
  5
10c
  8
Layer_0
  10
201.54822
  20
165.5495
  42
0.14276905
  0
VERTEX
  5
10d
  8
Layer_0
  10
201.33458
  20
165.73799
  42
0.11992061
  0
VERTEX
  5
10e
  8
Layer_0
  10
201.03207
  20
165.80373
  42
0.18269112
  0
VERTEX
  5
10f
  8
Layer_0
  10
200.63715
  20
165.66205
  42
0.1767301
  0
VERTEX
  5
110
  8
Layer_0
  10
200.43826
  20
165.27635
  0
VERTEX
  5
111
  8
Layer_0
  10
200.68446
  20
165.23637
  42
-0.1681944
  0
VERTEX
  5
112
  8
Layer_0
  10
200.80318
  20
165.50832
  42
-0.19747782
  0
VERTEX
  5
113
  8
Layer_0
  10
201.04056
  20
165.60191
  42
-0.20135893
  0
VERTEX
  5
114
  8
Layer_0
  10
201.27786
  20
165.51678
  42
-0.21061688
  0
VERTEX
  5
115
  8
Layer_0
  10
201.37262
  20
165.29445
  42
-0.26799833
  0
VERTEX
  5
116
  8
Layer_0
  10
201.2509
  20
165.04021
  42
-0.14825922
  0
VERTEX
  5
117
  8
Layer_0
  10
200.96976
  20
164.95413
  42
-0.026811576
  0
VERTEX
  5
118
  8
Layer_0
  10
200.93016
  20
164.95627
  0
VERTEX
  5
119
  8
Layer_0
  10
200.90611
  20
164.74033
  42
-0.062335532
  0
VERTEX
  5
11a
  8
Layer_0
  10
201.07895
  20
164.7702
  42
-0.20506767
  0
VERTEX
  5
11b
  8
Layer_0
  10
201.3616
  20
164.66461
  42
-0.20687053
  0
VERTEX
  5
11c
  8
Layer_0
  10
201.47627
  20
164.38731
  42
-0.20540035
  0
VERTEX
  5
11d
  8
Layer_0
  10
201.36137
  20
164.08815
  42
-0.20711793
  0
VERTEX
  5
11e
  8
Layer_0
  10
201.07057
  20
163.96371
  42
-0.19201854
  0
VERTEX
  5
11f
  8
Layer_0
  10
200.82161
  20
164.05208
  42
-0.15736237
  0
VERTEX
  5
120
  8
Layer_0
  10
200.67319
  20
164.35071
  0
VERTEX
  5
121
  8
Layer_0
  10
200.42813
  20
164.31429
  42
0.19272985
  0
VERTEX
  5
122
  8
Layer_0
  10
200.63271
  20
163.91075
  42
0.19096226
  0
VERTEX
  5
123
  8
Layer_0
  10
201.07225
  20
163.76044
  42
0.19901275
  0
VERTEX
  5
124
  8
Layer_0
  10
201.55241
  20
163.9498
  42
0.21322428
  0
VERTEX
  5
125
  8
Layer_0
  10
201.73674
  20
164.39667
  42
0.16718899
  0
VERTEX
  5
126
  8
Layer_0
  10
201.63368
  20
164.7178
  42
0.17945621
  0
VERTEX
  5
127
  8
Layer_0
  10
201.35559
  20
164.88351
  42
0.14284068
  0
VERTEX
  5
128
  8
Layer_0
  10
201.55902
  20
165.05574
  0
SEQEND
  0
ENDSEC
  0
EOF
