  0
SECTION
  2
HEADER
  9
$ACADVER
  1
AC1009
  0
ENDSEC
  0
SECTION
  2
ENTITIES
  0
CIRCLE
  5
90
  8
Layer_0
  62
1
  10
101.36531
  20
245.65179
  30
0
  40
3
  0
CIRCLE
  5
90
  8
Layer_0
  62
1
  10
91.365311
  20
262.97229
  30
0
  40
3
  0
CIRCLE
  5
90
  8
Layer_0
  62
1
  10
71.365311
  20
262.97229
  30
0
  40
3
  0
CIRCLE
  5
90
  8
Layer_0
  62
1
  10
61.365311
  20
245.65179
  30
0
  40
3
  0
CIRCLE
  5
90
  8
Layer_0
  62
1
  10
71.365311
  20
228.33128
  30
0
  40
3
  0
CIRCLE
  5
90
  8
Layer_0
  62
1
  10
320.66531
  20
245.65179
  30
0
  40
1.5
  0
CIRCLE
  5
90
  8
Layer_0
  62
1
  10
296.3653
  20
269.95178
  30
0
  40
1.5
  0
CIRCLE
  5
90
  8
Layer_0
  62
1
  10
272.06531
  20
245.65179
  30
0
  40
1.5
  0
CIRCLE
  5
90
  8
Layer_0
  62
1
  10
296.3653
  20
221.35179
  30
0
  40
1.5
  0
CIRCLE
  5
90
  8
Layer_0
  62
1
  10
296.3653
  20
245.65179
  30
0
  40
18.5
  0
CIRCLE
  5
90
  8
Layer_0
  62
1
  10
91.365311
  20
228.33128
  30
0
  40
3
  0
POLYLINE
  5
90
  8
Layer_0
  62
1
  66
1
  10
0
  20
0
  30
0
  0
VERTEX
  5
90
  8
Layer_0
  10
34.365307
  20
276.65179
  42
0.41421356
  0
VERTEX
  5
91
  8
Layer_0
  10
31.365311
  20
273.65179
  0
VERTEX
  5
92
  8
Layer_0
  10
31.365311
  20
217.65179
  42
0.41421356
  0
VERTEX
  5
93
  8
Layer_0
  10
34.365311
  20
214.65179
  0
VERTEX
  5
94
  8
Layer_0
  10
333.3653
  20
214.65178
  42
0.41421356
  0
VERTEX
  5
95
  8
Layer_0
  10
336.3653
  20
217.65178
  0
VERTEX
  5
96
  8
Layer_0
  10
336.3653
  20
273.65178
  42
0.41421356
  0
VERTEX
  5
97
  8
Layer_0
  10
333.3653
  20
276.65178
  0
VERTEX
  5
98
  8
Layer_0
  10
34.365307
  20
276.65179
  0
SEQEND
  0
POLYLINE
  5
9a
  8
Layer_0
  62
1
  66
1
  10
0
  20
0
  30
0
  0
VERTEX
  5
9a
  8
Layer_0
  10
201.86531
  20
259.65179
  0
VERTEX
  5
9b
  8
Layer_0
  10
207.86531
  20
259.65179
  42
0.41421356
  0
VERTEX
  5
9c
  8
Layer_0
  10
209.36531
  20
261.15179
  42
0.41421356
  0
VERTEX
  5
9d
  8
Layer_0
  10
207.86531
  20
262.65179
  0
VERTEX
  5
9e
  8
Layer_0
  10
201.86531
  20
262.65179
  42
0.41421356
  0
VERTEX
  5
9f
  8
Layer_0
  10
200.36531
  20
261.15179
  42
0.41421356
  0
VERTEX
  5
a0
  8
Layer_0
  10
201.86531
  20
259.65179
  0
SEQEND
  0
POLYLINE
  5
a2
  8
Layer_0
  62
1
  66
1
  10
0
  20
0
  30
0
  0
VERTEX
  5
a2
  8
Layer_0
  10
201.86531
  20
231.65179
  0
VERTEX
  5
a3
  8
Layer_0
  10
207.86531
  20
231.65179
  42
-0.41421356
  0
VERTEX
  5
a4
  8
Layer_0
  10
209.36531
  20
230.15179
  42
-0.41421356
  0
VERTEX
  5
a5
  8
Layer_0
  10
207.86531
  20
228.65179
  0
VERTEX
  5
a6
  8
Layer_0
  10
201.86531
  20
228.65179
  42
-0.41421356
  0
VERTEX
  5
a7
  8
Layer_0
  10
200.36531
  20
230.15179
  42
-0.41421356
  0
VERTEX
  5
a8
  8
Layer_0
  10
201.86531
  20
231.65179
  0
SEQEND
  0
POLYLINE
  5
aa
  8
Layer_0
  62
1
  66
1
  10
0
  20
0
  30
0
  0
VERTEX
  5
aa
  8
Layer_0
  10
176.86531
  20
259.65179
  0
VERTEX
  5
ab
  8
Layer_0
  10
170.86531
  20
259.65179
  42
-0.41421356
  0
VERTEX
  5
ac
  8
Layer_0
  10
169.36531
  20
261.15179
  42
-0.41421356
  0
VERTEX
  5
ad
  8
Layer_0
  10
170.86531
  20
262.65179
  0
VERTEX
  5
ae
  8
Layer_0
  10
176.86531
  20
262.65179
  42
-0.41421356
  0
VERTEX
  5
af
  8
Layer_0
  10
178.36531
  20
261.15179
  42
-0.41421356
  0
VERTEX
  5
b0
  8
Layer_0
  10
176.86531
  20
259.65179
  0
SEQEND
  0
POLYLINE
  5
b2
  8
Layer_0
  62
1
  66
1
  10
0
  20
0
  30
0
  0
VERTEX
  5
b2
  8
Layer_0
  10
176.86531
  20
231.65179
  0
VERTEX
  5
b3
  8
Layer_0
  10
170.86531
  20
231.65179
  42
0.41421356
  0
VERTEX
  5
b4
  8
Layer_0
  10
169.36531
  20
230.15179
  42
0.41421356
  0
VERTEX
  5
b5
  8
Layer_0
  10
170.86531
  20
228.65179
  0
VERTEX
  5
b6
  8
Layer_0
  10
176.86531
  20
228.65179
  42
0.41421356
  0
VERTEX
  5
b7
  8
Layer_0
  10
178.36531
  20
230.15179
  42
0.41421356
  0
VERTEX
  5
b8
  8
Layer_0
  10
176.86531
  20
231.65179
  0
SEQEND
  0
POLYLINE
  5
ba
  8
Layer_0
  62
1
  66
1
  10
0
  20
0
  30
0
  0
VERTEX
  5
ba
  8
Layer_0
  10
186.36531
  20
233.15179
  0
VERTEX
  5
bb
  8
Layer_0
  10
192.36531
  20
233.15179
  42
0.41421356
  0
VERTEX
  5
bc
  8
Layer_0
  10
204.86531
  20
245.65179
  42
0.41421356
  0
VERTEX
  5
bd
  8
Layer_0
  10
192.36531
  20
258.15179
  0
VERTEX
  5
be
  8
Layer_0
  10
186.36531
  20
258.15179
  42
0.41421348
  0
VERTEX
  5
bf
  8
Layer_0
  10
173.86531
  20
245.65179
  42
0.41421368
  0
VERTEX
  5
c0
  8
Layer_0
  10
186.36531
  20
233.15179
  0
SEQEND
  0
ENDSEC
  0
EOF
