  0
SECTION
  2
HEADER
  9
$ACADVER
  1
AC1009
  0
ENDSEC
  0
SECTION
  2
ENTITIES
  0
CIRCLE
  5
90
  8
Layer_0
  62
0
  10
170.0466
  20
288.53488
  30
0
  40
1.5
  0
CIRCLE
  5
90
  8
Layer_0
  62
0
  10
250.0466
  20
288.53488
  30
0
  40
1.5
  0
CIRCLE
  5
90
  8
Layer_0
  62
0
  10
250.0466
  20
113.53488
  30
0
  40
1.5
  0
CIRCLE
  5
90
  8
Layer_0
  62
0
  10
170.0466
  20
113.53488
  30
0
  40
1.5
  0
CIRCLE
  5
90
  8
Layer_0
  62
0
  10
227.0466
  20
186.03488
  30
0
  40
1.5
  0
CIRCLE
  5
90
  8
Layer_0
  62
0
  10
227.0466
  20
204.03488
  30
0
  40
1.5
  0
CIRCLE
  5
90
  8
Layer_0
  62
0
  10
212.0466
  20
216.03488
  30
0
  40
2.5
  0
CIRCLE
  5
90
  8
Layer_0
  62
0
  10
234.67401
  20
225.40747
  30
0
  40
2.5
  0
CIRCLE
  5
90
  8
Layer_0
  62
0
  10
244.0466
  20
248.03488
  30
0
  40
2.5
  0
CIRCLE
  5
90
  8
Layer_0
  62
0
  10
234.67401
  20
270.66229
  30
0
  40
2.5
  0
CIRCLE
  5
90
  8
Layer_0
  62
0
  10
212.0466
  20
280.03488
  30
0
  40
2.5
  0
CIRCLE
  5
90
  8
Layer_0
  62
0
  10
189.41919
  20
270.66229
  30
0
  40
2.5
  0
CIRCLE
  5
90
  8
Layer_0
  62
0
  10
180.0466
  20
248.03488
  30
0
  40
2.5
  0
CIRCLE
  5
90
  8
Layer_0
  62
0
  10
189.41919
  20
225.40747
  30
0
  40
2.5
  0
CIRCLE
  5
90
  8
Layer_0
  62
0
  10
134.0466
  20
113.53488
  30
0
  40
1.5
  0
CIRCLE
  5
90
  8
Layer_0
  62
0
  10
134.0466
  20
288.53488
  30
0
  40
1.5
  0
POLYLINE
  5
90
  8
Layer_0
  62
0
  66
1
  10
0
  20
0
  30
0
  0
VERTEX
  5
90
  8
Layer_0
  10
159.0466
  20
139.85989
  0
VERTEX
  5
91
  8
Layer_0
  10
165.0466
  20
139.85989
  0
VERTEX
  5
92
  8
Layer_0
  10
165.0466
  20
169.70988
  0
VERTEX
  5
93
  8
Layer_0
  10
159.0466
  20
169.70988
  0
SEQEND
  0
POLYLINE
  5
95
  8
Layer_0
  62
0
  66
1
  10
0
  20
0
  30
0
  0
VERTEX
  5
95
  8
Layer_0
  10
159.0466
  20
262.20988
  0
VERTEX
  5
96
  8
Layer_0
  10
159.0466
  20
232.35988
  0
SEQEND
  0
POLYLINE
  5
98
  8
Layer_0
  62
0
  66
1
  10
0
  20
0
  30
0
  0
VERTEX
  5
98
  8
Layer_0
  10
237.8197
  20
126.45865
  42
0.2198813
  0
VERTEX
  5
99
  8
Layer_0
  10
237.29462
  20
126.6788
  42
0.14446996
  0
VERTEX
  5
9a
  8
Layer_0
  10
236.86305
  20
126.57166
  42
0.17433419
  0
VERTEX
  5
9b
  8
Layer_0
  10
236.60898
  20
126.26544
  42
0.076180247
  0
VERTEX
  5
9c
  8
Layer_0
  10
236.53046
  20
125.64081
  0
VERTEX
  5
9d
  8
Layer_0
  10
236.47357
  20
122.19653
  0
VERTEX
  5
9e
  8
Layer_0
  10
235.812
  20
122.20746
  0
VERTEX
  5
9f
  8
Layer_0
  10
235.86826
  20
125.6142
  42
-0.099854519
  0
VERTEX
  5
a0
  8
Layer_0
  10
236.03606
  20
126.58362
  42
-0.16887799
  0
VERTEX
  5
a1
  8
Layer_0
  10
236.52557
  20
127.10083
  42
-0.12713339
  0
VERTEX
  5
a2
  8
Layer_0
  10
237.30096
  20
127.26883
  0
VERTEX
  5
a3
  8
Layer_0
  10
237.35526
  20
127.26727
  42
-0.20917932
  0
VERTEX
  5
a4
  8
Layer_0
  10
238.30241
  20
126.87366
  42
-0.19448371
  0
VERTEX
  5
a5
  8
Layer_0
  10
238.61972
  20
125.74274
  0
VERTEX
  5
a6
  8
Layer_0
  10
238.02161
  20
125.67075
  42
0.16263707
  0
VERTEX
  5
a7
  8
Layer_0
  10
237.8197
  20
126.45865
  0
SEQEND
  0
POLYLINE
  5
a9
  8
Layer_0
  62
0
  66
1
  10
0
  20
0
  30
0
  0
VERTEX
  5
a9
  8
Layer_0
  10
234.01395
  20
126.31512
  42
-0.025441164
  0
VERTEX
  5
aa
  8
Layer_0
  10
233.29425
  20
125.69766
  42
0.032478057
  0
VERTEX
  5
ab
  8
Layer_0
  10
232.3334
  20
124.83344
  42
0.080589502
  0
VERTEX
  5
ac
  8
Layer_0
  10
231.9158
  20
124.22977
  42
0.1014809
  0
VERTEX
  5
ad
  8
Layer_0
  10
231.78329
  20
123.64185
  42
0.21343628
  0
VERTEX
  5
ae
  8
Layer_0
  10
232.1864
  20
122.64594
  42
0.197026
  0
VERTEX
  5
af
  8
Layer_0
  10
233.31882
  20
122.22815
  42
0.18487783
  0
VERTEX
  5
b0
  8
Layer_0
  10
234.46051
  20
122.57941
  42
0.19682748
  0
VERTEX
  5
b1
  8
Layer_0
  10
234.96594
  20
123.64728
  0
VERTEX
  5
b2
  8
Layer_0
  10
234.33612
  20
123.72247
  42
-0.20152161
  0
VERTEX
  5
b3
  8
Layer_0
  10
234.05457
  20
122.99033
  42
-0.2052521
  0
VERTEX
  5
b4
  8
Layer_0
  10
233.34085
  20
122.73605
  42
-0.20020239
  0
VERTEX
  5
b5
  8
Layer_0
  10
232.66467
  20
122.99792
  42
-0.21221961
  0
VERTEX
  5
b6
  8
Layer_0
  10
232.41394
  20
123.61777
  42
-0.15944531
  0
VERTEX
  5
b7
  8
Layer_0
  10
232.71259
  20
124.35135
  42
-0.055836017
  0
VERTEX
  5
b8
  8
Layer_0
  10
233.76366
  20
125.33789
  0
VERTEX
  5
b9
  8
Layer_0
  10
233.83157
  20
125.39203
  42
0.04359239
  0
VERTEX
  5
ba
  8
Layer_0
  10
234.64716
  20
126.1358
  42
0.086820738
  0
VERTEX
  5
bb
  8
Layer_0
  10
235.06226
  20
126.79413
  42
0.10009179
  0
VERTEX
  5
bc
  8
Layer_0
  10
235.1409
  20
127.21921
  0
VERTEX
  5
bd
  8
Layer_0
  10
231.83646
  20
127.27377
  0
VERTEX
  5
be
  8
Layer_0
  10
231.82671
  20
126.68384
  0
VERTEX
  5
bf
  8
Layer_0
  10
234.27863
  20
126.64331
  42
-0.052543596
  0
VERTEX
  5
c0
  8
Layer_0
  10
234.01395
  20
126.31512
  0
SEQEND
  0
POLYLINE
  5
c2
  8
Layer_0
  62
0
  66
1
  10
0
  20
0
  30
0
  0
VERTEX
  5
c2
  8
Layer_0
  10
229.32568
  20
125.19696
  0
VERTEX
  5
c3
  8
Layer_0
  10
229.33588
  20
125.81418
  0
VERTEX
  5
c4
  8
Layer_0
  10
231.22171
  20
125.78305
  0
VERTEX
  5
c5
  8
Layer_0
  10
231.21152
  20
125.1658
  0
VERTEX
  5
c6
  8
Layer_0
  10
229.32568
  20
125.19696
  0
SEQEND
  0
POLYLINE
  5
c8
  8
Layer_0
  62
0
  66
1
  10
0
  20
0
  30
0
  0
VERTEX
  5
c8
  8
Layer_0
  10
227.69637
  20
122.9964
  0
VERTEX
  5
c9
  8
Layer_0
  10
225.70142
  20
123.02936
  0
VERTEX
  5
ca
  8
Layer_0
  10
225.69173
  20
122.44281
  0
VERTEX
  5
cb
  8
Layer_0
  10
228.17773
  20
122.40173
  0
VERTEX
  5
cc
  8
Layer_0
  10
228.70439
  20
124.96161
  0
VERTEX
  5
cd
  8
Layer_0
  10
228.1293
  20
125.04614
  42
-0.12457981
  0
VERTEX
  5
ce
  8
Layer_0
  10
227.74841
  20
124.70279
  42
-0.13090698
  0
VERTEX
  5
cf
  8
Layer_0
  10
227.2108
  20
124.57693
  42
-0.20946694
  0
VERTEX
  5
d0
  8
Layer_0
  10
226.44341
  20
124.89319
  42
-0.20011132
  0
VERTEX
  5
d1
  8
Layer_0
  10
226.16211
  20
125.72675
  42
-0.19265704
  0
VERTEX
  5
d2
  8
Layer_0
  10
226.48366
  20
126.60834
  42
-0.21880973
  0
VERTEX
  5
d3
  8
Layer_0
  10
227.23943
  20
126.93011
  42
-0.19238696
  0
VERTEX
  5
d4
  8
Layer_0
  10
227.86469
  20
126.68274
  42
-0.17361514
  0
VERTEX
  5
d5
  8
Layer_0
  10
228.18549
  20
125.96964
  0
VERTEX
  5
d6
  8
Layer_0
  10
228.83092
  20
126.01355
  42
0.19545409
  0
VERTEX
  5
d7
  8
Layer_0
  10
228.35487
  20
127.03452
  42
0.18176438
  0
VERTEX
  5
d8
  8
Layer_0
  10
227.30414
  20
127.43323
  0
VERTEX
  5
d9
  8
Layer_0
  10
227.24776
  20
127.43481
  42
0.22922431
  0
VERTEX
  5
da
  8
Layer_0
  10
225.96631
  20
126.89838
  0
VERTEX
  5
db
  8
Layer_0
  10
225.9248
  20
126.84949
  42
0.16115963
  0
VERTEX
  5
dc
  8
Layer_0
  10
225.51445
  20
125.79471
  0
VERTEX
  5
dd
  8
Layer_0
  10
225.50986
  20
125.68292
  42
0.18558411
  0
VERTEX
  5
de
  8
Layer_0
  10
225.87012
  20
124.5878
  42
0.016989143
  0
VERTEX
  5
df
  8
Layer_0
  10
225.94075
  20
124.50922
  42
0.20728839
  0
VERTEX
  5
e0
  8
Layer_0
  10
227.03815
  20
124.03741
  42
0.15643232
  0
VERTEX
  5
e1
  8
Layer_0
  10
227.98795
  20
124.33557
  0
VERTEX
  5
e2
  8
Layer_0
  10
227.69637
  20
122.9964
  0
SEQEND
  0
POLYLINE
  5
e4
  8
Layer_0
  62
0
  66
1
  10
0
  20
0
  30
0
  0
VERTEX
  5
e4
  8
Layer_0
  10
159.0466
  20
262.20988
  0
VERTEX
  5
e5
  8
Layer_0
  10
165.0466
  20
262.20988
  0
SEQEND
  0
POLYLINE
  5
e7
  8
Layer_0
  62
0
  66
1
  10
0
  20
0
  30
0
  0
VERTEX
  5
e7
  8
Layer_0
  10
165.0466
  20
262.20988
  0
VERTEX
  5
e8
  8
Layer_0
  10
165.0466
  20
232.35988
  0
SEQEND
  0
POLYLINE
  5
ea
  8
Layer_0
  62
0
  66
1
  10
0
  20
0
  30
0
  0
VERTEX
  5
ea
  8
Layer_0
  10
165.0466
  20
232.35988
  0
VERTEX
  5
eb
  8
Layer_0
  10
159.0466
  20
232.35988
  0
SEQEND
  0
POLYLINE
  5
ed
  8
Layer_0
  62
0
  66
1
  10
0
  20
0
  30
0
  0
VERTEX
  5
ed
  8
Layer_0
  10
159.0466
  20
169.70988
  0
VERTEX
  5
ee
  8
Layer_0
  10
159.0466
  20
139.85989
  0
SEQEND
  0
POLYLINE
  5
f0
  8
Layer_0
  62
0
  66
1
  10
0
  20
0
  30
0
  0
VERTEX
  5
f0
  8
Layer_0
  10
159.0466
  20
102.53488
  0
VERTEX
  5
f1
  8
Layer_0
  10
148.94659
  20
102.53488
  0
SEQEND
  0
POLYLINE
  5
f3
  8
Layer_0
  62
0
  66
1
  10
0
  20
0
  30
0
  0
VERTEX
  5
f3
  8
Layer_0
  10
148.94659
  20
102.53488
  0
VERTEX
  5
f4
  8
Layer_0
  10
148.94659
  20
108.53488
  0
SEQEND
  0
POLYLINE
  5
f6
  8
Layer_0
  62
0
  66
1
  10
0
  20
0
  30
0
  0
VERTEX
  5
f6
  8
Layer_0
  10
148.94659
  20
108.53488
  0
VERTEX
  5
f7
  8
Layer_0
  10
139.14661
  20
108.53488
  0
SEQEND
  0
POLYLINE
  5
f9
  8
Layer_0
  62
0
  66
1
  10
0
  20
0
  30
0
  0
VERTEX
  5
f9
  8
Layer_0
  10
139.14661
  20
108.53488
  0
VERTEX
  5
fa
  8
Layer_0
  10
139.14661
  20
102.53488
  0
SEQEND
  0
POLYLINE
  5
fc
  8
Layer_0
  62
0
  66
1
  10
0
  20
0
  30
0
  0
VERTEX
  5
fc
  8
Layer_0
  10
139.14661
  20
102.53488
  0
VERTEX
  5
fd
  8
Layer_0
  10
123.0466
  20
102.53488
  0
SEQEND
  0
POLYLINE
  5
ff
  8
Layer_0
  62
0
  66
1
  10
0
  20
0
  30
0
  0
VERTEX
  5
ff
  8
Layer_0
  10
123.0466
  20
102.53488
  0
VERTEX
  5
100
  8
Layer_0
  10
123.0466
  20
139.85989
  0
SEQEND
  0
POLYLINE
  5
102
  8
Layer_0
  62
0
  66
1
  10
0
  20
0
  30
0
  0
VERTEX
  5
102
  8
Layer_0
  10
123.0466
  20
139.85989
  0
VERTEX
  5
103
  8
Layer_0
  10
129.0466
  20
139.85989
  0
SEQEND
  0
POLYLINE
  5
105
  8
Layer_0
  62
0
  66
1
  10
0
  20
0
  30
0
  0
VERTEX
  5
105
  8
Layer_0
  10
129.0466
  20
139.85989
  0
VERTEX
  5
106
  8
Layer_0
  10
129.0466
  20
169.70988
  0
SEQEND
  0
POLYLINE
  5
108
  8
Layer_0
  62
0
  66
1
  10
0
  20
0
  30
0
  0
VERTEX
  5
108
  8
Layer_0
  10
129.0466
  20
169.70988
  0
VERTEX
  5
109
  8
Layer_0
  10
123.0466
  20
169.70988
  0
SEQEND
  0
POLYLINE
  5
10b
  8
Layer_0
  62
0
  66
1
  10
0
  20
0
  30
0
  0
VERTEX
  5
10b
  8
Layer_0
  10
123.0466
  20
169.70988
  0
VERTEX
  5
10c
  8
Layer_0
  10
123.0466
  20
232.35988
  0
SEQEND
  0
POLYLINE
  5
10e
  8
Layer_0
  62
0
  66
1
  10
0
  20
0
  30
0
  0
VERTEX
  5
10e
  8
Layer_0
  10
123.0466
  20
232.35988
  0
VERTEX
  5
10f
  8
Layer_0
  10
129.0466
  20
232.35988
  0
SEQEND
  0
POLYLINE
  5
111
  8
Layer_0
  62
0
  66
1
  10
0
  20
0
  30
0
  0
VERTEX
  5
111
  8
Layer_0
  10
129.0466
  20
232.35988
  0
VERTEX
  5
112
  8
Layer_0
  10
129.0466
  20
262.20988
  0
SEQEND
  0
POLYLINE
  5
114
  8
Layer_0
  62
0
  66
1
  10
0
  20
0
  30
0
  0
VERTEX
  5
114
  8
Layer_0
  10
129.0466
  20
262.20988
  0
VERTEX
  5
115
  8
Layer_0
  10
123.0466
  20
262.20988
  0
SEQEND
  0
POLYLINE
  5
117
  8
Layer_0
  62
0
  66
1
  10
0
  20
0
  30
0
  0
VERTEX
  5
117
  8
Layer_0
  10
123.0466
  20
262.20988
  0
VERTEX
  5
118
  8
Layer_0
  10
123.0466
  20
299.53488
  0
SEQEND
  0
POLYLINE
  5
11a
  8
Layer_0
  62
0
  66
1
  10
0
  20
0
  30
0
  0
VERTEX
  5
11a
  8
Layer_0
  10
123.0466
  20
299.53488
  0
VERTEX
  5
11b
  8
Layer_0
  10
139.14661
  20
299.53488
  0
SEQEND
  0
POLYLINE
  5
11d
  8
Layer_0
  62
0
  66
1
  10
0
  20
0
  30
0
  0
VERTEX
  5
11d
  8
Layer_0
  10
139.14661
  20
299.53488
  0
VERTEX
  5
11e
  8
Layer_0
  10
139.14661
  20
293.53488
  0
SEQEND
  0
POLYLINE
  5
120
  8
Layer_0
  62
0
  66
1
  10
0
  20
0
  30
0
  0
VERTEX
  5
120
  8
Layer_0
  10
139.14661
  20
293.53488
  0
VERTEX
  5
121
  8
Layer_0
  10
148.94659
  20
293.53488
  0
SEQEND
  0
POLYLINE
  5
123
  8
Layer_0
  62
0
  66
1
  10
0
  20
0
  30
0
  0
VERTEX
  5
123
  8
Layer_0
  10
148.94659
  20
293.53488
  0
VERTEX
  5
124
  8
Layer_0
  10
148.94659
  20
299.53488
  0
SEQEND
  0
POLYLINE
  5
126
  8
Layer_0
  62
0
  66
1
  10
0
  20
0
  30
0
  0
VERTEX
  5
126
  8
Layer_0
  10
148.94659
  20
299.53488
  0
VERTEX
  5
127
  8
Layer_0
  10
159.0466
  20
299.53488
  0
SEQEND
  0
POLYLINE
  5
129
  8
Layer_0
  62
0
  66
1
  10
0
  20
0
  30
0
  0
VERTEX
  5
129
  8
Layer_0
  10
159.0466
  20
102.53488
  0
VERTEX
  5
12a
  8
Layer_0
  10
195.1216
  20
102.53488
  0
SEQEND
  0
POLYLINE
  5
12c
  8
Layer_0
  62
0
  66
1
  10
0
  20
0
  30
0
  0
VERTEX
  5
12c
  8
Layer_0
  10
195.1216
  20
102.53488
  0
VERTEX
  5
12d
  8
Layer_0
  10
195.1216
  20
108.53488
  0
SEQEND
  0
POLYLINE
  5
12f
  8
Layer_0
  62
0
  66
1
  10
0
  20
0
  30
0
  0
VERTEX
  5
12f
  8
Layer_0
  10
195.1216
  20
108.53488
  0
VERTEX
  5
130
  8
Layer_0
  10
224.9716
  20
108.53488
  0
SEQEND
  0
POLYLINE
  5
132
  8
Layer_0
  62
0
  66
1
  10
0
  20
0
  30
0
  0
VERTEX
  5
132
  8
Layer_0
  10
224.9716
  20
108.53488
  0
VERTEX
  5
133
  8
Layer_0
  10
224.9716
  20
102.53488
  0
SEQEND
  0
POLYLINE
  5
135
  8
Layer_0
  62
0
  66
1
  10
0
  20
0
  30
0
  0
VERTEX
  5
135
  8
Layer_0
  10
224.9716
  20
102.53488
  0
VERTEX
  5
136
  8
Layer_0
  10
261.0466
  20
102.53488
  0
SEQEND
  0
POLYLINE
  5
138
  8
Layer_0
  62
0
  66
1
  10
0
  20
0
  30
0
  0
VERTEX
  5
138
  8
Layer_0
  10
261.0466
  20
102.53488
  0
VERTEX
  5
139
  8
Layer_0
  10
261.0466
  20
139.85989
  0
SEQEND
  0
POLYLINE
  5
13b
  8
Layer_0
  62
0
  66
1
  10
0
  20
0
  30
0
  0
VERTEX
  5
13b
  8
Layer_0
  10
261.0466
  20
139.85989
  0
VERTEX
  5
13c
  8
Layer_0
  10
255.0466
  20
139.85989
  0
SEQEND
  0
POLYLINE
  5
13e
  8
Layer_0
  62
0
  66
1
  10
0
  20
0
  30
0
  0
VERTEX
  5
13e
  8
Layer_0
  10
255.0466
  20
139.85989
  0
VERTEX
  5
13f
  8
Layer_0
  10
255.0466
  20
169.70988
  0
SEQEND
  0
POLYLINE
  5
141
  8
Layer_0
  62
0
  66
1
  10
0
  20
0
  30
0
  0
VERTEX
  5
141
  8
Layer_0
  10
255.0466
  20
169.70988
  0
VERTEX
  5
142
  8
Layer_0
  10
261.0466
  20
169.70988
  0
SEQEND
  0
POLYLINE
  5
144
  8
Layer_0
  62
0
  66
1
  10
0
  20
0
  30
0
  0
VERTEX
  5
144
  8
Layer_0
  10
261.0466
  20
169.70988
  0
VERTEX
  5
145
  8
Layer_0
  10
261.0466
  20
232.35988
  0
SEQEND
  0
POLYLINE
  5
147
  8
Layer_0
  62
0
  66
1
  10
0
  20
0
  30
0
  0
VERTEX
  5
147
  8
Layer_0
  10
261.0466
  20
232.35988
  0
VERTEX
  5
148
  8
Layer_0
  10
255.0466
  20
232.35988
  0
SEQEND
  0
POLYLINE
  5
14a
  8
Layer_0
  62
0
  66
1
  10
0
  20
0
  30
0
  0
VERTEX
  5
14a
  8
Layer_0
  10
255.0466
  20
232.35988
  0
VERTEX
  5
14b
  8
Layer_0
  10
255.0466
  20
262.20988
  0
SEQEND
  0
POLYLINE
  5
14d
  8
Layer_0
  62
0
  66
1
  10
0
  20
0
  30
0
  0
VERTEX
  5
14d
  8
Layer_0
  10
255.0466
  20
262.20988
  0
VERTEX
  5
14e
  8
Layer_0
  10
261.0466
  20
262.20988
  0
SEQEND
  0
POLYLINE
  5
150
  8
Layer_0
  62
0
  66
1
  10
0
  20
0
  30
0
  0
VERTEX
  5
150
  8
Layer_0
  10
261.0466
  20
262.20988
  0
VERTEX
  5
151
  8
Layer_0
  10
261.0466
  20
299.53488
  0
SEQEND
  0
POLYLINE
  5
153
  8
Layer_0
  62
0
  66
1
  10
0
  20
0
  30
0
  0
VERTEX
  5
153
  8
Layer_0
  10
261.0466
  20
299.53488
  0
VERTEX
  5
154
  8
Layer_0
  10
224.9716
  20
299.53488
  0
SEQEND
  0
POLYLINE
  5
156
  8
Layer_0
  62
0
  66
1
  10
0
  20
0
  30
0
  0
VERTEX
  5
156
  8
Layer_0
  10
224.9716
  20
299.53488
  0
VERTEX
  5
157
  8
Layer_0
  10
224.9716
  20
293.53488
  0
SEQEND
  0
POLYLINE
  5
159
  8
Layer_0
  62
0
  66
1
  10
0
  20
0
  30
0
  0
VERTEX
  5
159
  8
Layer_0
  10
224.9716
  20
293.53488
  0
VERTEX
  5
15a
  8
Layer_0
  10
195.1216
  20
293.53488
  0
SEQEND
  0
POLYLINE
  5
15c
  8
Layer_0
  62
0
  66
1
  10
0
  20
0
  30
0
  0
VERTEX
  5
15c
  8
Layer_0
  10
195.1216
  20
293.53488
  0
VERTEX
  5
15d
  8
Layer_0
  10
195.1216
  20
299.53488
  0
SEQEND
  0
POLYLINE
  5
15f
  8
Layer_0
  62
0
  66
1
  10
0
  20
0
  30
0
  0
VERTEX
  5
15f
  8
Layer_0
  10
195.1216
  20
299.53488
  0
VERTEX
  5
160
  8
Layer_0
  10
159.0466
  20
299.53488
  0
SEQEND
  0
ENDSEC
  0
EOF
