  0
SECTION
  2
HEADER
  9
$ACADVER
  1
AC1009
  0
ENDSEC
  0
SECTION
  2
ENTITIES
  0
CIRCLE
  5
90
  8
Layer_0
  62
0
  10
184.75397
  20
293.66302
  30
0
  40
1.5
  0
CIRCLE
  5
90
  8
Layer_0
  62
0
  10
184.75397
  20
203.66301
  30
0
  40
1.5
  0
CIRCLE
  5
90
  8
Layer_0
  62
0
  10
359.75397
  20
203.66301
  30
0
  40
1.5
  0
CIRCLE
  5
90
  8
Layer_0
  62
0
  10
359.75397
  20
293.66302
  30
0
  40
1.5
  0
POLYLINE
  5
90
  8
Layer_0
  62
0
  66
1
  10
0
  20
0
  30
0
  0
VERTEX
  5
90
  8
Layer_0
  10
179.75397
  20
263.58801
  0
VERTEX
  5
91
  8
Layer_0
  10
173.75397
  20
263.58801
  0
VERTEX
  5
92
  8
Layer_0
  10
173.75397
  20
233.73801
  0
SEQEND
  0
POLYLINE
  5
94
  8
Layer_0
  62
0
  66
1
  10
0
  20
0
  30
0
  0
VERTEX
  5
94
  8
Layer_0
  10
211.00397
  20
298.66301
  0
VERTEX
  5
95
  8
Layer_0
  10
211.00397
  20
304.66301
  0
VERTEX
  5
96
  8
Layer_0
  10
241.00397
  20
304.66301
  0
VERTEX
  5
97
  8
Layer_0
  10
241.00397
  20
298.66301
  0
VERTEX
  5
98
  8
Layer_0
  10
303.50397
  20
298.66301
  0
VERTEX
  5
99
  8
Layer_0
  10
303.50397
  20
304.66301
  0
VERTEX
  5
9a
  8
Layer_0
  10
333.50397
  20
304.66301
  0
VERTEX
  5
9b
  8
Layer_0
  10
333.50397
  20
298.66301
  0
VERTEX
  5
9c
  8
Layer_0
  10
364.75397
  20
298.66301
  0
VERTEX
  5
9d
  8
Layer_0
  10
364.75397
  20
263.66301
  0
VERTEX
  5
9e
  8
Layer_0
  10
370.75397
  20
263.66301
  0
VERTEX
  5
9f
  8
Layer_0
  10
370.75397
  20
233.66301
  0
VERTEX
  5
a0
  8
Layer_0
  10
364.75397
  20
233.66301
  0
VERTEX
  5
a1
  8
Layer_0
  10
364.75397
  20
198.66301
  0
VERTEX
  5
a2
  8
Layer_0
  10
333.50397
  20
198.66301
  0
VERTEX
  5
a3
  8
Layer_0
  10
333.50397
  20
192.66301
  0
VERTEX
  5
a4
  8
Layer_0
  10
303.50397
  20
192.66301
  0
VERTEX
  5
a5
  8
Layer_0
  10
303.50397
  20
198.66301
  0
VERTEX
  5
a6
  8
Layer_0
  10
241.00397
  20
198.66301
  0
VERTEX
  5
a7
  8
Layer_0
  10
241.00397
  20
192.66301
  0
VERTEX
  5
a8
  8
Layer_0
  10
211.00397
  20
192.66301
  0
VERTEX
  5
a9
  8
Layer_0
  10
211.00397
  20
198.66301
  0
VERTEX
  5
aa
  8
Layer_0
  10
179.75397
  20
198.66301
  0
VERTEX
  5
ab
  8
Layer_0
  10
179.75397
  20
233.66301
  0
VERTEX
  5
ac
  8
Layer_0
  10
173.75397
  20
233.66301
  0
VERTEX
  5
ad
  8
Layer_0
  10
173.75397
  20
263.66301
  0
VERTEX
  5
ae
  8
Layer_0
  10
179.75397
  20
263.66301
  0
VERTEX
  5
af
  8
Layer_0
  10
179.75397
  20
298.66301
  0
VERTEX
  5
b0
  8
Layer_0
  10
211.00397
  20
298.66301
  0
SEQEND
  0
POLYLINE
  5
b2
  8
Layer_0
  62
0
  66
1
  10
0
  20
0
  30
0
  0
VERTEX
  5
b2
  8
Layer_0
  10
193.78876
  20
205.06479
  42
0.15133141
  0
VERTEX
  5
b3
  8
Layer_0
  10
193.97293
  20
204.80557
  42
0.15775378
  0
VERTEX
  5
b4
  8
Layer_0
  10
194.22531
  20
204.74077
  42
0.27343609
  0
VERTEX
  5
b5
  8
Layer_0
  10
194.60561
  20
204.93332
  42
0.13049051
  0
VERTEX
  5
b6
  8
Layer_0
  10
194.72668
  20
205.58246
  0
VERTEX
  5
b7
  8
Layer_0
  10
194.72668
  20
208.66301
  0
VERTEX
  5
b8
  8
Layer_0
  10
196.27512
  20
208.66301
  0
VERTEX
  5
b9
  8
Layer_0
  10
196.27512
  20
205.94653
  0
VERTEX
  5
ba
  8
Layer_0
  10
196.27405
  20
205.80679
  42
-0.075108247
  0
VERTEX
  5
bb
  8
Layer_0
  10
196.12334
  20
204.64456
  42
-0.1667109
  0
VERTEX
  5
bc
  8
Layer_0
  10
195.51283
  20
203.88789
  42
-0.15077324
  0
VERTEX
  5
bd
  8
Layer_0
  10
194.33786
  20
203.57774
  42
-0.11067767
  0
VERTEX
  5
be
  8
Layer_0
  10
193.16461
  20
203.78238
  42
-0.15191066
  0
VERTEX
  5
bf
  8
Layer_0
  10
192.5217
  20
204.38095
  42
-0.11348091
  0
VERTEX
  5
c0
  8
Layer_0
  10
192.25397
  20
205.35469
  0
VERTEX
  5
c1
  8
Layer_0
  10
193.73077
  20
205.55591
  42
0.073329872
  0
VERTEX
  5
c2
  8
Layer_0
  10
193.78876
  20
205.06479
  0
SEQEND
  0
POLYLINE
  5
c4
  8
Layer_0
  62
0
  66
1
  10
0
  20
0
  30
0
  0
VERTEX
  5
c4
  8
Layer_0
  10
199.30887
  20
205.09889
  42
-0.017699734
  0
VERTEX
  5
c5
  8
Layer_0
  10
199.86993
  20
205.50476
  42
0.0915494
  0
VERTEX
  5
c6
  8
Layer_0
  10
200.84366
  20
206.41881
  42
0.14649653
  0
VERTEX
  5
c7
  8
Layer_0
  10
201.1114
  20
207.29193
  42
0.152459
  0
VERTEX
  5
c8
  8
Layer_0
  10
200.87778
  20
208.06786
  42
0.15091722
  0
VERTEX
  5
c9
  8
Layer_0
  10
200.23657
  20
208.58115
  42
0.090438882
  0
VERTEX
  5
ca
  8
Layer_0
  10
199.21567
  20
208.74712
  0
VERTEX
  5
cb
  8
Layer_0
  10
199.0957
  20
208.74828
  42
0.087461178
  0
VERTEX
  5
cc
  8
Layer_0
  10
198.06412
  20
208.60068
  0
VERTEX
  5
cd
  8
Layer_0
  10
197.99579
  20
208.57263
  42
0.14566842
  0
VERTEX
  5
ce
  8
Layer_0
  10
197.38016
  20
208.06786
  42
0.10980411
  0
VERTEX
  5
cf
  8
Layer_0
  10
197.08002
  20
207.1521
  0
VERTEX
  5
d0
  8
Layer_0
  10
198.47156
  20
207.03955
  42
-0.15741953
  0
VERTEX
  5
d1
  8
Layer_0
  10
198.69836
  20
207.62958
  42
-0.2040722
  0
VERTEX
  5
d2
  8
Layer_0
  10
199.13324
  20
207.79671
  42
-0.19978056
  0
VERTEX
  5
d3
  8
Layer_0
  10
199.55786
  20
207.6347
  42
-0.21273905
  0
VERTEX
  5
d4
  8
Layer_0
  10
199.72668
  20
207.24419
  42
-0.15810217
  0
VERTEX
  5
d5
  8
Layer_0
  10
199.55615
  20
206.79739
  42
-0.064160963
  0
VERTEX
  5
d6
  8
Layer_0
  10
198.77512
  20
206.10844
  42
0.080180518
  0
VERTEX
  5
d7
  8
Layer_0
  10
197.41257
  20
204.82434
  42
0.12035779
  0
VERTEX
  5
d8
  8
Layer_0
  10
196.97771
  20
203.66301
  0
VERTEX
  5
d9
  8
Layer_0
  10
201.14551
  20
203.66301
  0
VERTEX
  5
da
  8
Layer_0
  10
201.14551
  20
204.79535
  0
VERTEX
  5
db
  8
Layer_0
  10
198.97635
  20
204.79535
  42
-0.021868517
  0
VERTEX
  5
dc
  8
Layer_0
  10
199.30887
  20
205.09889
  0
SEQEND
  0
POLYLINE
  5
de
  8
Layer_0
  62
0
  66
1
  10
0
  20
0
  30
0
  0
VERTEX
  5
de
  8
Layer_0
  10
201.60596
  20
204.94882
  0
VERTEX
  5
df
  8
Layer_0
  10
203.62505
  20
204.94882
  0
VERTEX
  5
e0
  8
Layer_0
  10
203.62505
  20
206.02318
  0
VERTEX
  5
e1
  8
Layer_0
  10
201.60596
  20
206.02318
  0
VERTEX
  5
e2
  8
Layer_0
  10
201.60596
  20
204.94882
  0
SEQEND
  0
POLYLINE
  5
e4
  8
Layer_0
  62
0
  66
1
  10
0
  20
0
  30
0
  0
VERTEX
  5
e4
  8
Layer_0
  10
205.44632
  20
205.71622
  42
0.06606327
  0
VERTEX
  5
e5
  8
Layer_0
  10
204.93132
  20
203.66301
  0
VERTEX
  5
e6
  8
Layer_0
  10
206.31604
  20
203.66301
  42
-0.0545321
  0
VERTEX
  5
e7
  8
Layer_0
  10
206.58206
  20
205.18756
  42
-0.069040636
  0
VERTEX
  5
e8
  8
Layer_0
  10
207.26079
  20
206.69165
  42
-0.067362292
  0
VERTEX
  5
e9
  8
Layer_0
  10
208.14413
  20
207.72508
  0
VERTEX
  5
ea
  8
Layer_0
  10
208.14413
  20
208.66301
  0
VERTEX
  5
eb
  8
Layer_0
  10
204.0889
  20
208.66301
  0
VERTEX
  5
ec
  8
Layer_0
  10
204.0889
  20
207.48975
  0
VERTEX
  5
ed
  8
Layer_0
  10
206.5582
  20
207.48975
  42
0.068435641
  0
VERTEX
  5
ee
  8
Layer_0
  10
205.44632
  20
205.71622
  0
SEQEND
  0
ENDSEC
  0
EOF
