  0
SECTION
  2
HEADER
  9
$ACADVER
  1
AC1009
  0
ENDSEC
  0
SECTION
  2
ENTITIES
  0
CIRCLE
  5
90
  8
Layer_0
  62
0
  10
136.81018
  20
274.25751
  30
0
  40
1.5
  0
CIRCLE
  5
90
  8
Layer_0
  62
0
  10
216.81018
  20
274.25751
  30
0
  40
1.5
  0
CIRCLE
  5
90
  8
Layer_0
  62
0
  10
216.81018
  20
99.257507
  30
0
  40
1.5
  0
CIRCLE
  5
90
  8
Layer_0
  62
0
  10
136.81018
  20
99.257507
  30
0
  40
1.5
  0
CIRCLE
  5
90
  8
Layer_0
  62
0
  10
100.81018
  20
274.25751
  30
0
  40
1.5
  0
CIRCLE
  5
90
  8
Layer_0
  62
0
  10
100.81018
  20
99.257507
  30
0
  40
1.5
  0
POLYLINE
  5
90
  8
Layer_0
  62
0
  66
1
  10
0
  20
0
  30
0
  0
VERTEX
  5
90
  8
Layer_0
  10
125.81018
  20
125.58252
  0
VERTEX
  5
91
  8
Layer_0
  10
131.81018
  20
125.58252
  0
VERTEX
  5
92
  8
Layer_0
  10
131.81018
  20
155.43251
  0
VERTEX
  5
93
  8
Layer_0
  10
125.81018
  20
155.43251
  0
SEQEND
  0
POLYLINE
  5
95
  8
Layer_0
  62
0
  66
1
  10
0
  20
0
  30
0
  0
VERTEX
  5
95
  8
Layer_0
  10
125.81018
  20
218.0825
  0
VERTEX
  5
96
  8
Layer_0
  10
125.81018
  20
247.93251
  0
SEQEND
  0
POLYLINE
  5
98
  8
Layer_0
  62
0
  66
1
  10
0
  20
0
  30
0
  0
VERTEX
  5
98
  8
Layer_0
  10
125.81018
  20
88.257507
  0
VERTEX
  5
99
  8
Layer_0
  10
115.71018
  20
88.257507
  0
VERTEX
  5
9a
  8
Layer_0
  10
115.71018
  20
94.257507
  0
VERTEX
  5
9b
  8
Layer_0
  10
105.91018
  20
94.257507
  0
VERTEX
  5
9c
  8
Layer_0
  10
105.91018
  20
88.257507
  0
VERTEX
  5
9d
  8
Layer_0
  10
89.810181
  20
88.257507
  0
VERTEX
  5
9e
  8
Layer_0
  10
89.810181
  20
125.58252
  0
VERTEX
  5
9f
  8
Layer_0
  10
95.810181
  20
125.58252
  0
VERTEX
  5
a0
  8
Layer_0
  10
95.810181
  20
155.43251
  0
VERTEX
  5
a1
  8
Layer_0
  10
89.810181
  20
155.43251
  0
VERTEX
  5
a2
  8
Layer_0
  10
89.810181
  20
218.0825
  0
VERTEX
  5
a3
  8
Layer_0
  10
95.810181
  20
218.0825
  0
VERTEX
  5
a4
  8
Layer_0
  10
95.810181
  20
247.93251
  0
VERTEX
  5
a5
  8
Layer_0
  10
89.810181
  20
247.93251
  0
VERTEX
  5
a6
  8
Layer_0
  10
89.810181
  20
285.25751
  0
VERTEX
  5
a7
  8
Layer_0
  10
105.91018
  20
285.25751
  0
VERTEX
  5
a8
  8
Layer_0
  10
105.91018
  20
279.25751
  0
VERTEX
  5
a9
  8
Layer_0
  10
115.71018
  20
279.25751
  0
VERTEX
  5
aa
  8
Layer_0
  10
115.71018
  20
285.25751
  0
VERTEX
  5
ab
  8
Layer_0
  10
125.81018
  20
285.25751
  0
SEQEND
  0
POLYLINE
  5
ad
  8
Layer_0
  62
0
  66
1
  10
0
  20
0
  30
0
  0
VERTEX
  5
ad
  8
Layer_0
  10
198.00928
  20
110.43835
  42
0.21905754
  0
VERTEX
  5
ae
  8
Layer_0
  10
197.4816
  20
110.65222
  42
0.14427059
  0
VERTEX
  5
af
  8
Layer_0
  10
197.05133
  20
110.53992
  42
0.17542976
  0
VERTEX
  5
b0
  8
Layer_0
  10
196.80096
  20
110.23065
  42
0.076043561
  0
VERTEX
  5
b1
  8
Layer_0
  10
196.7299
  20
109.60513
  0
VERTEX
  5
b2
  8
Layer_0
  10
196.71429
  20
106.1604
  0
VERTEX
  5
b3
  8
Layer_0
  10
196.05264
  20
106.16342
  0
VERTEX
  5
b4
  8
Layer_0
  10
196.06808
  20
109.57062
  42
-0.099816084
  0
VERTEX
  5
b5
  8
Layer_0
  10
196.22426
  20
110.54193
  42
-0.16924009
  0
VERTEX
  5
b6
  8
Layer_0
  10
196.70752
  20
111.065
  42
-0.12705208
  0
VERTEX
  5
b7
  8
Layer_0
  10
197.48085
  20
111.24225
  0
VERTEX
  5
b8
  8
Layer_0
  10
197.53517
  20
111.24136
  42
-0.2088869
  0
VERTEX
  5
b9
  8
Layer_0
  10
198.48697
  20
110.85913
  42
-0.19416187
  0
VERTEX
  5
ba
  8
Layer_0
  10
198.81781
  20
109.73212
  0
VERTEX
  5
bb
  8
Layer_0
  10
198.22058
  20
109.65295
  42
0.16246928
  0
VERTEX
  5
bc
  8
Layer_0
  10
198.00928
  20
110.43835
  0
SEQEND
  0
POLYLINE
  5
be
  8
Layer_0
  62
0
  66
1
  10
0
  20
0
  30
0
  0
VERTEX
  5
be
  8
Layer_0
  10
194.20551
  20
110.24927
  42
-0.025360917
  0
VERTEX
  5
bf
  8
Layer_0
  10
193.49326
  20
109.6232
  42
0.032497409
  0
VERTEX
  5
c0
  8
Layer_0
  10
192.54283
  20
108.74756
  42
0.080537432
  0
VERTEX
  5
c1
  8
Layer_0
  10
192.13249
  20
108.13892
  42
0.10148768
  0
VERTEX
  5
c2
  8
Layer_0
  10
192.00703
  20
107.54944
  42
0.21357919
  0
VERTEX
  5
c3
  8
Layer_0
  10
192.42206
  20
106.55847
  42
0.19705911
  0
VERTEX
  5
c4
  8
Layer_0
  10
193.55939
  20
106.15424
  42
0.18501569
  0
VERTEX
  5
c5
  8
Layer_0
  10
194.69681
  20
106.51917
  42
0.19687519
  0
VERTEX
  5
c6
  8
Layer_0
  10
195.18939
  20
107.59299
  0
VERTEX
  5
c7
  8
Layer_0
  10
194.55873
  20
107.66064
  42
-0.20190727
  0
VERTEX
  5
c8
  8
Layer_0
  10
194.28595
  20
106.92517
  42
-0.20510272
  0
VERTEX
  5
c9
  8
Layer_0
  10
193.57535
  20
106.66235
  42
-0.19984858
  0
VERTEX
  5
ca
  8
Layer_0
  10
192.89606
  20
106.91614
  42
-0.21219941
  0
VERTEX
  5
cb
  8
Layer_0
  10
192.63794
  20
107.53293
  42
-0.15965036
  0
VERTEX
  5
cc
  8
Layer_0
  10
192.92776
  20
108.27002
  42
-0.055829711
  0
VERTEX
  5
cd
  8
Layer_0
  10
193.96693
  20
109.2691
  0
VERTEX
  5
ce
  8
Layer_0
  10
194.03419
  20
109.32404
  42
0.04358988
  0
VERTEX
  5
cf
  8
Layer_0
  10
194.84082
  20
110.07755
  42
0.08684886
  0
VERTEX
  5
d0
  8
Layer_0
  10
195.248
  20
110.74078
  42
0.100754
  0
VERTEX
  5
d1
  8
Layer_0
  10
195.32155
  20
111.16678
  0
VERTEX
  5
d2
  8
Layer_0
  10
192.01668
  20
111.18176
  0
VERTEX
  5
d3
  8
Layer_0
  10
192.01401
  20
110.59174
  0
VERTEX
  5
d4
  8
Layer_0
  10
194.46622
  20
110.58063
  42
-0.052141182
  0
VERTEX
  5
d5
  8
Layer_0
  10
194.20551
  20
110.24927
  0
SEQEND
  0
POLYLINE
  5
d7
  8
Layer_0
  62
0
  66
1
  10
0
  20
0
  30
0
  0
VERTEX
  5
d7
  8
Layer_0
  10
189.53098
  20
109.07498
  0
VERTEX
  5
d8
  8
Layer_0
  10
189.53378
  20
109.69232
  0
VERTEX
  5
d9
  8
Layer_0
  10
191.41983
  20
109.68378
  0
VERTEX
  5
da
  8
Layer_0
  10
191.41704
  20
109.06644
  0
VERTEX
  5
db
  8
Layer_0
  10
189.53098
  20
109.07498
  0
SEQEND
  0
POLYLINE
  5
dd
  8
Layer_0
  62
0
  66
1
  10
0
  20
0
  30
0
  0
VERTEX
  5
dd
  8
Layer_0
  10
187.9948
  20
110.2774
  42
-0.025421
  0
VERTEX
  5
de
  8
Layer_0
  10
187.28255
  20
109.65137
  42
0.032467873
  0
VERTEX
  5
df
  8
Layer_0
  10
186.33211
  20
108.7757
  42
0.080443586
  0
VERTEX
  5
e0
  8
Layer_0
  10
185.92178
  20
108.16705
  42
0.10158261
  0
VERTEX
  5
e1
  8
Layer_0
  10
185.79633
  20
107.57758
  42
0.21349772
  0
VERTEX
  5
e2
  8
Layer_0
  10
186.21135
  20
106.58661
  42
0.1970299
  0
VERTEX
  5
e3
  8
Layer_0
  10
187.34868
  20
106.18237
  42
0.18504919
  0
VERTEX
  5
e4
  8
Layer_0
  10
188.48608
  20
106.5473
  42
0.19676976
  0
VERTEX
  5
e5
  8
Layer_0
  10
188.97868
  20
107.62112
  0
VERTEX
  5
e6
  8
Layer_0
  10
188.34802
  20
107.68878
  42
-0.20178668
  0
VERTEX
  5
e7
  8
Layer_0
  10
188.07524
  20
106.95331
  42
-0.20515474
  0
VERTEX
  5
e8
  8
Layer_0
  10
187.36462
  20
106.69052
  42
-0.19941904
  0
VERTEX
  5
e9
  8
Layer_0
  10
186.68535
  20
106.94427
  42
-0.21207419
  0
VERTEX
  5
ea
  8
Layer_0
  10
186.42722
  20
107.56107
  42
-0.15984988
  0
VERTEX
  5
eb
  8
Layer_0
  10
186.71706
  20
108.29816
  42
-0.055846163
  0
VERTEX
  5
ec
  8
Layer_0
  10
187.75623
  20
109.29724
  0
VERTEX
  5
ed
  8
Layer_0
  10
187.82349
  20
109.35217
  42
0.043672918
  0
VERTEX
  5
ee
  8
Layer_0
  10
188.63011
  20
110.10568
  42
0.086715929
  0
VERTEX
  5
ef
  8
Layer_0
  10
189.03729
  20
110.76892
  42
0.099827689
  0
VERTEX
  5
f0
  8
Layer_0
  10
189.11084
  20
111.19492
  0
VERTEX
  5
f1
  8
Layer_0
  10
185.80597
  20
111.2099
  0
VERTEX
  5
f2
  8
Layer_0
  10
185.80328
  20
110.61987
  0
VERTEX
  5
f3
  8
Layer_0
  10
188.25551
  20
110.60876
  42
-0.052788012
  0
VERTEX
  5
f4
  8
Layer_0
  10
187.9948
  20
110.2774
  0
SEQEND
  0
POLYLINE
  5
f6
  8
Layer_0
  62
0
  66
1
  10
0
  20
0
  30
0
  0
VERTEX
  5
f6
  8
Layer_0
  10
125.81018
  20
247.93251
  0
VERTEX
  5
f7
  8
Layer_0
  10
131.81018
  20
247.93251
  0
SEQEND
  0
POLYLINE
  5
f9
  8
Layer_0
  62
0
  66
1
  10
0
  20
0
  30
0
  0
VERTEX
  5
f9
  8
Layer_0
  10
131.81018
  20
247.93251
  0
VERTEX
  5
fa
  8
Layer_0
  10
131.81018
  20
218.0825
  0
SEQEND
  0
POLYLINE
  5
fc
  8
Layer_0
  62
0
  66
1
  10
0
  20
0
  30
0
  0
VERTEX
  5
fc
  8
Layer_0
  10
131.81018
  20
218.0825
  0
VERTEX
  5
fd
  8
Layer_0
  10
125.81018
  20
218.0825
  0
SEQEND
  0
POLYLINE
  5
ff
  8
Layer_0
  62
0
  66
1
  10
0
  20
0
  30
0
  0
VERTEX
  5
ff
  8
Layer_0
  10
125.81018
  20
155.43251
  0
VERTEX
  5
100
  8
Layer_0
  10
125.81018
  20
125.58252
  0
SEQEND
  0
POLYLINE
  5
102
  8
Layer_0
  62
0
  66
1
  10
0
  20
0
  30
0
  0
VERTEX
  5
102
  8
Layer_0
  10
125.81018
  20
88.257507
  0
VERTEX
  5
103
  8
Layer_0
  10
161.88518
  20
88.257507
  0
SEQEND
  0
POLYLINE
  5
105
  8
Layer_0
  62
0
  66
1
  10
0
  20
0
  30
0
  0
VERTEX
  5
105
  8
Layer_0
  10
161.88518
  20
88.257507
  0
VERTEX
  5
106
  8
Layer_0
  10
161.88518
  20
94.257507
  0
SEQEND
  0
POLYLINE
  5
108
  8
Layer_0
  62
0
  66
1
  10
0
  20
0
  30
0
  0
VERTEX
  5
108
  8
Layer_0
  10
161.88518
  20
94.257507
  0
VERTEX
  5
109
  8
Layer_0
  10
191.73518
  20
94.257507
  0
SEQEND
  0
POLYLINE
  5
10b
  8
Layer_0
  62
0
  66
1
  10
0
  20
0
  30
0
  0
VERTEX
  5
10b
  8
Layer_0
  10
191.73518
  20
94.257507
  0
VERTEX
  5
10c
  8
Layer_0
  10
191.73518
  20
88.257507
  0
SEQEND
  0
POLYLINE
  5
10e
  8
Layer_0
  62
0
  66
1
  10
0
  20
0
  30
0
  0
VERTEX
  5
10e
  8
Layer_0
  10
191.73518
  20
88.257507
  0
VERTEX
  5
10f
  8
Layer_0
  10
227.81018
  20
88.257507
  0
SEQEND
  0
POLYLINE
  5
111
  8
Layer_0
  62
0
  66
1
  10
0
  20
0
  30
0
  0
VERTEX
  5
111
  8
Layer_0
  10
227.81018
  20
88.257507
  0
VERTEX
  5
112
  8
Layer_0
  10
227.81018
  20
125.58252
  0
SEQEND
  0
POLYLINE
  5
114
  8
Layer_0
  62
0
  66
1
  10
0
  20
0
  30
0
  0
VERTEX
  5
114
  8
Layer_0
  10
227.81018
  20
125.58252
  0
VERTEX
  5
115
  8
Layer_0
  10
221.81018
  20
125.58252
  0
SEQEND
  0
POLYLINE
  5
117
  8
Layer_0
  62
0
  66
1
  10
0
  20
0
  30
0
  0
VERTEX
  5
117
  8
Layer_0
  10
221.81018
  20
125.58252
  0
VERTEX
  5
118
  8
Layer_0
  10
221.81018
  20
155.43251
  0
SEQEND
  0
POLYLINE
  5
11a
  8
Layer_0
  62
0
  66
1
  10
0
  20
0
  30
0
  0
VERTEX
  5
11a
  8
Layer_0
  10
221.81018
  20
155.43251
  0
VERTEX
  5
11b
  8
Layer_0
  10
227.81018
  20
155.43251
  0
SEQEND
  0
POLYLINE
  5
11d
  8
Layer_0
  62
0
  66
1
  10
0
  20
0
  30
0
  0
VERTEX
  5
11d
  8
Layer_0
  10
227.81018
  20
155.43251
  0
VERTEX
  5
11e
  8
Layer_0
  10
227.81018
  20
218.0825
  0
SEQEND
  0
POLYLINE
  5
120
  8
Layer_0
  62
0
  66
1
  10
0
  20
0
  30
0
  0
VERTEX
  5
120
  8
Layer_0
  10
227.81018
  20
218.0825
  0
VERTEX
  5
121
  8
Layer_0
  10
221.81018
  20
218.0825
  0
SEQEND
  0
POLYLINE
  5
123
  8
Layer_0
  62
0
  66
1
  10
0
  20
0
  30
0
  0
VERTEX
  5
123
  8
Layer_0
  10
221.81018
  20
218.0825
  0
VERTEX
  5
124
  8
Layer_0
  10
221.81018
  20
247.93251
  0
SEQEND
  0
POLYLINE
  5
126
  8
Layer_0
  62
0
  66
1
  10
0
  20
0
  30
0
  0
VERTEX
  5
126
  8
Layer_0
  10
221.81018
  20
247.93251
  0
VERTEX
  5
127
  8
Layer_0
  10
227.81018
  20
247.93251
  0
SEQEND
  0
POLYLINE
  5
129
  8
Layer_0
  62
0
  66
1
  10
0
  20
0
  30
0
  0
VERTEX
  5
129
  8
Layer_0
  10
227.81018
  20
247.93251
  0
VERTEX
  5
12a
  8
Layer_0
  10
227.81018
  20
285.25751
  0
SEQEND
  0
POLYLINE
  5
12c
  8
Layer_0
  62
0
  66
1
  10
0
  20
0
  30
0
  0
VERTEX
  5
12c
  8
Layer_0
  10
227.81018
  20
285.25751
  0
VERTEX
  5
12d
  8
Layer_0
  10
191.73518
  20
285.25751
  0
SEQEND
  0
POLYLINE
  5
12f
  8
Layer_0
  62
0
  66
1
  10
0
  20
0
  30
0
  0
VERTEX
  5
12f
  8
Layer_0
  10
191.73518
  20
285.25751
  0
VERTEX
  5
130
  8
Layer_0
  10
191.73518
  20
279.25751
  0
SEQEND
  0
POLYLINE
  5
132
  8
Layer_0
  62
0
  66
1
  10
0
  20
0
  30
0
  0
VERTEX
  5
132
  8
Layer_0
  10
191.73518
  20
279.25751
  0
VERTEX
  5
133
  8
Layer_0
  10
161.88518
  20
279.25751
  0
SEQEND
  0
POLYLINE
  5
135
  8
Layer_0
  62
0
  66
1
  10
0
  20
0
  30
0
  0
VERTEX
  5
135
  8
Layer_0
  10
161.88518
  20
279.25751
  0
VERTEX
  5
136
  8
Layer_0
  10
161.88518
  20
285.25751
  0
SEQEND
  0
POLYLINE
  5
138
  8
Layer_0
  62
0
  66
1
  10
0
  20
0
  30
0
  0
VERTEX
  5
138
  8
Layer_0
  10
161.88518
  20
285.25751
  0
VERTEX
  5
139
  8
Layer_0
  10
125.81018
  20
285.25751
  0
SEQEND
  0
ENDSEC
  0
EOF
