  0
SECTION
  2
HEADER
  9
$ACADVER
  1
AC1009
  0
ENDSEC
  0
SECTION
  2
ENTITIES
  0
POLYLINE
  5
90
  8
Layer_0
  62
1
  66
1
  10
0
  20
0
  30
0
  0
VERTEX
  5
90
  8
Layer_0
  10
91.417892
  20
234.57053
  0
VERTEX
  5
91
  8
Layer_0
  10
91.417892
  20
240.57053
  0
VERTEX
  5
92
  8
Layer_0
  10
121.41789
  20
240.57053
  0
VERTEX
  5
93
  8
Layer_0
  10
121.41789
  20
234.57053
  0
VERTEX
  5
94
  8
Layer_0
  10
151.41789
  20
234.57053
  0
VERTEX
  5
95
  8
Layer_0
  10
151.41789
  20
212.07053
  0
VERTEX
  5
96
  8
Layer_0
  10
112.41789
  20
212.07053
  0
VERTEX
  5
97
  8
Layer_0
  10
112.41789
  20
157.07053
  0
VERTEX
  5
98
  8
Layer_0
  10
151.41789
  20
157.07053
  0
VERTEX
  5
99
  8
Layer_0
  10
151.41789
  20
134.57053
  0
VERTEX
  5
9a
  8
Layer_0
  10
121.41789
  20
134.57053
  0
VERTEX
  5
9b
  8
Layer_0
  10
121.41789
  20
128.57053
  0
VERTEX
  5
9c
  8
Layer_0
  10
91.417892
  20
128.57053
  0
VERTEX
  5
9d
  8
Layer_0
  10
91.417892
  20
134.57053
  0
VERTEX
  5
9e
  8
Layer_0
  10
83.417892
  20
134.57053
  0
VERTEX
  5
9f
  8
Layer_0
  10
83.417892
  20
154.57053
  0
VERTEX
  5
a0
  8
Layer_0
  10
61.417892
  20
154.57053
  0
VERTEX
  5
a1
  8
Layer_0
  10
61.417892
  20
169.57053
  0
VERTEX
  5
a2
  8
Layer_0
  10
55.417892
  20
169.57053
  0
VERTEX
  5
a3
  8
Layer_0
  10
55.417892
  20
199.57053
  0
VERTEX
  5
a4
  8
Layer_0
  10
61.417892
  20
199.57053
  0
VERTEX
  5
a5
  8
Layer_0
  10
61.417892
  20
234.57053
  0
VERTEX
  5
a6
  8
Layer_0
  10
91.417892
  20
234.57053
  0
SEQEND
  0
POLYLINE
  5
a8
  8
Layer_1
  62
3
  66
1
  10
0
  20
0
  30
0
  0
VERTEX
  5
a8
  8
Layer_1
  10
69.326073
  20
225.72935
  0
VERTEX
  5
a9
  8
Layer_1
  10
69.335777
  20
225.71901
  0
VERTEX
  5
aa
  8
Layer_1
  10
69.345787
  20
225.70909
  0
VERTEX
  5
ab
  8
Layer_1
  10
69.356094
  20
225.69962
  42
0.18726645
  0
VERTEX
  5
ac
  8
Layer_1
  10
69.643265
  20
225.60248
  0
VERTEX
  5
ad
  8
Layer_1
  10
69.667877
  20
225.60297
  42
0.13423354
  0
VERTEX
  5
ae
  8
Layer_1
  10
69.901108
  20
225.67104
  0
VERTEX
  5
af
  8
Layer_1
  10
69.918716
  20
225.6828
  42
0.15884626
  0
VERTEX
  5
b0
  8
Layer_1
  10
70.050491
  20
225.85725
  0
VERTEX
  5
b1
  8
Layer_1
  10
70.053833
  20
225.86731
  0
VERTEX
  5
b2
  8
Layer_1
  10
70.05703
  20
225.87784
  42
0.065618399
  0
VERTEX
  5
b3
  8
Layer_1
  10
70.091423
  20
226.23276
  0
VERTEX
  5
b4
  8
Layer_1
  10
70.091423
  20
228.29962
  0
VERTEX
  5
b5
  8
Layer_1
  10
70.488419
  20
228.29962
  0
VERTEX
  5
b6
  8
Layer_1
  10
70.488419
  20
226.25528
  0
VERTEX
  5
b7
  8
Layer_1
  10
70.488258
  20
226.2242
  42
-0.098107144
  0
VERTEX
  5
b8
  8
Layer_1
  10
70.397354
  20
225.67206
  0
VERTEX
  5
b9
  8
Layer_1
  10
70.38958
  20
225.655
  42
-0.1611333
  0
VERTEX
  5
ba
  8
Layer_1
  10
70.108818
  20
225.35692
  0
VERTEX
  5
bb
  8
Layer_1
  10
70.092239
  20
225.34807
  42
-0.12072822
  0
VERTEX
  5
bc
  8
Layer_1
  10
69.645309
  20
225.24846
  0
VERTEX
  5
bd
  8
Layer_1
  10
69.612717
  20
225.24886
  42
-0.2088616
  0
VERTEX
  5
be
  8
Layer_1
  10
69.040604
  20
225.47562
  42
-0.19417007
  0
VERTEX
  5
bf
  8
Layer_1
  10
68.839035
  20
226.15091
  0
VERTEX
  5
c0
  8
Layer_1
  10
69.197151
  20
226.20003
  42
0.16180022
  0
VERTEX
  5
c1
  8
Layer_1
  10
69.326073
  20
225.72935
  0
SEQEND
  0
POLYLINE
  5
c3
  8
Layer_1
  62
3
  66
1
  10
0
  20
0
  30
0
  0
VERTEX
  5
c3
  8
Layer_1
  10
71.607796
  20
225.85316
  42
-0.023589029
  0
VERTEX
  5
c4
  8
Layer_1
  10
72.03344
  20
226.23071
  42
0.029992722
  0
VERTEX
  5
c5
  8
Layer_1
  10
72.586678
  20
226.7424
  0
VERTEX
  5
c6
  8
Layer_1
  10
72.601311
  20
226.7587
  42
0.071057321
  0
VERTEX
  5
c7
  8
Layer_1
  10
72.832901
  20
227.09589
  0
VERTEX
  5
c8
  8
Layer_1
  10
72.845856
  20
227.125
  42
0.092438878
  0
VERTEX
  5
c9
  8
Layer_1
  10
72.919014
  20
227.44904
  0
VERTEX
  5
ca
  8
Layer_1
  10
72.919525
  20
227.47902
  42
0.18551998
  0
VERTEX
  5
cb
  8
Layer_1
  10
72.726814
  20
228.01082
  42
0.023241048
  0
VERTEX
  5
cc
  8
Layer_1
  10
72.667816
  20
228.07248
  42
0.19711901
  0
VERTEX
  5
cd
  8
Layer_1
  10
71.984329
  20
228.31189
  42
0.18484407
  0
VERTEX
  5
ce
  8
Layer_1
  10
71.302879
  20
228.08986
  42
0.19670069
  0
VERTEX
  5
cf
  8
Layer_1
  10
71.010246
  20
227.44423
  0
VERTEX
  5
d0
  8
Layer_1
  10
71.388832
  20
227.40535
  42
-0.20211914
  0
VERTEX
  5
d1
  8
Layer_1
  10
71.550491
  20
227.84737
  42
-0.20614179
  0
VERTEX
  5
d2
  8
Layer_1
  10
71.976143
  20
228.00699
  42
-0.18033206
  0
VERTEX
  5
d3
  8
Layer_1
  10
72.357643
  20
227.8806
  0
VERTEX
  5
d4
  8
Layer_1
  10
72.371185
  20
227.86885
  0
VERTEX
  5
d5
  8
Layer_1
  10
72.384399
  20
227.85657
  42
-0.14775285
  0
VERTEX
  5
d6
  8
Layer_1
  10
72.527626
  20
227.6091
  0
VERTEX
  5
d7
  8
Layer_1
  10
72.531158
  20
227.59241
  0
VERTEX
  5
d8
  8
Layer_1
  10
72.534149
  20
227.57547
  0
VERTEX
  5
d9
  8
Layer_1
  10
72.536598
  20
227.55829
  0
VERTEX
  5
da
  8
Layer_1
  10
72.538498
  20
227.54086
  0
VERTEX
  5
db
  8
Layer_1
  10
72.539856
  20
227.52322
  42
0.011752324
  0
VERTEX
  5
dc
  8
Layer_1
  10
72.540947
  20
227.48721
  42
-0.15542715
  0
VERTEX
  5
dd
  8
Layer_1
  10
72.383072
  20
227.06364
  0
VERTEX
  5
de
  8
Layer_1
  10
72.369049
  20
227.04416
  42
-0.055815916
  0
VERTEX
  5
df
  8
Layer_1
  10
71.748268
  20
226.44189
  0
VERTEX
  5
e0
  8
Layer_1
  10
71.708069
  20
226.40875
  42
0.043510561
  0
VERTEX
  5
e1
  8
Layer_1
  10
71.226143
  20
225.95447
  42
0.08678795
  0
VERTEX
  5
e2
  8
Layer_1
  10
70.983643
  20
225.55542
  42
0.08597873
  0
VERTEX
  5
e3
  8
Layer_1
  10
70.940727
  20
225.34367
  0
VERTEX
  5
e4
  8
Layer_1
  10
70.940346
  20
225.32172
  0
VERTEX
  5
e5
  8
Layer_1
  10
70.940674
  20
225.29962
  0
VERTEX
  5
e6
  8
Layer_1
  10
72.923615
  20
225.29962
  0
VERTEX
  5
e7
  8
Layer_1
  10
72.923615
  20
225.65364
  0
VERTEX
  5
e8
  8
Layer_1
  10
71.452271
  20
225.65364
  42
-0.052185656
  0
VERTEX
  5
e9
  8
Layer_1
  10
71.607796
  20
225.85316
  0
SEQEND
  0
POLYLINE
  5
eb
  8
Layer_1
  62
3
  66
1
  10
0
  20
0
  30
0
  0
VERTEX
  5
eb
  8
Layer_1
  10
74.409294
  20
226.20003
  0
VERTEX
  5
ec
  8
Layer_1
  10
74.409294
  20
226.57042
  0
VERTEX
  5
ed
  8
Layer_1
  10
73.277641
  20
226.57042
  0
VERTEX
  5
ee
  8
Layer_1
  10
73.277641
  20
226.20003
  0
VERTEX
  5
ef
  8
Layer_1
  10
74.409294
  20
226.20003
  0
SEQEND
  0
POLYLINE
  5
f1
  8
Layer_1
  62
3
  66
1
  10
0
  20
0
  30
0
  0
VERTEX
  5
f1
  8
Layer_1
  10
74.858475
  20
226.65739
  42
0.16540629
  0
VERTEX
  5
f2
  8
Layer_1
  10
74.710114
  20
226.16728
  42
0.20199928
  0
VERTEX
  5
f3
  8
Layer_1
  10
74.960075
  20
225.53357
  0
VERTEX
  5
f4
  8
Layer_1
  10
74.982285
  20
225.51141
  42
0.19339155
  0
VERTEX
  5
f5
  8
Layer_1
  10
75.661812
  20
225.24892
  0
VERTEX
  5
f6
  8
Layer_1
  10
75.698517
  20
225.24846
  42
0.18941706
  0
VERTEX
  5
f7
  8
Layer_1
  10
76.391769
  20
225.48901
  0
VERTEX
  5
f8
  8
Layer_1
  10
76.414749
  20
225.51039
  42
0.2028842
  0
VERTEX
  5
f9
  8
Layer_1
  10
76.686447
  20
226.12521
  0
VERTEX
  5
fa
  8
Layer_1
  10
76.68692
  20
226.15704
  42
0.15297121
  0
VERTEX
  5
fb
  8
Layer_1
  10
76.55442
  20
226.61906
  0
VERTEX
  5
fc
  8
Layer_1
  10
76.542648
  20
226.63591
  42
0.016483281
  0
VERTEX
  5
fd
  8
Layer_1
  10
76.517685
  20
226.66856
  42
0.14605509
  0
VERTEX
  5
fe
  8
Layer_1
  10
76.122116
  20
226.92648
  42
0.12762954
  0
VERTEX
  5
ff
  8
Layer_1
  10
76.425507
  20
227.12738
  0
VERTEX
  5
100
  8
Layer_1
  10
76.435616
  20
227.13965
  0
VERTEX
  5
101
  8
Layer_1
  10
76.445335
  20
227.15215
  0
VERTEX
  5
102
  8
Layer_1
  10
76.454659
  20
227.16489
  42
0.15234641
  0
VERTEX
  5
103
  8
Layer_1
  10
76.563942
  20
227.51083
  0
VERTEX
  5
104
  8
Layer_1
  10
76.56414
  20
227.52814
  42
0.17765911
  0
VERTEX
  5
105
  8
Layer_1
  10
76.397865
  20
228.00491
  42
0.031628155
  0
VERTEX
  5
106
  8
Layer_1
  10
76.324707
  20
228.08372
  42
0.19842757
  0
VERTEX
  5
107
  8
Layer_1
  10
75.692375
  20
228.31189
  42
0.19694293
  0
VERTEX
  5
108
  8
Layer_1
  10
75.066185
  20
228.08884
  42
0.21384435
  0
VERTEX
  5
109
  8
Layer_1
  10
74.830849
  20
227.53836
  42
0.15902745
  0
VERTEX
  5
10a
  8
Layer_1
  10
74.941353
  20
227.16592
  42
0.14797427
  0
VERTEX
  5
10b
  8
Layer_1
  10
75.262161
  20
226.93361
  0
VERTEX
  5
10c
  8
Layer_1
  10
75.281052
  20
226.92648
  42
0.17225903
  0
VERTEX
  5
10d
  8
Layer_1
  10
74.858475
  20
226.65739
  0
SEQEND
  0
POLYLINE
  5
10f
  8
Layer_1
  62
3
  66
1
  10
0
  20
0
  30
0
  0
VERTEX
  5
10f
  8
Layer_1
  10
75.696472
  20
228.00903
  42
0.20275735
  0
VERTEX
  5
110
  8
Layer_1
  10
75.346535
  20
227.87396
  42
0.21046552
  0
VERTEX
  5
111
  8
Layer_1
  10
75.207382
  20
227.55064
  42
0.17927902
  0
VERTEX
  5
112
  8
Layer_1
  10
75.312355
  20
227.23773
  42
0.023612697
  0
VERTEX
  5
113
  8
Layer_1
  10
75.34449
  20
227.20276
  42
-0.052262122
  0
VERTEX
  5
114
  8
Layer_1
  10
75.367912
  20
227.18118
  0
VERTEX
  5
115
  8
Layer_1
  10
75.380051
  20
227.1711
  42
0.17410565
  0
VERTEX
  5
116
  8
Layer_1
  10
75.700562
  20
227.06769
  0
VERTEX
  5
117
  8
Layer_1
  10
75.718163
  20
227.06793
  0
VERTEX
  5
118
  8
Layer_1
  10
75.735497
  20
227.06863
  42
0.18909753
  0
VERTEX
  5
119
  8
Layer_1
  10
76.049469
  20
227.20172
  0
VERTEX
  5
11a
  8
Layer_1
  10
76.060577
  20
227.21301
  42
0.19721028
  0
VERTEX
  5
11b
  8
Layer_1
  10
76.185555
  20
227.53018
  0
VERTEX
  5
11c
  8
Layer_1
  10
76.18531
  20
227.54695
  42
0.20079484
  0
VERTEX
  5
11d
  8
Layer_1
  10
76.04538
  20
227.87091
  42
0.20405862
  0
VERTEX
  5
11e
  8
Layer_1
  10
75.696472
  20
228.00903
  0
SEQEND
  0
POLYLINE
  5
120
  8
Layer_1
  62
3
  66
1
  10
0
  20
0
  30
0
  0
VERTEX
  5
120
  8
Layer_1
  10
75.385422
  20
225.63216
  0
VERTEX
  5
121
  8
Layer_1
  10
75.410133
  20
225.61925
  42
0.11662167
  0
VERTEX
  5
122
  8
Layer_1
  10
75.702606
  20
225.55133
  0
VERTEX
  5
123
  8
Layer_1
  10
75.724449
  20
225.55162
  42
0.19679226
  0
VERTEX
  5
124
  8
Layer_1
  10
76.138489
  20
225.72118
  0
VERTEX
  5
125
  8
Layer_1
  10
76.152512
  20
225.73549
  42
0.19798532
  0
VERTEX
  5
126
  8
Layer_1
  10
76.310387
  20
226.15295
  0
VERTEX
  5
127
  8
Layer_1
  10
76.310074
  20
226.17497
  42
0.19994602
  0
VERTEX
  5
128
  8
Layer_1
  10
76.133369
  20
226.59293
  42
0.20389868
  0
VERTEX
  5
129
  8
Layer_1
  10
75.690331
  20
226.76688
  42
0.20597807
  0
VERTEX
  5
12a
  8
Layer_1
  10
75.259567
  20
226.59497
  42
0.20495416
  0
VERTEX
  5
12b
  8
Layer_1
  10
75.088692
  20
226.16524
  0
VERTEX
  5
12c
  8
Layer_1
  10
75.089211
  20
226.13904
  42
0.10775439
  0
VERTEX
  5
12d
  8
Layer_1
  10
75.163383
  20
225.86032
  42
0.048904955
  0
VERTEX
  5
12e
  8
Layer_1
  10
75.221252
  20
225.7695
  42
0.10079201
  0
VERTEX
  5
12f
  8
Layer_1
  10
75.385422
  20
225.63216
  0
SEQEND
  0
ENDSEC
  0
EOF
