  0
SECTION
  2
HEADER
  9
$ACADVER
  1
AC1009
  0
ENDSEC
  0
SECTION
  2
ENTITIES
  0
CIRCLE
  5
90
  8
Layer_0
  62
0
  10
229.10948
  20
133.28122
  30
0
  40
25
  0
CIRCLE
  5
90
  8
Layer_0
  62
0
  10
129.10948
  20
133.28122
  30
0
  40
29.75
  0
CIRCLE
  5
90
  8
Layer_0
  62
0
  10
89.109482
  20
178.28122
  30
0
  40
1.5
  0
CIRCLE
  5
90
  8
Layer_0
  62
0
  10
264.1095
  20
178.28122
  30
0
  40
1.5
  0
CIRCLE
  5
90
  8
Layer_0
  62
0
  10
89.109482
  20
88.281219
  30
0
  40
1.5
  0
CIRCLE
  5
90
  8
Layer_0
  62
0
  10
264.1095
  20
88.281219
  30
0
  40
1.5
  0
CIRCLE
  5
90
  8
Layer_0
  62
0
  10
203.44936
  20
155.58722
  30
0
  40
1.5
  0
CIRCLE
  5
90
  8
Layer_0
  62
0
  10
254.76961
  20
155.58722
  30
0
  40
1.5
  0
CIRCLE
  5
90
  8
Layer_0
  62
0
  10
129.10948
  20
170.28122
  30
0
  40
1.5
  0
CIRCLE
  5
90
  8
Layer_0
  62
0
  10
92.109482
  20
133.28122
  30
0
  40
1.5
  0
CIRCLE
  5
90
  8
Layer_0
  62
0
  10
129.10948
  20
96.281219
  30
0
  40
1.5
  0
CIRCLE
  5
90
  8
Layer_0
  62
0
  10
166.10948
  20
133.28122
  30
0
  40
1.5
  0
CIRCLE
  5
90
  8
Layer_0
  62
0
  10
176.60948
  20
143.28122
  30
0
  40
1.5
  0
CIRCLE
  5
90
  8
Layer_0
  62
0
  10
176.60948
  20
153.28122
  30
0
  40
1.5
  0
CIRCLE
  5
90
  8
Layer_0
  62
0
  10
203.44936
  20
110.97522
  30
0
  40
1.5
  0
CIRCLE
  5
90
  8
Layer_0
  62
0
  10
254.76961
  20
110.97522
  30
0
  40
1.5
  0
POLYLINE
  5
90
  8
Layer_0
  62
0
  66
1
  10
0
  20
0
  30
0
  0
VERTEX
  5
90
  8
Layer_0
  10
115.35948
  20
183.28122
  0
VERTEX
  5
91
  8
Layer_0
  10
115.35948
  20
189.28122
  0
VERTEX
  5
92
  8
Layer_0
  10
145.35948
  20
189.28122
  0
VERTEX
  5
93
  8
Layer_0
  10
145.35948
  20
183.28122
  0
VERTEX
  5
94
  8
Layer_0
  10
207.85948
  20
183.28122
  0
VERTEX
  5
95
  8
Layer_0
  10
207.85948
  20
189.28122
  0
VERTEX
  5
96
  8
Layer_0
  10
237.85948
  20
189.28122
  0
VERTEX
  5
97
  8
Layer_0
  10
237.85948
  20
183.28122
  0
VERTEX
  5
98
  8
Layer_0
  10
269.1095
  20
183.28122
  0
VERTEX
  5
99
  8
Layer_0
  10
269.1095
  20
148.28122
  0
VERTEX
  5
9a
  8
Layer_0
  10
275.1095
  20
148.28122
  0
VERTEX
  5
9b
  8
Layer_0
  10
275.1095
  20
118.28122
  0
VERTEX
  5
9c
  8
Layer_0
  10
269.1095
  20
118.28122
  0
VERTEX
  5
9d
  8
Layer_0
  10
269.1095
  20
83.281219
  0
VERTEX
  5
9e
  8
Layer_0
  10
237.85948
  20
83.281219
  0
VERTEX
  5
9f
  8
Layer_0
  10
237.85948
  20
77.281219
  0
VERTEX
  5
a0
  8
Layer_0
  10
207.85948
  20
77.281219
  0
VERTEX
  5
a1
  8
Layer_0
  10
207.85948
  20
83.281219
  0
VERTEX
  5
a2
  8
Layer_0
  10
145.35948
  20
83.281219
  0
VERTEX
  5
a3
  8
Layer_0
  10
145.35948
  20
77.281219
  0
VERTEX
  5
a4
  8
Layer_0
  10
115.35948
  20
77.281219
  0
VERTEX
  5
a5
  8
Layer_0
  10
115.35948
  20
83.281219
  0
VERTEX
  5
a6
  8
Layer_0
  10
84.109482
  20
83.281219
  0
VERTEX
  5
a7
  8
Layer_0
  10
84.109482
  20
118.28122
  0
VERTEX
  5
a8
  8
Layer_0
  10
78.109482
  20
118.28122
  0
VERTEX
  5
a9
  8
Layer_0
  10
78.109482
  20
148.28122
  0
VERTEX
  5
aa
  8
Layer_0
  10
84.109482
  20
148.28122
  0
VERTEX
  5
ab
  8
Layer_0
  10
84.109482
  20
183.28122
  0
VERTEX
  5
ac
  8
Layer_0
  10
115.35948
  20
183.28122
  0
SEQEND
  0
POLYLINE
  5
ae
  8
Layer_0
  62
0
  66
1
  10
0
  20
0
  30
0
  0
VERTEX
  5
ae
  8
Layer_0
  10
94.955215
  20
170.28438
  42
0.22004524
  0
VERTEX
  5
af
  8
Layer_0
  10
95.483864
  20
170.07292
  42
0.14390705
  0
VERTEX
  5
b0
  8
Layer_0
  10
95.913605
  20
170.18718
  42
0.17434699
  0
VERTEX
  5
b1
  8
Layer_0
  10
96.162582
  20
170.49754
  42
0.076132568
  0
VERTEX
  5
b2
  8
Layer_0
  10
96.230797
  20
171.1234
  0
VERTEX
  5
b3
  8
Layer_0
  10
96.230797
  20
174.56815
  0
VERTEX
  5
b4
  8
Layer_0
  10
96.892456
  20
174.56815
  0
VERTEX
  5
b5
  8
Layer_0
  10
96.892456
  20
171.16092
  42
-0.099838981
  0
VERTEX
  5
b6
  8
Layer_0
  10
96.740685
  20
170.18887
  42
-0.16905621
  0
VERTEX
  5
b7
  8
Layer_0
  10
96.259789
  20
169.66364
  42
-0.12730707
  0
VERTEX
  5
b8
  8
Layer_0
  10
95.487274
  20
169.48288
  0
VERTEX
  5
b9
  8
Layer_0
  10
95.432953
  20
169.48354
  42
-0.2089737
  0
VERTEX
  5
ba
  8
Layer_0
  10
94.479431
  20
169.86145
  42
-0.1942868
  0
VERTEX
  5
bb
  8
Layer_0
  10
94.143478
  20
170.98697
  0
VERTEX
  5
bc
  8
Layer_0
  10
94.740341
  20
171.06882
  42
0.16224956
  0
VERTEX
  5
bd
  8
Layer_0
  10
94.955215
  20
170.28438
  0
SEQEND
  0
POLYLINE
  5
bf
  8
Layer_0
  62
0
  66
1
  10
0
  20
0
  30
0
  0
VERTEX
  5
bf
  8
Layer_0
  10
98.75808
  20
170.49072
  42
-0.025379726
  0
VERTEX
  5
c0
  8
Layer_0
  10
99.467491
  20
171.12
  42
0.032485401
  0
VERTEX
  5
c1
  8
Layer_0
  10
100.41395
  20
171.99994
  42
0.080632052
  0
VERTEX
  5
c2
  8
Layer_0
  10
100.82152
  20
172.61044
  42
0.10134989
  0
VERTEX
  5
c3
  8
Layer_0
  10
100.9443
  20
173.20047
  42
0.21354343
  0
VERTEX
  5
c4
  8
Layer_0
  10
100.5248
  20
174.18956
  42
0.063142897
  0
VERTEX
  5
c5
  8
Layer_0
  10
100.25455
  20
174.3884
  42
0.12890899
  0
VERTEX
  5
c6
  8
Layer_0
  10
99.385635
  20
174.58861
  42
0.1850254
  0
VERTEX
  5
c7
  8
Layer_0
  10
98.249893
  20
174.21855
  42
0.19684426
  0
VERTEX
  5
c8
  8
Layer_0
  10
97.762169
  20
173.1425
  0
VERTEX
  5
c9
  8
Layer_0
  10
98.393143
  20
173.0777
  42
-0.2020754
  0
VERTEX
  5
ca
  8
Layer_0
  10
98.662582
  20
173.81439
  42
-0.20515607
  0
VERTEX
  5
cb
  8
Layer_0
  10
99.371994
  20
174.08041
  42
-0.19967374
  0
VERTEX
  5
cc
  8
Layer_0
  10
100.05242
  20
173.82974
  42
-0.21212783
  0
VERTEX
  5
cd
  8
Layer_0
  10
100.31333
  20
173.21411
  42
-0.15964202
  0
VERTEX
  5
ce
  8
Layer_0
  10
100.02684
  20
172.47571
  42
-0.055847316
  0
VERTEX
  5
cf
  8
Layer_0
  10
98.99221
  20
171.47194
  0
VERTEX
  5
d0
  8
Layer_0
  10
98.925201
  20
171.41672
  42
0.043594195
  0
VERTEX
  5
d1
  8
Layer_0
  10
98.121994
  20
170.65955
  42
0.086896258
  0
VERTEX
  5
d2
  8
Layer_0
  10
97.717834
  20
169.99448
  42
0.10033694
  0
VERTEX
  5
d3
  8
Layer_0
  10
97.64621
  20
169.56815
  0
VERTEX
  5
d4
  8
Layer_0
  10
100.95112
  20
169.56815
  0
VERTEX
  5
d5
  8
Layer_0
  10
100.95112
  20
170.15819
  0
VERTEX
  5
d6
  8
Layer_0
  10
98.498871
  20
170.15819
  42
-0.052323414
  0
VERTEX
  5
d7
  8
Layer_0
  10
98.75808
  20
170.49072
  0
SEQEND
  0
POLYLINE
  5
d9
  8
Layer_0
  62
0
  66
1
  10
0
  20
0
  30
0
  0
VERTEX
  5
d9
  8
Layer_0
  10
103.42725
  20
171.06882
  0
VERTEX
  5
da
  8
Layer_0
  10
103.42725
  20
171.68616
  0
VERTEX
  5
db
  8
Layer_0
  10
101.54116
  20
171.68616
  0
VERTEX
  5
dc
  8
Layer_0
  10
101.54116
  20
171.06882
  0
VERTEX
  5
dd
  8
Layer_0
  10
103.42725
  20
171.06882
  0
SEQEND
  0
POLYLINE
  5
df
  8
Layer_0
  62
0
  66
1
  10
0
  20
0
  30
0
  0
VERTEX
  5
df
  8
Layer_0
  10
105.05242
  20
173.05724
  42
-0.043701337
  0
VERTEX
  5
e0
  8
Layer_0
  10
104.4061
  20
172.74004
  0
VERTEX
  5
e1
  8
Layer_0
  10
104.4061
  20
173.3335
  42
0.07280788
  0
VERTEX
  5
e2
  8
Layer_0
  10
105.30651
  20
173.92012
  42
0.094086666
  0
VERTEX
  5
e3
  8
Layer_0
  10
105.85221
  20
174.58861
  0
VERTEX
  5
e4
  8
Layer_0
  10
106.24785
  20
174.58861
  0
VERTEX
  5
e5
  8
Layer_0
  10
106.24785
  20
169.56815
  0
VERTEX
  5
e6
  8
Layer_0
  10
105.63393
  20
169.56815
  0
VERTEX
  5
e7
  8
Layer_0
  10
105.63393
  20
173.48015
  42
-0.056743001
  0
VERTEX
  5
e8
  8
Layer_0
  10
105.05242
  20
173.05724
  0
SEQEND
  0
ENDSEC
  0
EOF
