  0
SECTION
  2
HEADER
  9
$ACADVER
  1
AC1009
  0
ENDSEC
  0
SECTION
  2
ENTITIES
  0
CIRCLE
  5
90
  8
Layer_0
  62
1
  10
91.637894
  20
209.15611
  30
0
  40
1.5
  0
CIRCLE
  5
90
  8
Layer_0
  62
1
  10
171.63789
  20
209.15611
  30
0
  40
1.5
  0
CIRCLE
  5
90
  8
Layer_0
  62
1
  10
91.637894
  20
119.15613
  30
0
  40
1.5
  0
CIRCLE
  5
90
  8
Layer_0
  62
1
  10
171.63789
  20
119.15613
  30
0
  40
1.5
  0
CIRCLE
  5
90
  8
Layer_0
  62
1
  10
210.63789
  20
209.15611
  30
0
  40
1.5
  0
CIRCLE
  5
90
  8
Layer_0
  62
1
  10
210.63789
  20
119.15613
  30
0
  40
1.5
  0
CIRCLE
  5
90
  8
Layer_0
  62
1
  10
125.63789
  20
134.15613
  30
0
  40
10
  0
POLYLINE
  5
90
  8
Layer_0
  62
1
  66
1
  10
0
  20
0
  30
0
  0
VERTEX
  5
90
  8
Layer_0
  10
116.63789
  20
214.15611
  0
VERTEX
  5
91
  8
Layer_0
  10
116.63789
  20
220.15611
  0
VERTEX
  5
92
  8
Layer_0
  10
146.63789
  20
220.15611
  0
VERTEX
  5
93
  8
Layer_0
  10
146.63789
  20
214.15611
  0
VERTEX
  5
94
  8
Layer_0
  10
182.63789
  20
214.15611
  0
VERTEX
  5
95
  8
Layer_0
  10
195.63789
  20
214.15611
  0
VERTEX
  5
96
  8
Layer_0
  10
195.63789
  20
220.15611
  0
VERTEX
  5
97
  8
Layer_0
  10
205.63789
  20
220.15611
  0
VERTEX
  5
98
  8
Layer_0
  10
205.63789
  20
214.15611
  0
VERTEX
  5
99
  8
Layer_0
  10
218.63789
  20
214.15611
  0
VERTEX
  5
9a
  8
Layer_0
  10
218.63789
  20
179.10611
  0
VERTEX
  5
9b
  8
Layer_0
  10
215.63789
  20
179.10611
  0
VERTEX
  5
9c
  8
Layer_0
  10
215.63789
  20
149.20612
  0
VERTEX
  5
9d
  8
Layer_0
  10
218.63789
  20
149.20612
  0
VERTEX
  5
9e
  8
Layer_0
  10
218.63789
  20
114.15613
  0
VERTEX
  5
9f
  8
Layer_0
  10
205.63789
  20
114.15613
  0
VERTEX
  5
a0
  8
Layer_0
  10
205.63789
  20
108.15613
  0
VERTEX
  5
a1
  8
Layer_0
  10
195.63789
  20
108.15613
  0
VERTEX
  5
a2
  8
Layer_0
  10
195.63789
  20
114.15613
  0
VERTEX
  5
a3
  8
Layer_0
  10
182.63789
  20
114.15613
  0
VERTEX
  5
a4
  8
Layer_0
  10
146.63789
  20
114.15613
  0
VERTEX
  5
a5
  8
Layer_0
  10
146.63789
  20
108.15613
  0
VERTEX
  5
a6
  8
Layer_0
  10
116.63789
  20
108.15613
  0
VERTEX
  5
a7
  8
Layer_0
  10
116.63789
  20
114.15613
  0
VERTEX
  5
a8
  8
Layer_0
  10
80.637894
  20
114.15613
  0
VERTEX
  5
a9
  8
Layer_0
  10
80.637894
  20
149.20612
  0
VERTEX
  5
aa
  8
Layer_0
  10
86.637894
  20
149.20612
  0
VERTEX
  5
ab
  8
Layer_0
  10
86.637894
  20
179.10611
  0
VERTEX
  5
ac
  8
Layer_0
  10
80.637894
  20
179.10611
  0
VERTEX
  5
ad
  8
Layer_0
  10
80.637894
  20
214.15611
  0
VERTEX
  5
ae
  8
Layer_0
  10
116.63789
  20
214.15611
  0
SEQEND
  0
POLYLINE
  5
b0
  8
Layer_0
  62
1
  66
1
  10
0
  20
0
  30
0
  0
VERTEX
  5
b0
  8
Layer_0
  10
182.63789
  20
149.20612
  0
VERTEX
  5
b1
  8
Layer_0
  10
176.63789
  20
149.20612
  0
VERTEX
  5
b2
  8
Layer_0
  10
176.53789
  20
149.20612
  0
VERTEX
  5
b3
  8
Layer_0
  10
176.53789
  20
179.10611
  0
VERTEX
  5
b4
  8
Layer_0
  10
176.63789
  20
179.10611
  0
VERTEX
  5
b5
  8
Layer_0
  10
182.63789
  20
179.10611
  0
VERTEX
  5
b6
  8
Layer_0
  10
182.7379
  20
179.10611
  0
VERTEX
  5
b7
  8
Layer_0
  10
182.7379
  20
149.20612
  0
VERTEX
  5
b8
  8
Layer_0
  10
182.63789
  20
149.20612
  0
SEQEND
  0
POLYLINE
  5
ba
  8
Layer_0
  62
1
  66
1
  10
0
  20
0
  30
0
  0
VERTEX
  5
ba
  8
Layer_0
  10
218.63789
  20
214.15611
  0
VERTEX
  5
bb
  8
Layer_0
  10
205.63789
  20
214.15611
  0
SEQEND
  0
POLYLINE
  5
bd
  8
Layer_0
  62
1
  66
1
  10
0
  20
0
  30
0
  0
VERTEX
  5
bd
  8
Layer_0
  10
215.63789
  20
179.10611
  0
VERTEX
  5
be
  8
Layer_0
  10
215.63789
  20
149.20612
  0
SEQEND
  0
POLYLINE
  5
c0
  8
Layer_1
  62
3
  66
1
  10
0
  20
0
  30
0
  0
VERTEX
  5
c0
  8
Layer_1
  10
198.39622
  20
129.27509
  42
0.21979783
  0
VERTEX
  5
c1
  8
Layer_1
  10
198.92433
  20
129.06226
  42
0.14367992
  0
VERTEX
  5
c2
  8
Layer_1
  10
199.35437
  20
129.17538
  42
0.17419941
  0
VERTEX
  5
c3
  8
Layer_1
  10
199.60414
  20
129.48511
  42
0.07609342
  0
VERTEX
  5
c4
  8
Layer_1
  10
199.67398
  20
130.11078
  0
VERTEX
  5
c5
  8
Layer_1
  10
199.68292
  20
133.55551
  0
VERTEX
  5
c6
  8
Layer_1
  10
200.34459
  20
133.5538
  0
VERTEX
  5
c7
  8
Layer_1
  10
200.33574
  20
130.14658
  42
-0.099854432
  0
VERTEX
  5
c8
  8
Layer_1
  10
200.18144
  20
129.17496
  42
-0.16901944
  0
VERTEX
  5
c9
  8
Layer_1
  10
199.69919
  20
128.65097
  42
-0.12735728
  0
VERTEX
  5
ca
  8
Layer_1
  10
198.92621
  20
128.4722
  42
-0.21504831
  0
VERTEX
  5
cb
  8
Layer_1
  10
197.91936
  20
128.85339
  42
-0.041258712
  0
VERTEX
  5
cc
  8
Layer_1
  10
197.81326
  20
128.99011
  42
-0.15036597
  0
VERTEX
  5
cd
  8
Layer_1
  10
197.58632
  20
129.97977
  0
VERTEX
  5
ce
  8
Layer_1
  10
198.1834
  20
130.06009
  0
VERTEX
  5
cf
  8
Layer_1
  10
198.18555
  20
130.01297
  42
0.16158444
  0
VERTEX
  5
d0
  8
Layer_1
  10
198.39622
  20
129.27509
  0
SEQEND
  0
POLYLINE
  5
d2
  8
Layer_1
  62
3
  66
1
  10
0
  20
0
  30
0
  0
VERTEX
  5
d2
  8
Layer_1
  10
202.19962
  20
129.47156
  42
-0.024564477
  0
VERTEX
  5
d3
  8
Layer_1
  10
202.82114
  20
130.02399
  0
VERTEX
  5
d4
  8
Layer_1
  10
202.91066
  20
130.09897
  42
0.032488361
  0
VERTEX
  5
d5
  8
Layer_1
  10
203.85939
  20
130.97647
  42
0.080577821
  0
VERTEX
  5
d6
  8
Layer_1
  10
204.26855
  20
131.58591
  42
0.10136513
  0
VERTEX
  5
d7
  8
Layer_1
  10
204.39287
  20
132.17563
  42
0.20439422
  0
VERTEX
  5
d8
  8
Layer_1
  10
204.01007
  20
133.13214
  0
VERTEX
  5
d9
  8
Layer_1
  10
203.97592
  20
133.1658
  42
0.19120222
  0
VERTEX
  5
da
  8
Layer_1
  10
202.89726
  20
133.56696
  0
VERTEX
  5
db
  8
Layer_1
  10
202.83781
  20
133.56781
  42
0.17482579
  0
VERTEX
  5
dc
  8
Layer_1
  10
201.73694
  20
133.2308
  0
VERTEX
  5
dd
  8
Layer_1
  10
201.70111
  20
133.20068
  42
0.19111633
  0
VERTEX
  5
de
  8
Layer_1
  10
201.21677
  20
132.18414
  0
VERTEX
  5
df
  8
Layer_1
  10
201.2106
  20
132.12592
  0
VERTEX
  5
e0
  8
Layer_1
  10
201.8414
  20
132.05948
  42
-0.19098783
  0
VERTEX
  5
e1
  8
Layer_1
  10
202.09097
  20
132.77301
  0
VERTEX
  5
e2
  8
Layer_1
  10
202.11275
  20
132.79547
  42
-0.19841007
  0
VERTEX
  5
e3
  8
Layer_1
  10
202.78621
  20
133.0593
  0
VERTEX
  5
e4
  8
Layer_1
  10
202.82285
  20
133.05966
  42
-0.18958774
  0
VERTEX
  5
e5
  8
Layer_1
  10
203.48065
  20
132.82773
  0
VERTEX
  5
e6
  8
Layer_1
  10
203.50262
  20
132.80722
  42
-0.031472793
  0
VERTEX
  5
e7
  8
Layer_1
  10
203.58212
  20
132.72028
  42
-0.17587138
  0
VERTEX
  5
e8
  8
Layer_1
  10
203.76193
  20
132.19092
  42
-0.15965022
  0
VERTEX
  5
e9
  8
Layer_1
  10
203.47353
  20
131.45325
  42
-0.056079814
  0
VERTEX
  5
ea
  8
Layer_1
  10
202.36914
  20
130.39709
  42
0.038034404
  0
VERTEX
  5
eb
  8
Layer_1
  10
201.61217
  20
129.6972
  0
VERTEX
  5
ec
  8
Layer_1
  10
201.56398
  20
129.64203
  42
0.08241798
  0
VERTEX
  5
ed
  8
Layer_1
  10
201.16895
  20
129.0061
  0
VERTEX
  5
ee
  8
Layer_1
  10
201.15808
  20
128.97803
  42
0.092190999
  0
VERTEX
  5
ef
  8
Layer_1
  10
201.08492
  20
128.58868
  0
VERTEX
  5
f0
  8
Layer_1
  10
201.08536
  20
128.55188
  0
VERTEX
  5
f1
  8
Layer_1
  10
204.39026
  20
128.5433
  0
VERTEX
  5
f2
  8
Layer_1
  10
204.39178
  20
129.13333
  0
VERTEX
  5
f3
  8
Layer_1
  10
201.93954
  20
129.13971
  42
-0.048755649
  0
VERTEX
  5
f4
  8
Layer_1
  10
202.17378
  20
129.44403
  0
VERTEX
  5
f5
  8
Layer_1
  10
202.19962
  20
129.47156
  0
SEQEND
  0
POLYLINE
  5
f7
  8
Layer_1
  62
3
  66
1
  10
0
  20
0
  30
0
  0
VERTEX
  5
f7
  8
Layer_1
  10
206.87187
  20
130.65488
  0
VERTEX
  5
f8
  8
Layer_1
  10
206.87027
  20
130.03754
  0
VERTEX
  5
f9
  8
Layer_1
  10
204.98419
  20
130.04245
  0
VERTEX
  5
fa
  8
Layer_1
  10
204.98579
  20
130.65976
  0
VERTEX
  5
fb
  8
Layer_1
  10
206.87187
  20
130.65488
  0
SEQEND
  0
POLYLINE
  5
fd
  8
Layer_1
  62
3
  66
1
  10
0
  20
0
  30
0
  0
VERTEX
  5
fd
  8
Layer_1
  10
208.50806
  20
131.61243
  0
VERTEX
  5
fe
  8
Layer_1
  10
208.53487
  20
131.6257
  42
-0.1152202
  0
VERTEX
  5
ff
  8
Layer_1
  10
209.18037
  20
131.77438
  0
VERTEX
  5
100
  8
Layer_1
  10
209.23122
  20
131.77347
  42
-0.2039295
  0
VERTEX
  5
101
  8
Layer_1
  10
210.22456
  20
131.31976
  42
-0.19882089
  0
VERTEX
  5
102
  8
Layer_1
  10
210.65298
  20
130.15051
  42
-0.1182593
  0
VERTEX
  5
103
  8
Layer_1
  10
210.44778
  20
129.27621
  42
-0.14354146
  0
VERTEX
  5
104
  8
Layer_1
  10
209.88853
  20
128.65863
  42
-0.13918455
  0
VERTEX
  5
105
  8
Layer_1
  10
209.08307
  20
128.44586
  42
-0.20884306
  0
VERTEX
  5
106
  8
Layer_1
  10
207.91528
  20
128.92319
  42
-0.016885593
  0
VERTEX
  5
107
  8
Layer_1
  10
207.83282
  20
129.01355
  0
VERTEX
  5
108
  8
Layer_1
  10
207.79344
  20
129.06195
  42
-0.15068766
  0
VERTEX
  5
109
  8
Layer_1
  10
207.36011
  20
130.56271
  42
-0.01242319
  0
VERTEX
  5
10a
  8
Layer_1
  10
207.35335
  20
130.87531
  0
VERTEX
  5
10b
  8
Layer_1
  10
207.35458
  20
130.99472
  42
-0.13179845
  0
VERTEX
  5
10c
  8
Layer_1
  10
207.76833
  20
132.80508
  42
-0.032429963
  0
VERTEX
  5
10d
  8
Layer_1
  10
207.89429
  20
132.98169
  0
VERTEX
  5
10e
  8
Layer_1
  10
207.93391
  20
133.02835
  42
-0.22515847
  0
VERTEX
  5
10f
  8
Layer_1
  10
209.1543
  20
133.55142
  0
VERTEX
  5
110
  8
Layer_1
  10
209.25114
  20
133.54886
  42
-0.17421264
  0
VERTEX
  5
111
  8
Layer_1
  10
210.12035
  20
133.21808
  42
-0.18729812
  0
VERTEX
  5
112
  8
Layer_1
  10
210.56989
  20
132.30286
  0
VERTEX
  5
113
  8
Layer_1
  10
209.95926
  20
132.25668
  42
0.12583121
  0
VERTEX
  5
114
  8
Layer_1
  10
209.7287
  20
132.78253
  0
VERTEX
  5
115
  8
Layer_1
  10
209.70781
  20
132.80402
  42
0.20497654
  0
VERTEX
  5
116
  8
Layer_1
  10
209.11546
  20
133.04672
  0
VERTEX
  5
117
  8
Layer_1
  10
209.09116
  20
133.04651
  42
0.1576732
  0
VERTEX
  5
118
  8
Layer_1
  10
208.60004
  20
132.88437
  0
VERTEX
  5
119
  8
Layer_1
  10
208.57605
  20
132.86646
  42
0.13232085
  0
VERTEX
  5
11a
  8
Layer_1
  10
208.14142
  20
132.26822
  0
VERTEX
  5
11b
  8
Layer_1
  10
208.11449
  20
132.19824
  42
0.078696504
  0
VERTEX
  5
11c
  8
Layer_1
  10
207.96448
  20
131.11249
  0
VERTEX
  5
11d
  8
Layer_1
  10
207.98318
  20
131.14026
  42
-0.12709171
  0
VERTEX
  5
11e
  8
Layer_1
  10
208.50806
  20
131.61243
  0
SEQEND
  0
POLYLINE
  5
120
  8
Layer_1
  62
3
  66
1
  10
0
  20
0
  30
0
  0
VERTEX
  5
120
  8
Layer_1
  10
209.07414
  20
128.95065
  42
0.22276856
  0
VERTEX
  5
121
  8
Layer_1
  10
209.74344
  20
129.2627
  42
0.18741077
  0
VERTEX
  5
122
  8
Layer_1
  10
210.02533
  20
130.11462
  42
0.19279264
  0
VERTEX
  5
123
  8
Layer_1
  10
209.75119
  20
130.93219
  0
VERTEX
  5
124
  8
Layer_1
  10
209.72798
  20
130.9566
  42
0.20800576
  0
VERTEX
  5
125
  8
Layer_1
  10
209.05618
  20
131.23242
  0
VERTEX
  5
126
  8
Layer_1
  10
209.02173
  20
131.23199
  42
0.20160474
  0
VERTEX
  5
127
  8
Layer_1
  10
208.34941
  20
130.93582
  0
VERTEX
  5
128
  8
Layer_1
  10
208.3257
  20
130.91071
  42
0.19100719
  0
VERTEX
  5
129
  8
Layer_1
  10
208.05748
  20
130.15384
  0
VERTEX
  5
12a
  8
Layer_1
  10
208.05765
  20
130.12744
  42
0.10573952
  0
VERTEX
  5
12b
  8
Layer_1
  10
208.19063
  20
129.54639
  0
VERTEX
  5
12c
  8
Layer_1
  10
208.20198
  20
129.52246
  42
0.14211975
  0
VERTEX
  5
12d
  8
Layer_1
  10
208.56635
  20
129.10373
  42
0.1434012
  0
VERTEX
  5
12e
  8
Layer_1
  10
209.07414
  20
128.95065
  0
SEQEND
  0
ENDSEC
  0
EOF
