  0
SECTION
  2
HEADER
  9
$ACADVER
  1
AC1009
  0
ENDSEC
  0
SECTION
  2
ENTITIES
  0
CIRCLE
  5
90
  8
Layer_0
  62
0
  10
178.46906
  20
233.29181
  30
0
  40
1.5
  0
CIRCLE
  5
90
  8
Layer_0
  62
0
  10
258.46906
  20
233.29181
  30
0
  40
1.5
  0
CIRCLE
  5
90
  8
Layer_0
  62
0
  10
178.46906
  20
143.29181
  30
0
  40
1.5
  0
CIRCLE
  5
90
  8
Layer_0
  62
0
  10
258.46906
  20
143.29181
  30
0
  40
1.5
  0
CIRCLE
  5
90
  8
Layer_0
  62
0
  10
294.46906
  20
233.29181
  30
0
  40
1.5
  0
CIRCLE
  5
90
  8
Layer_0
  62
0
  10
294.46906
  20
143.29181
  30
0
  40
1.5
  0
POLYLINE
  5
90
  8
Layer_0
  62
0
  66
1
  10
0
  20
0
  30
0
  0
VERTEX
  5
90
  8
Layer_0
  10
203.46906
  20
238.29181
  0
VERTEX
  5
91
  8
Layer_0
  10
203.46906
  20
244.29181
  0
VERTEX
  5
92
  8
Layer_0
  10
233.46906
  20
244.29181
  0
VERTEX
  5
93
  8
Layer_0
  10
233.46906
  20
238.29181
  0
VERTEX
  5
94
  8
Layer_0
  10
269.46906
  20
238.29181
  0
VERTEX
  5
95
  8
Layer_0
  10
279.46906
  20
238.29181
  0
VERTEX
  5
96
  8
Layer_0
  10
279.46906
  20
244.29181
  0
VERTEX
  5
97
  8
Layer_0
  10
289.46906
  20
244.29181
  0
VERTEX
  5
98
  8
Layer_0
  10
289.46906
  20
238.29181
  0
VERTEX
  5
99
  8
Layer_0
  10
305.46906
  20
238.29181
  0
VERTEX
  5
9a
  8
Layer_0
  10
305.46906
  20
203.21681
  0
VERTEX
  5
9b
  8
Layer_0
  10
299.46906
  20
203.21681
  0
VERTEX
  5
9c
  8
Layer_0
  10
299.46906
  20
173.36681
  0
VERTEX
  5
9d
  8
Layer_0
  10
305.46906
  20
173.36681
  0
VERTEX
  5
9e
  8
Layer_0
  10
305.46906
  20
138.29181
  0
VERTEX
  5
9f
  8
Layer_0
  10
289.46906
  20
138.29181
  0
VERTEX
  5
a0
  8
Layer_0
  10
289.46906
  20
132.29181
  0
VERTEX
  5
a1
  8
Layer_0
  10
279.46906
  20
132.29181
  0
VERTEX
  5
a2
  8
Layer_0
  10
279.46906
  20
138.29181
  0
VERTEX
  5
a3
  8
Layer_0
  10
269.46906
  20
138.29181
  0
VERTEX
  5
a4
  8
Layer_0
  10
233.46906
  20
138.29181
  0
VERTEX
  5
a5
  8
Layer_0
  10
233.46906
  20
132.29181
  0
VERTEX
  5
a6
  8
Layer_0
  10
203.46906
  20
132.29181
  0
VERTEX
  5
a7
  8
Layer_0
  10
203.46906
  20
138.29181
  0
VERTEX
  5
a8
  8
Layer_0
  10
167.46906
  20
138.29181
  0
VERTEX
  5
a9
  8
Layer_0
  10
167.46906
  20
173.36681
  0
VERTEX
  5
aa
  8
Layer_0
  10
173.46906
  20
173.36681
  0
VERTEX
  5
ab
  8
Layer_0
  10
173.46906
  20
203.21681
  0
VERTEX
  5
ac
  8
Layer_0
  10
167.46906
  20
203.21681
  0
VERTEX
  5
ad
  8
Layer_0
  10
167.46906
  20
238.29181
  0
VERTEX
  5
ae
  8
Layer_0
  10
203.46906
  20
238.29181
  0
SEQEND
  0
POLYLINE
  5
b0
  8
Layer_0
  62
0
  66
1
  10
0
  20
0
  30
0
  0
VERTEX
  5
b0
  8
Layer_0
  10
238.46906
  20
165.79181
  0
VERTEX
  5
b1
  8
Layer_0
  10
208.46906
  20
165.79181
  42
0.41421356
  0
VERTEX
  5
b2
  8
Layer_0
  10
200.96906
  20
158.29181
  42
0.41421356
  0
VERTEX
  5
b3
  8
Layer_0
  10
208.46906
  20
150.79181
  0
VERTEX
  5
b4
  8
Layer_0
  10
238.46906
  20
150.79181
  42
0.41421356
  0
VERTEX
  5
b5
  8
Layer_0
  10
245.96906
  20
158.29181
  42
0.41421356
  0
VERTEX
  5
b6
  8
Layer_0
  10
238.46906
  20
165.79181
  0
SEQEND
  0
POLYLINE
  5
b8
  8
Layer_0
  62
0
  66
1
  10
0
  20
0
  30
0
  0
VERTEX
  5
b8
  8
Layer_0
  10
269.46906
  20
203.21681
  0
VERTEX
  5
b9
  8
Layer_0
  10
269.46906
  20
173.36681
  0
SEQEND
  0
POLYLINE
  5
bb
  8
Layer_0
  62
0
  66
1
  10
0
  20
0
  30
0
  0
VERTEX
  5
bb
  8
Layer_0
  10
305.46906
  20
238.29181
  0
VERTEX
  5
bc
  8
Layer_0
  10
289.46906
  20
238.29181
  0
SEQEND
  0
POLYLINE
  5
be
  8
Layer_0
  62
0
  66
1
  10
0
  20
0
  30
0
  0
VERTEX
  5
be
  8
Layer_0
  10
299.46906
  20
203.21681
  0
VERTEX
  5
bf
  8
Layer_0
  10
299.46906
  20
173.36681
  0
SEQEND
  0
POLYLINE
  5
c1
  8
Layer_0
  62
0
  66
1
  10
0
  20
0
  30
0
  0
VERTEX
  5
c1
  8
Layer_0
  10
285.22739
  20
153.41078
  42
0.21979783
  0
VERTEX
  5
c2
  8
Layer_0
  10
285.75549
  20
153.19795
  42
0.14367992
  0
VERTEX
  5
c3
  8
Layer_0
  10
286.18552
  20
153.3111
  42
0.17419941
  0
VERTEX
  5
c4
  8
Layer_0
  10
286.4353
  20
153.62082
  42
0.07609342
  0
VERTEX
  5
c5
  8
Layer_0
  10
286.50516
  20
154.24649
  0
VERTEX
  5
c6
  8
Layer_0
  10
286.5141
  20
157.69122
  0
VERTEX
  5
c7
  8
Layer_0
  10
287.17575
  20
157.6895
  0
VERTEX
  5
c8
  8
Layer_0
  10
287.1669
  20
154.28229
  42
-0.099854432
  0
VERTEX
  5
c9
  8
Layer_0
  10
287.0126
  20
153.31065
  42
-0.16901944
  0
VERTEX
  5
ca
  8
Layer_0
  10
286.53033
  20
152.78665
  42
-0.12735728
  0
VERTEX
  5
cb
  8
Layer_0
  10
285.75739
  20
152.60791
  42
-0.21504831
  0
VERTEX
  5
cc
  8
Layer_0
  10
284.75052
  20
152.98911
  42
-0.041258712
  0
VERTEX
  5
cd
  8
Layer_0
  10
284.64444
  20
153.12579
  42
-0.15036597
  0
VERTEX
  5
ce
  8
Layer_0
  10
284.41748
  20
154.11548
  0
VERTEX
  5
cf
  8
Layer_0
  10
285.01456
  20
154.19579
  42
0.16243406
  0
VERTEX
  5
d0
  8
Layer_0
  10
285.22739
  20
153.41078
  0
SEQEND
  0
POLYLINE
  5
d2
  8
Layer_0
  62
0
  66
1
  10
0
  20
0
  30
0
  0
VERTEX
  5
d2
  8
Layer_0
  10
289.03079
  20
153.60725
  42
-0.025374169
  0
VERTEX
  5
d3
  8
Layer_0
  10
289.74182
  20
154.23468
  42
0.032488361
  0
VERTEX
  5
d4
  8
Layer_0
  10
290.69055
  20
155.11217
  42
0.080577821
  0
VERTEX
  5
d5
  8
Layer_0
  10
291.0997
  20
155.7216
  42
0.10136513
  0
VERTEX
  5
d6
  8
Layer_0
  10
291.22403
  20
156.31133
  42
0.21356755
  0
VERTEX
  5
d7
  8
Layer_0
  10
290.8071
  20
157.3015
  42
0.19120222
  0
VERTEX
  5
d8
  8
Layer_0
  10
289.72842
  20
157.70265
  0
VERTEX
  5
d9
  8
Layer_0
  10
289.66898
  20
157.70349
  42
0.17482579
  0
VERTEX
  5
da
  8
Layer_0
  10
288.56808
  20
157.3665
  0
VERTEX
  5
db
  8
Layer_0
  10
288.53226
  20
157.3364
  42
0.19111633
  0
VERTEX
  5
dc
  8
Layer_0
  10
288.04794
  20
156.31984
  0
VERTEX
  5
dd
  8
Layer_0
  10
288.04175
  20
156.2616
  0
VERTEX
  5
de
  8
Layer_0
  10
288.67255
  20
156.19516
  42
-0.20201577
  0
VERTEX
  5
df
  8
Layer_0
  10
288.94391
  20
156.93117
  42
-0.20509089
  0
VERTEX
  5
e0
  8
Layer_0
  10
289.65402
  20
157.19534
  42
-0.19955523
  0
VERTEX
  5
e1
  8
Layer_0
  10
290.33377
  20
156.9429
  42
-0.21206046
  0
VERTEX
  5
e2
  8
Layer_0
  10
290.59311
  20
156.3266
  42
-0.15965022
  0
VERTEX
  5
e3
  8
Layer_0
  10
290.30469
  20
155.58896
  42
-0.056079814
  0
VERTEX
  5
e4
  8
Layer_0
  10
289.20032
  20
154.53281
  42
0.043604386
  0
VERTEX
  5
e5
  8
Layer_0
  10
288.39514
  20
153.77774
  42
0.086837438
  0
VERTEX
  5
e6
  8
Layer_0
  10
287.98926
  20
153.11371
  42
0.10037747
  0
VERTEX
  5
e7
  8
Layer_0
  10
287.91653
  20
152.68756
  0
VERTEX
  5
e8
  8
Layer_0
  10
291.22144
  20
152.67899
  0
VERTEX
  5
e9
  8
Layer_0
  10
291.22296
  20
153.26903
  0
VERTEX
  5
ea
  8
Layer_0
  10
288.77072
  20
153.27539
  42
-0.052352868
  0
VERTEX
  5
eb
  8
Layer_0
  10
289.03079
  20
153.60725
  0
SEQEND
  0
POLYLINE
  5
ed
  8
Layer_0
  62
0
  66
1
  10
0
  20
0
  30
0
  0
VERTEX
  5
ed
  8
Layer_0
  10
293.70303
  20
154.79056
  0
VERTEX
  5
ee
  8
Layer_0
  10
293.70145
  20
154.17325
  0
VERTEX
  5
ef
  8
Layer_0
  10
291.81537
  20
154.17813
  0
VERTEX
  5
f0
  8
Layer_0
  10
291.81696
  20
154.79546
  0
VERTEX
  5
f1
  8
Layer_0
  10
293.70303
  20
154.79056
  0
SEQEND
  0
POLYLINE
  5
f3
  8
Layer_0
  62
0
  66
1
  10
0
  20
0
  30
0
  0
VERTEX
  5
f3
  8
Layer_0
  10
295.33923
  20
155.74812
  42
-0.12010302
  0
VERTEX
  5
f4
  8
Layer_0
  10
296.01154
  20
155.9101
  0
VERTEX
  5
f5
  8
Layer_0
  10
296.06238
  20
155.90918
  42
-0.2039295
  0
VERTEX
  5
f6
  8
Layer_0
  10
297.05573
  20
155.45547
  42
-0.19882089
  0
VERTEX
  5
f7
  8
Layer_0
  10
297.48413
  20
154.28621
  42
-0.1182593
  0
VERTEX
  5
f8
  8
Layer_0
  10
297.27893
  20
153.41191
  42
-0.14354146
  0
VERTEX
  5
f9
  8
Layer_0
  10
296.7197
  20
152.79433
  42
-0.13918455
  0
VERTEX
  5
fa
  8
Layer_0
  10
295.91422
  20
152.58154
  42
-0.20884306
  0
VERTEX
  5
fb
  8
Layer_0
  10
294.74643
  20
153.05888
  42
-0.016885593
  0
VERTEX
  5
fc
  8
Layer_0
  10
294.664
  20
153.14926
  0
VERTEX
  5
fd
  8
Layer_0
  10
294.6246
  20
153.19766
  42
-0.15068766
  0
VERTEX
  5
fe
  8
Layer_0
  10
294.19125
  20
154.69841
  42
-0.01242319
  0
VERTEX
  5
ff
  8
Layer_0
  10
294.18451
  20
155.01102
  0
VERTEX
  5
100
  8
Layer_0
  10
294.18576
  20
155.13043
  42
-0.13179845
  0
VERTEX
  5
101
  8
Layer_0
  10
294.59949
  20
156.94078
  42
-0.032429963
  0
VERTEX
  5
102
  8
Layer_0
  10
294.72543
  20
157.11739
  0
VERTEX
  5
103
  8
Layer_0
  10
294.76508
  20
157.16403
  42
-0.22515847
  0
VERTEX
  5
104
  8
Layer_0
  10
295.98547
  20
157.6871
  42
-0.18668683
  0
VERTEX
  5
105
  8
Layer_0
  10
296.95151
  20
157.35376
  42
-0.18729812
  0
VERTEX
  5
106
  8
Layer_0
  10
297.40106
  20
156.43854
  0
VERTEX
  5
107
  8
Layer_0
  10
296.79041
  20
156.39238
  42
0.12583121
  0
VERTEX
  5
108
  8
Layer_0
  10
296.55988
  20
156.91821
  42
0.21408028
  0
VERTEX
  5
109
  8
Layer_0
  10
295.94662
  20
157.18243
  42
0.16405635
  0
VERTEX
  5
10a
  8
Layer_0
  10
295.43121
  20
157.02005
  42
0.13966365
  0
VERTEX
  5
10b
  8
Layer_0
  10
294.97256
  20
156.40392
  0
VERTEX
  5
10c
  8
Layer_0
  10
294.94565
  20
156.33395
  42
0.078696504
  0
VERTEX
  5
10d
  8
Layer_0
  10
294.79562
  20
155.24817
  42
-0.13187845
  0
VERTEX
  5
10e
  8
Layer_0
  10
295.33923
  20
155.74812
  0
SEQEND
  0
POLYLINE
  5
110
  8
Layer_0
  62
0
  66
1
  10
0
  20
0
  30
0
  0
VERTEX
  5
110
  8
Layer_0
  10
295.39752
  20
153.23944
  42
0.1434012
  0
VERTEX
  5
111
  8
Layer_0
  10
295.9053
  20
153.08635
  42
0.22276856
  0
VERTEX
  5
112
  8
Layer_0
  10
296.57462
  20
153.39839
  42
0.18741077
  0
VERTEX
  5
113
  8
Layer_0
  10
296.85648
  20
154.25032
  42
0.19279264
  0
VERTEX
  5
114
  8
Layer_0
  10
296.58234
  20
155.06789
  42
0.21748964
  0
VERTEX
  5
115
  8
Layer_0
  10
295.88736
  20
155.36812
  42
0.21055484
  0
VERTEX
  5
116
  8
Layer_0
  10
295.18057
  20
155.07152
  42
0.2010951
  0
VERTEX
  5
117
  8
Layer_0
  10
294.88864
  20
154.28954
  42
0.11038548
  0
VERTEX
  5
118
  8
Layer_0
  10
295.02179
  20
153.6821
  42
0.14748285
  0
VERTEX
  5
119
  8
Layer_0
  10
295.39752
  20
153.23944
  0
SEQEND
  0
POLYLINE
  5
11b
  8
Layer_0
  62
0
  66
1
  10
0
  20
0
  30
0
  0
VERTEX
  5
11b
  8
Layer_0
  10
269.46906
  20
203.21681
  0
VERTEX
  5
11c
  8
Layer_0
  10
263.46906
  20
203.21681
  0
SEQEND
  0
POLYLINE
  5
11e
  8
Layer_0
  62
0
  66
1
  10
0
  20
0
  30
0
  0
VERTEX
  5
11e
  8
Layer_0
  10
263.46906
  20
203.21681
  0
VERTEX
  5
11f
  8
Layer_0
  10
263.46906
  20
173.36681
  0
SEQEND
  0
POLYLINE
  5
121
  8
Layer_0
  62
0
  66
1
  10
0
  20
0
  30
0
  0
VERTEX
  5
121
  8
Layer_0
  10
263.46906
  20
173.36681
  0
VERTEX
  5
122
  8
Layer_0
  10
269.46906
  20
173.36681
  0
SEQEND
  0
ENDSEC
  0
EOF
