  0
SECTION
  2
HEADER
  9
$ACADVER
  1
AC1009
  0
ENDSEC
  0
SECTION
  2
ENTITIES
  0
CIRCLE
  5
90
  8
Layer_0
  62
1
  10
278.10001
  20
300
  30
0
  40
1.5
  0
CIRCLE
  5
90
  8
Layer_0
  62
1
  10
357.89999
  20
300
  30
0
  40
1.5
  0
CIRCLE
  5
90
  8
Layer_0
  62
1
  10
357.89999
  20
100
  30
0
  40
1.5
  0
CIRCLE
  5
90
  8
Layer_0
  62
1
  10
278.10001
  20
100
  30
0
  40
1.5
  0
CIRCLE
  5
90
  8
Layer_0
  62
1
  10
239
  20
300
  30
0
  40
1.5
  0
CIRCLE
  5
90
  8
Layer_0
  62
1
  10
239
  20
100
  30
0
  40
1.5
  0
POLYLINE
  5
90
  8
Layer_0
  62
1
  66
1
  10
0
  20
0
  30
0
  0
VERTEX
  5
90
  8
Layer_0
  10
267
  20
152.55
  0
VERTEX
  5
91
  8
Layer_0
  10
273.10001
  20
152.55
  0
VERTEX
  5
92
  8
Layer_0
  10
273.10001
  20
182.45
  0
VERTEX
  5
93
  8
Layer_0
  10
267
  20
182.45
  0
SEQEND
  0
POLYLINE
  5
95
  8
Layer_0
  62
1
  66
1
  10
0
  20
0
  30
0
  0
VERTEX
  5
95
  8
Layer_0
  10
267
  20
237.55
  0
VERTEX
  5
96
  8
Layer_0
  10
267
  20
267.45
  0
SEQEND
  0
POLYLINE
  5
98
  8
Layer_0
  62
1
  66
1
  10
0
  20
0
  30
0
  0
VERTEX
  5
98
  8
Layer_0
  10
267
  20
89
  0
VERTEX
  5
99
  8
Layer_0
  10
253.89999
  20
89
  0
VERTEX
  5
9a
  8
Layer_0
  10
253.89999
  20
95
  0
VERTEX
  5
9b
  8
Layer_0
  10
244.10001
  20
95
  0
VERTEX
  5
9c
  8
Layer_0
  10
244.10001
  20
89
  0
VERTEX
  5
9d
  8
Layer_0
  10
231
  20
89
  0
VERTEX
  5
9e
  8
Layer_0
  10
231
  20
132.54999
  0
VERTEX
  5
9f
  8
Layer_0
  10
234
  20
132.54999
  0
VERTEX
  5
a0
  8
Layer_0
  10
234
  20
162.45
  0
VERTEX
  5
a1
  8
Layer_0
  10
231
  20
162.45
  0
VERTEX
  5
a2
  8
Layer_0
  10
231
  20
237.55
  0
VERTEX
  5
a3
  8
Layer_0
  10
234
  20
237.55
  0
VERTEX
  5
a4
  8
Layer_0
  10
234
  20
267.45
  0
VERTEX
  5
a5
  8
Layer_0
  10
231
  20
267.45
  0
VERTEX
  5
a6
  8
Layer_0
  10
231
  20
311
  0
VERTEX
  5
a7
  8
Layer_0
  10
244.10001
  20
311
  0
VERTEX
  5
a8
  8
Layer_0
  10
244.10001
  20
305
  0
VERTEX
  5
a9
  8
Layer_0
  10
253.89999
  20
305
  0
VERTEX
  5
aa
  8
Layer_0
  10
253.89999
  20
311
  0
VERTEX
  5
ab
  8
Layer_0
  10
267
  20
311
  0
SEQEND
  0
POLYLINE
  5
ad
  8
Layer_1
  62
3
  66
1
  10
0
  20
0
  30
0
  0
VERTEX
  5
ad
  8
Layer_1
  10
351.5416
  20
99.583588
  0
VERTEX
  5
ae
  8
Layer_1
  10
351.52551
  20
99.600891
  42
0.20874713
  0
VERTEX
  5
af
  8
Layer_1
  10
351.01392
  20
99.797424
  0
VERTEX
  5
b0
  8
Layer_1
  10
350.99329
  20
99.797333
  0
VERTEX
  5
b1
  8
Layer_1
  10
350.9729
  20
99.796814
  42
0.13364296
  0
VERTEX
  5
b2
  8
Layer_1
  10
350.58368
  20
99.68512
  0
VERTEX
  5
b3
  8
Layer_1
  10
350.56876
  20
99.675537
  42
0.16609563
  0
VERTEX
  5
b4
  8
Layer_1
  10
350.33328
  20
99.375885
  0
VERTEX
  5
b5
  8
Layer_1
  10
350.32764
  20
99.359161
  42
0.069974007
  0
VERTEX
  5
b6
  8
Layer_1
  10
350.26224
  20
98.750366
  0
VERTEX
  5
b7
  8
Layer_1
  10
350.24664
  20
95.305634
  0
VERTEX
  5
b8
  8
Layer_1
  10
349.58496
  20
95.308624
  0
VERTEX
  5
b9
  8
Layer_1
  10
349.6004
  20
98.71582
  0
VERTEX
  5
ba
  8
Layer_1
  10
349.60089
  20
98.767639
  42
-0.098386817
  0
VERTEX
  5
bb
  8
Layer_1
  10
349.75659
  20
99.687164
  0
VERTEX
  5
bc
  8
Layer_1
  10
349.76965
  20
99.715515
  42
-0.16198884
  0
VERTEX
  5
bd
  8
Layer_1
  10
350.23987
  20
100.21021
  0
VERTEX
  5
be
  8
Layer_1
  10
350.26755
  20
100.22485
  42
-0.12101313
  0
VERTEX
  5
bf
  8
Layer_1
  10
351.01318
  20
100.38748
  0
VERTEX
  5
c0
  8
Layer_1
  10
351.0675
  20
100.38657
  42
-0.20910945
  0
VERTEX
  5
c1
  8
Layer_1
  10
352.01929
  20
100.00433
  42
-0.19431008
  0
VERTEX
  5
c2
  8
Layer_1
  10
352.35016
  20
98.877319
  0
VERTEX
  5
c3
  8
Layer_1
  10
351.75293
  20
98.798157
  42
0.16236897
  0
VERTEX
  5
c4
  8
Layer_1
  10
351.5416
  20
99.583588
  0
SEQEND
  0
POLYLINE
  5
c6
  8
Layer_1
  62
3
  66
1
  10
0
  20
0
  30
0
  0
VERTEX
  5
c6
  8
Layer_1
  10
347.73785
  20
99.39447
  42
-0.025367345
  0
VERTEX
  5
c7
  8
Layer_1
  10
347.02557
  20
98.768433
  42
0.027604663
  0
VERTEX
  5
c8
  8
Layer_1
  10
346.12549
  20
97.947632
  0
VERTEX
  5
c9
  8
Layer_1
  10
346.07513
  20
97.892761
  42
0.075876881
  0
VERTEX
  5
ca
  8
Layer_1
  10
345.67545
  20
97.308289
  0
VERTEX
  5
cb
  8
Layer_1
  10
345.66483
  20
97.284119
  42
0.09705545
  0
VERTEX
  5
cc
  8
Layer_1
  10
345.53967
  20
96.719635
  0
VERTEX
  5
cd
  8
Layer_1
  10
345.53937
  20
96.694641
  42
0.16706409
  0
VERTEX
  5
ce
  8
Layer_1
  10
345.79858
  20
95.878937
  42
0.040928839
  0
VERTEX
  5
cf
  8
Layer_1
  10
345.95438
  20
95.703674
  42
0.19706439
  0
VERTEX
  5
d0
  8
Layer_1
  10
347.09174
  20
95.299469
  42
0.18497075
  0
VERTEX
  5
d1
  8
Layer_1
  10
348.22913
  20
95.664368
  42
0.19689718
  0
VERTEX
  5
d2
  8
Layer_1
  10
348.72174
  20
96.73822
  0
VERTEX
  5
d3
  8
Layer_1
  10
348.09106
  20
96.805878
  42
-0.2021472
  0
VERTEX
  5
d4
  8
Layer_1
  10
347.81827
  20
96.070404
  42
-0.20490131
  0
VERTEX
  5
d5
  8
Layer_1
  10
347.10767
  20
95.807587
  42
-0.19982129
  0
VERTEX
  5
d6
  8
Layer_1
  10
346.42838
  20
96.06134
  42
-0.20366236
  0
VERTEX
  5
d7
  8
Layer_1
  10
346.17059
  20
96.647919
  0
VERTEX
  5
d8
  8
Layer_1
  10
346.17026
  20
96.678162
  42
-0.15598302
  0
VERTEX
  5
d9
  8
Layer_1
  10
346.43658
  20
97.382874
  0
VERTEX
  5
da
  8
Layer_1
  10
346.46008
  20
97.415253
  42
-0.055853255
  0
VERTEX
  5
db
  8
Layer_1
  10
347.49927
  20
98.414307
  0
VERTEX
  5
dc
  8
Layer_1
  10
347.56653
  20
98.469238
  42
0.043568291
  0
VERTEX
  5
dd
  8
Layer_1
  10
348.37317
  20
99.222748
  42
0.086683126
  0
VERTEX
  5
de
  8
Layer_1
  10
348.78033
  20
99.885986
  42
0.099700936
  0
VERTEX
  5
df
  8
Layer_1
  10
348.85388
  20
100.31201
  0
VERTEX
  5
e0
  8
Layer_1
  10
345.54901
  20
100.32697
  0
VERTEX
  5
e1
  8
Layer_1
  10
345.54633
  20
99.736938
  0
VERTEX
  5
e2
  8
Layer_1
  10
347.99854
  20
99.72583
  42
-0.052489095
  0
VERTEX
  5
e3
  8
Layer_1
  10
347.73785
  20
99.39447
  0
SEQEND
  0
POLYLINE
  5
e5
  8
Layer_1
  62
3
  66
1
  10
0
  20
0
  30
0
  0
VERTEX
  5
e5
  8
Layer_1
  10
343.06329
  20
98.220215
  0
VERTEX
  5
e6
  8
Layer_1
  10
343.0661
  20
98.837524
  0
VERTEX
  5
e7
  8
Layer_1
  10
344.95215
  20
98.828979
  0
VERTEX
  5
e8
  8
Layer_1
  10
344.94937
  20
98.21167
  0
VERTEX
  5
e9
  8
Layer_1
  10
343.06329
  20
98.220215
  0
SEQEND
  0
POLYLINE
  5
eb
  8
Layer_1
  62
3
  66
1
  10
0
  20
0
  30
0
  0
VERTEX
  5
eb
  8
Layer_1
  10
341.52713
  20
99.422607
  42
-0.025299304
  0
VERTEX
  5
ec
  8
Layer_1
  10
340.81488
  20
98.79657
  42
0.027574458
  0
VERTEX
  5
ed
  8
Layer_1
  10
339.91476
  20
97.975769
  0
VERTEX
  5
ee
  8
Layer_1
  10
339.86444
  20
97.920929
  42
0.076004879
  0
VERTEX
  5
ef
  8
Layer_1
  10
339.46472
  20
97.336426
  0
VERTEX
  5
f0
  8
Layer_1
  10
339.4541
  20
97.312256
  42
0.096938953
  0
VERTEX
  5
f1
  8
Layer_1
  10
339.32898
  20
96.747772
  0
VERTEX
  5
f2
  8
Layer_1
  10
339.32864
  20
96.722778
  42
0.14817042
  0
VERTEX
  5
f3
  8
Layer_1
  10
339.53577
  20
95.981781
  42
0.058357307
  0
VERTEX
  5
f4
  8
Layer_1
  10
339.74368
  20
95.731812
  42
0.19692747
  0
VERTEX
  5
f5
  8
Layer_1
  10
340.88101
  20
95.327606
  42
0.18501732
  0
VERTEX
  5
f6
  8
Layer_1
  10
342.01843
  20
95.692505
  42
0.19684389
  0
VERTEX
  5
f7
  8
Layer_1
  10
342.51102
  20
96.766357
  0
VERTEX
  5
f8
  8
Layer_1
  10
341.88034
  20
96.834015
  42
-0.20209847
  0
VERTEX
  5
f9
  8
Layer_1
  10
341.60757
  20
96.098541
  42
-0.20514241
  0
VERTEX
  5
fa
  8
Layer_1
  10
340.89694
  20
95.835724
  42
-0.19936303
  0
VERTEX
  5
fb
  8
Layer_1
  10
340.21768
  20
96.089478
  42
-0.20376005
  0
VERTEX
  5
fc
  8
Layer_1
  10
339.95987
  20
96.676086
  0
VERTEX
  5
fd
  8
Layer_1
  10
339.95953
  20
96.706299
  42
-0.15610318
  0
VERTEX
  5
fe
  8
Layer_1
  10
340.22586
  20
97.411011
  0
VERTEX
  5
ff
  8
Layer_1
  10
340.24939
  20
97.44339
  42
-0.055855695
  0
VERTEX
  5
100
  8
Layer_1
  10
341.28854
  20
98.442474
  0
VERTEX
  5
101
  8
Layer_1
  10
341.3558
  20
98.497375
  42
0.043611652
  0
VERTEX
  5
102
  8
Layer_1
  10
342.16245
  20
99.250916
  42
0.086856359
  0
VERTEX
  5
103
  8
Layer_1
  10
342.56961
  20
99.914124
  42
0.1004217
  0
VERTEX
  5
104
  8
Layer_1
  10
342.64316
  20
100.34015
  0
VERTEX
  5
105
  8
Layer_1
  10
339.33829
  20
100.3551
  0
VERTEX
  5
106
  8
Layer_1
  10
339.33563
  20
99.765076
  0
VERTEX
  5
107
  8
Layer_1
  10
341.78784
  20
99.753967
  42
-0.052226126
  0
VERTEX
  5
108
  8
Layer_1
  10
341.52713
  20
99.422607
  0
SEQEND
  0
POLYLINE
  5
10a
  8
Layer_0
  62
1
  66
1
  10
0
  20
0
  30
0
  0
VERTEX
  5
10a
  8
Layer_0
  10
267
  20
267.45
  0
VERTEX
  5
10b
  8
Layer_0
  10
273.10001
  20
267.45
  0
SEQEND
  0
POLYLINE
  5
10d
  8
Layer_0
  62
1
  66
1
  10
0
  20
0
  30
0
  0
VERTEX
  5
10d
  8
Layer_0
  10
273.10001
  20
267.45
  0
VERTEX
  5
10e
  8
Layer_0
  10
273.10001
  20
237.55
  0
SEQEND
  0
POLYLINE
  5
110
  8
Layer_0
  62
1
  66
1
  10
0
  20
0
  30
0
  0
VERTEX
  5
110
  8
Layer_0
  10
273.10001
  20
237.55
  0
VERTEX
  5
111
  8
Layer_0
  10
267
  20
237.55
  0
SEQEND
  0
POLYLINE
  5
113
  8
Layer_0
  62
1
  66
1
  10
0
  20
0
  30
0
  0
VERTEX
  5
113
  8
Layer_0
  10
267
  20
182.45
  0
VERTEX
  5
114
  8
Layer_0
  10
267
  20
152.55
  0
SEQEND
  0
POLYLINE
  5
116
  8
Layer_0
  62
1
  66
1
  10
0
  20
0
  30
0
  0
VERTEX
  5
116
  8
Layer_0
  10
267
  20
89
  0
VERTEX
  5
117
  8
Layer_0
  10
303.04999
  20
89
  0
SEQEND
  0
POLYLINE
  5
119
  8
Layer_0
  62
1
  66
1
  10
0
  20
0
  30
0
  0
VERTEX
  5
119
  8
Layer_0
  10
303.04999
  20
89
  0
VERTEX
  5
11a
  8
Layer_0
  10
303.04999
  20
95
  0
SEQEND
  0
POLYLINE
  5
11c
  8
Layer_0
  62
1
  66
1
  10
0
  20
0
  30
0
  0
VERTEX
  5
11c
  8
Layer_0
  10
303.04999
  20
95
  0
VERTEX
  5
11d
  8
Layer_0
  10
332.95001
  20
95
  0
SEQEND
  0
POLYLINE
  5
11f
  8
Layer_0
  62
1
  66
1
  10
0
  20
0
  30
0
  0
VERTEX
  5
11f
  8
Layer_0
  10
332.95001
  20
95
  0
VERTEX
  5
120
  8
Layer_0
  10
332.95001
  20
89
  0
SEQEND
  0
POLYLINE
  5
122
  8
Layer_0
  62
1
  66
1
  10
0
  20
0
  30
0
  0
VERTEX
  5
122
  8
Layer_0
  10
332.95001
  20
89
  0
VERTEX
  5
123
  8
Layer_0
  10
369
  20
89
  0
SEQEND
  0
POLYLINE
  5
125
  8
Layer_0
  62
1
  66
1
  10
0
  20
0
  30
0
  0
VERTEX
  5
125
  8
Layer_0
  10
369
  20
89
  0
VERTEX
  5
126
  8
Layer_0
  10
369
  20
132.54999
  0
SEQEND
  0
POLYLINE
  5
128
  8
Layer_0
  62
1
  66
1
  10
0
  20
0
  30
0
  0
VERTEX
  5
128
  8
Layer_0
  10
369
  20
132.54999
  0
VERTEX
  5
129
  8
Layer_0
  10
363
  20
132.54999
  0
SEQEND
  0
POLYLINE
  5
12b
  8
Layer_0
  62
1
  66
1
  10
0
  20
0
  30
0
  0
VERTEX
  5
12b
  8
Layer_0
  10
363
  20
132.54999
  0
VERTEX
  5
12c
  8
Layer_0
  10
363
  20
162.45
  0
SEQEND
  0
POLYLINE
  5
12e
  8
Layer_0
  62
1
  66
1
  10
0
  20
0
  30
0
  0
VERTEX
  5
12e
  8
Layer_0
  10
363
  20
162.45
  0
VERTEX
  5
12f
  8
Layer_0
  10
369
  20
162.45
  0
SEQEND
  0
POLYLINE
  5
131
  8
Layer_0
  62
1
  66
1
  10
0
  20
0
  30
0
  0
VERTEX
  5
131
  8
Layer_0
  10
369
  20
162.45
  0
VERTEX
  5
132
  8
Layer_0
  10
369
  20
237.55
  0
SEQEND
  0
POLYLINE
  5
134
  8
Layer_0
  62
1
  66
1
  10
0
  20
0
  30
0
  0
VERTEX
  5
134
  8
Layer_0
  10
369
  20
237.55
  0
VERTEX
  5
135
  8
Layer_0
  10
362.89999
  20
237.55
  0
SEQEND
  0
POLYLINE
  5
137
  8
Layer_0
  62
1
  66
1
  10
0
  20
0
  30
0
  0
VERTEX
  5
137
  8
Layer_0
  10
362.89999
  20
237.55
  0
VERTEX
  5
138
  8
Layer_0
  10
362.89999
  20
267.45
  0
SEQEND
  0
POLYLINE
  5
13a
  8
Layer_0
  62
1
  66
1
  10
0
  20
0
  30
0
  0
VERTEX
  5
13a
  8
Layer_0
  10
362.89999
  20
267.45
  0
VERTEX
  5
13b
  8
Layer_0
  10
369
  20
267.45
  0
SEQEND
  0
POLYLINE
  5
13d
  8
Layer_0
  62
1
  66
1
  10
0
  20
0
  30
0
  0
VERTEX
  5
13d
  8
Layer_0
  10
369
  20
267.45
  0
VERTEX
  5
13e
  8
Layer_0
  10
369
  20
311
  0
SEQEND
  0
POLYLINE
  5
140
  8
Layer_0
  62
1
  66
1
  10
0
  20
0
  30
0
  0
VERTEX
  5
140
  8
Layer_0
  10
369
  20
311
  0
VERTEX
  5
141
  8
Layer_0
  10
332.95001
  20
311
  0
SEQEND
  0
POLYLINE
  5
143
  8
Layer_0
  62
1
  66
1
  10
0
  20
0
  30
0
  0
VERTEX
  5
143
  8
Layer_0
  10
332.95001
  20
311
  0
VERTEX
  5
144
  8
Layer_0
  10
332.95001
  20
305
  0
SEQEND
  0
POLYLINE
  5
146
  8
Layer_0
  62
1
  66
1
  10
0
  20
0
  30
0
  0
VERTEX
  5
146
  8
Layer_0
  10
332.95001
  20
305
  0
VERTEX
  5
147
  8
Layer_0
  10
303.04999
  20
305
  0
SEQEND
  0
POLYLINE
  5
149
  8
Layer_0
  62
1
  66
1
  10
0
  20
0
  30
0
  0
VERTEX
  5
149
  8
Layer_0
  10
303.04999
  20
305
  0
VERTEX
  5
14a
  8
Layer_0
  10
303.04999
  20
311
  0
SEQEND
  0
POLYLINE
  5
14c
  8
Layer_0
  62
1
  66
1
  10
0
  20
0
  30
0
  0
VERTEX
  5
14c
  8
Layer_0
  10
303.04999
  20
311
  0
VERTEX
  5
14d
  8
Layer_0
  10
267
  20
311
  0
SEQEND
  0
ENDSEC
  0
EOF
