  0
SECTION
  2
HEADER
  9
$ACADVER
  1
AC1009
  0
ENDSEC
  0
SECTION
  2
ENTITIES
  0
POLYLINE
  5
90
  8
Layer_1
  62
1
  66
1
  10
0
  20
0
  30
0
  0
VERTEX
  5
90
  8
Layer_1
  10
295.91815
  20
180.8952
  0
VERTEX
  5
91
  8
Layer_1
  10
289.91815
  20
180.8952
  0
VERTEX
  5
92
  8
Layer_1
  10
289.91815
  20
150.8952
  0
VERTEX
  5
93
  8
Layer_1
  10
295.91815
  20
150.8952
  0
VERTEX
  5
94
  8
Layer_1
  10
295.91815
  20
135.8952
  0
VERTEX
  5
95
  8
Layer_1
  10
317.91815
  20
135.8952
  0
VERTEX
  5
96
  8
Layer_1
  10
317.91815
  20
115.8952
  0
VERTEX
  5
97
  8
Layer_1
  10
325.91815
  20
115.8952
  0
VERTEX
  5
98
  8
Layer_1
  10
325.91815
  20
109.8952
  0
VERTEX
  5
99
  8
Layer_1
  10
355.91815
  20
109.8952
  0
VERTEX
  5
9a
  8
Layer_1
  10
355.91815
  20
115.8952
  0
VERTEX
  5
9b
  8
Layer_1
  10
385.91815
  20
115.8952
  0
VERTEX
  5
9c
  8
Layer_1
  10
385.91815
  20
138.3952
  0
VERTEX
  5
9d
  8
Layer_1
  10
346.91815
  20
138.3952
  0
VERTEX
  5
9e
  8
Layer_1
  10
346.91815
  20
193.3952
  0
VERTEX
  5
9f
  8
Layer_1
  10
385.91815
  20
193.3952
  0
VERTEX
  5
a0
  8
Layer_1
  10
385.91815
  20
215.8952
  0
VERTEX
  5
a1
  8
Layer_1
  10
355.91815
  20
215.8952
  0
VERTEX
  5
a2
  8
Layer_1
  10
325.91815
  20
215.8952
  0
VERTEX
  5
a3
  8
Layer_1
  10
295.91815
  20
215.8952
  0
VERTEX
  5
a4
  8
Layer_1
  10
295.91815
  20
180.8952
  0
SEQEND
  0
POLYLINE
  5
a6
  8
Layer_0
  62
3
  66
1
  10
0
  20
0
  30
0
  0
VERTEX
  5
a6
  8
Layer_0
  10
303.82632
  20
207.05403
  0
VERTEX
  5
a7
  8
Layer_0
  10
303.83603
  20
207.04369
  0
VERTEX
  5
a8
  8
Layer_0
  10
303.84604
  20
207.03377
  0
VERTEX
  5
a9
  8
Layer_0
  10
303.85635
  20
207.02429
  42
0.18726645
  0
VERTEX
  5
aa
  8
Layer_0
  10
304.14352
  20
206.92715
  0
VERTEX
  5
ab
  8
Layer_0
  10
304.16815
  20
206.92764
  42
0.13423354
  0
VERTEX
  5
ac
  8
Layer_0
  10
304.40137
  20
206.99571
  0
VERTEX
  5
ad
  8
Layer_0
  10
304.41898
  20
207.00748
  42
0.15884626
  0
VERTEX
  5
ae
  8
Layer_0
  10
304.55075
  20
207.18193
  0
VERTEX
  5
af
  8
Layer_0
  10
304.55408
  20
207.19199
  0
VERTEX
  5
b0
  8
Layer_0
  10
304.55728
  20
207.20251
  42
0.065618399
  0
VERTEX
  5
b1
  8
Layer_0
  10
304.59167
  20
207.55743
  0
VERTEX
  5
b2
  8
Layer_0
  10
304.59167
  20
209.6243
  0
VERTEX
  5
b3
  8
Layer_0
  10
304.98868
  20
209.6243
  0
VERTEX
  5
b4
  8
Layer_0
  10
304.98868
  20
207.57996
  0
VERTEX
  5
b5
  8
Layer_0
  10
304.98853
  20
207.54887
  42
-0.098107144
  0
VERTEX
  5
b6
  8
Layer_0
  10
304.89761
  20
206.99673
  0
VERTEX
  5
b7
  8
Layer_0
  10
304.88983
  20
206.97968
  42
-0.1611333
  0
VERTEX
  5
b8
  8
Layer_0
  10
304.60907
  20
206.68159
  0
VERTEX
  5
b9
  8
Layer_0
  10
304.5925
  20
206.67274
  42
-0.12072822
  0
VERTEX
  5
ba
  8
Layer_0
  10
304.14557
  20
206.57314
  0
VERTEX
  5
bb
  8
Layer_0
  10
304.11298
  20
206.57353
  42
-0.2088616
  0
VERTEX
  5
bc
  8
Layer_0
  10
303.54086
  20
206.80029
  42
-0.19417007
  0
VERTEX
  5
bd
  8
Layer_0
  10
303.33929
  20
207.47559
  0
VERTEX
  5
be
  8
Layer_0
  10
303.69742
  20
207.5247
  42
0.16180022
  0
VERTEX
  5
bf
  8
Layer_0
  10
303.82632
  20
207.05403
  0
SEQEND
  0
POLYLINE
  5
c1
  8
Layer_0
  62
3
  66
1
  10
0
  20
0
  30
0
  0
VERTEX
  5
c1
  8
Layer_0
  10
306.10806
  20
207.17784
  42
-0.023589029
  0
VERTEX
  5
c2
  8
Layer_0
  10
306.53369
  20
207.55539
  42
0.029992722
  0
VERTEX
  5
c3
  8
Layer_0
  10
307.08694
  20
208.06708
  0
VERTEX
  5
c4
  8
Layer_0
  10
307.10156
  20
208.08337
  42
0.071057321
  0
VERTEX
  5
c5
  8
Layer_0
  10
307.33316
  20
208.42056
  0
VERTEX
  5
c6
  8
Layer_0
  10
307.34613
  20
208.44968
  42
0.092438878
  0
VERTEX
  5
c7
  8
Layer_0
  10
307.41928
  20
208.77371
  0
VERTEX
  5
c8
  8
Layer_0
  10
307.4198
  20
208.8037
  42
0.18551998
  0
VERTEX
  5
c9
  8
Layer_0
  10
307.22708
  20
209.33549
  42
0.023241048
  0
VERTEX
  5
ca
  8
Layer_0
  10
307.16809
  20
209.39716
  42
0.19711901
  0
VERTEX
  5
cb
  8
Layer_0
  10
306.48459
  20
209.63657
  42
0.18484407
  0
VERTEX
  5
cc
  8
Layer_0
  10
305.80313
  20
209.41454
  42
0.19670069
  0
VERTEX
  5
cd
  8
Layer_0
  10
305.5105
  20
208.76891
  0
VERTEX
  5
ce
  8
Layer_0
  10
305.8891
  20
208.73003
  42
-0.20211914
  0
VERTEX
  5
cf
  8
Layer_0
  10
306.05075
  20
209.17204
  42
-0.20614179
  0
VERTEX
  5
d0
  8
Layer_0
  10
306.47641
  20
209.33167
  42
-0.18033206
  0
VERTEX
  5
d1
  8
Layer_0
  10
306.85791
  20
209.20528
  0
VERTEX
  5
d2
  8
Layer_0
  10
306.87146
  20
209.19353
  0
VERTEX
  5
d3
  8
Layer_0
  10
306.88464
  20
209.18124
  42
-0.14775285
  0
VERTEX
  5
d4
  8
Layer_0
  10
307.02789
  20
208.93378
  0
VERTEX
  5
d5
  8
Layer_0
  10
307.03143
  20
208.91708
  0
VERTEX
  5
d6
  8
Layer_0
  10
307.03442
  20
208.90015
  0
VERTEX
  5
d7
  8
Layer_0
  10
307.03687
  20
208.88297
  0
VERTEX
  5
d8
  8
Layer_0
  10
307.03876
  20
208.86554
  0
VERTEX
  5
d9
  8
Layer_0
  10
307.0401
  20
208.8479
  42
0.011752324
  0
VERTEX
  5
da
  8
Layer_0
  10
307.0412
  20
208.81189
  42
-0.15542715
  0
VERTEX
  5
db
  8
Layer_0
  10
306.88333
  20
208.38832
  0
VERTEX
  5
dc
  8
Layer_0
  10
306.86932
  20
208.36884
  42
-0.055815916
  0
VERTEX
  5
dd
  8
Layer_0
  10
306.24854
  20
207.76657
  0
VERTEX
  5
de
  8
Layer_0
  10
306.20831
  20
207.73343
  42
0.043510561
  0
VERTEX
  5
df
  8
Layer_0
  10
305.72641
  20
207.27914
  42
0.08678795
  0
VERTEX
  5
e0
  8
Layer_0
  10
305.48389
  20
206.8801
  42
0.08597873
  0
VERTEX
  5
e1
  8
Layer_0
  10
305.44098
  20
206.66835
  0
VERTEX
  5
e2
  8
Layer_0
  10
305.44061
  20
206.64639
  0
VERTEX
  5
e3
  8
Layer_0
  10
305.44092
  20
206.6243
  0
VERTEX
  5
e4
  8
Layer_0
  10
307.42389
  20
206.6243
  0
VERTEX
  5
e5
  8
Layer_0
  10
307.42389
  20
206.97832
  0
VERTEX
  5
e6
  8
Layer_0
  10
305.95251
  20
206.97832
  42
-0.052185656
  0
VERTEX
  5
e7
  8
Layer_0
  10
306.10806
  20
207.17784
  0
SEQEND
  0
POLYLINE
  5
e9
  8
Layer_0
  62
3
  66
1
  10
0
  20
0
  30
0
  0
VERTEX
  5
e9
  8
Layer_0
  10
308.90955
  20
207.5247
  0
VERTEX
  5
ea
  8
Layer_0
  10
308.90955
  20
207.8951
  0
VERTEX
  5
eb
  8
Layer_0
  10
307.77789
  20
207.8951
  0
VERTEX
  5
ec
  8
Layer_0
  10
307.77789
  20
207.5247
  0
VERTEX
  5
ed
  8
Layer_0
  10
308.90955
  20
207.5247
  0
SEQEND
  0
POLYLINE
  5
ef
  8
Layer_0
  62
3
  66
1
  10
0
  20
0
  30
0
  0
VERTEX
  5
ef
  8
Layer_0
  10
309.35873
  20
207.98207
  42
0.16540629
  0
VERTEX
  5
f0
  8
Layer_0
  10
309.21039
  20
207.49196
  42
0.20199928
  0
VERTEX
  5
f1
  8
Layer_0
  10
309.46033
  20
206.85825
  0
VERTEX
  5
f2
  8
Layer_0
  10
309.48254
  20
206.83609
  42
0.19339155
  0
VERTEX
  5
f3
  8
Layer_0
  10
310.16208
  20
206.57359
  0
VERTEX
  5
f4
  8
Layer_0
  10
310.19879
  20
206.57314
  42
0.18941706
  0
VERTEX
  5
f5
  8
Layer_0
  10
310.89203
  20
206.81369
  0
VERTEX
  5
f6
  8
Layer_0
  10
310.91501
  20
206.83507
  42
0.2028842
  0
VERTEX
  5
f7
  8
Layer_0
  10
311.18671
  20
207.44989
  0
VERTEX
  5
f8
  8
Layer_0
  10
311.18719
  20
207.48172
  42
0.15297121
  0
VERTEX
  5
f9
  8
Layer_0
  10
311.05469
  20
207.94374
  0
VERTEX
  5
fa
  8
Layer_0
  10
311.04291
  20
207.96059
  42
0.016483281
  0
VERTEX
  5
fb
  8
Layer_0
  10
311.01794
  20
207.99324
  42
0.14605509
  0
VERTEX
  5
fc
  8
Layer_0
  10
310.62238
  20
208.25116
  42
0.12762954
  0
VERTEX
  5
fd
  8
Layer_0
  10
310.92578
  20
208.45206
  0
VERTEX
  5
fe
  8
Layer_0
  10
310.93588
  20
208.46432
  0
VERTEX
  5
ff
  8
Layer_0
  10
310.94559
  20
208.47682
  0
VERTEX
  5
100
  8
Layer_0
  10
310.95493
  20
208.48956
  42
0.15234641
  0
VERTEX
  5
101
  8
Layer_0
  10
311.06421
  20
208.83551
  0
VERTEX
  5
102
  8
Layer_0
  10
311.06439
  20
208.85281
  42
0.17765911
  0
VERTEX
  5
103
  8
Layer_0
  10
310.89813
  20
209.32959
  42
0.031628155
  0
VERTEX
  5
104
  8
Layer_0
  10
310.82495
  20
209.4084
  42
0.19842757
  0
VERTEX
  5
105
  8
Layer_0
  10
310.19263
  20
209.63657
  42
0.19694293
  0
VERTEX
  5
106
  8
Layer_0
  10
309.56644
  20
209.41351
  42
0.21384435
  0
VERTEX
  5
107
  8
Layer_0
  10
309.33112
  20
208.86304
  42
0.15902745
  0
VERTEX
  5
108
  8
Layer_0
  10
309.44162
  20
208.4906
  42
0.14797427
  0
VERTEX
  5
109
  8
Layer_0
  10
309.76242
  20
208.25829
  0
VERTEX
  5
10a
  8
Layer_0
  10
309.78131
  20
208.25116
  42
0.17225903
  0
VERTEX
  5
10b
  8
Layer_0
  10
309.35873
  20
207.98207
  0
SEQEND
  0
POLYLINE
  5
10d
  8
Layer_0
  62
3
  66
1
  10
0
  20
0
  30
0
  0
VERTEX
  5
10d
  8
Layer_0
  10
310.19672
  20
209.33371
  42
0.20275735
  0
VERTEX
  5
10e
  8
Layer_0
  10
309.8468
  20
209.19864
  42
0.21046552
  0
VERTEX
  5
10f
  8
Layer_0
  10
309.70764
  20
208.87532
  42
0.17927902
  0
VERTEX
  5
110
  8
Layer_0
  10
309.81262
  20
208.56241
  42
0.023612697
  0
VERTEX
  5
111
  8
Layer_0
  10
309.84476
  20
208.52744
  42
-0.052262122
  0
VERTEX
  5
112
  8
Layer_0
  10
309.86816
  20
208.50586
  0
VERTEX
  5
113
  8
Layer_0
  10
309.88031
  20
208.49577
  42
0.17410565
  0
VERTEX
  5
114
  8
Layer_0
  10
310.20081
  20
208.39236
  0
VERTEX
  5
115
  8
Layer_0
  10
310.21841
  20
208.39261
  0
VERTEX
  5
116
  8
Layer_0
  10
310.23575
  20
208.39331
  42
0.18909753
  0
VERTEX
  5
117
  8
Layer_0
  10
310.54974
  20
208.5264
  0
VERTEX
  5
118
  8
Layer_0
  10
310.56085
  20
208.53769
  42
0.19721028
  0
VERTEX
  5
119
  8
Layer_0
  10
310.68582
  20
208.85486
  0
VERTEX
  5
11a
  8
Layer_0
  10
310.68558
  20
208.87163
  42
0.20079484
  0
VERTEX
  5
11b
  8
Layer_0
  10
310.54565
  20
209.19559
  42
0.20405862
  0
VERTEX
  5
11c
  8
Layer_0
  10
310.19672
  20
209.33371
  0
SEQEND
  0
POLYLINE
  5
11e
  8
Layer_0
  62
3
  66
1
  10
0
  20
0
  30
0
  0
VERTEX
  5
11e
  8
Layer_0
  10
309.88568
  20
206.95683
  0
VERTEX
  5
11f
  8
Layer_0
  10
309.9104
  20
206.94392
  42
0.11662167
  0
VERTEX
  5
120
  8
Layer_0
  10
310.20288
  20
206.87601
  0
VERTEX
  5
121
  8
Layer_0
  10
310.2247
  20
206.8763
  42
0.19679226
  0
VERTEX
  5
122
  8
Layer_0
  10
310.63873
  20
207.04585
  0
VERTEX
  5
123
  8
Layer_0
  10
310.65277
  20
207.06017
  42
0.19798532
  0
VERTEX
  5
124
  8
Layer_0
  10
310.81064
  20
207.47763
  0
VERTEX
  5
125
  8
Layer_0
  10
310.81033
  20
207.49965
  42
0.19994602
  0
VERTEX
  5
126
  8
Layer_0
  10
310.63364
  20
207.9176
  42
0.20389868
  0
VERTEX
  5
127
  8
Layer_0
  10
310.19058
  20
208.09155
  42
0.20597807
  0
VERTEX
  5
128
  8
Layer_0
  10
309.75983
  20
207.91965
  42
0.20495416
  0
VERTEX
  5
129
  8
Layer_0
  10
309.58896
  20
207.48991
  0
VERTEX
  5
12a
  8
Layer_0
  10
309.58948
  20
207.46371
  42
0.10775439
  0
VERTEX
  5
12b
  8
Layer_0
  10
309.66364
  20
207.185
  42
0.048904955
  0
VERTEX
  5
12c
  8
Layer_0
  10
309.7215
  20
207.09418
  42
0.10079201
  0
VERTEX
  5
12d
  8
Layer_0
  10
309.88568
  20
206.95683
  0
SEQEND
  0
ENDSEC
  0
EOF
