  0
SECTION
  2
HEADER
  9
$ACADVER
  1
AC1009
  0
ENDSEC
  0
SECTION
  2
ENTITIES
  0
CIRCLE
  5
90
  8
Layer_0
  62
1
  10
172.22961
  20
270.12857
  30
0
  40
1.5
  0
CIRCLE
  5
90
  8
Layer_0
  62
1
  10
252.0296
  20
270.12857
  30
0
  40
1.5
  0
CIRCLE
  5
90
  8
Layer_0
  62
1
  10
252.0296
  20
70.128571
  30
0
  40
1.5
  0
CIRCLE
  5
90
  8
Layer_0
  62
1
  10
172.22961
  20
70.128571
  30
0
  40
1.5
  0
CIRCLE
  5
90
  8
Layer_0
  62
1
  10
133.12961
  20
270.12857
  30
0
  40
1.5
  0
CIRCLE
  5
90
  8
Layer_0
  62
1
  10
133.12961
  20
70.128571
  30
0
  40
1.5
  0
POLYLINE
  5
90
  8
Layer_0
  62
1
  66
1
  10
0
  20
0
  30
0
  0
VERTEX
  5
90
  8
Layer_0
  10
161.12961
  20
122.67856
  0
VERTEX
  5
91
  8
Layer_0
  10
167.22961
  20
122.67856
  0
VERTEX
  5
92
  8
Layer_0
  10
167.22961
  20
152.57857
  0
VERTEX
  5
93
  8
Layer_0
  10
161.12961
  20
152.57857
  0
SEQEND
  0
POLYLINE
  5
95
  8
Layer_0
  62
1
  66
1
  10
0
  20
0
  30
0
  0
VERTEX
  5
95
  8
Layer_0
  10
161.12961
  20
207.67857
  0
VERTEX
  5
96
  8
Layer_0
  10
161.12961
  20
237.57857
  0
SEQEND
  0
POLYLINE
  5
98
  8
Layer_0
  62
1
  66
1
  10
0
  20
0
  30
0
  0
VERTEX
  5
98
  8
Layer_0
  10
161.12961
  20
59.128571
  0
VERTEX
  5
99
  8
Layer_0
  10
148.0296
  20
59.128571
  0
VERTEX
  5
9a
  8
Layer_0
  10
148.0296
  20
65.128571
  0
VERTEX
  5
9b
  8
Layer_0
  10
138.22961
  20
65.128571
  0
VERTEX
  5
9c
  8
Layer_0
  10
138.22961
  20
59.128571
  0
VERTEX
  5
9d
  8
Layer_0
  10
125.12961
  20
59.128571
  0
VERTEX
  5
9e
  8
Layer_0
  10
125.12961
  20
102.67859
  0
VERTEX
  5
9f
  8
Layer_0
  10
128.12961
  20
102.67859
  0
VERTEX
  5
a0
  8
Layer_0
  10
128.12961
  20
132.57858
  0
VERTEX
  5
a1
  8
Layer_0
  10
125.12961
  20
132.57858
  0
VERTEX
  5
a2
  8
Layer_0
  10
125.12961
  20
207.67857
  0
VERTEX
  5
a3
  8
Layer_0
  10
128.12961
  20
207.67857
  0
VERTEX
  5
a4
  8
Layer_0
  10
128.12961
  20
237.57857
  0
VERTEX
  5
a5
  8
Layer_0
  10
125.12961
  20
237.57857
  0
VERTEX
  5
a6
  8
Layer_0
  10
125.12961
  20
281.12857
  0
VERTEX
  5
a7
  8
Layer_0
  10
138.22961
  20
281.12857
  0
VERTEX
  5
a8
  8
Layer_0
  10
138.22961
  20
275.12857
  0
VERTEX
  5
a9
  8
Layer_0
  10
148.0296
  20
275.12857
  0
VERTEX
  5
aa
  8
Layer_0
  10
148.0296
  20
281.12857
  0
VERTEX
  5
ab
  8
Layer_0
  10
161.12961
  20
281.12857
  0
SEQEND
  0
POLYLINE
  5
ad
  8
Layer_0
  62
1
  66
1
  10
0
  20
0
  30
0
  0
VERTEX
  5
ad
  8
Layer_0
  10
197.17961
  20
113.22858
  0
VERTEX
  5
ae
  8
Layer_0
  10
227.07961
  20
113.22858
  0
VERTEX
  5
af
  8
Layer_0
  10
227.07961
  20
110.12857
  0
VERTEX
  5
b0
  8
Layer_0
  10
197.17961
  20
110.12857
  0
VERTEX
  5
b1
  8
Layer_0
  10
197.17961
  20
113.22858
  0
SEQEND
  0
POLYLINE
  5
b3
  8
Layer_1
  62
3
  66
1
  10
0
  20
0
  30
0
  0
VERTEX
  5
b3
  8
Layer_1
  10
245.6712
  20
69.712158
  0
VERTEX
  5
b4
  8
Layer_1
  10
245.65512
  20
69.729492
  42
0.20874713
  0
VERTEX
  5
b5
  8
Layer_1
  10
245.14352
  20
69.925995
  0
VERTEX
  5
b6
  8
Layer_1
  10
245.12289
  20
69.925903
  0
VERTEX
  5
b7
  8
Layer_1
  10
245.10251
  20
69.925385
  42
0.13364296
  0
VERTEX
  5
b8
  8
Layer_1
  10
244.71327
  20
69.81369
  0
VERTEX
  5
b9
  8
Layer_1
  10
244.69836
  20
69.804077
  42
0.16609563
  0
VERTEX
  5
ba
  8
Layer_1
  10
244.46289
  20
69.504456
  0
VERTEX
  5
bb
  8
Layer_1
  10
244.45724
  20
69.487732
  42
0.069974007
  0
VERTEX
  5
bc
  8
Layer_1
  10
244.39185
  20
68.878906
  0
VERTEX
  5
bd
  8
Layer_1
  10
244.37624
  20
65.434204
  0
VERTEX
  5
be
  8
Layer_1
  10
243.71457
  20
65.437195
  0
VERTEX
  5
bf
  8
Layer_1
  10
243.73001
  20
68.844391
  0
VERTEX
  5
c0
  8
Layer_1
  10
243.73051
  20
68.89621
  42
-0.098386817
  0
VERTEX
  5
c1
  8
Layer_1
  10
243.8862
  20
69.815735
  0
VERTEX
  5
c2
  8
Layer_1
  10
243.89928
  20
69.844086
  42
-0.16198884
  0
VERTEX
  5
c3
  8
Layer_1
  10
244.36948
  20
70.338806
  0
VERTEX
  5
c4
  8
Layer_1
  10
244.39716
  20
70.353394
  42
-0.12101313
  0
VERTEX
  5
c5
  8
Layer_1
  10
245.14279
  20
70.516052
  0
VERTEX
  5
c6
  8
Layer_1
  10
245.19711
  20
70.515137
  42
-0.20910945
  0
VERTEX
  5
c7
  8
Layer_1
  10
246.1489
  20
70.132904
  42
-0.19431008
  0
VERTEX
  5
c8
  8
Layer_1
  10
246.47975
  20
69.00589
  0
VERTEX
  5
c9
  8
Layer_1
  10
245.88252
  20
68.926727
  42
0.16236897
  0
VERTEX
  5
ca
  8
Layer_1
  10
245.6712
  20
69.712158
  0
SEQEND
  0
POLYLINE
  5
cc
  8
Layer_1
  62
3
  66
1
  10
0
  20
0
  30
0
  0
VERTEX
  5
cc
  8
Layer_1
  10
241.86745
  20
69.523041
  42
-0.025367345
  0
VERTEX
  5
cd
  8
Layer_1
  10
241.15518
  20
68.897003
  42
0.027604663
  0
VERTEX
  5
ce
  8
Layer_1
  10
240.2551
  20
68.076202
  0
VERTEX
  5
cf
  8
Layer_1
  10
240.20476
  20
68.021362
  42
0.075876881
  0
VERTEX
  5
d0
  8
Layer_1
  10
239.80505
  20
67.436859
  0
VERTEX
  5
d1
  8
Layer_1
  10
239.79443
  20
67.412689
  42
0.09705545
  0
VERTEX
  5
d2
  8
Layer_1
  10
239.6693
  20
66.848206
  0
VERTEX
  5
d3
  8
Layer_1
  10
239.66898
  20
66.823212
  42
0.16706409
  0
VERTEX
  5
d4
  8
Layer_1
  10
239.92819
  20
66.007507
  42
0.040928839
  0
VERTEX
  5
d5
  8
Layer_1
  10
240.08398
  20
65.832245
  42
0.19706439
  0
VERTEX
  5
d6
  8
Layer_1
  10
241.22133
  20
65.42804
  42
0.18497075
  0
VERTEX
  5
d7
  8
Layer_1
  10
242.35873
  20
65.792938
  42
0.19689718
  0
VERTEX
  5
d8
  8
Layer_1
  10
242.85133
  20
66.86676
  0
VERTEX
  5
d9
  8
Layer_1
  10
242.22067
  20
66.934448
  42
-0.2021472
  0
VERTEX
  5
da
  8
Layer_1
  10
241.94788
  20
66.198975
  42
-0.20490131
  0
VERTEX
  5
db
  8
Layer_1
  10
241.23727
  20
65.936157
  42
-0.19982129
  0
VERTEX
  5
dc
  8
Layer_1
  10
240.55798
  20
66.189911
  42
-0.20366236
  0
VERTEX
  5
dd
  8
Layer_1
  10
240.30019
  20
66.776489
  0
VERTEX
  5
de
  8
Layer_1
  10
240.29987
  20
66.806702
  42
-0.15598302
  0
VERTEX
  5
df
  8
Layer_1
  10
240.56619
  20
67.511444
  0
VERTEX
  5
e0
  8
Layer_1
  10
240.58971
  20
67.543823
  42
-0.055853255
  0
VERTEX
  5
e1
  8
Layer_1
  10
241.62888
  20
68.542908
  0
VERTEX
  5
e2
  8
Layer_1
  10
241.69614
  20
68.597809
  42
0.043568291
  0
VERTEX
  5
e3
  8
Layer_1
  10
242.50276
  20
69.351318
  42
0.086683126
  0
VERTEX
  5
e4
  8
Layer_1
  10
242.90994
  20
70.014557
  42
0.099700936
  0
VERTEX
  5
e5
  8
Layer_1
  10
242.98349
  20
70.440552
  0
VERTEX
  5
e6
  8
Layer_1
  10
239.67862
  20
70.455536
  0
VERTEX
  5
e7
  8
Layer_1
  10
239.67593
  20
69.865509
  0
VERTEX
  5
e8
  8
Layer_1
  10
242.12816
  20
69.854401
  42
-0.052489095
  0
VERTEX
  5
e9
  8
Layer_1
  10
241.86745
  20
69.523041
  0
SEQEND
  0
POLYLINE
  5
eb
  8
Layer_1
  62
3
  66
1
  10
0
  20
0
  30
0
  0
VERTEX
  5
eb
  8
Layer_1
  10
237.1929
  20
68.348785
  0
VERTEX
  5
ec
  8
Layer_1
  10
237.19571
  20
68.966095
  0
VERTEX
  5
ed
  8
Layer_1
  10
239.08177
  20
68.95755
  0
VERTEX
  5
ee
  8
Layer_1
  10
239.07898
  20
68.34024
  0
VERTEX
  5
ef
  8
Layer_1
  10
237.1929
  20
68.348785
  0
SEQEND
  0
POLYLINE
  5
f1
  8
Layer_1
  62
3
  66
1
  10
0
  20
0
  30
0
  0
VERTEX
  5
f1
  8
Layer_1
  10
235.65674
  20
69.551178
  42
-0.025299304
  0
VERTEX
  5
f2
  8
Layer_1
  10
234.94449
  20
68.92514
  42
0.027574458
  0
VERTEX
  5
f3
  8
Layer_1
  10
234.04437
  20
68.10434
  0
VERTEX
  5
f4
  8
Layer_1
  10
233.99405
  20
68.0495
  42
0.076004879
  0
VERTEX
  5
f5
  8
Layer_1
  10
233.59433
  20
67.464996
  0
VERTEX
  5
f6
  8
Layer_1
  10
233.58371
  20
67.440826
  42
0.096938953
  0
VERTEX
  5
f7
  8
Layer_1
  10
233.45859
  20
66.876343
  0
VERTEX
  5
f8
  8
Layer_1
  10
233.45825
  20
66.851349
  42
0.14817042
  0
VERTEX
  5
f9
  8
Layer_1
  10
233.66537
  20
66.110352
  42
0.058357307
  0
VERTEX
  5
fa
  8
Layer_1
  10
233.87329
  20
65.860382
  42
0.19692747
  0
VERTEX
  5
fb
  8
Layer_1
  10
235.01062
  20
65.456177
  42
0.18501732
  0
VERTEX
  5
fc
  8
Layer_1
  10
236.14803
  20
65.821075
  42
0.19684389
  0
VERTEX
  5
fd
  8
Layer_1
  10
236.64063
  20
66.894928
  0
VERTEX
  5
fe
  8
Layer_1
  10
236.00995
  20
66.962585
  42
-0.20209847
  0
VERTEX
  5
ff
  8
Layer_1
  10
235.73718
  20
66.227112
  42
-0.20514241
  0
VERTEX
  5
100
  8
Layer_1
  10
235.02655
  20
65.964294
  42
-0.19936303
  0
VERTEX
  5
101
  8
Layer_1
  10
234.34729
  20
66.218079
  42
-0.20376005
  0
VERTEX
  5
102
  8
Layer_1
  10
234.08948
  20
66.804626
  0
VERTEX
  5
103
  8
Layer_1
  10
234.08916
  20
66.834839
  42
-0.15610318
  0
VERTEX
  5
104
  8
Layer_1
  10
234.35547
  20
67.539581
  0
VERTEX
  5
105
  8
Layer_1
  10
234.379
  20
67.57196
  42
-0.055855695
  0
VERTEX
  5
106
  8
Layer_1
  10
235.41815
  20
68.571045
  0
VERTEX
  5
107
  8
Layer_1
  10
235.48541
  20
68.625946
  42
0.043611652
  0
VERTEX
  5
108
  8
Layer_1
  10
236.29205
  20
69.379456
  42
0.086856359
  0
VERTEX
  5
109
  8
Layer_1
  10
236.69922
  20
70.042725
  42
0.1004217
  0
VERTEX
  5
10a
  8
Layer_1
  10
236.77277
  20
70.468719
  0
VERTEX
  5
10b
  8
Layer_1
  10
233.4679
  20
70.483673
  0
VERTEX
  5
10c
  8
Layer_1
  10
233.46523
  20
69.893646
  0
VERTEX
  5
10d
  8
Layer_1
  10
235.91745
  20
69.882538
  42
-0.052226126
  0
VERTEX
  5
10e
  8
Layer_1
  10
235.65674
  20
69.551178
  0
SEQEND
  0
POLYLINE
  5
110
  8
Layer_0
  62
1
  66
1
  10
0
  20
0
  30
0
  0
VERTEX
  5
110
  8
Layer_0
  10
161.12961
  20
237.57857
  0
VERTEX
  5
111
  8
Layer_0
  10
167.22961
  20
237.57857
  0
SEQEND
  0
POLYLINE
  5
113
  8
Layer_0
  62
1
  66
1
  10
0
  20
0
  30
0
  0
VERTEX
  5
113
  8
Layer_0
  10
167.22961
  20
237.57857
  0
VERTEX
  5
114
  8
Layer_0
  10
167.22961
  20
207.67857
  0
SEQEND
  0
POLYLINE
  5
116
  8
Layer_0
  62
1
  66
1
  10
0
  20
0
  30
0
  0
VERTEX
  5
116
  8
Layer_0
  10
167.22961
  20
207.67857
  0
VERTEX
  5
117
  8
Layer_0
  10
161.12961
  20
207.67857
  0
SEQEND
  0
POLYLINE
  5
119
  8
Layer_0
  62
1
  66
1
  10
0
  20
0
  30
0
  0
VERTEX
  5
119
  8
Layer_0
  10
161.12961
  20
152.57857
  0
VERTEX
  5
11a
  8
Layer_0
  10
161.12961
  20
122.67856
  0
SEQEND
  0
POLYLINE
  5
11c
  8
Layer_0
  62
1
  66
1
  10
0
  20
0
  30
0
  0
VERTEX
  5
11c
  8
Layer_0
  10
161.12961
  20
59.128571
  0
VERTEX
  5
11d
  8
Layer_0
  10
197.17961
  20
59.128571
  0
SEQEND
  0
POLYLINE
  5
11f
  8
Layer_0
  62
1
  66
1
  10
0
  20
0
  30
0
  0
VERTEX
  5
11f
  8
Layer_0
  10
197.17961
  20
59.128571
  0
VERTEX
  5
120
  8
Layer_0
  10
197.17961
  20
65.128571
  0
SEQEND
  0
POLYLINE
  5
122
  8
Layer_0
  62
1
  66
1
  10
0
  20
0
  30
0
  0
VERTEX
  5
122
  8
Layer_0
  10
197.17961
  20
65.128571
  0
VERTEX
  5
123
  8
Layer_0
  10
227.07961
  20
65.128571
  0
SEQEND
  0
POLYLINE
  5
125
  8
Layer_0
  62
1
  66
1
  10
0
  20
0
  30
0
  0
VERTEX
  5
125
  8
Layer_0
  10
227.07961
  20
65.128571
  0
VERTEX
  5
126
  8
Layer_0
  10
227.07961
  20
59.128571
  0
SEQEND
  0
POLYLINE
  5
128
  8
Layer_0
  62
1
  66
1
  10
0
  20
0
  30
0
  0
VERTEX
  5
128
  8
Layer_0
  10
227.07961
  20
59.128571
  0
VERTEX
  5
129
  8
Layer_0
  10
263.12961
  20
59.128571
  0
SEQEND
  0
POLYLINE
  5
12b
  8
Layer_0
  62
1
  66
1
  10
0
  20
0
  30
0
  0
VERTEX
  5
12b
  8
Layer_0
  10
263.12961
  20
59.128571
  0
VERTEX
  5
12c
  8
Layer_0
  10
263.12961
  20
102.67859
  0
SEQEND
  0
POLYLINE
  5
12e
  8
Layer_0
  62
1
  66
1
  10
0
  20
0
  30
0
  0
VERTEX
  5
12e
  8
Layer_0
  10
263.12961
  20
102.67859
  0
VERTEX
  5
12f
  8
Layer_0
  10
257.12961
  20
102.67859
  0
SEQEND
  0
POLYLINE
  5
131
  8
Layer_0
  62
1
  66
1
  10
0
  20
0
  30
0
  0
VERTEX
  5
131
  8
Layer_0
  10
257.12961
  20
102.67859
  0
VERTEX
  5
132
  8
Layer_0
  10
257.12961
  20
132.57858
  0
SEQEND
  0
POLYLINE
  5
134
  8
Layer_0
  62
1
  66
1
  10
0
  20
0
  30
0
  0
VERTEX
  5
134
  8
Layer_0
  10
257.12961
  20
132.57858
  0
VERTEX
  5
135
  8
Layer_0
  10
263.12961
  20
132.57858
  0
SEQEND
  0
POLYLINE
  5
137
  8
Layer_0
  62
1
  66
1
  10
0
  20
0
  30
0
  0
VERTEX
  5
137
  8
Layer_0
  10
263.12961
  20
132.57858
  0
VERTEX
  5
138
  8
Layer_0
  10
263.12961
  20
207.67857
  0
SEQEND
  0
POLYLINE
  5
13a
  8
Layer_0
  62
1
  66
1
  10
0
  20
0
  30
0
  0
VERTEX
  5
13a
  8
Layer_0
  10
263.12961
  20
207.67857
  0
VERTEX
  5
13b
  8
Layer_0
  10
257.0296
  20
207.67857
  0
SEQEND
  0
POLYLINE
  5
13d
  8
Layer_0
  62
1
  66
1
  10
0
  20
0
  30
0
  0
VERTEX
  5
13d
  8
Layer_0
  10
257.0296
  20
207.67857
  0
VERTEX
  5
13e
  8
Layer_0
  10
257.0296
  20
237.57857
  0
SEQEND
  0
POLYLINE
  5
140
  8
Layer_0
  62
1
  66
1
  10
0
  20
0
  30
0
  0
VERTEX
  5
140
  8
Layer_0
  10
257.0296
  20
237.57857
  0
VERTEX
  5
141
  8
Layer_0
  10
263.12961
  20
237.57857
  0
SEQEND
  0
POLYLINE
  5
143
  8
Layer_0
  62
1
  66
1
  10
0
  20
0
  30
0
  0
VERTEX
  5
143
  8
Layer_0
  10
263.12961
  20
237.57857
  0
VERTEX
  5
144
  8
Layer_0
  10
263.12961
  20
281.12857
  0
SEQEND
  0
POLYLINE
  5
146
  8
Layer_0
  62
1
  66
1
  10
0
  20
0
  30
0
  0
VERTEX
  5
146
  8
Layer_0
  10
263.12961
  20
281.12857
  0
VERTEX
  5
147
  8
Layer_0
  10
227.07961
  20
281.12857
  0
SEQEND
  0
POLYLINE
  5
149
  8
Layer_0
  62
1
  66
1
  10
0
  20
0
  30
0
  0
VERTEX
  5
149
  8
Layer_0
  10
227.07961
  20
281.12857
  0
VERTEX
  5
14a
  8
Layer_0
  10
227.07961
  20
275.12857
  0
SEQEND
  0
POLYLINE
  5
14c
  8
Layer_0
  62
1
  66
1
  10
0
  20
0
  30
0
  0
VERTEX
  5
14c
  8
Layer_0
  10
227.07961
  20
275.12857
  0
VERTEX
  5
14d
  8
Layer_0
  10
197.17961
  20
275.12857
  0
SEQEND
  0
POLYLINE
  5
14f
  8
Layer_0
  62
1
  66
1
  10
0
  20
0
  30
0
  0
VERTEX
  5
14f
  8
Layer_0
  10
197.17961
  20
275.12857
  0
VERTEX
  5
150
  8
Layer_0
  10
197.17961
  20
281.12857
  0
SEQEND
  0
POLYLINE
  5
152
  8
Layer_0
  62
1
  66
1
  10
0
  20
0
  30
0
  0
VERTEX
  5
152
  8
Layer_0
  10
197.17961
  20
281.12857
  0
VERTEX
  5
153
  8
Layer_0
  10
161.12961
  20
281.12857
  0
SEQEND
  0
ENDSEC
  0
EOF
