  0
SECTION
  2
HEADER
  9
$ACADVER
  1
AC1009
  0
ENDSEC
  0
SECTION
  2
ENTITIES
  0
CIRCLE
  5
90
  8
Layer_0
  62
1
  10
36.297165
  20
207.58144
  30
0
  40
1.5
  0
CIRCLE
  5
90
  8
Layer_0
  62
1
  10
36.297165
  20
117.58142
  30
0
  40
1.5
  0
CIRCLE
  5
90
  8
Layer_0
  62
1
  10
236.29716
  20
117.58142
  30
0
  40
1.5
  0
CIRCLE
  5
90
  8
Layer_0
  62
1
  10
236.29716
  20
207.58144
  30
0
  40
1.5
  0
POLYLINE
  5
90
  8
Layer_0
  62
1
  66
1
  10
0
  20
0
  30
0
  0
VERTEX
  5
90
  8
Layer_0
  10
68.797165
  20
212.58144
  0
VERTEX
  5
91
  8
Layer_0
  10
68.797165
  20
218.58144
  0
VERTEX
  5
92
  8
Layer_0
  10
98.797165
  20
218.58144
  0
VERTEX
  5
93
  8
Layer_0
  10
98.797165
  20
212.58144
  0
VERTEX
  5
94
  8
Layer_0
  10
173.79716
  20
212.58144
  0
VERTEX
  5
95
  8
Layer_0
  10
173.79716
  20
218.58144
  0
VERTEX
  5
96
  8
Layer_0
  10
203.79716
  20
218.58144
  0
VERTEX
  5
97
  8
Layer_0
  10
203.79716
  20
212.58144
  0
VERTEX
  5
98
  8
Layer_0
  10
241.29716
  20
212.58144
  0
VERTEX
  5
99
  8
Layer_0
  10
241.29716
  20
177.58144
  0
VERTEX
  5
9a
  8
Layer_0
  10
247.29716
  20
177.58144
  0
VERTEX
  5
9b
  8
Layer_0
  10
247.29716
  20
147.58144
  0
VERTEX
  5
9c
  8
Layer_0
  10
241.29716
  20
147.58144
  0
VERTEX
  5
9d
  8
Layer_0
  10
241.29716
  20
112.58142
  0
VERTEX
  5
9e
  8
Layer_0
  10
203.79716
  20
112.58142
  0
VERTEX
  5
9f
  8
Layer_0
  10
203.79716
  20
106.58142
  0
VERTEX
  5
a0
  8
Layer_0
  10
173.79716
  20
106.58142
  0
VERTEX
  5
a1
  8
Layer_0
  10
173.79716
  20
112.58142
  0
VERTEX
  5
a2
  8
Layer_0
  10
98.797165
  20
112.58142
  0
VERTEX
  5
a3
  8
Layer_0
  10
98.797165
  20
106.58142
  0
VERTEX
  5
a4
  8
Layer_0
  10
68.797165
  20
106.58142
  0
VERTEX
  5
a5
  8
Layer_0
  10
68.797165
  20
112.58142
  0
VERTEX
  5
a6
  8
Layer_0
  10
31.297165
  20
112.58142
  0
VERTEX
  5
a7
  8
Layer_0
  10
31.297165
  20
147.58144
  0
VERTEX
  5
a8
  8
Layer_0
  10
25.297165
  20
147.58144
  0
VERTEX
  5
a9
  8
Layer_0
  10
25.297165
  20
177.58144
  0
VERTEX
  5
aa
  8
Layer_0
  10
31.297165
  20
177.58144
  0
VERTEX
  5
ab
  8
Layer_0
  10
31.297165
  20
212.58144
  0
VERTEX
  5
ac
  8
Layer_0
  10
68.797165
  20
212.58144
  0
SEQEND
  0
POLYLINE
  5
ae
  8
Layer_1
  62
3
  66
1
  10
0
  20
0
  30
0
  0
VERTEX
  5
ae
  8
Layer_1
  10
56.900009
  20
120.20459
  42
0.27791831
  0
VERTEX
  5
af
  8
Layer_1
  10
57.19635
  20
120.04422
  42
0.12781386
  0
VERTEX
  5
b0
  8
Layer_1
  10
57.40155
  20
120.08902
  42
0.10709377
  0
VERTEX
  5
b1
  8
Layer_1
  10
57.480522
  20
120.15891
  0
VERTEX
  5
b2
  8
Layer_1
  10
57.487312
  20
120.16888
  0
VERTEX
  5
b3
  8
Layer_1
  10
57.493813
  20
120.17972
  42
0.11357502
  0
VERTEX
  5
b4
  8
Layer_1
  10
57.563744
  20
120.63489
  0
VERTEX
  5
b5
  8
Layer_1
  10
57.563744
  20
122.55707
  0
VERTEX
  5
b6
  8
Layer_1
  10
58.162521
  20
122.55707
  0
VERTEX
  5
b7
  8
Layer_1
  10
58.162521
  20
120.67346
  0
VERTEX
  5
b8
  8
Layer_1
  10
58.162407
  20
120.64297
  42
-0.073761242
  0
VERTEX
  5
b9
  8
Layer_1
  10
58.097572
  20
120.1051
  0
VERTEX
  5
ba
  8
Layer_1
  10
58.09005
  20
120.08365
  42
-0.15968333
  0
VERTEX
  5
bb
  8
Layer_1
  10
57.78093
  20
119.68799
  0
VERTEX
  5
bc
  8
Layer_1
  10
57.761559
  20
119.67517
  42
-0.14292747
  0
VERTEX
  5
bd
  8
Layer_1
  10
57.176056
  20
119.5307
  42
-0.20894494
  0
VERTEX
  5
be
  8
Layer_1
  10
56.498116
  20
119.77731
  42
-0.19494821
  0
VERTEX
  5
bf
  8
Layer_1
  10
56.258598
  20
120.50092
  0
VERTEX
  5
c0
  8
Layer_1
  10
56.824905
  20
120.56589
  42
0.11716392
  0
VERTEX
  5
c1
  8
Layer_1
  10
56.900009
  20
120.20459
  0
SEQEND
  0
POLYLINE
  5
c3
  8
Layer_1
  62
3
  66
1
  10
0
  20
0
  30
0
  0
VERTEX
  5
c3
  8
Layer_1
  10
59.355011
  20
120.26953
  42
-0.024310056
  0
VERTEX
  5
c4
  8
Layer_1
  10
59.697029
  20
120.59836
  42
0.033367526
  0
VERTEX
  5
c5
  8
Layer_1
  10
60.061592
  20
120.96674
  0
VERTEX
  5
c6
  8
Layer_1
  10
60.070511
  20
120.97791
  42
0.06402482
  0
VERTEX
  5
c7
  8
Layer_1
  10
60.286263
  20
121.32809
  0
VERTEX
  5
c8
  8
Layer_1
  10
60.298859
  20
121.35849
  42
0.08768575
  0
VERTEX
  5
c9
  8
Layer_1
  10
60.370415
  20
121.70776
  0
VERTEX
  5
ca
  8
Layer_1
  10
60.370911
  20
121.74112
  42
0.20548352
  0
VERTEX
  5
cb
  8
Layer_1
  10
60.139755
  20
122.31177
  0
VERTEX
  5
cc
  8
Layer_1
  10
60.119225
  20
122.33179
  42
0.18988516
  0
VERTEX
  5
cd
  8
Layer_1
  10
59.463448
  20
122.56885
  0
VERTEX
  5
ce
  8
Layer_1
  10
59.427071
  20
122.56924
  42
0.12681187
  0
VERTEX
  5
cf
  8
Layer_1
  10
58.874702
  20
122.44077
  42
0.038200942
  0
VERTEX
  5
d0
  8
Layer_1
  10
58.757248
  20
122.36426
  42
0.2083725
  0
VERTEX
  5
d1
  8
Layer_1
  10
58.438576
  20
121.68832
  0
VERTEX
  5
d2
  8
Layer_1
  10
59.006905
  20
121.6315
  42
-0.16341894
  0
VERTEX
  5
d3
  8
Layer_1
  10
59.120049
  20
121.97952
  0
VERTEX
  5
d4
  8
Layer_1
  10
59.128693
  20
121.98874
  42
-0.20141714
  0
VERTEX
  5
d5
  8
Layer_1
  10
59.398102
  20
122.09613
  0
VERTEX
  5
d6
  8
Layer_1
  10
59.412865
  20
122.09631
  42
-0.19258251
  0
VERTEX
  5
d7
  8
Layer_1
  10
59.68734
  20
122.0022
  0
VERTEX
  5
d8
  8
Layer_1
  10
59.696014
  20
121.9938
  42
-0.19709712
  0
VERTEX
  5
d9
  8
Layer_1
  10
59.79834
  20
121.71625
  0
VERTEX
  5
da
  8
Layer_1
  10
59.798515
  20
121.7005
  42
-0.14538093
  0
VERTEX
  5
db
  8
Layer_1
  10
59.690399
  20
121.36609
  0
VERTEX
  5
dc
  8
Layer_1
  10
59.680794
  20
121.35138
  42
-0.04252759
  0
VERTEX
  5
dd
  8
Layer_1
  10
59.239471
  20
120.8938
  0
VERTEX
  5
de
  8
Layer_1
  10
59.207855
  20
120.86426
  42
0.06336111
  0
VERTEX
  5
df
  8
Layer_1
  10
58.566444
  20
120.15079
  42
0.11039792
  0
VERTEX
  5
e0
  8
Layer_1
  10
58.37159
  20
119.58142
  0
VERTEX
  5
e1
  8
Layer_1
  10
60.370911
  20
119.58142
  0
VERTEX
  5
e2
  8
Layer_1
  10
60.370911
  20
120.11121
  0
VERTEX
  5
e3
  8
Layer_1
  10
59.238304
  20
120.11121
  42
-0.0492421
  0
VERTEX
  5
e4
  8
Layer_1
  10
59.355011
  20
120.26953
  0
SEQEND
  0
POLYLINE
  5
e6
  8
Layer_1
  62
3
  66
1
  10
0
  20
0
  30
0
  0
VERTEX
  5
e6
  8
Layer_1
  10
61.935867
  20
120.37506
  0
VERTEX
  5
e7
  8
Layer_1
  10
61.935867
  20
120.94543
  0
VERTEX
  5
e8
  8
Layer_1
  10
60.81543
  20
120.94543
  0
VERTEX
  5
e9
  8
Layer_1
  10
60.81543
  20
120.37506
  0
VERTEX
  5
ea
  8
Layer_1
  10
61.935867
  20
120.37506
  0
SEQEND
  0
POLYLINE
  5
ec
  8
Layer_1
  62
3
  66
1
  10
0
  20
0
  30
0
  0
VERTEX
  5
ec
  8
Layer_1
  10
62.79953
  20
120.8399
  42
0.084476221
  0
VERTEX
  5
ed
  8
Layer_1
  10
62.5448
  20
119.58142
  0
VERTEX
  5
ee
  8
Layer_1
  10
63.094864
  20
119.58142
  42
-0.064649585
  0
VERTEX
  5
ef
  8
Layer_1
  10
63.223755
  20
120.47556
  42
-0.064280042
  0
VERTEX
  5
f0
  8
Layer_1
  10
63.60434
  20
121.42041
  42
-0.068697157
  0
VERTEX
  5
f1
  8
Layer_1
  10
64.095543
  20
122.10242
  0
VERTEX
  5
f2
  8
Layer_1
  10
64.095543
  20
122.51648
  0
VERTEX
  5
f3
  8
Layer_1
  10
62.144936
  20
122.51648
  0
VERTEX
  5
f4
  8
Layer_1
  10
62.144936
  20
121.98672
  0
VERTEX
  5
f5
  8
Layer_1
  10
63.441956
  20
121.98672
  42
0.078798216
  0
VERTEX
  5
f6
  8
Layer_1
  10
62.79953
  20
120.8399
  0
SEQEND
  0
ENDSEC
  0
EOF
