  0
SECTION
  2
HEADER
  9
$ACADVER
  1
AC1009
  0
ENDSEC
  0
SECTION
  2
ENTITIES
  0
CIRCLE
  5
90
  8
Layer_0
  62
1
  10
114.28961
  20
149.48586
  30
0
  40
29.75
  0
CIRCLE
  5
90
  8
Layer_0
  62
1
  10
74.289612
  20
194.48586
  30
0
  40
1.5
  0
CIRCLE
  5
90
  8
Layer_0
  62
1
  10
274.28961
  20
194.48586
  30
0
  40
1.5
  0
CIRCLE
  5
90
  8
Layer_0
  62
1
  10
74.289612
  20
104.48584
  30
0
  40
1.5
  0
CIRCLE
  5
90
  8
Layer_0
  62
1
  10
274.28961
  20
104.48584
  30
0
  40
1.5
  0
CIRCLE
  5
90
  8
Layer_0
  62
1
  10
114.28961
  20
186.48586
  30
0
  40
1.5
  0
CIRCLE
  5
90
  8
Layer_0
  62
1
  10
77.289612
  20
149.48586
  30
0
  40
1.5
  0
CIRCLE
  5
90
  8
Layer_0
  62
1
  10
114.28961
  20
112.48584
  30
0
  40
1.5
  0
CIRCLE
  5
90
  8
Layer_0
  62
1
  10
151.28961
  20
149.48586
  30
0
  40
1.5
  0
CIRCLE
  5
90
  8
Layer_0
  62
1
  10
259.28961
  20
119.48584
  30
0
  40
10
  0
POLYLINE
  5
90
  8
Layer_0
  62
1
  66
1
  10
0
  20
0
  30
0
  0
VERTEX
  5
90
  8
Layer_0
  10
106.78961
  20
199.48586
  0
VERTEX
  5
91
  8
Layer_0
  10
106.78961
  20
205.48586
  0
VERTEX
  5
92
  8
Layer_0
  10
136.78961
  20
205.48586
  0
VERTEX
  5
93
  8
Layer_0
  10
136.78961
  20
199.48586
  0
VERTEX
  5
94
  8
Layer_0
  10
211.78961
  20
199.48586
  0
VERTEX
  5
95
  8
Layer_0
  10
211.78961
  20
205.48586
  0
VERTEX
  5
96
  8
Layer_0
  10
241.78961
  20
205.48586
  0
VERTEX
  5
97
  8
Layer_0
  10
241.78961
  20
199.48586
  0
VERTEX
  5
98
  8
Layer_0
  10
279.28961
  20
199.48586
  0
VERTEX
  5
99
  8
Layer_0
  10
279.28961
  20
164.48586
  0
VERTEX
  5
9a
  8
Layer_0
  10
285.28961
  20
164.48586
  0
VERTEX
  5
9b
  8
Layer_0
  10
285.28961
  20
134.48584
  0
VERTEX
  5
9c
  8
Layer_0
  10
279.28961
  20
134.48584
  0
VERTEX
  5
9d
  8
Layer_0
  10
279.28961
  20
99.48584
  0
VERTEX
  5
9e
  8
Layer_0
  10
241.78961
  20
99.48584
  0
VERTEX
  5
9f
  8
Layer_0
  10
241.78961
  20
93.48584
  0
VERTEX
  5
a0
  8
Layer_0
  10
211.78961
  20
93.48584
  0
VERTEX
  5
a1
  8
Layer_0
  10
211.78961
  20
99.48584
  0
VERTEX
  5
a2
  8
Layer_0
  10
136.78961
  20
99.48584
  0
VERTEX
  5
a3
  8
Layer_0
  10
136.78961
  20
93.48584
  0
VERTEX
  5
a4
  8
Layer_0
  10
106.78961
  20
93.48584
  0
VERTEX
  5
a5
  8
Layer_0
  10
106.78961
  20
99.48584
  0
VERTEX
  5
a6
  8
Layer_0
  10
69.289612
  20
99.48584
  0
VERTEX
  5
a7
  8
Layer_0
  10
69.289612
  20
134.48584
  0
VERTEX
  5
a8
  8
Layer_0
  10
63.289612
  20
134.48584
  0
VERTEX
  5
a9
  8
Layer_0
  10
63.289612
  20
164.48586
  0
VERTEX
  5
aa
  8
Layer_0
  10
69.289612
  20
164.48586
  0
VERTEX
  5
ab
  8
Layer_0
  10
69.289612
  20
199.48586
  0
VERTEX
  5
ac
  8
Layer_0
  10
106.78961
  20
199.48586
  0
SEQEND
  0
POLYLINE
  5
ae
  8
Layer_0
  62
1
  66
1
  10
0
  20
0
  30
0
  0
VERTEX
  5
ae
  8
Layer_0
  10
214.28961
  20
149.48586
  0
VERTEX
  5
af
  8
Layer_0
  10
214.28952
  20
149.48586
  0
SEQEND
  0
POLYLINE
  5
b1
  8
Layer_0
  62
1
  66
1
  10
0
  20
0
  30
0
  0
VERTEX
  5
b1
  8
Layer_0
  10
231.18961
  20
164.43585
  0
VERTEX
  5
b2
  8
Layer_0
  10
234.28961
  20
164.43585
  0
VERTEX
  5
b3
  8
Layer_0
  10
234.28961
  20
134.53586
  0
VERTEX
  5
b4
  8
Layer_0
  10
231.18961
  20
134.53586
  0
VERTEX
  5
b5
  8
Layer_0
  10
231.18961
  20
164.43585
  0
SEQEND
  0
POLYLINE
  5
b7
  8
Layer_1
  62
3
  66
1
  10
0
  20
0
  30
0
  0
VERTEX
  5
b7
  8
Layer_1
  10
238.18625
  20
109.70715
  42
0.067143213
  0
VERTEX
  5
b8
  8
Layer_1
  10
238.06274
  20
109.81296
  42
0.14479573
  0
VERTEX
  5
b9
  8
Layer_1
  10
237.65836
  20
109.92047
  0
VERTEX
  5
ba
  8
Layer_1
  10
237.63773
  20
109.92035
  42
0.13883688
  0
VERTEX
  5
bb
  8
Layer_1
  10
237.22821
  20
109.80774
  0
VERTEX
  5
bc
  8
Layer_1
  10
237.21332
  20
109.7981
  42
0.16708739
  0
VERTEX
  5
bd
  8
Layer_1
  10
236.97815
  20
109.49823
  0
VERTEX
  5
be
  8
Layer_1
  10
236.97253
  20
109.48151
  42
0.070035767
  0
VERTEX
  5
bf
  8
Layer_1
  10
236.90775
  20
108.87262
  0
VERTEX
  5
c0
  8
Layer_1
  10
236.89563
  20
105.42789
  0
VERTEX
  5
c1
  8
Layer_1
  10
236.23396
  20
105.43024
  0
VERTEX
  5
c2
  8
Layer_1
  10
236.24594
  20
108.83743
  0
VERTEX
  5
c3
  8
Layer_1
  10
236.2464
  20
108.88922
  42
-0.098311549
  0
VERTEX
  5
c4
  8
Layer_1
  10
236.40114
  20
109.80893
  0
VERTEX
  5
c5
  8
Layer_1
  10
236.41418
  20
109.83731
  42
-0.16208264
  0
VERTEX
  5
c6
  8
Layer_1
  10
236.88388
  20
110.33246
  0
VERTEX
  5
c7
  8
Layer_1
  10
236.91156
  20
110.34711
  42
-0.12092244
  0
VERTEX
  5
c8
  8
Layer_1
  10
237.65701
  20
110.51053
  0
VERTEX
  5
c9
  8
Layer_1
  10
237.71133
  20
110.50967
  42
-0.20893514
  0
VERTEX
  5
ca
  8
Layer_1
  10
238.66353
  20
110.12839
  42
-0.19425392
  0
VERTEX
  5
cb
  8
Layer_1
  10
238.99551
  20
109.00171
  0
VERTEX
  5
cc
  8
Layer_1
  10
238.39838
  20
108.92197
  42
0.16243962
  0
VERTEX
  5
cd
  8
Layer_1
  10
238.18625
  20
109.70715
  0
SEQEND
  0
POLYLINE
  5
cf
  8
Layer_1
  62
3
  66
1
  10
0
  20
0
  30
0
  0
VERTEX
  5
cf
  8
Layer_1
  10
234.38269
  20
109.51416
  42
-0.025367983
  0
VERTEX
  5
d0
  8
Layer_1
  10
233.67107
  20
108.88742
  42
0.02758838
  0
VERTEX
  5
d1
  8
Layer_1
  10
232.7718
  20
108.0657
  0
VERTEX
  5
d2
  8
Layer_1
  10
232.72153
  20
108.0108
  42
0.075908287
  0
VERTEX
  5
d3
  8
Layer_1
  10
232.32242
  20
107.4259
  0
VERTEX
  5
d4
  8
Layer_1
  10
232.31181
  20
107.40173
  42
0.096713856
  0
VERTEX
  5
d5
  8
Layer_1
  10
232.18726
  20
106.83713
  0
VERTEX
  5
d6
  8
Layer_1
  10
232.18695
  20
106.81213
  42
0.20439618
  0
VERTEX
  5
d7
  8
Layer_1
  10
232.56888
  20
105.85529
  0
VERTEX
  5
d8
  8
Layer_1
  10
232.603
  20
105.82156
  42
0.027828576
  0
VERTEX
  5
d9
  8
Layer_1
  10
232.71222
  20
105.72766
  42
0.1674519
  0
VERTEX
  5
da
  8
Layer_1
  10
233.74074
  20
105.41852
  42
0.18502363
  0
VERTEX
  5
db
  8
Layer_1
  10
234.87778
  20
105.78458
  42
0.19682103
  0
VERTEX
  5
dc
  8
Layer_1
  10
235.36926
  20
106.85892
  0
VERTEX
  5
dd
  8
Layer_1
  10
234.73853
  20
106.92593
  42
-0.20190765
  0
VERTEX
  5
de
  8
Layer_1
  10
234.46651
  20
106.19019
  42
-0.20517169
  0
VERTEX
  5
df
  8
Layer_1
  10
233.75616
  20
105.92667
  42
-0.18949907
  0
VERTEX
  5
e0
  8
Layer_1
  10
233.09857
  20
106.15918
  0
VERTEX
  5
e1
  8
Layer_1
  10
233.07663
  20
106.17972
  42
-0.2033752
  0
VERTEX
  5
e2
  8
Layer_1
  10
232.81822
  20
106.76605
  0
VERTEX
  5
e3
  8
Layer_1
  10
232.81787
  20
106.79626
  42
-0.15583092
  0
VERTEX
  5
e4
  8
Layer_1
  10
233.08347
  20
107.50128
  0
VERTEX
  5
e5
  8
Layer_1
  10
233.10696
  20
107.53366
  42
-0.055855161
  0
VERTEX
  5
e6
  8
Layer_1
  10
234.14511
  20
108.53378
  0
VERTEX
  5
e7
  8
Layer_1
  10
234.21231
  20
108.58878
  42
0.043599753
  0
VERTEX
  5
e8
  8
Layer_1
  10
235.01817
  20
109.34311
  42
0.086806332
  0
VERTEX
  5
e9
  8
Layer_1
  10
235.42468
  20
110.00677
  42
0.10021002
  0
VERTEX
  5
ea
  8
Layer_1
  10
235.4978
  20
110.43283
  0
VERTEX
  5
eb
  8
Layer_1
  10
232.1929
  20
110.44446
  0
VERTEX
  5
ec
  8
Layer_1
  10
232.19083
  20
109.85443
  0
VERTEX
  5
ed
  8
Layer_1
  10
234.64307
  20
109.84579
  42
-0.052513618
  0
VERTEX
  5
ee
  8
Layer_1
  10
234.38269
  20
109.51416
  0
SEQEND
  0
POLYLINE
  5
f0
  8
Layer_1
  62
3
  66
1
  10
0
  20
0
  30
0
  0
VERTEX
  5
f0
  8
Layer_1
  10
229.70935
  20
108.33517
  0
VERTEX
  5
f1
  8
Layer_1
  10
229.71152
  20
108.95248
  0
VERTEX
  5
f2
  8
Layer_1
  10
231.5976
  20
108.94586
  0
VERTEX
  5
f3
  8
Layer_1
  10
231.59543
  20
108.32855
  0
VERTEX
  5
f4
  8
Layer_1
  10
229.70935
  20
108.33517
  0
SEQEND
  0
POLYLINE
  5
f6
  8
Layer_1
  62
3
  66
1
  10
0
  20
0
  30
0
  0
VERTEX
  5
f6
  8
Layer_1
  10
226.33951
  20
107.33405
  42
0.14265686
  0
VERTEX
  5
f7
  8
Layer_1
  10
226.16389
  20
106.77151
  0
VERTEX
  5
f8
  8
Layer_1
  10
226.16348
  20
106.74463
  42
0.13300979
  0
VERTEX
  5
f9
  8
Layer_1
  10
226.32889
  20
106.12479
  0
VERTEX
  5
fa
  8
Layer_1
  10
226.34369
  20
106.09937
  42
0.085281503
  0
VERTEX
  5
fb
  8
Layer_1
  10
226.61061
  20
105.78781
  42
0.054664748
  0
VERTEX
  5
fc
  8
Layer_1
  10
226.86896
  20
105.61832
  42
0.11983379
  0
VERTEX
  5
fd
  8
Layer_1
  10
227.62209
  20
105.44003
  42
0.18271934
  0
VERTEX
  5
fe
  8
Layer_1
  10
228.61577
  20
105.77591
  42
0.17677379
  0
VERTEX
  5
ff
  8
Layer_1
  10
229.13072
  20
106.73077
  0
VERTEX
  5
100
  8
Layer_1
  10
228.51718
  20
106.84207
  42
-0.16812526
  0
VERTEX
  5
101
  8
Layer_1
  10
228.20786
  20
106.16785
  42
-0.19744043
  0
VERTEX
  5
102
  8
Layer_1
  10
227.61021
  20
105.94485
  42
-0.19109754
  0
VERTEX
  5
103
  8
Layer_1
  10
227.04016
  20
106.15045
  0
VERTEX
  5
104
  8
Layer_1
  10
227.02095
  20
106.16861
  42
-0.20224444
  0
VERTEX
  5
105
  8
Layer_1
  10
226.79471
  20
106.70081
  0
VERTEX
  5
106
  8
Layer_1
  10
226.7944
  20
106.72876
  42
-0.2547144
  0
VERTEX
  5
107
  8
Layer_1
  10
227.08475
  20
107.34128
  0
VERTEX
  5
108
  8
Layer_1
  10
227.11041
  20
107.35861
  42
-0.14233026
  0
VERTEX
  5
109
  8
Layer_1
  10
227.78458
  20
107.56055
  0
VERTEX
  5
10a
  8
Layer_1
  10
227.81712
  20
107.56079
  42
-0.020620026
  0
VERTEX
  5
10b
  8
Layer_1
  10
227.869
  20
107.55829
  42
-0.0028808275
  0
VERTEX
  5
10c
  8
Layer_1
  10
227.88681
  20
107.5567
  0
VERTEX
  5
10d
  8
Layer_1
  10
227.89621
  20
107.55576
  0
VERTEX
  5
10e
  8
Layer_1
  10
227.90594
  20
107.55472
  0
VERTEX
  5
10f
  8
Layer_1
  10
227.916
  20
107.55362
  0
VERTEX
  5
110
  8
Layer_1
  10
227.98611
  20
108.09225
  42
-0.062185819
  0
VERTEX
  5
111
  8
Layer_1
  10
227.55272
  20
108.02554
  42
-0.1954774
  0
VERTEX
  5
112
  8
Layer_1
  10
226.8743
  20
108.28009
  0
VERTEX
  5
113
  8
Layer_1
  10
226.8511
  20
108.30258
  42
-0.19916668
  0
VERTEX
  5
114
  8
Layer_1
  10
226.57765
  20
108.96603
  0
VERTEX
  5
115
  8
Layer_1
  10
226.57729
  20
109.00104
  42
-0.19628066
  0
VERTEX
  5
116
  8
Layer_1
  10
226.8539
  20
109.71832
  0
VERTEX
  5
117
  8
Layer_1
  10
226.87833
  20
109.7435
  42
-0.19858634
  0
VERTEX
  5
118
  8
Layer_1
  10
227.5751
  20
110.04065
  0
VERTEX
  5
119
  8
Layer_1
  10
227.61096
  20
110.04105
  42
-0.16607035
  0
VERTEX
  5
11a
  8
Layer_1
  10
228.16412
  20
109.86285
  42
-0.021687522
  0
VERTEX
  5
11b
  8
Layer_1
  10
228.22919
  20
109.80865
  42
-0.15732901
  0
VERTEX
  5
11c
  8
Layer_1
  10
228.58636
  20
109.05536
  0
VERTEX
  5
11d
  8
Layer_1
  10
229.20056
  20
109.13504
  42
0.19276391
  0
VERTEX
  5
11e
  8
Layer_1
  10
228.70789
  20
110.15317
  42
0.18417602
  0
VERTEX
  5
11f
  8
Layer_1
  10
227.67062
  20
110.54834
  0
VERTEX
  5
120
  8
Layer_1
  10
227.61617
  20
110.54922
  42
0.18959488
  0
VERTEX
  5
121
  8
Layer_1
  10
226.44757
  20
110.13516
  0
VERTEX
  5
122
  8
Layer_1
  10
226.4072
  20
110.09814
  42
0.20418661
  0
VERTEX
  5
123
  8
Layer_1
  10
225.92683
  20
109.04388
  0
VERTEX
  5
124
  8
Layer_1
  10
225.92581
  20
108.98969
  42
0.15859173
  0
VERTEX
  5
125
  8
Layer_1
  10
226.14861
  20
108.20941
  0
VERTEX
  5
126
  8
Layer_1
  10
226.16855
  20
108.18219
  42
0.06191515
  0
VERTEX
  5
127
  8
Layer_1
  10
226.35356
  20
107.99112
  42
0.11342227
  0
VERTEX
  5
128
  8
Layer_1
  10
226.85599
  20
107.75516
  42
0.13560973
  0
VERTEX
  5
129
  8
Layer_1
  10
226.35437
  20
107.35596
  0
VERTEX
  5
12a
  8
Layer_1
  10
226.33951
  20
107.33405
  0
SEQEND
  0
ENDSEC
  0
EOF
