  0
SECTION
  2
HEADER
  9
$ACADVER
  1
AC1009
  0
ENDSEC
  0
SECTION
  2
ENTITIES
  0
CIRCLE
  5
90
  8
Layer_0
  62
1
  10
108.39737
  20
195.90749
  30
0
  40
1.5
  0
CIRCLE
  5
90
  8
Layer_0
  62
1
  10
188.39737
  20
195.90749
  30
0
  40
1.5
  0
CIRCLE
  5
90
  8
Layer_0
  62
1
  10
108.39737
  20
105.90747
  30
0
  40
1.5
  0
CIRCLE
  5
90
  8
Layer_0
  62
1
  10
188.39737
  20
105.90747
  30
0
  40
1.5
  0
CIRCLE
  5
90
  8
Layer_0
  62
1
  10
227.39737
  20
195.90749
  30
0
  40
1.5
  0
CIRCLE
  5
90
  8
Layer_0
  62
1
  10
227.39737
  20
105.90747
  30
0
  40
1.5
  0
POLYLINE
  5
90
  8
Layer_0
  62
1
  66
1
  10
0
  20
0
  30
0
  0
VERTEX
  5
90
  8
Layer_0
  10
97.397369
  20
200.90749
  0
VERTEX
  5
91
  8
Layer_0
  10
97.397369
  20
165.85748
  0
VERTEX
  5
92
  8
Layer_0
  10
103.39737
  20
165.85748
  0
VERTEX
  5
93
  8
Layer_0
  10
103.39737
  20
135.95749
  0
VERTEX
  5
94
  8
Layer_0
  10
97.397369
  20
135.95749
  0
VERTEX
  5
95
  8
Layer_0
  10
97.397369
  20
100.90747
  0
VERTEX
  5
96
  8
Layer_0
  10
133.39737
  20
100.90747
  0
VERTEX
  5
97
  8
Layer_0
  10
133.39737
  20
94.907471
  0
VERTEX
  5
98
  8
Layer_0
  10
163.39737
  20
94.907471
  0
VERTEX
  5
99
  8
Layer_0
  10
163.39737
  20
100.90747
  0
VERTEX
  5
9a
  8
Layer_0
  10
199.39737
  20
100.90747
  0
VERTEX
  5
9b
  8
Layer_0
  10
212.39737
  20
100.90747
  0
VERTEX
  5
9c
  8
Layer_0
  10
212.39737
  20
94.907471
  0
VERTEX
  5
9d
  8
Layer_0
  10
222.39737
  20
94.907471
  0
VERTEX
  5
9e
  8
Layer_0
  10
222.39737
  20
100.90747
  0
VERTEX
  5
9f
  8
Layer_0
  10
235.39737
  20
100.90747
  0
VERTEX
  5
a0
  8
Layer_0
  10
235.39737
  20
135.95749
  0
VERTEX
  5
a1
  8
Layer_0
  10
232.39737
  20
135.95749
  0
VERTEX
  5
a2
  8
Layer_0
  10
232.39737
  20
165.85748
  0
VERTEX
  5
a3
  8
Layer_0
  10
235.39737
  20
165.85748
  0
VERTEX
  5
a4
  8
Layer_0
  10
235.39737
  20
200.90749
  0
VERTEX
  5
a5
  8
Layer_0
  10
222.39737
  20
200.90749
  0
VERTEX
  5
a6
  8
Layer_0
  10
222.39737
  20
206.90749
  0
VERTEX
  5
a7
  8
Layer_0
  10
212.39737
  20
206.90749
  0
VERTEX
  5
a8
  8
Layer_0
  10
212.39737
  20
200.90749
  0
VERTEX
  5
a9
  8
Layer_0
  10
199.39737
  20
200.90749
  0
VERTEX
  5
aa
  8
Layer_0
  10
163.39737
  20
200.90749
  0
VERTEX
  5
ab
  8
Layer_0
  10
163.39737
  20
206.90749
  0
VERTEX
  5
ac
  8
Layer_0
  10
133.39737
  20
206.90749
  0
VERTEX
  5
ad
  8
Layer_0
  10
133.39737
  20
200.90749
  0
VERTEX
  5
ae
  8
Layer_0
  10
97.397369
  20
200.90749
  0
SEQEND
  0
POLYLINE
  5
b0
  8
Layer_0
  62
1
  66
1
  10
0
  20
0
  30
0
  0
VERTEX
  5
b0
  8
Layer_0
  10
199.39737
  20
135.95749
  0
VERTEX
  5
b1
  8
Layer_0
  10
193.29736
  20
135.95749
  0
VERTEX
  5
b2
  8
Layer_0
  10
193.29736
  20
165.85748
  0
VERTEX
  5
b3
  8
Layer_0
  10
199.39737
  20
165.85748
  0
VERTEX
  5
b4
  8
Layer_0
  10
199.39737
  20
135.95749
  0
SEQEND
  0
POLYLINE
  5
b6
  8
Layer_1
  62
3
  66
1
  10
0
  20
0
  30
0
  0
VERTEX
  5
b6
  8
Layer_1
  10
116.69608
  20
116.63135
  42
0.21987713
  0
VERTEX
  5
b7
  8
Layer_1
  10
117.01328
  20
116.50446
  42
0.10314407
  0
VERTEX
  5
b8
  8
Layer_1
  10
117.21433
  20
116.54303
  42
0.041132753
  0
VERTEX
  5
b9
  8
Layer_1
  10
117.27112
  20
116.573
  0
VERTEX
  5
ba
  8
Layer_1
  10
117.28873
  20
116.58478
  42
0.15997256
  0
VERTEX
  5
bb
  8
Layer_1
  10
117.4205
  20
116.75922
  0
VERTEX
  5
bc
  8
Layer_1
  10
117.42384
  20
116.76929
  42
0.070221018
  0
VERTEX
  5
bd
  8
Layer_1
  10
117.46143
  20
117.13474
  0
VERTEX
  5
be
  8
Layer_1
  10
117.46143
  20
119.2016
  0
VERTEX
  5
bf
  8
Layer_1
  10
117.85843
  20
119.2016
  0
VERTEX
  5
c0
  8
Layer_1
  10
117.85843
  20
117.15726
  0
VERTEX
  5
c1
  8
Layer_1
  10
117.85827
  20
117.12616
  42
-0.098263425
  0
VERTEX
  5
c2
  8
Layer_1
  10
117.76736
  20
116.57404
  0
VERTEX
  5
c3
  8
Layer_1
  10
117.75959
  20
116.55698
  42
-0.16251513
  0
VERTEX
  5
c4
  8
Layer_1
  10
117.47883
  20
116.25888
  0
VERTEX
  5
c5
  8
Layer_1
  10
117.46225
  20
116.25003
  42
-0.12114351
  0
VERTEX
  5
c6
  8
Layer_1
  10
117.01532
  20
116.15042
  42
-0.21510919
  0
VERTEX
  5
c7
  8
Layer_1
  10
116.41061
  20
116.37756
  42
-0.1943643
  0
VERTEX
  5
c8
  8
Layer_1
  10
116.20905
  20
117.05289
  0
VERTEX
  5
c9
  8
Layer_1
  10
116.56716
  20
117.10199
  42
0.16243247
  0
VERTEX
  5
ca
  8
Layer_1
  10
116.69608
  20
116.63135
  0
SEQEND
  0
POLYLINE
  5
cc
  8
Layer_1
  62
3
  66
1
  10
0
  20
0
  30
0
  0
VERTEX
  5
cc
  8
Layer_1
  10
118.97781
  20
116.75513
  42
-0.023548526
  0
VERTEX
  5
cd
  8
Layer_1
  10
119.40345
  20
117.13269
  42
0.029949588
  0
VERTEX
  5
ce
  8
Layer_1
  10
119.95669
  20
117.64438
  0
VERTEX
  5
cf
  8
Layer_1
  10
119.97132
  20
117.66068
  42
0.071500707
  0
VERTEX
  5
d0
  8
Layer_1
  10
120.20291
  20
117.99786
  0
VERTEX
  5
d1
  8
Layer_1
  10
120.21587
  20
118.02698
  42
0.092240544
  0
VERTEX
  5
d2
  8
Layer_1
  10
120.28902
  20
118.35101
  0
VERTEX
  5
d3
  8
Layer_1
  10
120.28954
  20
118.38098
  42
0.20424959
  0
VERTEX
  5
d4
  8
Layer_1
  10
120.05836
  20
118.95428
  0
VERTEX
  5
d5
  8
Layer_1
  10
120.03783
  20
118.97443
  42
0.19127264
  0
VERTEX
  5
d6
  8
Layer_1
  10
119.39001
  20
119.21344
  0
VERTEX
  5
d7
  8
Layer_1
  10
119.35434
  20
119.21387
  42
0.10270772
  0
VERTEX
  5
d8
  8
Layer_1
  10
118.88766
  20
119.12714
  42
0.077973451
  0
VERTEX
  5
d9
  8
Layer_1
  10
118.67289
  20
118.99182
  42
0.19679108
  0
VERTEX
  5
da
  8
Layer_1
  10
118.38026
  20
118.34619
  0
VERTEX
  5
db
  8
Layer_1
  10
118.75884
  20
118.30731
  42
-0.20189667
  0
VERTEX
  5
dc
  8
Layer_1
  10
118.9205
  20
118.74933
  42
-0.19833483
  0
VERTEX
  5
dd
  8
Layer_1
  10
119.32417
  20
118.90869
  0
VERTEX
  5
de
  8
Layer_1
  10
119.34615
  20
118.90897
  42
-0.18987398
  0
VERTEX
  5
df
  8
Layer_1
  10
119.7412
  20
118.77081
  0
VERTEX
  5
e0
  8
Layer_1
  10
119.7544
  20
118.75854
  42
-0.20312596
  0
VERTEX
  5
e1
  8
Layer_1
  10
119.91068
  20
118.40729
  0
VERTEX
  5
e2
  8
Layer_1
  10
119.91096
  20
118.38916
  42
-0.15587259
  0
VERTEX
  5
e3
  8
Layer_1
  10
119.75308
  20
117.96561
  0
VERTEX
  5
e4
  8
Layer_1
  10
119.73906
  20
117.94614
  42
-0.055904865
  0
VERTEX
  5
e5
  8
Layer_1
  10
119.11828
  20
117.34387
  0
VERTEX
  5
e6
  8
Layer_1
  10
119.07808
  20
117.31073
  42
0.043629481
  0
VERTEX
  5
e7
  8
Layer_1
  10
118.59615
  20
116.85645
  42
0.086988395
  0
VERTEX
  5
e8
  8
Layer_1
  10
118.35365
  20
116.4574
  42
0.099727151
  0
VERTEX
  5
e9
  8
Layer_1
  10
118.31068
  20
116.2016
  0
VERTEX
  5
ea
  8
Layer_1
  10
120.29362
  20
116.2016
  0
VERTEX
  5
eb
  8
Layer_1
  10
120.29362
  20
116.5556
  0
VERTEX
  5
ec
  8
Layer_1
  10
118.82228
  20
116.5556
  42
-0.052249838
  0
VERTEX
  5
ed
  8
Layer_1
  10
118.97781
  20
116.75513
  0
SEQEND
  0
POLYLINE
  5
ef
  8
Layer_1
  62
3
  66
1
  10
0
  20
0
  30
0
  0
VERTEX
  5
ef
  8
Layer_1
  10
121.7793
  20
117.10199
  0
VERTEX
  5
f0
  8
Layer_1
  10
121.7793
  20
117.47241
  0
VERTEX
  5
f1
  8
Layer_1
  10
120.64765
  20
117.47241
  0
VERTEX
  5
f2
  8
Layer_1
  10
120.64765
  20
117.10199
  0
VERTEX
  5
f3
  8
Layer_1
  10
121.7793
  20
117.10199
  0
SEQEND
  0
POLYLINE
  5
f5
  8
Layer_1
  62
3
  66
1
  10
0
  20
0
  30
0
  0
VERTEX
  5
f5
  8
Layer_1
  10
123.63333
  20
116.2016
  0
VERTEX
  5
f6
  8
Layer_1
  10
123.63333
  20
116.91986
  0
VERTEX
  5
f7
  8
Layer_1
  10
124.03851
  20
116.91986
  0
VERTEX
  5
f8
  8
Layer_1
  10
124.03851
  20
117.25754
  0
VERTEX
  5
f9
  8
Layer_1
  10
123.63333
  20
117.25754
  0
VERTEX
  5
fa
  8
Layer_1
  10
123.63333
  20
119.2016
  0
VERTEX
  5
fb
  8
Layer_1
  10
123.33251
  20
119.2016
  0
VERTEX
  5
fc
  8
Layer_1
  10
121.96348
  20
117.25754
  0
VERTEX
  5
fd
  8
Layer_1
  10
121.96348
  20
116.91986
  0
VERTEX
  5
fe
  8
Layer_1
  10
123.26498
  20
116.91986
  0
VERTEX
  5
ff
  8
Layer_1
  10
123.26498
  20
116.2016
  0
VERTEX
  5
100
  8
Layer_1
  10
123.63333
  20
116.2016
  0
SEQEND
  0
POLYLINE
  5
102
  8
Layer_1
  62
3
  66
1
  10
0
  20
0
  30
0
  0
VERTEX
  5
102
  8
Layer_1
  10
122.32569
  20
117.25754
  0
VERTEX
  5
103
  8
Layer_1
  10
123.26498
  20
117.25754
  0
VERTEX
  5
104
  8
Layer_1
  10
123.26498
  20
118.6102
  0
VERTEX
  5
105
  8
Layer_1
  10
122.32569
  20
117.25754
  0
SEQEND
  0
ENDSEC
  0
EOF
