  0
SECTION
  2
HEADER
  9
$ACADVER
  1
AC1009
  0
ENDSEC
  0
SECTION
  2
ENTITIES
  0
CIRCLE
  5
90
  8
Layer_0
  62
1
  10
242
  20
245
  30
0
  40
1.5
  0
CIRCLE
  5
90
  8
Layer_0
  62
1
  10
322
  20
245
  30
0
  40
1.5
  0
CIRCLE
  5
90
  8
Layer_0
  62
1
  10
242
  20
155
  30
0
  40
1.5
  0
CIRCLE
  5
90
  8
Layer_0
  62
1
  10
322
  20
155
  30
0
  40
1.5
  0
CIRCLE
  5
90
  8
Layer_0
  62
1
  10
358
  20
245
  30
0
  40
1.5
  0
CIRCLE
  5
90
  8
Layer_0
  62
1
  10
358
  20
155
  30
0
  40
1.5
  0
CIRCLE
  5
90
  8
Layer_0
  62
1
  10
271
  20
170
  30
0
  40
10
  0
POLYLINE
  5
90
  8
Layer_0
  62
1
  66
1
  10
0
  20
0
  30
0
  0
VERTEX
  5
90
  8
Layer_0
  10
267
  20
250
  0
VERTEX
  5
91
  8
Layer_0
  10
267
  20
256
  0
VERTEX
  5
92
  8
Layer_0
  10
297
  20
256
  0
VERTEX
  5
93
  8
Layer_0
  10
297
  20
250
  0
VERTEX
  5
94
  8
Layer_0
  10
333
  20
250
  0
VERTEX
  5
95
  8
Layer_0
  10
343
  20
250
  0
VERTEX
  5
96
  8
Layer_0
  10
343
  20
256
  0
VERTEX
  5
97
  8
Layer_0
  10
353
  20
256
  0
VERTEX
  5
98
  8
Layer_0
  10
353
  20
250
  0
VERTEX
  5
99
  8
Layer_0
  10
369
  20
250
  0
VERTEX
  5
9a
  8
Layer_0
  10
369
  20
214.95
  0
VERTEX
  5
9b
  8
Layer_0
  10
363
  20
214.95
  0
VERTEX
  5
9c
  8
Layer_0
  10
363
  20
185.05
  0
VERTEX
  5
9d
  8
Layer_0
  10
369
  20
185.05
  0
VERTEX
  5
9e
  8
Layer_0
  10
369
  20
150
  0
VERTEX
  5
9f
  8
Layer_0
  10
353
  20
150
  0
VERTEX
  5
a0
  8
Layer_0
  10
353
  20
144
  0
VERTEX
  5
a1
  8
Layer_0
  10
343
  20
144
  0
VERTEX
  5
a2
  8
Layer_0
  10
343
  20
150
  0
VERTEX
  5
a3
  8
Layer_0
  10
333
  20
150
  0
VERTEX
  5
a4
  8
Layer_0
  10
297
  20
150
  0
VERTEX
  5
a5
  8
Layer_0
  10
297
  20
144
  0
VERTEX
  5
a6
  8
Layer_0
  10
267
  20
144
  0
VERTEX
  5
a7
  8
Layer_0
  10
267
  20
150
  0
VERTEX
  5
a8
  8
Layer_0
  10
231
  20
150
  0
VERTEX
  5
a9
  8
Layer_0
  10
231
  20
185.05
  0
VERTEX
  5
aa
  8
Layer_0
  10
237
  20
185.05
  0
VERTEX
  5
ab
  8
Layer_0
  10
237
  20
214.95
  0
VERTEX
  5
ac
  8
Layer_0
  10
231
  20
214.95
  0
VERTEX
  5
ad
  8
Layer_0
  10
231
  20
250
  0
VERTEX
  5
ae
  8
Layer_0
  10
267
  20
250
  0
SEQEND
  0
POLYLINE
  5
b0
  8
Layer_0
  62
1
  66
1
  10
0
  20
0
  30
0
  0
VERTEX
  5
b0
  8
Layer_0
  10
333
  20
185.05
  0
VERTEX
  5
b1
  8
Layer_0
  10
327
  20
185.05
  0
VERTEX
  5
b2
  8
Layer_0
  10
326.89999
  20
185.05
  0
VERTEX
  5
b3
  8
Layer_0
  10
326.89999
  20
214.95
  0
VERTEX
  5
b4
  8
Layer_0
  10
327
  20
214.95
  0
VERTEX
  5
b5
  8
Layer_0
  10
333
  20
214.95
  0
VERTEX
  5
b6
  8
Layer_0
  10
333.10001
  20
214.95
  0
VERTEX
  5
b7
  8
Layer_0
  10
333.10001
  20
185.05
  0
VERTEX
  5
b8
  8
Layer_0
  10
333
  20
185.05
  0
SEQEND
  0
POLYLINE
  5
ba
  8
Layer_0
  62
1
  66
1
  10
0
  20
0
  30
0
  0
VERTEX
  5
ba
  8
Layer_0
  10
369
  20
250
  0
VERTEX
  5
bb
  8
Layer_0
  10
353
  20
250
  0
SEQEND
  0
POLYLINE
  5
bd
  8
Layer_0
  62
1
  66
1
  10
0
  20
0
  30
0
  0
VERTEX
  5
bd
  8
Layer_0
  10
363
  20
214.95
  0
VERTEX
  5
be
  8
Layer_0
  10
363
  20
185.05
  0
SEQEND
  0
POLYLINE
  5
c0
  8
Layer_1
  62
3
  66
1
  10
0
  20
0
  30
0
  0
VERTEX
  5
c0
  8
Layer_1
  10
348.75833
  20
165.11897
  42
0.21979783
  0
VERTEX
  5
c1
  8
Layer_1
  10
349.28644
  20
164.90614
  42
0.14367992
  0
VERTEX
  5
c2
  8
Layer_1
  10
349.71646
  20
165.01929
  42
0.17419941
  0
VERTEX
  5
c3
  8
Layer_1
  10
349.96625
  20
165.32901
  42
0.07609342
  0
VERTEX
  5
c4
  8
Layer_1
  10
350.0361
  20
165.95468
  0
VERTEX
  5
c5
  8
Layer_1
  10
350.04504
  20
169.39941
  0
VERTEX
  5
c6
  8
Layer_1
  10
350.7067
  20
169.39769
  0
VERTEX
  5
c7
  8
Layer_1
  10
350.69785
  20
165.99048
  42
-0.099854432
  0
VERTEX
  5
c8
  8
Layer_1
  10
350.54355
  20
165.01884
  42
-0.16901944
  0
VERTEX
  5
c9
  8
Layer_1
  10
350.06128
  20
164.49484
  42
-0.12735728
  0
VERTEX
  5
ca
  8
Layer_1
  10
349.28833
  20
164.3161
  42
-0.21504831
  0
VERTEX
  5
cb
  8
Layer_1
  10
348.28146
  20
164.6973
  42
-0.041258712
  0
VERTEX
  5
cc
  8
Layer_1
  10
348.17538
  20
164.83398
  42
-0.15036597
  0
VERTEX
  5
cd
  8
Layer_1
  10
347.94843
  20
165.82367
  0
VERTEX
  5
ce
  8
Layer_1
  10
348.5455
  20
165.90398
  0
VERTEX
  5
cf
  8
Layer_1
  10
348.54767
  20
165.85684
  42
0.16158444
  0
VERTEX
  5
d0
  8
Layer_1
  10
348.75833
  20
165.11897
  0
SEQEND
  0
POLYLINE
  5
d2
  8
Layer_1
  62
3
  66
1
  10
0
  20
0
  30
0
  0
VERTEX
  5
d2
  8
Layer_1
  10
352.56174
  20
165.31544
  42
-0.024564477
  0
VERTEX
  5
d3
  8
Layer_1
  10
353.18323
  20
165.86786
  0
VERTEX
  5
d4
  8
Layer_1
  10
353.27277
  20
165.94287
  42
0.032488361
  0
VERTEX
  5
d5
  8
Layer_1
  10
354.2215
  20
166.82036
  42
0.080577821
  0
VERTEX
  5
d6
  8
Layer_1
  10
354.63065
  20
167.42979
  42
0.10136513
  0
VERTEX
  5
d7
  8
Layer_1
  10
354.75497
  20
168.01952
  42
0.20439422
  0
VERTEX
  5
d8
  8
Layer_1
  10
354.37216
  20
168.97601
  0
VERTEX
  5
d9
  8
Layer_1
  10
354.33804
  20
169.00969
  42
0.19120222
  0
VERTEX
  5
da
  8
Layer_1
  10
353.25937
  20
169.41084
  0
VERTEX
  5
db
  8
Layer_1
  10
353.19992
  20
169.41168
  42
0.17482579
  0
VERTEX
  5
dc
  8
Layer_1
  10
352.09903
  20
169.07469
  0
VERTEX
  5
dd
  8
Layer_1
  10
352.0632
  20
169.04459
  42
0.19111633
  0
VERTEX
  5
de
  8
Layer_1
  10
351.57889
  20
168.02803
  0
VERTEX
  5
df
  8
Layer_1
  10
351.57269
  20
167.96979
  0
VERTEX
  5
e0
  8
Layer_1
  10
352.20349
  20
167.90335
  42
-0.19098783
  0
VERTEX
  5
e1
  8
Layer_1
  10
352.45309
  20
168.61688
  0
VERTEX
  5
e2
  8
Layer_1
  10
352.47485
  20
168.63936
  42
-0.19841007
  0
VERTEX
  5
e3
  8
Layer_1
  10
353.14832
  20
168.90317
  0
VERTEX
  5
e4
  8
Layer_1
  10
353.18497
  20
168.90353
  42
-0.18958774
  0
VERTEX
  5
e5
  8
Layer_1
  10
353.84277
  20
168.6716
  0
VERTEX
  5
e6
  8
Layer_1
  10
353.86472
  20
168.65109
  42
-0.031472793
  0
VERTEX
  5
e7
  8
Layer_1
  10
353.94421
  20
168.56415
  42
-0.17587138
  0
VERTEX
  5
e8
  8
Layer_1
  10
354.12405
  20
168.03479
  42
-0.15965022
  0
VERTEX
  5
e9
  8
Layer_1
  10
353.83563
  20
167.29715
  42
-0.056079814
  0
VERTEX
  5
ea
  8
Layer_1
  10
352.73126
  20
166.241
  42
0.038034404
  0
VERTEX
  5
eb
  8
Layer_1
  10
351.97427
  20
165.54108
  0
VERTEX
  5
ec
  8
Layer_1
  10
351.92609
  20
165.48593
  42
0.08241798
  0
VERTEX
  5
ed
  8
Layer_1
  10
351.53104
  20
164.84999
  0
VERTEX
  5
ee
  8
Layer_1
  10
351.5202
  20
164.8219
  42
0.092190999
  0
VERTEX
  5
ef
  8
Layer_1
  10
351.44702
  20
164.43259
  0
VERTEX
  5
f0
  8
Layer_1
  10
351.44748
  20
164.39575
  0
VERTEX
  5
f1
  8
Layer_1
  10
354.75238
  20
164.38718
  0
VERTEX
  5
f2
  8
Layer_1
  10
354.75391
  20
164.97722
  0
VERTEX
  5
f3
  8
Layer_1
  10
352.30167
  20
164.98358
  42
-0.048755649
  0
VERTEX
  5
f4
  8
Layer_1
  10
352.53589
  20
165.28793
  0
VERTEX
  5
f5
  8
Layer_1
  10
352.56174
  20
165.31544
  0
SEQEND
  0
POLYLINE
  5
f7
  8
Layer_1
  62
3
  66
1
  10
0
  20
0
  30
0
  0
VERTEX
  5
f7
  8
Layer_1
  10
357.23398
  20
166.49875
  0
VERTEX
  5
f8
  8
Layer_1
  10
357.23239
  20
165.88144
  0
VERTEX
  5
f9
  8
Layer_1
  10
355.34631
  20
165.88632
  0
VERTEX
  5
fa
  8
Layer_1
  10
355.3479
  20
166.50365
  0
VERTEX
  5
fb
  8
Layer_1
  10
357.23398
  20
166.49875
  0
SEQEND
  0
POLYLINE
  5
fd
  8
Layer_1
  62
3
  66
1
  10
0
  20
0
  30
0
  0
VERTEX
  5
fd
  8
Layer_1
  10
358.87018
  20
167.45631
  0
VERTEX
  5
fe
  8
Layer_1
  10
358.89697
  20
167.4696
  42
-0.1152202
  0
VERTEX
  5
ff
  8
Layer_1
  10
359.54248
  20
167.61829
  0
VERTEX
  5
100
  8
Layer_1
  10
359.59332
  20
167.61737
  42
-0.2039295
  0
VERTEX
  5
101
  8
Layer_1
  10
360.58667
  20
167.16367
  42
-0.19882089
  0
VERTEX
  5
102
  8
Layer_1
  10
361.01508
  20
165.9944
  42
-0.1182593
  0
VERTEX
  5
103
  8
Layer_1
  10
360.80988
  20
165.1201
  42
-0.14354146
  0
VERTEX
  5
104
  8
Layer_1
  10
360.25064
  20
164.50252
  42
-0.13918455
  0
VERTEX
  5
105
  8
Layer_1
  10
359.44516
  20
164.28973
  42
-0.20884306
  0
VERTEX
  5
106
  8
Layer_1
  10
358.27737
  20
164.76707
  42
-0.016885593
  0
VERTEX
  5
107
  8
Layer_1
  10
358.19495
  20
164.85745
  0
VERTEX
  5
108
  8
Layer_1
  10
358.15555
  20
164.90585
  42
-0.15068766
  0
VERTEX
  5
109
  8
Layer_1
  10
357.7222
  20
166.4066
  42
-0.01242319
  0
VERTEX
  5
10a
  8
Layer_1
  10
357.71545
  20
166.71921
  0
VERTEX
  5
10b
  8
Layer_1
  10
357.71671
  20
166.83862
  42
-0.13179845
  0
VERTEX
  5
10c
  8
Layer_1
  10
358.13043
  20
168.64897
  42
-0.032429963
  0
VERTEX
  5
10d
  8
Layer_1
  10
358.25638
  20
168.82558
  0
VERTEX
  5
10e
  8
Layer_1
  10
358.29602
  20
168.87222
  42
-0.22515847
  0
VERTEX
  5
10f
  8
Layer_1
  10
359.51642
  20
169.39529
  0
VERTEX
  5
110
  8
Layer_1
  10
359.61325
  20
169.39275
  42
-0.17421264
  0
VERTEX
  5
111
  8
Layer_1
  10
360.48245
  20
169.06195
  42
-0.18729812
  0
VERTEX
  5
112
  8
Layer_1
  10
360.93201
  20
168.14673
  0
VERTEX
  5
113
  8
Layer_1
  10
360.32135
  20
168.10057
  42
0.12583121
  0
VERTEX
  5
114
  8
Layer_1
  10
360.09082
  20
168.6264
  0
VERTEX
  5
115
  8
Layer_1
  10
360.06992
  20
168.64789
  42
0.20497654
  0
VERTEX
  5
116
  8
Layer_1
  10
359.47757
  20
168.89063
  0
VERTEX
  5
117
  8
Layer_1
  10
359.45325
  20
168.8904
  42
0.1576732
  0
VERTEX
  5
118
  8
Layer_1
  10
358.96216
  20
168.72824
  0
VERTEX
  5
119
  8
Layer_1
  10
358.93814
  20
168.71036
  42
0.13232085
  0
VERTEX
  5
11a
  8
Layer_1
  10
358.50351
  20
168.11211
  0
VERTEX
  5
11b
  8
Layer_1
  10
358.47659
  20
168.04214
  42
0.078696504
  0
VERTEX
  5
11c
  8
Layer_1
  10
358.32657
  20
166.95636
  0
VERTEX
  5
11d
  8
Layer_1
  10
358.34531
  20
166.98415
  42
-0.12709171
  0
VERTEX
  5
11e
  8
Layer_1
  10
358.87018
  20
167.45631
  0
SEQEND
  0
POLYLINE
  5
120
  8
Layer_1
  62
3
  66
1
  10
0
  20
0
  30
0
  0
VERTEX
  5
120
  8
Layer_1
  10
359.43625
  20
164.79454
  42
0.22276856
  0
VERTEX
  5
121
  8
Layer_1
  10
360.10556
  20
165.10658
  42
0.18741077
  0
VERTEX
  5
122
  8
Layer_1
  10
360.38742
  20
165.95851
  42
0.19279264
  0
VERTEX
  5
123
  8
Layer_1
  10
360.11328
  20
166.77608
  0
VERTEX
  5
124
  8
Layer_1
  10
360.09009
  20
166.80048
  42
0.20800576
  0
VERTEX
  5
125
  8
Layer_1
  10
359.4183
  20
167.07631
  0
VERTEX
  5
126
  8
Layer_1
  10
359.38385
  20
167.07588
  42
0.20160474
  0
VERTEX
  5
127
  8
Layer_1
  10
358.71152
  20
166.77971
  0
VERTEX
  5
128
  8
Layer_1
  10
358.68781
  20
166.75458
  42
0.19100719
  0
VERTEX
  5
129
  8
Layer_1
  10
358.41959
  20
165.99773
  0
VERTEX
  5
12a
  8
Layer_1
  10
358.41974
  20
165.97134
  42
0.10573952
  0
VERTEX
  5
12b
  8
Layer_1
  10
358.55273
  20
165.39029
  0
VERTEX
  5
12c
  8
Layer_1
  10
358.56409
  20
165.36633
  42
0.14211975
  0
VERTEX
  5
12d
  8
Layer_1
  10
358.92847
  20
164.94763
  42
0.1434012
  0
VERTEX
  5
12e
  8
Layer_1
  10
359.43625
  20
164.79454
  0
SEQEND
  0
ENDSEC
  0
EOF
