  0
SECTION
  2
HEADER
  9
$ACADVER
  1
AC1009
  0
ENDSEC
  0
SECTION
  2
ENTITIES
  0
CIRCLE
  5
90
  8
Layer_0
  62
0
  10
134.96031
  20
254.53616
  30
0
  40
1.5
  0
CIRCLE
  5
90
  8
Layer_0
  62
0
  10
214.96031
  20
254.53616
  30
0
  40
1.5
  0
CIRCLE
  5
90
  8
Layer_0
  62
0
  10
134.96031
  20
164.53616
  30
0
  40
1.5
  0
CIRCLE
  5
90
  8
Layer_0
  62
0
  10
214.96031
  20
164.53616
  30
0
  40
1.5
  0
CIRCLE
  5
90
  8
Layer_0
  62
0
  10
250.96031
  20
254.53616
  30
0
  40
1.5
  0
CIRCLE
  5
90
  8
Layer_0
  62
0
  10
250.96031
  20
164.53616
  30
0
  40
1.5
  0
POLYLINE
  5
90
  8
Layer_0
  62
0
  66
1
  10
0
  20
0
  30
0
  0
VERTEX
  5
90
  8
Layer_0
  10
225.96031
  20
224.53616
  0
VERTEX
  5
91
  8
Layer_0
  10
225.96031
  20
194.61116
  0
SEQEND
  0
POLYLINE
  5
93
  8
Layer_0
  62
0
  66
1
  10
0
  20
0
  30
0
  0
VERTEX
  5
93
  8
Layer_0
  10
225.96031
  20
259.53616
  0
VERTEX
  5
94
  8
Layer_0
  10
235.96031
  20
259.53616
  0
VERTEX
  5
95
  8
Layer_0
  10
235.96031
  20
265.53616
  0
VERTEX
  5
96
  8
Layer_0
  10
245.96031
  20
265.53616
  0
VERTEX
  5
97
  8
Layer_0
  10
245.96031
  20
259.53616
  0
VERTEX
  5
98
  8
Layer_0
  10
261.96033
  20
259.53616
  0
VERTEX
  5
99
  8
Layer_0
  10
261.96033
  20
224.46117
  0
VERTEX
  5
9a
  8
Layer_0
  10
255.96031
  20
224.46117
  0
VERTEX
  5
9b
  8
Layer_0
  10
255.96031
  20
194.61116
  0
VERTEX
  5
9c
  8
Layer_0
  10
261.96033
  20
194.61116
  0
VERTEX
  5
9d
  8
Layer_0
  10
261.96033
  20
159.53616
  0
VERTEX
  5
9e
  8
Layer_0
  10
245.96031
  20
159.53616
  0
VERTEX
  5
9f
  8
Layer_0
  10
245.96031
  20
153.53616
  0
VERTEX
  5
a0
  8
Layer_0
  10
235.96031
  20
153.53616
  0
VERTEX
  5
a1
  8
Layer_0
  10
235.96031
  20
159.53616
  0
VERTEX
  5
a2
  8
Layer_0
  10
225.96031
  20
159.53616
  0
SEQEND
  0
POLYLINE
  5
a4
  8
Layer_0
  62
0
  66
1
  10
0
  20
0
  30
0
  0
VERTEX
  5
a4
  8
Layer_0
  10
151.12811
  20
174.83484
  42
-0.21969455
  0
VERTEX
  5
a5
  8
Layer_0
  10
151.65536
  20
175.04979
  42
-0.14381204
  0
VERTEX
  5
a6
  8
Layer_0
  10
152.08585
  20
174.93839
  42
-0.17401672
  0
VERTEX
  5
a7
  8
Layer_0
  10
152.33687
  20
174.62967
  42
-0.076034546
  0
VERTEX
  5
a8
  8
Layer_0
  10
152.40921
  20
174.00427
  0
VERTEX
  5
a9
  8
Layer_0
  10
152.43201
  20
170.5596
  0
VERTEX
  5
aa
  8
Layer_0
  10
153.09364
  20
170.56398
  0
VERTEX
  5
ab
  8
Layer_0
  10
153.07111
  20
173.97113
  42
0.09985666
  0
VERTEX
  5
ac
  8
Layer_0
  10
152.91292
  20
174.94214
  42
0.16895027
  0
VERTEX
  5
ad
  8
Layer_0
  10
152.42856
  20
175.46419
  42
0.12721756
  0
VERTEX
  5
ae
  8
Layer_0
  10
151.65486
  20
175.63983
  0
VERTEX
  5
af
  8
Layer_0
  10
151.60056
  20
175.63882
  42
0.2090611
  0
VERTEX
  5
b0
  8
Layer_0
  10
150.64954
  20
175.25461
  42
0.19429278
  0
VERTEX
  5
b1
  8
Layer_0
  10
150.32104
  20
174.12689
  0
VERTEX
  5
b2
  8
Layer_0
  10
150.91843
  20
174.04898
  42
-0.16245681
  0
VERTEX
  5
b3
  8
Layer_0
  10
151.12811
  20
174.83484
  0
SEQEND
  0
POLYLINE
  5
b5
  8
Layer_0
  62
0
  66
1
  10
0
  20
0
  30
0
  0
VERTEX
  5
b5
  8
Layer_0
  10
154.93225
  20
174.65366
  42
0.025399327
  0
VERTEX
  5
b6
  8
Layer_0
  10
155.64581
  20
174.02908
  42
-0.032489466
  0
VERTEX
  5
b7
  8
Layer_0
  10
156.59807
  20
173.15543
  42
-0.080518756
  0
VERTEX
  5
b8
  8
Layer_0
  10
157.00967
  20
172.54762
  42
-0.1013654
  0
VERTEX
  5
b9
  8
Layer_0
  10
157.13635
  20
171.9584
  42
-0.21354201
  0
VERTEX
  5
ba
  8
Layer_0
  10
156.72339
  20
170.96657
  42
-0.054392591
  0
VERTEX
  5
bb
  8
Layer_0
  10
156.49603
  20
170.79048
  42
-0.13790243
  0
VERTEX
  5
bc
  8
Layer_0
  10
155.58691
  20
170.56
  42
-0.1850454
  0
VERTEX
  5
bd
  8
Layer_0
  10
154.44873
  20
170.92255
  42
-0.19685934
  0
VERTEX
  5
be
  8
Layer_0
  10
153.95392
  20
171.99535
  0
VERTEX
  5
bf
  8
Layer_0
  10
154.58444
  20
172.06432
  42
0.20213847
  0
VERTEX
  5
c0
  8
Layer_0
  10
154.85875
  20
171.32942
  42
0.20520162
  0
VERTEX
  5
c1
  8
Layer_0
  10
155.5699
  20
171.06808
  42
0.19960421
  0
VERTEX
  5
c2
  8
Layer_0
  10
156.24866
  20
171.32326
  42
0.21213192
  0
VERTEX
  5
c3
  8
Layer_0
  10
156.50549
  20
171.9406
  42
0.15951475
  0
VERTEX
  5
c4
  8
Layer_0
  10
156.21411
  20
172.67709
  42
0.055843359
  0
VERTEX
  5
c5
  8
Layer_0
  10
155.17288
  20
173.67401
  0
VERTEX
  5
c6
  8
Layer_0
  10
155.1055
  20
173.72879
  42
-0.043602205
  0
VERTEX
  5
c7
  8
Layer_0
  10
154.2973
  20
174.48062
  42
-0.086877519
  0
VERTEX
  5
c8
  8
Layer_0
  10
153.88876
  20
175.14301
  42
-0.10015755
  0
VERTEX
  5
c9
  8
Layer_0
  10
153.81432
  20
175.56885
  0
VERTEX
  5
ca
  8
Layer_0
  10
157.11916
  20
175.59071
  0
VERTEX
  5
cb
  8
Layer_0
  10
157.12305
  20
175.00067
  0
VERTEX
  5
cc
  8
Layer_0
  10
154.67087
  20
174.98447
  42
0.052223509
  0
VERTEX
  5
cd
  8
Layer_0
  10
154.93225
  20
174.65366
  0
SEQEND
  0
POLYLINE
  5
cf
  8
Layer_0
  62
0
  66
1
  10
0
  20
0
  30
0
  0
VERTEX
  5
cf
  8
Layer_0
  10
159.60515
  20
174.10643
  0
VERTEX
  5
d0
  8
Layer_0
  10
157.7191
  20
174.09396
  0
VERTEX
  5
d1
  8
Layer_0
  10
157.72319
  20
173.47665
  0
VERTEX
  5
d2
  8
Layer_0
  10
159.60924
  20
173.48912
  0
VERTEX
  5
d3
  8
Layer_0
  10
159.60515
  20
174.10643
  0
SEQEND
  0
POLYLINE
  5
d5
  8
Layer_0
  62
0
  66
1
  10
0
  20
0
  30
0
  0
VERTEX
  5
d5
  8
Layer_0
  10
163.37213
  20
173.87213
  0
VERTEX
  5
d6
  8
Layer_0
  10
163.36841
  20
174.43488
  0
VERTEX
  5
d7
  8
Layer_0
  10
162.69312
  20
174.43042
  0
VERTEX
  5
d8
  8
Layer_0
  10
162.6852
  20
175.62752
  0
VERTEX
  5
d9
  8
Layer_0
  10
162.07129
  20
175.62346
  0
VERTEX
  5
da
  8
Layer_0
  10
162.07922
  20
174.42635
  0
VERTEX
  5
db
  8
Layer_0
  10
159.9101
  20
174.412
  0
VERTEX
  5
dc
  8
Layer_0
  10
159.91382
  20
173.84926
  0
VERTEX
  5
dd
  8
Layer_0
  10
162.21692
  20
170.62431
  0
VERTEX
  5
de
  8
Layer_0
  10
162.71826
  20
170.62762
  0
VERTEX
  5
df
  8
Layer_0
  10
162.69684
  20
173.86768
  0
VERTEX
  5
e0
  8
Layer_0
  10
163.37213
  20
173.87213
  0
SEQEND
  0
POLYLINE
  5
e2
  8
Layer_0
  62
0
  66
1
  10
0
  20
0
  30
0
  0
VERTEX
  5
e2
  8
Layer_0
  10
160.51749
  20
173.85326
  0
VERTEX
  5
e3
  8
Layer_0
  10
162.08293
  20
173.8636
  0
VERTEX
  5
e4
  8
Layer_0
  10
162.09784
  20
171.60922
  0
VERTEX
  5
e5
  8
Layer_0
  10
160.51749
  20
173.85326
  0
SEQEND
  0
POLYLINE
  5
e7
  8
Layer_0
  62
0
  66
1
  10
0
  20
0
  30
0
  0
VERTEX
  5
e7
  8
Layer_0
  10
159.96031
  20
259.53616
  0
VERTEX
  5
e8
  8
Layer_0
  10
159.96031
  20
265.53616
  0
SEQEND
  0
POLYLINE
  5
ea
  8
Layer_0
  62
0
  66
1
  10
0
  20
0
  30
0
  0
VERTEX
  5
ea
  8
Layer_0
  10
159.96031
  20
265.53616
  0
VERTEX
  5
eb
  8
Layer_0
  10
189.96031
  20
265.53616
  0
SEQEND
  0
POLYLINE
  5
ed
  8
Layer_0
  62
0
  66
1
  10
0
  20
0
  30
0
  0
VERTEX
  5
ed
  8
Layer_0
  10
189.96031
  20
265.53616
  0
VERTEX
  5
ee
  8
Layer_0
  10
189.96031
  20
259.53616
  0
SEQEND
  0
POLYLINE
  5
f0
  8
Layer_0
  62
0
  66
1
  10
0
  20
0
  30
0
  0
VERTEX
  5
f0
  8
Layer_0
  10
189.96031
  20
259.53616
  0
VERTEX
  5
f1
  8
Layer_0
  10
225.96031
  20
259.53616
  0
SEQEND
  0
POLYLINE
  5
f3
  8
Layer_0
  62
0
  66
1
  10
0
  20
0
  30
0
  0
VERTEX
  5
f3
  8
Layer_0
  10
225.96031
  20
224.46117
  0
VERTEX
  5
f4
  8
Layer_0
  10
219.96031
  20
224.46117
  0
SEQEND
  0
POLYLINE
  5
f6
  8
Layer_0
  62
0
  66
1
  10
0
  20
0
  30
0
  0
VERTEX
  5
f6
  8
Layer_0
  10
219.96031
  20
224.46117
  0
VERTEX
  5
f7
  8
Layer_0
  10
219.96031
  20
194.61116
  0
SEQEND
  0
POLYLINE
  5
f9
  8
Layer_0
  62
0
  66
1
  10
0
  20
0
  30
0
  0
VERTEX
  5
f9
  8
Layer_0
  10
219.96031
  20
194.61116
  0
VERTEX
  5
fa
  8
Layer_0
  10
225.96031
  20
194.61116
  0
SEQEND
  0
POLYLINE
  5
fc
  8
Layer_0
  62
0
  66
1
  10
0
  20
0
  30
0
  0
VERTEX
  5
fc
  8
Layer_0
  10
225.96031
  20
159.53616
  0
VERTEX
  5
fd
  8
Layer_0
  10
189.96031
  20
159.53616
  0
SEQEND
  0
POLYLINE
  5
ff
  8
Layer_0
  62
0
  66
1
  10
0
  20
0
  30
0
  0
VERTEX
  5
ff
  8
Layer_0
  10
189.96031
  20
159.53616
  0
VERTEX
  5
100
  8
Layer_0
  10
189.96031
  20
153.53616
  0
SEQEND
  0
POLYLINE
  5
102
  8
Layer_0
  62
0
  66
1
  10
0
  20
0
  30
0
  0
VERTEX
  5
102
  8
Layer_0
  10
189.96031
  20
153.53616
  0
VERTEX
  5
103
  8
Layer_0
  10
159.96031
  20
153.53616
  0
SEQEND
  0
POLYLINE
  5
105
  8
Layer_0
  62
0
  66
1
  10
0
  20
0
  30
0
  0
VERTEX
  5
105
  8
Layer_0
  10
159.96031
  20
153.53616
  0
VERTEX
  5
106
  8
Layer_0
  10
159.96031
  20
159.53616
  0
SEQEND
  0
POLYLINE
  5
108
  8
Layer_0
  62
0
  66
1
  10
0
  20
0
  30
0
  0
VERTEX
  5
108
  8
Layer_0
  10
159.96031
  20
159.53616
  0
VERTEX
  5
109
  8
Layer_0
  10
123.96031
  20
159.53616
  0
SEQEND
  0
POLYLINE
  5
10b
  8
Layer_0
  62
0
  66
1
  10
0
  20
0
  30
0
  0
VERTEX
  5
10b
  8
Layer_0
  10
123.96031
  20
159.53616
  0
VERTEX
  5
10c
  8
Layer_0
  10
123.96031
  20
194.61116
  0
SEQEND
  0
POLYLINE
  5
10e
  8
Layer_0
  62
0
  66
1
  10
0
  20
0
  30
0
  0
VERTEX
  5
10e
  8
Layer_0
  10
123.96031
  20
194.61116
  0
VERTEX
  5
10f
  8
Layer_0
  10
129.96031
  20
194.61116
  0
SEQEND
  0
POLYLINE
  5
111
  8
Layer_0
  62
0
  66
1
  10
0
  20
0
  30
0
  0
VERTEX
  5
111
  8
Layer_0
  10
129.96031
  20
194.61116
  0
VERTEX
  5
112
  8
Layer_0
  10
129.96031
  20
224.46117
  0
SEQEND
  0
POLYLINE
  5
114
  8
Layer_0
  62
0
  66
1
  10
0
  20
0
  30
0
  0
VERTEX
  5
114
  8
Layer_0
  10
129.96031
  20
224.46117
  0
VERTEX
  5
115
  8
Layer_0
  10
123.96031
  20
224.46117
  0
SEQEND
  0
POLYLINE
  5
117
  8
Layer_0
  62
0
  66
1
  10
0
  20
0
  30
0
  0
VERTEX
  5
117
  8
Layer_0
  10
123.96031
  20
224.46117
  0
VERTEX
  5
118
  8
Layer_0
  10
123.96031
  20
259.53616
  0
SEQEND
  0
POLYLINE
  5
11a
  8
Layer_0
  62
0
  66
1
  10
0
  20
0
  30
0
  0
VERTEX
  5
11a
  8
Layer_0
  10
123.96031
  20
259.53616
  0
VERTEX
  5
11b
  8
Layer_0
  10
159.96031
  20
259.53616
  0
SEQEND
  0
ENDSEC
  0
EOF
