  0
SECTION
  2
HEADER
  9
$ACADVER
  1
AC1009
  0
ENDSEC
  0
SECTION
  2
ENTITIES
  0
CIRCLE
  5
90
  8
Layer_0
  62
1
  10
144.39737
  20
250.90749
  30
0
  40
1.5
  0
CIRCLE
  5
90
  8
Layer_0
  62
1
  10
224.39737
  20
250.90749
  30
0
  40
1.5
  0
CIRCLE
  5
90
  8
Layer_0
  62
1
  10
224.39737
  20
50.907471
  30
0
  40
1.5
  0
CIRCLE
  5
90
  8
Layer_0
  62
1
  10
144.39737
  20
50.907471
  30
0
  40
1.5
  0
CIRCLE
  5
90
  8
Layer_0
  62
1
  10
201.39737
  20
135.90747
  30
0
  40
1.5
  0
CIRCLE
  5
90
  8
Layer_0
  62
1
  10
201.39737
  20
153.90749
  30
0
  40
1.5
  0
CIRCLE
  5
90
  8
Layer_0
  62
1
  10
186.39737
  20
165.90749
  30
0
  40
2.5
  0
CIRCLE
  5
90
  8
Layer_0
  62
1
  10
209.02478
  20
175.28008
  30
0
  40
2.5
  0
CIRCLE
  5
90
  8
Layer_0
  62
1
  10
218.39737
  20
197.90749
  30
0
  40
2.5
  0
CIRCLE
  5
90
  8
Layer_0
  62
1
  10
209.02478
  20
220.53491
  30
0
  40
2.5
  0
CIRCLE
  5
90
  8
Layer_0
  62
1
  10
186.39737
  20
229.90749
  30
0
  40
2.5
  0
CIRCLE
  5
90
  8
Layer_0
  62
1
  10
163.76996
  20
220.53491
  30
0
  40
2.5
  0
CIRCLE
  5
90
  8
Layer_0
  62
1
  10
154.39737
  20
197.90749
  30
0
  40
2.5
  0
CIRCLE
  5
90
  8
Layer_0
  62
1
  10
163.76996
  20
175.28008
  30
0
  40
2.5
  0
CIRCLE
  5
90
  8
Layer_0
  62
1
  10
105.39737
  20
50.907471
  30
0
  40
1.5
  0
CIRCLE
  5
90
  8
Layer_0
  62
1
  10
105.39737
  20
250.90749
  30
0
  40
1.5
  0
POLYLINE
  5
90
  8
Layer_0
  62
1
  66
1
  10
0
  20
0
  30
0
  0
VERTEX
  5
90
  8
Layer_0
  10
133.39737
  20
103.45749
  0
VERTEX
  5
91
  8
Layer_0
  10
139.49738
  20
103.45749
  0
VERTEX
  5
92
  8
Layer_0
  10
139.49738
  20
133.35748
  0
VERTEX
  5
93
  8
Layer_0
  10
133.39737
  20
133.35748
  0
SEQEND
  0
POLYLINE
  5
95
  8
Layer_0
  62
1
  66
1
  10
0
  20
0
  30
0
  0
VERTEX
  5
95
  8
Layer_0
  10
133.39737
  20
218.35748
  0
VERTEX
  5
96
  8
Layer_0
  10
133.39737
  20
188.45749
  0
SEQEND
  0
POLYLINE
  5
98
  8
Layer_0
  62
1
  66
1
  10
0
  20
0
  30
0
  0
VERTEX
  5
98
  8
Layer_0
  10
169.44737
  20
94.007477
  0
VERTEX
  5
99
  8
Layer_0
  10
199.34737
  20
94.007477
  0
VERTEX
  5
9a
  8
Layer_0
  10
199.34737
  20
90.907471
  0
VERTEX
  5
9b
  8
Layer_0
  10
169.44737
  20
90.907471
  0
VERTEX
  5
9c
  8
Layer_0
  10
169.44737
  20
94.007477
  0
SEQEND
  0
POLYLINE
  5
9e
  8
Layer_1
  62
3
  66
1
  10
0
  20
0
  30
0
  0
VERTEX
  5
9e
  8
Layer_1
  10
212.17047
  20
76.331238
  0
VERTEX
  5
9f
  8
Layer_1
  10
212.1546
  20
76.348755
  42
0.20813931
  0
VERTEX
  5
a0
  8
Layer_1
  10
211.64539
  20
76.551392
  0
VERTEX
  5
a1
  8
Layer_1
  10
211.62476
  20
76.551544
  42
0.13881673
  0
VERTEX
  5
a2
  8
Layer_1
  10
211.21382
  20
76.444275
  0
VERTEX
  5
a3
  8
Layer_1
  10
211.19879
  20
76.434845
  0
VERTEX
  5
a4
  8
Layer_1
  10
211.18416
  20
76.42514
  0
VERTEX
  5
a5
  8
Layer_1
  10
211.16991
  20
76.415131
  42
0.15286636
  0
VERTEX
  5
a6
  8
Layer_1
  10
210.95975
  20
76.138062
  0
VERTEX
  5
a7
  8
Layer_1
  10
210.95392
  20
76.121399
  42
0.070057489
  0
VERTEX
  5
a8
  8
Layer_1
  10
210.88123
  20
75.513397
  0
VERTEX
  5
a9
  8
Layer_1
  10
210.82434
  20
72.069122
  0
VERTEX
  5
aa
  8
Layer_1
  10
210.16277
  20
72.080048
  0
VERTEX
  5
ab
  8
Layer_1
  10
210.21902
  20
75.486816
  0
VERTEX
  5
ac
  8
Layer_1
  10
210.22015
  20
75.538605
  42
-0.098362824
  0
VERTEX
  5
ad
  8
Layer_1
  10
210.38683
  20
76.456207
  0
VERTEX
  5
ae
  8
Layer_1
  10
210.40025
  20
76.484406
  42
-0.16194016
  0
VERTEX
  5
af
  8
Layer_1
  10
210.87634
  20
76.97345
  0
VERTEX
  5
b0
  8
Layer_1
  10
210.90421
  20
76.987732
  42
-0.12088457
  0
VERTEX
  5
b1
  8
Layer_1
  10
211.65173
  20
77.141418
  0
VERTEX
  5
b2
  8
Layer_1
  10
211.70602
  20
77.139862
  42
-0.20917932
  0
VERTEX
  5
b3
  8
Layer_1
  10
212.65318
  20
76.746246
  42
-0.19448371
  0
VERTEX
  5
b4
  8
Layer_1
  10
212.97049
  20
75.615356
  0
VERTEX
  5
b5
  8
Layer_1
  10
212.37238
  20
75.543365
  42
0.16263707
  0
VERTEX
  5
b6
  8
Layer_1
  10
212.17047
  20
76.331238
  0
SEQEND
  0
POLYLINE
  5
b8
  8
Layer_1
  62
3
  66
1
  10
0
  20
0
  30
0
  0
VERTEX
  5
b8
  8
Layer_1
  10
208.36472
  20
76.187714
  42
-0.025441164
  0
VERTEX
  5
b9
  8
Layer_1
  10
207.64502
  20
75.570251
  42
0.027584808
  0
VERTEX
  5
ba
  8
Layer_1
  10
206.73515
  20
74.760315
  0
VERTEX
  5
bb
  8
Layer_1
  10
206.68417
  20
74.706055
  42
0.07571271
  0
VERTEX
  5
bc
  8
Layer_1
  10
206.27748
  20
74.126404
  0
VERTEX
  5
bd
  8
Layer_1
  10
206.26657
  20
74.102356
  42
0.096776363
  0
VERTEX
  5
be
  8
Layer_1
  10
206.13469
  20
73.539429
  0
VERTEX
  5
bf
  8
Layer_1
  10
206.13406
  20
73.514435
  42
0.1953255
  0
VERTEX
  5
c0
  8
Layer_1
  10
206.47131
  20
72.587494
  42
0.01668287
  0
VERTEX
  5
c1
  8
Layer_1
  10
206.53717
  20
72.518555
  42
0.197026
  0
VERTEX
  5
c2
  8
Layer_1
  10
207.66959
  20
72.100769
  42
0.18487783
  0
VERTEX
  5
c3
  8
Layer_1
  10
208.81128
  20
72.452026
  42
0.19682748
  0
VERTEX
  5
c4
  8
Layer_1
  10
209.31671
  20
73.519867
  0
VERTEX
  5
c5
  8
Layer_1
  10
208.68689
  20
73.595093
  42
-0.20152161
  0
VERTEX
  5
c6
  8
Layer_1
  10
208.40533
  20
72.862915
  42
-0.2052521
  0
VERTEX
  5
c7
  8
Layer_1
  10
207.69162
  20
72.608643
  42
-0.20020239
  0
VERTEX
  5
c8
  8
Layer_1
  10
207.01544
  20
72.870544
  42
-0.20365445
  0
VERTEX
  5
c9
  8
Layer_1
  10
206.76468
  20
73.460144
  0
VERTEX
  5
ca
  8
Layer_1
  10
206.76471
  20
73.490356
  42
-0.15566595
  0
VERTEX
  5
cb
  8
Layer_1
  10
207.03946
  20
74.191864
  0
VERTEX
  5
cc
  8
Layer_1
  10
207.06335
  20
74.223938
  42
-0.055836017
  0
VERTEX
  5
cd
  8
Layer_1
  10
208.11443
  20
75.21051
  0
VERTEX
  5
ce
  8
Layer_1
  10
208.18234
  20
75.264618
  42
0.04359239
  0
VERTEX
  5
cf
  8
Layer_1
  10
208.99792
  20
76.008423
  42
0.086820738
  0
VERTEX
  5
d0
  8
Layer_1
  10
209.41302
  20
76.666718
  42
0.10009179
  0
VERTEX
  5
d1
  8
Layer_1
  10
209.49167
  20
77.091797
  0
VERTEX
  5
d2
  8
Layer_1
  10
206.18723
  20
77.146393
  0
VERTEX
  5
d3
  8
Layer_1
  10
206.17747
  20
76.556427
  0
VERTEX
  5
d4
  8
Layer_1
  10
208.62939
  20
76.51593
  42
-0.052543596
  0
VERTEX
  5
d5
  8
Layer_1
  10
208.36472
  20
76.187714
  0
SEQEND
  0
POLYLINE
  5
d7
  8
Layer_1
  62
3
  66
1
  10
0
  20
0
  30
0
  0
VERTEX
  5
d7
  8
Layer_1
  10
203.67645
  20
75.06955
  0
VERTEX
  5
d8
  8
Layer_1
  10
203.68665
  20
75.686798
  0
VERTEX
  5
d9
  8
Layer_1
  10
205.57248
  20
75.65564
  0
VERTEX
  5
da
  8
Layer_1
  10
205.56229
  20
75.038391
  0
VERTEX
  5
db
  8
Layer_1
  10
203.67645
  20
75.06955
  0
SEQEND
  0
POLYLINE
  5
dd
  8
Layer_1
  62
3
  66
1
  10
0
  20
0
  30
0
  0
VERTEX
  5
dd
  8
Layer_1
  10
202.04713
  20
72.869019
  0
VERTEX
  5
de
  8
Layer_1
  10
200.05219
  20
72.901947
  0
VERTEX
  5
df
  8
Layer_1
  10
200.0425
  20
72.315399
  0
VERTEX
  5
e0
  8
Layer_1
  10
202.5285
  20
72.274353
  0
VERTEX
  5
e1
  8
Layer_1
  10
203.05516
  20
74.834198
  0
VERTEX
  5
e2
  8
Layer_1
  10
202.48007
  20
74.918762
  42
-0.12457981
  0
VERTEX
  5
e3
  8
Layer_1
  10
202.09918
  20
74.575409
  42
-0.13090698
  0
VERTEX
  5
e4
  8
Layer_1
  10
201.56157
  20
74.449524
  42
-0.20946694
  0
VERTEX
  5
e5
  8
Layer_1
  10
200.79417
  20
74.765808
  42
-0.19384968
  0
VERTEX
  5
e6
  8
Layer_1
  10
200.51266
  20
75.555969
  0
VERTEX
  5
e7
  8
Layer_1
  10
200.51288
  20
75.599335
  42
-0.18223025
  0
VERTEX
  5
e8
  8
Layer_1
  10
200.80893
  20
76.453125
  0
VERTEX
  5
e9
  8
Layer_1
  10
200.83443
  20
76.480927
  42
-0.20933415
  0
VERTEX
  5
ea
  8
Layer_1
  10
201.55347
  20
76.802765
  0
VERTEX
  5
eb
  8
Layer_1
  10
201.59019
  20
76.802734
  42
-0.18377952
  0
VERTEX
  5
ec
  8
Layer_1
  10
202.19385
  20
76.575043
  0
VERTEX
  5
ed
  8
Layer_1
  10
202.21545
  20
76.555328
  42
-0.029786552
  0
VERTEX
  5
ee
  8
Layer_1
  10
202.27667
  20
76.491394
  42
-0.14581138
  0
VERTEX
  5
ef
  8
Layer_1
  10
202.53625
  20
75.842224
  0
VERTEX
  5
f0
  8
Layer_1
  10
203.18169
  20
75.886169
  42
0.19545409
  0
VERTEX
  5
f1
  8
Layer_1
  10
202.70564
  20
76.907104
  42
0.18176438
  0
VERTEX
  5
f2
  8
Layer_1
  10
201.65491
  20
77.305847
  0
VERTEX
  5
f3
  8
Layer_1
  10
201.59853
  20
77.307434
  42
0.22922431
  0
VERTEX
  5
f4
  8
Layer_1
  10
200.31708
  20
76.770966
  0
VERTEX
  5
f5
  8
Layer_1
  10
200.27557
  20
76.722107
  42
0.16115963
  0
VERTEX
  5
f6
  8
Layer_1
  10
199.86522
  20
75.667328
  0
VERTEX
  5
f7
  8
Layer_1
  10
199.86063
  20
75.555542
  42
0.18558411
  0
VERTEX
  5
f8
  8
Layer_1
  10
200.22089
  20
74.460388
  42
0.016989143
  0
VERTEX
  5
f9
  8
Layer_1
  10
200.29152
  20
74.381836
  42
0.20728839
  0
VERTEX
  5
fa
  8
Layer_1
  10
201.38892
  20
73.910034
  42
0.15643232
  0
VERTEX
  5
fb
  8
Layer_1
  10
202.33871
  20
74.20816
  0
VERTEX
  5
fc
  8
Layer_1
  10
202.04713
  20
72.869019
  0
SEQEND
  0
POLYLINE
  5
fe
  8
Layer_0
  62
1
  66
1
  10
0
  20
0
  30
0
  0
VERTEX
  5
fe
  8
Layer_0
  10
133.39737
  20
218.35748
  0
VERTEX
  5
ff
  8
Layer_0
  10
139.49738
  20
218.35748
  0
SEQEND
  0
POLYLINE
  5
101
  8
Layer_0
  62
1
  66
1
  10
0
  20
0
  30
0
  0
VERTEX
  5
101
  8
Layer_0
  10
139.49738
  20
218.35748
  0
VERTEX
  5
102
  8
Layer_0
  10
139.49738
  20
188.45749
  0
SEQEND
  0
POLYLINE
  5
104
  8
Layer_0
  62
1
  66
1
  10
0
  20
0
  30
0
  0
VERTEX
  5
104
  8
Layer_0
  10
139.49738
  20
188.45749
  0
VERTEX
  5
105
  8
Layer_0
  10
133.39737
  20
188.45749
  0
SEQEND
  0
POLYLINE
  5
107
  8
Layer_0
  62
1
  66
1
  10
0
  20
0
  30
0
  0
VERTEX
  5
107
  8
Layer_0
  10
133.39737
  20
133.35748
  0
VERTEX
  5
108
  8
Layer_0
  10
133.39737
  20
103.45749
  0
SEQEND
  0
POLYLINE
  5
10a
  8
Layer_0
  62
1
  66
1
  10
0
  20
0
  30
0
  0
VERTEX
  5
10a
  8
Layer_0
  10
133.39737
  20
39.907471
  0
VERTEX
  5
10b
  8
Layer_0
  10
120.29737
  20
39.907471
  0
SEQEND
  0
POLYLINE
  5
10d
  8
Layer_0
  62
1
  66
1
  10
0
  20
0
  30
0
  0
VERTEX
  5
10d
  8
Layer_0
  10
120.29737
  20
39.907471
  0
VERTEX
  5
10e
  8
Layer_0
  10
120.29737
  20
45.907471
  0
SEQEND
  0
POLYLINE
  5
110
  8
Layer_0
  62
1
  66
1
  10
0
  20
0
  30
0
  0
VERTEX
  5
110
  8
Layer_0
  10
120.29737
  20
45.907471
  0
VERTEX
  5
111
  8
Layer_0
  10
110.49737
  20
45.907471
  0
SEQEND
  0
POLYLINE
  5
113
  8
Layer_0
  62
1
  66
1
  10
0
  20
0
  30
0
  0
VERTEX
  5
113
  8
Layer_0
  10
110.49737
  20
45.907471
  0
VERTEX
  5
114
  8
Layer_0
  10
110.49737
  20
39.907471
  0
SEQEND
  0
POLYLINE
  5
116
  8
Layer_0
  62
1
  66
1
  10
0
  20
0
  30
0
  0
VERTEX
  5
116
  8
Layer_0
  10
110.49737
  20
39.907471
  0
VERTEX
  5
117
  8
Layer_0
  10
97.397369
  20
39.907471
  0
SEQEND
  0
POLYLINE
  5
119
  8
Layer_0
  62
1
  66
1
  10
0
  20
0
  30
0
  0
VERTEX
  5
119
  8
Layer_0
  10
97.397369
  20
39.907471
  0
VERTEX
  5
11a
  8
Layer_0
  10
97.397369
  20
83.457489
  0
SEQEND
  0
POLYLINE
  5
11c
  8
Layer_0
  62
1
  66
1
  10
0
  20
0
  30
0
  0
VERTEX
  5
11c
  8
Layer_0
  10
97.397369
  20
83.457489
  0
VERTEX
  5
11d
  8
Layer_0
  10
100.39737
  20
83.457489
  0
SEQEND
  0
POLYLINE
  5
11f
  8
Layer_0
  62
1
  66
1
  10
0
  20
0
  30
0
  0
VERTEX
  5
11f
  8
Layer_0
  10
100.39737
  20
83.457489
  0
VERTEX
  5
120
  8
Layer_0
  10
100.39737
  20
113.35748
  0
SEQEND
  0
POLYLINE
  5
122
  8
Layer_0
  62
1
  66
1
  10
0
  20
0
  30
0
  0
VERTEX
  5
122
  8
Layer_0
  10
100.39737
  20
113.35748
  0
VERTEX
  5
123
  8
Layer_0
  10
97.397369
  20
113.35748
  0
SEQEND
  0
POLYLINE
  5
125
  8
Layer_0
  62
1
  66
1
  10
0
  20
0
  30
0
  0
VERTEX
  5
125
  8
Layer_0
  10
97.397369
  20
113.35748
  0
VERTEX
  5
126
  8
Layer_0
  10
97.397369
  20
188.45749
  0
SEQEND
  0
POLYLINE
  5
128
  8
Layer_0
  62
1
  66
1
  10
0
  20
0
  30
0
  0
VERTEX
  5
128
  8
Layer_0
  10
97.397369
  20
188.45749
  0
VERTEX
  5
129
  8
Layer_0
  10
100.39737
  20
188.45749
  0
SEQEND
  0
POLYLINE
  5
12b
  8
Layer_0
  62
1
  66
1
  10
0
  20
0
  30
0
  0
VERTEX
  5
12b
  8
Layer_0
  10
100.39737
  20
188.45749
  0
VERTEX
  5
12c
  8
Layer_0
  10
100.39737
  20
218.35748
  0
SEQEND
  0
POLYLINE
  5
12e
  8
Layer_0
  62
1
  66
1
  10
0
  20
0
  30
0
  0
VERTEX
  5
12e
  8
Layer_0
  10
100.39737
  20
218.35748
  0
VERTEX
  5
12f
  8
Layer_0
  10
97.397369
  20
218.35748
  0
SEQEND
  0
POLYLINE
  5
131
  8
Layer_0
  62
1
  66
1
  10
0
  20
0
  30
0
  0
VERTEX
  5
131
  8
Layer_0
  10
97.397369
  20
218.35748
  0
VERTEX
  5
132
  8
Layer_0
  10
97.397369
  20
261.90749
  0
SEQEND
  0
POLYLINE
  5
134
  8
Layer_0
  62
1
  66
1
  10
0
  20
0
  30
0
  0
VERTEX
  5
134
  8
Layer_0
  10
97.397369
  20
261.90749
  0
VERTEX
  5
135
  8
Layer_0
  10
110.49737
  20
261.90749
  0
SEQEND
  0
POLYLINE
  5
137
  8
Layer_0
  62
1
  66
1
  10
0
  20
0
  30
0
  0
VERTEX
  5
137
  8
Layer_0
  10
110.49737
  20
261.90749
  0
VERTEX
  5
138
  8
Layer_0
  10
110.49737
  20
255.90749
  0
SEQEND
  0
POLYLINE
  5
13a
  8
Layer_0
  62
1
  66
1
  10
0
  20
0
  30
0
  0
VERTEX
  5
13a
  8
Layer_0
  10
110.49737
  20
255.90749
  0
VERTEX
  5
13b
  8
Layer_0
  10
120.29737
  20
255.90749
  0
SEQEND
  0
POLYLINE
  5
13d
  8
Layer_0
  62
1
  66
1
  10
0
  20
0
  30
0
  0
VERTEX
  5
13d
  8
Layer_0
  10
120.29737
  20
255.90749
  0
VERTEX
  5
13e
  8
Layer_0
  10
120.29737
  20
261.90749
  0
SEQEND
  0
POLYLINE
  5
140
  8
Layer_0
  62
1
  66
1
  10
0
  20
0
  30
0
  0
VERTEX
  5
140
  8
Layer_0
  10
120.29737
  20
261.90749
  0
VERTEX
  5
141
  8
Layer_0
  10
133.39737
  20
261.90749
  0
SEQEND
  0
POLYLINE
  5
143
  8
Layer_0
  62
1
  66
1
  10
0
  20
0
  30
0
  0
VERTEX
  5
143
  8
Layer_0
  10
133.39737
  20
39.907471
  0
VERTEX
  5
144
  8
Layer_0
  10
169.44737
  20
39.907471
  0
SEQEND
  0
POLYLINE
  5
146
  8
Layer_0
  62
1
  66
1
  10
0
  20
0
  30
0
  0
VERTEX
  5
146
  8
Layer_0
  10
169.44737
  20
39.907471
  0
VERTEX
  5
147
  8
Layer_0
  10
169.44737
  20
45.907471
  0
SEQEND
  0
POLYLINE
  5
149
  8
Layer_0
  62
1
  66
1
  10
0
  20
0
  30
0
  0
VERTEX
  5
149
  8
Layer_0
  10
169.44737
  20
45.907471
  0
VERTEX
  5
14a
  8
Layer_0
  10
199.34737
  20
45.907471
  0
SEQEND
  0
POLYLINE
  5
14c
  8
Layer_0
  62
1
  66
1
  10
0
  20
0
  30
0
  0
VERTEX
  5
14c
  8
Layer_0
  10
199.34737
  20
45.907471
  0
VERTEX
  5
14d
  8
Layer_0
  10
199.34737
  20
39.907471
  0
SEQEND
  0
POLYLINE
  5
14f
  8
Layer_0
  62
1
  66
1
  10
0
  20
0
  30
0
  0
VERTEX
  5
14f
  8
Layer_0
  10
199.34737
  20
39.907471
  0
VERTEX
  5
150
  8
Layer_0
  10
235.39737
  20
39.907471
  0
SEQEND
  0
POLYLINE
  5
152
  8
Layer_0
  62
1
  66
1
  10
0
  20
0
  30
0
  0
VERTEX
  5
152
  8
Layer_0
  10
235.39737
  20
39.907471
  0
VERTEX
  5
153
  8
Layer_0
  10
235.39737
  20
83.457489
  0
SEQEND
  0
POLYLINE
  5
155
  8
Layer_0
  62
1
  66
1
  10
0
  20
0
  30
0
  0
VERTEX
  5
155
  8
Layer_0
  10
235.39737
  20
83.457489
  0
VERTEX
  5
156
  8
Layer_0
  10
229.39737
  20
83.457489
  0
SEQEND
  0
POLYLINE
  5
158
  8
Layer_0
  62
1
  66
1
  10
0
  20
0
  30
0
  0
VERTEX
  5
158
  8
Layer_0
  10
229.39737
  20
83.457489
  0
VERTEX
  5
159
  8
Layer_0
  10
229.39737
  20
113.35748
  0
SEQEND
  0
POLYLINE
  5
15b
  8
Layer_0
  62
1
  66
1
  10
0
  20
0
  30
0
  0
VERTEX
  5
15b
  8
Layer_0
  10
229.39737
  20
113.35748
  0
VERTEX
  5
15c
  8
Layer_0
  10
235.39737
  20
113.35748
  0
SEQEND
  0
POLYLINE
  5
15e
  8
Layer_0
  62
1
  66
1
  10
0
  20
0
  30
0
  0
VERTEX
  5
15e
  8
Layer_0
  10
235.39737
  20
113.35748
  0
VERTEX
  5
15f
  8
Layer_0
  10
235.39737
  20
188.45749
  0
SEQEND
  0
POLYLINE
  5
161
  8
Layer_0
  62
1
  66
1
  10
0
  20
0
  30
0
  0
VERTEX
  5
161
  8
Layer_0
  10
235.39737
  20
188.45749
  0
VERTEX
  5
162
  8
Layer_0
  10
229.29736
  20
188.45749
  0
SEQEND
  0
POLYLINE
  5
164
  8
Layer_0
  62
1
  66
1
  10
0
  20
0
  30
0
  0
VERTEX
  5
164
  8
Layer_0
  10
229.29736
  20
188.45749
  0
VERTEX
  5
165
  8
Layer_0
  10
229.29736
  20
218.35748
  0
SEQEND
  0
POLYLINE
  5
167
  8
Layer_0
  62
1
  66
1
  10
0
  20
0
  30
0
  0
VERTEX
  5
167
  8
Layer_0
  10
229.29736
  20
218.35748
  0
VERTEX
  5
168
  8
Layer_0
  10
235.39737
  20
218.35748
  0
SEQEND
  0
POLYLINE
  5
16a
  8
Layer_0
  62
1
  66
1
  10
0
  20
0
  30
0
  0
VERTEX
  5
16a
  8
Layer_0
  10
235.39737
  20
218.35748
  0
VERTEX
  5
16b
  8
Layer_0
  10
235.39737
  20
261.90749
  0
SEQEND
  0
POLYLINE
  5
16d
  8
Layer_0
  62
1
  66
1
  10
0
  20
0
  30
0
  0
VERTEX
  5
16d
  8
Layer_0
  10
235.39737
  20
261.90749
  0
VERTEX
  5
16e
  8
Layer_0
  10
199.34737
  20
261.90749
  0
SEQEND
  0
POLYLINE
  5
170
  8
Layer_0
  62
1
  66
1
  10
0
  20
0
  30
0
  0
VERTEX
  5
170
  8
Layer_0
  10
199.34737
  20
261.90749
  0
VERTEX
  5
171
  8
Layer_0
  10
199.34737
  20
255.90749
  0
SEQEND
  0
POLYLINE
  5
173
  8
Layer_0
  62
1
  66
1
  10
0
  20
0
  30
0
  0
VERTEX
  5
173
  8
Layer_0
  10
199.34737
  20
255.90749
  0
VERTEX
  5
174
  8
Layer_0
  10
169.44737
  20
255.90749
  0
SEQEND
  0
POLYLINE
  5
176
  8
Layer_0
  62
1
  66
1
  10
0
  20
0
  30
0
  0
VERTEX
  5
176
  8
Layer_0
  10
169.44737
  20
255.90749
  0
VERTEX
  5
177
  8
Layer_0
  10
169.44737
  20
261.90749
  0
SEQEND
  0
POLYLINE
  5
179
  8
Layer_0
  62
1
  66
1
  10
0
  20
0
  30
0
  0
VERTEX
  5
179
  8
Layer_0
  10
169.44737
  20
261.90749
  0
VERTEX
  5
17a
  8
Layer_0
  10
133.39737
  20
261.90749
  0
SEQEND
  0
ENDSEC
  0
EOF
