  0
SECTION
  2
HEADER
  9
$ACADVER
  1
AC1009
  0
ENDSEC
  0
SECTION
  2
ENTITIES
  0
CIRCLE
  5
90
  8
Layer_0
  62
0
  10
108.86911
  20
194.58667
  30
0
  40
29.75
  0
CIRCLE
  5
90
  8
Layer_0
  62
0
  10
68.86911
  20
239.58667
  30
0
  40
1.5
  0
CIRCLE
  5
90
  8
Layer_0
  62
0
  10
243.86911
  20
239.58667
  30
0
  40
1.5
  0
CIRCLE
  5
90
  8
Layer_0
  62
0
  10
68.86911
  20
149.58667
  30
0
  40
1.5
  0
CIRCLE
  5
90
  8
Layer_0
  62
0
  10
243.86911
  20
149.58667
  30
0
  40
1.5
  0
CIRCLE
  5
90
  8
Layer_0
  62
0
  10
208.86911
  20
227.58667
  30
0
  40
1.5
  0
CIRCLE
  5
90
  8
Layer_0
  62
0
  10
108.86911
  20
231.58667
  30
0
  40
1.5
  0
CIRCLE
  5
90
  8
Layer_0
  62
0
  10
71.86911
  20
194.58667
  30
0
  40
1.5
  0
CIRCLE
  5
90
  8
Layer_0
  62
0
  10
108.86911
  20
157.58667
  30
0
  40
1.5
  0
CIRCLE
  5
90
  8
Layer_0
  62
0
  10
145.86911
  20
194.58667
  30
0
  40
1.5
  0
POLYLINE
  5
90
  8
Layer_0
  62
0
  66
1
  10
0
  20
0
  30
0
  0
VERTEX
  5
90
  8
Layer_0
  10
95.11911
  20
244.58667
  0
VERTEX
  5
91
  8
Layer_0
  10
95.11911
  20
250.58667
  0
VERTEX
  5
92
  8
Layer_0
  10
125.11911
  20
250.58667
  0
VERTEX
  5
93
  8
Layer_0
  10
125.11911
  20
244.58667
  0
VERTEX
  5
94
  8
Layer_0
  10
187.61911
  20
244.58667
  0
VERTEX
  5
95
  8
Layer_0
  10
187.61911
  20
250.58667
  0
VERTEX
  5
96
  8
Layer_0
  10
217.61911
  20
250.58667
  0
VERTEX
  5
97
  8
Layer_0
  10
217.61911
  20
244.58667
  0
VERTEX
  5
98
  8
Layer_0
  10
248.86911
  20
244.58667
  0
VERTEX
  5
99
  8
Layer_0
  10
248.86911
  20
209.58667
  0
VERTEX
  5
9a
  8
Layer_0
  10
254.86911
  20
209.58667
  0
VERTEX
  5
9b
  8
Layer_0
  10
254.86911
  20
179.58667
  0
VERTEX
  5
9c
  8
Layer_0
  10
248.86911
  20
179.58667
  0
VERTEX
  5
9d
  8
Layer_0
  10
248.86911
  20
144.58667
  0
VERTEX
  5
9e
  8
Layer_0
  10
217.61911
  20
144.58667
  0
VERTEX
  5
9f
  8
Layer_0
  10
217.61911
  20
138.58667
  0
VERTEX
  5
a0
  8
Layer_0
  10
187.61911
  20
138.58667
  0
VERTEX
  5
a1
  8
Layer_0
  10
187.61911
  20
144.58667
  0
VERTEX
  5
a2
  8
Layer_0
  10
125.11911
  20
144.58667
  0
VERTEX
  5
a3
  8
Layer_0
  10
125.11911
  20
138.58667
  0
VERTEX
  5
a4
  8
Layer_0
  10
95.11911
  20
138.58667
  0
VERTEX
  5
a5
  8
Layer_0
  10
95.11911
  20
144.58667
  0
VERTEX
  5
a6
  8
Layer_0
  10
63.86911
  20
144.58667
  0
VERTEX
  5
a7
  8
Layer_0
  10
63.86911
  20
179.58667
  0
VERTEX
  5
a8
  8
Layer_0
  10
57.86911
  20
179.58667
  0
VERTEX
  5
a9
  8
Layer_0
  10
57.86911
  20
209.58667
  0
VERTEX
  5
aa
  8
Layer_0
  10
63.86911
  20
209.58667
  0
VERTEX
  5
ab
  8
Layer_0
  10
63.86911
  20
244.58667
  0
VERTEX
  5
ac
  8
Layer_0
  10
95.11911
  20
244.58667
  0
SEQEND
  0
POLYLINE
  5
ae
  8
Layer_0
  62
0
  66
1
  10
0
  20
0
  30
0
  0
VERTEX
  5
ae
  8
Layer_0
  10
235.2321
  20
159.08408
  42
0.21987568
  0
VERTEX
  5
af
  8
Layer_0
  10
234.70419
  20
159.29738
  42
0.14396893
  0
VERTEX
  5
b0
  8
Layer_0
  10
234.27405
  20
159.18463
  42
0.17409238
  0
VERTEX
  5
b1
  8
Layer_0
  10
234.02399
  20
158.87515
  42
0.076052267
  0
VERTEX
  5
b2
  8
Layer_0
  10
233.95358
  20
158.24954
  0
VERTEX
  5
b3
  8
Layer_0
  10
233.94147
  20
154.80481
  0
VERTEX
  5
b4
  8
Layer_0
  10
233.27982
  20
154.80713
  0
VERTEX
  5
b5
  8
Layer_0
  10
233.29178
  20
158.21436
  42
-0.099811949
  0
VERTEX
  5
b6
  8
Layer_0
  10
233.44698
  20
159.18584
  42
-0.16907492
  0
VERTEX
  5
b7
  8
Layer_0
  10
233.92972
  20
159.70938
  42
-0.12738281
  0
VERTEX
  5
b8
  8
Layer_0
  10
234.70285
  20
159.88744
  0
VERTEX
  5
b9
  8
Layer_0
  10
234.75717
  20
159.88658
  42
-0.20903778
  0
VERTEX
  5
ba
  8
Layer_0
  10
235.70937
  20
159.50531
  42
-0.19426496
  0
VERTEX
  5
bb
  8
Layer_0
  10
236.04135
  20
158.37863
  0
VERTEX
  5
bc
  8
Layer_0
  10
235.44421
  20
158.29887
  42
0.16252002
  0
VERTEX
  5
bd
  8
Layer_0
  10
235.2321
  20
159.08408
  0
SEQEND
  0
POLYLINE
  5
bf
  8
Layer_0
  62
0
  66
1
  10
0
  20
0
  30
0
  0
VERTEX
  5
bf
  8
Layer_0
  10
231.42853
  20
158.89108
  42
-0.02540287
  0
VERTEX
  5
c0
  8
Layer_0
  10
230.71692
  20
158.26433
  42
0.032491545
  0
VERTEX
  5
c1
  8
Layer_0
  10
229.76736
  20
157.38771
  42
0.080527702
  0
VERTEX
  5
c2
  8
Layer_0
  10
229.35767
  20
156.77864
  42
0.10129927
  0
VERTEX
  5
c3
  8
Layer_0
  10
229.2328
  20
156.18904
  42
0.21354146
  0
VERTEX
  5
c4
  8
Layer_0
  10
229.64883
  20
155.19849
  42
0.063329086
  0
VERTEX
  5
c5
  8
Layer_0
  10
229.91838
  20
154.9987
  42
0.12898055
  0
VERTEX
  5
c6
  8
Layer_0
  10
230.78658
  20
154.79544
  42
0.18503279
  0
VERTEX
  5
c7
  8
Layer_0
  10
231.92361
  20
155.1615
  42
0.19677571
  0
VERTEX
  5
c8
  8
Layer_0
  10
232.41512
  20
156.23584
  0
VERTEX
  5
c9
  8
Layer_0
  10
231.78438
  20
156.30286
  42
-0.2019617
  0
VERTEX
  5
ca
  8
Layer_0
  10
231.51236
  20
155.56711
  42
-0.20506952
  0
VERTEX
  5
cb
  8
Layer_0
  10
230.802
  20
155.30357
  42
-0.1996245
  0
VERTEX
  5
cc
  8
Layer_0
  10
230.12247
  20
155.55664
  42
-0.2121594
  0
VERTEX
  5
cd
  8
Layer_0
  10
229.86371
  20
156.17317
  42
-0.15969515
  0
VERTEX
  5
ce
  8
Layer_0
  10
230.1528
  20
156.91057
  42
-0.055852014
  0
VERTEX
  5
cf
  8
Layer_0
  10
231.19095
  20
157.91071
  0
VERTEX
  5
d0
  8
Layer_0
  10
231.25815
  20
157.9657
  42
0.043587105
  0
VERTEX
  5
d1
  8
Layer_0
  10
232.06403
  20
158.72003
  42
0.086885153
  0
VERTEX
  5
d2
  8
Layer_0
  10
232.47052
  20
159.38368
  42
0.10018144
  0
VERTEX
  5
d3
  8
Layer_0
  10
232.54364
  20
159.80975
  0
VERTEX
  5
d4
  8
Layer_0
  10
229.23874
  20
159.82138
  0
VERTEX
  5
d5
  8
Layer_0
  10
229.23666
  20
159.23134
  0
VERTEX
  5
d6
  8
Layer_0
  10
231.6889
  20
159.22272
  42
-0.052353985
  0
VERTEX
  5
d7
  8
Layer_0
  10
231.42853
  20
158.89108
  0
SEQEND
  0
POLYLINE
  5
d9
  8
Layer_0
  62
0
  66
1
  10
0
  20
0
  30
0
  0
VERTEX
  5
d9
  8
Layer_0
  10
226.75519
  20
157.71208
  0
VERTEX
  5
da
  8
Layer_0
  10
226.75735
  20
158.32941
  0
VERTEX
  5
db
  8
Layer_0
  10
228.64343
  20
158.32277
  0
VERTEX
  5
dc
  8
Layer_0
  10
228.64127
  20
157.70544
  0
VERTEX
  5
dd
  8
Layer_0
  10
226.75519
  20
157.71208
  0
SEQEND
  0
POLYLINE
  5
df
  8
Layer_0
  62
0
  66
1
  10
0
  20
0
  30
0
  0
VERTEX
  5
df
  8
Layer_0
  10
223.38535
  20
156.71095
  42
0.14874812
  0
VERTEX
  5
e0
  8
Layer_0
  10
223.20934
  20
156.12154
  42
0.13855308
  0
VERTEX
  5
e1
  8
Layer_0
  10
223.38953
  20
155.47629
  42
0.14276655
  0
VERTEX
  5
e2
  8
Layer_0
  10
223.91479
  20
154.99524
  42
0.11993198
  0
VERTEX
  5
e3
  8
Layer_0
  10
224.66792
  20
154.81694
  42
0.18280149
  0
VERTEX
  5
e4
  8
Layer_0
  10
225.66161
  20
155.1528
  42
0.1766746
  0
VERTEX
  5
e5
  8
Layer_0
  10
226.17656
  20
156.1077
  0
VERTEX
  5
e6
  8
Layer_0
  10
225.56303
  20
156.21899
  42
-0.16835577
  0
VERTEX
  5
e7
  8
Layer_0
  10
225.25371
  20
155.54477
  42
-0.19735479
  0
VERTEX
  5
e8
  8
Layer_0
  10
224.65605
  20
155.32176
  42
-0.20139596
  0
VERTEX
  5
e9
  8
Layer_0
  10
224.0668
  20
155.54553
  42
-0.21082682
  0
VERTEX
  5
ea
  8
Layer_0
  10
223.84026
  20
156.10567
  42
-0.2681544
  0
VERTEX
  5
eb
  8
Layer_0
  10
224.15625
  20
156.73553
  42
-0.14830636
  0
VERTEX
  5
ec
  8
Layer_0
  10
224.86298
  20
156.93768
  42
-0.026068555
  0
VERTEX
  5
ed
  8
Layer_0
  10
224.96185
  20
156.93051
  0
VERTEX
  5
ee
  8
Layer_0
  10
225.03195
  20
157.46916
  42
-0.062490576
  0
VERTEX
  5
ef
  8
Layer_0
  10
224.59857
  20
157.40247
  42
-0.20496847
  0
VERTEX
  5
f0
  8
Layer_0
  10
223.89694
  20
157.67949
  42
-0.20679577
  0
VERTEX
  5
f1
  8
Layer_0
  10
223.62314
  20
158.37793
  42
-0.20550118
  0
VERTEX
  5
f2
  8
Layer_0
  10
223.92418
  20
159.12041
  42
-0.20713306
  0
VERTEX
  5
f3
  8
Layer_0
  10
224.6568
  20
159.41797
  42
-0.19197747
  0
VERTEX
  5
f4
  8
Layer_0
  10
225.27502
  20
159.18558
  42
-0.15734791
  0
VERTEX
  5
f5
  8
Layer_0
  10
225.6322
  20
158.43227
  0
VERTEX
  5
f6
  8
Layer_0
  10
226.2464
  20
158.51196
  42
0.19280635
  0
VERTEX
  5
f7
  8
Layer_0
  10
225.75372
  20
159.53008
  42
0.18426742
  0
VERTEX
  5
f8
  8
Layer_0
  10
224.71646
  20
159.92526
  0
VERTEX
  5
f9
  8
Layer_0
  10
224.66202
  20
159.92613
  42
0.18958766
  0
VERTEX
  5
fa
  8
Layer_0
  10
223.49341
  20
159.51207
  0
VERTEX
  5
fb
  8
Layer_0
  10
223.45305
  20
159.47507
  42
0.20423553
  0
VERTEX
  5
fc
  8
Layer_0
  10
222.97269
  20
158.42081
  0
VERTEX
  5
fd
  8
Layer_0
  10
222.97165
  20
158.36658
  42
0.16720522
  0
VERTEX
  5
fe
  8
Layer_0
  10
223.21439
  20
157.55911
  42
0.17949678
  0
VERTEX
  5
ff
  8
Layer_0
  10
223.90184
  20
157.13206
  42
0.14281449
  0
VERTEX
  5
100
  8
Layer_0
  10
223.38535
  20
156.71095
  0
SEQEND
  0
ENDSEC
  0
EOF
