  0
SECTION
  2
HEADER
  9
$ACADVER
  1
AC1009
  0
ENDSEC
  0
SECTION
  2
ENTITIES
  0
CIRCLE
  5
90
  8
Layer_0
  62
1
  10
331.15875
  20
212.47687
  30
0
  40
1.5
  0
CIRCLE
  5
90
  8
Layer_0
  62
1
  10
264.60876
  20
212.47687
  30
0
  40
1.5
  0
CIRCLE
  5
90
  8
Layer_0
  62
1
  10
331.15875
  20
168.47687
  30
0
  40
1.5
  0
CIRCLE
  5
90
  8
Layer_0
  62
1
  10
264.60876
  20
168.47687
  30
0
  40
1.5
  0
POLYLINE
  5
90
  8
Layer_0
  62
1
  66
1
  10
0
  20
0
  30
0
  0
VERTEX
  5
90
  8
Layer_0
  10
336.15875
  20
205.47687
  0
VERTEX
  5
91
  8
Layer_0
  10
339.15875
  20
205.47687
  0
VERTEX
  5
92
  8
Layer_0
  10
339.15875
  20
175.47687
  0
VERTEX
  5
93
  8
Layer_0
  10
336.15875
  20
175.47687
  0
VERTEX
  5
94
  8
Layer_0
  10
336.15875
  20
163.47687
  0
VERTEX
  5
95
  8
Layer_0
  10
324.52124
  20
163.47687
  0
VERTEX
  5
96
  8
Layer_0
  10
324.52124
  20
160.47687
  0
VERTEX
  5
97
  8
Layer_0
  10
309.52124
  20
160.47687
  0
VERTEX
  5
98
  8
Layer_0
  10
309.52124
  20
163.47687
  0
VERTEX
  5
99
  8
Layer_0
  10
286.24625
  20
163.47687
  0
VERTEX
  5
9a
  8
Layer_0
  10
286.24625
  20
160.47687
  0
VERTEX
  5
9b
  8
Layer_0
  10
271.24625
  20
160.47687
  0
VERTEX
  5
9c
  8
Layer_0
  10
271.24625
  20
163.47687
  0
VERTEX
  5
9d
  8
Layer_0
  10
259.60876
  20
163.47687
  0
VERTEX
  5
9e
  8
Layer_0
  10
259.60876
  20
175.47687
  0
VERTEX
  5
9f
  8
Layer_0
  10
256.60876
  20
175.47687
  0
VERTEX
  5
a0
  8
Layer_0
  10
256.60876
  20
205.47687
  0
VERTEX
  5
a1
  8
Layer_0
  10
259.60876
  20
205.47687
  0
VERTEX
  5
a2
  8
Layer_0
  10
259.60876
  20
217.47687
  0
VERTEX
  5
a3
  8
Layer_0
  10
271.24625
  20
217.47687
  0
VERTEX
  5
a4
  8
Layer_0
  10
271.24625
  20
220.47687
  0
VERTEX
  5
a5
  8
Layer_0
  10
286.24625
  20
220.47687
  0
VERTEX
  5
a6
  8
Layer_0
  10
286.24625
  20
217.47687
  0
VERTEX
  5
a7
  8
Layer_0
  10
309.52124
  20
217.47687
  0
VERTEX
  5
a8
  8
Layer_0
  10
309.52124
  20
220.47687
  0
VERTEX
  5
a9
  8
Layer_0
  10
324.52124
  20
220.47687
  0
VERTEX
  5
aa
  8
Layer_0
  10
324.52124
  20
217.47687
  0
VERTEX
  5
ab
  8
Layer_0
  10
336.15875
  20
217.47687
  0
VERTEX
  5
ac
  8
Layer_0
  10
336.15875
  20
205.47687
  0
SEQEND
  0
ENDSEC
  0
EOF
