0
SECTION
2
HEADER
9
$INSUNITS
70
4
9
$ACADVER
1
AC1014
9
$HANDSEED
5
FFFF
0
ENDSEC
0
SECTION
2
TABLES
0
TABLE
2
VPORT
5
8
100
AcDbSymbolTable
0
ENDTAB
0
TABLE
2
LTYPE
5
5
100
AcDbSymbolTable
0
LTYPE
5
14
100
AcDbSymbolTableRecord
100
AcDbLinetypeTableRecord
2
BYBLOCK
70
0
0
LTYPE
5
15
100
AcDbSymbolTableRecord
100
AcDbLinetypeTableRecord
2
BYLAYER
70
0
0
ENDTAB
0
TABLE
2
LAYER
5
2
100
AcDbSymbolTable
70
2
0
LAYER
5
50
100
AcDbSymbolTableRecord
100
AcDbLayerTableRecord
2
0
70
0
6
CONTINUOUS
0
ENDTAB
0
TABLE
2
STYLE
5
3
100
AcDbSymbolTable
70
1
0
STYLE
5
11
100
AcDbSymbolTableRecord
100
AcDbTextStyleTableRecord
2
STANDARD
70
0
0
ENDTAB
0
TABLE
2
VIEW
5
6
100
AcDbSymbolTable
70
0
0
ENDTAB
0
TABLE
2
UCS
5
7
100
AcDbSymbolTable
70
0
0
ENDTAB
0
TABLE
2
APPID
5
9
100
AcDbSymbolTable
70
2
0
APPID
5
12
100
AcDbSymbolTableRecord
100
AcDbRegAppTableRecord
2
ACAD
70
0
0
ENDTAB
0
TABLE
2
DIMSTYLE
5
A
100
AcDbSymbolTable
70
1
0
ENDTAB
0
TABLE
2
BLOCK_RECORD
5
1
100
AcDbSymbolTable
70
1
0
BLOCK_RECORD
5
1F
100
AcDbSymbolTableRecord
100
AcDbBlockTableRecord
2
*MODEL_SPACE
0
BLOCK_RECORD
5
1B
100
AcDbSymbolTableRecord
100
AcDbBlockTableRecord
2
*PAPER_SPACE
0
ENDTAB
0
ENDSEC
0
SECTION
2
BLOCKS
0
BLOCK
5
20
100
AcDbEntity
100
AcDbBlockBegin
2
*MODEL_SPACE
0
ENDBLK
5
21
100
AcDbEntity
100
AcDbBlockEnd
0
BLOCK
5
1C
100
AcDbEntity
100
AcDbBlockBegin
2
*PAPER_SPACE
0
ENDBLK
5
1D
100
AcDbEntity
100
AcDbBlockEnd
0
ENDSEC
0
SECTION
2
ENTITIES
0
LINE
5
100
100
AcDbEntity
8
0
100
AcDbLine
10
0
20
-12.000000000000002
30
0
11
3.0000000000000004
21
-12.000000000000002
31
0
0
LINE
5
101
100
AcDbEntity
8
0
100
AcDbLine
10
3.0000000000000004
20
-12.000000000000002
30
0
11
3.0000000000000004
21
-42
31
0
0
LINE
5
102
100
AcDbEntity
8
0
100
AcDbLine
10
3.0000000000000004
20
-42
30
0
11
-2.4651903288156619e-31
21
-42
31
0
0
CIRCLE
5
103
100
AcDbEntity
8
0
100
AcDbCircle
10
-5
20
-5
30
0
40
1.5000000000000002
210
0
220
0
230
1
0
LINE
5
104
100
AcDbEntity
8
0
100
AcDbLine
10
-3.75
20
0
30
0
11
-3.7499999999999964
21
3.0000000000000009
31
0
0
LINE
5
105
100
AcDbEntity
8
0
100
AcDbLine
10
-3.7499999999999964
20
3.0000000000000009
30
0
11
-33.749999999999993
21
2.9999999999999871
31
0
0
LINE
5
106
100
AcDbEntity
8
0
100
AcDbLine
10
-33.749999999999993
20
2.9999999999999871
30
0
11
-33.749999999999993
21
0
31
0
0
LINE
5
107
100
AcDbEntity
8
0
100
AcDbLine
10
-60
20
0
30
0
11
-60.000000000000007
21
2.9999999999999876
31
0
0
LINE
5
108
100
AcDbEntity
8
0
100
AcDbLine
10
-60.000000000000007
20
2.9999999999999876
30
0
11
-90
21
2.9999999999999845
31
0
0
LINE
5
109
100
AcDbEntity
8
0
100
AcDbLine
10
-90
20
2.9999999999999845
30
0
11
-89.999999999999986
21
0
31
0
0
LINE
5
110
100
AcDbEntity
8
0
100
AcDbLine
10
-75
20
-27.000000000000021
30
0
11
-231.1211889218319
21
-26.999999999999986
31
0
0
LINE
5
111
100
AcDbEntity
8
0
100
AcDbLine
10
-75
20
-27.000000000000021
30
0
11
-75
21
-33.999999999999993
31
0
0
LINE
5
112
100
AcDbEntity
8
0
100
AcDbLine
10
-116.25
20
2.9999999999999778
30
0
11
-116.25
21
1.4130111222502006e-14
31
0
0
LINE
5
113
100
AcDbEntity
8
0
100
AcDbLine
10
-146.25
20
2.9999999999999867
30
0
11
-116.25
21
2.9999999999999778
31
0
0
LINE
5
114
100
AcDbEntity
8
0
100
AcDbLine
10
-146.25
20
0
30
0
11
-146.25
21
2.9999999999999867
31
0
0
LINE
5
115
100
AcDbEntity
8
0
100
AcDbLine
10
-4.4762666496915986e-31
20
-54
30
0
11
-2.4651903288156619e-31
21
-42
31
0
0
LINE
5
116
100
AcDbEntity
8
0
100
AcDbLine
10
0
20
-12.000000000000002
30
0
11
0
21
0
31
0
0
LINE
5
117
100
AcDbEntity
8
0
100
AcDbLine
10
-89.999999999999986
20
0
30
0
11
-116.25
21
1.4130111222502006e-14
31
0
0
LINE
5
118
100
AcDbEntity
8
0
100
AcDbLine
10
-146.25
20
0
30
0
11
-150
21
0
31
0
0
LINE
5
119
100
AcDbEntity
8
0
100
AcDbLine
10
0
20
0
30
0
11
-3.75
21
0
31
0
0
LINE
5
120
100
AcDbEntity
8
0
100
AcDbLine
10
-33.749999999999993
20
0
30
0
11
-60
21
0
31
0
0
LINE
5
121
100
AcDbEntity
8
0
100
AcDbLine
10
-8.8817841970012523e-15
20
-54.000000000000071
30
0
11
-3.7500000000000124
21
-54.000000000000071
31
0
0
LINE
5
122
100
AcDbEntity
8
0
100
AcDbLine
10
-3.7500000000000124
20
-54.000000000000071
30
0
11
-3.7500000000000089
21
-57.000000000000071
31
0
0
LINE
5
123
100
AcDbEntity
8
0
100
AcDbLine
10
-3.7500000000000089
20
-57.000000000000071
30
0
11
-33.750000000000007
21
-57.000000000000043
31
0
0
LINE
5
124
100
AcDbEntity
8
0
100
AcDbLine
10
-33.750000000000007
20
-57.000000000000043
30
0
11
-33.750000000000007
21
-54.000000000000057
31
0
0
LINE
5
125
100
AcDbEntity
8
0
100
AcDbLine
10
-33.750000000000007
20
-54.000000000000057
30
0
11
-60.000000000000007
21
-54.000000000000043
31
0
0
LINE
5
126
100
AcDbEntity
8
0
100
AcDbLine
10
-60.000000000000007
20
-54.000000000000043
30
0
11
-60.000000000000014
21
-57.000000000000028
31
0
0
LINE
5
127
100
AcDbEntity
8
0
100
AcDbLine
10
-60.000000000000014
20
-57.000000000000028
30
0
11
-90.000000000000014
21
-57.000000000000021
31
0
0
LINE
5
128
100
AcDbEntity
8
0
100
AcDbLine
10
-90.000000000000014
20
-57.000000000000021
30
0
11
-90
21
-54.000000000000043
31
0
0
CIRCLE
5
129
100
AcDbEntity
8
0
100
AcDbCircle
10
-5.0000000000000089
20
-49.000000000000071
30
0
40
1.5000000000000002
210
0
220
0
230
1
0
LINE
5
130
100
AcDbEntity
8
0
100
AcDbLine
10
-90
20
-54.000000000000043
30
0
11
-116.25000000000001
21
-54.000000000000028
31
0
0
LINE
5
131
100
AcDbEntity
8
0
100
AcDbLine
10
-116.25000000000001
20
-57
30
0
11
-116.25000000000001
21
-54.000000000000028
31
0
0
LINE
5
132
100
AcDbEntity
8
0
100
AcDbLine
10
-146.25000000000003
20
-56.999999999999993
30
0
11
-116.25000000000001
21
-57
31
0
0
LINE
5
133
100
AcDbEntity
8
0
100
AcDbLine
10
-146.25000000000003
20
-54
30
0
11
-146.25000000000003
21
-56.999999999999993
31
0
0
LINE
5
134
100
AcDbEntity
8
0
100
AcDbLine
10
-146.25000000000003
20
-54
30
0
11
-150
21
-54
31
0
0
CIRCLE
5
135
100
AcDbEntity
8
0
100
AcDbCircle
10
-145
20
-5
30
0
40
1.5000000000000002
210
0
220
0
230
1
0
CIRCLE
5
136
100
AcDbEntity
8
0
100
AcDbCircle
10
-145
20
-49.000000000000071
30
0
40
1.5000000000000002
210
0
220
0
230
1
0
CIRCLE
5
137
100
AcDbEntity
8
0
100
AcDbCircle
10
-75
20
-5
30
0
40
1.5000000000000002
210
0
220
0
230
1
0
CIRCLE
5
138
100
AcDbEntity
8
0
100
AcDbCircle
10
-75.000000000000014
20
-49.000000000000043
30
0
40
1.5000000000000002
210
0
220
0
230
1
0
LINE
5
139
100
AcDbEntity
8
0
100
AcDbLine
10
-150
20
-54
30
0
11
-150
21
-42
31
0
0
LINE
5
140
100
AcDbEntity
8
0
100
AcDbLine
10
-153
20
-42
30
0
11
-150
21
-42
31
0
0
LINE
5
141
100
AcDbEntity
8
0
100
AcDbLine
10
-153
20
-12.000000000000002
30
0
11
-153
21
-42
31
0
0
LINE
5
142
100
AcDbEntity
8
0
100
AcDbLine
10
-150
20
-12.000000000000002
30
0
11
-153
21
-12.000000000000002
31
0
0
LINE
5
143
100
AcDbEntity
8
0
100
AcDbLine
10
-150
20
-12.000000000000002
30
0
11
-150
21
0
31
0
0
ENDSEC
0
SECTION
2
OBJECTS
0
DICTIONARY
5
C
100
AcDbDictionary
3
ACAD_GROUP
350
D
3
ACAD_MLINESTYLE
350
17
0
DICTIONARY
5
D
100
AcDbDictionary
0
DICTIONARY
5
1A
330
C
100
AcDbDictionary
0
DICTIONARY
5
17
100
AcDbDictionary
0
ENDSEC
0
EOF
