  0
SECTION
  2
HEADER
  9
$ACADVER
  1
AC1009
  0
ENDSEC
  0
SECTION
  2
ENTITIES
  0
POLYLINE
  5
90
  8
Layer_0
  62
0
  66
1
  10
0
  20
0
  30
0
  0
VERTEX
  5
90
  8
Layer_0
  10
-19.477951
  20
317.12323
  0
VERTEX
  5
91
  8
Layer_0
  10
-18.314819
  20
317.12323
  0
SEQEND
  0
CIRCLE
  5
93
  8
Layer_1
  62
1
  10
104.06223
  20
306.39981
  30
0
  40
1.5
  0
CIRCLE
  5
93
  8
Layer_1
  62
1
  10
37.512222
  20
306.39981
  30
0
  40
1.5
  0
CIRCLE
  5
93
  8
Layer_1
  62
1
  10
104.06223
  20
330.39981
  30
0
  40
1.5
  0
CIRCLE
  5
93
  8
Layer_1
  62
1
  10
37.512222
  20
330.39981
  30
0
  40
1.5
  0
POLYLINE
  5
93
  8
Layer_1
  62
1
  66
1
  10
0
  20
0
  30
0
  0
VERTEX
  5
93
  8
Layer_1
  10
109.06223
  20
303.39981
  0
VERTEX
  5
94
  8
Layer_1
  10
112.06223
  20
303.39981
  0
VERTEX
  5
95
  8
Layer_1
  10
112.06223
  20
333.39981
  0
VERTEX
  5
96
  8
Layer_1
  10
109.06223
  20
333.39981
  0
VERTEX
  5
97
  8
Layer_1
  10
109.06223
  20
338.39981
  0
VERTEX
  5
98
  8
Layer_1
  10
97.324722
  20
338.39981
  0
VERTEX
  5
99
  8
Layer_1
  10
97.324722
  20
335.39981
  0
VERTEX
  5
9a
  8
Layer_1
  10
82.524727
  20
335.39981
  0
VERTEX
  5
9b
  8
Layer_1
  10
82.524727
  20
338.39981
  0
VERTEX
  5
9c
  8
Layer_1
  10
59.049725
  20
338.39981
  0
VERTEX
  5
9d
  8
Layer_1
  10
59.049725
  20
335.39981
  0
VERTEX
  5
9e
  8
Layer_1
  10
44.249725
  20
335.39981
  0
VERTEX
  5
9f
  8
Layer_1
  10
44.249725
  20
338.39981
  0
VERTEX
  5
a0
  8
Layer_1
  10
32.512222
  20
338.39981
  0
VERTEX
  5
a1
  8
Layer_1
  10
32.512222
  20
333.39981
  0
VERTEX
  5
a2
  8
Layer_1
  10
29.512222
  20
333.39981
  0
VERTEX
  5
a3
  8
Layer_1
  10
29.512222
  20
303.39981
  0
VERTEX
  5
a4
  8
Layer_1
  10
32.512222
  20
303.39981
  0
VERTEX
  5
a5
  8
Layer_1
  10
32.512222
  20
298.39981
  0
VERTEX
  5
a6
  8
Layer_1
  10
44.249725
  20
298.39981
  0
VERTEX
  5
a7
  8
Layer_1
  10
44.249725
  20
301.39981
  0
VERTEX
  5
a8
  8
Layer_1
  10
59.049725
  20
301.39981
  0
VERTEX
  5
a9
  8
Layer_1
  10
59.049725
  20
298.39981
  0
VERTEX
  5
aa
  8
Layer_1
  10
82.524727
  20
298.39981
  0
VERTEX
  5
ab
  8
Layer_1
  10
82.524727
  20
301.39981
  0
VERTEX
  5
ac
  8
Layer_1
  10
97.324722
  20
301.39981
  0
VERTEX
  5
ad
  8
Layer_1
  10
97.324722
  20
298.39981
  0
VERTEX
  5
ae
  8
Layer_1
  10
109.06223
  20
298.39981
  0
VERTEX
  5
af
  8
Layer_1
  10
109.06223
  20
303.39981
  0
SEQEND
  0
POLYLINE
  5
b1
  8
Layer_1
  62
1
  66
1
  10
0
  20
0
  30
0
  0
VERTEX
  5
b1
  8
Layer_1
  10
106.06223
  20
323.39981
  0
VERTEX
  5
b2
  8
Layer_1
  10
81.062225
  20
323.39981
  0
VERTEX
  5
b3
  8
Layer_1
  10
81.062225
  20
313.39981
  0
VERTEX
  5
b4
  8
Layer_1
  10
106.06223
  20
313.39981
  0
VERTEX
  5
b5
  8
Layer_1
  10
106.06223
  20
323.39981
  0
SEQEND
  0
ENDSEC
  0
EOF
