  0
SECTION
  2
HEADER
  9
$ACADVER
  1
AC1009
  0
ENDSEC
  0
SECTION
  2
ENTITIES
  0
CIRCLE
  5
90
  8
Layer_0
  62
1
  10
117.83807
  20
245.96577
  30
0
  40
1.5
  0
CIRCLE
  5
90
  8
Layer_0
  62
1
  10
117.83807
  20
348.16577
  30
0
  40
1.5
  0
CIRCLE
  5
90
  8
Layer_0
  62
1
  10
152.83807
  20
348.16577
  30
0
  40
1.5
  0
CIRCLE
  5
90
  8
Layer_0
  62
1
  10
152.83807
  20
245.96577
  30
0
  40
1.5
  0
CIRCLE
  5
90
  8
Layer_0
  62
1
  10
135.33807
  20
275.31577
  30
0
  40
4
  0
CIRCLE
  5
90
  8
Layer_0
  62
1
  10
135.33807
  20
318.81577
  30
0
  40
4
  0
CIRCLE
  5
90
  8
Layer_0
  62
1
  10
147.33807
  20
275.06577
  30
0
  40
1.5
  0
CIRCLE
  5
90
  8
Layer_0
  62
1
  10
123.33807
  20
275.06577
  30
0
  40
1.5
  0
CIRCLE
  5
90
  8
Layer_0
  62
1
  10
147.33807
  20
319.06577
  30
0
  40
1.5
  0
CIRCLE
  5
90
  8
Layer_0
  62
1
  10
123.33807
  20
319.06577
  30
0
  40
1.5
  0
POLYLINE
  5
90
  8
Layer_0
  62
1
  66
1
  10
0
  20
0
  30
0
  0
VERTEX
  5
90
  8
Layer_0
  10
112.83807
  20
282.11578
  0
VERTEX
  5
91
  8
Layer_0
  10
109.83807
  20
282.11578
  0
VERTEX
  5
92
  8
Layer_0
  10
109.83807
  20
312.01578
  0
VERTEX
  5
93
  8
Layer_0
  10
112.83807
  20
312.01578
  0
VERTEX
  5
94
  8
Layer_0
  10
112.83807
  20
335.66577
  0
VERTEX
  5
95
  8
Layer_0
  10
109.83807
  20
335.66577
  0
VERTEX
  5
96
  8
Layer_0
  10
109.83807
  20
350.66577
  0
VERTEX
  5
97
  8
Layer_0
  10
112.83807
  20
350.66577
  0
VERTEX
  5
98
  8
Layer_0
  10
112.83807
  20
356.16577
  0
VERTEX
  5
99
  8
Layer_0
  10
120.38808
  20
356.16577
  0
VERTEX
  5
9a
  8
Layer_0
  10
120.38808
  20
353.16577
  0
VERTEX
  5
9b
  8
Layer_0
  10
150.28807
  20
353.16577
  0
VERTEX
  5
9c
  8
Layer_0
  10
150.28807
  20
356.16577
  0
VERTEX
  5
9d
  8
Layer_0
  10
157.83807
  20
356.16577
  0
VERTEX
  5
9e
  8
Layer_0
  10
157.83807
  20
350.66577
  0
VERTEX
  5
9f
  8
Layer_0
  10
160.83807
  20
350.66577
  0
VERTEX
  5
a0
  8
Layer_0
  10
160.83807
  20
335.66577
  0
VERTEX
  5
a1
  8
Layer_0
  10
157.83807
  20
335.66577
  0
VERTEX
  5
a2
  8
Layer_0
  10
157.83807
  20
312.01578
  0
VERTEX
  5
a3
  8
Layer_0
  10
160.83807
  20
312.01578
  0
VERTEX
  5
a4
  8
Layer_0
  10
160.83807
  20
282.11578
  0
VERTEX
  5
a5
  8
Layer_0
  10
157.83807
  20
282.11578
  0
VERTEX
  5
a6
  8
Layer_0
  10
157.83807
  20
258.46577
  0
VERTEX
  5
a7
  8
Layer_0
  10
160.83807
  20
258.46577
  0
VERTEX
  5
a8
  8
Layer_0
  10
160.83807
  20
243.46577
  0
VERTEX
  5
a9
  8
Layer_0
  10
157.83807
  20
243.46577
  0
VERTEX
  5
aa
  8
Layer_0
  10
157.83807
  20
237.96577
  0
VERTEX
  5
ab
  8
Layer_0
  10
150.28807
  20
237.96577
  0
VERTEX
  5
ac
  8
Layer_0
  10
150.28807
  20
240.96577
  0
VERTEX
  5
ad
  8
Layer_0
  10
120.38808
  20
240.96577
  0
VERTEX
  5
ae
  8
Layer_0
  10
120.38808
  20
237.96577
  0
VERTEX
  5
af
  8
Layer_0
  10
112.83807
  20
237.96577
  0
VERTEX
  5
b0
  8
Layer_0
  10
112.83807
  20
243.46577
  0
VERTEX
  5
b1
  8
Layer_0
  10
109.83807
  20
243.46577
  0
VERTEX
  5
b2
  8
Layer_0
  10
109.83807
  20
258.46577
  0
VERTEX
  5
b3
  8
Layer_0
  10
112.83807
  20
258.46577
  0
VERTEX
  5
b4
  8
Layer_0
  10
112.83807
  20
282.11578
  0
SEQEND
  0
POLYLINE
  5
b6
  8
Layer_0
  62
1
  66
1
  10
0
  20
0
  30
0
  0
VERTEX
  5
b6
  8
Layer_0
  10
120.38808
  20
267.06578
  0
VERTEX
  5
b7
  8
Layer_0
  10
120.38808
  20
270.06577
  0
VERTEX
  5
b8
  8
Layer_0
  10
150.28807
  20
270.06577
  0
VERTEX
  5
b9
  8
Layer_0
  10
150.28807
  20
267.06578
  0
VERTEX
  5
ba
  8
Layer_0
  10
120.38808
  20
267.06578
  0
SEQEND
  0
POLYLINE
  5
bc
  8
Layer_0
  62
1
  66
1
  10
0
  20
0
  30
0
  0
VERTEX
  5
bc
  8
Layer_0
  10
155.33807
  20
282.11578
  0
VERTEX
  5
bd
  8
Layer_0
  10
152.33807
  20
282.11578
  0
VERTEX
  5
be
  8
Layer_0
  10
152.33807
  20
312.01578
  0
VERTEX
  5
bf
  8
Layer_0
  10
155.33807
  20
312.01578
  0
VERTEX
  5
c0
  8
Layer_0
  10
155.33807
  20
282.11578
  0
SEQEND
  0
POLYLINE
  5
c2
  8
Layer_0
  62
1
  66
1
  10
0
  20
0
  30
0
  0
VERTEX
  5
c2
  8
Layer_0
  10
118.33807
  20
282.11578
  0
VERTEX
  5
c3
  8
Layer_0
  10
118.33807
  20
312.01578
  0
VERTEX
  5
c4
  8
Layer_0
  10
115.33807
  20
312.01578
  0
VERTEX
  5
c5
  8
Layer_0
  10
115.33807
  20
282.11578
  0
VERTEX
  5
c6
  8
Layer_0
  10
118.33807
  20
282.11578
  0
SEQEND
  0
POLYLINE
  5
c8
  8
Layer_0
  62
1
  66
1
  10
0
  20
0
  30
0
  0
VERTEX
  5
c8
  8
Layer_0
  10
120.38808
  20
324.06577
  0
VERTEX
  5
c9
  8
Layer_0
  10
150.28807
  20
324.06577
  0
VERTEX
  5
ca
  8
Layer_0
  10
150.28807
  20
327.06577
  0
VERTEX
  5
cb
  8
Layer_0
  10
120.38808
  20
327.06577
  0
VERTEX
  5
cc
  8
Layer_0
  10
120.38808
  20
324.06577
  0
SEQEND
  0
ENDSEC
  0
EOF
