0
SECTION
2
HEADER
9
$INSUNITS
70
4
9
$ACADVER
1
AC1014
9
$HANDSEED
5
FFFF
0
ENDSEC
0
SECTION
2
TABLES
0
TABLE
2
VPORT
5
8
100
AcDbSymbolTable
0
ENDTAB
0
TABLE
2
LTYPE
5
5
100
AcDbSymbolTable
0
LTYPE
5
14
100
AcDbSymbolTableRecord
100
AcDbLinetypeTableRecord
2
BYBLOCK
70
0
0
LTYPE
5
15
100
AcDbSymbolTableRecord
100
AcDbLinetypeTableRecord
2
BYLAYER
70
0
0
ENDTAB
0
TABLE
2
LAYER
5
2
100
AcDbSymbolTable
70
2
0
LAYER
5
50
100
AcDbSymbolTableRecord
100
AcDbLayerTableRecord
2
0
70
0
6
CONTINUOUS
0
ENDTAB
0
TABLE
2
STYLE
5
3
100
AcDbSymbolTable
70
1
0
STYLE
5
11
100
AcDbSymbolTableRecord
100
AcDbTextStyleTableRecord
2
STANDARD
70
0
0
ENDTAB
0
TABLE
2
VIEW
5
6
100
AcDbSymbolTable
70
0
0
ENDTAB
0
TABLE
2
UCS
5
7
100
AcDbSymbolTable
70
0
0
ENDTAB
0
TABLE
2
APPID
5
9
100
AcDbSymbolTable
70
2
0
APPID
5
12
100
AcDbSymbolTableRecord
100
AcDbRegAppTableRecord
2
ACAD
70
0
0
ENDTAB
0
TABLE
2
DIMSTYLE
5
A
100
AcDbSymbolTable
70
1
0
ENDTAB
0
TABLE
2
BLOCK_RECORD
5
1
100
AcDbSymbolTable
70
1
0
BLOCK_RECORD
5
1F
100
AcDbSymbolTableRecord
100
AcDbBlockTableRecord
2
*MODEL_SPACE
0
BLOCK_RECORD
5
1B
100
AcDbSymbolTableRecord
100
AcDbBlockTableRecord
2
*PAPER_SPACE
0
ENDTAB
0
ENDSEC
0
SECTION
2
BLOCKS
0
BLOCK
5
20
100
AcDbEntity
100
AcDbBlockBegin
2
*MODEL_SPACE
0
ENDBLK
5
21
100
AcDbEntity
100
AcDbBlockEnd
0
BLOCK
5
1C
100
AcDbEntity
100
AcDbBlockBegin
2
*PAPER_SPACE
0
ENDBLK
5
1D
100
AcDbEntity
100
AcDbBlockEnd
0
ENDSEC
0
SECTION
2
ENTITIES
0
LINE
5
100
100
AcDbEntity
8
0
100
AcDbLine
10
0
20
14.950000000000001
30
0
11
0
21
33.100000000000009
31
0
0
LINE
5
101
100
AcDbEntity
8
0
100
AcDbLine
10
0
20
0
30
0
11
31.000000000000011
21
-1.8982025386783983e-15
31
0
0
LINE
5
102
100
AcDbEntity
8
0
100
AcDbLine
10
-75.000000000000497
20
51
30
0
11
-72.000000000000256
21
51.000000000000007
31
0
0
LINE
5
103
100
AcDbEntity
8
0
100
AcDbLine
10
-72.000000000000256
20
51.000000000000007
30
0
11
-72.000000000000256
21
41.20000000000001
31
0
0
LINE
5
104
100
AcDbEntity
8
0
100
AcDbLine
10
-72.000000000000256
20
41.20000000000001
30
0
11
-75.000000000000355
21
41.20000000000001
31
0
0
LINE
5
105
100
AcDbEntity
8
0
100
AcDbLine
10
-7.0500000000002778
20
59.100000000000001
30
0
11
-7.0500000000002778
21
56.099999999999824
31
0
0
LINE
5
106
100
AcDbEntity
8
0
100
AcDbLine
10
-7.0500000000002778
20
56.099999999999824
30
0
11
-36.950000000000252
21
56.099999999999753
31
0
0
LINE
5
107
100
AcDbEntity
8
0
100
AcDbLine
10
-36.950000000000252
20
56.099999999999753
30
0
11
-36.95000000000023
21
59.100000000000001
31
0
0
LINE
5
108
100
AcDbEntity
8
0
100
AcDbLine
10
30.999999999999712
20
53.5
30
0
11
27.999999999999467
21
53.5
31
0
0
LINE
5
109
100
AcDbEntity
8
0
100
AcDbLine
10
27.999999999999467
20
53.5
30
0
11
27.999999999999467
21
38.699999999999989
31
0
0
LINE
5
110
100
AcDbEntity
8
0
100
AcDbLine
10
27.999999999999467
20
38.699999999999989
30
0
11
30.999999999999758
21
38.70000000000001
31
0
0
LINE
5
111
100
AcDbEntity
8
0
100
AcDbLine
10
31.000000000000011
20
14.950000000000001
30
0
11
27.999999999999979
21
14.949999999999999
31
0
0
LINE
5
112
100
AcDbEntity
8
0
100
AcDbLine
10
27.999999999999979
20
14.949999999999999
30
0
11
27.999999999999993
21
-1.7145055188062946e-15
31
0
0
LINE
5
113
100
AcDbEntity
8
0
100
AcDbLine
10
-30.099999999999966
20
33.100000000000009
30
0
11
-30.099999999999966
21
36.100000000000023
31
0
0
LINE
5
114
100
AcDbEntity
8
0
100
AcDbLine
10
-30.099999999999966
20
36.100000000000023
30
0
11
-44.899999999999963
21
36.10000000000003
31
0
0
LINE
5
115
100
AcDbEntity
8
0
100
AcDbLine
10
-44.899999999999963
20
36.10000000000003
30
0
11
-44.899999999999963
21
33.100000000000009
31
0
0
CIRCLE
5
116
100
AcDbEntity
8
0
100
AcDbCircle
10
22.999999999999467
20
51.099999999999824
30
0
40
1.5000000000000002
210
0
220
0
230
1
0
CIRCLE
5
117
100
AcDbEntity
8
0
100
AcDbCircle
10
-67.000000000000256
20
51.099999999999824
30
0
40
1.5000000000000002
210
0
220
0
230
1
0
CIRCLE
5
118
100
AcDbEntity
8
0
100
AcDbCircle
10
-66.999999999999943
20
41.100000000000023
30
0
40
1.5000000000000002
210
0
220
0
230
1
0
LINE
5
119
100
AcDbEntity
8
0
100
AcDbLine
10
0
20
14.950000000000001
30
0
11
3.0000000000000315
21
14.950000000000001
31
0
0
LINE
5
120
100
AcDbEntity
8
0
100
AcDbLine
10
3.0000000000000315
20
14.950000000000001
30
0
11
3.0000000000000329
21
-1.8369701987210504e-16
31
0
0
CIRCLE
5
121
100
AcDbEntity
8
0
100
AcDbCircle
10
8.0000000000000302
20
-4.8985871965894335e-16
30
0
40
1.5000000000000002
210
0
220
0
230
1
0
CIRCLE
5
122
100
AcDbEntity
8
0
100
AcDbCircle
10
22.999999999999993
20
-1.4083438190194562e-15
30
0
40
1.5000000000000002
210
0
220
0
230
1
0
LINE
5
123
100
AcDbEntity
8
0
100
AcDbLine
10
0
20
33.100000000000009
30
0
11
-30.099999999999966
21
33.100000000000009
31
0
0
LINE
5
124
100
AcDbEntity
8
0
100
AcDbLine
10
-44.899999999999963
20
33.100000000000009
30
0
11
-74.999999999999972
21
33.100000000000009
31
0
0
LINE
5
125
100
AcDbEntity
8
0
100
AcDbLine
10
-74.999999999999972
20
33.100000000000009
30
0
11
-75.000000000000355
21
41.20000000000001
31
0
0
LINE
5
126
100
AcDbEntity
8
0
100
AcDbLine
10
-75.000000000000497
20
51
30
0
11
-75.000000000000512
21
59.100000000000001
31
0
0
LINE
5
127
100
AcDbEntity
8
0
100
AcDbLine
10
-75.000000000000512
20
59.100000000000001
30
0
11
-36.95000000000023
21
59.100000000000001
31
0
0
LINE
5
128
100
AcDbEntity
8
0
100
AcDbLine
10
-7.0500000000002778
20
59.100000000000001
30
0
11
30.999999999999702
21
59.100000000000001
31
0
0
LINE
5
129
100
AcDbEntity
8
0
100
AcDbLine
10
30.999999999999702
20
59.100000000000001
30
0
11
30.999999999999712
21
53.5
31
0
0
LINE
5
130
100
AcDbEntity
8
0
100
AcDbLine
10
30.999999999999758
20
38.70000000000001
30
0
11
31.000000000000011
21
14.950000000000001
31
0
0
LINE
5
131
100
AcDbEntity
8
0
100
AcDbLine
10
0
20
0
30
0
11
6.5926958663793353e-16
21
10.76668941766626
31
0
0
LINE
5
132
100
AcDbEntity
8
0
100
AcDbLine
10
-72.000000000000256
20
-51.000000000000007
30
0
11
-72.000000000000256
21
-41.200000000000003
31
0
0
LINE
5
133
100
AcDbEntity
8
0
100
AcDbLine
10
-74.999999999999972
20
-33.099999999999994
30
0
11
-75.000000000000355
21
-41.199999999999989
31
0
0
LINE
5
134
100
AcDbEntity
8
0
100
AcDbLine
10
-4.0535809051777411e-15
20
-33.100000000000009
30
0
11
-30.099999999999973
21
-33.100000000000009
31
0
0
LINE
5
135
100
AcDbEntity
8
0
100
AcDbLine
10
-75.000000000000497
20
-50.999999999999979
30
0
11
-72.000000000000256
21
-51.000000000000007
31
0
0
LINE
5
136
100
AcDbEntity
8
0
100
AcDbLine
10
-30.099999999999973
20
-36.100000000000023
30
0
11
-44.899999999999963
21
-36.100000000000023
31
0
0
LINE
5
137
100
AcDbEntity
8
0
100
AcDbLine
10
3.0000000000000298
20
-14.950000000000001
30
0
11
3.0000000000000329
21
-1.8369701987210504e-16
31
0
0
LINE
5
138
100
AcDbEntity
8
0
100
AcDbLine
10
-1.8308469647252937e-15
20
-14.950000000000001
30
0
11
3.0000000000000298
21
-14.950000000000001
31
0
0
LINE
5
139
100
AcDbEntity
8
0
100
AcDbLine
10
-75.000000000000497
20
-50.999999999999979
30
0
11
-75.000000000000512
21
-59.09999999999998
31
0
0
LINE
5
140
100
AcDbEntity
8
0
100
AcDbLine
10
-1.8308469647252937e-15
20
-14.950000000000001
30
0
11
-4.0535809051777411e-15
21
-33.100000000000009
31
0
0
LINE
5
141
100
AcDbEntity
8
0
100
AcDbLine
10
-30.099999999999973
20
-33.100000000000009
30
0
11
-30.099999999999973
21
-36.100000000000023
31
0
0
LINE
5
142
100
AcDbEntity
8
0
100
AcDbLine
10
-72.000000000000256
20
-41.200000000000003
30
0
11
-75.000000000000355
21
-41.199999999999989
31
0
0
LINE
5
143
100
AcDbEntity
8
0
100
AcDbLine
10
27.99999999999946
20
-38.699999999999989
30
0
11
30.999999999999751
21
-38.70000000000001
31
0
0
LINE
5
144
100
AcDbEntity
8
0
100
AcDbLine
10
-7.0500000000002849
20
-59.100000000000001
30
0
11
-7.0500000000002849
21
-56.099999999999824
31
0
0
LINE
5
145
100
AcDbEntity
8
0
100
AcDbLine
10
-44.899999999999963
20
-36.100000000000023
30
0
11
-44.899999999999963
21
-33.100000000000001
31
0
0
CIRCLE
5
146
100
AcDbEntity
8
0
100
AcDbCircle
10
22.999999999999456
20
-51.099999999999824
30
0
40
1.5000000000000002
210
0
220
0
230
1
0
LINE
5
147
100
AcDbEntity
8
0
100
AcDbLine
10
30.999999999999691
20
-59.100000000000001
30
0
11
30.999999999999702
21
-53.5
31
0
0
LINE
5
148
100
AcDbEntity
8
0
100
AcDbLine
10
30.999999999999702
20
-53.5
30
0
11
27.999999999999456
21
-53.5
31
0
0
LINE
5
149
100
AcDbEntity
8
0
100
AcDbLine
10
27.999999999999979
20
-14.950000000000003
30
0
11
27.999999999999993
21
-1.7145055188062952e-15
31
0
0
LINE
5
150
100
AcDbEntity
8
0
100
AcDbLine
10
27.999999999999456
20
-53.5
30
0
11
27.99999999999946
21
-38.699999999999989
31
0
0
LINE
5
151
100
AcDbEntity
8
0
100
AcDbLine
10
-44.899999999999963
20
-33.100000000000001
30
0
11
-74.999999999999972
21
-33.099999999999994
31
0
0
LINE
5
152
100
AcDbEntity
8
0
100
AcDbLine
10
31.000000000000011
20
-14.950000000000006
30
0
11
27.999999999999979
21
-14.950000000000003
31
0
0
LINE
5
153
100
AcDbEntity
8
0
100
AcDbLine
10
30.999999999999751
20
-38.70000000000001
30
0
11
31.000000000000011
21
-14.950000000000006
31
0
0
CIRCLE
5
154
100
AcDbEntity
8
0
100
AcDbCircle
10
-66.999999999999943
20
-41.100000000000023
30
0
40
1.5000000000000002
210
0
220
0
230
1
0
LINE
5
155
100
AcDbEntity
8
0
100
AcDbLine
10
-7.0500000000002849
20
-59.100000000000001
30
0
11
30.999999999999691
21
-59.100000000000001
31
0
0
LINE
5
156
100
AcDbEntity
8
0
100
AcDbLine
10
-75.000000000000512
20
-59.09999999999998
30
0
11
-36.950000000000237
21
-59.100000000000001
31
0
0
LINE
5
157
100
AcDbEntity
8
0
100
AcDbLine
10
-36.950000000000287
20
-56.099999999999753
30
0
11
-36.950000000000237
21
-59.100000000000001
31
0
0
CIRCLE
5
158
100
AcDbEntity
8
0
100
AcDbCircle
10
-67.000000000000256
20
-51.099999999999824
30
0
40
1.5000000000000002
210
0
220
0
230
1
0
LINE
5
159
100
AcDbEntity
8
0
100
AcDbLine
10
-7.0500000000002849
20
-56.099999999999824
30
0
11
-36.950000000000287
21
-56.099999999999753
31
0
0
LWPOLYLINE
5
160
100
AcDbEntity
8
0
100
AcDbPolyline
90
4
70
1
43
0.0
10
15.999999999999908
20
43.600000000000023
10
-2.0000000000000928
20
43.600000000000023
42
-0.99999999999999989
10
-2.0000000000000928
20
48.600000000000023
10
15.999999999999908
20
48.600000000000023
42
-0.99999999999999989
0
LWPOLYLINE
5
161
100
AcDbEntity
8
0
100
AcDbPolyline
90
4
70
1
43
0.0
10
15.999999999999904
20
-48.600000000000023
10
-2.0000000000000986
20
-48.600000000000023
42
-0.99999999999999989
10
-2.0000000000000995
20
-43.600000000000023
10
15.999999999999904
20
-43.600000000000023
42
-0.99999999999999989
0
CIRCLE
5
162
100
AcDbEntity
8
0
100
AcDbCircle
10
-5
20
41.100000000000023
30
0
40
1.5000000000000002
210
0
220
0
230
1
0
CIRCLE
5
163
100
AcDbEntity
8
0
100
AcDbCircle
10
-5.0000000000000053
20
-41.100000000000023
30
0
40
1.5000000000000002
210
0
220
0
230
1
0
CIRCLE
5
164
100
AcDbEntity
8
0
100
AcDbCircle
10
-2.0000000000000928
20
46.100000000000023
30
0
40
9.5000000000000036
210
0
220
0
230
1
0
LINE
5
165
100
AcDbEntity
8
0
100
AcDbLine
10
-131.16312516195546
20
-7.8741451952225239
30
0
11
-130
21
-7.8741451952225239
31
0
0
CIRCLE
5
166
100
AcDbEntity
8
0
100
AcDbCircle
10
7.5000000000000302
20
17.649999999999991
30
0
40
1.7500000000000002
210
0
220
0
230
1
0
CIRCLE
5
167
100
AcDbEntity
8
0
100
AcDbCircle
10
7.5000000000000302
20
7.649999999999995
30
0
40
1.7500000000000002
210
0
220
0
230
1
0
LWPOLYLINE
5
168
100
AcDbEntity
8
0
100
AcDbPolyline
90
4
70
1
43
0.0
10
10.000000000000032
20
20.149999999999991
10
5.0000000000000311
20
20.149999999999991
10
5.0000000000000302
20
5.1499999999999968
10
10.000000000000032
20
5.1499999999999968
0
LINE
5
169
100
AcDbEntity
8
0
100
AcDbLine
10
8.0000000000000302
20
-4.8985871965894335e-16
30
0
11
8.0000000000000302
21
4.9999999999999991
31
0
0
CIRCLE
5
170
100
AcDbEntity
8
0
100
AcDbCircle
10
-2.0000000000000928
20
46.100000000000023
30
0
40
2.5000000000000004
210
0
220
0
230
1
0
CIRCLE
5
171
100
AcDbEntity
8
0
100
AcDbCircle
10
3.9999999999999081
20
46.100000000000023
30
0
40
2.4999999999999996
210
0
220
0
230
1
0
CIRCLE
5
172
100
AcDbEntity
8
0
100
AcDbCircle
10
15.999999999999908
20
46.100000000000023
30
0
40
2.5
210
0
220
0
230
1
0
CIRCLE
5
173
100
AcDbEntity
8
0
100
AcDbCircle
10
9.9999999999999076
20
46.100000000000023
30
0
40
2.4999999999999973
210
0
220
0
230
1
0
CIRCLE
5
174
100
AcDbEntity
8
0
100
AcDbCircle
10
-2.0000000000000986
20
-46.100000000000023
30
0
40
2.5000000000000004
210
0
220
0
230
1
0
CIRCLE
5
175
100
AcDbEntity
8
0
100
AcDbCircle
10
3.9999999999999023
20
-46.100000000000023
30
0
40
2.4999999999999996
210
0
220
0
230
1
0
CIRCLE
5
176
100
AcDbEntity
8
0
100
AcDbCircle
10
9.9999999999999023
20
-46.100000000000023
30
0
40
2.4999999999999973
210
0
220
0
230
1
0
CIRCLE
5
177
100
AcDbEntity
8
0
100
AcDbCircle
10
15.999999999999901
20
-46.100000000000023
30
0
40
2.5
210
0
220
0
230
1
0
ENDSEC
0
SECTION
2
OBJECTS
0
DICTIONARY
5
C
100
AcDbDictionary
3
ACAD_GROUP
350
D
3
ACAD_MLINESTYLE
350
17
0
DICTIONARY
5
D
100
AcDbDictionary
0
DICTIONARY
5
1A
330
C
100
AcDbDictionary
0
DICTIONARY
5
17
100
AcDbDictionary
0
ENDSEC
0
EOF
