  0
SECTION
  2
HEADER
  9
$ACADVER
  1
AC1009
  0
ENDSEC
  0
SECTION
  2
ENTITIES
  0
CIRCLE
  5
90
  8
Layer_1
  62
1
  10
316.96445
  20
308.99673
  30
0
  40
1.5
  0
CIRCLE
  5
90
  8
Layer_1
  62
1
  10
226.96445
  20
308.99673
  30
0
  40
1.5
  0
CIRCLE
  5
90
  8
Layer_1
  62
1
  10
226.96445
  20
298.99673
  30
0
  40
1.5
  0
CIRCLE
  5
90
  8
Layer_1
  62
1
  10
301.96445
  20
257.89673
  30
0
  40
1.5
  0
CIRCLE
  5
90
  8
Layer_1
  62
1
  10
316.96445
  20
257.89673
  30
0
  40
1.5
  0
CIRCLE
  5
90
  8
Layer_1
  62
1
  10
316.96445
  20
206.79675
  30
0
  40
1.5
  0
CIRCLE
  5
90
  8
Layer_1
  62
1
  10
226.96445
  20
216.79675
  30
0
  40
1.5
  0
CIRCLE
  5
90
  8
Layer_1
  62
1
  10
226.96445
  20
206.79675
  30
0
  40
1.5
  0
CIRCLE
  5
90
  8
Layer_1
  62
1
  10
288.96445
  20
298.99673
  30
0
  40
1.5
  0
CIRCLE
  5
90
  8
Layer_1
  62
1
  10
288.96445
  20
216.79675
  30
0
  40
1.5
  0
CIRCLE
  5
90
  8
Layer_1
  62
1
  10
291.96445
  20
303.99673
  30
0
  40
2.5
  0
CIRCLE
  5
90
  8
Layer_1
  62
1
  10
297.96445
  20
303.99673
  30
0
  40
2.5
  0
CIRCLE
  5
90
  8
Layer_1
  62
1
  10
309.96445
  20
303.99673
  30
0
  40
2.5
  0
CIRCLE
  5
90
  8
Layer_1
  62
1
  10
303.96445
  20
303.99673
  30
0
  40
2.5
  0
CIRCLE
  5
90
  8
Layer_1
  62
1
  10
291.96445
  20
211.79675
  30
0
  40
2.5
  0
CIRCLE
  5
90
  8
Layer_1
  62
1
  10
297.96445
  20
211.79675
  30
0
  40
2.5
  0
CIRCLE
  5
90
  8
Layer_1
  62
1
  10
303.96445
  20
211.79675
  30
0
  40
2.5
  0
CIRCLE
  5
90
  8
Layer_1
  62
1
  10
309.96445
  20
211.79675
  30
0
  40
2.5
  0
POLYLINE
  5
90
  8
Layer_1
  62
1
  66
1
  10
0
  20
0
  30
0
  0
VERTEX
  5
90
  8
Layer_1
  10
296.96445
  20
272.84674
  0
VERTEX
  5
91
  8
Layer_1
  10
296.96445
  20
257.89674
  0
VERTEX
  5
92
  8
Layer_1
  10
296.96445
  20
242.94675
  0
VERTEX
  5
93
  8
Layer_1
  10
293.96445
  20
242.94675
  0
VERTEX
  5
94
  8
Layer_1
  10
293.96445
  20
224.79675
  0
VERTEX
  5
95
  8
Layer_1
  10
263.86444
  20
224.79675
  0
VERTEX
  5
96
  8
Layer_1
  10
263.86444
  20
221.79675
  0
VERTEX
  5
97
  8
Layer_1
  10
249.06445
  20
221.79675
  0
VERTEX
  5
98
  8
Layer_1
  10
249.06445
  20
224.79675
  0
VERTEX
  5
99
  8
Layer_1
  10
218.96445
  20
224.79675
  0
VERTEX
  5
9a
  8
Layer_1
  10
218.96445
  20
216.69675
  0
VERTEX
  5
9b
  8
Layer_1
  10
221.96445
  20
216.69675
  0
VERTEX
  5
9c
  8
Layer_1
  10
221.96445
  20
206.89674
  0
VERTEX
  5
9d
  8
Layer_1
  10
218.96445
  20
206.89674
  0
VERTEX
  5
9e
  8
Layer_1
  10
218.96445
  20
198.79675
  0
VERTEX
  5
9f
  8
Layer_1
  10
257.01443
  20
198.79675
  0
VERTEX
  5
a0
  8
Layer_1
  10
257.01443
  20
201.79675
  0
VERTEX
  5
a1
  8
Layer_1
  10
286.91446
  20
201.79675
  0
VERTEX
  5
a2
  8
Layer_1
  10
286.91446
  20
198.79675
  0
VERTEX
  5
a3
  8
Layer_1
  10
324.96445
  20
198.79675
  0
VERTEX
  5
a4
  8
Layer_1
  10
324.96445
  20
204.39674
  0
VERTEX
  5
a5
  8
Layer_1
  10
321.96445
  20
204.39674
  0
VERTEX
  5
a6
  8
Layer_1
  10
321.96445
  20
219.19675
  0
VERTEX
  5
a7
  8
Layer_1
  10
324.96445
  20
219.19675
  0
VERTEX
  5
a8
  8
Layer_1
  10
324.96445
  20
242.94675
  0
VERTEX
  5
a9
  8
Layer_1
  10
321.96445
  20
242.94675
  0
VERTEX
  5
aa
  8
Layer_1
  10
321.96445
  20
257.89674
  0
VERTEX
  5
ab
  8
Layer_1
  10
321.96445
  20
272.84674
  0
VERTEX
  5
ac
  8
Layer_1
  10
324.96445
  20
272.84674
  0
VERTEX
  5
ad
  8
Layer_1
  10
324.96445
  20
296.59674
  0
VERTEX
  5
ae
  8
Layer_1
  10
321.96445
  20
296.59674
  0
VERTEX
  5
af
  8
Layer_1
  10
321.96445
  20
311.39674
  0
VERTEX
  5
b0
  8
Layer_1
  10
324.96445
  20
311.39674
  0
VERTEX
  5
b1
  8
Layer_1
  10
324.96445
  20
316.99674
  0
VERTEX
  5
b2
  8
Layer_1
  10
286.91446
  20
316.99674
  0
VERTEX
  5
b3
  8
Layer_1
  10
286.91446
  20
313.99674
  0
VERTEX
  5
b4
  8
Layer_1
  10
257.01443
  20
313.99674
  0
VERTEX
  5
b5
  8
Layer_1
  10
257.01443
  20
316.99674
  0
VERTEX
  5
b6
  8
Layer_1
  10
218.96445
  20
316.99674
  0
VERTEX
  5
b7
  8
Layer_1
  10
218.96445
  20
308.89674
  0
VERTEX
  5
b8
  8
Layer_1
  10
221.96445
  20
308.89674
  0
VERTEX
  5
b9
  8
Layer_1
  10
221.96445
  20
299.09674
  0
VERTEX
  5
ba
  8
Layer_1
  10
218.96445
  20
299.09674
  0
VERTEX
  5
bb
  8
Layer_1
  10
218.96445
  20
290.99674
  0
VERTEX
  5
bc
  8
Layer_1
  10
249.06445
  20
290.99674
  0
VERTEX
  5
bd
  8
Layer_1
  10
249.06445
  20
293.99674
  0
VERTEX
  5
be
  8
Layer_1
  10
263.86444
  20
293.99674
  0
VERTEX
  5
bf
  8
Layer_1
  10
263.86444
  20
290.99674
  0
VERTEX
  5
c0
  8
Layer_1
  10
293.96445
  20
290.99674
  0
VERTEX
  5
c1
  8
Layer_1
  10
293.96445
  20
272.84674
  0
VERTEX
  5
c2
  8
Layer_1
  10
296.96445
  20
272.84674
  0
SEQEND
  0
POLYLINE
  5
c4
  8
Layer_0
  62
0
  66
1
  10
0
  20
0
  30
0
  0
VERTEX
  5
c4
  8
Layer_0
  10
162.80132
  20
250.0226
  0
VERTEX
  5
c5
  8
Layer_0
  10
163.96445
  20
250.0226
  0
SEQEND
  0
ENDSEC
  0
EOF
