  0
SECTION
  2
HEADER
  9
$ACADVER
  1
AC1009
  0
ENDSEC
  0
SECTION
  2
ENTITIES
  0
CIRCLE
  5
90
  8
Layer_0
  62
1
  10
73.929375
  20
291.72726
  30
0
  40
1.5
  0
CIRCLE
  5
90
  8
Layer_0
  62
1
  10
73.929375
  20
347.92725
  30
0
  40
1.5
  0
CIRCLE
  5
90
  8
Layer_0
  62
1
  10
108.92937
  20
291.72726
  30
0
  40
1.5
  0
CIRCLE
  5
90
  8
Layer_0
  62
1
  10
108.92937
  20
347.92725
  30
0
  40
1.5
  0
CIRCLE
  5
90
  8
Layer_0
  62
1
  10
108.92937
  20
319.82727
  30
0
  40
1.5
  0
CIRCLE
  5
90
  8
Layer_0
  62
1
  10
73.929375
  20
319.82727
  30
0
  40
1.5
  0
CIRCLE
  5
90
  8
Layer_0
  62
1
  10
91.429375
  20
298.07727
  30
0
  40
6.5
  0
CIRCLE
  5
90
  8
Layer_0
  62
1
  10
91.429375
  20
341.57727
  30
0
  40
6.5
  0
POLYLINE
  5
90
  8
Layer_0
  62
1
  66
1
  10
0
  20
0
  30
0
  0
VERTEX
  5
90
  8
Layer_0
  10
68.929375
  20
304.82726
  0
VERTEX
  5
91
  8
Layer_0
  10
65.929375
  20
304.82726
  0
VERTEX
  5
92
  8
Layer_0
  10
65.929375
  20
334.82726
  0
VERTEX
  5
93
  8
Layer_0
  10
68.929375
  20
334.82726
  0
VERTEX
  5
94
  8
Layer_0
  10
68.929375
  20
355.92726
  0
VERTEX
  5
95
  8
Layer_0
  10
76.479378
  20
355.92726
  0
VERTEX
  5
96
  8
Layer_0
  10
76.479378
  20
352.92726
  0
VERTEX
  5
97
  8
Layer_0
  10
106.37938
  20
352.92726
  0
VERTEX
  5
98
  8
Layer_0
  10
106.37938
  20
355.92726
  0
VERTEX
  5
99
  8
Layer_0
  10
113.92937
  20
355.92726
  0
VERTEX
  5
9a
  8
Layer_0
  10
113.92937
  20
334.82726
  0
VERTEX
  5
9b
  8
Layer_0
  10
116.92937
  20
334.82726
  0
VERTEX
  5
9c
  8
Layer_0
  10
116.92937
  20
304.82726
  0
VERTEX
  5
9d
  8
Layer_0
  10
113.92937
  20
304.82726
  0
VERTEX
  5
9e
  8
Layer_0
  10
113.92937
  20
283.72726
  0
VERTEX
  5
9f
  8
Layer_0
  10
106.37938
  20
283.72726
  0
VERTEX
  5
a0
  8
Layer_0
  10
106.37938
  20
286.72726
  0
VERTEX
  5
a1
  8
Layer_0
  10
76.479378
  20
286.72726
  0
VERTEX
  5
a2
  8
Layer_0
  10
76.479378
  20
283.72726
  0
VERTEX
  5
a3
  8
Layer_0
  10
68.929375
  20
283.72726
  0
VERTEX
  5
a4
  8
Layer_0
  10
68.929375
  20
304.82726
  0
SEQEND
  0
ENDSEC
  0
EOF
