  0
SECTION
  2
HEADER
  9
$ACADVER
  1
AC1009
  0
ENDSEC
  0
SECTION
  2
ENTITIES
  0
POLYLINE
  5
90
  8
Layer_0
  62
0
  66
1
  10
0
  20
0
  30
0
  0
VERTEX
  5
90
  8
Layer_0
  10
-19.477951
  20
317.12323
  0
VERTEX
  5
91
  8
Layer_0
  10
-18.314819
  20
317.12323
  0
SEQEND
  0
CIRCLE
  5
93
  8
Layer_1
  62
1
  10
194.52864
  20
377.05542
  30
0
  40
1.5
  0
CIRCLE
  5
93
  8
Layer_1
  62
1
  10
104.52864
  20
377.05542
  30
0
  40
1.5
  0
CIRCLE
  5
93
  8
Layer_1
  62
1
  10
104.52864
  20
367.05542
  30
0
  40
1.5
  0
CIRCLE
  5
93
  8
Layer_1
  62
1
  10
179.52864
  20
325.95544
  30
0
  40
1.5
  0
CIRCLE
  5
93
  8
Layer_1
  62
1
  10
194.52864
  20
325.95544
  30
0
  40
1.5
  0
CIRCLE
  5
93
  8
Layer_1
  62
1
  10
194.52864
  20
274.85544
  30
0
  40
1.5
  0
CIRCLE
  5
93
  8
Layer_1
  62
1
  10
104.52864
  20
284.85544
  30
0
  40
1.5
  0
CIRCLE
  5
93
  8
Layer_1
  62
1
  10
104.52864
  20
274.85544
  30
0
  40
1.5
  0
CIRCLE
  5
93
  8
Layer_1
  62
1
  10
166.52864
  20
367.05542
  30
0
  40
1.5
  0
CIRCLE
  5
93
  8
Layer_1
  62
1
  10
166.52864
  20
284.85544
  30
0
  40
1.5
  0
POLYLINE
  5
93
  8
Layer_1
  62
1
  66
1
  10
0
  20
0
  30
0
  0
VERTEX
  5
93
  8
Layer_1
  10
174.52864
  20
340.90543
  0
VERTEX
  5
94
  8
Layer_1
  10
174.52864
  20
325.95543
  0
VERTEX
  5
95
  8
Layer_1
  10
174.52864
  20
311.00543
  0
VERTEX
  5
96
  8
Layer_1
  10
171.52864
  20
311.00543
  0
VERTEX
  5
97
  8
Layer_1
  10
171.52864
  20
292.85543
  0
VERTEX
  5
98
  8
Layer_1
  10
141.42863
  20
292.85543
  0
VERTEX
  5
99
  8
Layer_1
  10
141.42863
  20
289.85543
  0
VERTEX
  5
9a
  8
Layer_1
  10
126.62864
  20
289.85543
  0
VERTEX
  5
9b
  8
Layer_1
  10
126.62864
  20
292.85543
  0
VERTEX
  5
9c
  8
Layer_1
  10
96.528641
  20
292.85543
  0
VERTEX
  5
9d
  8
Layer_1
  10
96.528641
  20
284.75543
  0
VERTEX
  5
9e
  8
Layer_1
  10
99.528641
  20
284.75543
  0
VERTEX
  5
9f
  8
Layer_1
  10
99.528641
  20
274.95543
  0
VERTEX
  5
a0
  8
Layer_1
  10
96.528641
  20
274.95543
  0
VERTEX
  5
a1
  8
Layer_1
  10
96.528641
  20
266.85544
  0
VERTEX
  5
a2
  8
Layer_1
  10
134.57864
  20
266.85544
  0
VERTEX
  5
a3
  8
Layer_1
  10
134.57864
  20
269.85544
  0
VERTEX
  5
a4
  8
Layer_1
  10
164.47864
  20
269.85544
  0
VERTEX
  5
a5
  8
Layer_1
  10
164.47864
  20
266.85544
  0
VERTEX
  5
a6
  8
Layer_1
  10
202.52864
  20
266.85544
  0
VERTEX
  5
a7
  8
Layer_1
  10
202.52864
  20
272.45543
  0
VERTEX
  5
a8
  8
Layer_1
  10
199.52864
  20
272.45543
  0
VERTEX
  5
a9
  8
Layer_1
  10
199.52864
  20
287.25543
  0
VERTEX
  5
aa
  8
Layer_1
  10
202.52864
  20
287.25543
  0
VERTEX
  5
ab
  8
Layer_1
  10
202.52864
  20
311.00543
  0
VERTEX
  5
ac
  8
Layer_1
  10
199.52864
  20
311.00543
  0
VERTEX
  5
ad
  8
Layer_1
  10
199.52864
  20
325.95543
  0
VERTEX
  5
ae
  8
Layer_1
  10
199.52864
  20
340.90543
  0
VERTEX
  5
af
  8
Layer_1
  10
202.52864
  20
340.90543
  0
VERTEX
  5
b0
  8
Layer_1
  10
202.52864
  20
364.65543
  0
VERTEX
  5
b1
  8
Layer_1
  10
199.52864
  20
364.65543
  0
VERTEX
  5
b2
  8
Layer_1
  10
199.52864
  20
379.45543
  0
VERTEX
  5
b3
  8
Layer_1
  10
202.52864
  20
379.45543
  0
VERTEX
  5
b4
  8
Layer_1
  10
202.52864
  20
385.05543
  0
VERTEX
  5
b5
  8
Layer_1
  10
164.47864
  20
385.05543
  0
VERTEX
  5
b6
  8
Layer_1
  10
164.47864
  20
382.05543
  0
VERTEX
  5
b7
  8
Layer_1
  10
134.57864
  20
382.05543
  0
VERTEX
  5
b8
  8
Layer_1
  10
134.57864
  20
385.05543
  0
VERTEX
  5
b9
  8
Layer_1
  10
96.528641
  20
385.05543
  0
VERTEX
  5
ba
  8
Layer_1
  10
96.528641
  20
376.95543
  0
VERTEX
  5
bb
  8
Layer_1
  10
99.528641
  20
376.95543
  0
VERTEX
  5
bc
  8
Layer_1
  10
99.528641
  20
367.15543
  0
VERTEX
  5
bd
  8
Layer_1
  10
96.528641
  20
367.15543
  0
VERTEX
  5
be
  8
Layer_1
  10
96.528641
  20
359.05543
  0
VERTEX
  5
bf
  8
Layer_1
  10
126.62864
  20
359.05543
  0
VERTEX
  5
c0
  8
Layer_1
  10
126.62864
  20
362.05543
  0
VERTEX
  5
c1
  8
Layer_1
  10
141.42863
  20
362.05543
  0
VERTEX
  5
c2
  8
Layer_1
  10
141.42863
  20
359.05543
  0
VERTEX
  5
c3
  8
Layer_1
  10
171.52864
  20
359.05543
  0
VERTEX
  5
c4
  8
Layer_1
  10
171.52864
  20
340.90543
  0
VERTEX
  5
c5
  8
Layer_1
  10
174.52864
  20
340.90543
  0
SEQEND
  0
POLYLINE
  5
c7
  8
Layer_1
  62
1
  66
1
  10
0
  20
0
  30
0
  0
VERTEX
  5
c7
  8
Layer_1
  10
187.52864
  20
369.55543
  0
VERTEX
  5
c8
  8
Layer_1
  10
169.52864
  20
369.55543
  42
-0.41421356
  0
VERTEX
  5
c9
  8
Layer_1
  10
167.02864
  20
372.05543
  42
-0.41421356
  0
VERTEX
  5
ca
  8
Layer_1
  10
169.52864
  20
374.55543
  0
VERTEX
  5
cb
  8
Layer_1
  10
187.52864
  20
374.55543
  42
-0.41421356
  0
VERTEX
  5
cc
  8
Layer_1
  10
190.02864
  20
372.05543
  42
-0.41421356
  0
VERTEX
  5
cd
  8
Layer_1
  10
187.52864
  20
369.55543
  0
SEQEND
  0
POLYLINE
  5
cf
  8
Layer_1
  62
1
  66
1
  10
0
  20
0
  30
0
  0
VERTEX
  5
cf
  8
Layer_1
  10
187.52864
  20
277.35543
  0
VERTEX
  5
d0
  8
Layer_1
  10
169.52864
  20
277.35543
  42
-0.41421356
  0
VERTEX
  5
d1
  8
Layer_1
  10
167.02864
  20
279.85543
  42
-0.41421356
  0
VERTEX
  5
d2
  8
Layer_1
  10
169.52864
  20
282.35543
  0
VERTEX
  5
d3
  8
Layer_1
  10
187.52864
  20
282.35543
  42
-0.41421356
  0
VERTEX
  5
d4
  8
Layer_1
  10
190.02864
  20
279.85543
  42
-0.41421356
  0
VERTEX
  5
d5
  8
Layer_1
  10
187.52864
  20
277.35543
  0
SEQEND
  0
POLYLINE
  5
d7
  8
Layer_0
  62
0
  66
1
  10
0
  20
0
  30
0
  0
VERTEX
  5
d7
  8
Layer_0
  10
40.365509
  20
318.08128
  0
VERTEX
  5
d8
  8
Layer_0
  10
41.528641
  20
318.08128
  0
SEQEND
  0
ENDSEC
  0
EOF
