  0
SECTION
  2
HEADER
  9
$ACADVER
  1
AC1009
  0
ENDSEC
  0
SECTION
  2
ENTITIES
  0
POLYLINE
  5
90
  8
Layer_0
  62
1
  66
1
  10
0
  20
0
  30
0
  0
VERTEX
  5
90
  8
Layer_0
  10
173.15927
  20
168.49426
  42
-0.12603674
  0
VERTEX
  5
91
  8
Layer_0
  10
166.26709
  20
168.97925
  42
-0.30441118
  0
VERTEX
  5
92
  8
Layer_0
  10
156.31796
  20
181.75888
  0
VERTEX
  5
93
  8
Layer_0
  10
156.2981
  20
182.16319
  42
-0.1293653
  0
VERTEX
  5
94
  8
Layer_0
  10
157.89816
  20
189.46582
  42
-0.26774772
  0
VERTEX
  5
95
  8
Layer_0
  10
170.35587
  20
197.2468
  42
-0.22148433
  0
VERTEX
  5
96
  8
Layer_0
  10
181.3764
  20
192.56573
  42
-0.14048227
  0
VERTEX
  5
97
  8
Layer_0
  10
184.97661
  20
185.54343
  42
-0.40793445
  0
VERTEX
  5
98
  8
Layer_0
  10
173.68727
  20
168.59985
  0
VERTEX
  5
99
  8
Layer_0
  10
173.15927
  20
168.49426
  0
SEQEND
  0
POLYLINE
  5
9b
  8
Layer_0
  62
1
  66
1
  10
0
  20
0
  30
0
  0
VERTEX
  5
9b
  8
Layer_0
  10
193.85513
  20
178.72704
  42
0.037672433
  0
VERTEX
  5
9c
  8
Layer_0
  10
194.10687
  20
182.01382
  42
0.034823871
  0
VERTEX
  5
9d
  8
Layer_0
  10
193.97702
  20
186.09975
  42
0.015503183
  0
VERTEX
  5
9e
  8
Layer_0
  10
193.92735
  20
186.4071
  0
VERTEX
  5
9f
  8
Layer_0
  10
193.67863
  20
187.66272
  0
VERTEX
  5
a0
  8
Layer_0
  10
193.62466
  20
187.93457
  42
0.10594824
  0
VERTEX
  5
a1
  8
Layer_0
  10
189.98068
  20
196.15576
  42
0.13653361
  0
VERTEX
  5
a2
  8
Layer_0
  10
179.90723
  20
204.35883
  42
0.027248955
  0
VERTEX
  5
a3
  8
Layer_0
  10
177.75229
  20
205.14821
  42
0.12825499
  0
VERTEX
  5
a4
  8
Layer_0
  10
164.89696
  20
205.53177
  42
0.043057084
  0
VERTEX
  5
a5
  8
Layer_0
  10
162.40746
  20
204.69809
  0
VERTEX
  5
a6
  8
Layer_0
  10
162.35414
  20
204.6747
  42
-0.040519042
  0
VERTEX
  5
a7
  8
Layer_0
  10
161.81769
  20
204.46924
  42
0.056735175
  0
VERTEX
  5
a8
  8
Layer_0
  10
160.87822
  20
204.06293
  42
0.015622865
  0
VERTEX
  5
a9
  8
Layer_0
  10
159.18753
  20
203.1794
  42
0.10936502
  0
VERTEX
  5
aa
  8
Layer_0
  10
151.73149
  20
196.52979
  42
0.090849429
  0
VERTEX
  5
ab
  8
Layer_0
  10
147.99005
  20
188.36989
  42
0.01104184
  0
VERTEX
  5
ac
  8
Layer_0
  10
147.66441
  20
187.02133
  0
VERTEX
  5
ad
  8
Layer_0
  10
147.62415
  20
186.82553
  42
0.049555838
  0
VERTEX
  5
ae
  8
Layer_0
  10
147.32706
  20
182.38303
  42
0.044297106
  0
VERTEX
  5
af
  8
Layer_0
  10
147.63728
  20
178.79208
  42
-0.0012140475
  0
VERTEX
  5
b0
  8
Layer_0
  10
147.91263
  20
177.38657
  0
VERTEX
  5
b1
  8
Layer_0
  10
148.01717
  20
176.89644
  42
0.068953313
  0
VERTEX
  5
b2
  8
Layer_0
  10
150.15999
  20
171.66769
  42
0.082772112
  0
VERTEX
  5
b3
  8
Layer_0
  10
155.72484
  20
164.66577
  42
0.058427031
  0
VERTEX
  5
b4
  8
Layer_0
  10
158.18349
  20
162.93192
  42
-0.0086949975
  0
VERTEX
  5
b5
  8
Layer_0
  10
159.22974
  20
162.33464
  0
VERTEX
  5
b6
  8
Layer_0
  10
159.71028
  20
162.06075
  42
0.083438045
  0
VERTEX
  5
b7
  8
Layer_0
  10
167.14978
  20
159.59213
  42
0.01131288
  0
VERTEX
  5
b8
  8
Layer_0
  10
168.44293
  20
159.40762
  0
VERTEX
  5
b9
  8
Layer_0
  10
168.89096
  20
159.35901
  42
0.13667904
  0
VERTEX
  5
ba
  8
Layer_0
  10
180.71228
  20
161.56868
  42
0.16412024
  0
VERTEX
  5
bb
  8
Layer_0
  10
191.68561
  20
172.19667
  42
0.010627133
  0
VERTEX
  5
bc
  8
Layer_0
  10
192.08392
  20
173.03006
  42
0.058388316
  0
VERTEX
  5
bd
  8
Layer_0
  10
193.85513
  20
178.72704
  0
SEQEND
  0
POLYLINE
  5
bf
  8
Layer_0
  62
1
  66
1
  10
0
  20
0
  30
0
  0
VERTEX
  5
bf
  8
Layer_0
  10
160.40094
  20
211.18506
  42
0.03600958
  0
VERTEX
  5
c0
  8
Layer_0
  10
161.64439
  20
211.54343
  0
VERTEX
  5
c1
  8
Layer_0
  10
161.77228
  20
211.58424
  42
-0.037980234
  0
VERTEX
  5
c2
  8
Layer_0
  10
165.64973
  20
212.53546
  42
0.062363546
  0
VERTEX
  5
c3
  8
Layer_0
  10
166.41086
  20
212.71747
  42
0.17942311
  0
VERTEX
  5
c4
  8
Layer_0
  10
166.50098
  20
213.00241
  42
0.023732494
  0
VERTEX
  5
c5
  8
Layer_0
  10
166.61508
  20
215.43826
  42
0.0025715052
  0
VERTEX
  5
c6
  8
Layer_0
  10
166.85968
  20
230.42661
  0
VERTEX
  5
c7
  8
Layer_0
  10
166.96922
  20
238.44968
  0
VERTEX
  5
c8
  8
Layer_0
  10
167.09268
  20
247.6123
  42
-0.004699172
  0
VERTEX
  5
c9
  8
Layer_0
  10
167.35526
  20
262.17781
  42
-0.029478824
  0
VERTEX
  5
ca
  8
Layer_0
  10
167.57271
  20
265.06319
  42
-0.053973101
  0
VERTEX
  5
cb
  8
Layer_0
  10
168.01881
  20
266.5676
  42
-0.03443503
  0
VERTEX
  5
cc
  8
Layer_0
  10
169.80563
  20
270.90041
  42
-0.05885005
  0
VERTEX
  5
cd
  8
Layer_0
  10
171.25018
  20
273.25244
  42
-0.18809215
  0
VERTEX
  5
ce
  8
Layer_0
  10
171.74948
  20
273.59401
  42
-0.12050743
  0
VERTEX
  5
cf
  8
Layer_0
  10
171.88034
  20
273.55769
  42
-0.11165053
  0
VERTEX
  5
d0
  8
Layer_0
  10
172.50879
  20
272.89159
  42
-0.048316444
  0
VERTEX
  5
d1
  8
Layer_0
  10
174.25775
  20
269.47397
  42
-0.050153373
  0
VERTEX
  5
d2
  8
Layer_0
  10
175.66176
  20
265.07394
  42
0.010340317
  0
VERTEX
  5
d3
  8
Layer_0
  10
175.8925
  20
263.94762
  0
VERTEX
  5
d4
  8
Layer_0
  10
175.90419
  20
263.89879
  42
-0.031445529
  0
VERTEX
  5
d5
  8
Layer_0
  10
175.92613
  20
262.72615
  42
-0.0026727021
  0
VERTEX
  5
d6
  8
Layer_0
  10
175.77271
  20
243.56496
  0
VERTEX
  5
d7
  8
Layer_0
  10
175.7092
  20
238.08133
  0
VERTEX
  5
d8
  8
Layer_0
  10
175.40564
  20
212.70633
  0
VERTEX
  5
d9
  8
Layer_0
  10
175.73465
  20
212.57668
  42
0.03067726
  0
VERTEX
  5
da
  8
Layer_0
  10
177.03267
  20
212.23785
  0
VERTEX
  5
db
  8
Layer_0
  10
177.28439
  20
212.18187
  42
-0.0023863351
  0
VERTEX
  5
dc
  8
Layer_0
  10
178.80652
  20
211.84634
  42
-0.013611383
  0
VERTEX
  5
dd
  8
Layer_0
  10
180.60204
  20
211.24423
  42
0.033446899
  0
VERTEX
  5
de
  8
Layer_0
  10
181.89084
  20
210.82477
  42
0.34085036
  0
VERTEX
  5
df
  8
Layer_0
  10
182.19455
  20
210.89615
  0
VERTEX
  5
e0
  8
Layer_0
  10
182.21588
  20
210.93185
  42
0.066074392
  0
VERTEX
  5
e1
  8
Layer_0
  10
182.26056
  20
211.47238
  42
0.0073583078
  0
VERTEX
  5
e2
  8
Layer_0
  10
182.44704
  20
220.56686
  0
VERTEX
  5
e3
  8
Layer_0
  10
182.48134
  20
223.26297
  42
-0.004112392
  0
VERTEX
  5
e4
  8
Layer_0
  10
182.63742
  20
233.3804
  42
-0.041526752
  0
VERTEX
  5
e5
  8
Layer_0
  10
182.9469
  20
236.93159
  42
-0.032057589
  0
VERTEX
  5
e6
  8
Layer_0
  10
183.52728
  20
238.8839
  42
-0.037315595
  0
VERTEX
  5
e7
  8
Layer_0
  10
185.06749
  20
242.59137
  42
-0.064619399
  0
VERTEX
  5
e8
  8
Layer_0
  10
186.63374
  20
245.04526
  42
-0.18409877
  0
VERTEX
  5
e9
  8
Layer_0
  10
187.14951
  20
245.36844
  42
-0.13509347
  0
VERTEX
  5
ea
  8
Layer_0
  10
187.27312
  20
245.31831
  42
-0.10132546
  0
VERTEX
  5
eb
  8
Layer_0
  10
188.32841
  20
244.0134
  42
-0.030994188
  0
VERTEX
  5
ec
  8
Layer_0
  10
189.65065
  20
241.30147
  42
0.0019292873
  0
VERTEX
  5
ed
  8
Layer_0
  10
190.04953
  20
240.31802
  0
VERTEX
  5
ee
  8
Layer_0
  10
190.11923
  20
240.15149
  42
-0.026685184
  0
VERTEX
  5
ef
  8
Layer_0
  10
191.14067
  20
236.52557
  42
-0.04681028
  0
VERTEX
  5
f0
  8
Layer_0
  10
191.26776
  20
234.65273
  42
-0.0064618689
  0
VERTEX
  5
f1
  8
Layer_0
  10
191.25084
  20
224.907
  0
VERTEX
  5
f2
  8
Layer_0
  10
191.21738
  20
220.31105
  0
VERTEX
  5
f3
  8
Layer_0
  10
191.10184
  20
204.99673
  0
VERTEX
  5
f4
  8
Layer_0
  10
192.29701
  20
203.7782
  42
-0.1169205
  0
VERTEX
  5
f5
  8
Layer_0
  10
199.51749
  20
191.69539
  42
-0.060592513
  0
VERTEX
  5
f6
  8
Layer_0
  10
200.78964
  20
184.64481
  42
-0.010798495
  0
VERTEX
  5
f7
  8
Layer_0
  10
200.85851
  20
182.26495
  42
-0.035005041
  0
VERTEX
  5
f8
  8
Layer_0
  10
200.75746
  20
179.59441
  0
VERTEX
  5
f9
  8
Layer_0
  10
200.74535
  20
179.52747
  42
0.0088771063
  0
VERTEX
  5
fa
  8
Layer_0
  10
200.46996
  20
177.90953
  42
-0.013626344
  0
VERTEX
  5
fb
  8
Layer_0
  10
200.22903
  20
176.5562
  0
VERTEX
  5
fc
  8
Layer_0
  10
200.20424
  20
176.44968
  42
0.0007606645
  0
VERTEX
  5
fd
  8
Layer_0
  10
199.94545
  20
175.41631
  42
-0.13758217
  0
VERTEX
  5
fe
  8
Layer_0
  10
191.77187
  20
161.15157
  0
VERTEX
  5
ff
  8
Layer_0
  10
191.37973
  20
160.77002
  0
VERTEX
  5
100
  8
Layer_0
  10
190.50192
  20
159.93011
  0
VERTEX
  5
101
  8
Layer_0
  10
190.32353
  20
145.05502
  42
-0.0013050505
  0
VERTEX
  5
102
  8
Layer_0
  10
190.19646
  20
135.27228
  42
-0.011659375
  0
VERTEX
  5
103
  8
Layer_0
  10
190.04655
  20
130.60797
  42
-0.074943184
  0
VERTEX
  5
104
  8
Layer_0
  10
189.29004
  20
126.45029
  0
VERTEX
  5
105
  8
Layer_0
  10
188.84651
  20
125.19647
  42
-0.060219421
  0
VERTEX
  5
106
  8
Layer_0
  10
186.51436
  20
120.65573
  42
-0.09192544
  0
VERTEX
  5
107
  8
Layer_0
  10
185.67499
  20
119.72415
  42
-0.12277281
  0
VERTEX
  5
108
  8
Layer_0
  10
185.55463
  20
119.68866
  42
-0.14239355
  0
VERTEX
  5
109
  8
Layer_0
  10
185.3869
  20
119.75272
  42
-0.095251655
  0
VERTEX
  5
10a
  8
Layer_0
  10
184.69653
  20
120.59799
  42
-0.042325689
  0
VERTEX
  5
10b
  8
Layer_0
  10
182.95697
  20
124.16794
  42
-0.047137668
  0
VERTEX
  5
10c
  8
Layer_0
  10
181.70627
  20
128.12427
  42
0.0026684357
  0
VERTEX
  5
10d
  8
Layer_0
  10
181.52118
  20
129.07758
  0
VERTEX
  5
10e
  8
Layer_0
  10
181.4697
  20
129.33136
  42
-0.026728373
  0
VERTEX
  5
10f
  8
Layer_0
  10
181.45059
  20
129.67545
  42
-0.0060837462
  0
VERTEX
  5
110
  8
Layer_0
  10
181.50754
  20
142.01086
  42
0.0049446692
  0
VERTEX
  5
111
  8
Layer_0
  10
181.56902
  20
154.05728
  42
0.036760081
  0
VERTEX
  5
112
  8
Layer_0
  10
181.55461
  20
154.32965
  0
VERTEX
  5
113
  8
Layer_0
  10
181.55212
  20
154.33775
  42
0.26956547
  0
VERTEX
  5
114
  8
Layer_0
  10
181.37386
  20
154.39247
  42
0.047265406
  0
VERTEX
  5
115
  8
Layer_0
  10
179.81227
  20
153.97589
  42
-0.022674846
  0
VERTEX
  5
116
  8
Layer_0
  10
176.66628
  20
153.15628
  0
VERTEX
  5
117
  8
Layer_0
  10
176.58267
  20
153.13943
  42
0.0027359487
  0
VERTEX
  5
118
  8
Layer_0
  10
176.26035
  20
153.07385
  42
0.04754232
  0
VERTEX
  5
119
  8
Layer_0
  10
174.84012
  20
152.70493
  42
0.12013119
  0
VERTEX
  5
11a
  8
Layer_0
  10
174.81749
  20
152.6245
  42
0.019835808
  0
VERTEX
  5
11b
  8
Layer_0
  10
174.72849
  20
150.81271
  42
0.0029400815
  0
VERTEX
  5
11c
  8
Layer_0
  10
174.38353
  20
127.26273
  0
VERTEX
  5
11d
  8
Layer_0
  10
174.08061
  20
101.94031
  0
VERTEX
  5
11e
  8
Layer_0
  10
173.76404
  20
100.58575
  42
-0.060444106
  0
VERTEX
  5
11f
  8
Layer_0
  10
171.22902
  20
94.013367
  42
-0.068999067
  0
VERTEX
  5
120
  8
Layer_0
  10
169.98257
  20
92.180237
  42
-0.17951304
  0
VERTEX
  5
121
  8
Layer_0
  10
169.57944
  20
91.960052
  42
-0.12580053
  0
VERTEX
  5
122
  8
Layer_0
  10
169.43391
  20
92.006287
  42
-0.10169542
  0
VERTEX
  5
123
  8
Layer_0
  10
168.62048
  20
92.967194
  42
-0.065974092
  0
VERTEX
  5
124
  8
Layer_0
  10
166.05115
  20
98.907776
  0
VERTEX
  5
125
  8
Layer_0
  10
165.80574
  20
99.746765
  42
-0.058556508
  0
VERTEX
  5
126
  8
Layer_0
  10
165.51146
  20
101.64102
  42
-0.016558859
  0
VERTEX
  5
127
  8
Layer_0
  10
165.43808
  20
106.61801
  42
-0.001851138
  0
VERTEX
  5
128
  8
Layer_0
  10
165.63428
  20
127.1987
  0
VERTEX
  5
129
  8
Layer_0
  10
165.70483
  20
134.02844
  0
VERTEX
  5
12a
  8
Layer_0
  10
165.75859
  20
139.61176
  0
VERTEX
  5
12b
  8
Layer_0
  10
165.79604
  20
144.05353
  42
0.0065117464
  0
VERTEX
  5
12c
  8
Layer_0
  10
165.80562
  20
152.1248
  42
0.069153742
  0
VERTEX
  5
12d
  8
Layer_0
  10
165.76085
  20
152.80299
  0
VERTEX
  5
12e
  8
Layer_0
  10
165.75549
  20
152.81131
  42
0.053304692
  0
VERTEX
  5
12f
  8
Layer_0
  10
165.73239
  20
152.82501
  42
0.039222684
  0
VERTEX
  5
130
  8
Layer_0
  10
164.06445
  20
153.28098
  42
-0.01959376
  0
VERTEX
  5
131
  8
Layer_0
  10
161.29568
  20
154.04303
  0
VERTEX
  5
132
  8
Layer_0
  10
161.22733
  20
154.06563
  42
0.033208159
  0
VERTEX
  5
133
  8
Layer_0
  10
159.7663
  20
154.50006
  0
VERTEX
  5
134
  8
Layer_0
  10
159.75349
  20
154.49411
  0
VERTEX
  5
135
  8
Layer_0
  10
159.74113
  20
154.47519
  42
0.05306878
  0
VERTEX
  5
136
  8
Layer_0
  10
159.63464
  20
153.3188
  42
0.0055428209
  0
VERTEX
  5
137
  8
Layer_0
  10
159.41248
  20
142.15994
  0
VERTEX
  5
138
  8
Layer_0
  10
159.22505
  20
129.81784
  0
VERTEX
  5
139
  8
Layer_0
  10
158.87988
  20
128.48102
  42
-0.050232052
  0
VERTEX
  5
13a
  8
Layer_0
  10
156.79391
  20
122.89178
  42
-0.064614217
  0
VERTEX
  5
13b
  8
Layer_0
  10
155.31419
  20
120.53375
  42
-0.15858949
  0
VERTEX
  5
13c
  8
Layer_0
  10
154.74289
  20
120.1413
  42
-0.16560776
  0
VERTEX
  5
13d
  8
Layer_0
  10
154.56648
  20
120.1709
  42
-0.056400131
  0
VERTEX
  5
13e
  8
Layer_0
  10
154.50832
  20
120.21527
  42
-0.063388436
  0
VERTEX
  5
13f
  8
Layer_0
  10
152.83917
  20
122.76834
  0
VERTEX
  5
140
  8
Layer_0
  10
152.40335
  20
123.75552
  42
-0.063658429
  0
VERTEX
  5
141
  8
Layer_0
  10
150.80371
  20
128.88257
  0
VERTEX
  5
142
  8
Layer_0
  10
150.52562
  20
130.28766
  0
VERTEX
  5
143
  8
Layer_0
  10
150.69797
  20
145.07735
  0
VERTEX
  5
144
  8
Layer_0
  10
150.87077
  20
159.86655
  0
VERTEX
  5
145
  8
Layer_0
  10
149.2681
  20
161.49277
  42
-0.16483833
  0
VERTEX
  5
146
  8
Layer_0
  10
140.74681
  20
178.76706
  0
VERTEX
  5
147
  8
Layer_0
  10
140.7045
  20
179.09792
  42
-0.052564294
  0
VERTEX
  5
148
  8
Layer_0
  10
140.75006
  20
186.5928
  42
-0.053010577
  0
VERTEX
  5
149
  8
Layer_0
  10
141.48083
  20
190.44153
  42
0.01071967
  0
VERTEX
  5
14a
  8
Layer_0
  10
141.74429
  20
191.2915
  42
-0.058067287
  0
VERTEX
  5
14b
  8
Layer_0
  10
144.27715
  20
197.44698
  42
-0.071243839
  0
VERTEX
  5
14c
  8
Layer_0
  10
149.69125
  20
204.39577
  0
VERTEX
  5
14d
  8
Layer_0
  10
151.36888
  20
206.05406
  0
VERTEX
  5
14e
  8
Layer_0
  10
151.61815
  20
221.1976
  42
-0.001269256
  0
VERTEX
  5
14f
  8
Layer_0
  10
151.81953
  20
231.96449
  42
-0.0086712188
  0
VERTEX
  5
150
  8
Layer_0
  10
151.95355
  20
236.58472
  42
0.010968528
  0
VERTEX
  5
151
  8
Layer_0
  10
152.32478
  20
237.97244
  0
VERTEX
  5
152
  8
Layer_0
  10
152.3576
  20
238.10371
  42
-0.066817212
  0
VERTEX
  5
153
  8
Layer_0
  10
154.72171
  20
243.91158
  42
-0.080161178
  0
VERTEX
  5
154
  8
Layer_0
  10
155.95792
  20
245.53574
  42
-0.26270176
  0
VERTEX
  5
155
  8
Layer_0
  10
156.45944
  20
245.69763
  0
VERTEX
  5
156
  8
Layer_0
  10
156.52817
  20
245.66086
  42
-0.092346945
  0
VERTEX
  5
157
  8
Layer_0
  10
157.17722
  20
244.86374
  42
-0.062239354
  0
VERTEX
  5
158
  8
Layer_0
  10
159.72443
  20
239.03021
  0
VERTEX
  5
159
  8
Layer_0
  10
159.79201
  20
238.78424
  42
-0.0083198795
  0
VERTEX
  5
15a
  8
Layer_0
  10
160.13721
  20
237.46515
  42
-0.05443159
  0
VERTEX
  5
15b
  8
Layer_0
  10
160.43849
  20
234.3681
  42
-0.0069138771
  0
VERTEX
  5
15c
  8
Layer_0
  10
160.42737
  20
227.87558
  0
VERTEX
  5
15d
  8
Layer_0
  10
160.38788
  20
223.46875
  42
0.0051485591
  0
VERTEX
  5
15e
  8
Layer_0
  10
160.3551
  20
211.96864
  42
0.04929038
  0
VERTEX
  5
15f
  8
Layer_0
  10
160.40094
  20
211.18506
  0
SEQEND
  0
ENDSEC
  0
EOF
