0
SECTION
2
HEADER
9
$INSUNITS
70
4
9
$ACADVER
1
AC1014
9
$HANDSEED
5
FFFF
0
ENDSEC
0
SECTION
2
TABLES
0
TABLE
2
VPORT
5
8
100
AcDbSymbolTable
0
ENDTAB
0
TABLE
2
LTYPE
5
5
100
AcDbSymbolTable
0
LTYPE
5
14
100
AcDbSymbolTableRecord
100
AcDbLinetypeTableRecord
2
BYBLOCK
70
0
0
LTYPE
5
15
100
AcDbSymbolTableRecord
100
AcDbLinetypeTableRecord
2
BYLAYER
70
0
0
ENDTAB
0
TABLE
2
LAYER
5
2
100
AcDbSymbolTable
70
2
0
LAYER
5
50
100
AcDbSymbolTableRecord
100
AcDbLayerTableRecord
2
0
70
0
6
CONTINUOUS
0
ENDTAB
0
TABLE
2
STYLE
5
3
100
AcDbSymbolTable
70
1
0
STYLE
5
11
100
AcDbSymbolTableRecord
100
AcDbTextStyleTableRecord
2
STANDARD
70
0
0
ENDTAB
0
TABLE
2
VIEW
5
6
100
AcDbSymbolTable
70
0
0
ENDTAB
0
TABLE
2
UCS
5
7
100
AcDbSymbolTable
70
0
0
ENDTAB
0
TABLE
2
APPID
5
9
100
AcDbSymbolTable
70
2
0
APPID
5
12
100
AcDbSymbolTableRecord
100
AcDbRegAppTableRecord
2
ACAD
70
0
0
ENDTAB
0
TABLE
2
DIMSTYLE
5
A
100
AcDbSymbolTable
70
1
0
ENDTAB
0
TABLE
2
BLOCK_RECORD
5
1
100
AcDbSymbolTable
70
1
0
BLOCK_RECORD
5
1F
100
AcDbSymbolTableRecord
100
AcDbBlockTableRecord
2
*MODEL_SPACE
0
BLOCK_RECORD
5
1B
100
AcDbSymbolTableRecord
100
AcDbBlockTableRecord
2
*PAPER_SPACE
0
ENDTAB
0
ENDSEC
0
SECTION
2
BLOCKS
0
BLOCK
5
20
100
AcDbEntity
100
AcDbBlockBegin
2
*MODEL_SPACE
0
ENDBLK
5
21
100
AcDbEntity
100
AcDbBlockEnd
0
BLOCK
5
1C
100
AcDbEntity
100
AcDbBlockBegin
2
*PAPER_SPACE
0
ENDBLK
5
1D
100
AcDbEntity
100
AcDbBlockEnd
0
ENDSEC
0
SECTION
2
ENTITIES
0
CIRCLE
5
100
100
AcDbEntity
8
0
100
AcDbCircle
10
48
20
6.2500000000000036
30
0
40
1.5000000000000002
210
0
220
0
230
1
0
CIRCLE
5
101
100
AcDbEntity
8
0
100
AcDbCircle
10
48
20
37.25
30
0
40
1.5000000000000002
210
0
220
0
230
1
0
CIRCLE
5
102
100
AcDbEntity
8
0
100
AcDbCircle
10
17
20
37.250000000000007
30
0
40
1.5000000000000002
210
0
220
0
230
1
0
CIRCLE
5
103
100
AcDbEntity
8
0
100
AcDbCircle
10
16.999999999999996
20
6.2500000000000053
30
0
40
1.5000000000000002
210
0
220
0
230
1
0
CIRCLE
5
104
100
AcDbEntity
8
0
100
AcDbCircle
10
32.5
20
21.750000000000004
30
0
40
11
210
0
220
0
230
1
0
CIRCLE
5
105
100
AcDbEntity
8
0
100
AcDbCircle
10
32.5
20
21.750000000000004
30
0
40
4.5
210
0
220
0
230
1
0
LWPOLYLINE
5
106
100
AcDbEntity
8
0
100
AcDbPolyline
90
28
70
1
43
0.0
10
25
20
0
10
25
20
-3.0000000000000004
10
40
20
-3.0000000000000004
10
40
20
0
10
65
20
0
10
65
20
18.000000000000004
10
68
20
18.000000000000004
10
68
20
33.000000000000007
10
65
20
33.000000000000007
10
65
20
54
10
68
20
54
10
68
20
69
10
65
20
69
10
65
20
87.000000000000014
10
40
20
87.000000000000014
10
40
20
90
10
25
20
90
10
25
20
87.000000000000014
10
2.2340787354891936e-31
20
87.000000000000014
10
0
20
69
10
-2.9999999999999982
20
69
10
-2.9999999999999982
20
54
10
0
20
54
10
0
20
33.000000000000007
10
-2.9999999999999982
20
33.000000000000007
10
-2.9999999999999982
20
18.000000000000004
10
0
20
18.000000000000004
10
0
20
0
0
LINE
5
107
100
AcDbEntity
8
0
100
AcDbLine
10
32.5
20
43.500000000000007
30
0
11
36.220482164809226
21
43.500000000000007
31
0
0
LINE
5
108
100
AcDbEntity
8
0
100
AcDbLine
10
32.5
20
43.500000000000007
30
0
11
32.5
21
57.097284299291815
31
0
0
CIRCLE
5
109
100
AcDbEntity
8
0
100
AcDbCircle
10
48
20
49.750000000000007
30
0
40
1.5000000000000002
210
0
220
0
230
1
0
CIRCLE
5
110
100
AcDbEntity
8
0
100
AcDbCircle
10
17
20
49.750000000000007
30
0
40
1.5000000000000002
210
0
220
0
230
1
0
CIRCLE
5
111
100
AcDbEntity
8
0
100
AcDbCircle
10
16.999999999999996
20
80.750000000000014
30
0
40
1.5000000000000002
210
0
220
0
230
1
0
CIRCLE
5
112
100
AcDbEntity
8
0
100
AcDbCircle
10
48
20
80.750000000000014
30
0
40
1.5000000000000002
210
0
220
0
230
1
0
CIRCLE
5
113
100
AcDbEntity
8
0
100
AcDbCircle
10
32.5
20
65.25
30
0
40
11
210
0
220
0
230
1
0
CIRCLE
5
114
100
AcDbEntity
8
0
100
AcDbCircle
10
60
20
5
30
0
40
1.5000000000000002
210
0
220
0
230
1
0
LWPOLYLINE
5
115
100
AcDbEntity
8
0
100
AcDbPolyline
90
4
70
1
43
0.0
10
64.999999999999986
20
10
10
54.999999999999993
20
10
10
54.999999999999993
20
0
10
64.999999999999986
20
0
0
LINE
5
116
100
AcDbEntity
8
0
100
AcDbLine
10
64.999999999999986
20
10
30
0
11
54.999999999999993
21
0
31
0
0
LINE
5
117
100
AcDbEntity
8
0
100
AcDbLine
10
54.999999999999993
20
10
30
0
11
64.999999999999986
21
0
31
0
0
CIRCLE
5
118
100
AcDbEntity
8
0
100
AcDbCircle
10
5
20
5
30
0
40
1.5000000000000002
210
0
220
0
230
1
0
CIRCLE
5
119
100
AcDbEntity
8
0
100
AcDbCircle
10
60
20
82.000000000000014
30
0
40
1.5000000000000002
210
0
220
0
230
1
0
CIRCLE
5
120
100
AcDbEntity
8
0
100
AcDbCircle
10
5
20
82.000000000000014
30
0
40
1.5000000000000002
210
0
220
0
230
1
0
LWPOLYLINE
5
121
100
AcDbEntity
8
0
100
AcDbPolyline
90
4
70
1
43
0.0
10
52.499999999999559
20
13.4999999999993
10
12.499999999999581
20
13.499999999999289
10
12.499999999999545
20
73.499999999999289
10
52.499999999999538
20
73.499999999999289
0
LINE
5
122
100
AcDbEntity
8
0
100
AcDbLine
10
52.499999999999559
20
13.4999999999993
30
0
11
12.499999999999545
21
73.499999999999289
31
0
0
LINE
5
123
100
AcDbEntity
8
0
100
AcDbLine
10
12.499999999999581
20
13.499999999999289
30
0
11
52.499999999999538
21
73.499999999999289
31
0
0
LINE
5
124
100
AcDbEntity
8
0
100
AcDbLine
10
52.499999999999567
20
16.50000000000043
30
0
11
12.500000000000298
21
16.499999999997179
31
0
0
LINE
5
125
100
AcDbEntity
8
0
100
AcDbLine
10
49.499999999999574
20
13.499999999999297
30
0
11
49.500000000007418
21
73.499999999999858
31
0
0
CIRCLE
5
126
100
AcDbEntity
8
0
100
AcDbCircle
10
32.5
20
21.750000000000004
30
0
40
4
210
0
220
0
230
1
0
LWPOLYLINE
5
127
100
AcDbEntity
8
0
100
AcDbPolyline
90
4
70
1
43
0.0
10
49.500000000000419
20
16.500000000000444
10
39.500000000000334
20
16.499999999999588
10
39.500000000000327
20
26.499999999999602
10
49.50000000000032
20
26.499999999999602
0
CIRCLE
5
128
100
AcDbEntity
8
0
100
AcDbCircle
10
44.50000000000032
20
21.499999999999602
30
0
40
1.5000000000000002
210
0
220
0
230
1
0
LWPOLYLINE
5
129
100
AcDbEntity
8
0
100
AcDbPolyline
90
4
70
1
43
0.0
10
52.499999999999631
20
28.550000000000239
10
49.500000000005372
20
28.550000000000505
10
49.500000000005443
20
58.450000000000024
10
52.500000000000185
20
58.450000000000024
0
LWPOLYLINE
5
130
100
AcDbEntity
8
0
100
AcDbPolyline
90
4
70
1
43
0.0
10
47.449999999999619
20
13.499999999999492
10
17.55000000000004
20
13.499999999999888
10
17.550000000000033
20
16.499999999997847
10
47.450000000000045
20
16.499999999996994
0
LWPOLYLINE
5
131
100
AcDbEntity
8
0
100
AcDbPolyline
90
4
70
1
43
0.0
10
15.499999999995529
20
28.550000000000036
10
15.499999999994643
20
58.450000000000024
10
12.499999999999893
20
58.450000000000024
10
12.499999999999927
20
28.550000000000026
0
LWPOLYLINE
5
132
100
AcDbEntity
8
0
100
AcDbPolyline
90
4
70
1
43
0.0
10
47.449999999999974
20
70.500000000002402
10
47.449999999999932
20
73.499999999999702
10
17.549999999999905
20
73.500000000000412
10
17.549999999999901
20
70.500000000003013
0
CIRCLE
5
133
100
AcDbEntity
8
0
100
AcDbCircle
10
44.50000000000032
20
65.500000000000412
30
0
40
1.5000000000000002
210
0
220
0
230
1
0
CIRCLE
5
134
100
AcDbEntity
8
0
100
AcDbCircle
10
20.499999999999666
20
21.499999999999602
30
0
40
1.5000000000000002
210
0
220
0
230
1
0
CIRCLE
5
135
100
AcDbEntity
8
0
100
AcDbCircle
10
20.500000000001499
20
65.49999999999612
30
0
40
1.5000000000000002
210
0
220
0
230
1
0
CIRCLE
5
136
100
AcDbEntity
8
0
100
AcDbCircle
10
32.5
20
65.25
30
0
40
4
210
0
220
0
230
1
0
ENDSEC
0
SECTION
2
OBJECTS
0
DICTIONARY
5
C
100
AcDbDictionary
3
ACAD_GROUP
350
D
3
ACAD_MLINESTYLE
350
17
0
DICTIONARY
5
D
100
AcDbDictionary
0
DICTIONARY
5
1A
330
C
100
AcDbDictionary
0
DICTIONARY
5
17
100
AcDbDictionary
0
ENDSEC
0
EOF
