  0
SECTION
  2
HEADER
  9
$ACADVER
  1
AC1009
  0
ENDSEC
  0
SECTION
  2
ENTITIES
  0
CIRCLE
  5
90
  8
Layer_0
  62
1
  10
199.54785
  20
211.55809
  30
0
  40
1.5
  0
CIRCLE
  5
90
  8
Layer_0
  62
1
  10
389.54785
  20
211.55809
  30
0
  40
1.5
  0
CIRCLE
  5
90
  8
Layer_0
  62
1
  10
199.54785
  20
141.55811
  30
0
  40
1.5
  0
CIRCLE
  5
90
  8
Layer_0
  62
1
  10
389.54785
  20
141.55811
  30
0
  40
1.5
  0
CIRCLE
  5
90
  8
Layer_0
  62
1
  10
374.54785
  20
209.05809
  30
0
  40
1.5
  0
CIRCLE
  5
90
  8
Layer_0
  62
1
  10
374.54785
  20
144.05809
  30
0
  40
1.5
  0
CIRCLE
  5
90
  8
Layer_0
  62
1
  10
214.54785
  20
144.05809
  30
0
  40
1.5
  0
CIRCLE
  5
90
  8
Layer_0
  62
1
  10
214.54785
  20
209.05809
  30
0
  40
1.5
  0
POLYLINE
  5
90
  8
Layer_0
  62
1
  66
1
  10
0
  20
0
  30
0
  0
VERTEX
  5
90
  8
Layer_0
  10
279.62286
  20
225.55809
  0
VERTEX
  5
91
  8
Layer_0
  10
279.62286
  20
216.55809
  0
VERTEX
  5
92
  8
Layer_0
  10
309.47284
  20
216.55809
  0
VERTEX
  5
93
  8
Layer_0
  10
309.47284
  20
225.55809
  0
VERTEX
  5
94
  8
Layer_0
  10
394.54785
  20
225.55809
  0
VERTEX
  5
95
  8
Layer_0
  10
394.54785
  20
191.55809
  0
VERTEX
  5
96
  8
Layer_0
  10
403.54785
  20
191.55809
  0
VERTEX
  5
97
  8
Layer_0
  10
403.54785
  20
161.55809
  0
VERTEX
  5
98
  8
Layer_0
  10
394.54785
  20
161.55809
  0
VERTEX
  5
99
  8
Layer_0
  10
394.54785
  20
127.55811
  0
VERTEX
  5
9a
  8
Layer_0
  10
309.47284
  20
127.55811
  0
VERTEX
  5
9b
  8
Layer_0
  10
309.47284
  20
136.55811
  0
VERTEX
  5
9c
  8
Layer_0
  10
279.62286
  20
136.55811
  0
VERTEX
  5
9d
  8
Layer_0
  10
279.62286
  20
127.55811
  0
VERTEX
  5
9e
  8
Layer_0
  10
194.54785
  20
127.55811
  0
VERTEX
  5
9f
  8
Layer_0
  10
194.54785
  20
161.55809
  0
VERTEX
  5
a0
  8
Layer_0
  10
185.54785
  20
161.55809
  0
VERTEX
  5
a1
  8
Layer_0
  10
185.54785
  20
191.55809
  0
VERTEX
  5
a2
  8
Layer_0
  10
194.54785
  20
191.55809
  0
VERTEX
  5
a3
  8
Layer_0
  10
194.54785
  20
225.55809
  0
VERTEX
  5
a4
  8
Layer_0
  10
279.62286
  20
225.55809
  0
SEQEND
  0
POLYLINE
  5
a6
  8
Layer_0
  62
1
  66
1
  10
0
  20
0
  30
0
  0
VERTEX
  5
a6
  8
Layer_0
  10
369.54785
  20
204.05809
  0
VERTEX
  5
a7
  8
Layer_0
  10
219.54785
  20
204.05809
  0
VERTEX
  5
a8
  8
Layer_0
  10
219.54785
  20
149.05809
  0
VERTEX
  5
a9
  8
Layer_0
  10
369.54785
  20
149.05809
  0
VERTEX
  5
aa
  8
Layer_0
  10
369.54785
  20
204.05809
  0
SEQEND
  0
ENDSEC
  0
EOF
