  0
SECTION
  2
HEADER
  9
$ACADVER
  1
AC1009
  0
ENDSEC
  0
SECTION
  2
ENTITIES
  0
CIRCLE
  5
90
  8
Layer_0
  62
1
  10
202.12671
  20
316.42773
  30
0
  40
1.5
  0
CIRCLE
  5
90
  8
Layer_0
  62
1
  10
392.12671
  20
316.42773
  30
0
  40
1.5
  0
CIRCLE
  5
90
  8
Layer_0
  62
1
  10
202.12671
  20
76.427734
  30
0
  40
1.5
  0
CIRCLE
  5
90
  8
Layer_0
  62
1
  10
392.12671
  20
76.427734
  30
0
  40
1.5
  0
CIRCLE
  5
90
  8
Layer_0
  62
1
  10
297.12671
  20
189.92772
  30
0
  40
1.5
  0
CIRCLE
  5
90
  8
Layer_0
  62
1
  10
263.62671
  20
156.42772
  30
0
  40
1.5
  0
CIRCLE
  5
90
  8
Layer_0
  62
1
  10
297.12671
  20
122.92773
  30
0
  40
1.5
  0
CIRCLE
  5
90
  8
Layer_0
  62
1
  10
330.62671
  20
156.42772
  30
0
  40
1.5
  0
CIRCLE
  5
90
  8
Layer_0
  62
1
  10
297.12671
  20
156.42772
  30
0
  40
15
  0
POLYLINE
  5
90
  8
Layer_0
  62
1
  66
1
  10
0
  20
0
  30
0
  0
VERTEX
  5
90
  8
Layer_0
  10
397.12671
  20
273.92772
  0
VERTEX
  5
91
  8
Layer_0
  10
406.12671
  20
273.92772
  0
VERTEX
  5
92
  8
Layer_0
  10
406.12671
  20
243.92772
  0
VERTEX
  5
93
  8
Layer_0
  10
397.12671
  20
243.92772
  0
VERTEX
  5
94
  8
Layer_0
  10
397.12671
  20
148.92772
  0
VERTEX
  5
95
  8
Layer_0
  10
406.12671
  20
148.92772
  0
VERTEX
  5
96
  8
Layer_0
  10
406.12671
  20
118.92773
  0
VERTEX
  5
97
  8
Layer_0
  10
397.12671
  20
118.92773
  0
VERTEX
  5
98
  8
Layer_0
  10
397.12671
  20
71.427734
  0
VERTEX
  5
99
  8
Layer_0
  10
312.12671
  20
71.427734
  0
VERTEX
  5
9a
  8
Layer_0
  10
312.12671
  20
62.427734
  0
VERTEX
  5
9b
  8
Layer_0
  10
282.12671
  20
62.427734
  0
VERTEX
  5
9c
  8
Layer_0
  10
282.12671
  20
71.427734
  0
VERTEX
  5
9d
  8
Layer_0
  10
197.12671
  20
71.427734
  0
VERTEX
  5
9e
  8
Layer_0
  10
197.12671
  20
118.92773
  0
VERTEX
  5
9f
  8
Layer_0
  10
188.12671
  20
118.92773
  0
VERTEX
  5
a0
  8
Layer_0
  10
188.12671
  20
148.92772
  0
VERTEX
  5
a1
  8
Layer_0
  10
197.12671
  20
148.92772
  0
VERTEX
  5
a2
  8
Layer_0
  10
197.12671
  20
243.92772
  0
VERTEX
  5
a3
  8
Layer_0
  10
188.12671
  20
243.92772
  0
VERTEX
  5
a4
  8
Layer_0
  10
188.12671
  20
273.92772
  0
VERTEX
  5
a5
  8
Layer_0
  10
197.12671
  20
273.92772
  0
VERTEX
  5
a6
  8
Layer_0
  10
197.12671
  20
321.42772
  0
VERTEX
  5
a7
  8
Layer_0
  10
282.12671
  20
321.42772
  0
VERTEX
  5
a8
  8
Layer_0
  10
282.12671
  20
330.42772
  0
VERTEX
  5
a9
  8
Layer_0
  10
312.12671
  20
330.42772
  0
VERTEX
  5
aa
  8
Layer_0
  10
312.12671
  20
321.42772
  0
VERTEX
  5
ab
  8
Layer_0
  10
397.12671
  20
321.42772
  0
VERTEX
  5
ac
  8
Layer_0
  10
397.12671
  20
273.92772
  0
SEQEND
  0
ENDSEC
  0
EOF
