  0
SECTION
  2
HEADER
  9
$ACADVER
  1
AC1009
  0
ENDSEC
  0
SECTION
  2
ENTITIES
  0
CIRCLE
  5
90
  8
Layer_0
  62
0
  10
125.18034
  20
388.20187
  30
0
  40
1.5
  0
CIRCLE
  5
90
  8
Layer_0
  62
0
  10
315.18036
  20
388.20187
  30
0
  40
1.5
  0
CIRCLE
  5
90
  8
Layer_0
  62
0
  10
125.18034
  20
148.20187
  30
0
  40
1.5
  0
CIRCLE
  5
90
  8
Layer_0
  62
0
  10
315.18036
  20
148.20187
  30
0
  40
1.5
  0
CIRCLE
  5
90
  8
Layer_0
  62
0
  10
220.18034
  20
228.20187
  30
0
  40
45.5
  0
CIRCLE
  5
90
  8
Layer_0
  62
0
  10
220.18034
  20
283.20187
  30
0
  40
1.5
  0
CIRCLE
  5
90
  8
Layer_0
  62
0
  10
172.54895
  20
255.70187
  30
0
  40
1.5
  0
CIRCLE
  5
90
  8
Layer_0
  62
0
  10
172.54895
  20
200.70187
  30
0
  40
1.5
  0
CIRCLE
  5
90
  8
Layer_0
  62
0
  10
220.18034
  20
173.20187
  30
0
  40
1.5
  0
CIRCLE
  5
90
  8
Layer_0
  62
0
  10
267.81174
  20
200.70187
  30
0
  40
1.5
  0
CIRCLE
  5
90
  8
Layer_0
  62
0
  10
267.81174
  20
255.70187
  30
0
  40
1.5
  0
CIRCLE
  5
90
  8
Layer_0
  62
0
  10
220.18034
  20
347.20187
  30
0
  40
8.1999998
  0
CIRCLE
  5
90
  8
Layer_0
  62
0
  10
204.68034
  20
362.70187
  30
0
  40
1.5
  0
CIRCLE
  5
90
  8
Layer_0
  62
0
  10
204.68034
  20
331.70187
  30
0
  40
1.5
  0
CIRCLE
  5
90
  8
Layer_0
  62
0
  10
235.68034
  20
331.70187
  30
0
  40
1.5
  0
CIRCLE
  5
90
  8
Layer_0
  62
0
  10
235.68034
  20
362.70187
  30
0
  40
1.5
  0
POLYLINE
  5
90
  8
Layer_0
  62
0
  66
1
  10
0
  20
0
  30
0
  0
VERTEX
  5
90
  8
Layer_0
  10
320.18036
  20
345.70187
  0
VERTEX
  5
91
  8
Layer_0
  10
329.18036
  20
345.70187
  0
VERTEX
  5
92
  8
Layer_0
  10
329.18036
  20
315.70187
  0
VERTEX
  5
93
  8
Layer_0
  10
320.18036
  20
315.70187
  0
VERTEX
  5
94
  8
Layer_0
  10
320.18036
  20
220.70187
  0
VERTEX
  5
95
  8
Layer_0
  10
329.18036
  20
220.70187
  0
VERTEX
  5
96
  8
Layer_0
  10
329.18036
  20
190.70187
  0
VERTEX
  5
97
  8
Layer_0
  10
320.18036
  20
190.70187
  0
VERTEX
  5
98
  8
Layer_0
  10
320.18036
  20
143.20187
  0
VERTEX
  5
99
  8
Layer_0
  10
235.18034
  20
143.20187
  0
VERTEX
  5
9a
  8
Layer_0
  10
235.18034
  20
134.20187
  0
VERTEX
  5
9b
  8
Layer_0
  10
205.18034
  20
134.20187
  0
VERTEX
  5
9c
  8
Layer_0
  10
205.18034
  20
143.20187
  0
VERTEX
  5
9d
  8
Layer_0
  10
120.18034
  20
143.20187
  0
VERTEX
  5
9e
  8
Layer_0
  10
120.18034
  20
190.70187
  0
VERTEX
  5
9f
  8
Layer_0
  10
111.18034
  20
190.70187
  0
VERTEX
  5
a0
  8
Layer_0
  10
111.18034
  20
220.70187
  0
VERTEX
  5
a1
  8
Layer_0
  10
120.18034
  20
220.70187
  0
VERTEX
  5
a2
  8
Layer_0
  10
120.18034
  20
315.70187
  0
VERTEX
  5
a3
  8
Layer_0
  10
111.18034
  20
315.70187
  0
VERTEX
  5
a4
  8
Layer_0
  10
111.18034
  20
345.70187
  0
VERTEX
  5
a5
  8
Layer_0
  10
120.18034
  20
345.70187
  0
VERTEX
  5
a6
  8
Layer_0
  10
120.18034
  20
393.20187
  0
VERTEX
  5
a7
  8
Layer_0
  10
205.18034
  20
393.20187
  0
VERTEX
  5
a8
  8
Layer_0
  10
205.18034
  20
402.20187
  0
VERTEX
  5
a9
  8
Layer_0
  10
235.18034
  20
402.20187
  0
VERTEX
  5
aa
  8
Layer_0
  10
235.18034
  20
393.20187
  0
VERTEX
  5
ab
  8
Layer_0
  10
320.18036
  20
393.20187
  0
VERTEX
  5
ac
  8
Layer_0
  10
320.18036
  20
345.70187
  0
SEQEND
  0
ENDSEC
  0
EOF
