  0
SECTION
  2
HEADER
  9
$ACADVER
  1
AC1009
  0
ENDSEC
  0
SECTION
  2
ENTITIES
  0
CIRCLE
  5
90
  8
Layer_0
  62
1
  10
335
  20
80
  30
0
  40
1.5
  0
CIRCLE
  5
90
  8
Layer_0
  62
1
  10
335.00003
  20
319.99997
  30
0
  40
1.5
  0
CIRCLE
  5
90
  8
Layer_0
  62
1
  10
265.00003
  20
80
  30
0
  40
1.5
  0
CIRCLE
  5
90
  8
Layer_0
  62
1
  10
265.00003
  20
320.00003
  30
0
  40
1.5
  0
CIRCLE
  5
90
  8
Layer_0
  62
1
  10
301.00003
  20
155
  30
0
  40
1.5
  0
CIRCLE
  5
90
  8
Layer_0
  62
1
  10
323
  20
165
  30
0
  40
1.5
  0
POLYLINE
  5
90
  8
Layer_0
  62
1
  66
1
  10
0
  20
0
  30
0
  0
VERTEX
  5
90
  8
Layer_0
  10
314.92499
  20
66
  0
VERTEX
  5
91
  8
Layer_0
  10
314.92499
  20
75
  0
VERTEX
  5
92
  8
Layer_0
  10
285.07501
  20
75
  0
VERTEX
  5
93
  8
Layer_0
  10
285.07501
  20
66
  0
VERTEX
  5
94
  8
Layer_0
  10
251
  20
66
  0
VERTEX
  5
95
  8
Layer_0
  10
251
  20
122.57501
  0
VERTEX
  5
96
  8
Layer_0
  10
260
  20
122.57498
  0
VERTEX
  5
97
  8
Layer_0
  10
260
  20
152.42502
  0
VERTEX
  5
98
  8
Layer_0
  10
251
  20
152.42502
  0
VERTEX
  5
99
  8
Layer_0
  10
251
  20
247.57501
  0
VERTEX
  5
9a
  8
Layer_0
  10
260
  20
247.57501
  0
VERTEX
  5
9b
  8
Layer_0
  10
260
  20
277.425
  0
VERTEX
  5
9c
  8
Layer_0
  10
251
  20
277.42502
  0
VERTEX
  5
9d
  8
Layer_0
  10
251
  20
334
  0
VERTEX
  5
9e
  8
Layer_0
  10
285.07501
  20
334
  0
VERTEX
  5
9f
  8
Layer_0
  10
285.07501
  20
325
  0
VERTEX
  5
a0
  8
Layer_0
  10
314.92499
  20
325
  0
VERTEX
  5
a1
  8
Layer_0
  10
314.92499
  20
334
  0
VERTEX
  5
a2
  8
Layer_0
  10
349
  20
334
  0
VERTEX
  5
a3
  8
Layer_0
  10
349
  20
277.425
  0
VERTEX
  5
a4
  8
Layer_0
  10
340
  20
277.425
  0
VERTEX
  5
a5
  8
Layer_0
  10
340
  20
247.57501
  0
VERTEX
  5
a6
  8
Layer_0
  10
349
  20
247.57501
  0
VERTEX
  5
a7
  8
Layer_0
  10
349
  20
152.42499
  0
VERTEX
  5
a8
  8
Layer_0
  10
340
  20
152.42499
  0
VERTEX
  5
a9
  8
Layer_0
  10
340
  20
122.57498
  0
VERTEX
  5
aa
  8
Layer_0
  10
349
  20
122.57498
  0
VERTEX
  5
ab
  8
Layer_0
  10
349
  20
66
  0
VERTEX
  5
ac
  8
Layer_0
  10
314.92499
  20
66
  0
SEQEND
  0
POLYLINE
  5
ae
  8
Layer_1
  62
3
  66
1
  10
0
  20
0
  30
0
  0
VERTEX
  5
ae
  8
Layer_1
  10
270.76715
  20
317.24686
  42
0.22020463
  0
VERTEX
  5
af
  8
Layer_1
  10
270.64026
  20
316.92966
  42
0.14399216
  0
VERTEX
  5
b0
  8
Layer_1
  10
270.7088
  20
316.67181
  0
VERTEX
  5
b1
  8
Layer_1
  10
270.72058
  20
316.65421
  42
0.15991622
  0
VERTEX
  5
b2
  8
Layer_1
  10
270.89502
  20
316.52243
  42
0.0055324338
  0
VERTEX
  5
b3
  8
Layer_1
  10
270.91562
  20
316.5159
  42
0.0071478656
  0
VERTEX
  5
b4
  8
Layer_1
  10
270.93817
  20
316.50992
  42
0.056050492
  0
VERTEX
  5
b5
  8
Layer_1
  10
271.27054
  20
316.48151
  0
VERTEX
  5
b6
  8
Layer_1
  10
273.3374
  20
316.48151
  0
VERTEX
  5
b7
  8
Layer_1
  10
273.3374
  20
316.0845
  0
VERTEX
  5
b8
  8
Layer_1
  10
271.29306
  20
316.0845
  42
-0.099840149
  0
VERTEX
  5
b9
  8
Layer_1
  10
270.70984
  20
316.17557
  42
-0.16808645
  0
VERTEX
  5
ba
  8
Layer_1
  10
270.39471
  20
316.46408
  42
-0.12743921
  0
VERTEX
  5
bb
  8
Layer_1
  10
270.28625
  20
316.92761
  42
-0.21456124
  0
VERTEX
  5
bc
  8
Layer_1
  10
270.51337
  20
317.53232
  42
-0.19475728
  0
VERTEX
  5
bd
  8
Layer_1
  10
271.18869
  20
317.73389
  0
VERTEX
  5
be
  8
Layer_1
  10
271.23779
  20
317.37576
  42
0.16305677
  0
VERTEX
  5
bf
  8
Layer_1
  10
270.76715
  20
317.24686
  0
SEQEND
  0
POLYLINE
  5
c1
  8
Layer_1
  62
3
  66
1
  10
0
  20
0
  30
0
  0
VERTEX
  5
c1
  8
Layer_1
  10
272.43085
  20
314.91498
  42
-0.043815292
  0
VERTEX
  5
c2
  8
Layer_1
  10
272.24054
  20
315.30276
  0
VERTEX
  5
c3
  8
Layer_1
  10
272.59662
  20
315.30276
  42
0.072740612
  0
VERTEX
  5
c4
  8
Layer_1
  10
272.94858
  20
314.76253
  42
0.093952438
  0
VERTEX
  5
c5
  8
Layer_1
  10
273.34967
  20
314.43512
  0
VERTEX
  5
c6
  8
Layer_1
  10
273.34967
  20
314.19772
  0
VERTEX
  5
c7
  8
Layer_1
  10
270.3374
  20
314.19772
  0
VERTEX
  5
c8
  8
Layer_1
  10
270.3374
  20
314.56607
  0
VERTEX
  5
c9
  8
Layer_1
  10
272.6846
  20
314.56607
  42
-0.05687388
  0
VERTEX
  5
ca
  8
Layer_1
  10
272.43085
  20
314.91498
  0
SEQEND
  0
POLYLINE
  5
cc
  8
Layer_1
  62
3
  66
1
  10
0
  20
0
  30
0
  0
VERTEX
  5
cc
  8
Layer_1
  10
271.23779
  20
312.16362
  0
VERTEX
  5
cd
  8
Layer_1
  10
271.60822
  20
312.16362
  0
VERTEX
  5
ce
  8
Layer_1
  10
271.60822
  20
313.29527
  0
VERTEX
  5
cf
  8
Layer_1
  10
271.23779
  20
313.29527
  0
VERTEX
  5
d0
  8
Layer_1
  10
271.23779
  20
312.16362
  0
SEQEND
  0
POLYLINE
  5
d2
  8
Layer_1
  62
3
  66
1
  10
0
  20
0
  30
0
  0
VERTEX
  5
d2
  8
Layer_1
  10
272.21597
  20
310.14383
  42
0.1489578
  0
VERTEX
  5
d3
  8
Layer_1
  10
272.57001
  20
310.03947
  42
0.13963538
  0
VERTEX
  5
d4
  8
Layer_1
  10
272.95679
  20
310.14896
  42
0.1425777
  0
VERTEX
  5
d5
  8
Layer_1
  10
273.24429
  20
310.46512
  42
0.11934272
  0
VERTEX
  5
d6
  8
Layer_1
  10
273.34967
  20
310.91737
  42
0.18278193
  0
VERTEX
  5
d7
  8
Layer_1
  10
273.14606
  20
311.51288
  42
0.17682496
  0
VERTEX
  5
d8
  8
Layer_1
  10
272.57205
  20
311.81982
  0
VERTEX
  5
d9
  8
Layer_1
  10
272.50656
  20
311.45148
  42
-0.14985701
  0
VERTEX
  5
da
  8
Layer_1
  10
272.88831
  20
311.29047
  42
-0.019638108
  0
VERTEX
  5
db
  8
Layer_1
  10
272.91174
  20
311.2673
  42
-0.19726113
  0
VERTEX
  5
dc
  8
Layer_1
  10
273.04681
  20
310.90918
  42
-0.20090571
  0
VERTEX
  5
dd
  8
Layer_1
  10
272.91379
  20
310.55516
  42
-0.20939921
  0
VERTEX
  5
de
  8
Layer_1
  10
272.57819
  20
310.41806
  42
-0.26701876
  0
VERTEX
  5
df
  8
Layer_1
  10
272.19962
  20
310.60632
  42
-0.14866681
  0
VERTEX
  5
e0
  8
Layer_1
  10
272.07684
  20
311.02992
  42
-0.0028183216
  0
VERTEX
  5
e1
  8
Layer_1
  10
272.07709
  20
311.04208
  42
-0.002786231
  0
VERTEX
  5
e2
  8
Layer_1
  10
272.07751
  20
311.05118
  0
VERTEX
  5
e3
  8
Layer_1
  10
272.07785
  20
311.05602
  42
-0.0075743681
  0
VERTEX
  5
e4
  8
Layer_1
  10
272.08093
  20
311.08926
  0
VERTEX
  5
e5
  8
Layer_1
  10
271.75757
  20
311.13019
  42
-0.062435292
  0
VERTEX
  5
e6
  8
Layer_1
  10
271.79852
  20
310.8703
  42
-0.20483582
  0
VERTEX
  5
e7
  8
Layer_1
  10
271.63379
  20
310.44876
  42
-0.20707215
  0
VERTEX
  5
e8
  8
Layer_1
  10
271.2153
  20
310.28299
  42
-0.20596405
  0
VERTEX
  5
e9
  8
Layer_1
  10
270.76917
  20
310.46205
  42
-0.19854662
  0
VERTEX
  5
ea
  8
Layer_1
  10
270.58942
  20
310.87949
  0
VERTEX
  5
eb
  8
Layer_1
  10
270.58911
  20
310.901
  42
-0.19278261
  0
VERTEX
  5
ec
  8
Layer_1
  10
270.72723
  20
311.27243
  42
-0.15734853
  0
VERTEX
  5
ed
  8
Layer_1
  10
271.17847
  20
311.48831
  0
VERTEX
  5
ee
  8
Layer_1
  10
271.12933
  20
311.85666
  42
0.19318587
  0
VERTEX
  5
ef
  8
Layer_1
  10
270.51953
  20
311.55891
  42
0.19101051
  0
VERTEX
  5
f0
  8
Layer_1
  10
270.28418
  20
310.90305
  42
0.19888348
  0
VERTEX
  5
f1
  8
Layer_1
  10
270.55737
  20
310.17862
  42
0.21307134
  0
VERTEX
  5
f2
  8
Layer_1
  10
271.22348
  20
309.89214
  42
0.16725157
  0
VERTEX
  5
f3
  8
Layer_1
  10
271.70746
  20
310.03947
  42
0.17939817
  0
VERTEX
  5
f4
  8
Layer_1
  10
271.96222
  20
310.45285
  42
0.14354716
  0
VERTEX
  5
f5
  8
Layer_1
  10
272.21597
  20
310.14383
  0
SEQEND
  0
ENDSEC
  0
EOF
