  0
SECTION
  2
HEADER
  9
$ACADVER
  1
AC1009
  0
ENDSEC
  0
SECTION
  2
ENTITIES
  0
CIRCLE
  5
90
  8
Layer_0
  62
1
  10
205
  20
235
  30
0
  40
1.5
  0
CIRCLE
  5
90
  8
Layer_0
  62
1
  10
205
  20
165
  30
0
  40
1.5
  0
CIRCLE
  5
90
  8
Layer_0
  62
1
  10
395
  20
235
  30
0
  40
1.5
  0
CIRCLE
  5
90
  8
Layer_0
  62
1
  10
395
  20
165
  30
0
  40
1.5
  0
CIRCLE
  5
90
  8
Layer_0
  62
1
  10
355
  20
186.5
  30
0
  40
8.5
  0
CIRCLE
  5
90
  8
Layer_0
  62
1
  10
328
  20
186.5
  30
0
  40
8.5
  0
CIRCLE
  5
90
  8
Layer_0
  62
1
  10
328
  20
212.5
  30
0
  40
8.5
  0
CIRCLE
  5
90
  8
Layer_0
  62
1
  10
355
  20
212.5
  30
0
  40
10
  0
CIRCLE
  5
90
  8
Layer_0
  62
1
  10
235
  20
204.2
  30
0
  40
1.5
  0
CIRCLE
  5
90
  8
Layer_0
  62
1
  10
309
  20
204.2
  30
0
  40
1.5
  0
POLYLINE
  5
90
  8
Layer_0
  62
1
  66
1
  10
0
  20
0
  30
0
  0
VERTEX
  5
90
  8
Layer_0
  10
191
  20
249
  0
VERTEX
  5
91
  8
Layer_0
  10
409
  20
249
  0
VERTEX
  5
92
  8
Layer_0
  10
409
  20
151
  0
VERTEX
  5
93
  8
Layer_0
  10
191
  20
151
  0
VERTEX
  5
94
  8
Layer_0
  10
191
  20
249
  0
SEQEND
  0
POLYLINE
  5
96
  8
Layer_0
  62
1
  66
1
  10
0
  20
0
  30
0
  0
VERTEX
  5
96
  8
Layer_0
  10
237.5
  20
212.5
  0
VERTEX
  5
97
  8
Layer_0
  10
256.29999
  20
212.5
  0
VERTEX
  5
98
  8
Layer_0
  10
256.29999
  20
205.39999
  0
VERTEX
  5
99
  8
Layer_0
  10
237.5
  20
205.39999
  0
VERTEX
  5
9a
  8
Layer_0
  10
237.5
  20
212.5
  0
SEQEND
  0
POLYLINE
  5
9c
  8
Layer_0
  62
1
  66
1
  10
0
  20
0
  30
0
  0
VERTEX
  5
9c
  8
Layer_0
  10
281.70001
  20
204.89999
  0
VERTEX
  5
9d
  8
Layer_0
  10
262.39999
  20
204.89999
  0
VERTEX
  5
9e
  8
Layer_0
  10
262.39999
  20
212.5
  0
VERTEX
  5
9f
  8
Layer_0
  10
281.70001
  20
212.5
  0
VERTEX
  5
a0
  8
Layer_0
  10
281.70001
  20
204.89999
  0
SEQEND
  0
POLYLINE
  5
a2
  8
Layer_0
  62
1
  66
1
  10
0
  20
0
  30
0
  0
VERTEX
  5
a2
  8
Layer_0
  10
287.79999
  20
212.5
  0
VERTEX
  5
a3
  8
Layer_0
  10
306.60001
  20
212.5
  0
VERTEX
  5
a4
  8
Layer_0
  10
306.60001
  20
205.39999
  0
VERTEX
  5
a5
  8
Layer_0
  10
287.79999
  20
205.39999
  0
VERTEX
  5
a6
  8
Layer_0
  10
287.79999
  20
212.5
  0
SEQEND
  0
POLYLINE
  5
a8
  8
Layer_0
  62
1
  66
1
  10
0
  20
0
  30
0
  0
VERTEX
  5
a8
  8
Layer_0
  10
256.29999
  20
187.7
  0
VERTEX
  5
a9
  8
Layer_0
  10
237
  20
187.7
  0
VERTEX
  5
aa
  8
Layer_0
  10
237
  20
195.3
  0
VERTEX
  5
ab
  8
Layer_0
  10
256.29999
  20
195.3
  0
VERTEX
  5
ac
  8
Layer_0
  10
256.29999
  20
187.7
  0
SEQEND
  0
POLYLINE
  5
ae
  8
Layer_0
  62
1
  66
1
  10
0
  20
0
  30
0
  0
VERTEX
  5
ae
  8
Layer_0
  10
281.70001
  20
195.3
  0
VERTEX
  5
af
  8
Layer_0
  10
281.70001
  20
187.7
  0
VERTEX
  5
b0
  8
Layer_0
  10
262.39999
  20
187.7
  0
VERTEX
  5
b1
  8
Layer_0
  10
262.39999
  20
195.3
  0
VERTEX
  5
b2
  8
Layer_0
  10
281.70001
  20
195.3
  0
SEQEND
  0
POLYLINE
  5
b4
  8
Layer_0
  62
1
  66
1
  10
0
  20
0
  30
0
  0
VERTEX
  5
b4
  8
Layer_0
  10
307.10001
  20
195.3
  0
VERTEX
  5
b5
  8
Layer_0
  10
307.10001
  20
187.7
  0
VERTEX
  5
b6
  8
Layer_0
  10
287.79999
  20
187.7
  0
VERTEX
  5
b7
  8
Layer_0
  10
287.79999
  20
195.3
  0
VERTEX
  5
b8
  8
Layer_0
  10
307.10001
  20
195.3
  0
SEQEND
  0
POLYLINE
  5
ba
  8
Layer_2
  62
5
  66
1
  10
0
  20
0
  30
0
  0
VERTEX
  5
ba
  8
Layer_2
  10
325.3847
  20
199.70592
  0
VERTEX
  5
bb
  8
Layer_2
  10
323.90723
  20
199.70456
  0
VERTEX
  5
bc
  8
Layer_2
  10
323.90485
  20
202.35054
  0
VERTEX
  5
bd
  8
Layer_2
  10
323.50781
  20
202.35019
  0
VERTEX
  5
be
  8
Layer_2
  10
323.51056
  20
199.35019
  0
VERTEX
  5
bf
  8
Layer_2
  10
325.38507
  20
199.35188
  0
VERTEX
  5
c0
  8
Layer_2
  10
325.3847
  20
199.70592
  0
SEQEND
  0
POLYLINE
  5
c2
  8
Layer_2
  62
5
  66
1
  10
0
  20
0
  30
0
  0
VERTEX
  5
c2
  8
Layer_2
  10
326.26056
  20
201.99866
  0
VERTEX
  5
c3
  8
Layer_2
  10
326.26135
  20
201.07983
  0
VERTEX
  5
c4
  8
Layer_2
  10
327.92099
  20
201.08134
  0
VERTEX
  5
c5
  8
Layer_2
  10
327.92133
  20
200.72937
  0
VERTEX
  5
c6
  8
Layer_2
  10
326.26169
  20
200.72786
  0
VERTEX
  5
c7
  8
Layer_2
  10
326.26263
  20
199.70671
  0
VERTEX
  5
c8
  8
Layer_2
  10
328.10437
  20
199.70839
  0
VERTEX
  5
c9
  8
Layer_2
  10
328.10468
  20
199.35437
  0
VERTEX
  5
ca
  8
Layer_2
  10
325.86597
  20
199.35233
  0
VERTEX
  5
cb
  8
Layer_2
  10
325.86322
  20
202.35233
  0
VERTEX
  5
cc
  8
Layer_2
  10
328.03238
  20
202.35429
  0
VERTEX
  5
cd
  8
Layer_2
  10
328.03271
  20
202.00027
  0
VERTEX
  5
ce
  8
Layer_2
  10
326.26056
  20
201.99866
  0
SEQEND
  0
POLYLINE
  5
d0
  8
Layer_2
  62
5
  66
1
  10
0
  20
0
  30
0
  0
VERTEX
  5
d0
  8
Layer_2
  10
329.68384
  20
202.3558
  42
-0.053429043
  0
VERTEX
  5
d1
  8
Layer_2
  10
330.21796
  20
202.31331
  42
-0.12247318
  0
VERTEX
  5
d2
  8
Layer_2
  10
330.65814
  20
202.09885
  42
-0.12971365
  0
VERTEX
  5
d3
  8
Layer_2
  10
331.01364
  20
201.58655
  42
-0.090554654
  0
VERTEX
  5
d4
  8
Layer_2
  10
331.13196
  20
200.87349
  42
-0.073503605
  0
VERTEX
  5
d5
  8
Layer_2
  10
331.0527
  20
200.26768
  42
-0.082780081
  0
VERTEX
  5
d6
  8
Layer_2
  10
330.84845
  20
199.8306
  42
-0.089275046
  0
VERTEX
  5
d7
  8
Layer_2
  10
330.5755
  20
199.55818
  42
-0.062262751
  0
VERTEX
  5
d8
  8
Layer_2
  10
330.35052
  20
199.44702
  42
-0.025473493
  0
VERTEX
  5
d9
  8
Layer_2
  10
330.21753
  20
199.40744
  0
VERTEX
  5
da
  8
Layer_2
  10
330.18216
  20
199.39925
  42
-0.053100145
  0
VERTEX
  5
db
  8
Layer_2
  10
329.73566
  20
199.35585
  0
VERTEX
  5
dc
  8
Layer_2
  10
328.65314
  20
199.35486
  0
VERTEX
  5
dd
  8
Layer_2
  10
328.65039
  20
202.35486
  0
VERTEX
  5
de
  8
Layer_2
  10
329.68384
  20
202.3558
  0
SEQEND
  0
POLYLINE
  5
e0
  8
Layer_2
  62
5
  66
1
  10
0
  20
0
  30
0
  0
VERTEX
  5
e0
  8
Layer_2
  10
329.04773
  20
202.00119
  0
VERTEX
  5
e1
  8
Layer_2
  10
329.67798
  20
202.00177
  42
-0.083419657
  0
VERTEX
  5
e2
  8
Layer_2
  10
330.19171
  20
201.94084
  42
-0.16708091
  0
VERTEX
  5
e3
  8
Layer_2
  10
330.5675
  20
201.60251
  42
-0.13442904
  0
VERTEX
  5
e4
  8
Layer_2
  10
330.72266
  20
200.87926
  42
-0.079253149
  0
VERTEX
  5
e5
  8
Layer_2
  10
330.64441
  20
200.30109
  42
-0.11734161
  0
VERTEX
  5
e6
  8
Layer_2
  10
330.42477
  20
199.92128
  42
-0.11776641
  0
VERTEX
  5
e7
  8
Layer_2
  10
330.15582
  20
199.7655
  42
-0.074648268
  0
VERTEX
  5
e8
  8
Layer_2
  10
329.71484
  20
199.70995
  0
VERTEX
  5
e9
  8
Layer_2
  10
329.69031
  20
199.70984
  0
VERTEX
  5
ea
  8
Layer_2
  10
329.0498
  20
199.70924
  0
VERTEX
  5
eb
  8
Layer_2
  10
329.04773
  20
202.00119
  0
SEQEND
  0
POLYLINE
  5
ed
  8
Layer_2
  62
5
  66
1
  10
0
  20
0
  30
0
  0
VERTEX
  5
ed
  8
Layer_2
  10
326.75305
  20
174.99429
  42
0.10491833
  0
VERTEX
  5
ee
  8
Layer_2
  10
326.51361
  20
175.47954
  42
0.13182601
  0
VERTEX
  5
ef
  8
Layer_2
  10
326.09399
  20
175.76271
  42
0.095964401
  0
VERTEX
  5
f0
  8
Layer_2
  10
325.50317
  20
175.85323
  42
0.11863975
  0
VERTEX
  5
f1
  8
Layer_2
  10
324.74457
  20
175.66489
  0
VERTEX
  5
f2
  8
Layer_2
  10
324.71613
  20
175.64914
  42
0.15609384
  0
VERTEX
  5
f3
  8
Layer_2
  10
324.21832
  20
175.10391
  0
VERTEX
  5
f4
  8
Layer_2
  10
324.20355
  20
175.07224
  42
0.10960446
  0
VERTEX
  5
f5
  8
Layer_2
  10
324.0405
  20
174.28674
  0
VERTEX
  5
f6
  8
Layer_2
  10
324.04108
  20
174.25035
  42
0.11506485
  0
VERTEX
  5
f7
  8
Layer_2
  10
324.22961
  20
173.48471
  0
VERTEX
  5
f8
  8
Layer_2
  10
324.24539
  20
173.45511
  42
0.15136764
  0
VERTEX
  5
f9
  8
Layer_2
  10
324.7742
  20
172.93695
  0
VERTEX
  5
fa
  8
Layer_2
  10
324.80438
  20
172.92163
  42
0.11819799
  0
VERTEX
  5
fb
  8
Layer_2
  10
325.57544
  20
172.75208
  0
VERTEX
  5
fc
  8
Layer_2
  10
325.61212
  20
172.75267
  42
0.034382613
  0
VERTEX
  5
fd
  8
Layer_2
  10
325.85486
  20
172.77534
  42
0.056600238
  0
VERTEX
  5
fe
  8
Layer_2
  10
326.24741
  20
172.8864
  42
0.078219861
  0
VERTEX
  5
ff
  8
Layer_2
  10
326.84204
  20
173.25247
  0
VERTEX
  5
100
  8
Layer_2
  10
326.81396
  20
174.36534
  0
VERTEX
  5
101
  8
Layer_2
  10
325.54364
  20
174.33125
  0
VERTEX
  5
102
  8
Layer_2
  10
325.55249
  20
173.97939
  0
VERTEX
  5
103
  8
Layer_2
  10
326.4342
  20
174.00163
  0
VERTEX
  5
104
  8
Layer_2
  10
326.4483
  20
173.44315
  42
-0.082887838
  0
VERTEX
  5
105
  8
Layer_2
  10
326.08133
  20
173.22202
  42
-0.088560215
  0
VERTEX
  5
106
  8
Layer_2
  10
325.62341
  20
173.11188
  0
VERTEX
  5
107
  8
Layer_2
  10
325.58057
  20
173.11011
  42
-0.11204153
  0
VERTEX
  5
108
  8
Layer_2
  10
325.03906
  20
173.21677
  0
VERTEX
  5
109
  8
Layer_2
  10
325.01672
  20
173.22688
  42
-0.15788282
  0
VERTEX
  5
10a
  8
Layer_2
  10
324.61694
  20
173.59575
  0
VERTEX
  5
10b
  8
Layer_2
  10
324.60464
  20
173.61771
  42
-0.11512444
  0
VERTEX
  5
10c
  8
Layer_2
  10
324.45068
  20
174.25204
  0
VERTEX
  5
10d
  8
Layer_2
  10
324.44962
  20
174.28522
  42
-0.094221066
  0
VERTEX
  5
10e
  8
Layer_2
  10
324.54019
  20
174.8681
  0
VERTEX
  5
10f
  8
Layer_2
  10
324.54895
  20
174.8916
  42
-0.078276024
  0
VERTEX
  5
110
  8
Layer_2
  10
324.71136
  20
175.16983
  0
VERTEX
  5
111
  8
Layer_2
  10
324.73071
  20
175.19301
  42
-0.10428747
  0
VERTEX
  5
112
  8
Layer_2
  10
325.01318
  20
175.40396
  0
VERTEX
  5
113
  8
Layer_2
  10
325.04535
  20
175.41896
  42
-0.064072629
  0
VERTEX
  5
114
  8
Layer_2
  10
325.3002
  20
175.4939
  42
-0.036050426
  0
VERTEX
  5
115
  8
Layer_2
  10
325.51379
  20
175.51369
  42
-0.10102149
  0
VERTEX
  5
116
  8
Layer_2
  10
325.92902
  20
175.44534
  42
-0.1312635
  0
VERTEX
  5
117
  8
Layer_2
  10
326.2207
  20
175.24289
  42
-0.090374887
  0
VERTEX
  5
118
  8
Layer_2
  10
326.39755
  20
174.88707
  0
VERTEX
  5
119
  8
Layer_2
  10
326.75305
  20
174.99429
  0
SEQEND
  0
POLYLINE
  5
11b
  8
Layer_2
  62
5
  66
1
  10
0
  20
0
  30
0
  0
VERTEX
  5
11b
  8
Layer_2
  10
329.2052
  20
174.11043
  42
-0.062910294
  0
VERTEX
  5
11c
  8
Layer_2
  10
329.54462
  20
173.71982
  0
VERTEX
  5
11d
  8
Layer_2
  10
330.08688
  20
172.91673
  0
VERTEX
  5
11e
  8
Layer_2
  10
329.58771
  20
172.90414
  0
VERTEX
  5
11f
  8
Layer_2
  10
329.17511
  20
173.51808
  42
0.022073914
  0
VERTEX
  5
120
  8
Layer_2
  10
328.8783
  20
173.92409
  42
0.080061313
  0
VERTEX
  5
121
  8
Layer_2
  10
328.67172
  20
174.11949
  42
0.084041244
  0
VERTEX
  5
122
  8
Layer_2
  10
328.48865
  20
174.1947
  42
0.046510143
  0
VERTEX
  5
123
  8
Layer_2
  10
328.26736
  20
174.20345
  0
VERTEX
  5
124
  8
Layer_2
  10
327.80707
  20
174.19183
  0
VERTEX
  5
125
  8
Layer_2
  10
327.84067
  20
172.86006
  0
VERTEX
  5
126
  8
Layer_2
  10
327.44379
  20
172.85005
  0
VERTEX
  5
127
  8
Layer_2
  10
327.36813
  20
175.84911
  0
VERTEX
  5
128
  8
Layer_2
  10
328.69788
  20
175.88264
  42
-0.087333814
  0
VERTEX
  5
129
  8
Layer_2
  10
329.30951
  20
175.81723
  42
-0.16906195
  0
VERTEX
  5
12a
  8
Layer_2
  10
329.65018
  20
175.54025
  42
-0.14048403
  0
VERTEX
  5
12b
  8
Layer_2
  10
329.78638
  20
175.09129
  42
-0.19787569
  0
VERTEX
  5
12c
  8
Layer_2
  10
329.59332
  20
174.54805
  42
-0.15612398
  0
VERTEX
  5
12d
  8
Layer_2
  10
329.06604
  20
174.2737
  42
-0.014524088
  0
VERTEX
  5
12e
  8
Layer_2
  10
328.9621
  20
174.25374
  42
-0.068831024
  0
VERTEX
  5
12f
  8
Layer_2
  10
329.2052
  20
174.11043
  0
SEQEND
  0
POLYLINE
  5
131
  8
Layer_2
  62
5
  66
1
  10
0
  20
0
  30
0
  0
VERTEX
  5
131
  8
Layer_2
  10
327.77338
  20
175.52771
  0
VERTEX
  5
132
  8
Layer_2
  10
328.7226
  20
175.55165
  42
-0.18006183
  0
VERTEX
  5
133
  8
Layer_2
  10
329.21396
  20
175.4269
  42
-0.22354389
  0
VERTEX
  5
134
  8
Layer_2
  10
329.37723
  20
175.08098
  42
-0.14665506
  0
VERTEX
  5
135
  8
Layer_2
  10
329.30423
  20
174.80995
  42
-0.16653983
  0
VERTEX
  5
136
  8
Layer_2
  10
329.07556
  20
174.62404
  42
-0.082929248
  0
VERTEX
  5
137
  8
Layer_2
  10
328.67395
  20
174.55771
  0
VERTEX
  5
138
  8
Layer_2
  10
328.65149
  20
174.55704
  0
VERTEX
  5
139
  8
Layer_2
  10
327.7984
  20
174.53552
  0
VERTEX
  5
13a
  8
Layer_2
  10
327.77338
  20
175.52771
  0
SEQEND
  0
POLYLINE
  5
13c
  8
Layer_2
  62
5
  66
1
  10
0
  20
0
  30
0
  0
VERTEX
  5
13c
  8
Layer_2
  10
331.51892
  20
175.95383
  42
-0.041767731
  0
VERTEX
  5
13d
  8
Layer_2
  10
331.97583
  20
175.93669
  42
-0.11058841
  0
VERTEX
  5
13e
  8
Layer_2
  10
332.34967
  20
175.80591
  42
-0.12995305
  0
VERTEX
  5
13f
  8
Layer_2
  10
332.59735
  20
175.52249
  42
-0.11512653
  0
VERTEX
  5
140
  8
Layer_2
  10
332.6987
  20
175.11565
  42
-0.19409794
  0
VERTEX
  5
141
  8
Layer_2
  10
332.47159
  20
174.46202
  42
-0.1583632
  0
VERTEX
  5
142
  8
Layer_2
  10
332.01959
  20
174.22281
  42
-0.049768343
  0
VERTEX
  5
143
  8
Layer_2
  10
331.5986
  20
174.17491
  0
VERTEX
  5
144
  8
Layer_2
  10
330.82941
  20
174.1555
  0
VERTEX
  5
145
  8
Layer_2
  10
330.86017
  20
172.93625
  0
VERTEX
  5
146
  8
Layer_2
  10
330.46332
  20
172.92624
  0
VERTEX
  5
147
  8
Layer_2
  10
330.38763
  20
175.92528
  0
VERTEX
  5
148
  8
Layer_2
  10
331.51892
  20
175.95383
  0
SEQEND
  0
POLYLINE
  5
14a
  8
Layer_2
  62
5
  66
1
  10
0
  20
0
  30
0
  0
VERTEX
  5
14a
  8
Layer_2
  10
330.79346
  20
175.58138
  0
VERTEX
  5
14b
  8
Layer_2
  10
331.56061
  20
175.60074
  42
-0.054695879
  0
VERTEX
  5
14c
  8
Layer_2
  10
331.93152
  20
175.58348
  42
-0.17750706
  0
VERTEX
  5
14d
  8
Layer_2
  10
332.18658
  20
175.41284
  42
-0.15857601
  0
VERTEX
  5
14e
  8
Layer_2
  10
332.28986
  20
175.09305
  42
-0.2229071
  0
VERTEX
  5
14f
  8
Layer_2
  10
332.13843
  20
174.68596
  42
-0.17426384
  0
VERTEX
  5
150
  8
Layer_2
  10
331.62747
  20
174.53003
  0
VERTEX
  5
151
  8
Layer_2
  10
331.59583
  20
174.52898
  0
VERTEX
  5
152
  8
Layer_2
  10
330.8205
  20
174.50941
  0
VERTEX
  5
153
  8
Layer_2
  10
330.79346
  20
175.58138
  0
SEQEND
  0
POLYLINE
  5
155
  8
Layer_2
  62
5
  66
1
  10
0
  20
0
  30
0
  0
VERTEX
  5
155
  8
Layer_2
  10
352.59705
  20
173.51259
  0
VERTEX
  5
156
  8
Layer_2
  10
351.11972
  20
173.49109
  0
VERTEX
  5
157
  8
Layer_2
  10
351.08121
  20
176.13678
  0
VERTEX
  5
158
  8
Layer_2
  10
350.68427
  20
176.131
  0
VERTEX
  5
159
  8
Layer_2
  10
350.72791
  20
173.13132
  0
VERTEX
  5
15a
  8
Layer_2
  10
352.6022
  20
173.1586
  0
VERTEX
  5
15b
  8
Layer_2
  10
352.59705
  20
173.51259
  0
SEQEND
  0
POLYLINE
  5
15d
  8
Layer_2
  62
5
  66
1
  10
0
  20
0
  30
0
  0
VERTEX
  5
15d
  8
Layer_2
  10
355.2063
  20
175.35156
  42
0.13859296
  0
VERTEX
  5
15e
  8
Layer_2
  10
355.05212
  20
175.82208
  42
0.15136795
  0
VERTEX
  5
15f
  8
Layer_2
  10
354.65567
  20
176.13252
  42
0.10027719
  0
VERTEX
  5
160
  8
Layer_2
  10
354.06583
  20
176.23138
  42
0.094182945
  0
VERTEX
  5
161
  8
Layer_2
  10
353.53751
  20
176.12971
  0
VERTEX
  5
162
  8
Layer_2
  10
353.51691
  20
176.12106
  42
0.14636964
  0
VERTEX
  5
163
  8
Layer_2
  10
353.15549
  20
175.83228
  0
VERTEX
  5
164
  8
Layer_2
  10
353.14478
  20
175.81583
  42
0.14185529
  0
VERTEX
  5
165
  8
Layer_2
  10
353.02197
  20
175.40825
  0
VERTEX
  5
166
  8
Layer_2
  10
353.02203
  20
175.38936
  42
0.13179618
  0
VERTEX
  5
167
  8
Layer_2
  10
353.1156
  20
175.0453
  0
VERTEX
  5
168
  8
Layer_2
  10
353.13284
  20
175.01747
  42
0.12876719
  0
VERTEX
  5
169
  8
Layer_2
  10
353.43927
  20
174.75204
  0
VERTEX
  5
16a
  8
Layer_2
  10
353.45715
  20
174.74283
  42
0.055542516
  0
VERTEX
  5
16b
  8
Layer_2
  10
354.00479
  20
174.57179
  0
VERTEX
  5
16c
  8
Layer_2
  10
354.03894
  20
174.56403
  42
-0.026002324
  0
VERTEX
  5
16d
  8
Layer_2
  10
354.5751
  20
174.42551
  42
-0.13540387
  0
VERTEX
  5
16e
  8
Layer_2
  10
354.84778
  20
174.25244
  42
-0.16956425
  0
VERTEX
  5
16f
  8
Layer_2
  10
354.93323
  20
174.00706
  42
-0.16133938
  0
VERTEX
  5
170
  8
Layer_2
  10
354.85205
  20
173.74904
  42
-0.14603355
  0
VERTEX
  5
171
  8
Layer_2
  10
354.59589
  20
173.56009
  42
-0.087177192
  0
VERTEX
  5
172
  8
Layer_2
  10
354.23331
  20
173.48775
  0
VERTEX
  5
173
  8
Layer_2
  10
354.19583
  20
173.48674
  42
-0.093422748
  0
VERTEX
  5
174
  8
Layer_2
  10
353.7688
  20
173.55533
  0
VERTEX
  5
175
  8
Layer_2
  10
353.73413
  20
173.56905
  42
-0.12152982
  0
VERTEX
  5
176
  8
Layer_2
  10
353.45544
  20
173.76309
  0
VERTEX
  5
177
  8
Layer_2
  10
353.44623
  20
173.77451
  0
VERTEX
  5
178
  8
Layer_2
  10
353.43738
  20
173.7861
  0
VERTEX
  5
179
  8
Layer_2
  10
353.42896
  20
173.79791
  42
-0.11228273
  0
VERTEX
  5
17a
  8
Layer_2
  10
353.30524
  20
174.12857
  0
VERTEX
  5
17b
  8
Layer_2
  10
353.29977
  20
174.16545
  0
VERTEX
  5
17c
  8
Layer_2
  10
352.92578
  20
174.12726
  42
0.13552975
  0
VERTEX
  5
17d
  8
Layer_2
  10
353.08527
  20
173.61028
  0
VERTEX
  5
17e
  8
Layer_2
  10
353.09836
  20
173.59048
  42
0.14380944
  0
VERTEX
  5
17f
  8
Layer_2
  10
353.51242
  20
173.24948
  0
VERTEX
  5
180
  8
Layer_2
  10
353.53528
  20
173.23972
  42
0.098516657
  0
VERTEX
  5
181
  8
Layer_2
  10
354.18573
  20
173.13069
  0
VERTEX
  5
182
  8
Layer_2
  10
354.21942
  20
173.13097
  42
0.032477203
  0
VERTEX
  5
183
  8
Layer_2
  10
354.42624
  20
173.14705
  42
0.075271562
  0
VERTEX
  5
184
  8
Layer_2
  10
354.79575
  20
173.25703
  42
0.14493944
  0
VERTEX
  5
185
  8
Layer_2
  10
355.18484
  20
173.59221
  42
0.14727442
  0
VERTEX
  5
186
  8
Layer_2
  10
355.31537
  20
174.04538
  42
0.15251846
  0
VERTEX
  5
187
  8
Layer_2
  10
355.18433
  20
174.47018
  42
0.13752422
  0
VERTEX
  5
188
  8
Layer_2
  10
354.79315
  20
174.77046
  42
0.043494656
  0
VERTEX
  5
189
  8
Layer_2
  10
354.1264
  20
174.95212
  42
-0.083244167
  0
VERTEX
  5
18a
  8
Layer_2
  10
353.54669
  20
175.14012
  0
VERTEX
  5
18b
  8
Layer_2
  10
353.5351
  20
175.14867
  0
VERTEX
  5
18c
  8
Layer_2
  10
353.52478
  20
175.15723
  42
-0.21325947
  0
VERTEX
  5
18d
  8
Layer_2
  10
353.40466
  20
175.40817
  0
VERTEX
  5
18e
  8
Layer_2
  10
353.4043
  20
175.42154
  42
-0.22992311
  0
VERTEX
  5
18f
  8
Layer_2
  10
353.55109
  20
175.73082
  0
VERTEX
  5
190
  8
Layer_2
  10
353.56436
  20
175.74211
  42
-0.1368141
  0
VERTEX
  5
191
  8
Layer_2
  10
353.89398
  20
175.86768
  42
-0.031902447
  0
VERTEX
  5
192
  8
Layer_2
  10
354.08728
  20
175.88173
  42
-0.17215653
  0
VERTEX
  5
193
  8
Layer_2
  10
354.61218
  20
175.74405
  42
-0.20140609
  0
VERTEX
  5
194
  8
Layer_2
  10
354.82614
  20
175.31738
  0
VERTEX
  5
195
  8
Layer_2
  10
355.2063
  20
175.35156
  0
SEQEND
  0
POLYLINE
  5
197
  8
Layer_2
  62
5
  66
1
  10
0
  20
0
  30
0
  0
VERTEX
  5
197
  8
Layer_2
  10
358.181
  20
174.72153
  0
VERTEX
  5
198
  8
Layer_2
  10
357.72922
  20
176.23354
  0
VERTEX
  5
199
  8
Layer_2
  10
357.25043
  20
176.22656
  0
VERTEX
  5
19a
  8
Layer_2
  10
356.70901
  20
174.19255
  42
0.005794429
  0
VERTEX
  5
19b
  8
Layer_2
  10
356.61545
  20
173.78557
  0
VERTEX
  5
19c
  8
Layer_2
  10
356.58203
  20
173.63608
  42
0.015333264
  0
VERTEX
  5
19d
  8
Layer_2
  10
356.44623
  20
174.24808
  0
VERTEX
  5
19e
  8
Layer_2
  10
355.9613
  20
176.20781
  0
VERTEX
  5
19f
  8
Layer_2
  10
355.55414
  20
176.20187
  0
VERTEX
  5
1a0
  8
Layer_2
  10
356.39374
  20
173.21378
  0
VERTEX
  5
1a1
  8
Layer_2
  10
356.79889
  20
173.21968
  0
VERTEX
  5
1a2
  8
Layer_2
  10
357.40198
  20
175.51451
  42
0.012402663
  0
VERTEX
  5
1a3
  8
Layer_2
  10
357.48486
  20
175.86774
  42
0.010589342
  0
VERTEX
  5
1a4
  8
Layer_2
  10
357.55801
  20
175.60614
  0
VERTEX
  5
1a5
  8
Layer_2
  10
357.58411
  20
175.51715
  0
VERTEX
  5
1a6
  8
Layer_2
  10
358.24963
  20
173.24078
  0
VERTEX
  5
1a7
  8
Layer_2
  10
358.63226
  20
173.24635
  0
VERTEX
  5
1a8
  8
Layer_2
  10
359.41116
  20
176.25801
  0
VERTEX
  5
1a9
  8
Layer_2
  10
359.01215
  20
176.25221
  0
VERTEX
  5
1aa
  8
Layer_2
  10
358.56958
  20
174.31787
  42
0.010130472
  0
VERTEX
  5
1ab
  8
Layer_2
  10
358.43881
  20
173.71109
  0
VERTEX
  5
1ac
  8
Layer_2
  10
358.42972
  20
173.66296
  42
0.033838816
  0
VERTEX
  5
1ad
  8
Layer_2
  10
358.181
  20
174.72153
  0
SEQEND
  0
POLYLINE
  5
1af
  8
Layer_1
  62
3
  66
1
  10
0
  20
0
  30
0
  0
VERTEX
  5
1af
  8
Layer_1
  10
218.5863
  20
242.06372
  0
VERTEX
  5
1b0
  8
Layer_1
  10
218.59601
  20
242.05336
  42
0.20819965
  0
VERTEX
  5
1b1
  8
Layer_1
  10
218.90349
  20
241.93683
  0
VERTEX
  5
1b2
  8
Layer_1
  10
218.9281
  20
241.93732
  42
0.13458678
  0
VERTEX
  5
1b3
  8
Layer_1
  10
219.16133
  20
242.00539
  0
VERTEX
  5
1b4
  8
Layer_1
  10
219.17894
  20
242.01715
  42
0.15994825
  0
VERTEX
  5
1b5
  8
Layer_1
  10
219.31073
  20
242.19162
  42
0.075980215
  0
VERTEX
  5
1b6
  8
Layer_1
  10
219.35165
  20
242.56712
  0
VERTEX
  5
1b7
  8
Layer_1
  10
219.35165
  20
244.63397
  0
VERTEX
  5
1b8
  8
Layer_1
  10
219.74866
  20
244.63397
  0
VERTEX
  5
1b9
  8
Layer_1
  10
219.74866
  20
242.58963
  42
-0.082118449
  0
VERTEX
  5
1ba
  8
Layer_1
  10
219.67892
  20
242.06073
  42
-0.016742558
  0
VERTEX
  5
1bb
  8
Layer_1
  10
219.65759
  20
242.00641
  0
VERTEX
  5
1bc
  8
Layer_1
  10
219.64981
  20
241.98936
  42
-0.16212154
  0
VERTEX
  5
1bd
  8
Layer_1
  10
219.36905
  20
241.69127
  0
VERTEX
  5
1be
  8
Layer_1
  10
219.35248
  20
241.68242
  42
-0.1208609
  0
VERTEX
  5
1bf
  8
Layer_1
  10
218.90553
  20
241.58281
  0
VERTEX
  5
1c0
  8
Layer_1
  10
218.87296
  20
241.58321
  42
-0.20878183
  0
VERTEX
  5
1c1
  8
Layer_1
  10
218.30083
  20
241.80997
  0
VERTEX
  5
1c2
  8
Layer_1
  10
218.28374
  20
241.82928
  42
-0.18190993
  0
VERTEX
  5
1c3
  8
Layer_1
  10
218.09926
  20
242.48526
  0
VERTEX
  5
1c4
  8
Layer_1
  10
218.45738
  20
242.53438
  0
VERTEX
  5
1c5
  8
Layer_1
  10
218.45874
  20
242.5061
  42
0.16153759
  0
VERTEX
  5
1c6
  8
Layer_1
  10
218.5863
  20
242.06372
  0
SEQEND
  0
POLYLINE
  5
1c8
  8
Layer_1
  62
3
  66
1
  10
0
  20
0
  30
0
  0
VERTEX
  5
1c8
  8
Layer_1
  10
220.91815
  20
243.72742
  0
VERTEX
  5
1c9
  8
Layer_1
  10
220.88248
  20
243.70673
  42
-0.041438846
  0
VERTEX
  5
1ca
  8
Layer_1
  10
220.53036
  20
243.53711
  0
VERTEX
  5
1cb
  8
Layer_1
  10
220.53036
  20
243.89319
  0
VERTEX
  5
1cc
  8
Layer_1
  10
220.58133
  20
243.91782
  42
0.067360747
  0
VERTEX
  5
1cd
  8
Layer_1
  10
221.07062
  20
244.24515
  0
VERTEX
  5
1ce
  8
Layer_1
  10
221.08965
  20
244.26236
  42
0.092003408
  0
VERTEX
  5
1cf
  8
Layer_1
  10
221.39804
  20
244.64624
  0
VERTEX
  5
1d0
  8
Layer_1
  10
221.63542
  20
244.64624
  0
VERTEX
  5
1d1
  8
Layer_1
  10
221.63542
  20
241.63397
  0
VERTEX
  5
1d2
  8
Layer_1
  10
221.26706
  20
241.63397
  0
VERTEX
  5
1d3
  8
Layer_1
  10
221.26706
  20
243.98117
  0
VERTEX
  5
1d4
  8
Layer_1
  10
221.24432
  20
243.96002
  42
-0.050314137
  0
VERTEX
  5
1d5
  8
Layer_1
  10
220.91815
  20
243.72742
  0
SEQEND
  0
POLYLINE
  5
1d7
  8
Layer_1
  62
3
  66
1
  10
0
  20
0
  30
0
  0
VERTEX
  5
1d7
  8
Layer_1
  10
223.66953
  20
242.53438
  0
VERTEX
  5
1d8
  8
Layer_1
  10
223.66953
  20
242.90479
  0
VERTEX
  5
1d9
  8
Layer_1
  10
222.53787
  20
242.90479
  0
VERTEX
  5
1da
  8
Layer_1
  10
222.53787
  20
242.53438
  0
VERTEX
  5
1db
  8
Layer_1
  10
223.66953
  20
242.53438
  0
SEQEND
  0
POLYLINE
  5
1dd
  8
Layer_1
  62
3
  66
1
  10
0
  20
0
  30
0
  0
VERTEX
  5
1dd
  8
Layer_1
  10
224.9393
  20
243.45627
  42
0.053091215
  0
VERTEX
  5
1de
  8
Layer_1
  10
224.58063
  20
242.57266
  0
VERTEX
  5
1df
  8
Layer_1
  10
224.55765
  20
242.48935
  42
0.055440419
  0
VERTEX
  5
1e0
  8
Layer_1
  10
224.41924
  20
241.66373
  0
VERTEX
  5
1e1
  8
Layer_1
  10
224.4185
  20
241.63397
  0
VERTEX
  5
1e2
  8
Layer_1
  10
224.79709
  20
241.63397
  42
-0.049034622
  0
VERTEX
  5
1e3
  8
Layer_1
  10
224.92041
  20
242.39542
  0
VERTEX
  5
1e4
  8
Layer_1
  10
224.93828
  20
242.45866
  42
-0.019476655
  0
VERTEX
  5
1e5
  8
Layer_1
  10
225.05481
  20
242.81155
  42
-0.037575897
  0
VERTEX
  5
1e6
  8
Layer_1
  10
225.37314
  20
243.49823
  42
-0.060610987
  0
VERTEX
  5
1e7
  8
Layer_1
  10
225.94101
  20
244.30859
  0
VERTEX
  5
1e8
  8
Layer_1
  10
225.94101
  20
244.59509
  0
VERTEX
  5
1e9
  8
Layer_1
  10
223.99899
  20
244.59509
  0
VERTEX
  5
1ea
  8
Layer_1
  10
223.99899
  20
244.24106
  0
VERTEX
  5
1eb
  8
Layer_1
  10
225.46829
  20
244.24106
  42
0.057251749
  0
VERTEX
  5
1ec
  8
Layer_1
  10
224.9393
  20
243.45627
  0
SEQEND
  0
POLYLINE
  5
1ee
  8
Layer_2
  62
5
  66
1
  10
0
  20
0
  30
0
  0
VERTEX
  5
1ee
  8
Layer_2
  10
244.64087
  20
214.19214
  0
VERTEX
  5
1ef
  8
Layer_2
  10
244.65056
  20
214.18176
  42
0.20863892
  0
VERTEX
  5
1f0
  8
Layer_2
  10
244.95782
  20
214.06468
  0
VERTEX
  5
1f1
  8
Layer_2
  10
244.98244
  20
214.06511
  42
0.13323184
  0
VERTEX
  5
1f2
  8
Layer_2
  10
245.21579
  20
214.13277
  0
VERTEX
  5
1f3
  8
Layer_2
  10
245.23343
  20
214.1445
  42
0.15893326
  0
VERTEX
  5
1f4
  8
Layer_2
  10
245.36552
  20
214.31871
  0
VERTEX
  5
1f5
  8
Layer_2
  10
245.36888
  20
214.32875
  0
VERTEX
  5
1f6
  8
Layer_2
  10
245.3721
  20
214.33928
  42
0.065524424
  0
VERTEX
  5
1f7
  8
Layer_2
  10
245.40714
  20
214.69415
  0
VERTEX
  5
1f8
  8
Layer_2
  10
245.41092
  20
216.76099
  0
VERTEX
  5
1f9
  8
Layer_2
  10
245.80792
  20
216.76025
  0
VERTEX
  5
1fa
  8
Layer_2
  10
245.80417
  20
214.71593
  42
-0.099626908
  0
VERTEX
  5
1fb
  8
Layer_2
  10
245.71205
  20
214.13287
  42
-0.074593238
  0
VERTEX
  5
1fc
  8
Layer_2
  10
245.60591
  20
213.96423
  42
-0.089185611
  0
VERTEX
  5
1fd
  8
Layer_2
  10
245.42293
  20
213.81827
  0
VERTEX
  5
1fe
  8
Layer_2
  10
245.40634
  20
213.80945
  42
-0.12070519
  0
VERTEX
  5
1ff
  8
Layer_2
  10
244.95923
  20
213.71065
  0
VERTEX
  5
200
  8
Layer_2
  10
244.92664
  20
213.71111
  42
-0.20888675
  0
VERTEX
  5
201
  8
Layer_2
  10
244.35493
  20
213.9389
  0
VERTEX
  5
202
  8
Layer_2
  10
244.33788
  20
213.95825
  42
-0.18219595
  0
VERTEX
  5
203
  8
Layer_2
  10
244.1546
  20
214.61458
  0
VERTEX
  5
204
  8
Layer_2
  10
244.51282
  20
214.66304
  0
VERTEX
  5
205
  8
Layer_2
  10
244.51413
  20
214.63477
  42
0.16166449
  0
VERTEX
  5
206
  8
Layer_2
  10
244.64087
  20
214.19214
  0
SEQEND
  0
POLYLINE
  5
208
  8
Layer_2
  62
5
  66
1
  10
0
  20
0
  30
0
  0
VERTEX
  5
208
  8
Layer_2
  10
246.97577
  20
215.85158
  0
VERTEX
  5
209
  8
Layer_2
  10
246.94006
  20
215.83093
  42
-0.041520545
  0
VERTEX
  5
20a
  8
Layer_2
  10
246.58763
  20
215.66197
  0
VERTEX
  5
20b
  8
Layer_2
  10
246.58829
  20
216.01804
  0
VERTEX
  5
20c
  8
Layer_2
  10
246.63928
  20
216.04259
  42
0.067283614
  0
VERTEX
  5
20d
  8
Layer_2
  10
247.12918
  20
216.36902
  0
VERTEX
  5
20e
  8
Layer_2
  10
247.14824
  20
216.3862
  42
0.092069659
  0
VERTEX
  5
20f
  8
Layer_2
  10
247.45734
  20
216.76953
  0
VERTEX
  5
210
  8
Layer_2
  10
247.6947
  20
216.76909
  0
VERTEX
  5
211
  8
Layer_2
  10
247.68919
  20
213.75681
  0
VERTEX
  5
212
  8
Layer_2
  10
247.32085
  20
213.75749
  0
VERTEX
  5
213
  8
Layer_2
  10
247.32513
  20
216.10468
  0
VERTEX
  5
214
  8
Layer_2
  10
247.30235
  20
216.08359
  42
-0.050273764
  0
VERTEX
  5
215
  8
Layer_2
  10
246.97577
  20
215.85158
  0
SEQEND
  0
POLYLINE
  5
217
  8
Layer_2
  62
5
  66
1
  10
0
  20
0
  30
0
  0
VERTEX
  5
217
  8
Layer_2
  10
269.49054
  20
214.53476
  0
VERTEX
  5
218
  8
Layer_2
  10
269.50024
  20
214.5244
  42
0.20825405
  0
VERTEX
  5
219
  8
Layer_2
  10
269.80768
  20
214.40775
  0
VERTEX
  5
21a
  8
Layer_2
  10
269.83228
  20
214.4082
  42
0.1350968
  0
VERTEX
  5
21b
  8
Layer_2
  10
270.06555
  20
214.4762
  42
0.17364621
  0
VERTEX
  5
21c
  8
Layer_2
  10
270.215
  20
214.66235
  42
0.076207529
  0
VERTEX
  5
21d
  8
Layer_2
  10
270.2561
  20
215.03784
  0
VERTEX
  5
21e
  8
Layer_2
  10
270.25696
  20
217.10469
  0
VERTEX
  5
21f
  8
Layer_2
  10
270.65396
  20
217.10452
  0
VERTEX
  5
220
  8
Layer_2
  10
270.65311
  20
215.06018
  42
-0.099942245
  0
VERTEX
  5
221
  8
Layer_2
  10
270.56177
  20
214.47701
  42
-0.11854812
  0
VERTEX
  5
222
  8
Layer_2
  10
270.37927
  20
214.23357
  42
-0.045916218
  0
VERTEX
  5
223
  8
Layer_2
  10
270.2731
  20
214.16199
  0
VERTEX
  5
224
  8
Layer_2
  10
270.25653
  20
214.15314
  42
-0.120937
  0
VERTEX
  5
225
  8
Layer_2
  10
269.80957
  20
214.05371
  0
VERTEX
  5
226
  8
Layer_2
  10
269.77698
  20
214.05414
  42
-0.20891769
  0
VERTEX
  5
227
  8
Layer_2
  10
269.20496
  20
214.28113
  0
VERTEX
  5
228
  8
Layer_2
  10
269.18787
  20
214.30045
  0
VERTEX
  5
229
  8
Layer_2
  10
269.17151
  20
214.32053
  42
-0.17214052
  0
VERTEX
  5
22a
  8
Layer_2
  10
269.00366
  20
214.95651
  0
VERTEX
  5
22b
  8
Layer_2
  10
269.36182
  20
215.00548
  0
VERTEX
  5
22c
  8
Layer_2
  10
269.36316
  20
214.9772
  0
VERTEX
  5
22d
  8
Layer_2
  10
269.36487
  20
214.94969
  0
VERTEX
  5
22e
  8
Layer_2
  10
269.36691
  20
214.92291
  42
0.15686315
  0
VERTEX
  5
22f
  8
Layer_2
  10
269.49054
  20
214.53476
  0
SEQEND
  0
POLYLINE
  5
231
  8
Layer_2
  62
5
  66
1
  10
0
  20
0
  30
0
  0
VERTEX
  5
231
  8
Layer_2
  10
271.77231
  20
214.65759
  42
-0.02178845
  0
VERTEX
  5
232
  8
Layer_2
  10
272.09418
  20
214.94722
  0
VERTEX
  5
233
  8
Layer_2
  10
272.19812
  20
215.03497
  42
0.032389903
  0
VERTEX
  5
234
  8
Layer_2
  10
272.7662
  20
215.56268
  42
0.080251549
  0
VERTEX
  5
235
  8
Layer_2
  10
273.01089
  20
215.92889
  42
0.10118097
  0
VERTEX
  5
236
  8
Layer_2
  10
273.08472
  20
216.28288
  42
0.21354655
  0
VERTEX
  5
237
  8
Layer_2
  10
272.83325
  20
216.87643
  42
0.19753947
  0
VERTEX
  5
238
  8
Layer_2
  10
272.14987
  20
217.11617
  42
0.18502714
  0
VERTEX
  5
239
  8
Layer_2
  10
271.46832
  20
216.89441
  42
0.19104673
  0
VERTEX
  5
23a
  8
Layer_2
  10
271.17908
  20
216.28386
  0
VERTEX
  5
23b
  8
Layer_2
  10
271.17542
  20
216.2489
  0
VERTEX
  5
23c
  8
Layer_2
  10
271.55399
  20
216.20987
  42
-0.1698404
  0
VERTEX
  5
23d
  8
Layer_2
  10
271.67841
  20
216.61002
  0
VERTEX
  5
23e
  8
Layer_2
  10
271.69034
  20
216.62437
  0
VERTEX
  5
23f
  8
Layer_2
  10
271.70282
  20
216.63831
  0
VERTEX
  5
240
  8
Layer_2
  10
271.71585
  20
216.65182
  42
-0.023757753
  0
VERTEX
  5
241
  8
Layer_2
  10
271.75745
  20
216.68921
  42
-0.17518971
  0
VERTEX
  5
242
  8
Layer_2
  10
272.14157
  20
216.81125
  42
-0.19065973
  0
VERTEX
  5
243
  8
Layer_2
  10
272.53656
  20
216.67294
  0
VERTEX
  5
244
  8
Layer_2
  10
272.54974
  20
216.66068
  42
-0.21198414
  0
VERTEX
  5
245
  8
Layer_2
  10
272.70615
  20
216.29123
  42
-0.15979532
  0
VERTEX
  5
246
  8
Layer_2
  10
272.53406
  20
215.84827
  42
-0.056091898
  0
VERTEX
  5
247
  8
Layer_2
  10
271.8728
  20
215.21313
  42
0.040786746
  0
VERTEX
  5
248
  8
Layer_2
  10
271.40485
  20
214.77553
  0
VERTEX
  5
249
  8
Layer_2
  10
271.39069
  20
214.75905
  42
0.078138709
  0
VERTEX
  5
24a
  8
Layer_2
  10
271.16129
  20
214.39383
  0
VERTEX
  5
24b
  8
Layer_2
  10
271.14801
  20
214.36011
  42
0.085896315
  0
VERTEX
  5
24c
  8
Layer_2
  10
271.10501
  20
214.14838
  0
VERTEX
  5
24d
  8
Layer_2
  10
271.10461
  20
214.12643
  0
VERTEX
  5
24e
  8
Layer_2
  10
271.10495
  20
214.10432
  0
VERTEX
  5
24f
  8
Layer_2
  10
273.08789
  20
214.10349
  0
VERTEX
  5
250
  8
Layer_2
  10
273.08804
  20
214.4575
  0
VERTEX
  5
251
  8
Layer_2
  10
271.6167
  20
214.45813
  42
-0.048045511
  0
VERTEX
  5
252
  8
Layer_2
  10
271.75684
  20
214.64105
  0
VERTEX
  5
253
  8
Layer_2
  10
271.77231
  20
214.65759
  0
SEQEND
  0
POLYLINE
  5
255
  8
Layer_2
  62
5
  66
1
  10
0
  20
0
  30
0
  0
VERTEX
  5
255
  8
Layer_2
  10
294.535
  20
214.09677
  0
VERTEX
  5
256
  8
Layer_2
  10
294.54471
  20
214.08641
  42
0.20947858
  0
VERTEX
  5
257
  8
Layer_2
  10
294.85208
  20
213.96964
  0
VERTEX
  5
258
  8
Layer_2
  10
294.87671
  20
213.97009
  42
0.13402195
  0
VERTEX
  5
259
  8
Layer_2
  10
295.10999
  20
214.03796
  42
0.17239454
  0
VERTEX
  5
25a
  8
Layer_2
  10
295.25952
  20
214.22406
  42
0.022916486
  0
VERTEX
  5
25b
  8
Layer_2
  10
295.26611
  20
214.24463
  42
0.066026453
  0
VERTEX
  5
25c
  8
Layer_2
  10
295.30078
  20
214.59953
  0
VERTEX
  5
25d
  8
Layer_2
  10
295.30255
  20
216.66638
  0
VERTEX
  5
25e
  8
Layer_2
  10
295.69955
  20
216.66605
  0
VERTEX
  5
25f
  8
Layer_2
  10
295.69781
  20
214.6217
  42
-0.099836309
  0
VERTEX
  5
260
  8
Layer_2
  10
295.60623
  20
214.03856
  42
-0.15460171
  0
VERTEX
  5
261
  8
Layer_2
  10
295.34961
  20
213.7424
  42
-0.0092327741
  0
VERTEX
  5
262
  8
Layer_2
  10
295.31744
  20
213.72366
  0
VERTEX
  5
263
  8
Layer_2
  10
295.30084
  20
213.71483
  0
VERTEX
  5
264
  8
Layer_2
  10
295.28403
  20
213.70638
  0
VERTEX
  5
265
  8
Layer_2
  10
295.26697
  20
213.69829
  0
VERTEX
  5
266
  8
Layer_2
  10
295.24966
  20
213.69058
  0
VERTEX
  5
267
  8
Layer_2
  10
295.23215
  20
213.68326
  42
-0.096935772
  0
VERTEX
  5
268
  8
Layer_2
  10
294.85382
  20
213.6156
  0
VERTEX
  5
269
  8
Layer_2
  10
294.82123
  20
213.61603
  42
-0.2092715
  0
VERTEX
  5
26a
  8
Layer_2
  10
294.24933
  20
213.84326
  0
VERTEX
  5
26b
  8
Layer_2
  10
294.23224
  20
213.86259
  42
-0.1819902
  0
VERTEX
  5
26c
  8
Layer_2
  10
294.04834
  20
214.51875
  0
VERTEX
  5
26d
  8
Layer_2
  10
294.40649
  20
214.56755
  0
VERTEX
  5
26e
  8
Layer_2
  10
294.40784
  20
214.53928
  42
0.16092108
  0
VERTEX
  5
26f
  8
Layer_2
  10
294.535
  20
214.09677
  0
SEQEND
  0
POLYLINE
  5
271
  8
Layer_2
  62
5
  66
1
  10
0
  20
0
  30
0
  0
VERTEX
  5
271
  8
Layer_2
  10
297.91278
  20
215.54272
  42
0.14829821
  0
VERTEX
  5
272
  8
Layer_2
  10
298.01746
  20
215.89667
  42
0.13836914
  0
VERTEX
  5
273
  8
Layer_2
  10
297.90829
  20
216.28352
  42
0.14261397
  0
VERTEX
  5
274
  8
Layer_2
  10
297.59238
  20
216.5713
  42
0.11088506
  0
VERTEX
  5
275
  8
Layer_2
  10
297.18088
  20
216.67632
  0
VERTEX
  5
276
  8
Layer_2
  10
297.16061
  20
216.67688
  0
VERTEX
  5
277
  8
Layer_2
  10
297.14023
  20
216.67709
  42
0.17357028
  0
VERTEX
  5
278
  8
Layer_2
  10
296.56473
  20
216.49057
  0
VERTEX
  5
279
  8
Layer_2
  10
296.54456
  20
216.47397
  42
0.17130737
  0
VERTEX
  5
27a
  8
Layer_2
  10
296.24304
  20
215.9308
  0
VERTEX
  5
27b
  8
Layer_2
  10
296.23709
  20
215.90024
  0
VERTEX
  5
27c
  8
Layer_2
  10
296.60541
  20
215.83444
  42
-0.1586145
  0
VERTEX
  5
27d
  8
Layer_2
  10
296.77814
  20
216.22798
  0
VERTEX
  5
27e
  8
Layer_2
  10
296.78992
  20
216.23946
  42
-0.050508323
  0
VERTEX
  5
27f
  8
Layer_2
  10
296.86606
  20
216.29849
  42
-0.14255349
  0
VERTEX
  5
280
  8
Layer_2
  10
297.14813
  20
216.37421
  42
-0.16394965
  0
VERTEX
  5
281
  8
Layer_2
  10
297.45416
  20
216.28159
  42
-0.01274828
  0
VERTEX
  5
282
  8
Layer_2
  10
297.47867
  20
216.26216
  0
VERTEX
  5
283
  8
Layer_2
  10
297.49051
  20
216.25175
  0
VERTEX
  5
284
  8
Layer_2
  10
297.50208
  20
216.24089
  42
-0.19651438
  0
VERTEX
  5
285
  8
Layer_2
  10
297.63794
  20
215.93845
  0
VERTEX
  5
286
  8
Layer_2
  10
297.63867
  20
215.92194
  0
VERTEX
  5
287
  8
Layer_2
  10
297.63889
  20
215.90517
  42
-0.26705196
  0
VERTEX
  5
288
  8
Layer_2
  10
297.45029
  20
215.52675
  42
-0.14240308
  0
VERTEX
  5
289
  8
Layer_2
  10
297.04611
  20
215.40453
  0
VERTEX
  5
28a
  8
Layer_2
  10
297.02658
  20
215.40433
  0
VERTEX
  5
28b
  8
Layer_2
  10
297.02274
  20
215.40436
  0
VERTEX
  5
28c
  8
Layer_2
  10
297.01868
  20
215.40445
  42
-0.015489419
  0
VERTEX
  5
28d
  8
Layer_2
  10
296.98474
  20
215.40668
  42
-0.0063204107
  0
VERTEX
  5
28e
  8
Layer_2
  10
296.97327
  20
215.40781
  0
VERTEX
  5
28f
  8
Layer_2
  10
296.96722
  20
215.40848
  0
VERTEX
  5
290
  8
Layer_2
  10
296.92603
  20
215.08517
  42
-0.062236847
  0
VERTEX
  5
291
  8
Layer_2
  10
297.18597
  20
215.12589
  42
-0.20598173
  0
VERTEX
  5
292
  8
Layer_2
  10
297.60736
  20
214.96078
  42
-0.20608842
  0
VERTEX
  5
293
  8
Layer_2
  10
297.77277
  20
214.54216
  42
-0.20474057
  0
VERTEX
  5
294
  8
Layer_2
  10
297.59332
  20
214.09621
  42
-0.19874844
  0
VERTEX
  5
295
  8
Layer_2
  10
297.17575
  20
213.91679
  0
VERTEX
  5
296
  8
Layer_2
  10
297.15424
  20
213.9165
  42
-0.16725877
  0
VERTEX
  5
297
  8
Layer_2
  10
296.82205
  20
214.02254
  0
VERTEX
  5
298
  8
Layer_2
  10
296.80878
  20
214.03287
  0
VERTEX
  5
299
  8
Layer_2
  10
296.79575
  20
214.04367
  0
VERTEX
  5
29a
  8
Layer_2
  10
296.78293
  20
214.05495
  42
-0.15029437
  0
VERTEX
  5
29b
  8
Layer_2
  10
296.57855
  20
214.45538
  0
VERTEX
  5
29c
  8
Layer_2
  10
296.57285
  20
214.48056
  0
VERTEX
  5
29d
  8
Layer_2
  10
296.56741
  20
214.50636
  0
VERTEX
  5
29e
  8
Layer_2
  10
296.19904
  20
214.45757
  42
0.18385319
  0
VERTEX
  5
29f
  8
Layer_2
  10
296.47491
  20
213.86736
  0
VERTEX
  5
2a0
  8
Layer_2
  10
296.49625
  20
213.84749
  42
0.18470085
  0
VERTEX
  5
2a1
  8
Layer_2
  10
297.11923
  20
213.61203
  0
VERTEX
  5
2a2
  8
Layer_2
  10
297.15192
  20
213.61159
  42
0.1442874
  0
VERTEX
  5
2a3
  8
Layer_2
  10
297.72375
  20
213.76477
  42
0.049232333
  0
VERTEX
  5
2a4
  8
Layer_2
  10
297.87659
  20
213.88416
  42
0.21348336
  0
VERTEX
  5
2a5
  8
Layer_2
  10
298.16364
  20
214.55002
  42
0.16667157
  0
VERTEX
  5
2a6
  8
Layer_2
  10
298.01672
  20
215.03412
  42
0.17975342
  0
VERTEX
  5
2a7
  8
Layer_2
  10
297.60358
  20
215.28925
  42
0.034327676
  0
VERTEX
  5
2a8
  8
Layer_2
  10
297.71445
  20
215.34962
  42
0.10583824
  0
VERTEX
  5
2a9
  8
Layer_2
  10
297.91278
  20
215.54272
  0
SEQEND
  0
POLYLINE
  5
2ab
  8
Layer_2
  62
5
  66
1
  10
0
  20
0
  30
0
  0
VERTEX
  5
2ab
  8
Layer_2
  10
244.40121
  20
184.19063
  0
VERTEX
  5
2ac
  8
Layer_2
  10
244.41093
  20
184.18028
  42
0.20822362
  0
VERTEX
  5
2ad
  8
Layer_2
  10
244.71849
  20
184.06395
  0
VERTEX
  5
2ae
  8
Layer_2
  10
244.7431
  20
184.06444
  42
0.13354598
  0
VERTEX
  5
2af
  8
Layer_2
  10
244.97629
  20
184.13266
  42
0.17394678
  0
VERTEX
  5
2b0
  8
Layer_2
  10
245.12556
  20
184.31897
  42
0.076118169
  0
VERTEX
  5
2b1
  8
Layer_2
  10
245.16626
  20
184.6945
  0
VERTEX
  5
2b2
  8
Layer_2
  10
245.16501
  20
186.76135
  0
VERTEX
  5
2b3
  8
Layer_2
  10
245.562
  20
186.7616
  0
VERTEX
  5
2b4
  8
Layer_2
  10
245.56325
  20
184.71725
  42
-0.099883857
  0
VERTEX
  5
2b5
  8
Layer_2
  10
245.47253
  20
184.13399
  42
-0.15495513
  0
VERTEX
  5
2b6
  8
Layer_2
  10
245.21635
  20
183.83745
  42
-0.012292361
  0
VERTEX
  5
2b7
  8
Layer_2
  10
245.18419
  20
183.81866
  0
VERTEX
  5
2b8
  8
Layer_2
  10
245.16762
  20
183.80981
  42
-0.1209076
  0
VERTEX
  5
2b9
  8
Layer_2
  10
244.72075
  20
183.70993
  0
VERTEX
  5
2ba
  8
Layer_2
  10
244.68816
  20
183.7103
  42
-0.20898587
  0
VERTEX
  5
2bb
  8
Layer_2
  10
244.11591
  20
183.93671
  0
VERTEX
  5
2bc
  8
Layer_2
  10
244.09879
  20
183.95601
  42
-0.18202035
  0
VERTEX
  5
2bd
  8
Layer_2
  10
243.91393
  20
184.61188
  0
VERTEX
  5
2be
  8
Layer_2
  10
244.272
  20
184.66122
  0
VERTEX
  5
2bf
  8
Layer_2
  10
244.27341
  20
184.63295
  42
0.16167554
  0
VERTEX
  5
2c0
  8
Layer_2
  10
244.40121
  20
184.19063
  0
SEQEND
  0
POLYLINE
  5
2c2
  8
Layer_2
  62
5
  66
1
  10
0
  20
0
  30
0
  0
VERTEX
  5
2c2
  8
Layer_2
  10
248.017
  20
184.48138
  0
VERTEX
  5
2c3
  8
Layer_2
  10
247.61182
  20
184.48112
  0
VERTEX
  5
2c4
  8
Layer_2
  10
247.61226
  20
183.76285
  0
VERTEX
  5
2c5
  8
Layer_2
  10
247.24391
  20
183.76262
  0
VERTEX
  5
2c6
  8
Layer_2
  10
247.24347
  20
184.4809
  0
VERTEX
  5
2c7
  8
Layer_2
  10
245.94197
  20
184.4801
  0
VERTEX
  5
2c8
  8
Layer_2
  10
245.94177
  20
184.81776
  0
VERTEX
  5
2c9
  8
Layer_2
  10
247.30962
  20
186.76266
  0
VERTEX
  5
2ca
  8
Layer_2
  10
247.61043
  20
186.76285
  0
VERTEX
  5
2cb
  8
Layer_2
  10
247.61162
  20
184.81879
  0
VERTEX
  5
2cc
  8
Layer_2
  10
248.0168
  20
184.81903
  0
VERTEX
  5
2cd
  8
Layer_2
  10
248.017
  20
184.48138
  0
SEQEND
  0
POLYLINE
  5
2cf
  8
Layer_2
  62
5
  66
1
  10
0
  20
0
  30
0
  0
VERTEX
  5
2cf
  8
Layer_2
  10
246.30399
  20
184.81799
  0
VERTEX
  5
2d0
  8
Layer_2
  10
247.24327
  20
184.81856
  0
VERTEX
  5
2d1
  8
Layer_2
  10
247.24245
  20
186.17122
  0
VERTEX
  5
2d2
  8
Layer_2
  10
246.30399
  20
184.81799
  0
SEQEND
  0
POLYLINE
  5
2d4
  8
Layer_2
  62
5
  66
1
  10
0
  20
0
  30
0
  0
VERTEX
  5
2d4
  8
Layer_2
  10
270.04608
  20
184.24191
  0
VERTEX
  5
2d5
  8
Layer_2
  10
270.05576
  20
184.23154
  42
0.208003
  0
VERTEX
  5
2d6
  8
Layer_2
  10
270.36313
  20
184.11472
  0
VERTEX
  5
2d7
  8
Layer_2
  10
270.38776
  20
184.11517
  42
0.133644
  0
VERTEX
  5
2d8
  8
Layer_2
  10
270.62103
  20
184.18303
  42
0.17450627
  0
VERTEX
  5
2d9
  8
Layer_2
  10
270.7706
  20
184.36909
  42
0.076350105
  0
VERTEX
  5
2da
  8
Layer_2
  10
270.81189
  20
184.74457
  0
VERTEX
  5
2db
  8
Layer_2
  10
270.8139
  20
186.81142
  0
VERTEX
  5
2dc
  8
Layer_2
  10
271.21091
  20
186.81104
  0
VERTEX
  5
2dd
  8
Layer_2
  10
271.20892
  20
184.76669
  42
-0.099884156
  0
VERTEX
  5
2de
  8
Layer_2
  10
271.11731
  20
184.18356
  42
-0.16906253
  0
VERTEX
  5
2df
  8
Layer_2
  10
270.82843
  20
183.8687
  42
-0.021346057
  0
VERTEX
  5
2e0
  8
Layer_2
  10
270.76068
  20
183.83563
  42
-0.10273354
  0
VERTEX
  5
2e1
  8
Layer_2
  10
270.36484
  20
183.7607
  0
VERTEX
  5
2e2
  8
Layer_2
  10
270.33224
  20
183.76112
  42
-0.20917184
  0
VERTEX
  5
2e3
  8
Layer_2
  10
269.76035
  20
183.98843
  0
VERTEX
  5
2e4
  8
Layer_2
  10
269.74326
  20
184.00777
  42
-0.18185866
  0
VERTEX
  5
2e5
  8
Layer_2
  10
269.55945
  20
184.66394
  0
VERTEX
  5
2e6
  8
Layer_2
  10
269.9176
  20
184.71271
  0
VERTEX
  5
2e7
  8
Layer_2
  10
269.91895
  20
184.68442
  42
0.16158833
  0
VERTEX
  5
2e8
  8
Layer_2
  10
270.04608
  20
184.24191
  0
SEQEND
  0
POLYLINE
  5
2ea
  8
Layer_2
  62
5
  66
1
  10
0
  20
0
  30
0
  0
VERTEX
  5
2ea
  8
Layer_2
  10
272.3606
  20
186.41701
  0
VERTEX
  5
2eb
  8
Layer_2
  10
273.55774
  20
186.41583
  0
VERTEX
  5
2ec
  8
Layer_2
  10
273.55807
  20
186.76782
  0
VERTEX
  5
2ed
  8
Layer_2
  10
272.06628
  20
186.76927
  0
VERTEX
  5
2ee
  8
Layer_2
  10
271.77417
  20
185.22862
  0
VERTEX
  5
2ef
  8
Layer_2
  10
272.11996
  20
185.18327
  42
-0.11591036
  0
VERTEX
  5
2f0
  8
Layer_2
  10
272.32181
  20
185.37903
  0
VERTEX
  5
2f1
  8
Layer_2
  10
272.34528
  20
185.39281
  42
-0.038186242
  0
VERTEX
  5
2f2
  8
Layer_2
  10
272.41913
  20
185.4281
  42
-0.096057556
  0
VERTEX
  5
2f3
  8
Layer_2
  10
272.66663
  20
185.47333
  42
-0.21000534
  0
VERTEX
  5
2f4
  8
Layer_2
  10
273.12997
  20
185.29074
  42
-0.19995809
  0
VERTEX
  5
2f5
  8
Layer_2
  10
273.30649
  20
184.7933
  42
-0.19252118
  0
VERTEX
  5
2f6
  8
Layer_2
  10
273.1218
  20
184.26141
  42
-0.20947739
  0
VERTEX
  5
2f7
  8
Layer_2
  10
272.69342
  20
184.06165
  0
VERTEX
  5
2f8
  8
Layer_2
  10
272.67139
  20
184.06131
  42
-0.18400416
  0
VERTEX
  5
2f9
  8
Layer_2
  10
272.30713
  20
184.19229
  0
VERTEX
  5
2fa
  8
Layer_2
  10
272.29398
  20
184.2039
  42
-0.16944659
  0
VERTEX
  5
2fb
  8
Layer_2
  10
272.09863
  20
184.60544
  0
VERTEX
  5
2fc
  8
Layer_2
  10
272.09488
  20
184.62872
  0
VERTEX
  5
2fd
  8
Layer_2
  10
271.70807
  20
184.59636
  42
0.18635053
  0
VERTEX
  5
2fe
  8
Layer_2
  10
271.98203
  20
184.00768
  0
VERTEX
  5
2ff
  8
Layer_2
  10
272.00317
  20
183.9883
  42
0.18178442
  0
VERTEX
  5
300
  8
Layer_2
  10
272.63727
  20
183.75888
  0
VERTEX
  5
301
  8
Layer_2
  10
272.67111
  20
183.75845
  42
0.098646854
  0
VERTEX
  5
302
  8
Layer_2
  10
273.08463
  20
183.83456
  42
0.12975072
  0
VERTEX
  5
303
  8
Layer_2
  10
273.45932
  20
184.12193
  42
0.17470338
  0
VERTEX
  5
304
  8
Layer_2
  10
273.69739
  20
184.82565
  42
0.20469944
  0
VERTEX
  5
305
  8
Layer_2
  10
273.42795
  20
185.52579
  42
0.20748098
  0
VERTEX
  5
306
  8
Layer_2
  10
272.7652
  20
185.7986
  42
0.15082055
  0
VERTEX
  5
307
  8
Layer_2
  10
272.22073
  20
185.62622
  0
VERTEX
  5
308
  8
Layer_2
  10
272.19815
  20
185.61089
  0
VERTEX
  5
309
  8
Layer_2
  10
272.3606
  20
186.41701
  0
SEQEND
  0
POLYLINE
  5
30b
  8
Layer_2
  62
5
  66
1
  10
0
  20
0
  30
0
  0
VERTEX
  5
30b
  8
Layer_2
  10
295.97977
  20
184.32443
  0
VERTEX
  5
30c
  8
Layer_2
  10
295.98947
  20
184.31407
  42
0.20845095
  0
VERTEX
  5
30d
  8
Layer_2
  10
296.29694
  20
184.19748
  0
VERTEX
  5
30e
  8
Layer_2
  10
296.32153
  20
184.19795
  42
0.13544985
  0
VERTEX
  5
30f
  8
Layer_2
  10
296.55478
  20
184.26596
  42
0.17430377
  0
VERTEX
  5
310
  8
Layer_2
  10
296.70422
  20
184.45215
  0
VERTEX
  5
311
  8
Layer_2
  10
296.70755
  20
184.4622
  0
VERTEX
  5
312
  8
Layer_2
  10
296.71075
  20
184.47275
  0
VERTEX
  5
313
  8
Layer_2
  10
296.71381
  20
184.48376
  0
VERTEX
  5
314
  8
Layer_2
  10
296.71674
  20
184.49527
  42
0.055791574
  0
VERTEX
  5
315
  8
Layer_2
  10
296.74524
  20
184.82765
  0
VERTEX
  5
316
  8
Layer_2
  10
296.74573
  20
186.8945
  0
VERTEX
  5
317
  8
Layer_2
  10
297.1427
  20
186.89441
  0
VERTEX
  5
318
  8
Layer_2
  10
297.14224
  20
184.85007
  42
-0.099871498
  0
VERTEX
  5
319
  8
Layer_2
  10
297.05103
  20
184.26688
  42
-0.16861075
  0
VERTEX
  5
31a
  8
Layer_2
  10
296.76242
  20
183.9518
  42
-0.046868876
  0
VERTEX
  5
31b
  8
Layer_2
  10
296.62314
  20
183.89157
  42
-0.07949328
  0
VERTEX
  5
31c
  8
Layer_2
  10
296.29889
  20
183.84344
  0
VERTEX
  5
31d
  8
Layer_2
  10
296.2663
  20
183.84386
  42
-0.20931432
  0
VERTEX
  5
31e
  8
Layer_2
  10
295.69424
  20
184.07074
  0
VERTEX
  5
31f
  8
Layer_2
  10
295.67712
  20
184.09006
  42
-0.18215858
  0
VERTEX
  5
320
  8
Layer_2
  10
295.49283
  20
184.74609
  0
VERTEX
  5
321
  8
Layer_2
  10
295.85095
  20
184.79512
  0
VERTEX
  5
322
  8
Layer_2
  10
295.85233
  20
184.76685
  42
0.16119003
  0
VERTEX
  5
323
  8
Layer_2
  10
295.97977
  20
184.32443
  0
SEQEND
  0
POLYLINE
  5
325
  8
Layer_2
  62
5
  66
1
  10
0
  20
0
  30
0
  0
VERTEX
  5
325
  8
Layer_2
  10
298.31708
  20
185.74202
  0
VERTEX
  5
326
  8
Layer_2
  10
298.34927
  20
185.75771
  42
-0.11024137
  0
VERTEX
  5
327
  8
Layer_2
  10
298.72021
  20
185.84015
  42
-0.21290695
  0
VERTEX
  5
328
  8
Layer_2
  10
299.34738
  20
185.56885
  42
-0.19876028
  0
VERTEX
  5
329
  8
Layer_2
  10
299.60608
  20
184.8679
  42
-0.1184941
  0
VERTEX
  5
32a
  8
Layer_2
  10
299.48419
  20
184.34305
  42
-0.14368196
  0
VERTEX
  5
32b
  8
Layer_2
  10
299.14954
  20
183.97169
  42
-0.060355151
  0
VERTEX
  5
32c
  8
Layer_2
  10
298.96222
  20
183.88669
  42
-0.077571467
  0
VERTEX
  5
32d
  8
Layer_2
  10
298.66656
  20
183.8429
  0
VERTEX
  5
32e
  8
Layer_2
  10
298.62848
  20
183.84349
  42
-0.21967347
  0
VERTEX
  5
32f
  8
Layer_2
  10
297.91562
  20
184.18175
  0
VERTEX
  5
330
  8
Layer_2
  10
297.89191
  20
184.21074
  42
-0.16028892
  0
VERTEX
  5
331
  8
Layer_2
  10
297.62531
  20
185.29813
  0
VERTEX
  5
332
  8
Layer_2
  10
297.62585
  20
185.36977
  42
-0.16460076
  0
VERTEX
  5
333
  8
Layer_2
  10
297.94687
  20
186.56271
  0
VERTEX
  5
334
  8
Layer_2
  10
297.97058
  20
186.59076
  42
-0.22515389
  0
VERTEX
  5
335
  8
Layer_2
  10
298.70206
  20
186.90633
  42
-0.18664712
  0
VERTEX
  5
336
  8
Layer_2
  10
299.28217
  20
186.70769
  42
-0.18700655
  0
VERTEX
  5
337
  8
Layer_2
  10
299.55319
  20
186.15919
  0
VERTEX
  5
338
  8
Layer_2
  10
299.18689
  20
186.13063
  42
0.12552333
  0
VERTEX
  5
339
  8
Layer_2
  10
299.04779
  20
186.4458
  42
0.21418938
  0
VERTEX
  5
33a
  8
Layer_2
  10
298.67947
  20
186.60345
  42
0.078359316
  0
VERTEX
  5
33b
  8
Layer_2
  10
298.51422
  20
186.57895
  42
0.083741661
  0
VERTEX
  5
33c
  8
Layer_2
  10
298.37045
  20
186.50531
  0
VERTEX
  5
33d
  8
Layer_2
  10
298.35608
  20
186.49454
  42
0.13211557
  0
VERTEX
  5
33e
  8
Layer_2
  10
298.09616
  20
186.13498
  0
VERTEX
  5
33f
  8
Layer_2
  10
298.08795
  20
186.11432
  42
0.084744772
  0
VERTEX
  5
340
  8
Layer_2
  10
297.99164
  20
185.44128
  0
VERTEX
  5
341
  8
Layer_2
  10
298.00281
  20
185.45798
  42
-0.12706234
  0
VERTEX
  5
342
  8
Layer_2
  10
298.31708
  20
185.74202
  0
SEQEND
  0
POLYLINE
  5
344
  8
Layer_2
  62
5
  66
1
  10
0
  20
0
  30
0
  0
VERTEX
  5
344
  8
Layer_2
  10
298.66049
  20
184.14575
  0
VERTEX
  5
345
  8
Layer_2
  10
298.67981
  20
184.14609
  42
0.21242754
  0
VERTEX
  5
346
  8
Layer_2
  10
299.06161
  20
184.33392
  42
0.18711616
  0
VERTEX
  5
347
  8
Layer_2
  10
299.22955
  20
184.84549
  42
0.19257007
  0
VERTEX
  5
348
  8
Layer_2
  10
299.0639
  20
185.33563
  42
0.21748004
  0
VERTEX
  5
349
  8
Layer_2
  10
298.64648
  20
185.5148
  42
0.073707261
  0
VERTEX
  5
34a
  8
Layer_2
  10
298.46988
  20
185.48965
  42
0.12856861
  0
VERTEX
  5
34b
  8
Layer_2
  10
298.22284
  20
185.33583
  0
VERTEX
  5
34c
  8
Layer_2
  10
298.20865
  20
185.32072
  42
0.19072186
  0
VERTEX
  5
34d
  8
Layer_2
  10
298.0488
  20
184.86623
  0
VERTEX
  5
34e
  8
Layer_2
  10
298.04935
  20
184.83463
  42
0.10085014
  0
VERTEX
  5
34f
  8
Layer_2
  10
298.12952
  20
184.50195
  0
VERTEX
  5
350
  8
Layer_2
  10
298.14343
  20
184.47354
  42
0.13699665
  0
VERTEX
  5
351
  8
Layer_2
  10
298.35559
  20
184.23689
  0
VERTEX
  5
352
  8
Layer_2
  10
298.37991
  20
184.22235
  42
0.1329464
  0
VERTEX
  5
353
  8
Layer_2
  10
298.66049
  20
184.14575
  0
SEQEND
  0
ENDSEC
  0
EOF
