  0
SECTION
  2
HEADER
  9
$ACADVER
  1
AC1009
  0
ENDSEC
  0
SECTION
  2
ENTITIES
  0
CIRCLE
  5
90
  8
Layer_0
  62
1
  10
105.3578
  20
169.1951
  30
0
  40
1.5
  0
CIRCLE
  5
90
  8
Layer_0
  62
1
  10
340.35779
  20
169.1951
  30
0
  40
1.5
  0
CIRCLE
  5
90
  8
Layer_0
  62
1
  10
105.3578
  20
104.1951
  30
0
  40
1.5
  0
CIRCLE
  5
90
  8
Layer_0
  62
1
  10
340.35779
  20
104.1951
  30
0
  40
1.5
  0
CIRCLE
  5
90
  8
Layer_0
  62
1
  10
177.8578
  20
137.6951
  30
0
  40
1.5
  0
CIRCLE
  5
90
  8
Layer_0
  62
1
  10
187.8578
  20
159.6951
  30
0
  40
1.5
  0
POLYLINE
  5
90
  8
Layer_0
  62
1
  66
1
  10
0
  20
0
  30
0
  0
VERTEX
  5
90
  8
Layer_0
  10
88.857803
  20
151.6201
  0
VERTEX
  5
91
  8
Layer_0
  10
97.857803
  20
151.6201
  0
VERTEX
  5
92
  8
Layer_0
  10
97.857803
  20
121.77011
  0
VERTEX
  5
93
  8
Layer_0
  10
88.857803
  20
121.77011
  0
VERTEX
  5
94
  8
Layer_0
  10
88.857803
  20
87.695099
  0
VERTEX
  5
95
  8
Layer_0
  10
145.4328
  20
87.695099
  0
VERTEX
  5
96
  8
Layer_0
  10
145.4328
  20
96.695099
  0
VERTEX
  5
97
  8
Layer_0
  10
175.28281
  20
96.695099
  0
VERTEX
  5
98
  8
Layer_0
  10
175.28281
  20
87.695099
  0
VERTEX
  5
99
  8
Layer_0
  10
270.4328
  20
87.695099
  0
VERTEX
  5
9a
  8
Layer_0
  10
270.4328
  20
96.695099
  0
VERTEX
  5
9b
  8
Layer_0
  10
300.28281
  20
96.695099
  0
VERTEX
  5
9c
  8
Layer_0
  10
300.28281
  20
87.695099
  0
VERTEX
  5
9d
  8
Layer_0
  10
356.85779
  20
87.695099
  0
VERTEX
  5
9e
  8
Layer_0
  10
356.85779
  20
121.77011
  0
VERTEX
  5
9f
  8
Layer_0
  10
347.85779
  20
121.77011
  0
VERTEX
  5
a0
  8
Layer_0
  10
347.85779
  20
151.6201
  0
VERTEX
  5
a1
  8
Layer_0
  10
356.85779
  20
151.6201
  0
VERTEX
  5
a2
  8
Layer_0
  10
356.85779
  20
185.6951
  0
VERTEX
  5
a3
  8
Layer_0
  10
300.28281
  20
185.6951
  0
VERTEX
  5
a4
  8
Layer_0
  10
300.28281
  20
176.6951
  0
VERTEX
  5
a5
  8
Layer_0
  10
270.4328
  20
176.6951
  0
VERTEX
  5
a6
  8
Layer_0
  10
270.4328
  20
185.6951
  0
VERTEX
  5
a7
  8
Layer_0
  10
175.28281
  20
185.6951
  0
VERTEX
  5
a8
  8
Layer_0
  10
175.28281
  20
176.6951
  0
VERTEX
  5
a9
  8
Layer_0
  10
145.4328
  20
176.6951
  0
VERTEX
  5
aa
  8
Layer_0
  10
145.4328
  20
185.6951
  0
VERTEX
  5
ab
  8
Layer_0
  10
88.857803
  20
185.6951
  0
VERTEX
  5
ac
  8
Layer_0
  10
88.857803
  20
151.6201
  0
SEQEND
  0
ENDSEC
  0
EOF
