  0
SECTION
  2
HEADER
  9
$ACADVER
  1
AC1009
  0
ENDSEC
  0
SECTION
  2
ENTITIES
  0
CIRCLE
  5
90
  8
Layer_0
  62
1
  10
136.88998
  20
243.14644
  30
0
  40
1.5
  0
CIRCLE
  5
90
  8
Layer_0
  62
1
  10
376.88998
  20
243.14644
  30
0
  40
1.5
  0
CIRCLE
  5
90
  8
Layer_0
  62
1
  10
136.88998
  20
173.14644
  30
0
  40
1.5
  0
CIRCLE
  5
90
  8
Layer_0
  62
1
  10
376.88998
  20
173.14644
  30
0
  40
1.5
  0
CIRCLE
  5
90
  8
Layer_0
  62
1
  10
182.88998
  20
231.14644
  30
0
  40
1.5
  0
CIRCLE
  5
90
  8
Layer_0
  62
1
  10
172.88998
  20
209.14644
  30
0
  40
1.5
  0
POLYLINE
  5
90
  8
Layer_0
  62
1
  66
1
  10
0
  20
0
  30
0
  0
VERTEX
  5
90
  8
Layer_0
  10
122.88998
  20
223.09644
  0
VERTEX
  5
91
  8
Layer_0
  10
131.88998
  20
223.09644
  0
VERTEX
  5
92
  8
Layer_0
  10
131.88998
  20
193.19644
  0
VERTEX
  5
93
  8
Layer_0
  10
122.88998
  20
193.19644
  0
VERTEX
  5
94
  8
Layer_0
  10
122.88998
  20
159.14644
  0
VERTEX
  5
95
  8
Layer_0
  10
179.43999
  20
159.14644
  0
VERTEX
  5
96
  8
Layer_0
  10
179.43999
  20
168.14644
  0
VERTEX
  5
97
  8
Layer_0
  10
209.33998
  20
168.14644
  0
VERTEX
  5
98
  8
Layer_0
  10
209.33998
  20
159.14644
  0
VERTEX
  5
99
  8
Layer_0
  10
304.43997
  20
159.14644
  0
VERTEX
  5
9a
  8
Layer_0
  10
304.43997
  20
168.14644
  0
VERTEX
  5
9b
  8
Layer_0
  10
334.33997
  20
168.14644
  0
VERTEX
  5
9c
  8
Layer_0
  10
334.33997
  20
159.14644
  0
VERTEX
  5
9d
  8
Layer_0
  10
390.88998
  20
159.14644
  0
VERTEX
  5
9e
  8
Layer_0
  10
390.88998
  20
193.19644
  0
VERTEX
  5
9f
  8
Layer_0
  10
381.88998
  20
193.19644
  0
VERTEX
  5
a0
  8
Layer_0
  10
381.88998
  20
223.09644
  0
VERTEX
  5
a1
  8
Layer_0
  10
390.88998
  20
223.09644
  0
VERTEX
  5
a2
  8
Layer_0
  10
390.88998
  20
257.14644
  0
VERTEX
  5
a3
  8
Layer_0
  10
334.33997
  20
257.14644
  0
VERTEX
  5
a4
  8
Layer_0
  10
334.33997
  20
248.14644
  0
VERTEX
  5
a5
  8
Layer_0
  10
304.43997
  20
248.14644
  0
VERTEX
  5
a6
  8
Layer_0
  10
304.43997
  20
257.14644
  0
VERTEX
  5
a7
  8
Layer_0
  10
209.33998
  20
257.14644
  0
VERTEX
  5
a8
  8
Layer_0
  10
209.33998
  20
248.14644
  0
VERTEX
  5
a9
  8
Layer_0
  10
179.43999
  20
248.14644
  0
VERTEX
  5
aa
  8
Layer_0
  10
179.43999
  20
257.14644
  0
VERTEX
  5
ab
  8
Layer_0
  10
122.88998
  20
257.14644
  0
VERTEX
  5
ac
  8
Layer_0
  10
122.88998
  20
223.09644
  0
SEQEND
  0
POLYLINE
  5
ae
  8
Layer_0
  62
1
  66
1
  10
0
  20
0
  30
0
  0
VERTEX
  5
ae
  8
Layer_0
  10
340.98999
  20
223.09644
  0
VERTEX
  5
af
  8
Layer_0
  10
343.88998
  20
223.09644
  0
VERTEX
  5
b0
  8
Layer_0
  10
343.88998
  20
193.19644
  0
VERTEX
  5
b1
  8
Layer_0
  10
340.98999
  20
193.19644
  0
VERTEX
  5
b2
  8
Layer_0
  10
340.98999
  20
223.09644
  0
SEQEND
  0
POLYLINE
  5
b4
  8
Layer_1
  62
3
  66
1
  10
0
  20
0
  30
0
  0
VERTEX
  5
b4
  8
Layer_1
  10
351.24442
  20
235.66174
  0
VERTEX
  5
b5
  8
Layer_1
  10
351.25412
  20
235.6514
  42
0.208242
  0
VERTEX
  5
b6
  8
Layer_1
  10
351.56161
  20
235.53487
  42
0.14423249
  0
VERTEX
  5
b7
  8
Layer_1
  10
351.81946
  20
235.60342
  42
0.17406954
  0
VERTEX
  5
b8
  8
Layer_1
  10
351.96884
  20
235.78964
  42
0.076159033
  0
VERTEX
  5
b9
  8
Layer_1
  10
352.00977
  20
236.16516
  0
VERTEX
  5
ba
  8
Layer_1
  10
352.00977
  20
238.23201
  0
VERTEX
  5
bb
  8
Layer_1
  10
352.40677
  20
238.23201
  0
VERTEX
  5
bc
  8
Layer_1
  10
352.40677
  20
236.18767
  42
-0.099809635
  0
VERTEX
  5
bd
  8
Layer_1
  10
352.3157
  20
235.60445
  42
-0.1691019
  0
VERTEX
  5
be
  8
Layer_1
  10
352.02716
  20
235.28931
  42
-0.12736767
  0
VERTEX
  5
bf
  8
Layer_1
  10
351.56366
  20
235.18085
  42
-0.033255277
  0
VERTEX
  5
c0
  8
Layer_1
  10
351.40714
  20
235.1907
  42
-0.17961432
  0
VERTEX
  5
c1
  8
Layer_1
  10
350.95895
  20
235.40799
  0
VERTEX
  5
c2
  8
Layer_1
  10
350.94186
  20
235.42731
  42
-0.18192943
  0
VERTEX
  5
c3
  8
Layer_1
  10
350.75739
  20
236.0833
  0
VERTEX
  5
c4
  8
Layer_1
  10
351.11551
  20
236.13242
  0
VERTEX
  5
c5
  8
Layer_1
  10
351.11688
  20
236.10414
  42
0.16164558
  0
VERTEX
  5
c6
  8
Layer_1
  10
351.24442
  20
235.66174
  0
SEQEND
  0
POLYLINE
  5
c8
  8
Layer_1
  62
3
  66
1
  10
0
  20
0
  30
0
  0
VERTEX
  5
c8
  8
Layer_1
  10
353.57629
  20
237.32545
  42
-0.043752425
  0
VERTEX
  5
c9
  8
Layer_1
  10
353.18848
  20
237.13515
  0
VERTEX
  5
ca
  8
Layer_1
  10
353.18848
  20
237.49121
  42
0.072851789
  0
VERTEX
  5
cb
  8
Layer_1
  10
353.72873
  20
237.84319
  42
0.09418362
  0
VERTEX
  5
cc
  8
Layer_1
  10
354.05615
  20
238.24428
  0
VERTEX
  5
cd
  8
Layer_1
  10
354.29355
  20
238.24428
  0
VERTEX
  5
ce
  8
Layer_1
  10
354.29355
  20
235.23201
  0
VERTEX
  5
cf
  8
Layer_1
  10
353.9252
  20
235.23201
  0
VERTEX
  5
d0
  8
Layer_1
  10
353.9252
  20
237.57921
  42
-0.056796906
  0
VERTEX
  5
d1
  8
Layer_1
  10
353.57629
  20
237.32545
  0
SEQEND
  0
POLYLINE
  5
d3
  8
Layer_1
  62
3
  66
1
  10
0
  20
0
  30
0
  0
VERTEX
  5
d3
  8
Layer_1
  10
356.32764
  20
236.13242
  0
VERTEX
  5
d4
  8
Layer_1
  10
356.32764
  20
236.50281
  0
VERTEX
  5
d5
  8
Layer_1
  10
355.19598
  20
236.50281
  0
VERTEX
  5
d6
  8
Layer_1
  10
355.19598
  20
236.13242
  0
VERTEX
  5
d7
  8
Layer_1
  10
356.32764
  20
236.13242
  0
SEQEND
  0
POLYLINE
  5
d9
  8
Layer_1
  62
3
  66
1
  10
0
  20
0
  30
0
  0
VERTEX
  5
d9
  8
Layer_1
  10
357.25262
  20
235.78555
  42
-0.02178004
  0
VERTEX
  5
da
  8
Layer_1
  10
357.57434
  20
236.07532
  0
VERTEX
  5
db
  8
Layer_1
  10
357.67825
  20
236.16312
  42
0.032474421
  0
VERTEX
  5
dc
  8
Layer_1
  10
358.24612
  20
236.69107
  42
0.080585747
  0
VERTEX
  5
dd
  8
Layer_1
  10
358.49066
  20
237.05737
  42
0.10117554
  0
VERTEX
  5
de
  8
Layer_1
  10
358.56433
  20
237.41141
  42
0.21361424
  0
VERTEX
  5
df
  8
Layer_1
  10
358.31262
  20
238.00485
  42
0.19120306
  0
VERTEX
  5
e0
  8
Layer_1
  10
357.66483
  20
238.24387
  0
VERTEX
  5
e1
  8
Layer_1
  10
357.62915
  20
238.24428
  42
0.17483318
  0
VERTEX
  5
e2
  8
Layer_1
  10
356.96915
  20
238.04037
  0
VERTEX
  5
e3
  8
Layer_1
  10
356.94769
  20
238.02225
  42
0.19112301
  0
VERTEX
  5
e4
  8
Layer_1
  10
356.65869
  20
237.41156
  0
VERTEX
  5
e5
  8
Layer_1
  10
356.65506
  20
237.37662
  0
VERTEX
  5
e6
  8
Layer_1
  10
357.03363
  20
237.33774
  42
-0.19102316
  0
VERTEX
  5
e7
  8
Layer_1
  10
357.18228
  20
237.76624
  0
VERTEX
  5
e8
  8
Layer_1
  10
357.19531
  20
237.77975
  42
-0.19849761
  0
VERTEX
  5
e9
  8
Layer_1
  10
357.59897
  20
237.93909
  0
VERTEX
  5
ea
  8
Layer_1
  10
357.62097
  20
237.93938
  42
-0.034071602
  0
VERTEX
  5
eb
  8
Layer_1
  10
357.72171
  20
237.93285
  42
-0.16250466
  0
VERTEX
  5
ec
  8
Layer_1
  10
358.02921
  20
237.78896
  42
-0.21211897
  0
VERTEX
  5
ed
  8
Layer_1
  10
358.18576
  20
237.41959
  42
-0.15973813
  0
VERTEX
  5
ee
  8
Layer_1
  10
358.01385
  20
236.97655
  42
-0.056069125
  0
VERTEX
  5
ef
  8
Layer_1
  10
357.35287
  20
236.34114
  42
0.040750384
  0
VERTEX
  5
f0
  8
Layer_1
  10
356.88513
  20
235.90332
  0
VERTEX
  5
f1
  8
Layer_1
  10
356.87097
  20
235.88684
  42
0.077981009
  0
VERTEX
  5
f2
  8
Layer_1
  10
356.64172
  20
235.52153
  0
VERTEX
  5
f3
  8
Layer_1
  10
356.62848
  20
235.48781
  42
0.092303666
  0
VERTEX
  5
f4
  8
Layer_1
  10
356.58517
  20
235.2541
  0
VERTEX
  5
f5
  8
Layer_1
  10
356.58548
  20
235.23201
  0
VERTEX
  5
f6
  8
Layer_1
  10
358.56842
  20
235.23201
  0
VERTEX
  5
f7
  8
Layer_1
  10
358.56842
  20
235.58603
  0
VERTEX
  5
f8
  8
Layer_1
  10
357.09708
  20
235.58603
  42
-0.048973515
  0
VERTEX
  5
f9
  8
Layer_1
  10
357.23715
  20
235.769
  0
VERTEX
  5
fa
  8
Layer_1
  10
357.25262
  20
235.78555
  0
SEQEND
  0
ENDSEC
  0
EOF
