  0
SECTION
  2
HEADER
  9
$ACADVER
  1
AC1009
  0
ENDSEC
  0
SECTION
  2
ENTITIES
  0
CIRCLE
  5
90
  8
Layer_0
  62
1
  10
157.54366
  20
323.5592
  30
0
  40
1.5
  0
CIRCLE
  5
90
  8
Layer_0
  62
1
  10
347.54364
  20
323.5592
  30
0
  40
1.5
  0
CIRCLE
  5
90
  8
Layer_0
  62
1
  10
157.54366
  20
83.559204
  30
0
  40
1.5
  0
CIRCLE
  5
90
  8
Layer_0
  62
1
  10
347.54364
  20
83.559204
  30
0
  40
1.5
  0
CIRCLE
  5
90
  8
Layer_0
  62
1
  10
252.54366
  20
163.55922
  30
0
  40
45.5
  0
CIRCLE
  5
90
  8
Layer_0
  62
1
  10
252.54366
  20
218.55922
  30
0
  40
1.5
  0
CIRCLE
  5
90
  8
Layer_0
  62
1
  10
204.91226
  20
191.05922
  30
0
  40
1.5
  0
CIRCLE
  5
90
  8
Layer_0
  62
1
  10
204.91226
  20
136.0592
  30
0
  40
1.5
  0
CIRCLE
  5
90
  8
Layer_0
  62
1
  10
252.54366
  20
108.5592
  30
0
  40
1.5
  0
CIRCLE
  5
90
  8
Layer_0
  62
1
  10
300.17505
  20
136.0592
  30
0
  40
1.5
  0
CIRCLE
  5
90
  8
Layer_0
  62
1
  10
300.17505
  20
191.05922
  30
0
  40
1.5
  0
CIRCLE
  5
90
  8
Layer_0
  62
1
  10
252.54366
  20
282.5592
  30
0
  40
8.1999998
  0
CIRCLE
  5
90
  8
Layer_0
  62
1
  10
237.04366
  20
298.0592
  30
0
  40
1.5
  0
CIRCLE
  5
90
  8
Layer_0
  62
1
  10
237.04366
  20
267.0592
  30
0
  40
1.5
  0
CIRCLE
  5
90
  8
Layer_0
  62
1
  10
268.04364
  20
267.0592
  30
0
  40
1.5
  0
CIRCLE
  5
90
  8
Layer_0
  62
1
  10
268.04364
  20
298.0592
  30
0
  40
1.5
  0
CIRCLE
  5
90
  8
Layer_0
  62
1
  10
192.54366
  20
283.5592
  30
0
  40
30
  0
POLYLINE
  5
90
  8
Layer_0
  62
1
  66
1
  10
0
  20
0
  30
0
  0
VERTEX
  5
90
  8
Layer_0
  10
352.54364
  20
281.05922
  0
VERTEX
  5
91
  8
Layer_0
  10
361.54364
  20
281.05922
  0
VERTEX
  5
92
  8
Layer_0
  10
361.54364
  20
251.05922
  0
VERTEX
  5
93
  8
Layer_0
  10
352.54364
  20
251.05922
  0
VERTEX
  5
94
  8
Layer_0
  10
352.54364
  20
156.05922
  0
VERTEX
  5
95
  8
Layer_0
  10
361.54364
  20
156.05922
  0
VERTEX
  5
96
  8
Layer_0
  10
361.54364
  20
126.0592
  0
VERTEX
  5
97
  8
Layer_0
  10
352.54364
  20
126.0592
  0
VERTEX
  5
98
  8
Layer_0
  10
352.54364
  20
78.559204
  0
VERTEX
  5
99
  8
Layer_0
  10
267.54364
  20
78.559204
  0
VERTEX
  5
9a
  8
Layer_0
  10
267.54364
  20
69.559204
  0
VERTEX
  5
9b
  8
Layer_0
  10
237.54366
  20
69.559204
  0
VERTEX
  5
9c
  8
Layer_0
  10
237.54366
  20
78.559204
  0
VERTEX
  5
9d
  8
Layer_0
  10
152.54366
  20
78.559204
  0
VERTEX
  5
9e
  8
Layer_0
  10
152.54366
  20
126.0592
  0
VERTEX
  5
9f
  8
Layer_0
  10
143.54366
  20
126.0592
  0
VERTEX
  5
a0
  8
Layer_0
  10
143.54366
  20
156.05922
  0
VERTEX
  5
a1
  8
Layer_0
  10
152.54366
  20
156.05922
  0
VERTEX
  5
a2
  8
Layer_0
  10
152.54366
  20
251.05922
  0
VERTEX
  5
a3
  8
Layer_0
  10
143.54366
  20
251.05922
  0
VERTEX
  5
a4
  8
Layer_0
  10
143.54366
  20
281.05922
  0
VERTEX
  5
a5
  8
Layer_0
  10
152.54366
  20
281.05922
  0
VERTEX
  5
a6
  8
Layer_0
  10
152.54366
  20
328.55922
  0
VERTEX
  5
a7
  8
Layer_0
  10
237.54366
  20
328.55922
  0
VERTEX
  5
a8
  8
Layer_0
  10
237.54366
  20
337.55922
  0
VERTEX
  5
a9
  8
Layer_0
  10
267.54364
  20
337.55922
  0
VERTEX
  5
aa
  8
Layer_0
  10
267.54364
  20
328.55922
  0
VERTEX
  5
ab
  8
Layer_0
  10
352.54364
  20
328.55922
  0
VERTEX
  5
ac
  8
Layer_0
  10
352.54364
  20
281.05922
  0
SEQEND
  0
POLYLINE
  5
ae
  8
Layer_0
  62
1
  66
1
  10
0
  20
0
  30
0
  0
VERTEX
  5
ae
  8
Layer_0
  10
260.04364
  20
249.05922
  0
VERTEX
  5
af
  8
Layer_0
  10
270.04364
  20
249.05922
  42
-0.41421356
  0
VERTEX
  5
b0
  8
Layer_0
  10
272.54364
  20
246.55922
  42
-0.41421356
  0
VERTEX
  5
b1
  8
Layer_0
  10
270.04364
  20
244.05922
  0
VERTEX
  5
b2
  8
Layer_0
  10
260.04364
  20
244.05922
  42
-0.41421356
  0
VERTEX
  5
b3
  8
Layer_0
  10
257.54364
  20
246.55922
  42
-0.41421356
  0
VERTEX
  5
b4
  8
Layer_0
  10
260.04364
  20
249.05922
  0
SEQEND
  0
POLYLINE
  5
b6
  8
Layer_0
  62
1
  66
1
  10
0
  20
0
  30
0
  0
VERTEX
  5
b6
  8
Layer_0
  10
235.04366
  20
249.05922
  0
VERTEX
  5
b7
  8
Layer_0
  10
245.04366
  20
249.05922
  42
-0.41421356
  0
VERTEX
  5
b8
  8
Layer_0
  10
247.54366
  20
246.55922
  42
-0.41421356
  0
VERTEX
  5
b9
  8
Layer_0
  10
245.04366
  20
244.05922
  0
VERTEX
  5
ba
  8
Layer_0
  10
235.04366
  20
244.05922
  42
-0.41421356
  0
VERTEX
  5
bb
  8
Layer_0
  10
232.54366
  20
246.55922
  42
-0.41421356
  0
VERTEX
  5
bc
  8
Layer_0
  10
235.04366
  20
249.05922
  0
SEQEND
  0
POLYLINE
  5
be
  8
Layer_1
  62
3
  66
1
  10
0
  20
0
  30
0
  0
VERTEX
  5
be
  8
Layer_1
  10
164.68356
  20
319.25064
  0
VERTEX
  5
bf
  8
Layer_1
  10
164.69327
  20
319.24029
  0
VERTEX
  5
c0
  8
Layer_1
  10
164.70328
  20
319.23038
  0
VERTEX
  5
c1
  8
Layer_1
  10
164.71359
  20
319.2209
  42
0.18795121
  0
VERTEX
  5
c2
  8
Layer_1
  10
165.00076
  20
319.12376
  0
VERTEX
  5
c3
  8
Layer_1
  10
165.02538
  20
319.12424
  42
0.13434777
  0
VERTEX
  5
c4
  8
Layer_1
  10
165.25861
  20
319.19232
  42
-0.026658231
  0
VERTEX
  5
c5
  8
Layer_1
  10
165.29288
  20
319.21653
  42
-0.018016697
  0
VERTEX
  5
c6
  8
Layer_1
  10
165.32341
  20
319.24348
  0
VERTEX
  5
c7
  8
Layer_1
  10
165.33727
  20
319.25797
  42
0.10248231
  0
VERTEX
  5
c8
  8
Layer_1
  10
165.40799
  20
319.37854
  0
VERTEX
  5
c9
  8
Layer_1
  10
165.41133
  20
319.38859
  0
VERTEX
  5
ca
  8
Layer_1
  10
165.41452
  20
319.39912
  0
VERTEX
  5
cb
  8
Layer_1
  10
165.41759
  20
319.41015
  42
0.060310643
  0
VERTEX
  5
cc
  8
Layer_1
  10
165.44891
  20
319.75405
  0
VERTEX
  5
cd
  8
Layer_1
  10
165.44891
  20
321.8209
  0
VERTEX
  5
ce
  8
Layer_1
  10
165.84592
  20
321.8209
  0
VERTEX
  5
cf
  8
Layer_1
  10
165.84592
  20
319.77657
  0
VERTEX
  5
d0
  8
Layer_1
  10
165.84576
  20
319.74548
  42
-0.097927732
  0
VERTEX
  5
d1
  8
Layer_1
  10
165.75485
  20
319.19334
  0
VERTEX
  5
d2
  8
Layer_1
  10
165.74707
  20
319.17629
  42
-0.16298406
  0
VERTEX
  5
d3
  8
Layer_1
  10
165.46631
  20
318.8782
  42
0.0064676562
  0
VERTEX
  5
d4
  8
Layer_1
  10
165.43292
  20
318.86088
  0
VERTEX
  5
d5
  8
Layer_1
  10
165.41588
  20
318.85278
  0
VERTEX
  5
d6
  8
Layer_1
  10
165.39859
  20
318.84505
  0
VERTEX
  5
d7
  8
Layer_1
  10
165.38106
  20
318.83772
  42
-0.09581833
  0
VERTEX
  5
d8
  8
Layer_1
  10
165.00281
  20
318.76974
  0
VERTEX
  5
d9
  8
Layer_1
  10
164.97021
  20
318.77013
  42
-0.20883356
  0
VERTEX
  5
da
  8
Layer_1
  10
164.3981
  20
318.99689
  42
-0.19355158
  0
VERTEX
  5
db
  8
Layer_1
  10
164.19653
  20
319.6722
  0
VERTEX
  5
dc
  8
Layer_1
  10
164.55466
  20
319.72131
  42
0.16143657
  0
VERTEX
  5
dd
  8
Layer_1
  10
164.68356
  20
319.25064
  0
SEQEND
  0
POLYLINE
  5
df
  8
Layer_1
  62
3
  66
1
  10
0
  20
0
  30
0
  0
VERTEX
  5
df
  8
Layer_1
  10
167.01543
  20
320.91435
  0
VERTEX
  5
e0
  8
Layer_1
  10
166.97975
  20
320.89365
  42
-0.041921313
  0
VERTEX
  5
e1
  8
Layer_1
  10
166.62764
  20
320.72404
  0
VERTEX
  5
e2
  8
Layer_1
  10
166.62764
  20
321.08011
  0
VERTEX
  5
e3
  8
Layer_1
  10
166.67859
  20
321.10475
  42
0.067156251
  0
VERTEX
  5
e4
  8
Layer_1
  10
167.16788
  20
321.43209
  0
VERTEX
  5
e5
  8
Layer_1
  10
167.18692
  20
321.4493
  42
0.09261833
  0
VERTEX
  5
e6
  8
Layer_1
  10
167.4953
  20
321.83318
  0
VERTEX
  5
e7
  8
Layer_1
  10
167.7327
  20
321.83318
  0
VERTEX
  5
e8
  8
Layer_1
  10
167.7327
  20
318.8209
  0
VERTEX
  5
e9
  8
Layer_1
  10
167.36433
  20
318.8209
  0
VERTEX
  5
ea
  8
Layer_1
  10
167.36433
  20
321.16811
  0
VERTEX
  5
eb
  8
Layer_1
  10
167.34158
  20
321.14696
  42
-0.050622706
  0
VERTEX
  5
ec
  8
Layer_1
  10
167.01543
  20
320.91435
  0
SEQEND
  0
POLYLINE
  5
ee
  8
Layer_1
  62
3
  66
1
  10
0
  20
0
  30
0
  0
VERTEX
  5
ee
  8
Layer_1
  10
169.76678
  20
319.72131
  0
VERTEX
  5
ef
  8
Layer_1
  10
169.76678
  20
320.09171
  0
VERTEX
  5
f0
  8
Layer_1
  10
168.63513
  20
320.09171
  0
VERTEX
  5
f1
  8
Layer_1
  10
168.63513
  20
319.72131
  0
VERTEX
  5
f2
  8
Layer_1
  10
169.76678
  20
319.72131
  0
SEQEND
  0
POLYLINE
  5
f4
  8
Layer_1
  62
3
  66
1
  10
0
  20
0
  30
0
  0
VERTEX
  5
f4
  8
Layer_1
  10
170.7419
  20
320.91435
  0
VERTEX
  5
f5
  8
Layer_1
  10
170.70621
  20
320.89365
  42
-0.041293881
  0
VERTEX
  5
f6
  8
Layer_1
  10
170.3541
  20
320.72404
  0
VERTEX
  5
f7
  8
Layer_1
  10
170.3541
  20
321.08011
  0
VERTEX
  5
f8
  8
Layer_1
  10
170.40506
  20
321.10475
  42
0.067590564
  0
VERTEX
  5
f9
  8
Layer_1
  10
170.89435
  20
321.43209
  0
VERTEX
  5
fa
  8
Layer_1
  10
170.91339
  20
321.4493
  42
0.091341635
  0
VERTEX
  5
fb
  8
Layer_1
  10
171.22177
  20
321.83318
  0
VERTEX
  5
fc
  8
Layer_1
  10
171.45915
  20
321.83318
  0
VERTEX
  5
fd
  8
Layer_1
  10
171.45915
  20
318.8209
  0
VERTEX
  5
fe
  8
Layer_1
  10
171.09081
  20
318.8209
  0
VERTEX
  5
ff
  8
Layer_1
  10
171.09081
  20
321.16811
  0
VERTEX
  5
100
  8
Layer_1
  10
171.06805
  20
321.14696
  42
-0.050409433
  0
VERTEX
  5
101
  8
Layer_1
  10
170.7419
  20
320.91435
  0
SEQEND
  0
ENDSEC
  0
EOF
