  0
SECTION
  2
HEADER
  9
$ACADVER
  1
AC1009
  0
ENDSEC
  0
SECTION
  2
ENTITIES
  0
CIRCLE
  5
90
  8
Layer_0
  62
1
  10
273.34348
  20
220.66556
  30
0
  40
1.5
  0
CIRCLE
  5
90
  8
Layer_0
  62
1
  10
273.34348
  20
150.66556
  30
0
  40
1.5
  0
CIRCLE
  5
90
  8
Layer_0
  62
1
  10
463.34348
  20
220.66556
  30
0
  40
1.5
  0
CIRCLE
  5
90
  8
Layer_0
  62
1
  10
463.34348
  20
150.66556
  30
0
  40
1.5
  0
CIRCLE
  5
90
  8
Layer_0
  62
1
  10
306.34348
  20
171.16556
  30
0
  40
8
  0
CIRCLE
  5
90
  8
Layer_0
  62
1
  10
331.14349
  20
171.16556
  30
0
  40
8
  0
CIRCLE
  5
90
  8
Layer_0
  62
1
  10
355.94348
  20
171.16556
  30
0
  40
8
  0
CIRCLE
  5
90
  8
Layer_0
  62
1
  10
380.74347
  20
171.16556
  30
0
  40
8
  0
CIRCLE
  5
90
  8
Layer_0
  62
1
  10
405.54346
  20
171.16556
  30
0
  40
8
  0
CIRCLE
  5
90
  8
Layer_0
  62
1
  10
430.34348
  20
171.16556
  30
0
  40
8
  0
CIRCLE
  5
90
  8
Layer_0
  62
1
  10
430.34348
  20
199.16556
  30
0
  40
8
  0
CIRCLE
  5
90
  8
Layer_0
  62
1
  10
405.54346
  20
199.16556
  30
0
  40
8
  0
CIRCLE
  5
90
  8
Layer_0
  62
1
  10
380.74347
  20
199.16556
  30
0
  40
8
  0
CIRCLE
  5
90
  8
Layer_0
  62
1
  10
355.94348
  20
199.16556
  30
0
  40
8
  0
POLYLINE
  5
90
  8
Layer_0
  62
1
  66
1
  10
0
  20
0
  30
0
  0
VERTEX
  5
90
  8
Layer_0
  10
259.34348
  20
234.66556
  0
VERTEX
  5
91
  8
Layer_0
  10
477.34348
  20
234.66556
  0
VERTEX
  5
92
  8
Layer_0
  10
477.34348
  20
136.66556
  0
VERTEX
  5
93
  8
Layer_0
  10
259.34348
  20
136.66556
  0
VERTEX
  5
94
  8
Layer_0
  10
259.34348
  20
234.66556
  0
SEQEND
  0
POLYLINE
  5
96
  8
Layer_1
  62
5
  66
1
  10
0
  20
0
  30
0
  0
VERTEX
  5
96
  8
Layer_1
  10
303.18384
  20
155.81296
  42
0.21982055
  0
VERTEX
  5
97
  8
Layer_1
  10
303.71249
  20
155.60149
  42
0.14381234
  0
VERTEX
  5
98
  8
Layer_1
  10
304.14224
  20
155.71574
  42
0.17417344
  0
VERTEX
  5
99
  8
Layer_1
  10
304.3912
  20
156.02612
  42
0.076114756
  0
VERTEX
  5
9a
  8
Layer_1
  10
304.45941
  20
156.65196
  0
VERTEX
  5
9b
  8
Layer_1
  10
304.45941
  20
160.09671
  0
VERTEX
  5
9c
  8
Layer_1
  10
305.12109
  20
160.09671
  0
VERTEX
  5
9d
  8
Layer_1
  10
305.12109
  20
156.68948
  42
-0.099839371
  0
VERTEX
  5
9e
  8
Layer_1
  10
304.9693
  20
155.71745
  42
-0.16899517
  0
VERTEX
  5
9f
  8
Layer_1
  10
304.4884
  20
155.19221
  42
-0.12738131
  0
VERTEX
  5
a0
  8
Layer_1
  10
303.71591
  20
155.01144
  0
VERTEX
  5
a1
  8
Layer_1
  10
303.66159
  20
155.01212
  42
-0.2090576
  0
VERTEX
  5
a2
  8
Layer_1
  10
302.70807
  20
155.39003
  0
VERTEX
  5
a3
  8
Layer_1
  10
302.67957
  20
155.42221
  42
-0.18199885
  0
VERTEX
  5
a4
  8
Layer_1
  10
302.3721
  20
156.51555
  0
VERTEX
  5
a5
  8
Layer_1
  10
302.96896
  20
156.5974
  42
0.16243123
  0
VERTEX
  5
a6
  8
Layer_1
  10
303.18384
  20
155.81296
  0
SEQEND
  0
POLYLINE
  5
a8
  8
Layer_1
  62
5
  66
1
  10
0
  20
0
  30
0
  0
VERTEX
  5
a8
  8
Layer_1
  10
307.07025
  20
158.5858
  42
-0.043733611
  0
VERTEX
  5
a9
  8
Layer_1
  10
306.42395
  20
158.26862
  0
VERTEX
  5
aa
  8
Layer_1
  10
306.42395
  20
158.86206
  42
0.072794493
  0
VERTEX
  5
ab
  8
Layer_1
  10
307.32437
  20
159.4487
  42
0.094165314
  0
VERTEX
  5
ac
  8
Layer_1
  10
307.87006
  20
160.11719
  0
VERTEX
  5
ad
  8
Layer_1
  10
308.26569
  20
160.11719
  0
VERTEX
  5
ae
  8
Layer_1
  10
308.26569
  20
155.09671
  0
VERTEX
  5
af
  8
Layer_1
  10
307.65179
  20
155.09671
  0
VERTEX
  5
b0
  8
Layer_1
  10
307.65179
  20
159.00873
  42
-0.056768487
  0
VERTEX
  5
b1
  8
Layer_1
  10
307.07025
  20
158.5858
  0
SEQEND
  0
POLYLINE
  5
b3
  8
Layer_1
  62
5
  66
1
  10
0
  20
0
  30
0
  0
VERTEX
  5
b3
  8
Layer_1
  10
327.94427
  20
155.61026
  42
0.21998398
  0
VERTEX
  5
b4
  8
Layer_1
  10
328.4729
  20
155.3988
  42
0.1437973
  0
VERTEX
  5
b5
  8
Layer_1
  10
328.90265
  20
155.51306
  42
0.17413775
  0
VERTEX
  5
b6
  8
Layer_1
  10
329.15161
  20
155.82343
  42
0.076150929
  0
VERTEX
  5
b7
  8
Layer_1
  10
329.21985
  20
156.44928
  0
VERTEX
  5
b8
  8
Layer_1
  10
329.21985
  20
159.89403
  0
VERTEX
  5
b9
  8
Layer_1
  10
329.8815
  20
159.89403
  0
VERTEX
  5
ba
  8
Layer_1
  10
329.8815
  20
156.4868
  42
-0.099810701
  0
VERTEX
  5
bb
  8
Layer_1
  10
329.72974
  20
155.51477
  42
-0.16905443
  0
VERTEX
  5
bc
  8
Layer_1
  10
329.24884
  20
154.98953
  42
-0.12733601
  0
VERTEX
  5
bd
  8
Layer_1
  10
328.47632
  20
154.80876
  0
VERTEX
  5
be
  8
Layer_1
  10
328.422
  20
154.80942
  42
-0.20903553
  0
VERTEX
  5
bf
  8
Layer_1
  10
327.46848
  20
155.18735
  0
VERTEX
  5
c0
  8
Layer_1
  10
327.43997
  20
155.21953
  42
-0.18200323
  0
VERTEX
  5
c1
  8
Layer_1
  10
327.13251
  20
156.31285
  0
VERTEX
  5
c2
  8
Layer_1
  10
327.72937
  20
156.39471
  42
0.16243084
  0
VERTEX
  5
c3
  8
Layer_1
  10
327.94427
  20
155.61026
  0
SEQEND
  0
POLYLINE
  5
c5
  8
Layer_1
  62
5
  66
1
  10
0
  20
0
  30
0
  0
VERTEX
  5
c5
  8
Layer_1
  10
331.74713
  20
155.8166
  42
-0.025373161
  0
VERTEX
  5
c6
  8
Layer_1
  10
332.45654
  20
156.44588
  42
0.032483461
  0
VERTEX
  5
c7
  8
Layer_1
  10
333.40298
  20
157.32582
  42
0.080558456
  0
VERTEX
  5
c8
  8
Layer_1
  10
333.81055
  20
157.93633
  42
0.10137127
  0
VERTEX
  5
c9
  8
Layer_1
  10
333.93335
  20
158.52637
  42
0.21353063
  0
VERTEX
  5
ca
  8
Layer_1
  10
333.51382
  20
159.51544
  42
0.19708658
  0
VERTEX
  5
cb
  8
Layer_1
  10
332.37469
  20
159.91449
  42
0.17479521
  0
VERTEX
  5
cc
  8
Layer_1
  10
331.27469
  20
159.57463
  0
VERTEX
  5
cd
  8
Layer_1
  10
331.23895
  20
159.54443
  42
0.19109128
  0
VERTEX
  5
ce
  8
Layer_1
  10
330.75723
  20
158.52663
  0
VERTEX
  5
cf
  8
Layer_1
  10
330.75122
  20
158.46838
  0
VERTEX
  5
d0
  8
Layer_1
  10
331.3822
  20
158.40358
  42
-0.20206153
  0
VERTEX
  5
d1
  8
Layer_1
  10
331.65161
  20
159.14027
  42
-0.20508549
  0
VERTEX
  5
d2
  8
Layer_1
  10
332.36102
  20
159.40631
  42
-0.19949401
  0
VERTEX
  5
d3
  8
Layer_1
  10
333.04144
  20
159.15562
  42
-0.21205182
  0
VERTEX
  5
d4
  8
Layer_1
  10
333.30237
  20
158.54001
  42
-0.15967288
  0
VERTEX
  5
d5
  8
Layer_1
  10
333.01587
  20
157.80161
  42
-0.056074726
  0
VERTEX
  5
d6
  8
Layer_1
  10
331.91425
  20
156.7426
  42
0.043615716
  0
VERTEX
  5
d7
  8
Layer_1
  10
331.11102
  20
155.98544
  42
0.086852392
  0
VERTEX
  5
d8
  8
Layer_1
  10
330.70688
  20
155.32036
  42
0.10050227
  0
VERTEX
  5
d9
  8
Layer_1
  10
330.63525
  20
154.89403
  0
VERTEX
  5
da
  8
Layer_1
  10
333.94016
  20
154.89403
  0
VERTEX
  5
db
  8
Layer_1
  10
333.94016
  20
155.48407
  0
VERTEX
  5
dc
  8
Layer_1
  10
331.48792
  20
155.48407
  42
-0.052296179
  0
VERTEX
  5
dd
  8
Layer_1
  10
331.74713
  20
155.8166
  0
SEQEND
  0
POLYLINE
  5
df
  8
Layer_1
  62
5
  66
1
  10
0
  20
0
  30
0
  0
VERTEX
  5
df
  8
Layer_1
  10
352.8858
  20
155.0518
  42
0.21987337
  0
VERTEX
  5
e0
  8
Layer_1
  10
353.41443
  20
154.84035
  42
0.14387837
  0
VERTEX
  5
e1
  8
Layer_1
  10
353.84418
  20
154.95461
  42
0.17407516
  0
VERTEX
  5
e2
  8
Layer_1
  10
354.09317
  20
155.26497
  42
0.076069215
  0
VERTEX
  5
e3
  8
Layer_1
  10
354.16138
  20
155.89082
  0
VERTEX
  5
e4
  8
Layer_1
  10
354.16138
  20
159.33557
  0
VERTEX
  5
e5
  8
Layer_1
  10
354.82306
  20
159.33557
  0
VERTEX
  5
e6
  8
Layer_1
  10
354.82306
  20
155.92834
  42
-0.099827778
  0
VERTEX
  5
e7
  8
Layer_1
  10
354.67126
  20
154.9563
  42
-0.16888578
  0
VERTEX
  5
e8
  8
Layer_1
  10
354.19037
  20
154.43106
  42
-0.12732468
  0
VERTEX
  5
e9
  8
Layer_1
  10
353.41785
  20
154.25031
  0
VERTEX
  5
ea
  8
Layer_1
  10
353.36353
  20
154.25096
  42
-0.20904709
  0
VERTEX
  5
eb
  8
Layer_1
  10
352.41
  20
154.62888
  0
VERTEX
  5
ec
  8
Layer_1
  10
352.3815
  20
154.66107
  42
-0.18196725
  0
VERTEX
  5
ed
  8
Layer_1
  10
352.07407
  20
155.75439
  0
VERTEX
  5
ee
  8
Layer_1
  10
352.67093
  20
155.83624
  42
0.16244743
  0
VERTEX
  5
ef
  8
Layer_1
  10
352.8858
  20
155.0518
  0
SEQEND
  0
POLYLINE
  5
f1
  8
Layer_1
  62
5
  66
1
  10
0
  20
0
  30
0
  0
VERTEX
  5
f1
  8
Layer_1
  10
358.51337
  20
157.46654
  42
0.14878211
  0
VERTEX
  5
f2
  8
Layer_1
  10
358.68729
  20
158.05658
  42
0.13848831
  0
VERTEX
  5
f3
  8
Layer_1
  10
358.50482
  20
158.70119
  42
0.14292153
  0
VERTEX
  5
f4
  8
Layer_1
  10
357.97787
  20
159.18039
  42
0.11989099
  0
VERTEX
  5
f5
  8
Layer_1
  10
357.22412
  20
159.35603
  42
0.1826853
  0
VERTEX
  5
f6
  8
Layer_1
  10
356.23163
  20
159.01668
  42
0.17674761
  0
VERTEX
  5
f7
  8
Layer_1
  10
355.72003
  20
158.05998
  0
VERTEX
  5
f8
  8
Layer_1
  10
356.33395
  20
157.95085
  42
-0.16810465
  0
VERTEX
  5
f9
  8
Layer_1
  10
356.64093
  20
158.62616
  42
-0.19739429
  0
VERTEX
  5
fa
  8
Layer_1
  10
357.23779
  20
158.85126
  42
-0.20138977
  0
VERTEX
  5
fb
  8
Layer_1
  10
357.82782
  20
158.62956
  42
-0.21078153
  0
VERTEX
  5
fc
  8
Layer_1
  10
358.05634
  20
158.07022
  42
-0.26775193
  0
VERTEX
  5
fd
  8
Layer_1
  10
357.74255
  20
157.43925
  42
-0.14819908
  0
VERTEX
  5
fe
  8
Layer_1
  10
357.03656
  20
157.23462
  42
-0.025947518
  0
VERTEX
  5
ff
  8
Layer_1
  10
356.93762
  20
157.24144
  0
VERTEX
  5
100
  8
Layer_1
  10
356.86942
  20
156.70255
  42
-0.062488792
  0
VERTEX
  5
101
  8
Layer_1
  10
357.30258
  20
156.77077
  42
-0.20501271
  0
VERTEX
  5
102
  8
Layer_1
  10
358.00516
  20
156.49622
  42
-0.20688914
  0
VERTEX
  5
103
  8
Layer_1
  10
358.28143
  20
155.79874
  42
-0.20542049
  0
VERTEX
  5
104
  8
Layer_1
  10
357.983
  20
155.05521
  42
-0.20707155
  0
VERTEX
  5
105
  8
Layer_1
  10
357.2514
  20
154.75508
  42
-0.19206751
  0
VERTEX
  5
106
  8
Layer_1
  10
356.63239
  20
154.98529
  42
-0.15734891
  0
VERTEX
  5
107
  8
Layer_1
  10
356.27255
  20
155.73734
  0
VERTEX
  5
108
  8
Layer_1
  10
355.65863
  20
155.65549
  42
0.17508098
  0
VERTEX
  5
109
  8
Layer_1
  10
356.08502
  20
154.7061
  0
VERTEX
  5
10a
  8
Layer_1
  10
356.15491
  20
154.63911
  42
0.18422026
  0
VERTEX
  5
10b
  8
Layer_1
  10
357.19354
  20
154.24757
  0
VERTEX
  5
10c
  8
Layer_1
  10
357.24802
  20
154.24689
  42
0.049896687
  0
VERTEX
  5
10d
  8
Layer_1
  10
357.65228
  20
154.28563
  42
0.14401323
  0
VERTEX
  5
10e
  8
Layer_1
  10
358.45538
  20
154.70221
  42
0.21319944
  0
VERTEX
  5
10f
  8
Layer_1
  10
358.93286
  20
155.81238
  42
0.16722024
  0
VERTEX
  5
110
  8
Layer_1
  10
358.68729
  20
156.61899
  42
0.17945677
  0
VERTEX
  5
111
  8
Layer_1
  10
357.99835
  20
157.04361
  42
0.14278331
  0
VERTEX
  5
112
  8
Layer_1
  10
358.51337
  20
157.46654
  0
SEQEND
  0
POLYLINE
  5
114
  8
Layer_1
  62
5
  66
1
  10
0
  20
0
  30
0
  0
VERTEX
  5
114
  8
Layer_1
  10
377.3858
  20
155.0518
  42
0.21950326
  0
VERTEX
  5
115
  8
Layer_1
  10
377.91443
  20
154.84035
  42
0.14365302
  0
VERTEX
  5
116
  8
Layer_1
  10
378.34418
  20
154.95461
  42
0.17393827
  0
VERTEX
  5
117
  8
Layer_1
  10
378.59317
  20
155.26497
  42
0.076106111
  0
VERTEX
  5
118
  8
Layer_1
  10
378.66138
  20
155.89082
  0
VERTEX
  5
119
  8
Layer_1
  10
378.66138
  20
159.33557
  0
VERTEX
  5
11a
  8
Layer_1
  10
379.32306
  20
159.33557
  0
VERTEX
  5
11b
  8
Layer_1
  10
379.32306
  20
155.92834
  42
-0.099828282
  0
VERTEX
  5
11c
  8
Layer_1
  10
379.17126
  20
154.9563
  42
-0.16895308
  0
VERTEX
  5
11d
  8
Layer_1
  10
378.69037
  20
154.43106
  42
-0.1273957
  0
VERTEX
  5
11e
  8
Layer_1
  10
377.91785
  20
154.25031
  0
VERTEX
  5
11f
  8
Layer_1
  10
377.86353
  20
154.25096
  42
-0.20897919
  0
VERTEX
  5
120
  8
Layer_1
  10
376.91
  20
154.62888
  0
VERTEX
  5
121
  8
Layer_1
  10
376.8815
  20
154.66107
  42
-0.18197665
  0
VERTEX
  5
122
  8
Layer_1
  10
376.57407
  20
155.75439
  0
VERTEX
  5
123
  8
Layer_1
  10
377.17093
  20
155.83624
  42
0.16248577
  0
VERTEX
  5
124
  8
Layer_1
  10
377.3858
  20
155.0518
  0
SEQEND
  0
POLYLINE
  5
126
  8
Layer_1
  62
5
  66
1
  10
0
  20
0
  30
0
  0
VERTEX
  5
126
  8
Layer_1
  10
382.73709
  20
154.33557
  0
VERTEX
  5
127
  8
Layer_1
  10
382.73709
  20
155.5327
  0
VERTEX
  5
128
  8
Layer_1
  10
383.41241
  20
155.5327
  0
VERTEX
  5
129
  8
Layer_1
  10
383.41241
  20
156.09546
  0
VERTEX
  5
12a
  8
Layer_1
  10
382.73709
  20
156.09546
  0
VERTEX
  5
12b
  8
Layer_1
  10
382.73709
  20
159.33557
  0
VERTEX
  5
12c
  8
Layer_1
  10
382.23572
  20
159.33557
  0
VERTEX
  5
12d
  8
Layer_1
  10
379.95401
  20
156.09546
  0
VERTEX
  5
12e
  8
Layer_1
  10
379.95401
  20
155.5327
  0
VERTEX
  5
12f
  8
Layer_1
  10
382.12317
  20
155.5327
  0
VERTEX
  5
130
  8
Layer_1
  10
382.12317
  20
154.33557
  0
VERTEX
  5
131
  8
Layer_1
  10
382.73709
  20
154.33557
  0
SEQEND
  0
POLYLINE
  5
133
  8
Layer_1
  62
5
  66
1
  10
0
  20
0
  30
0
  0
VERTEX
  5
133
  8
Layer_1
  10
380.55768
  20
156.09546
  0
VERTEX
  5
134
  8
Layer_1
  10
382.12317
  20
156.09546
  0
VERTEX
  5
135
  8
Layer_1
  10
382.12317
  20
158.3499
  0
VERTEX
  5
136
  8
Layer_1
  10
380.55768
  20
156.09546
  0
SEQEND
  0
POLYLINE
  5
138
  8
Layer_1
  62
5
  66
1
  10
0
  20
0
  30
0
  0
VERTEX
  5
138
  8
Layer_1
  10
402.98578
  20
155.0518
  42
0.2196329
  0
VERTEX
  5
139
  8
Layer_1
  10
403.51447
  20
154.84035
  42
0.14391153
  0
VERTEX
  5
13a
  8
Layer_1
  10
403.94418
  20
154.95461
  42
0.17403659
  0
VERTEX
  5
13b
  8
Layer_1
  10
404.19318
  20
155.26497
  42
0.076086791
  0
VERTEX
  5
13c
  8
Layer_1
  10
404.26138
  20
155.89082
  0
VERTEX
  5
13d
  8
Layer_1
  10
404.26138
  20
159.33557
  0
VERTEX
  5
13e
  8
Layer_1
  10
404.92303
  20
159.33557
  0
VERTEX
  5
13f
  8
Layer_1
  10
404.92303
  20
155.92834
  42
-0.099850581
  0
VERTEX
  5
140
  8
Layer_1
  10
404.77127
  20
154.9563
  42
-0.16902307
  0
VERTEX
  5
141
  8
Layer_1
  10
404.29034
  20
154.43106
  42
-0.12733963
  0
VERTEX
  5
142
  8
Layer_1
  10
403.51785
  20
154.25031
  0
VERTEX
  5
143
  8
Layer_1
  10
403.46356
  20
154.25096
  42
-0.20914496
  0
VERTEX
  5
144
  8
Layer_1
  10
402.51001
  20
154.62888
  0
VERTEX
  5
145
  8
Layer_1
  10
402.48151
  20
154.66107
  42
-0.18200696
  0
VERTEX
  5
146
  8
Layer_1
  10
402.17407
  20
155.75439
  0
VERTEX
  5
147
  8
Layer_1
  10
402.77094
  20
155.83624
  42
0.16257368
  0
VERTEX
  5
148
  8
Layer_1
  10
402.98578
  20
155.0518
  0
SEQEND
  0
POLYLINE
  5
14a
  8
Layer_1
  62
5
  66
1
  10
0
  20
0
  30
0
  0
VERTEX
  5
14a
  8
Layer_1
  10
406.83981
  20
158.68073
  0
VERTEX
  5
14b
  8
Layer_1
  10
408.83505
  20
158.68073
  0
VERTEX
  5
14c
  8
Layer_1
  10
408.83505
  20
159.26736
  0
VERTEX
  5
14d
  8
Layer_1
  10
406.34869
  20
159.26736
  0
VERTEX
  5
14e
  8
Layer_1
  10
405.86438
  20
156.69914
  0
VERTEX
  5
14f
  8
Layer_1
  10
406.4408
  20
156.62411
  42
-0.12523297
  0
VERTEX
  5
150
  8
Layer_1
  10
406.81595
  20
156.97369
  42
-0.13106182
  0
VERTEX
  5
151
  8
Layer_1
  10
407.35141
  20
157.10841
  42
-0.20981731
  0
VERTEX
  5
152
  8
Layer_1
  10
408.12393
  20
156.80487
  42
-0.20024301
  0
VERTEX
  5
153
  8
Layer_1
  10
408.41895
  20
155.97609
  42
-0.19255922
  0
VERTEX
  5
154
  8
Layer_1
  10
408.112
  20
155.08932
  42
-0.21885018
  0
VERTEX
  5
155
  8
Layer_1
  10
407.36163
  20
154.75508
  42
-0.19237062
  0
VERTEX
  5
156
  8
Layer_1
  10
406.73239
  20
154.99211
  42
-0.17362745
  0
VERTEX
  5
157
  8
Layer_1
  10
406.39984
  20
155.69983
  0
VERTEX
  5
158
  8
Layer_1
  10
405.75525
  20
155.64525
  42
0.1769327
  0
VERTEX
  5
159
  8
Layer_1
  10
406.17874
  20
154.69769
  0
VERTEX
  5
15a
  8
Layer_1
  10
406.24808
  20
154.63229
  42
0.18167317
  0
VERTEX
  5
15b
  8
Layer_1
  10
407.30524
  20
154.25096
  0
VERTEX
  5
15c
  8
Layer_1
  10
407.36163
  20
154.25031
  42
0.041168159
  0
VERTEX
  5
15d
  8
Layer_1
  10
407.69315
  20
154.27666
  42
0.19209426
  0
VERTEX
  5
15e
  8
Layer_1
  10
408.67474
  20
154.85739
  42
0.17476227
  0
VERTEX
  5
15f
  8
Layer_1
  10
409.07037
  20
156.03065
  42
0.20467178
  0
VERTEX
  5
160
  8
Layer_1
  10
408.62018
  20
157.1971
  42
0.20739846
  0
VERTEX
  5
161
  8
Layer_1
  10
407.51514
  20
157.65071
  42
0.15636094
  0
VERTEX
  5
162
  8
Layer_1
  10
406.57037
  20
157.33693
  0
VERTEX
  5
163
  8
Layer_1
  10
406.83981
  20
158.68073
  0
SEQEND
  0
POLYLINE
  5
165
  8
Layer_1
  62
5
  66
1
  10
0
  20
0
  30
0
  0
VERTEX
  5
165
  8
Layer_1
  10
427.98578
  20
155.0518
  42
0.21941931
  0
VERTEX
  5
166
  8
Layer_1
  10
428.51447
  20
154.84035
  42
0.14386063
  0
VERTEX
  5
167
  8
Layer_1
  10
428.94418
  20
154.95461
  42
0.17455412
  0
VERTEX
  5
168
  8
Layer_1
  10
429.19318
  20
155.26497
  42
0.076068641
  0
VERTEX
  5
169
  8
Layer_1
  10
429.26138
  20
155.89082
  0
VERTEX
  5
16a
  8
Layer_1
  10
429.26138
  20
159.33557
  0
VERTEX
  5
16b
  8
Layer_1
  10
429.92303
  20
159.33557
  0
VERTEX
  5
16c
  8
Layer_1
  10
429.92303
  20
155.92834
  42
-0.099770147
  0
VERTEX
  5
16d
  8
Layer_1
  10
429.77127
  20
154.9563
  42
-0.16891184
  0
VERTEX
  5
16e
  8
Layer_1
  10
429.29034
  20
154.43106
  42
-0.12738693
  0
VERTEX
  5
16f
  8
Layer_1
  10
428.51785
  20
154.25031
  0
VERTEX
  5
170
  8
Layer_1
  10
428.46356
  20
154.25096
  42
-0.20902323
  0
VERTEX
  5
171
  8
Layer_1
  10
427.51001
  20
154.62888
  0
VERTEX
  5
172
  8
Layer_1
  10
427.48151
  20
154.66107
  42
-0.18194364
  0
VERTEX
  5
173
  8
Layer_1
  10
427.17407
  20
155.75439
  0
VERTEX
  5
174
  8
Layer_1
  10
427.77094
  20
155.83624
  42
0.16248391
  0
VERTEX
  5
175
  8
Layer_1
  10
427.98578
  20
155.0518
  0
SEQEND
  0
POLYLINE
  5
177
  8
Layer_1
  62
5
  66
1
  10
0
  20
0
  30
0
  0
VERTEX
  5
177
  8
Layer_1
  10
431.88074
  20
157.41537
  42
-0.12018942
  0
VERTEX
  5
178
  8
Layer_1
  10
432.55264
  20
157.57909
  42
-0.21298195
  0
VERTEX
  5
179
  8
Layer_1
  10
433.59802
  20
157.12718
  42
-0.1988761
  0
VERTEX
  5
17a
  8
Layer_1
  10
434.02945
  20
155.95903
  42
-0.11829935
  0
VERTEX
  5
17b
  8
Layer_1
  10
433.82654
  20
155.0842
  42
-0.14346856
  0
VERTEX
  5
17c
  8
Layer_1
  10
433.26886
  20
154.46518
  42
-0.13917682
  0
VERTEX
  5
17d
  8
Layer_1
  10
432.46399
  20
154.25031
  0
VERTEX
  5
17e
  8
Layer_1
  10
432.40051
  20
154.25128
  42
-0.21959128
  0
VERTEX
  5
17f
  8
Layer_1
  10
431.21228
  20
154.81476
  0
VERTEX
  5
180
  8
Layer_1
  10
431.17273
  20
154.86307
  42
-0.15069865
  0
VERTEX
  5
181
  8
Layer_1
  10
430.73553
  20
156.36269
  42
-0.012374819
  0
VERTEX
  5
182
  8
Layer_1
  10
430.72797
  20
156.67526
  0
VERTEX
  5
183
  8
Layer_1
  10
430.72888
  20
156.79469
  42
-0.13179804
  0
VERTEX
  5
184
  8
Layer_1
  10
431.13794
  20
158.60611
  42
-0.032475399
  0
VERTEX
  5
185
  8
Layer_1
  10
431.26343
  20
158.78305
  0
VERTEX
  5
186
  8
Layer_1
  10
431.30292
  20
158.8298
  42
-0.22517631
  0
VERTEX
  5
187
  8
Layer_1
  10
432.52194
  20
159.35603
  42
-0.1866626
  0
VERTEX
  5
188
  8
Layer_1
  10
433.48886
  20
159.02521
  42
-0.18729548
  0
VERTEX
  5
189
  8
Layer_1
  10
433.9408
  20
158.11115
  0
VERTEX
  5
18a
  8
Layer_1
  10
433.33026
  20
158.0634
  42
0.12593437
  0
VERTEX
  5
18b
  8
Layer_1
  10
433.09833
  20
158.58864
  42
0.21388786
  0
VERTEX
  5
18c
  8
Layer_1
  10
432.48444
  20
158.85126
  42
0.16412292
  0
VERTEX
  5
18d
  8
Layer_1
  10
431.96942
  20
158.68755
  42
0.139639
  0
VERTEX
  5
18e
  8
Layer_1
  10
431.51239
  20
158.07022
  0
VERTEX
  5
18f
  8
Layer_1
  10
431.48566
  20
158.00018
  42
0.078680805
  0
VERTEX
  5
190
  8
Layer_1
  10
431.33844
  20
156.91402
  42
-0.13192824
  0
VERTEX
  5
191
  8
Layer_1
  10
431.88074
  20
157.41537
  0
SEQEND
  0
POLYLINE
  5
193
  8
Layer_1
  62
5
  66
1
  10
0
  20
0
  30
0
  0
VERTEX
  5
193
  8
Layer_1
  10
431.94556
  20
154.90685
  42
0.14366017
  0
VERTEX
  5
194
  8
Layer_1
  10
432.45374
  20
154.75508
  42
0.22259353
  0
VERTEX
  5
195
  8
Layer_1
  10
433.12222
  20
155.06886
  42
0.18735531
  0
VERTEX
  5
196
  8
Layer_1
  10
433.40192
  20
155.92151
  42
0.19277678
  0
VERTEX
  5
197
  8
Layer_1
  10
433.12561
  20
156.73837
  42
0.21752696
  0
VERTEX
  5
198
  8
Layer_1
  10
432.42987
  20
157.0368
  42
0.21040867
  0
VERTEX
  5
199
  8
Layer_1
  10
431.72388
  20
156.73837
  42
0.20114932
  0
VERTEX
  5
19a
  8
Layer_1
  10
431.43396
  20
155.95563
  42
0.11035503
  0
VERTEX
  5
19b
  8
Layer_1
  10
431.56866
  20
155.34853
  42
0.14753945
  0
VERTEX
  5
19c
  8
Layer_1
  10
431.94556
  20
154.90685
  0
SEQEND
  0
POLYLINE
  5
19e
  8
Layer_1
  62
5
  66
1
  10
0
  20
0
  30
0
  0
VERTEX
  5
19e
  8
Layer_1
  10
376.51776
  20
183.47211
  0
VERTEX
  5
19f
  8
Layer_1
  10
374.05542
  20
183.44623
  0
VERTEX
  5
1a0
  8
Layer_1
  10
374.00906
  20
187.85596
  0
VERTEX
  5
1a1
  8
Layer_1
  10
373.34744
  20
187.849
  0
VERTEX
  5
1a2
  8
Layer_1
  10
373.39996
  20
182.84927
  0
VERTEX
  5
1a3
  8
Layer_1
  10
376.52396
  20
182.88211
  0
VERTEX
  5
1a4
  8
Layer_1
  10
376.51776
  20
183.47211
  0
SEQEND
  0
POLYLINE
  5
1a6
  8
Layer_1
  62
5
  66
1
  10
0
  20
0
  30
0
  0
VERTEX
  5
1a6
  8
Layer_1
  10
377.9407
  20
187.30719
  0
VERTEX
  5
1a7
  8
Layer_1
  10
377.95679
  20
185.77589
  0
VERTEX
  5
1a8
  8
Layer_1
  10
380.72266
  20
185.80496
  0
VERTEX
  5
1a9
  8
Layer_1
  10
380.72882
  20
185.21837
  0
VERTEX
  5
1aa
  8
Layer_1
  10
377.96295
  20
185.1893
  0
VERTEX
  5
1ab
  8
Layer_1
  10
377.98083
  20
183.48749
  0
VERTEX
  5
1ac
  8
Layer_1
  10
381.05023
  20
183.51974
  0
VERTEX
  5
1ad
  8
Layer_1
  10
381.05646
  20
182.92973
  0
VERTEX
  5
1ae
  8
Layer_1
  10
377.32541
  20
182.89053
  0
VERTEX
  5
1af
  8
Layer_1
  10
377.27289
  20
187.89024
  0
VERTEX
  5
1b0
  8
Layer_1
  10
380.88794
  20
187.92824
  0
VERTEX
  5
1b1
  8
Layer_1
  10
380.89417
  20
187.33823
  0
VERTEX
  5
1b2
  8
Layer_1
  10
377.9407
  20
187.30719
  0
SEQEND
  0
POLYLINE
  5
1b4
  8
Layer_1
  62
5
  66
1
  10
0
  20
0
  30
0
  0
VERTEX
  5
1b4
  8
Layer_1
  10
383.7746
  20
182.9583
  42
0.059510356
  0
VERTEX
  5
1b5
  8
Layer_1
  10
384.57684
  20
183.052
  42
0.087698665
  0
VERTEX
  5
1b6
  8
Layer_1
  10
385.17105
  20
183.30893
  42
0.089550489
  0
VERTEX
  5
1b7
  8
Layer_1
  10
385.62158
  20
183.7673
  42
0.082597156
  0
VERTEX
  5
1b8
  8
Layer_1
  10
385.95496
  20
184.49902
  42
0.073234974
  0
VERTEX
  5
1b9
  8
Layer_1
  10
386.07736
  20
185.50992
  42
0.090483039
  0
VERTEX
  5
1ba
  8
Layer_1
  10
385.86877
  20
186.6964
  42
0.1297582
  0
VERTEX
  5
1bb
  8
Layer_1
  10
385.26807
  20
187.54449
  42
0.12222426
  0
VERTEX
  5
1bc
  8
Layer_1
  10
384.53107
  20
187.8949
  42
0.053418819
  0
VERTEX
  5
1bd
  8
Layer_1
  10
383.6402
  20
187.95715
  0
VERTEX
  5
1be
  8
Layer_1
  10
381.91791
  20
187.93906
  0
VERTEX
  5
1bf
  8
Layer_1
  10
381.97046
  20
182.93933
  0
VERTEX
  5
1c0
  8
Layer_1
  10
383.7746
  20
182.9583
  0
SEQEND
  0
POLYLINE
  5
1c2
  8
Layer_1
  62
5
  66
1
  10
0
  20
0
  30
0
  0
VERTEX
  5
1c2
  8
Layer_1
  10
382.58575
  20
187.356
  0
VERTEX
  5
1c3
  8
Layer_1
  10
383.63617
  20
187.36703
  42
-0.083576959
  0
VERTEX
  5
1c4
  8
Layer_1
  10
384.49326
  20
187.27373
  42
-0.16673757
  0
VERTEX
  5
1c5
  8
Layer_1
  10
385.125
  20
186.71587
  42
-0.13451637
  0
VERTEX
  5
1c6
  8
Layer_1
  10
385.39517
  20
185.51297
  42
-0.079025615
  0
VERTEX
  5
1c7
  8
Layer_1
  10
385.27399
  20
184.54814
  42
-0.11721932
  0
VERTEX
  5
1c8
  8
Layer_1
  10
384.914
  20
183.91165
  42
-0.1177568
  0
VERTEX
  5
1c9
  8
Layer_1
  10
384.46826
  20
183.64775
  42
-0.075633892
  0
VERTEX
  5
1ca
  8
Layer_1
  10
383.69336
  20
183.54752
  0
VERTEX
  5
1cb
  8
Layer_1
  10
382.62589
  20
183.5363
  0
VERTEX
  5
1cc
  8
Layer_1
  10
382.58575
  20
187.356
  0
SEQEND
  0
POLYLINE
  5
1ce
  8
Layer_1
  62
5
  66
1
  10
0
  20
0
  30
0
  0
VERTEX
  5
1ce
  8
Layer_1
  10
404.3844
  20
186.78009
  42
0.10500738
  0
VERTEX
  5
1cf
  8
Layer_1
  10
403.99756
  20
187.59479
  42
0.13178553
  0
VERTEX
  5
1d0
  8
Layer_1
  10
403.30542
  20
188.07724
  42
0.096010393
  0
VERTEX
  5
1d1
  8
Layer_1
  10
402.32312
  20
188.24298
  42
0.11258419
  0
VERTEX
  5
1d2
  8
Layer_1
  10
401.1026
  20
187.9727
  0
VERTEX
  5
1d3
  8
Layer_1
  10
401.00635
  20
187.9227
  42
0.16220787
  0
VERTEX
  5
1d4
  8
Layer_1
  10
400.13766
  20
186.97424
  42
0.10500942
  0
VERTEX
  5
1d5
  8
Layer_1
  10
399.84711
  20
185.72968
  0
VERTEX
  5
1d6
  8
Layer_1
  10
399.84619
  20
185.60869
  42
0.10945139
  0
VERTEX
  5
1d7
  8
Layer_1
  10
400.11658
  20
184.37823
  0
VERTEX
  5
1d8
  8
Layer_1
  10
400.16663
  20
184.27829
  42
0.15801426
  0
VERTEX
  5
1d9
  8
Layer_1
  10
401.08472
  20
183.37518
  42
0.11342472
  0
VERTEX
  5
1da
  8
Layer_1
  10
402.30463
  20
183.07419
  0
VERTEX
  5
1db
  8
Layer_1
  10
402.42651
  20
183.07323
  42
0.083856646
  0
VERTEX
  5
1dc
  8
Layer_1
  10
403.40234
  20
183.24788
  0
VERTEX
  5
1dd
  8
Layer_1
  10
403.48859
  20
183.28008
  42
0.078228513
  0
VERTEX
  5
1de
  8
Layer_1
  10
404.48877
  20
183.87514
  0
VERTEX
  5
1df
  8
Layer_1
  10
404.47003
  20
185.73044
  0
VERTEX
  5
1e0
  8
Layer_1
  10
402.35217
  20
185.70563
  0
VERTEX
  5
1e1
  8
Layer_1
  10
402.35809
  20
185.11902
  0
VERTEX
  5
1e2
  8
Layer_1
  10
403.828
  20
185.13388
  0
VERTEX
  5
1e3
  8
Layer_1
  10
403.8374
  20
184.20282
  42
-0.082872051
  0
VERTEX
  5
1e4
  8
Layer_1
  10
403.22028
  20
183.84357
  42
-0.097101905
  0
VERTEX
  5
1e5
  8
Layer_1
  10
402.38297
  20
183.66968
  42
-0.11714602
  0
VERTEX
  5
1e6
  8
Layer_1
  10
401.44629
  20
183.87851
  42
-0.16441542
  0
VERTEX
  5
1e7
  8
Layer_1
  10
400.76938
  20
184.54019
  42
-0.11178135
  0
VERTEX
  5
1e8
  8
Layer_1
  10
400.53058
  20
185.54663
  0
VERTEX
  5
1e9
  8
Layer_1
  10
400.52789
  20
185.65649
  42
-0.089684269
  0
VERTEX
  5
1ea
  8
Layer_1
  10
400.67899
  20
186.58636
  0
VERTEX
  5
1eb
  8
Layer_1
  10
400.70868
  20
186.66452
  42
-0.085320286
  0
VERTEX
  5
1ec
  8
Layer_1
  10
401.01917
  20
187.16222
  42
-0.11136007
  0
VERTEX
  5
1ed
  8
Layer_1
  10
401.54926
  20
187.53082
  42
-0.09902895
  0
VERTEX
  5
1ee
  8
Layer_1
  10
402.33224
  20
187.67688
  42
-0.10097386
  0
VERTEX
  5
1ef
  8
Layer_1
  10
403.02249
  20
187.55254
  42
-0.1305792
  0
VERTEX
  5
1f0
  8
Layer_1
  10
403.50348
  20
187.20778
  42
-0.090301126
  0
VERTEX
  5
1f1
  8
Layer_1
  10
403.78922
  20
186.61037
  0
VERTEX
  5
1f2
  8
Layer_1
  10
404.3844
  20
186.78009
  0
SEQEND
  0
POLYLINE
  5
1f4
  8
Layer_1
  62
5
  66
1
  10
0
  20
0
  30
0
  0
VERTEX
  5
1f4
  8
Layer_1
  10
408.44855
  20
185.24536
  42
-0.062937101
  0
VERTEX
  5
1f5
  8
Layer_1
  10
409.00433
  20
184.58588
  0
VERTEX
  5
1f6
  8
Layer_1
  10
409.88776
  20
183.23387
  0
VERTEX
  5
1f7
  8
Layer_1
  10
409.0556
  20
183.22546
  0
VERTEX
  5
1f8
  8
Layer_1
  10
408.38345
  20
184.25897
  42
0.022050324
  0
VERTEX
  5
1f9
  8
Layer_1
  10
407.89905
  20
184.94307
  42
0.079280347
  0
VERTEX
  5
1fa
  8
Layer_1
  10
407.55972
  20
185.2739
  42
0.083534088
  0
VERTEX
  5
1fb
  8
Layer_1
  10
407.25656
  20
185.40385
  42
0.046351208
  0
VERTEX
  5
1fc
  8
Layer_1
  10
406.888
  20
185.42401
  0
VERTEX
  5
1fd
  8
Layer_1
  10
406.12064
  20
185.41626
  0
VERTEX
  5
1fe
  8
Layer_1
  10
406.14307
  20
183.19604
  0
VERTEX
  5
1ff
  8
Layer_1
  10
405.48145
  20
183.18936
  0
VERTEX
  5
200
  8
Layer_1
  10
405.43091
  20
188.1891
  0
VERTEX
  5
201
  8
Layer_1
  10
407.64771
  20
188.2115
  42
-0.087281755
  0
VERTEX
  5
202
  8
Layer_1
  10
408.66541
  20
188.08705
  42
-0.16893491
  0
VERTEX
  5
203
  8
Layer_1
  10
409.22614
  20
187.61691
  42
-0.14000054
  0
VERTEX
  5
204
  8
Layer_1
  10
409.44177
  20
186.8653
  42
-0.19793676
  0
VERTEX
  5
205
  8
Layer_1
  10
409.10638
  20
185.96487
  42
-0.11550207
  0
VERTEX
  5
206
  8
Layer_1
  10
408.58023
  20
185.6243
  42
-0.054926167
  0
VERTEX
  5
207
  8
Layer_1
  10
408.047
  20
185.4903
  42
-0.068516535
  0
VERTEX
  5
208
  8
Layer_1
  10
408.44855
  20
185.24536
  0
SEQEND
  0
POLYLINE
  5
20a
  8
Layer_1
  62
5
  66
1
  10
0
  20
0
  30
0
  0
VERTEX
  5
20a
  8
Layer_1
  10
406.09814
  20
187.6433
  0
VERTEX
  5
20b
  8
Layer_1
  10
407.6806
  20
187.65929
  42
-0.18027316
  0
VERTEX
  5
20c
  8
Layer_1
  10
408.49628
  20
187.439
  42
-0.22330887
  0
VERTEX
  5
20d
  8
Layer_1
  10
408.75967
  20
186.85841
  42
-0.14732934
  0
VERTEX
  5
20e
  8
Layer_1
  10
408.6312
  20
186.40858
  42
-0.16694592
  0
VERTEX
  5
20f
  8
Layer_1
  10
408.24542
  20
186.10454
  42
-0.084309101
  0
VERTEX
  5
210
  8
Layer_1
  10
407.53699
  20
186.00359
  0
VERTEX
  5
211
  8
Layer_1
  10
406.11484
  20
185.98923
  0
VERTEX
  5
212
  8
Layer_1
  10
406.09814
  20
187.6433
  0
SEQEND
  0
POLYLINE
  5
214
  8
Layer_1
  62
5
  66
1
  10
0
  20
0
  30
0
  0
VERTEX
  5
214
  8
Layer_1
  10
411.17691
  20
183.2469
  0
VERTEX
  5
215
  8
Layer_1
  10
410.51526
  20
183.24022
  0
VERTEX
  5
216
  8
Layer_1
  10
410.46478
  20
188.23996
  0
VERTEX
  5
217
  8
Layer_1
  10
412.35077
  20
188.25902
  42
-0.041796685
  0
VERTEX
  5
218
  8
Layer_1
  10
413.11176
  20
188.21895
  42
-0.11096163
  0
VERTEX
  5
219
  8
Layer_1
  10
413.73145
  20
187.99158
  42
-0.12986446
  0
VERTEX
  5
21a
  8
Layer_1
  10
414.13702
  20
187.51303
  42
-0.11548538
  0
VERTEX
  5
21b
  8
Layer_1
  10
414.29568
  20
186.83247
  42
-0.19411764
  0
VERTEX
  5
21c
  8
Layer_1
  10
413.90076
  20
185.74896
  42
-0.12587532
  0
VERTEX
  5
21d
  8
Layer_1
  10
413.39432
  20
185.43175
  42
-0.079817417
  0
VERTEX
  5
21e
  8
Layer_1
  10
412.43872
  20
185.2925
  0
VERTEX
  5
21f
  8
Layer_1
  10
411.15637
  20
185.27954
  0
VERTEX
  5
220
  8
Layer_1
  10
411.17691
  20
183.2469
  0
SEQEND
  0
POLYLINE
  5
222
  8
Layer_1
  62
5
  66
1
  10
0
  20
0
  30
0
  0
VERTEX
  5
222
  8
Layer_1
  10
411.13235
  20
187.65663
  0
VERTEX
  5
223
  8
Layer_1
  10
412.41129
  20
187.66956
  42
-0.054772559
  0
VERTEX
  5
224
  8
Layer_1
  10
413.02902
  20
187.63145
  42
-0.17731559
  0
VERTEX
  5
225
  8
Layer_1
  10
413.44977
  20
187.34067
  42
-0.15848689
  0
VERTEX
  5
226
  8
Layer_1
  10
413.6138
  20
186.80511
  42
-0.22190065
  0
VERTEX
  5
227
  8
Layer_1
  10
413.35117
  20
186.13054
  42
-0.17621178
  0
VERTEX
  5
228
  8
Layer_1
  10
412.44299
  20
185.8826
  0
VERTEX
  5
229
  8
Layer_1
  10
411.15039
  20
185.86955
  0
VERTEX
  5
22a
  8
Layer_1
  10
411.13235
  20
187.65663
  0
SEQEND
  0
POLYLINE
  5
22c
  8
Layer_1
  62
5
  66
1
  10
0
  20
0
  30
0
  0
VERTEX
  5
22c
  8
Layer_1
  10
424.93848
  20
184.06055
  0
VERTEX
  5
22d
  8
Layer_1
  10
424.89215
  20
188.47026
  0
VERTEX
  5
22e
  8
Layer_1
  10
424.23053
  20
188.4633
  0
VERTEX
  5
22f
  8
Layer_1
  10
424.28308
  20
183.46358
  0
VERTEX
  5
230
  8
Layer_1
  10
427.40704
  20
183.49641
  0
VERTEX
  5
231
  8
Layer_1
  10
427.40082
  20
184.08643
  0
VERTEX
  5
232
  8
Layer_1
  10
424.93848
  20
184.06055
  0
SEQEND
  0
POLYLINE
  5
234
  8
Layer_1
  62
5
  66
1
  10
0
  20
0
  30
0
  0
VERTEX
  5
234
  8
Layer_1
  10
431.12811
  20
187.07936
  42
0.20119179
  0
VERTEX
  5
235
  8
Layer_1
  10
430.77441
  20
187.79192
  42
0.17189938
  0
VERTEX
  5
236
  8
Layer_1
  10
429.90051
  20
188.0249
  42
0.16520091
  0
VERTEX
  5
237
  8
Layer_1
  10
429.02805
  20
187.79575
  42
0.23898753
  0
VERTEX
  5
238
  8
Layer_1
  10
428.75909
  20
187.26253
  42
0.22304373
  0
VERTEX
  5
239
  8
Layer_1
  10
428.95813
  20
186.82121
  0
VERTEX
  5
23a
  8
Layer_1
  10
428.97528
  20
186.80688
  0
VERTEX
  5
23b
  8
Layer_1
  10
428.99457
  20
186.79254
  0
VERTEX
  5
23c
  8
Layer_1
  10
429.01596
  20
186.7782
  42
0.074401524
  0
VERTEX
  5
23d
  8
Layer_1
  10
429.95944
  20
186.47531
  42
-0.043463095
  0
VERTEX
  5
23e
  8
Layer_1
  10
431.06946
  20
186.16806
  42
-0.13745224
  0
VERTEX
  5
23f
  8
Layer_1
  10
431.71942
  20
185.66496
  42
-0.15209971
  0
VERTEX
  5
240
  8
Layer_1
  10
431.93494
  20
184.95607
  42
-0.14746849
  0
VERTEX
  5
241
  8
Layer_1
  10
431.71432
  20
184.20166
  42
-0.14475113
  0
VERTEX
  5
242
  8
Layer_1
  10
431.0636
  20
183.64569
  42
-0.10868944
  0
VERTEX
  5
243
  8
Layer_1
  10
430.10217
  20
183.43945
  0
VERTEX
  5
244
  8
Layer_1
  10
429.9906
  20
183.43967
  42
-0.095788778
  0
VERTEX
  5
245
  8
Layer_1
  10
428.96271
  20
183.62531
  42
-0.14969747
  0
VERTEX
  5
246
  8
Layer_1
  10
428.23688
  20
184.21288
  42
-0.1418613
  0
VERTEX
  5
247
  8
Layer_1
  10
427.95288
  20
185.10864
  0
VERTEX
  5
248
  8
Layer_1
  10
428.57642
  20
185.16977
  42
0.1192561
  0
VERTEX
  5
249
  8
Layer_1
  10
428.78922
  20
184.55635
  42
0.14405215
  0
VERTEX
  5
24a
  8
Layer_1
  10
429.29633
  20
184.17285
  42
0.10351809
  0
VERTEX
  5
24b
  8
Layer_1
  10
430.06525
  20
184.03256
  42
0.092887969
  0
VERTEX
  5
24c
  8
Layer_1
  10
430.73254
  20
184.15213
  42
0.14576515
  0
VERTEX
  5
24d
  8
Layer_1
  10
431.16071
  20
184.4653
  42
0.16116799
  0
VERTEX
  5
24e
  8
Layer_1
  10
431.29773
  20
184.89481
  42
0.16984383
  0
VERTEX
  5
24f
  8
Layer_1
  10
431.15698
  20
185.30432
  42
0.13470918
  0
VERTEX
  5
250
  8
Layer_1
  10
430.70374
  20
185.5946
  42
0.033384526
  0
VERTEX
  5
251
  8
Layer_1
  10
429.81104
  20
185.8291
  42
-0.055753273
  0
VERTEX
  5
252
  8
Layer_1
  10
428.84259
  20
186.13101
  42
-0.13327297
  0
VERTEX
  5
253
  8
Layer_1
  10
428.30396
  20
186.59093
  42
-0.14529056
  0
VERTEX
  5
254
  8
Layer_1
  10
428.1218
  20
187.21149
  42
-0.14800691
  0
VERTEX
  5
255
  8
Layer_1
  10
428.32922
  20
187.92142
  42
-0.15409019
  0
VERTEX
  5
256
  8
Layer_1
  10
428.95148
  20
188.42764
  42
-0.098689325
  0
VERTEX
  5
257
  8
Layer_1
  10
429.86713
  20
188.6078
  42
-0.1004611
  0
VERTEX
  5
258
  8
Layer_1
  10
430.84949
  20
188.43906
  42
-0.15129704
  0
VERTEX
  5
259
  8
Layer_1
  10
431.50812
  20
187.91901
  42
-0.13878305
  0
VERTEX
  5
25a
  8
Layer_1
  10
431.76196
  20
187.13377
  0
VERTEX
  5
25b
  8
Layer_1
  10
431.12811
  20
187.07936
  0
SEQEND
  0
POLYLINE
  5
25d
  8
Layer_1
  62
5
  66
1
  10
0
  20
0
  30
0
  0
VERTEX
  5
25d
  8
Layer_1
  10
436.71552
  20
186.06366
  0
VERTEX
  5
25e
  8
Layer_1
  10
435.97272
  20
188.5867
  0
VERTEX
  5
25f
  8
Layer_1
  10
435.17468
  20
188.57831
  0
VERTEX
  5
260
  8
Layer_1
  10
434.25861
  20
185.19196
  42
0.0061766005
  0
VERTEX
  5
261
  8
Layer_1
  10
434.04324
  20
184.26537
  42
0.015345498
  0
VERTEX
  5
262
  8
Layer_1
  10
433.82104
  20
185.28629
  0
VERTEX
  5
263
  8
Layer_1
  10
433.02606
  20
188.55573
  0
VERTEX
  5
264
  8
Layer_1
  10
432.34741
  20
188.5486
  0
VERTEX
  5
265
  8
Layer_1
  10
433.72662
  20
183.56282
  0
VERTEX
  5
266
  8
Layer_1
  10
434.40186
  20
183.56992
  0
VERTEX
  5
267
  8
Layer_1
  10
435.42249
  20
187.39053
  42
0.012373003
  0
VERTEX
  5
268
  8
Layer_1
  10
435.56299
  20
187.97867
  42
0.014677534
  0
VERTEX
  5
269
  8
Layer_1
  10
435.72601
  20
187.39372
  0
VERTEX
  5
26a
  8
Layer_1
  10
436.81989
  20
183.59532
  0
VERTEX
  5
26b
  8
Layer_1
  10
437.45764
  20
183.60202
  0
VERTEX
  5
26c
  8
Layer_1
  10
438.77612
  20
188.61615
  0
VERTEX
  5
26d
  8
Layer_1
  10
438.11108
  20
188.60916
  0
VERTEX
  5
26e
  8
Layer_1
  10
437.36041
  20
185.38828
  42
0.01017011
  0
VERTEX
  5
26f
  8
Layer_1
  10
437.13837
  20
184.37787
  0
VERTEX
  5
270
  8
Layer_1
  10
437.12289
  20
184.29773
  42
0.033808889
  0
VERTEX
  5
271
  8
Layer_1
  10
436.71552
  20
186.06366
  0
SEQEND
  0
POLYLINE
  5
273
  8
Layer_1
  62
5
  66
1
  10
0
  20
0
  30
0
  0
VERTEX
  5
273
  8
Layer_1
  10
351.1236
  20
182.85201
  0
VERTEX
  5
274
  8
Layer_1
  10
351.72043
  20
182.86023
  0
VERTEX
  5
275
  8
Layer_1
  10
353.1156
  20
187.06468
  0
VERTEX
  5
276
  8
Layer_1
  10
353.17322
  20
182.88022
  0
VERTEX
  5
277
  8
Layer_1
  10
353.81094
  20
182.88901
  0
VERTEX
  5
278
  8
Layer_1
  10
353.7421
  20
187.88853
  0
VERTEX
  5
279
  8
Layer_1
  10
352.85199
  20
187.87628
  0
VERTEX
  5
27a
  8
Layer_1
  10
351.70288
  20
184.38127
  42
0.0061182809
  0
VERTEX
  5
27b
  8
Layer_1
  10
351.44791
  20
183.57619
  42
0.0052547172
  0
VERTEX
  5
27c
  8
Layer_1
  10
351.19901
  20
184.31293
  0
VERTEX
  5
27d
  8
Layer_1
  10
349.96689
  20
187.83655
  0
VERTEX
  5
27e
  8
Layer_1
  10
348.97107
  20
187.82285
  0
VERTEX
  5
27f
  8
Layer_1
  10
349.03992
  20
182.8233
  0
VERTEX
  5
280
  8
Layer_1
  10
349.67764
  20
182.83209
  0
VERTEX
  5
281
  8
Layer_1
  10
349.61902
  20
187.08817
  0
VERTEX
  5
282
  8
Layer_1
  10
351.1236
  20
182.85201
  0
SEQEND
  0
POLYLINE
  5
284
  8
Layer_1
  62
5
  66
1
  10
0
  20
0
  30
0
  0
VERTEX
  5
284
  8
Layer_1
  10
358.39719
  20
187.95264
  0
VERTEX
  5
285
  8
Layer_1
  10
354.43439
  20
187.89807
  0
VERTEX
  5
286
  8
Layer_1
  10
354.4425
  20
187.30807
  0
VERTEX
  5
287
  8
Layer_1
  10
356.08972
  20
187.33076
  0
VERTEX
  5
288
  8
Layer_1
  10
356.15042
  20
182.92122
  0
VERTEX
  5
289
  8
Layer_1
  10
356.81201
  20
182.93033
  0
VERTEX
  5
28a
  8
Layer_1
  10
356.75131
  20
187.33987
  0
VERTEX
  5
28b
  8
Layer_1
  10
358.4053
  20
187.36264
  0
VERTEX
  5
28c
  8
Layer_1
  10
358.39719
  20
187.95264
  0
SEQEND
  0
POLYLINE
  5
28e
  8
Layer_1
  62
5
  66
1
  10
0
  20
0
  30
0
  0
VERTEX
  5
28e
  8
Layer_1
  10
362.11444
  20
185.02946
  42
-0.062971282
  0
VERTEX
  5
28f
  8
Layer_1
  10
362.67267
  20
184.37201
  0
VERTEX
  5
290
  8
Layer_1
  10
363.56104
  20
183.02327
  0
VERTEX
  5
291
  8
Layer_1
  10
362.72894
  20
183.01181
  0
VERTEX
  5
292
  8
Layer_1
  10
362.05301
  20
184.04285
  42
0.022088689
  0
VERTEX
  5
293
  8
Layer_1
  10
361.56607
  20
184.72516
  42
0.079473909
  0
VERTEX
  5
294
  8
Layer_1
  10
361.22556
  20
185.05475
  42
0.083654607
  0
VERTEX
  5
295
  8
Layer_1
  10
360.92191
  20
185.18359
  42
0.046177405
  0
VERTEX
  5
296
  8
Layer_1
  10
360.55325
  20
185.20239
  0
VERTEX
  5
297
  8
Layer_1
  10
359.78595
  20
185.19182
  0
VERTEX
  5
298
  8
Layer_1
  10
359.81653
  20
182.97171
  0
VERTEX
  5
299
  8
Layer_1
  10
359.15491
  20
182.96259
  0
VERTEX
  5
29a
  8
Layer_1
  10
359.08606
  20
187.96213
  0
VERTEX
  5
29b
  8
Layer_1
  10
361.30276
  20
187.99265
  42
-0.08731868
  0
VERTEX
  5
29c
  8
Layer_1
  10
362.32092
  20
187.87193
  42
-0.16906972
  0
VERTEX
  5
29d
  8
Layer_1
  10
362.88333
  20
187.40384
  42
-0.14010161
  0
VERTEX
  5
29e
  8
Layer_1
  10
363.10175
  20
186.65303
  42
-0.19778453
  0
VERTEX
  5
29f
  8
Layer_1
  10
362.76965
  20
185.75137
  42
-0.086417351
  0
VERTEX
  5
2a0
  8
Layer_1
  10
362.42105
  20
185.48862
  42
-0.082716149
  0
VERTEX
  5
2a1
  8
Layer_1
  10
361.71204
  20
185.27292
  42
-0.068647593
  0
VERTEX
  5
2a2
  8
Layer_1
  10
362.11444
  20
185.02946
  0
SEQEND
  0
POLYLINE
  5
2a4
  8
Layer_1
  62
5
  66
1
  10
0
  20
0
  30
0
  0
VERTEX
  5
2a4
  8
Layer_1
  10
359.75528
  20
187.41876
  0
VERTEX
  5
2a5
  8
Layer_1
  10
361.33768
  20
187.44055
  42
-0.18054175
  0
VERTEX
  5
2a6
  8
Layer_1
  10
362.15417
  20
187.22325
  42
-0.22364228
  0
VERTEX
  5
2a7
  8
Layer_1
  10
362.41968
  20
186.64365
  42
-0.14707863
  0
VERTEX
  5
2a8
  8
Layer_1
  10
362.29285
  20
186.19334
  42
-0.16645169
  0
VERTEX
  5
2a9
  8
Layer_1
  10
361.9082
  20
185.88788
  42
-0.084464268
  0
VERTEX
  5
2aa
  8
Layer_1
  10
361.20016
  20
185.78433
  0
VERTEX
  5
2ab
  8
Layer_1
  10
359.77805
  20
185.76476
  0
VERTEX
  5
2ac
  8
Layer_1
  10
359.75528
  20
187.41876
  0
SEQEND
  0
POLYLINE
  5
2ae
  8
Layer_2
  62
3
  66
1
  10
0
  20
0
  30
0
  0
VERTEX
  5
2ae
  8
Layer_2
  10
286.70544
  20
225.71039
  42
0.21995577
  0
VERTEX
  5
2af
  8
Layer_2
  10
287.02264
  20
225.5835
  42
0.14394704
  0
VERTEX
  5
2b0
  8
Layer_2
  10
287.28049
  20
225.65205
  42
0.17434827
  0
VERTEX
  5
2b1
  8
Layer_2
  10
287.42987
  20
225.83829
  42
0.076024741
  0
VERTEX
  5
2b2
  8
Layer_2
  10
287.47079
  20
226.21379
  0
VERTEX
  5
2b3
  8
Layer_2
  10
287.47079
  20
228.28064
  0
VERTEX
  5
2b4
  8
Layer_2
  10
287.8678
  20
228.28064
  0
VERTEX
  5
2b5
  8
Layer_2
  10
287.8678
  20
226.2363
  42
-0.099728159
  0
VERTEX
  5
2b6
  8
Layer_2
  10
287.77673
  20
225.65308
  42
-0.16938786
  0
VERTEX
  5
2b7
  8
Layer_2
  10
287.48819
  20
225.33794
  42
-0.12763977
  0
VERTEX
  5
2b8
  8
Layer_2
  10
287.02469
  20
225.22948
  42
-0.21481845
  0
VERTEX
  5
2b9
  8
Layer_2
  10
286.41998
  20
225.45663
  42
-0.19408025
  0
VERTEX
  5
2ba
  8
Layer_2
  10
286.21841
  20
226.13193
  0
VERTEX
  5
2bb
  8
Layer_2
  10
286.57654
  20
226.18105
  42
0.16239279
  0
VERTEX
  5
2bc
  8
Layer_2
  10
286.70544
  20
225.71039
  0
SEQEND
  0
POLYLINE
  5
2be
  8
Layer_2
  62
3
  66
1
  10
0
  20
0
  30
0
  0
VERTEX
  5
2be
  8
Layer_2
  10
289.03732
  20
227.37408
  42
-0.043646652
  0
VERTEX
  5
2bf
  8
Layer_2
  10
288.64954
  20
227.18378
  0
VERTEX
  5
2c0
  8
Layer_2
  10
288.64954
  20
227.53986
  42
0.0727891
  0
VERTEX
  5
2c1
  8
Layer_2
  10
289.18976
  20
227.89182
  42
0.094227285
  0
VERTEX
  5
2c2
  8
Layer_2
  10
289.51718
  20
228.29291
  0
VERTEX
  5
2c3
  8
Layer_2
  10
289.75458
  20
228.29291
  0
VERTEX
  5
2c4
  8
Layer_2
  10
289.75458
  20
225.28064
  0
VERTEX
  5
2c5
  8
Layer_2
  10
289.38623
  20
225.28064
  0
VERTEX
  5
2c6
  8
Layer_2
  10
289.38623
  20
227.62784
  42
-0.056728277
  0
VERTEX
  5
2c7
  8
Layer_2
  10
289.03732
  20
227.37408
  0
SEQEND
  0
POLYLINE
  5
2c9
  8
Layer_2
  62
3
  66
1
  10
0
  20
0
  30
0
  0
VERTEX
  5
2c9
  8
Layer_2
  10
291.78867
  20
226.18105
  0
VERTEX
  5
2ca
  8
Layer_2
  10
291.78867
  20
226.55145
  0
VERTEX
  5
2cb
  8
Layer_2
  10
290.65701
  20
226.55145
  0
VERTEX
  5
2cc
  8
Layer_2
  10
290.65701
  20
226.18105
  0
VERTEX
  5
2cd
  8
Layer_2
  10
291.78867
  20
226.18105
  0
SEQEND
  0
POLYLINE
  5
2cf
  8
Layer_2
  62
3
  66
1
  10
0
  20
0
  30
0
  0
VERTEX
  5
2cf
  8
Layer_2
  10
293.05847
  20
227.10294
  42
0.058031769
  0
VERTEX
  5
2d0
  8
Layer_2
  10
292.67682
  20
226.13602
  42
0.059041174
  0
VERTEX
  5
2d1
  8
Layer_2
  10
292.53766
  20
225.28064
  0
VERTEX
  5
2d2
  8
Layer_2
  10
292.91623
  20
225.28064
  42
-0.05424455
  0
VERTEX
  5
2d3
  8
Layer_2
  10
293.05743
  20
226.10533
  42
-0.024349053
  0
VERTEX
  5
2d4
  8
Layer_2
  10
293.20755
  20
226.54544
  42
-0.032797924
  0
VERTEX
  5
2d5
  8
Layer_2
  10
293.49228
  20
227.1449
  42
-0.060606287
  0
VERTEX
  5
2d6
  8
Layer_2
  10
294.06015
  20
227.95526
  0
VERTEX
  5
2d7
  8
Layer_2
  10
294.06015
  20
228.24176
  0
VERTEX
  5
2d8
  8
Layer_2
  10
292.11813
  20
228.24176
  0
VERTEX
  5
2d9
  8
Layer_2
  10
292.11813
  20
227.88773
  0
VERTEX
  5
2da
  8
Layer_2
  10
293.58746
  20
227.88773
  42
0.057214277
  0
VERTEX
  5
2db
  8
Layer_2
  10
293.05847
  20
227.10294
  0
SEQEND
  0
ENDSEC
  0
EOF
