  0
SECTION
  2
HEADER
  9
$ACADVER
  1
AC1009
  0
ENDSEC
  0
SECTION
  2
ENTITIES
  0
POLYLINE
  5
90
  8
Layer_0
  62
1
  66
1
  10
0
  20
0
  30
0
  0
VERTEX
  5
90
  8
Layer_0
  10
235
  20
235.5
  0
VERTEX
  5
91
  8
Layer_0
  10
235
  20
244.5
  0
VERTEX
  5
92
  8
Layer_0
  10
265
  20
244.5
  0
VERTEX
  5
93
  8
Layer_0
  10
265
  20
235.5
  0
VERTEX
  5
94
  8
Layer_0
  10
335
  20
235.5
  0
VERTEX
  5
95
  8
Layer_0
  10
335
  20
244.5
  0
VERTEX
  5
96
  8
Layer_0
  10
365
  20
244.5
  0
VERTEX
  5
97
  8
Layer_0
  10
365
  20
235.5
  0
VERTEX
  5
98
  8
Layer_0
  10
400
  20
235.5
  0
VERTEX
  5
99
  8
Layer_0
  10
400
  20
210.5
  0
VERTEX
  5
9a
  8
Layer_0
  10
409
  20
210.5
  0
VERTEX
  5
9b
  8
Layer_0
  10
409
  20
180.5
  0
VERTEX
  5
9c
  8
Layer_0
  10
400
  20
180.5
  0
VERTEX
  5
9d
  8
Layer_0
  10
400
  20
155.5
  0
VERTEX
  5
9e
  8
Layer_0
  10
365
  20
155.5
  0
VERTEX
  5
9f
  8
Layer_0
  10
335
  20
155.5
  0
VERTEX
  5
a0
  8
Layer_0
  10
315
  20
155.5
  0
VERTEX
  5
a1
  8
Layer_0
  10
315
  20
175.5
  0
VERTEX
  5
a2
  8
Layer_0
  10
285
  20
175.5
  0
VERTEX
  5
a3
  8
Layer_0
  10
285
  20
155.5
  0
VERTEX
  5
a4
  8
Layer_0
  10
220
  20
155.5
  0
VERTEX
  5
a5
  8
Layer_0
  10
220
  20
180.5
  0
VERTEX
  5
a6
  8
Layer_0
  10
200
  20
180.5
  0
VERTEX
  5
a7
  8
Layer_0
  10
191
  20
180.5
  0
VERTEX
  5
a8
  8
Layer_0
  10
191
  20
210.5
  0
VERTEX
  5
a9
  8
Layer_0
  10
200
  20
210.5
  0
VERTEX
  5
aa
  8
Layer_0
  10
200
  20
235.5
  0
VERTEX
  5
ab
  8
Layer_0
  10
235
  20
235.5
  0
SEQEND
  0
POLYLINE
  5
ad
  8
Layer_1
  62
3
  66
1
  10
0
  20
0
  30
0
  0
VERTEX
  5
ad
  8
Layer_1
  10
205.82669
  20
226.78094
  42
0.2197638
  0
VERTEX
  5
ae
  8
Layer_1
  10
206.14388
  20
226.65407
  42
0.1438235
  0
VERTEX
  5
af
  8
Layer_1
  10
206.40172
  20
226.72263
  42
0.17421401
  0
VERTEX
  5
b0
  8
Layer_1
  10
206.5511
  20
226.90884
  42
0.076112499
  0
VERTEX
  5
b1
  8
Layer_1
  10
206.59203
  20
227.28435
  0
VERTEX
  5
b2
  8
Layer_1
  10
206.59203
  20
229.3512
  0
VERTEX
  5
b3
  8
Layer_1
  10
206.98903
  20
229.3512
  0
VERTEX
  5
b4
  8
Layer_1
  10
206.98903
  20
227.30685
  42
-0.099831956
  0
VERTEX
  5
b5
  8
Layer_1
  10
206.89796
  20
226.72363
  42
-0.16901045
  0
VERTEX
  5
b6
  8
Layer_1
  10
206.60942
  20
226.40849
  42
-0.12735648
  0
VERTEX
  5
b7
  8
Layer_1
  10
206.14592
  20
226.30003
  42
-0.21506149
  0
VERTEX
  5
b8
  8
Layer_1
  10
205.54121
  20
226.52719
  42
-0.041170676
  0
VERTEX
  5
b9
  8
Layer_1
  10
205.47736
  20
226.60904
  42
-0.15035141
  0
VERTEX
  5
ba
  8
Layer_1
  10
205.33965
  20
227.2025
  0
VERTEX
  5
bb
  8
Layer_1
  10
205.69775
  20
227.2516
  0
VERTEX
  5
bc
  8
Layer_1
  10
205.69913
  20
227.22333
  42
0.16162114
  0
VERTEX
  5
bd
  8
Layer_1
  10
205.82669
  20
226.78094
  0
SEQEND
  0
POLYLINE
  5
bf
  8
Layer_1
  62
3
  66
1
  10
0
  20
0
  30
0
  0
VERTEX
  5
bf
  8
Layer_1
  10
208.15854
  20
228.44466
  42
-0.043716823
  0
VERTEX
  5
c0
  8
Layer_1
  10
207.77075
  20
228.25433
  0
VERTEX
  5
c1
  8
Layer_1
  10
207.77075
  20
228.61041
  42
0.072810073
  0
VERTEX
  5
c2
  8
Layer_1
  10
208.31099
  20
228.96239
  42
0.094170183
  0
VERTEX
  5
c3
  8
Layer_1
  10
208.63841
  20
229.36348
  0
VERTEX
  5
c4
  8
Layer_1
  10
208.87579
  20
229.36348
  0
VERTEX
  5
c5
  8
Layer_1
  10
208.87579
  20
226.3512
  0
VERTEX
  5
c6
  8
Layer_1
  10
208.50745
  20
226.3512
  0
VERTEX
  5
c7
  8
Layer_1
  10
208.50745
  20
228.69839
  42
-0.056788852
  0
VERTEX
  5
c8
  8
Layer_1
  10
208.15854
  20
228.44466
  0
SEQEND
  0
POLYLINE
  5
ca
  8
Layer_1
  62
3
  66
1
  10
0
  20
0
  30
0
  0
VERTEX
  5
ca
  8
Layer_1
  10
210.9099
  20
227.2516
  0
VERTEX
  5
cb
  8
Layer_1
  10
210.9099
  20
227.62201
  0
VERTEX
  5
cc
  8
Layer_1
  10
209.77826
  20
227.62201
  0
VERTEX
  5
cd
  8
Layer_1
  10
209.77826
  20
227.2516
  0
VERTEX
  5
ce
  8
Layer_1
  10
210.9099
  20
227.2516
  0
SEQEND
  0
POLYLINE
  5
d0
  8
Layer_1
  62
3
  66
1
  10
0
  20
0
  30
0
  0
VERTEX
  5
d0
  8
Layer_1
  10
211.35909
  20
227.70897
  42
0.16006095
  0
VERTEX
  5
d1
  8
Layer_1
  10
211.21098
  20
227.24309
  0
VERTEX
  5
d2
  8
Layer_1
  10
211.21072
  20
227.21887
  42
0.20193944
  0
VERTEX
  5
d3
  8
Layer_1
  10
211.46068
  20
226.58514
  0
VERTEX
  5
d4
  8
Layer_1
  10
211.48289
  20
226.563
  42
0.025884889
  0
VERTEX
  5
d5
  8
Layer_1
  10
211.55362
  20
226.50137
  42
0.17139276
  0
VERTEX
  5
d6
  8
Layer_1
  10
212.19913
  20
226.30003
  42
0.19963776
  0
VERTEX
  5
d7
  8
Layer_1
  10
212.91536
  20
226.56198
  42
0.21184513
  0
VERTEX
  5
d8
  8
Layer_1
  10
213.18753
  20
227.20863
  42
0.16029416
  0
VERTEX
  5
d9
  8
Layer_1
  10
213.04326
  20
227.68748
  42
0.15686102
  0
VERTEX
  5
da
  8
Layer_1
  10
212.64552
  20
227.97038
  0
VERTEX
  5
db
  8
Layer_1
  10
212.62273
  20
227.97807
  42
0.15117666
  0
VERTEX
  5
dc
  8
Layer_1
  10
212.95526
  20
228.21648
  42
0.15848992
  0
VERTEX
  5
dd
  8
Layer_1
  10
213.06474
  20
228.57971
  42
0.21329957
  0
VERTEX
  5
de
  8
Layer_1
  10
212.82532
  20
229.1353
  42
0.1917016
  0
VERTEX
  5
df
  8
Layer_1
  10
212.22546
  20
229.36308
  0
VERTEX
  5
e0
  8
Layer_1
  10
212.19299
  20
229.36348
  42
0.18677377
  0
VERTEX
  5
e1
  8
Layer_1
  10
211.58667
  20
229.15862
  0
VERTEX
  5
e2
  8
Layer_1
  10
211.56679
  20
229.14043
  42
0.20524763
  0
VERTEX
  5
e3
  8
Layer_1
  10
211.33186
  20
228.61705
  0
VERTEX
  5
e4
  8
Layer_1
  10
211.33145
  20
228.58995
  42
0.15088203
  0
VERTEX
  5
e5
  8
Layer_1
  10
211.43295
  20
228.23058
  0
VERTEX
  5
e6
  8
Layer_1
  10
211.44196
  20
228.2175
  42
0.098139684
  0
VERTEX
  5
e7
  8
Layer_1
  10
211.61127
  20
228.06042
  42
0.053314747
  0
VERTEX
  5
e8
  8
Layer_1
  10
211.78166
  20
227.97807
  42
0.1646041
  0
VERTEX
  5
e9
  8
Layer_1
  10
211.37167
  20
227.72522
  0
VERTEX
  5
ea
  8
Layer_1
  10
211.35909
  20
227.70897
  0
SEQEND
  0
POLYLINE
  5
ec
  8
Layer_1
  62
3
  66
1
  10
0
  20
0
  30
0
  0
VERTEX
  5
ec
  8
Layer_1
  10
212.20117
  20
228.11928
  42
0.20359955
  0
VERTEX
  5
ed
  8
Layer_1
  10
212.55008
  20
228.25331
  42
0.20847808
  0
VERTEX
  5
ee
  8
Layer_1
  10
212.68616
  20
228.58176
  42
0.20837928
  0
VERTEX
  5
ef
  8
Layer_1
  10
212.54599
  20
228.92249
  42
0.066335592
  0
VERTEX
  5
f0
  8
Layer_1
  10
212.44492
  20
228.99922
  42
0.13096665
  0
VERTEX
  5
f1
  8
Layer_1
  10
212.19708
  20
229.06061
  0
VERTEX
  5
f2
  8
Layer_1
  10
212.17964
  20
229.06038
  42
0.19420464
  0
VERTEX
  5
f3
  8
Layer_1
  10
211.84715
  20
228.92555
  0
VERTEX
  5
f4
  8
Layer_1
  10
211.8358
  20
228.9142
  42
0.20213124
  0
VERTEX
  5
f5
  8
Layer_1
  10
211.70799
  20
228.60222
  0
VERTEX
  5
f6
  8
Layer_1
  10
211.70824
  20
228.58463
  42
0.20048375
  0
VERTEX
  5
f7
  8
Layer_1
  10
211.84511
  20
228.25433
  0
VERTEX
  5
f8
  8
Layer_1
  10
211.85667
  20
228.24332
  42
0.19338501
  0
VERTEX
  5
f9
  8
Layer_1
  10
212.20117
  20
228.11928
  0
SEQEND
  0
POLYLINE
  5
fb
  8
Layer_1
  62
3
  66
1
  10
0
  20
0
  30
0
  0
VERTEX
  5
fb
  8
Layer_1
  10
211.88603
  20
226.68373
  42
0.12796507
  0
VERTEX
  5
fc
  8
Layer_1
  10
212.20322
  20
226.60291
  42
0.20421127
  0
VERTEX
  5
fd
  8
Layer_1
  10
212.6391
  20
226.77275
  42
0.207745
  0
VERTEX
  5
fe
  8
Layer_1
  10
212.81099
  20
227.20454
  42
0.20861803
  0
VERTEX
  5
ff
  8
Layer_1
  10
212.63399
  20
227.64452
  42
0.049373288
  0
VERTEX
  5
100
  8
Layer_1
  10
212.53992
  20
227.72061
  42
0.14844145
  0
VERTEX
  5
101
  8
Layer_1
  10
212.19093
  20
227.81845
  0
VERTEX
  5
102
  8
Layer_1
  10
212.16943
  20
227.81816
  42
0.19907891
  0
VERTEX
  5
103
  8
Layer_1
  10
211.76018
  20
227.64656
  0
VERTEX
  5
104
  8
Layer_1
  10
211.74623
  20
227.63208
  42
0.1959504
  0
VERTEX
  5
105
  8
Layer_1
  10
211.58931
  20
227.21683
  0
VERTEX
  5
106
  8
Layer_1
  10
211.58983
  20
227.19063
  42
0.10873329
  0
VERTEX
  5
107
  8
Layer_1
  10
211.664
  20
226.91191
  0
VERTEX
  5
108
  8
Layer_1
  10
211.67696
  20
226.88782
  42
0.1410614
  0
VERTEX
  5
109
  8
Layer_1
  10
211.88603
  20
226.68373
  0
SEQEND
  0
ENDSEC
  0
EOF
