  0
SECTION
  2
HEADER
  9
$ACADVER
  1
AC1009
  0
ENDSEC
  0
SECTION
  2
ENTITIES
  0
CIRCLE
  5
90
  8
Layer_0
  62
1
  10
116
  20
319
  30
0
  40
1.5
  0
CIRCLE
  5
90
  8
Layer_0
  62
1
  10
306
  20
319
  30
0
  40
1.5
  0
CIRCLE
  5
90
  8
Layer_0
  62
1
  10
116
  20
79
  30
0
  40
1.5
  0
CIRCLE
  5
90
  8
Layer_0
  62
1
  10
306
  20
79
  30
0
  40
1.5
  0
CIRCLE
  5
90
  8
Layer_0
  62
1
  10
211
  20
139
  30
0
  40
45.5
  0
CIRCLE
  5
90
  8
Layer_0
  62
1
  10
211
  20
194
  30
0
  40
1.5
  0
CIRCLE
  5
90
  8
Layer_0
  62
1
  10
163.36861
  20
166.5
  30
0
  40
1.5
  0
CIRCLE
  5
90
  8
Layer_0
  62
1
  10
163.36861
  20
111.5
  30
0
  40
1.5
  0
CIRCLE
  5
90
  8
Layer_0
  62
1
  10
211
  20
84
  30
0
  40
1.5
  0
CIRCLE
  5
90
  8
Layer_0
  62
1
  10
258.63141
  20
111.5
  30
0
  40
1.5
  0
CIRCLE
  5
90
  8
Layer_0
  62
1
  10
258.63141
  20
166.5
  30
0
  40
1.5
  0
CIRCLE
  5
90
  8
Layer_0
  62
1
  10
211
  20
258
  30
0
  40
8.1999998
  0
CIRCLE
  5
90
  8
Layer_0
  62
1
  10
195.5
  20
273.5
  30
0
  40
1.5
  0
CIRCLE
  5
90
  8
Layer_0
  62
1
  10
195.5
  20
242.5
  30
0
  40
1.5
  0
CIRCLE
  5
90
  8
Layer_0
  62
1
  10
226.5
  20
242.5
  30
0
  40
1.5
  0
CIRCLE
  5
90
  8
Layer_0
  62
1
  10
226.5
  20
273.5
  30
0
  40
1.5
  0
POLYLINE
  5
90
  8
Layer_0
  62
1
  66
1
  10
0
  20
0
  30
0
  0
VERTEX
  5
90
  8
Layer_0
  10
311
  20
276.5
  0
VERTEX
  5
91
  8
Layer_0
  10
320
  20
276.5
  0
VERTEX
  5
92
  8
Layer_0
  10
320
  20
246.5
  0
VERTEX
  5
93
  8
Layer_0
  10
311
  20
246.5
  0
VERTEX
  5
94
  8
Layer_0
  10
311
  20
151.5
  0
VERTEX
  5
95
  8
Layer_0
  10
320
  20
151.5
  0
VERTEX
  5
96
  8
Layer_0
  10
320
  20
121.5
  0
VERTEX
  5
97
  8
Layer_0
  10
311
  20
121.5
  0
VERTEX
  5
98
  8
Layer_0
  10
311
  20
74
  0
VERTEX
  5
99
  8
Layer_0
  10
226
  20
74
  0
VERTEX
  5
9a
  8
Layer_0
  10
226
  20
65
  0
VERTEX
  5
9b
  8
Layer_0
  10
196
  20
65
  0
VERTEX
  5
9c
  8
Layer_0
  10
196
  20
74
  0
VERTEX
  5
9d
  8
Layer_0
  10
111
  20
74
  0
VERTEX
  5
9e
  8
Layer_0
  10
111
  20
121.5
  0
VERTEX
  5
9f
  8
Layer_0
  10
102
  20
121.5
  0
VERTEX
  5
a0
  8
Layer_0
  10
102
  20
151.5
  0
VERTEX
  5
a1
  8
Layer_0
  10
111
  20
151.5
  0
VERTEX
  5
a2
  8
Layer_0
  10
111
  20
246.5
  0
VERTEX
  5
a3
  8
Layer_0
  10
102
  20
246.5
  0
VERTEX
  5
a4
  8
Layer_0
  10
102
  20
276.5
  0
VERTEX
  5
a5
  8
Layer_0
  10
111
  20
276.5
  0
VERTEX
  5
a6
  8
Layer_0
  10
111
  20
324
  0
VERTEX
  5
a7
  8
Layer_0
  10
196
  20
324
  0
VERTEX
  5
a8
  8
Layer_0
  10
196
  20
333
  0
VERTEX
  5
a9
  8
Layer_0
  10
226
  20
333
  0
VERTEX
  5
aa
  8
Layer_0
  10
226
  20
324
  0
VERTEX
  5
ab
  8
Layer_0
  10
311
  20
324
  0
VERTEX
  5
ac
  8
Layer_0
  10
311
  20
276.5
  0
SEQEND
  0
POLYLINE
  5
ae
  8
Layer_0
  62
1
  66
1
  10
0
  20
0
  30
0
  0
VERTEX
  5
ae
  8
Layer_0
  10
214.5
  20
227.5
  0
VERTEX
  5
af
  8
Layer_0
  10
228.5
  20
227.5
  42
-0.41421356
  0
VERTEX
  5
b0
  8
Layer_0
  10
231
  20
225
  42
-0.41421356
  0
VERTEX
  5
b1
  8
Layer_0
  10
228.5
  20
222.5
  0
VERTEX
  5
b2
  8
Layer_0
  10
214.5
  20
222.5
  42
-0.41421351
  0
VERTEX
  5
b3
  8
Layer_0
  10
212
  20
225
  42
-0.41421356
  0
VERTEX
  5
b4
  8
Layer_0
  10
214.5
  20
227.5
  0
SEQEND
  0
POLYLINE
  5
b6
  8
Layer_0
  62
1
  66
1
  10
0
  20
0
  30
0
  0
VERTEX
  5
b6
  8
Layer_0
  10
193.5
  20
227.5
  0
VERTEX
  5
b7
  8
Layer_0
  10
207.5
  20
227.5
  42
-0.41421356
  0
VERTEX
  5
b8
  8
Layer_0
  10
210
  20
225
  42
-0.41421356
  0
VERTEX
  5
b9
  8
Layer_0
  10
207.5
  20
222.5
  0
VERTEX
  5
ba
  8
Layer_0
  10
193.5
  20
222.5
  42
-0.41421356
  0
VERTEX
  5
bb
  8
Layer_0
  10
191
  20
225
  42
-0.41421397
  0
VERTEX
  5
bc
  8
Layer_0
  10
193.5
  20
227.5
  0
SEQEND
  0
POLYLINE
  5
be
  8
Layer_0
  62
1
  66
1
  10
0
  20
0
  30
0
  0
VERTEX
  5
be
  8
Layer_0
  10
275.95001
  20
283.1
  0
VERTEX
  5
bf
  8
Layer_0
  10
246.05
  20
283.1
  0
VERTEX
  5
c0
  8
Layer_0
  10
246.05
  20
286
  0
VERTEX
  5
c1
  8
Layer_0
  10
275.95001
  20
286
  0
VERTEX
  5
c2
  8
Layer_0
  10
275.95001
  20
283.1
  0
SEQEND
  0
POLYLINE
  5
c4
  8
Layer_0
  62
1
  66
1
  10
0
  20
0
  30
0
  0
VERTEX
  5
c4
  8
Layer_0
  10
175.95
  20
283.1
  0
VERTEX
  5
c5
  8
Layer_0
  10
146.05
  20
283.1
  0
VERTEX
  5
c6
  8
Layer_0
  10
146.05
  20
286
  0
VERTEX
  5
c7
  8
Layer_0
  10
175.95
  20
286
  0
VERTEX
  5
c8
  8
Layer_0
  10
175.95
  20
283.1
  0
SEQEND
  0
POLYLINE
  5
ca
  8
Layer_1
  62
3
  66
1
  10
0
  20
0
  30
0
  0
VERTEX
  5
ca
  8
Layer_1
  10
123.13992
  20
314.69142
  0
VERTEX
  5
cb
  8
Layer_1
  10
123.14962
  20
314.68107
  0
VERTEX
  5
cc
  8
Layer_1
  10
123.15963
  20
314.67116
  0
VERTEX
  5
cd
  8
Layer_1
  10
123.16994
  20
314.66168
  42
0.18795121
  0
VERTEX
  5
ce
  8
Layer_1
  10
123.45711
  20
314.56454
  0
VERTEX
  5
cf
  8
Layer_1
  10
123.48172
  20
314.56503
  42
0.13434777
  0
VERTEX
  5
d0
  8
Layer_1
  10
123.71495
  20
314.6331
  42
-0.026658231
  0
VERTEX
  5
d1
  8
Layer_1
  10
123.74923
  20
314.65731
  42
-0.018016697
  0
VERTEX
  5
d2
  8
Layer_1
  10
123.77975
  20
314.68426
  0
VERTEX
  5
d3
  8
Layer_1
  10
123.79361
  20
314.69875
  42
0.10248231
  0
VERTEX
  5
d4
  8
Layer_1
  10
123.86433
  20
314.81932
  0
VERTEX
  5
d5
  8
Layer_1
  10
123.86768
  20
314.82937
  0
VERTEX
  5
d6
  8
Layer_1
  10
123.87087
  20
314.8399
  0
VERTEX
  5
d7
  8
Layer_1
  10
123.87393
  20
314.85093
  42
0.060310643
  0
VERTEX
  5
d8
  8
Layer_1
  10
123.90527
  20
315.19483
  0
VERTEX
  5
d9
  8
Layer_1
  10
123.90527
  20
317.26168
  0
VERTEX
  5
da
  8
Layer_1
  10
124.30226
  20
317.26168
  0
VERTEX
  5
db
  8
Layer_1
  10
124.30226
  20
315.21735
  0
VERTEX
  5
dc
  8
Layer_1
  10
124.3021
  20
315.18626
  42
-0.097927732
  0
VERTEX
  5
dd
  8
Layer_1
  10
124.2112
  20
314.63412
  0
VERTEX
  5
de
  8
Layer_1
  10
124.20342
  20
314.61707
  42
-0.16298406
  0
VERTEX
  5
df
  8
Layer_1
  10
123.92266
  20
314.31898
  42
0.0064676562
  0
VERTEX
  5
e0
  8
Layer_1
  10
123.88927
  20
314.30166
  0
VERTEX
  5
e1
  8
Layer_1
  10
123.87222
  20
314.29356
  0
VERTEX
  5
e2
  8
Layer_1
  10
123.85493
  20
314.28584
  0
VERTEX
  5
e3
  8
Layer_1
  10
123.8374
  20
314.2785
  42
-0.09581833
  0
VERTEX
  5
e4
  8
Layer_1
  10
123.45915
  20
314.21052
  0
VERTEX
  5
e5
  8
Layer_1
  10
123.42656
  20
314.21091
  42
-0.20883356
  0
VERTEX
  5
e6
  8
Layer_1
  10
122.85445
  20
314.43767
  0
VERTEX
  5
e7
  8
Layer_1
  10
122.83734
  20
314.45699
  42
-0.18198292
  0
VERTEX
  5
e8
  8
Layer_1
  10
122.65288
  20
315.11298
  0
VERTEX
  5
e9
  8
Layer_1
  10
123.01099
  20
315.16209
  42
0.16143657
  0
VERTEX
  5
ea
  8
Layer_1
  10
123.13992
  20
314.69142
  0
SEQEND
  0
POLYLINE
  5
ec
  8
Layer_1
  62
3
  66
1
  10
0
  20
0
  30
0
  0
VERTEX
  5
ec
  8
Layer_1
  10
125.47177
  20
316.35513
  0
VERTEX
  5
ed
  8
Layer_1
  10
125.4361
  20
316.33443
  42
-0.041921313
  0
VERTEX
  5
ee
  8
Layer_1
  10
125.08398
  20
316.16482
  0
VERTEX
  5
ef
  8
Layer_1
  10
125.08398
  20
316.52089
  0
VERTEX
  5
f0
  8
Layer_1
  10
125.13494
  20
316.54553
  42
0.067156251
  0
VERTEX
  5
f1
  8
Layer_1
  10
125.62423
  20
316.87287
  0
VERTEX
  5
f2
  8
Layer_1
  10
125.64326
  20
316.89008
  42
0.09261833
  0
VERTEX
  5
f3
  8
Layer_1
  10
125.95165
  20
317.27396
  0
VERTEX
  5
f4
  8
Layer_1
  10
126.18903
  20
317.27396
  0
VERTEX
  5
f5
  8
Layer_1
  10
126.18903
  20
314.26168
  0
VERTEX
  5
f6
  8
Layer_1
  10
125.82068
  20
314.26168
  0
VERTEX
  5
f7
  8
Layer_1
  10
125.82068
  20
316.60889
  0
VERTEX
  5
f8
  8
Layer_1
  10
125.79794
  20
316.58774
  42
-0.050622706
  0
VERTEX
  5
f9
  8
Layer_1
  10
125.47177
  20
316.35513
  0
SEQEND
  0
POLYLINE
  5
fb
  8
Layer_1
  62
3
  66
1
  10
0
  20
0
  30
0
  0
VERTEX
  5
fb
  8
Layer_1
  10
128.22314
  20
315.16209
  0
VERTEX
  5
fc
  8
Layer_1
  10
128.22314
  20
315.53249
  0
VERTEX
  5
fd
  8
Layer_1
  10
127.09148
  20
315.53249
  0
VERTEX
  5
fe
  8
Layer_1
  10
127.09148
  20
315.16209
  0
VERTEX
  5
ff
  8
Layer_1
  10
128.22314
  20
315.16209
  0
SEQEND
  0
POLYLINE
  5
101
  8
Layer_1
  62
3
  66
1
  10
0
  20
0
  30
0
  0
VERTEX
  5
101
  8
Layer_1
  10
129.19824
  20
316.35513
  0
VERTEX
  5
102
  8
Layer_1
  10
129.16257
  20
316.33443
  42
-0.041293881
  0
VERTEX
  5
103
  8
Layer_1
  10
128.81046
  20
316.16482
  0
VERTEX
  5
104
  8
Layer_1
  10
128.81046
  20
316.52089
  0
VERTEX
  5
105
  8
Layer_1
  10
128.86142
  20
316.54553
  42
0.067590564
  0
VERTEX
  5
106
  8
Layer_1
  10
129.35069
  20
316.87287
  0
VERTEX
  5
107
  8
Layer_1
  10
129.36972
  20
316.89008
  42
0.091341635
  0
VERTEX
  5
108
  8
Layer_1
  10
129.67812
  20
317.27396
  0
VERTEX
  5
109
  8
Layer_1
  10
129.9155
  20
317.27396
  0
VERTEX
  5
10a
  8
Layer_1
  10
129.9155
  20
314.26168
  0
VERTEX
  5
10b
  8
Layer_1
  10
129.54715
  20
314.26168
  0
VERTEX
  5
10c
  8
Layer_1
  10
129.54715
  20
316.60889
  0
VERTEX
  5
10d
  8
Layer_1
  10
129.5244
  20
316.58774
  42
-0.050409433
  0
VERTEX
  5
10e
  8
Layer_1
  10
129.19824
  20
316.35513
  0
SEQEND
  0
ENDSEC
  0
EOF
