  0
SECTION
  2
HEADER
  9
$ACADVER
  1
AC1009
  0
ENDSEC
  0
SECTION
  2
ENTITIES
  0
CIRCLE
  5
90
  8
Layer_0
  62
1
  10
205
  20
320
  30
0
  40
1.5
  0
CIRCLE
  5
90
  8
Layer_0
  62
1
  10
395
  20
320
  30
0
  40
1.5
  0
CIRCLE
  5
90
  8
Layer_0
  62
1
  10
205
  20
80
  30
0
  40
1.5
  0
CIRCLE
  5
90
  8
Layer_0
  62
1
  10
395
  20
80
  30
0
  40
1.5
  0
CIRCLE
  5
90
  8
Layer_0
  62
1
  10
300
  20
160
  30
0
  40
45.5
  0
CIRCLE
  5
90
  8
Layer_0
  62
1
  10
300
  20
215
  30
0
  40
1.5
  0
CIRCLE
  5
90
  8
Layer_0
  62
1
  10
252.36861
  20
187.5
  30
0
  40
1.5
  0
CIRCLE
  5
90
  8
Layer_0
  62
1
  10
252.36861
  20
132.5
  30
0
  40
1.5
  0
CIRCLE
  5
90
  8
Layer_0
  62
1
  10
300
  20
105
  30
0
  40
1.5
  0
CIRCLE
  5
90
  8
Layer_0
  62
1
  10
347.63141
  20
132.5
  30
0
  40
1.5
  0
CIRCLE
  5
90
  8
Layer_0
  62
1
  10
347.63141
  20
187.5
  30
0
  40
1.5
  0
CIRCLE
  5
90
  8
Layer_0
  62
1
  10
300
  20
279
  30
0
  40
8.1999998
  0
CIRCLE
  5
90
  8
Layer_0
  62
1
  10
284.5
  20
294.5
  30
0
  40
1.5
  0
CIRCLE
  5
90
  8
Layer_0
  62
1
  10
284.5
  20
263.5
  30
0
  40
1.5
  0
CIRCLE
  5
90
  8
Layer_0
  62
1
  10
315.5
  20
263.5
  30
0
  40
1.5
  0
CIRCLE
  5
90
  8
Layer_0
  62
1
  10
315.5
  20
294.5
  30
0
  40
1.5
  0
CIRCLE
  5
90
  8
Layer_0
  62
1
  10
240
  20
280
  30
0
  40
30
  0
POLYLINE
  5
90
  8
Layer_0
  62
1
  66
1
  10
0
  20
0
  30
0
  0
VERTEX
  5
90
  8
Layer_0
  10
400
  20
277.5
  0
VERTEX
  5
91
  8
Layer_0
  10
409
  20
277.5
  0
VERTEX
  5
92
  8
Layer_0
  10
409
  20
247.5
  0
VERTEX
  5
93
  8
Layer_0
  10
400
  20
247.5
  0
VERTEX
  5
94
  8
Layer_0
  10
400
  20
152.5
  0
VERTEX
  5
95
  8
Layer_0
  10
409
  20
152.5
  0
VERTEX
  5
96
  8
Layer_0
  10
409
  20
122.5
  0
VERTEX
  5
97
  8
Layer_0
  10
400
  20
122.5
  0
VERTEX
  5
98
  8
Layer_0
  10
400
  20
75
  0
VERTEX
  5
99
  8
Layer_0
  10
315
  20
75
  0
VERTEX
  5
9a
  8
Layer_0
  10
315
  20
66
  0
VERTEX
  5
9b
  8
Layer_0
  10
285
  20
66
  0
VERTEX
  5
9c
  8
Layer_0
  10
285
  20
75
  0
VERTEX
  5
9d
  8
Layer_0
  10
200
  20
75
  0
VERTEX
  5
9e
  8
Layer_0
  10
200
  20
122.5
  0
VERTEX
  5
9f
  8
Layer_0
  10
191
  20
122.5
  0
VERTEX
  5
a0
  8
Layer_0
  10
191
  20
152.5
  0
VERTEX
  5
a1
  8
Layer_0
  10
200
  20
152.5
  0
VERTEX
  5
a2
  8
Layer_0
  10
200
  20
247.5
  0
VERTEX
  5
a3
  8
Layer_0
  10
191
  20
247.5
  0
VERTEX
  5
a4
  8
Layer_0
  10
191
  20
277.5
  0
VERTEX
  5
a5
  8
Layer_0
  10
200
  20
277.5
  0
VERTEX
  5
a6
  8
Layer_0
  10
200
  20
325
  0
VERTEX
  5
a7
  8
Layer_0
  10
285
  20
325
  0
VERTEX
  5
a8
  8
Layer_0
  10
285
  20
334
  0
VERTEX
  5
a9
  8
Layer_0
  10
315
  20
334
  0
VERTEX
  5
aa
  8
Layer_0
  10
315
  20
325
  0
VERTEX
  5
ab
  8
Layer_0
  10
400
  20
325
  0
VERTEX
  5
ac
  8
Layer_0
  10
400
  20
277.5
  0
SEQEND
  0
ENDSEC
  0
EOF
