0
SECTION
2
HEADER
9
$INSUNITS
70
4
9
$ACADVER
1
AC1014
9
$HANDSEED
5
FFFF
0
ENDSEC
0
SECTION
2
TABLES
0
TABLE
2
VPORT
5
8
100
AcDbSymbolTable
0
ENDTAB
0
TABLE
2
LTYPE
5
5
100
AcDbSymbolTable
0
LTYPE
5
14
100
AcDbSymbolTableRecord
100
AcDbLinetypeTableRecord
2
BYBLOCK
70
0
0
LTYPE
5
15
100
AcDbSymbolTableRecord
100
AcDbLinetypeTableRecord
2
BYLAYER
70
0
0
ENDTAB
0
TABLE
2
LAYER
5
2
100
AcDbSymbolTable
70
2
0
LAYER
5
50
100
AcDbSymbolTableRecord
100
AcDbLayerTableRecord
2
0
70
0
6
CONTINUOUS
0
ENDTAB
0
TABLE
2
STYLE
5
3
100
AcDbSymbolTable
70
1
0
STYLE
5
11
100
AcDbSymbolTableRecord
100
AcDbTextStyleTableRecord
2
STANDARD
70
0
0
ENDTAB
0
TABLE
2
VIEW
5
6
100
AcDbSymbolTable
70
0
0
ENDTAB
0
TABLE
2
UCS
5
7
100
AcDbSymbolTable
70
0
0
ENDTAB
0
TABLE
2
APPID
5
9
100
AcDbSymbolTable
70
2
0
APPID
5
12
100
AcDbSymbolTableRecord
100
AcDbRegAppTableRecord
2
ACAD
70
0
0
ENDTAB
0
TABLE
2
DIMSTYLE
5
A
100
AcDbSymbolTable
70
1
0
ENDTAB
0
TABLE
2
BLOCK_RECORD
5
1
100
AcDbSymbolTable
70
1
0
BLOCK_RECORD
5
1F
100
AcDbSymbolTableRecord
100
AcDbBlockTableRecord
2
*MODEL_SPACE
0
BLOCK_RECORD
5
1B
100
AcDbSymbolTableRecord
100
AcDbBlockTableRecord
2
*PAPER_SPACE
0
ENDTAB
0
ENDSEC
0
SECTION
2
BLOCKS
0
BLOCK
5
20
100
AcDbEntity
100
AcDbBlockBegin
2
*MODEL_SPACE
0
ENDBLK
5
21
100
AcDbEntity
100
AcDbBlockEnd
0
BLOCK
5
1C
100
AcDbEntity
100
AcDbBlockBegin
2
*PAPER_SPACE
0
ENDBLK
5
1D
100
AcDbEntity
100
AcDbBlockEnd
0
ENDSEC
0
SECTION
2
ENTITIES
0
LWPOLYLINE
5
100
100
AcDbEntity
8
0
100
AcDbPolyline
90
4
70
1
43
0.0
10
34
20
76.5
10
184
20
76.5
10
184
20
21.5
10
34
20
21.5
0
LWPOLYLINE
5
101
100
AcDbEntity
8
0
100
AcDbPolyline
90
4
70
1
43
0.0
10
0
20
98
10
218
20
98
10
218
20
-8.8817841970012523e-15
10
0
20
0
0
CIRCLE
5
102
100
AcDbEntity
8
0
100
AcDbCircle
10
14.000000000000004
20
84
30
0
40
1.5000000000000002
210
0
220
0
230
1
0
CIRCLE
5
103
100
AcDbEntity
8
0
100
AcDbCircle
10
14.000000000000004
20
14.000000000000004
30
0
40
1.5000000000000002
210
0
220
0
230
1
0
CIRCLE
5
104
100
AcDbEntity
8
0
100
AcDbCircle
10
204
20
84
30
0
40
1.5000000000000002
210
0
220
0
230
1
0
CIRCLE
5
105
100
AcDbEntity
8
0
100
AcDbCircle
10
204
20
14.000000000000004
30
0
40
1.5000000000000002
210
0
220
0
230
1
0
CIRCLE
5
106
100
AcDbEntity
8
0
100
AcDbCircle
10
47
20
34.5
30
0
40
8.5
210
0
220
0
230
1
0
CIRCLE
5
107
100
AcDbEntity
8
0
100
AcDbCircle
10
71.799999999999997
20
34.5
30
0
40
8.5
210
0
220
0
230
1
0
CIRCLE
5
108
100
AcDbEntity
8
0
100
AcDbCircle
10
96.599999999999994
20
34.5
30
0
40
8.5
210
0
220
0
230
1
0
CIRCLE
5
109
100
AcDbEntity
8
0
100
AcDbCircle
10
121.40000000000001
20
34.5
30
0
40
8.5
210
0
220
0
230
1
0
CIRCLE
5
110
100
AcDbEntity
8
0
100
AcDbCircle
10
146.20000000000002
20
34.5
30
0
40
8.5
210
0
220
0
230
1
0
CIRCLE
5
111
100
AcDbEntity
8
0
100
AcDbCircle
10
171
20
34.5
30
0
40
8.5
210
0
220
0
230
1
0
CIRCLE
5
112
100
AcDbEntity
8
0
100
AcDbCircle
10
121.40000000000001
20
60.500000000000007
30
0
40
8.5
210
0
220
0
230
1
0
CIRCLE
5
113
100
AcDbEntity
8
0
100
AcDbCircle
10
96.599999999999994
20
60.500000000000007
30
0
40
8.5
210
0
220
0
230
1
0
CIRCLE
5
114
100
AcDbEntity
8
0
100
AcDbCircle
10
71.799999999999997
20
60.500000000000007
30
0
40
8.5
210
0
220
0
230
1
0
LWPOLYLINE
5
115
100
AcDbEntity
8
0
100
AcDbPolyline
90
4
70
1
43
0.0
10
43.014989690020336
20
13.113787949929813
10
53.332359694227272
20
13.113787949929813
10
53.332359694227272
20
23.431157954136758
10
43.014989690020336
20
23.431157954136758
0
LWPOLYLINE
5
116
100
AcDbEntity
8
0
100
AcDbPolyline
90
4
70
1
43
0.0
10
67.77540670722064
20
12.911102012840068
10
78.092776711427547
20
12.911102012840068
10
78.092776711427547
20
23.228472017047004
10
67.77540670722064
20
23.228472017047004
0
LWPOLYLINE
5
117
100
AcDbEntity
8
0
100
AcDbPolyline
90
4
70
1
43
0.0
10
92.716945524290367
20
12.352640829909834
10
103.0343155284973
20
12.352640829909834
10
103.0343155284973
20
22.670010834116784
10
92.716945524290367
20
22.670010834116784
0
LWPOLYLINE
5
118
100
AcDbEntity
8
0
100
AcDbPolyline
90
4
70
1
43
0.0
10
117.2169455242904
20
12.352640829909834
10
127.53431552849732
20
12.352640829909834
10
127.53431552849732
20
22.670010834116784
10
117.2169455242904
20
22.670010834116784
0
LWPOLYLINE
5
119
100
AcDbEntity
8
0
100
AcDbPolyline
90
4
70
1
43
0.0
10
142.81694552429036
20
12.352640829909834
10
153.13431552849732
20
12.352640829909834
10
153.13431552849732
20
22.670010834116784
10
142.81694552429036
20
22.670010834116784
0
LWPOLYLINE
5
120
100
AcDbEntity
8
0
100
AcDbPolyline
90
4
70
1
43
0.0
10
167.81694552429042
20
12.352640829909834
10
178.13431552849735
20
12.352640829909834
10
178.13431552849735
20
22.670010834116784
10
167.81694552429042
20
22.670010834116784
0
LWPOLYLINE
5
121
100
AcDbEntity
8
0
100
AcDbPolyline
90
4
70
1
43
0.0
10
65.490239425021144
20
39.537203795634035
10
84.392798015270571
20
39.735834058419172
10
84.28578379219698
20
49.91979391063289
10
65.383225201947511
20
49.721163647847746
0
LWPOLYLINE
5
122
100
AcDbEntity
8
0
100
AcDbPolyline
90
4
70
1
43
0.0
10
91.959370674850121
20
39.819904736447384
10
110.86166366843383
20
40.010865460936827
10
110.75877268415229
20
50.195554152749722
10
91.856479690568577
20
50.004593428260272
0
LWPOLYLINE
5
123
100
AcDbEntity
8
0
100
AcDbPolyline
90
4
70
1
43
0.0
10
116.3733170591606
20
40.151511096857256
10
135.27587564941004
20
40.350141359642386
10
135.16886142633643
20
50.534101211856097
10
116.26630283608692
20
50.33547094907096
0
CIRCLE
5
124
100
AcDbEntity
8
0
100
AcDbCircle
10
47
20
60.500000000000007
30
0
40
8.5
210
0
220
0
230
1
0
LWPOLYLINE
5
125
100
AcDbEntity
8
0
100
AcDbPolyline
90
4
70
1
43
0.0
10
41.146571602377833
20
39.547866254076538
10
60.068255971485712
20
39.808415038911271
10
59.928531419147021
20
49.955550745715236
10
41.006847050039141
20
49.695001960880504
0
LWPOLYLINE
5
126
100
AcDbEntity
8
0
100
AcDbPolyline
90
4
70
1
43
0.0
10
26.866755790138722
20
80.960789490799698
10
50.808978641110087
20
80.960789490799684
10
50.808978641110095
20
91.615078659481952
10
26.866755790138722
20
91.615078659481952
0
CIRCLE
5
127
100
AcDbEntity
8
0
100
AcDbCircle
10
158.60000000000002
20
60.499999999999986
30
0
40
10.000000000000004
210
0
220
0
230
1
0
LINE
5
128
100
AcDbEntity
8
0
100
AcDbLine
10
43.028632261886848
20
19.849984534184365
30
0
11
43.625494380578054
21
19.931840188900857
31
0
0
SPLINE
5
129
100
AcDbEntity
8
0
100
AcDbSpline
70
0
71
2
72
6
73
3
74
0
42
0.000000001
43
0.0000000001
44
0.0000000001
40
0
40
0
40
0
40
1
40
1
40
1
10
43.625494380578054
20
19.931840188900857
30
0
10
43.649368946537031
20
19.358852394024758
30
0
10
43.840364803656591
20
19.147392399708657
30
0
0
SPLINE
5
130
100
AcDbEntity
8
0
100
AcDbSpline
70
0
71
2
72
6
73
3
74
0
42
0.000000001
43
0.0000000001
44
0.0000000001
40
0
40
0
40
0
40
1
40
1
40
1
10
43.840364803656591
20
19.147392399708657
30
0
10
44.031360735281957
20
18.935933001439004
30
0
10
44.369014044388784
20
18.935933001439004
30
0
0
SPLINE
5
131
100
AcDbEntity
8
0
100
AcDbSpline
70
0
71
2
72
6
73
3
74
0
42
0.000000001
43
0.0000000001
44
0.0000000001
40
0
40
0
40
0
40
1
40
1
40
1
10
44.369014044388784
20
18.935933001439004
30
0
10
44.617990841254247
20
18.935933001439004
30
0
10
44.798754890545858
20
19.05018914500895
30
0
0
SPLINE
5
132
100
AcDbEntity
8
0
100
AcDbSpline
70
0
71
2
72
6
73
3
74
0
42
0.000000001
43
0.0000000001
44
0.0000000001
40
0
40
0
40
0
40
1
40
1
40
1
10
44.798754890545858
20
19.05018914500895
30
0
10
44.979518790825857
20
19.164445884625344
30
0
10
45.047731687411321
20
19.360557682911782
30
0
0
SPLINE
5
133
100
AcDbEntity
8
0
100
AcDbSpline
70
0
71
2
72
6
73
3
74
0
42
0.000000001
43
0.0000000001
44
0.0000000001
40
0
40
0
40
0
40
1
40
1
40
1
10
45.047731687411321
20
19.360557682911782
30
0
10
45.115944434985174
20
19.55666948119822
30
0
10
45.115944434985174
20
19.986410327355294
30
0
0
LINE
5
134
100
AcDbEntity
8
0
100
AcDbLine
10
45.115944434985174
20
19.986410327355294
30
0
11
45.115944434985174
21
23.431157954136758
31
0
0
LINE
5
135
100
AcDbEntity
8
0
100
AcDbLine
10
45.115944434985174
20
23.431157954136758
30
0
11
45.77760904012586
21
23.431157954136758
31
0
0
LINE
5
136
100
AcDbEntity
8
0
100
AcDbLine
10
45.77760904012586
20
23.431157954136758
30
0
11
45.77760904012586
21
20.023927278916268
31
0
0
SPLINE
5
137
100
AcDbEntity
8
0
100
AcDbSpline
70
0
71
2
72
6
73
3
74
0
42
0.000000001
43
0.0000000001
44
0.0000000001
40
0
40
0
40
0
40
1
40
1
40
1
10
45.77760904012586
20
20.023927278916268
30
0
10
45.77760904012586
20
19.396369345585732
30
0
10
45.625835348948492
20
19.051894433895974
30
0
0
SPLINE
5
138
100
AcDbEntity
8
0
100
AcDbSpline
70
0
71
2
72
6
73
3
74
0
42
0.000000001
43
0.0000000001
44
0.0000000001
40
0
40
0
40
0
40
1
40
1
40
1
10
45.625835348948492
20
19.051894433895974
30
0
10
45.474061955794348
20
18.707420118252664
30
0
10
45.144934942111028
20
18.526655919949441
30
0
0
SPLINE
5
139
100
AcDbEntity
8
0
100
AcDbSpline
70
0
71
2
72
6
73
3
74
0
42
0.000000001
43
0.0000000001
44
0.0000000001
40
0
40
0
40
0
40
1
40
1
40
1
10
45.144934942111028
20
18.526655919949441
30
0
10
44.815808077439321
20
18.345891721646218
30
0
10
44.372424771174444
20
18.345891721646218
30
0
0
SPLINE
5
140
100
AcDbEntity
8
0
100
AcDbSpline
70
0
71
2
72
6
73
3
74
0
42
0.000000001
43
0.0000000001
44
0.0000000001
40
0
40
0
40
0
40
1
40
1
40
1
10
44.372424771174444
20
18.345891721646218
30
0
10
43.714171116336836
20
18.345891721646218
30
0
10
43.364580412491812
20
18.724473007122903
30
0
0
SPLINE
5
141
100
AcDbEntity
8
0
100
AcDbSpline
70
0
71
2
72
6
73
3
74
0
42
0.000000001
43
0.0000000001
44
0.0000000001
40
0
40
0
40
0
40
1
40
1
40
1
10
43.364580412491812
20
18.724473007122903
30
0
10
43.014989690020336
20
19.103054292599587
30
0
10
43.028632261886848
20
19.849984534184365
30
0
0
LINE
5
142
100
AcDbEntity
8
0
100
AcDbLine
10
48.922220160349859
20
18.431157954136758
30
0
11
48.308304836138738
21
18.431157954136758
31
0
0
LINE
5
143
100
AcDbEntity
8
0
100
AcDbLine
10
48.308304836138738
20
18.431157954136758
30
0
11
48.308304836138738
21
22.34316337863627
31
0
0
SPLINE
5
144
100
AcDbEntity
8
0
100
AcDbSpline
70
0
71
2
72
6
73
3
74
0
42
0.000000001
43
0.0000000001
44
0.0000000001
40
0
40
0
40
0
40
1
40
1
40
1
10
48.308304836138738
20
22.34316337863627
30
0
10
48.086613108500494
20
22.131703682343392
30
0
10
47.72679059682752
20
21.920243986050515
30
0
0
SPLINE
5
145
100
AcDbEntity
8
0
100
AcDbSpline
70
0
71
2
72
6
73
3
74
0
42
0.000000001
43
0.0000000001
44
0.0000000001
40
0
40
0
40
0
40
1
40
1
40
1
10
47.72679059682752
20
21.920243986050515
30
0
10
47.366968085154546
20
21.708784289757638
30
0
10
47.080474187716497
20
21.603054292599587
30
0
0
LINE
5
146
100
AcDbEntity
8
0
100
AcDbLine
10
47.080474187716497
20
21.603054292599587
30
0
11
47.080474187716497
21
22.196505852143197
31
0
0
SPLINE
5
147
100
AcDbEntity
8
0
100
AcDbSpline
70
0
71
2
72
6
73
3
74
0
42
0.000000001
43
0.0000000001
44
0.0000000001
40
0
40
0
40
0
40
1
40
1
40
1
10
47.080474187716497
20
22.196505852143197
30
0
10
47.595480968340887
20
22.438661344448953
30
0
10
47.980883409365667
20
22.783136256138711
30
0
0
SPLINE
5
148
100
AcDbEntity
8
0
100
AcDbSpline
70
0
71
2
72
6
73
3
74
0
42
0.000000001
43
0.0000000001
44
0.0000000001
40
0
40
0
40
0
40
1
40
1
40
1
10
47.980883409365667
20
22.783136256138711
30
0
10
48.366285850390447
20
23.127610869805245
30
0
10
48.526585986002935
20
23.451622016827493
30
0
0
LINE
5
149
100
AcDbEntity
8
0
100
AcDbLine
10
48.526585986002935
20
23.451622016827493
30
0
11
48.922220160349859
21
23.451622016827493
31
0
0
LINE
5
150
100
AcDbEntity
8
0
100
AcDbLine
10
48.922220160349859
20
23.451622016827493
30
0
11
48.922220160349859
21
18.431157954136758
31
0
0
LINE
5
151
100
AcDbEntity
8
0
100
AcDbLine
10
67.789049279087152
20
19.647298597094611
30
0
11
68.385911397778358
21
19.729154251811103
31
0
0
SPLINE
5
152
100
AcDbEntity
8
0
100
AcDbSpline
70
0
71
2
72
6
73
3
74
0
42
0.000000001
43
0.0000000001
44
0.0000000001
40
0
40
0
40
0
40
1
40
1
40
1
10
68.385911397778358
20
19.729154251811103
30
0
10
68.409785963737335
20
19.156166456935004
30
0
10
68.600781820856895
20
18.944706462618903
30
0
0
SPLINE
5
153
100
AcDbEntity
8
0
100
AcDbSpline
70
0
71
2
72
6
73
3
74
0
42
0.000000001
43
0.0000000001
44
0.0000000001
40
0
40
0
40
0
40
1
40
1
40
1
10
68.600781820856895
20
18.944706462618903
30
0
10
68.791777752482261
20
18.73324706434925
30
0
10
69.129431061589088
20
18.73324706434925
30
0
0
SPLINE
5
154
100
AcDbEntity
8
0
100
AcDbSpline
70
0
71
2
72
6
73
3
74
0
42
0.000000001
43
0.0000000001
44
0.0000000001
40
0
40
0
40
0
40
1
40
1
40
1
10
69.129431061589088
20
18.73324706434925
30
0
10
69.378407858454551
20
18.73324706434925
30
0
10
69.559171907746162
20
18.847503207919196
30
0
0
SPLINE
5
155
100
AcDbEntity
8
0
100
AcDbSpline
70
0
71
2
72
6
73
3
74
0
42
0.000000001
43
0.0000000001
44
0.0000000001
40
0
40
0
40
0
40
1
40
1
40
1
10
69.559171907746162
20
18.847503207919196
30
0
10
69.739935808026161
20
18.96175994753559
30
0
10
69.808148704611625
20
19.157871745822028
30
0
0
SPLINE
5
156
100
AcDbEntity
8
0
100
AcDbSpline
70
0
71
2
72
6
73
3
74
0
42
0.000000001
43
0.0000000001
44
0.0000000001
40
0
40
0
40
0
40
1
40
1
40
1
10
69.808148704611625
20
19.157871745822028
30
0
10
69.876361452185478
20
19.353983544108466
30
0
10
69.876361452185478
20
19.78372439026554
30
0
0
LINE
5
157
100
AcDbEntity
8
0
100
AcDbLine
10
69.876361452185478
20
19.78372439026554
30
0
11
69.876361452185478
21
23.228472017047004
31
0
0
LINE
5
158
100
AcDbEntity
8
0
100
AcDbLine
10
69.876361452185478
20
23.228472017047004
30
0
11
70.538026057326164
21
23.228472017047004
31
0
0
LINE
5
159
100
AcDbEntity
8
0
100
AcDbLine
10
70.538026057326164
20
23.228472017047004
30
0
11
70.538026057326164
21
19.821241341826514
31
0
0
SPLINE
5
160
100
AcDbEntity
8
0
100
AcDbSpline
70
0
71
2
72
6
73
3
74
0
42
0.000000001
43
0.0000000001
44
0.0000000001
40
0
40
0
40
0
40
1
40
1
40
1
10
70.538026057326164
20
19.821241341826514
30
0
10
70.538026057326164
20
19.193683408495978
30
0
10
70.386252366148796
20
18.84920849680622
30
0
0
SPLINE
5
161
100
AcDbEntity
8
0
100
AcDbSpline
70
0
71
2
72
6
73
3
74
0
42
0.000000001
43
0.0000000001
44
0.0000000001
40
0
40
0
40
0
40
1
40
1
40
1
10
70.386252366148796
20
18.84920849680622
30
0
10
70.234478972994651
20
18.50473418116291
30
0
10
69.905351959311332
20
18.323969982859687
30
0
0
SPLINE
5
162
100
AcDbEntity
8
0
100
AcDbSpline
70
0
71
2
72
6
73
3
74
0
42
0.000000001
43
0.0000000001
44
0.0000000001
40
0
40
0
40
0
40
1
40
1
40
1
10
69.905351959311332
20
18.323969982859687
30
0
10
69.576225094639625
20
18.143205784556464
30
0
10
69.132841788374748
20
18.143205784556464
30
0
0
SPLINE
5
163
100
AcDbEntity
8
0
100
AcDbSpline
70
0
71
2
72
6
73
3
74
0
42
0.000000001
43
0.0000000001
44
0.0000000001
40
0
40
0
40
0
40
1
40
1
40
1
10
69.132841788374748
20
18.143205784556464
30
0
10
68.474588133537139
20
18.143205784556464
30
0
10
68.124997429692115
20
18.521787070033149
30
0
0
SPLINE
5
164
100
AcDbEntity
8
0
100
AcDbSpline
70
0
71
2
72
6
73
3
74
0
42
0.000000001
43
0.0000000001
44
0.0000000001
40
0
40
0
40
0
40
1
40
1
40
1
10
68.124997429692115
20
18.521787070033149
30
0
10
67.77540670722064
20
18.900368355509833
30
0
10
67.789049279087152
20
19.647298597094611
30
0
0
LINE
5
165
100
AcDbEntity
8
0
100
AcDbLine
10
74.596689306341972
20
18.818512700793342
30
0
11
74.596689306341972
21
18.228472017047004
31
0
0
LINE
5
166
100
AcDbEntity
8
0
100
AcDbLine
10
74.596689306341972
20
18.228472017047004
30
0
11
71.291777752482261
21
18.228472017047004
31
0
0
SPLINE
5
167
100
AcDbEntity
8
0
100
AcDbSpline
70
0
71
2
72
6
73
3
74
0
42
0.000000001
43
0.0000000001
44
0.0000000001
40
0
40
0
40
0
40
1
40
1
40
1
10
71.291777752482261
20
18.228472017047004
30
0
10
71.284956596934165
20
18.450163744685248
30
0
10
71.363401375853385
20
18.654801987406806
30
0
0
SPLINE
5
168
100
AcDbEntity
8
0
100
AcDbSpline
70
0
71
2
72
6
73
3
74
0
42
0.000000001
43
0.0000000001
44
0.0000000001
40
0
40
0
40
0
40
1
40
1
40
1
10
71.363401375853385
20
18.654801987406806
30
0
10
71.489595137678947
20
18.992455743548469
30
0
10
71.767562292658653
20
19.31987717032154
30
0
0
SPLINE
5
169
100
AcDbEntity
8
0
100
AcDbSpline
70
0
71
2
72
6
73
3
74
0
42
0.000000001
43
0.0000000001
44
0.0000000001
40
0
40
0
40
0
40
1
40
1
40
1
10
71.767562292658653
20
19.31987717032154
30
0
10
72.045529447638359
20
19.647298597094611
30
0
10
72.570768557631339
20
20.077039741274909
30
0
0
SPLINE
5
170
100
AcDbEntity
8
0
100
AcDbSpline
70
0
71
2
72
6
73
3
74
0
42
0.000000001
43
0.0000000001
44
0.0000000001
40
0
40
0
40
0
40
1
40
1
40
1
10
72.570768557631339
20
20.077039741274909
30
0
10
73.38591154678997
20
20.745525203940467
30
0
10
73.672405444228019
20
21.136043511626319
30
0
0
SPLINE
5
171
100
AcDbEntity
8
0
100
AcDbSpline
70
0
71
2
72
6
73
3
74
0
42
0.000000001
43
0.0000000001
44
0.0000000001
40
0
40
0
40
0
40
1
40
1
40
1
10
73.672405444228019
20
21.136043511626319
30
0
10
73.958899341666068
20
21.526562117335395
30
0
10
73.958899341666068
20
21.874447606799201
30
0
0
SPLINE
5
172
100
AcDbEntity
8
0
100
AcDbSpline
70
0
71
2
72
6
73
3
74
0
42
0.000000001
43
0.0000000001
44
0.0000000001
40
0
40
0
40
0
40
1
40
1
40
1
10
73.958899341666068
20
21.874447606799201
30
0
10
73.958899341666068
20
22.239385985133246
30
0
10
73.697985373579826
20
22.490068219897346
30
0
0
SPLINE
5
173
100
AcDbEntity
8
0
100
AcDbSpline
70
0
71
2
72
6
73
3
74
0
42
0.000000001
43
0.0000000001
44
0.0000000001
40
0
40
0
40
0
40
1
40
1
40
1
10
73.697985373579826
20
22.490068219897346
30
0
10
73.437071405493583
20
22.740750454661445
30
0
10
73.017562590681877
20
22.740750454661445
30
0
0
SPLINE
5
174
100
AcDbEntity
8
0
100
AcDbSpline
70
0
71
2
72
6
73
3
74
0
42
0.000000001
43
0.0000000001
44
0.0000000001
40
0
40
0
40
0
40
1
40
1
40
1
10
73.017562590681877
20
22.740750454661445
30
0
10
72.574179135405387
20
22.740750454661445
30
0
10
72.308149002634849
20
22.474720321890906
30
0
0
SPLINE
5
175
100
AcDbEntity
8
0
100
AcDbSpline
70
0
71
2
72
6
73
3
74
0
42
0.000000001
43
0.0000000001
44
0.0000000001
40
0
40
0
40
0
40
1
40
1
40
1
10
72.308149002634849
20
22.474720321890906
30
0
10
72.042118869864311
20
22.208690189120368
30
0
10
72.038708292090263
20
21.738021813628272
30
0
0
LINE
5
176
100
AcDbEntity
8
0
100
AcDbLine
10
72.038708292090263
20
21.738021813628272
30
0
11
71.407739780985679
21
21.802823983428077
31
0
0
SPLINE
5
177
100
AcDbEntity
8
0
100
AcDbSpline
70
0
71
2
72
6
73
3
74
0
42
0.000000001
43
0.0000000001
44
0.0000000001
40
0
40
0
40
0
40
1
40
1
40
1
10
71.407739780985679
20
21.802823983428077
30
0
10
71.472541950785484
20
22.508826695677833
30
0
10
71.895461343371238
20
22.878881238696174
30
0
0
SPLINE
5
178
100
AcDbEntity
8
0
100
AcDbSpline
70
0
71
2
72
6
73
3
74
0
42
0.000000001
43
0.0000000001
44
0.0000000001
40
0
40
0
40
0
40
1
40
1
40
1
10
71.895461343371238
20
22.878881238696174
30
0
10
72.318381033980216
20
23.248936079737739
30
0
10
73.031204901778068
20
23.248936079737739
30
0
0
SPLINE
5
179
100
AcDbEntity
8
0
100
AcDbSpline
70
0
71
2
72
6
73
3
74
0
42
0.000000001
43
0.0000000001
44
0.0000000001
40
0
40
0
40
0
40
1
40
1
40
1
10
73.031204901778068
20
23.248936079737739
30
0
10
73.750849925124015
20
23.248936079737739
30
0
10
74.17035933598217
20
22.849890731570319
30
0
0
SPLINE
5
180
100
AcDbEntity
8
0
100
AcDbSpline
70
0
71
2
72
6
73
3
74
0
42
0.000000001
43
0.0000000001
44
0.0000000001
40
0
40
0
40
0
40
1
40
1
40
1
10
74.17035933598217
20
22.849890731570319
30
0
10
74.589867554747428
20
22.450845979449348
30
0
10
74.589867554747428
20
21.860804997679786
30
0
0
SPLINE
5
181
100
AcDbEntity
8
0
100
AcDbSpline
70
0
71
2
72
6
73
3
74
0
42
0.000000001
43
0.0000000001
44
0.0000000001
40
0
40
0
40
0
40
1
40
1
40
1
10
74.589867554747428
20
21.860804997679786
30
0
10
74.589867554747428
20
21.560668491122321
30
0
10
74.467084966742362
20
21.270764015910224
30
0
0
SPLINE
5
182
100
AcDbEntity
8
0
100
AcDbSpline
70
0
71
2
72
6
73
3
74
0
42
0.000000001
43
0.0000000001
44
0.0000000001
40
0
40
0
40
0
40
1
40
1
40
1
10
74.467084966742362
20
21.270764015910224
30
0
10
74.344301782690849
20
20.980859540698127
30
0
10
74.059513174139823
20
20.660259269473151
30
0
0
SPLINE
5
183
100
AcDbEntity
8
0
100
AcDbSpline
70
0
71
2
72
6
73
3
74
0
42
0.000000001
43
0.0000000001
44
0.0000000001
40
0
40
0
40
0
40
1
40
1
40
1
10
74.059513174139823
20
20.660259269473151
30
0
10
73.774724565588798
20
20.339658998248176
30
0
10
73.113059960448112
20
19.780313812491492
30
0
0
SPLINE
5
184
100
AcDbEntity
8
0
100
AcDbSpline
70
0
71
2
72
6
73
3
74
0
42
0.000000001
43
0.0000000001
44
0.0000000001
40
0
40
0
40
0
40
1
40
1
40
1
10
73.113059960448112
20
19.780313812491492
30
0
10
72.560536228262748
20
19.316466592547492
30
0
10
72.403646968447532
20
19.151050590273933
30
0
0
SPLINE
5
185
100
AcDbEntity
8
0
100
AcDbSpline
70
0
71
2
72
6
73
3
74
0
42
0.000000001
43
0.0000000001
44
0.0000000001
40
0
40
0
40
0
40
1
40
1
40
1
10
72.403646968447532
20
19.151050590273933
30
0
10
72.246757410609092
20
18.985634588000373
30
0
10
72.144438289248313
20
18.818512700793342
30
0
0
LINE
5
186
100
AcDbEntity
8
0
100
AcDbLine
10
72.144438289248313
20
18.818512700793342
30
0
11
74.596689306341972
21
18.818512700793342
31
0
0
LINE
5
187
100
AcDbEntity
8
0
100
AcDbLine
10
92.730588096156879
20
19.088837414164392
30
0
11
93.327450214848085
21
19.170693068880883
31
0
0
SPLINE
5
188
100
AcDbEntity
8
0
100
AcDbSpline
70
0
71
2
72
6
73
3
74
0
42
0.000000001
43
0.0000000001
44
0.0000000001
40
0
40
0
40
0
40
1
40
1
40
1
10
93.327450214848085
20
19.170693068880883
30
0
10
93.351324780807062
20
18.597705274004785
30
0
10
93.542320637926622
20
18.386245279688683
30
0
0
SPLINE
5
189
100
AcDbEntity
8
0
100
AcDbSpline
70
0
71
2
72
6
73
3
74
0
42
0.000000001
43
0.0000000001
44
0.0000000001
40
0
40
0
40
0
40
1
40
1
40
1
10
93.542320637926622
20
18.386245279688683
30
0
10
93.733316569551988
20
18.17478588141903
30
0
10
94.070969878658815
20
18.17478588141903
30
0
0
SPLINE
5
190
100
AcDbEntity
8
0
100
AcDbSpline
70
0
71
2
72
6
73
3
74
0
42
0.000000001
43
0.0000000001
44
0.0000000001
40
0
40
0
40
0
40
1
40
1
40
1
10
94.070969878658815
20
18.17478588141903
30
0
10
94.319946675524278
20
18.17478588141903
30
0
10
94.500710724815889
20
18.289042024988976
30
0
0
SPLINE
5
191
100
AcDbEntity
8
0
100
AcDbSpline
70
0
71
2
72
6
73
3
74
0
42
0.000000001
43
0.0000000001
44
0.0000000001
40
0
40
0
40
0
40
1
40
1
40
1
10
94.500710724815889
20
18.289042024988976
30
0
10
94.681474625095888
20
18.403298764605371
30
0
10
94.749687521681352
20
18.599410562891808
30
0
0
SPLINE
5
192
100
AcDbEntity
8
0
100
AcDbSpline
70
0
71
2
72
6
73
3
74
0
42
0.000000001
43
0.0000000001
44
0.0000000001
40
0
40
0
40
0
40
1
40
1
40
1
10
94.749687521681352
20
18.599410562891808
30
0
10
94.817900269255205
20
18.795522361178246
30
0
10
94.817900269255205
20
19.22526320733532
30
0
0
LINE
5
193
100
AcDbEntity
8
0
100
AcDbLine
10
94.817900269255205
20
19.22526320733532
30
0
11
94.817900269255205
21
22.670010834116784
31
0
0
LINE
5
194
100
AcDbEntity
8
0
100
AcDbLine
10
94.817900269255205
20
22.670010834116784
30
0
11
95.479564874395891
21
22.670010834116784
31
0
0
LINE
5
195
100
AcDbEntity
8
0
100
AcDbLine
10
95.479564874395891
20
22.670010834116784
30
0
11
95.479564874395891
21
19.262780158896295
31
0
0
SPLINE
5
196
100
AcDbEntity
8
0
100
AcDbSpline
70
0
71
2
72
6
73
3
74
0
42
0.000000001
43
0.0000000001
44
0.0000000001
40
0
40
0
40
0
40
1
40
1
40
1
10
95.479564874395891
20
19.262780158896295
30
0
10
95.479564874395891
20
18.635222225565759
30
0
10
95.327791183218523
20
18.290747313876
30
0
0
SPLINE
5
197
100
AcDbEntity
8
0
100
AcDbSpline
70
0
71
2
72
6
73
3
74
0
42
0.000000001
43
0.0000000001
44
0.0000000001
40
0
40
0
40
0
40
1
40
1
40
1
10
95.327791183218523
20
18.290747313876
30
0
10
95.176017790064378
20
17.94627299823269
30
0
10
94.846890776381059
20
17.765508799929467
30
0
0
SPLINE
5
198
100
AcDbEntity
8
0
100
AcDbSpline
70
0
71
2
72
6
73
3
74
0
42
0.000000001
43
0.0000000001
44
0.0000000001
40
0
40
0
40
0
40
1
40
1
40
1
10
94.846890776381059
20
17.765508799929467
30
0
10
94.517763911709352
20
17.584744601626245
30
0
10
94.074380605444475
20
17.584744601626245
30
0
0
SPLINE
5
199
100
AcDbEntity
8
0
100
AcDbSpline
70
0
71
2
72
6
73
3
74
0
42
0.000000001
43
0.0000000001
44
0.0000000001
40
0
40
0
40
0
40
1
40
1
40
1
10
94.074380605444475
20
17.584744601626245
30
0
10
93.416126950606866
20
17.584744601626245
30
0
10
93.066536246761842
20
17.963325887102929
30
0
0
SPLINE
5
200
100
AcDbEntity
8
0
100
AcDbSpline
70
0
71
2
72
6
73
3
74
0
42
0.000000001
43
0.0000000001
44
0.0000000001
40
0
40
0
40
0
40
1
40
1
40
1
10
93.066536246761842
20
17.963325887102929
30
0
10
92.716945524290367
20
18.341907172579614
30
0
10
92.730588096156879
20
19.088837414164392
30
0
0
LINE
5
201
100
AcDbEntity
8
0
100
AcDbLine
10
96.315171926245256
20
18.989928870577661
30
0
11
96.929087250456377
21
19.071784227270928
31
0
0
SPLINE
5
202
100
AcDbEntity
8
0
100
AcDbSpline
70
0
71
2
72
6
73
3
74
0
42
0.000000001
43
0.0000000001
44
0.0000000001
40
0
40
0
40
0
40
1
40
1
40
1
10
96.929087250456377
20
19.071784227270928
30
0
10
97.034817247614427
20
18.549955993075219
30
0
10
97.288910060152574
20
18.319737821001855
30
0
0
SPLINE
5
203
100
AcDbEntity
8
0
100
AcDbSpline
70
0
71
2
72
6
73
3
74
0
42
0.000000001
43
0.0000000001
44
0.0000000001
40
0
40
0
40
0
40
1
40
1
40
1
10
97.288910060152574
20
18.319737821001855
30
0
10
97.543002574667497
20
18.089519648928491
30
0
10
97.90794154904799
20
18.089519648928491
30
0
0
SPLINE
5
204
100
AcDbEntity
8
0
100
AcDbSpline
70
0
71
2
72
6
73
3
74
0
42
0.000000001
43
0.0000000001
44
0.0000000001
40
0
40
0
40
0
40
1
40
1
40
1
10
97.90794154904799
20
18.089519648928491
30
0
10
98.341092674955888
20
18.089519648928491
30
0
10
98.639524190649553
20
18.389655857462731
30
0
0
SPLINE
5
205
100
AcDbEntity
8
0
100
AcDbSpline
70
0
71
2
72
6
73
3
74
0
42
0.000000001
43
0.0000000001
44
0.0000000001
40
0
40
0
40
0
40
1
40
1
40
1
10
98.639524190649553
20
18.389655857462731
30
0
10
98.93795511029677
20
18.68979266204342
30
0
10
98.93795511029677
20
19.133175819296685
30
0
0
SPLINE
5
206
100
AcDbEntity
8
0
100
AcDbSpline
70
0
71
2
72
6
73
3
74
0
42
0.000000001
43
0.0000000001
44
0.0000000001
40
0
40
0
40
0
40
1
40
1
40
1
10
98.93795511029677
20
19.133175819296685
30
0
10
98.93795511029677
20
19.55609521188244
30
0
10
98.661692946180864
20
19.830651789088098
30
0
0
SPLINE
5
207
100
AcDbEntity
8
0
100
AcDbSpline
70
0
71
2
72
6
73
3
74
0
42
0.000000001
43
0.0000000001
44
0.0000000001
40
0
40
0
40
0
40
1
40
1
40
1
10
98.661692946180864
20
19.830651789088098
30
0
10
98.385430782064958
20
20.105208664316979
30
0
10
97.959100811705156
20
20.105208664316979
30
0
0
SPLINE
5
208
100
AcDbEntity
8
0
100
AcDbSpline
70
0
71
2
72
6
73
3
74
0
42
0.000000001
43
0.0000000001
44
0.0000000001
40
0
40
0
40
0
40
1
40
1
40
1
10
97.959100811705156
20
20.105208664316979
30
0
10
97.785158364996477
20
20.105208664316979
30
0
10
97.525949685797258
20
20.036995618719903
30
0
0
LINE
5
209
100
AcDbEntity
8
0
100
AcDbLine
10
97.525949685797258
20
20.036995618719903
30
0
11
97.59416243337111
21
20.575876741785851
31
0
0
SPLINE
5
210
100
AcDbEntity
8
0
100
AcDbSpline
70
0
71
2
72
6
73
3
74
0
42
0.000000001
43
0.0000000001
44
0.0000000001
40
0
40
0
40
0
40
1
40
1
40
1
10
97.59416243337111
20
20.575876741785851
30
0
10
97.655554025396867
20
20.569055586237756
30
0
10
97.693070976957841
20
20.569055586237756
30
0
0
SPLINE
5
211
100
AcDbEntity
8
0
100
AcDbSpline
70
0
71
2
72
6
73
3
74
0
42
0.000000001
43
0.0000000001
44
0.0000000001
40
0
40
0
40
0
40
1
40
1
40
1
10
97.693070976957841
20
20.569055586237756
30
0
10
98.085294573530717
20
20.569055586237756
30
0
10
98.399073689207597
20
20.773693828959313
30
0
0
SPLINE
5
212
100
AcDbEntity
8
0
100
AcDbSpline
70
0
71
2
72
6
73
3
74
0
42
0.000000001
43
0.0000000001
44
0.0000000001
40
0
40
0
40
0
40
1
40
1
40
1
10
98.399073689207597
20
20.773693828959313
30
0
10
98.712852804884477
20
20.978332369704095
30
0
10
98.712852804884477
20
21.404662638087121
30
0
0
SPLINE
5
213
100
AcDbEntity
8
0
100
AcDbSpline
70
0
71
2
72
6
73
3
74
0
42
0.000000001
43
0.0000000001
44
0.0000000001
40
0
40
0
40
0
40
1
40
1
40
1
10
98.712852804884477
20
21.404662638087121
30
0
10
98.712852804884477
20
21.74231609620556
30
0
10
98.484339921698137
20
21.96400752582058
30
0
0
SPLINE
5
214
100
AcDbEntity
8
0
100
AcDbSpline
70
0
71
2
72
6
73
3
74
0
42
0.000000001
43
0.0000000001
44
0.0000000001
40
0
40
0
40
0
40
1
40
1
40
1
10
98.484339921698137
20
21.96400752582058
30
0
10
98.255826442465349
20
22.185699253458825
30
0
10
97.894298641905351
20
22.185699253458825
30
0
0
SPLINE
5
215
100
AcDbEntity
8
0
100
AcDbSpline
70
0
71
2
72
6
73
3
74
0
42
0.000000001
43
0.0000000001
44
0.0000000001
40
0
40
0
40
0
40
1
40
1
40
1
10
97.894298641905351
20
22.185699253458825
30
0
10
97.536181419119401
20
22.185699253458825
30
0
10
97.297436504587694
20
21.960596948046533
30
0
0
SPLINE
5
216
100
AcDbEntity
8
0
100
AcDbSpline
70
0
71
2
72
6
73
3
74
0
42
0.000000001
43
0.0000000001
44
0.0000000001
40
0
40
0
40
0
40
1
40
1
40
1
10
97.297436504587694
20
21.960596948046533
30
0
10
97.058691590055986
20
21.73549464263424
30
0
10
96.990478842482133
20
21.285290031809655
30
0
0
LINE
5
217
100
AcDbEntity
8
0
100
AcDbLine
10
96.990478842482133
20
21.285290031809655
30
0
11
96.376563518271013
21
21.394430606741754
31
0
0
SPLINE
5
218
100
AcDbEntity
8
0
100
AcDbSpline
70
0
71
2
72
6
73
3
74
0
42
0.000000001
43
0.0000000001
44
0.0000000001
40
0
40
0
40
0
40
1
40
1
40
1
10
96.376563518271013
20
21.394430606741754
30
0
10
96.489114670977159
20
22.011756508726922
30
0
10
96.888159721121355
20
22.351115255732385
30
0
0
SPLINE
5
219
100
AcDbEntity
8
0
100
AcDbSpline
70
0
71
2
72
6
73
3
74
0
42
0.000000001
43
0.0000000001
44
0.0000000001
40
0
40
0
40
0
40
1
40
1
40
1
10
96.888159721121355
20
22.351115255732385
30
0
10
97.28720477126555
20
22.690474300761071
30
0
10
97.88065633080916
20
22.690474300761071
30
0
0
SPLINE
5
220
100
AcDbEntity
8
0
100
AcDbSpline
70
0
71
2
72
6
73
3
74
0
42
0.000000001
43
0.0000000001
44
0.0000000001
40
0
40
0
40
0
40
1
40
1
40
1
10
97.88065633080916
20
22.690474300761071
30
0
10
98.289933412298723
20
22.690474300761071
30
0
10
98.634407727942033
20
22.514826267142144
30
0
0
SPLINE
5
221
100
AcDbEntity
8
0
100
AcDbSpline
70
0
71
2
72
6
73
3
74
0
42
0.000000001
43
0.0000000001
44
0.0000000001
40
0
40
0
40
0
40
1
40
1
40
1
10
98.634407727942033
20
22.514826267142144
30
0
10
98.978882639631792
20
22.339178233523217
30
0
10
99.161352126822038
20
22.035631149191705
30
0
0
SPLINE
5
222
100
AcDbEntity
8
0
100
AcDbSpline
70
0
71
2
72
6
73
3
74
0
42
0.000000001
43
0.0000000001
44
0.0000000001
40
0
40
0
40
0
40
1
40
1
40
1
10
99.161352126822038
20
22.035631149191705
30
0
10
99.343821017965837
20
21.732084064860192
30
0
10
99.343821017965837
20
21.391020028967706
30
0
0
SPLINE
5
223
100
AcDbEntity
8
0
100
AcDbSpline
70
0
71
2
72
6
73
3
74
0
42
0.000000001
43
0.0000000001
44
0.0000000001
40
0
40
0
40
0
40
1
40
1
40
1
10
99.343821017965837
20
21.391020028967706
30
0
10
99.343821017965837
20
21.067009179968682
30
0
10
99.169878571257158
20
20.800979047198144
30
0
0
SPLINE
5
224
100
AcDbEntity
8
0
100
AcDbSpline
70
0
71
2
72
6
73
3
74
0
42
0.000000001
43
0.0000000001
44
0.0000000001
40
0
40
0
40
0
40
1
40
1
40
1
10
99.169878571257158
20
20.800979047198144
30
0
10
98.995936124548479
20
20.534949212450829
30
0
10
98.654871790632768
20
20.37805965461239
30
0
0
SPLINE
5
225
100
AcDbEntity
8
0
100
AcDbSpline
70
0
71
2
72
6
73
3
74
0
42
0.000000001
43
0.0000000001
44
0.0000000001
40
0
40
0
40
0
40
1
40
1
40
1
10
98.654871790632768
20
20.37805965461239
30
0
10
99.098255245909257
20
20.275740235228387
30
0
10
99.343821017965837
20
19.953434973139611
30
0
0
SPLINE
5
226
100
AcDbEntity
8
0
100
AcDbSpline
70
0
71
2
72
6
73
3
74
0
42
0.000000001
43
0.0000000001
44
0.0000000001
40
0
40
0
40
0
40
1
40
1
40
1
10
99.343821017965837
20
19.953434973139611
30
0
10
99.589387386068864
20
19.631129413027612
30
0
10
99.589387386068864
20
19.1468184284161
30
0
0
SPLINE
5
227
100
AcDbEntity
8
0
100
AcDbSpline
70
0
71
2
72
6
73
3
74
0
42
0.000000001
43
0.0000000001
44
0.0000000001
40
0
40
0
40
0
40
1
40
1
40
1
10
99.589387386068864
20
19.1468184284161
30
0
10
99.589387386068864
20
18.49197497882351
30
0
10
99.111898153051897
20
18.036654501337853
30
0
0
SPLINE
5
228
100
AcDbEntity
8
0
100
AcDbSpline
70
0
71
2
72
6
73
3
74
0
42
0.000000001
43
0.0000000001
44
0.0000000001
40
0
40
0
40
0
40
1
40
1
40
1
10
99.111898153051897
20
18.036654501337853
30
0
10
98.634407727942033
20
17.581334023852197
30
0
10
97.904530971273942
20
17.581334023852197
30
0
0
SPLINE
5
229
100
AcDbEntity
8
0
100
AcDbSpline
70
0
71
2
72
6
73
3
74
0
42
0.000000001
43
0.0000000001
44
0.0000000001
40
0
40
0
40
0
40
1
40
1
40
1
10
97.904530971273942
20
17.581334023852197
30
0
10
97.246276943907304
20
17.581334023852197
30
0
10
96.811420231089159
20
17.973557620425073
30
0
0
SPLINE
5
230
100
AcDbEntity
8
0
100
AcDbSpline
70
0
71
2
72
6
73
3
74
0
42
0.000000001
43
0.0000000001
44
0.0000000001
40
0
40
0
40
0
40
1
40
1
40
1
10
96.811420231089159
20
17.973557620425073
30
0
10
96.376563518271013
20
18.365781813044396
30
0
10
96.315171926245256
20
18.989928870577661
30
0
0
LINE
5
231
100
AcDbEntity
8
0
100
AcDbLine
10
117.23058809615691
20
19.088837414164392
30
0
11
117.82745021484811
21
19.170693068880883
31
0
0
SPLINE
5
232
100
AcDbEntity
8
0
100
AcDbSpline
70
0
71
2
72
6
73
3
74
0
42
0.000000001
43
0.0000000001
44
0.0000000001
40
0
40
0
40
0
40
1
40
1
40
1
10
117.82745021484811
20
19.170693068880883
30
0
10
117.85132478080709
20
18.597705274004785
30
0
10
118.04232063792665
20
18.386245279688683
30
0
0
SPLINE
5
233
100
AcDbEntity
8
0
100
AcDbSpline
70
0
71
2
72
6
73
3
74
0
42
0.000000001
43
0.0000000001
44
0.0000000001
40
0
40
0
40
0
40
1
40
1
40
1
10
118.04232063792665
20
18.386245279688683
30
0
10
118.23331656955202
20
18.17478588141903
30
0
10
118.57096987865884
20
18.17478588141903
30
0
0
SPLINE
5
234
100
AcDbEntity
8
0
100
AcDbSpline
70
0
71
2
72
6
73
3
74
0
42
0.000000001
43
0.0000000001
44
0.0000000001
40
0
40
0
40
0
40
1
40
1
40
1
10
118.57096987865884
20
18.17478588141903
30
0
10
118.81994667552431
20
18.17478588141903
30
0
10
119.00071072481592
20
18.289042024988976
30
0
0
SPLINE
5
235
100
AcDbEntity
8
0
100
AcDbSpline
70
0
71
2
72
6
73
3
74
0
42
0.000000001
43
0.0000000001
44
0.0000000001
40
0
40
0
40
0
40
1
40
1
40
1
10
119.00071072481592
20
18.289042024988976
30
0
10
119.18147462509592
20
18.403298764605371
30
0
10
119.24968752168138
20
18.599410562891808
30
0
0
SPLINE
5
236
100
AcDbEntity
8
0
100
AcDbSpline
70
0
71
2
72
6
73
3
74
0
42
0.000000001
43
0.0000000001
44
0.0000000001
40
0
40
0
40
0
40
1
40
1
40
1
10
119.24968752168138
20
18.599410562891808
30
0
10
119.31790026925523
20
18.795522361178246
30
0
10
119.31790026925523
20
19.22526320733532
30
0
0
LINE
5
237
100
AcDbEntity
8
0
100
AcDbLine
10
119.31790026925523
20
19.22526320733532
30
0
11
119.31790026925523
21
22.670010834116784
31
0
0
LINE
5
238
100
AcDbEntity
8
0
100
AcDbLine
10
119.31790026925523
20
22.670010834116784
30
0
11
119.97956487439592
21
22.670010834116784
31
0
0
LINE
5
239
100
AcDbEntity
8
0
100
AcDbLine
10
119.97956487439592
20
22.670010834116784
30
0
11
119.97956487439592
21
19.262780158896295
31
0
0
SPLINE
5
240
100
AcDbEntity
8
0
100
AcDbSpline
70
0
71
2
72
6
73
3
74
0
42
0.000000001
43
0.0000000001
44
0.0000000001
40
0
40
0
40
0
40
1
40
1
40
1
10
119.97956487439592
20
19.262780158896295
30
0
10
119.97956487439592
20
18.635222225565759
30
0
10
119.82779118321855
20
18.290747313876
30
0
0
SPLINE
5
241
100
AcDbEntity
8
0
100
AcDbSpline
70
0
71
2
72
6
73
3
74
0
42
0.000000001
43
0.0000000001
44
0.0000000001
40
0
40
0
40
0
40
1
40
1
40
1
10
119.82779118321855
20
18.290747313876
30
0
10
119.67601779006441
20
17.94627299823269
30
0
10
119.34689077638109
20
17.765508799929467
30
0
0
SPLINE
5
242
100
AcDbEntity
8
0
100
AcDbSpline
70
0
71
2
72
6
73
3
74
0
42
0.000000001
43
0.0000000001
44
0.0000000001
40
0
40
0
40
0
40
1
40
1
40
1
10
119.34689077638109
20
17.765508799929467
30
0
10
119.01776391170938
20
17.584744601626245
30
0
10
118.5743806054445
20
17.584744601626245
30
0
0
SPLINE
5
243
100
AcDbEntity
8
0
100
AcDbSpline
70
0
71
2
72
6
73
3
74
0
42
0.000000001
43
0.0000000001
44
0.0000000001
40
0
40
0
40
0
40
1
40
1
40
1
10
118.5743806054445
20
17.584744601626245
30
0
10
117.91612695060689
20
17.584744601626245
30
0
10
117.56653624676187
20
17.963325887102929
30
0
0
SPLINE
5
244
100
AcDbEntity
8
0
100
AcDbSpline
70
0
71
2
72
6
73
3
74
0
42
0.000000001
43
0.0000000001
44
0.0000000001
40
0
40
0
40
0
40
1
40
1
40
1
10
117.56653624676187
20
17.963325887102929
30
0
10
117.2169455242904
20
18.341907172579614
30
0
10
117.23058809615691
20
19.088837414164392
30
0
0
LINE
5
245
100
AcDbEntity
8
0
100
AcDbLine
10
122.77970167897661
20
17.670010834116784
30
0
11
122.77970167897661
21
18.867145686526147
31
0
0
LINE
5
246
100
AcDbEntity
8
0
100
AcDbLine
10
122.77970167897661
20
18.867145686526147
30
0
11
120.61053368352373
21
18.867145686526147
31
0
0
LINE
5
247
100
AcDbEntity
8
0
100
AcDbLine
10
120.61053368352373
20
18.867145686526147
30
0
11
120.61053368352373
21
19.429901748080102
31
0
0
LINE
5
248
100
AcDbEntity
8
0
100
AcDbLine
10
120.61053368352373
20
19.429901748080102
30
0
11
122.89225253365953
21
22.670010834116784
31
0
0
LINE
5
249
100
AcDbEntity
8
0
100
AcDbLine
10
122.89225253365953
20
22.670010834116784
30
0
11
123.39361700318773
21
22.670010834116784
31
0
0
LINE
5
250
100
AcDbEntity
8
0
100
AcDbLine
10
123.39361700318773
20
22.670010834116784
30
0
11
123.39361700318773
21
19.429901748080102
31
0
0
LINE
5
251
100
AcDbEntity
8
0
100
AcDbLine
10
123.39361700318773
20
19.429901748080102
30
0
11
124.06892391942461
21
19.429901748080102
31
0
0
LINE
5
252
100
AcDbEntity
8
0
100
AcDbLine
10
124.06892391942461
20
19.429901748080102
30
0
11
124.06892391942461
21
18.867145686526147
31
0
0
LINE
5
253
100
AcDbEntity
8
0
100
AcDbLine
10
124.06892391942461
20
18.867145686526147
30
0
11
123.39361700318773
21
18.867145686526147
31
0
0
LINE
5
254
100
AcDbEntity
8
0
100
AcDbLine
10
123.39361700318773
20
18.867145686526147
30
0
11
123.39361700318773
21
17.670010834116784
31
0
0
LINE
5
255
100
AcDbEntity
8
0
100
AcDbLine
10
123.39361700318773
20
17.670010834116784
30
0
11
122.77970167897661
21
17.670010834116784
31
0
0
LINE
5
256
100
AcDbEntity
8
0
100
AcDbLine
10
122.77970167897661
20
19.429901748080102
30
0
11
122.77970167897661
21
21.684335678000298
31
0
0
LINE
5
257
100
AcDbEntity
8
0
100
AcDbLine
10
122.77970167897661
20
21.684335678000298
30
0
11
121.2142172744127
21
19.429901748080102
31
0
0
LINE
5
258
100
AcDbEntity
8
0
100
AcDbLine
10
121.2142172744127
20
19.429901748080102
30
0
11
122.77970167897661
21
19.429901748080102
31
0
0
LINE
5
259
100
AcDbEntity
8
0
100
AcDbLine
10
142.83058809615687
20
19.088837414164392
30
0
11
143.42745021484808
21
19.170693068880883
31
0
0
SPLINE
5
260
100
AcDbEntity
8
0
100
AcDbSpline
70
0
71
2
72
6
73
3
74
0
42
0.000000001
43
0.0000000001
44
0.0000000001
40
0
40
0
40
0
40
1
40
1
40
1
10
143.42745021484808
20
19.170693068880883
30
0
10
143.45132478080706
20
18.597705274004785
30
0
10
143.64232063792662
20
18.386245279688683
30
0
0
SPLINE
5
261
100
AcDbEntity
8
0
100
AcDbSpline
70
0
71
2
72
6
73
3
74
0
42
0.000000001
43
0.0000000001
44
0.0000000001
40
0
40
0
40
0
40
1
40
1
40
1
10
143.64232063792662
20
18.386245279688683
30
0
10
143.83331656955198
20
18.17478588141903
30
0
10
144.17096987865881
20
18.17478588141903
30
0
0
SPLINE
5
262
100
AcDbEntity
8
0
100
AcDbSpline
70
0
71
2
72
6
73
3
74
0
42
0.000000001
43
0.0000000001
44
0.0000000001
40
0
40
0
40
0
40
1
40
1
40
1
10
144.17096987865881
20
18.17478588141903
30
0
10
144.41994667552427
20
18.17478588141903
30
0
10
144.60071072481588
20
18.289042024988976
30
0
0
SPLINE
5
263
100
AcDbEntity
8
0
100
AcDbSpline
70
0
71
2
72
6
73
3
74
0
42
0.000000001
43
0.0000000001
44
0.0000000001
40
0
40
0
40
0
40
1
40
1
40
1
10
144.60071072481588
20
18.289042024988976
30
0
10
144.78147462509588
20
18.403298764605371
30
0
10
144.84968752168135
20
18.599410562891808
30
0
0
SPLINE
5
264
100
AcDbEntity
8
0
100
AcDbSpline
70
0
71
2
72
6
73
3
74
0
42
0.000000001
43
0.0000000001
44
0.0000000001
40
0
40
0
40
0
40
1
40
1
40
1
10
144.84968752168135
20
18.599410562891808
30
0
10
144.9179002692552
20
18.795522361178246
30
0
10
144.9179002692552
20
19.22526320733532
30
0
0
LINE
5
265
100
AcDbEntity
8
0
100
AcDbLine
10
144.9179002692552
20
19.22526320733532
30
0
11
144.9179002692552
21
22.670010834116784
31
0
0
LINE
5
266
100
AcDbEntity
8
0
100
AcDbLine
10
144.9179002692552
20
22.670010834116784
30
0
11
145.57956487439588
21
22.670010834116784
31
0
0
LINE
5
267
100
AcDbEntity
8
0
100
AcDbLine
10
145.57956487439588
20
22.670010834116784
30
0
11
145.57956487439588
21
19.262780158896295
31
0
0
SPLINE
5
268
100
AcDbEntity
8
0
100
AcDbSpline
70
0
71
2
72
6
73
3
74
0
42
0.000000001
43
0.0000000001
44
0.0000000001
40
0
40
0
40
0
40
1
40
1
40
1
10
145.57956487439588
20
19.262780158896295
30
0
10
145.57956487439588
20
18.635222225565759
30
0
10
145.42779118321852
20
18.290747313876
30
0
0
SPLINE
5
269
100
AcDbEntity
8
0
100
AcDbSpline
70
0
71
2
72
6
73
3
74
0
42
0.000000001
43
0.0000000001
44
0.0000000001
40
0
40
0
40
0
40
1
40
1
40
1
10
145.42779118321852
20
18.290747313876
30
0
10
145.27601779006437
20
17.94627299823269
30
0
10
144.94689077638105
20
17.765508799929467
30
0
0
SPLINE
5
270
100
AcDbEntity
8
0
100
AcDbSpline
70
0
71
2
72
6
73
3
74
0
42
0.000000001
43
0.0000000001
44
0.0000000001
40
0
40
0
40
0
40
1
40
1
40
1
10
144.94689077638105
20
17.765508799929467
30
0
10
144.61776391170935
20
17.584744601626245
30
0
10
144.17438060544447
20
17.584744601626245
30
0
0
SPLINE
5
271
100
AcDbEntity
8
0
100
AcDbSpline
70
0
71
2
72
6
73
3
74
0
42
0.000000001
43
0.0000000001
44
0.0000000001
40
0
40
0
40
0
40
1
40
1
40
1
10
144.17438060544447
20
17.584744601626245
30
0
10
143.51612695060686
20
17.584744601626245
30
0
10
143.16653624676184
20
17.963325887102929
30
0
0
SPLINE
5
272
100
AcDbEntity
8
0
100
AcDbSpline
70
0
71
2
72
6
73
3
74
0
42
0.000000001
43
0.0000000001
44
0.0000000001
40
0
40
0
40
0
40
1
40
1
40
1
10
143.16653624676184
20
17.963325887102929
30
0
10
142.81694552429036
20
18.341907172579614
30
0
10
142.83058809615687
20
19.088837414164392
30
0
0
LINE
5
273
100
AcDbEntity
8
0
100
AcDbLine
10
146.4117613484712
20
18.979697137255517
30
0
11
147.0563724686952
21
19.034267573733178
31
0
0
SPLINE
5
274
100
AcDbEntity
8
0
100
AcDbSpline
70
0
71
2
72
6
73
3
74
0
42
0.000000001
43
0.0000000001
44
0.0000000001
40
0
40
0
40
0
40
1
40
1
40
1
10
147.0563724686952
20
19.034267573733178
30
0
10
147.12799609206633
20
18.563598900217858
30
0
10
147.38891006015257
20
18.326559572596398
30
0
0
SPLINE
5
275
100
AcDbEntity
8
0
100
AcDbSpline
70
0
71
2
72
6
73
3
74
0
42
0.000000001
43
0.0000000001
44
0.0000000001
40
0
40
0
40
0
40
1
40
1
40
1
10
147.38891006015257
20
18.326559572596398
30
0
10
147.64982432626203
20
18.089519648928491
30
0
10
148.01817328237013
20
18.089519648928491
30
0
0
SPLINE
5
276
100
AcDbEntity
8
0
100
AcDbSpline
70
0
71
2
72
6
73
3
74
0
42
0.000000001
43
0.0000000001
44
0.0000000001
40
0
40
0
40
0
40
1
40
1
40
1
10
148.01817328237013
20
18.089519648928491
30
0
10
148.46155673764662
20
18.089519648928491
30
0
10
148.7685146977754
20
18.423762827296105
30
0
0
SPLINE
5
277
100
AcDbEntity
8
0
100
AcDbSpline
70
0
71
2
72
6
73
3
74
0
42
0.000000001
43
0.0000000001
44
0.0000000001
40
0
40
0
40
0
40
1
40
1
40
1
10
148.7685146977754
20
18.423762827296105
30
0
10
149.07547206185774
20
18.758005409617272
30
0
10
149.07547206185774
20
19.310529141802636
30
0
0
SPLINE
5
278
100
AcDbEntity
8
0
100
AcDbSpline
70
0
71
2
72
6
73
3
74
0
42
0.000000001
43
0.0000000001
44
0.0000000001
40
0
40
0
40
0
40
1
40
1
40
1
10
149.07547206185774
20
19.310529141802636
30
0
10
149.07547206185774
20
19.835768251795617
30
0
10
148.78045171998457
20
20.139315038103906
30
0
0
SPLINE
5
279
100
AcDbEntity
8
0
100
AcDbSpline
70
0
71
2
72
6
73
3
74
0
42
0.000000001
43
0.0000000001
44
0.0000000001
40
0
40
0
40
0
40
1
40
1
40
1
10
148.78045171998457
20
20.139315038103906
30
0
10
148.4854313781114
20
20.442862420458642
30
0
10
148.00794154904798
20
20.442862420458642
30
0
0
SPLINE
5
280
100
AcDbEntity
8
0
100
AcDbSpline
70
0
71
2
72
6
73
3
74
0
42
0.000000001
43
0.0000000001
44
0.0000000001
40
0
40
0
40
0
40
1
40
1
40
1
10
148.00794154904798
20
20.442862420458642
30
0
10
147.71121532224134
20
20.442862420458642
30
0
10
147.47247070573286
20
20.308142214197961
30
0
0
SPLINE
5
281
100
AcDbEntity
8
0
100
AcDbSpline
70
0
71
2
72
6
73
3
74
0
42
0.000000001
43
0.0000000001
44
0.0000000001
40
0
40
0
40
0
40
1
40
1
40
1
10
147.47247070573286
20
20.308142214197961
30
0
10
147.23372579120115
20
20.173421709914056
30
0
10
147.09730029605345
20
19.958551435847131
30
0
0
LINE
5
282
100
AcDbEntity
8
0
100
AcDbLine
10
147.09730029605345
20
19.958551435847131
30
0
11
146.5209019234033
21
20.033585338969079
31
0
0
LINE
5
283
100
AcDbEntity
8
0
100
AcDbLine
10
146.5209019234033
20
20.033585338969079
30
0
11
147.00521290801481
21
22.601798384566155
31
0
0
LINE
5
284
100
AcDbEntity
8
0
100
AcDbLine
10
147.00521290801481
20
22.601798384566155
30
0
11
149.4915702988954
21
22.601798384566155
31
0
0
LINE
5
285
100
AcDbEntity
8
0
100
AcDbLine
10
149.4915702988954
20
22.601798384566155
30
0
11
149.4915702988954
21
22.015168278593865
31
0
0
LINE
5
286
100
AcDbEntity
8
0
100
AcDbLine
10
149.4915702988954
20
22.015168278593865
30
0
11
147.49634534619764
21
22.015168278593865
31
0
0
LINE
5
287
100
AcDbEntity
8
0
100
AcDbLine
10
147.49634534619764
20
22.015168278593865
30
0
11
147.22690463565306
21
20.671375601668206
31
0
0
SPLINE
5
288
100
AcDbEntity
8
0
100
AcDbSpline
70
0
71
2
72
6
73
3
74
0
42
0.000000001
43
0.0000000001
44
0.0000000001
40
0
40
0
40
0
40
1
40
1
40
1
10
147.22690463565306
20
20.671375601668206
30
0
10
147.67710954450087
20
20.985154419321862
30
0
10
148.17165226243452
20
20.985154419321862
30
0
0
SPLINE
5
289
100
AcDbEntity
8
0
100
AcDbSpline
70
0
71
2
72
6
73
3
74
0
42
0.000000001
43
0.0000000001
44
0.0000000001
40
0
40
0
40
0
40
1
40
1
40
1
10
148.17165226243452
20
20.985154419321862
30
0
10
148.82649511598066
20
20.985154419321862
30
0
10
149.2767003228517
20
20.531539230723229
30
0
0
SPLINE
5
290
100
AcDbEntity
8
0
100
AcDbSpline
70
0
71
2
72
6
73
3
74
0
42
0.000000001
43
0.0000000001
44
0.0000000001
40
0
40
0
40
0
40
1
40
1
40
1
10
149.2767003228517
20
20.531539230723229
30
0
10
149.72690493367628
20
20.077923744101373
30
0
10
149.72690493367628
20
19.365099578280297
30
0
0
SPLINE
5
291
100
AcDbEntity
8
0
100
AcDbSpline
70
0
71
2
72
6
73
3
74
0
42
0.000000001
43
0.0000000001
44
0.0000000001
40
0
40
0
40
0
40
1
40
1
40
1
10
149.72690493367628
20
19.365099578280297
30
0
10
149.72690493367628
20
18.686382084269372
30
0
10
149.33127016328291
20
18.191838770289269
30
0
0
SPLINE
5
292
100
AcDbEntity
8
0
100
AcDbSpline
70
0
71
2
72
6
73
3
74
0
42
0.000000001
43
0.0000000001
44
0.0000000001
40
0
40
0
40
0
40
1
40
1
40
1
10
149.33127016328291
20
18.191838770289269
30
0
10
148.85036975644545
20
17.584744601626245
30
0
10
148.01817328237013
20
17.584744601626245
30
0
0
SPLINE
5
293
100
AcDbEntity
8
0
100
AcDbSpline
70
0
71
2
72
6
73
3
74
0
42
0.000000001
43
0.0000000001
44
0.0000000001
40
0
40
0
40
0
40
1
40
1
40
1
10
148.01817328237013
20
17.584744601626245
30
0
10
147.33604521058516
20
17.584744601626245
30
0
10
146.90459907554106
20
17.966736464876977
30
0
0
SPLINE
5
294
100
AcDbEntity
8
0
100
AcDbSpline
70
0
71
2
72
6
73
3
74
0
42
0.000000001
43
0.0000000001
44
0.0000000001
40
0
40
0
40
0
40
1
40
1
40
1
10
146.90459907554106
20
17.966736464876977
30
0
10
146.47315294049696
20
18.348728328127709
30
0
10
146.4117613484712
20
18.979697137255517
30
0
0
LINE
5
295
100
AcDbEntity
8
0
100
AcDbLine
10
167.83058809615693
20
19.088837414164392
30
0
11
168.42745021484814
21
19.170693068880883
31
0
0
SPLINE
5
296
100
AcDbEntity
8
0
100
AcDbSpline
70
0
71
2
72
6
73
3
74
0
42
0.000000001
43
0.0000000001
44
0.0000000001
40
0
40
0
40
0
40
1
40
1
40
1
10
168.42745021484814
20
19.170693068880883
30
0
10
168.45132478080711
20
18.597705274004785
30
0
10
168.64232063792667
20
18.386245279688683
30
0
0
SPLINE
5
297
100
AcDbEntity
8
0
100
AcDbSpline
70
0
71
2
72
6
73
3
74
0
42
0.000000001
43
0.0000000001
44
0.0000000001
40
0
40
0
40
0
40
1
40
1
40
1
10
168.64232063792667
20
18.386245279688683
30
0
10
168.83331656955204
20
18.17478588141903
30
0
10
169.17096987865887
20
18.17478588141903
30
0
0
SPLINE
5
298
100
AcDbEntity
8
0
100
AcDbSpline
70
0
71
2
72
6
73
3
74
0
42
0.000000001
43
0.0000000001
44
0.0000000001
40
0
40
0
40
0
40
1
40
1
40
1
10
169.17096987865887
20
18.17478588141903
30
0
10
169.41994667552433
20
18.17478588141903
30
0
10
169.60071072481594
20
18.289042024988976
30
0
0
SPLINE
5
299
100
AcDbEntity
8
0
100
AcDbSpline
70
0
71
2
72
6
73
3
74
0
42
0.000000001
43
0.0000000001
44
0.0000000001
40
0
40
0
40
0
40
1
40
1
40
1
10
169.60071072481594
20
18.289042024988976
30
0
10
169.78147462509594
20
18.403298764605371
30
0
10
169.8496875216814
20
18.599410562891808
30
0
0
SPLINE
5
300
100
AcDbEntity
8
0
100
AcDbSpline
70
0
71
2
72
6
73
3
74
0
42
0.000000001
43
0.0000000001
44
0.0000000001
40
0
40
0
40
0
40
1
40
1
40
1
10
169.8496875216814
20
18.599410562891808
30
0
10
169.91790026925526
20
18.795522361178246
30
0
10
169.91790026925526
20
19.22526320733532
30
0
0
LINE
5
301
100
AcDbEntity
8
0
100
AcDbLine
10
169.91790026925526
20
19.22526320733532
30
0
11
169.91790026925526
21
22.670010834116784
31
0
0
LINE
5
302
100
AcDbEntity
8
0
100
AcDbLine
10
169.91790026925526
20
22.670010834116784
30
0
11
170.57956487439594
21
22.670010834116784
31
0
0
LINE
5
303
100
AcDbEntity
8
0
100
AcDbLine
10
170.57956487439594
20
22.670010834116784
30
0
11
170.57956487439594
21
19.262780158896295
31
0
0
SPLINE
5
304
100
AcDbEntity
8
0
100
AcDbSpline
70
0
71
2
72
6
73
3
74
0
42
0.000000001
43
0.0000000001
44
0.0000000001
40
0
40
0
40
0
40
1
40
1
40
1
10
170.57956487439594
20
19.262780158896295
30
0
10
170.57956487439594
20
18.635222225565759
30
0
10
170.42779118321857
20
18.290747313876
30
0
0
SPLINE
5
305
100
AcDbEntity
8
0
100
AcDbSpline
70
0
71
2
72
6
73
3
74
0
42
0.000000001
43
0.0000000001
44
0.0000000001
40
0
40
0
40
0
40
1
40
1
40
1
10
170.42779118321857
20
18.290747313876
30
0
10
170.27601779006443
20
17.94627299823269
30
0
10
169.94689077638111
20
17.765508799929467
30
0
0
SPLINE
5
306
100
AcDbEntity
8
0
100
AcDbSpline
70
0
71
2
72
6
73
3
74
0
42
0.000000001
43
0.0000000001
44
0.0000000001
40
0
40
0
40
0
40
1
40
1
40
1
10
169.94689077638111
20
17.765508799929467
30
0
10
169.6177639117094
20
17.584744601626245
30
0
10
169.17438060544453
20
17.584744601626245
30
0
0
SPLINE
5
307
100
AcDbEntity
8
0
100
AcDbSpline
70
0
71
2
72
6
73
3
74
0
42
0.000000001
43
0.0000000001
44
0.0000000001
40
0
40
0
40
0
40
1
40
1
40
1
10
169.17438060544453
20
17.584744601626245
30
0
10
168.51612695060692
20
17.584744601626245
30
0
10
168.16653624676189
20
17.963325887102929
30
0
0
SPLINE
5
308
100
AcDbEntity
8
0
100
AcDbSpline
70
0
71
2
72
6
73
3
74
0
42
0.000000001
43
0.0000000001
44
0.0000000001
40
0
40
0
40
0
40
1
40
1
40
1
10
168.16653624676189
20
17.963325887102929
30
0
10
167.81694552429042
20
18.341907172579614
30
0
10
167.83058809615693
20
19.088837414164392
30
0
0
LINE
5
309
100
AcDbEntity
8
0
100
AcDbLine
10
174.59730059407673
20
21.445590763468591
30
0
11
173.98679525159321
21
21.397841780562249
31
0
0
SPLINE
5
310
100
AcDbEntity
8
0
100
AcDbSpline
70
0
71
2
72
6
73
3
74
0
42
0.000000001
43
0.0000000001
44
0.0000000001
40
0
40
0
40
0
40
1
40
1
40
1
10
173.98679525159321
20
21.397841780562249
30
0
10
173.90494019292316
20
21.759369879145471
30
0
10
173.75487179063282
20
21.923080592532006
30
0
0
SPLINE
5
311
100
AcDbEntity
8
0
100
AcDbSpline
70
0
71
2
72
6
73
3
74
0
42
0.000000001
43
0.0000000001
44
0.0000000001
40
0
40
0
40
0
40
1
40
1
40
1
10
173.75487179063282
20
21.923080592532006
30
0
10
173.50589484475574
20
22.185699849505273
30
0
10
173.1409564664217
20
22.185699849505273
30
0
0
SPLINE
5
312
100
AcDbEntity
8
0
100
AcDbSpline
70
0
71
2
72
6
73
3
74
0
42
0.000000001
43
0.0000000001
44
0.0000000001
40
0
40
0
40
0
40
1
40
1
40
1
10
173.1409564664217
20
22.185699849505273
30
0
10
172.84764141343555
20
22.185699849505273
30
0
10
172.62594968579731
20
22.021989136118737
30
0
0
SPLINE
5
313
100
AcDbEntity
8
0
100
AcDbSpline
70
0
71
2
72
6
73
3
74
0
42
0.000000001
43
0.0000000001
44
0.0000000001
40
0
40
0
40
0
40
1
40
1
40
1
10
172.62594968579731
20
22.021989136118737
30
0
10
172.33604521058521
20
21.81052943982586
30
0
10
172.1689236214014
20
21.404662936110345
30
0
0
SPLINE
5
314
100
AcDbEntity
8
0
100
AcDbSpline
70
0
71
2
72
6
73
3
74
0
42
0.000000001
43
0.0000000001
44
0.0000000001
40
0
40
0
40
0
40
1
40
1
40
1
10
172.1689236214014
20
21.404662936110345
30
0
10
172.0018020322176
20
20.998796730418054
30
0
10
171.9949808766695
20
20.248455613036004
30
0
0
SPLINE
5
315
100
AcDbEntity
8
0
100
AcDbSpline
70
0
71
2
72
6
73
3
74
0
42
0.000000001
43
0.0000000001
44
0.0000000001
40
0
40
0
40
0
40
1
40
1
40
1
10
171.9949808766695
20
20.248455613036004
30
0
10
172.21667260430775
20
20.586109071154443
30
0
10
172.53727287553272
20
20.749820082564202
30
0
0
SPLINE
5
316
100
AcDbEntity
8
0
100
AcDbSpline
70
0
71
2
72
6
73
3
74
0
42
0.000000001
43
0.0000000001
44
0.0000000001
40
0
40
0
40
0
40
1
40
1
40
1
10
172.53727287553272
20
20.749820082564202
30
0
10
172.8578731467577
20
20.913530795950738
30
0
10
173.20916921399555
20
20.913530795950738
30
0
0
SPLINE
5
317
100
AcDbEntity
8
0
100
AcDbSpline
70
0
71
2
72
6
73
3
74
0
42
0.000000001
43
0.0000000001
44
0.0000000001
40
0
40
0
40
0
40
1
40
1
40
1
10
173.20916921399555
20
20.913530795950738
30
0
10
173.82308453820667
20
20.913530795950738
30
0
10
174.25453097127399
20
20.461620896239129
30
0
0
SPLINE
5
318
100
AcDbEntity
8
0
100
AcDbSpline
70
0
71
2
72
6
73
3
74
0
42
0.000000001
43
0.0000000001
44
0.0000000001
40
0
40
0
40
0
40
1
40
1
40
1
10
174.25453097127399
20
20.461620896239129
30
0
10
174.68597680829487
20
20.009710698504296
30
0
10
174.68597680829487
20
19.293475954909173
30
0
0
SPLINE
5
319
100
AcDbEntity
8
0
100
AcDbSpline
70
0
71
2
72
6
73
3
74
0
42
0.000000001
43
0.0000000001
44
0.0000000001
40
0
40
0
40
0
40
1
40
1
40
1
10
174.68597680829487
20
19.293475954909173
30
0
10
174.68597680829487
20
18.822807579417077
30
0
10
174.48304325841389
20
18.418646364588586
30
0
0
SPLINE
5
320
100
AcDbEntity
8
0
100
AcDbSpline
70
0
71
2
72
6
73
3
74
0
42
0.000000001
43
0.0000000001
44
0.0000000001
40
0
40
0
40
0
40
1
40
1
40
1
10
174.48304325841389
20
18.418646364588586
30
0
10
174.2801109006258
20
18.014485745806542
30
0
10
173.92540365956745
20
17.799615173716393
30
0
0
SPLINE
5
321
100
AcDbEntity
8
0
100
AcDbSpline
70
0
71
2
72
6
73
3
74
0
42
0.000000001
43
0.0000000001
44
0.0000000001
40
0
40
0
40
0
40
1
40
1
40
1
10
173.92540365956745
20
17.799615173716393
30
0
10
173.57069701455555
20
17.584744601626245
30
0
10
173.12049240373096
20
17.584744601626245
30
0
0
SPLINE
5
322
100
AcDbEntity
8
0
100
AcDbSpline
70
0
71
2
72
6
73
3
74
0
42
0.000000001
43
0.0000000001
44
0.0000000001
40
0
40
0
40
0
40
1
40
1
40
1
10
173.12049240373096
20
17.584744601626245
30
0
10
172.35309809945545
20
17.584744601626245
30
0
10
171.86878711484394
20
18.149205952067224
30
0
0
SPLINE
5
323
100
AcDbEntity
8
0
100
AcDbSpline
70
0
71
2
72
6
73
3
74
0
42
0.000000001
43
0.0000000001
44
0.0000000001
40
0
40
0
40
0
40
1
40
1
40
1
10
171.86878711484394
20
18.149205952067224
30
0
10
171.38447613023243
20
18.713667302508203
30
0
10
171.38447613023243
20
20.009710698504296
30
0
0
SPLINE
5
324
100
AcDbEntity
8
0
100
AcDbSpline
70
0
71
2
72
6
73
3
74
0
42
0.000000001
43
0.0000000001
44
0.0000000001
40
0
40
0
40
0
40
1
40
1
40
1
10
171.38447613023243
20
20.009710698504296
30
0
10
171.38447613023243
20
21.459233372588006
30
0
10
171.91994667552433
20
22.11748710193142
30
0
0
SPLINE
5
325
100
AcDbEntity
8
0
100
AcDbSpline
70
0
71
2
72
6
73
3
74
0
42
0.000000001
43
0.0000000001
44
0.0000000001
40
0
40
0
40
0
40
1
40
1
40
1
10
171.91994667552433
20
22.11748710193142
30
0
10
172.38720447324238
20
22.690474300761071
30
0
10
173.17847341798267
20
22.690474300761071
30
0
0
SPLINE
5
326
100
AcDbEntity
8
0
100
AcDbSpline
70
0
71
2
72
6
73
3
74
0
42
0.000000001
43
0.0000000001
44
0.0000000001
40
0
40
0
40
0
40
1
40
1
40
1
10
173.17847341798267
20
22.690474300761071
30
0
10
173.76851469777546
20
22.690474300761071
30
0
10
174.14539009831867
20
22.359642594237176
30
0
0
SPLINE
5
327
100
AcDbEntity
8
0
100
AcDbSpline
70
0
71
2
72
6
73
3
74
0
42
0.000000001
43
0.0000000001
44
0.0000000001
40
0
40
0
40
0
40
1
40
1
40
1
10
174.14539009831867
20
22.359642594237176
30
0
10
174.52226609490833
20
22.028810291666833
30
0
10
174.59730059407673
20
21.445590763468591
30
0
0
SPLINE
5
328
100
AcDbEntity
8
0
100
AcDbSpline
70
0
71
2
72
6
73
3
74
0
42
0.000000001
43
0.0000000001
44
0.0000000001
40
0
40
0
40
0
40
1
40
1
40
1
10
172.09047884248218
20
19.290065377135125
30
0
10
172.09047884248218
20
18.972875981707421
30
0
10
172.22519904874287
20
18.682971506495324
30
0
0
SPLINE
5
329
100
AcDbEntity
8
0
100
AcDbSpline
70
0
71
2
72
6
73
3
74
0
42
0.000000001
43
0.0000000001
44
0.0000000001
40
0
40
0
40
0
40
1
40
1
40
1
10
172.22519904874287
20
18.682971506495324
30
0
10
172.35991955302677
20
18.393067031283227
30
0
10
172.60207504533253
20
18.241293340105859
30
0
0
SPLINE
5
330
100
AcDbEntity
8
0
100
AcDbSpline
70
0
71
2
72
6
73
3
74
0
42
0.000000001
43
0.0000000001
44
0.0000000001
40
0
40
0
40
0
40
1
40
1
40
1
10
172.60207504533253
20
18.241293340105859
30
0
10
172.84423023961506
20
18.089519648928491
30
0
10
173.11026067040882
20
18.089519648928491
30
0
0
SPLINE
5
331
100
AcDbEntity
8
0
100
AcDbSpline
70
0
71
2
72
6
73
3
74
0
42
0.000000001
43
0.0000000001
44
0.0000000001
40
0
40
0
40
0
40
1
40
1
40
1
10
173.11026067040882
20
18.089519648928491
30
0
10
173.49907368920765
20
18.089519648928491
30
0
10
173.7787464310976
20
18.403298764605371
30
0
0
SPLINE
5
332
100
AcDbEntity
8
0
100
AcDbSpline
70
0
71
2
72
6
73
3
74
0
42
0.000000001
43
0.0000000001
44
0.0000000001
40
0
40
0
40
0
40
1
40
1
40
1
10
173.7787464310976
20
18.403298764605371
30
0
10
174.05841857694111
20
18.71707788028225
30
0
10
174.05841857694111
20
19.255959003348199
30
0
0
SPLINE
5
333
100
AcDbEntity
8
0
100
AcDbSpline
70
0
71
2
72
6
73
3
74
0
42
0.000000001
43
0.0000000001
44
0.0000000001
40
0
40
0
40
0
40
1
40
1
40
1
10
174.05841857694111
20
19.255959003348199
30
0
10
174.05841857694111
20
19.774376361746636
30
0
10
173.78215700887165
20
20.072807579417077
30
0
0
SPLINE
5
334
100
AcDbEntity
8
0
100
AcDbSpline
70
0
71
2
72
6
73
3
74
0
42
0.000000001
43
0.0000000001
44
0.0000000001
40
0
40
0
40
0
40
1
40
1
40
1
10
173.78215700887165
20
20.072807579417077
30
0
10
173.50589484475574
20
20.371238797087518
30
0
10
173.08638602994404
20
20.371238797087518
30
0
0
SPLINE
5
335
100
AcDbEntity
8
0
100
AcDbSpline
70
0
71
2
72
6
73
3
74
0
42
0.000000001
43
0.0000000001
44
0.0000000001
40
0
40
0
40
0
40
1
40
1
40
1
10
173.08638602994404
20
20.371238797087518
30
0
10
172.67028779290638
20
20.371238797087518
30
0
10
172.38038331769428
20
20.072807579417077
30
0
0
SPLINE
5
336
100
AcDbEntity
8
0
100
AcDbSpline
70
0
71
2
72
6
73
3
74
0
42
0.000000001
43
0.0000000001
44
0.0000000001
40
0
40
0
40
0
40
1
40
1
40
1
10
172.38038331769428
20
20.072807579417077
30
0
10
172.09047884248218
20
19.774376361746636
30
0
10
172.09047884248218
20
19.290065377135125
30
0
0
LINE
5
337
100
AcDbEntity
8
0
100
AcDbLine
10
65.435762877289221
20
44.72143967619995
30
0
11
65.383225201947539
21
49.721163647847753
31
0
0
LINE
5
338
100
AcDbEntity
8
0
100
AcDbLine
10
65.383225201947539
20
49.721163647847753
30
0
11
66.04485301869417
21
49.728116109149695
31
0
0
LINE
5
339
100
AcDbEntity
8
0
100
AcDbLine
10
66.04485301869417
20
49.728116109149695
30
0
11
66.091190820859651
21
45.318400247656697
31
0
0
LINE
5
340
100
AcDbEntity
8
0
100
AcDbLine
10
66.091190820859637
20
45.318400247656697
30
0
11
68.553537926271019
21
45.344274874643347
31
0
0
LINE
5
341
100
AcDbEntity
8
0
100
AcDbLine
10
68.553537926271019
20
45.344274874643347
30
0
11
68.559737799447234
21
44.754266764488541
31
0
0
LINE
5
342
100
AcDbEntity
8
0
100
AcDbLine
10
68.559737799447234
20
44.754266764488541
30
0
11
65.435762877289221
21
44.72143967619995
31
0
0
LINE
5
343
100
AcDbEntity
8
0
100
AcDbLine
10
69.361193932120614
20
44.762688557839084
30
0
11
69.308656256778931
21
49.762412529486895
31
0
0
LINE
5
344
100
AcDbEntity
8
0
100
AcDbLine
10
69.308656256778931
20
49.762412529486895
30
0
11
72.923736466573416
21
49.800400208701454
31
0
0
LINE
5
345
100
AcDbEntity
8
0
100
AcDbLine
10
72.923736466573416
20
49.800400208701454
30
0
11
72.929936342881106
21
49.210391800539881
31
0
0
LINE
5
346
100
AcDbEntity
8
0
100
AcDbLine
10
72.929936342881106
20
49.210391800539874
30
0
11
69.976484210589177
21
49.179356585367302
31
0
0
LINE
5
347
100
AcDbEntity
8
0
100
AcDbLine
10
69.976484210589192
20
49.179356585367309
30
0
11
69.992575215818974
21
47.648063393347982
31
0
0
LINE
5
348
100
AcDbEntity
8
0
100
AcDbLine
10
69.992575215818974
20
47.648063393347982
30
0
11
72.758452350034801
21
47.677127548836651
31
0
0
LINE
5
349
100
AcDbEntity
8
0
100
AcDbLine
10
72.758452350034801
20
47.677127548836651
30
0
11
72.764616389576929
21
47.090529530165888
31
0
0
LINE
5
350
100
AcDbEntity
8
0
100
AcDbLine
10
72.764616389576929
20
47.090529530165888
30
0
11
69.998739255361102
21
47.061465374677226
31
0
0
LINE
5
351
100
AcDbEntity
8
0
100
AcDbLine
10
69.998739255361102
20
47.061465374677226
30
0
11
70.016622136446955
21
45.359649132035884
31
0
0
LINE
5
352
100
AcDbEntity
8
0
100
AcDbLine
10
70.016622136446955
20
45.359649132035884
30
0
11
73.086029299467242
21
45.391902816026565
31
0
0
LINE
5
353
100
AcDbEntity
8
0
100
AcDbLine
10
73.086029299467242
20
45.391902816026573
30
0
11
73.092229172643442
21
44.801894705871767
31
0
0
LINE
5
354
100
AcDbEntity
8
0
100
AcDbLine
10
73.092229172643442
20
44.801894705871767
30
0
11
69.361193932120614
21
44.762688557839084
31
0
0
LINE
5
355
100
AcDbEntity
8
0
100
AcDbLine
10
74.006231436588209
20
44.811499146932306
30
0
11
73.953693761246527
21
49.811223118580116
31
0
0
LINE
5
356
100
AcDbEntity
8
0
100
AcDbLine
10
73.953693761246527
20
49.811223118580116
30
0
11
75.675972638839525
21
49.829321023390847
31
0
0
SPLINE
5
357
100
AcDbEntity
8
0
100
AcDbSpline
70
0
71
2
72
6
73
3
74
0
42
0.000000001
43
0.0000000001
44
0.0000000001
40
0
40
0
40
0
40
1
40
1
40
1
10
75.675972638839525
20
49.829321023390847
30
0
10
76.259159970012703
20
49.83544922303593
30
0
10
76.566853568924301
20
49.767055223232276
30
0
0
SPLINE
5
358
100
AcDbEntity
8
0
100
AcDbSpline
70
0
71
2
72
6
73
3
74
0
42
0.000000001
43
0.0000000001
44
0.0000000001
40
0
40
0
40
0
40
1
40
1
40
1
10
76.566853568924301
20
49.767055223232276
30
0
10
76.997609085051323
20
49.672667349568059
30
0
10
77.303863354156007
20
49.416662514922756
30
0
0
SPLINE
5
359
100
AcDbEntity
8
0
100
AcDbSpline
70
0
71
2
72
6
73
3
74
0
42
0.000000001
43
0.0000000001
44
0.0000000001
40
0
40
0
40
0
40
1
40
1
40
1
10
77.303863354156007
20
49.416662514922756
30
0
10
77.702987756039647
20
49.08659522664184
30
0
10
77.904554530812518
20
48.568561950936626
30
0
0
SPLINE
5
360
100
AcDbEntity
8
0
100
AcDbSpline
70
0
71
2
72
6
73
3
74
0
42
0.000000001
43
0.0000000001
44
0.0000000001
40
0
40
0
40
0
40
1
40
1
40
1
10
77.904554530812518
20
48.568561950936626
30
0
10
78.106121308716865
20
48.050528377224637
30
0
10
78.113145443158501
20
47.382079818747222
30
0
0
SPLINE
5
361
100
AcDbEntity
8
0
100
AcDbSpline
70
0
71
2
72
6
73
3
74
0
42
0.000000001
43
0.0000000001
44
0.0000000001
40
0
40
0
40
0
40
1
40
1
40
1
10
78.113145443158501
20
47.382079818747222
30
0
10
78.119130295741314
20
46.812534045537305
30
0
10
77.990744559957747
20
46.37118778559767
30
0
0
SPLINE
5
362
100
AcDbEntity
8
0
100
AcDbSpline
70
0
71
2
72
6
73
3
74
0
42
0.000000001
43
0.0000000001
44
0.0000000001
40
0
40
0
40
0
40
1
40
1
40
1
10
77.990744559957747
20
46.37118778559767
30
0
10
77.862360009938271
20
45.929842134197536
30
0
10
77.657350937974272
20
45.639472777824473
30
0
0
SPLINE
5
363
100
AcDbEntity
8
0
100
AcDbSpline
70
0
71
2
72
6
73
3
74
0
42
0.000000001
43
0.0000000001
44
0.0000000001
40
0
40
0
40
0
40
1
40
1
40
1
10
77.657350937974272
20
45.639472777824473
30
0
10
77.452341866010258
20
45.349103421451424
30
0
10
77.206821384512011
20
45.181097733195415
30
0
0
SPLINE
5
364
100
AcDbEntity
8
0
100
AcDbSpline
70
0
71
2
72
6
73
3
74
0
42
0.000000001
43
0.0000000001
44
0.0000000001
40
0
40
0
40
0
40
1
40
1
40
1
10
77.206821384512011
20
45.181097733195415
30
0
10
76.961302088777856
20
45.013092653478921
30
0
10
76.612626541485383
20
44.924158386818362
30
0
0
SPLINE
5
365
100
AcDbEntity
8
0
100
AcDbSpline
70
0
71
2
72
6
73
3
74
0
42
0.000000001
43
0.0000000001
44
0.0000000001
40
0
40
0
40
0
40
1
40
1
40
1
10
76.612626541485383
20
44.924158386818362
30
0
10
76.263951000455876
20
44.835223524144261
30
0
10
75.810360853987859
20
44.830457146642537
30
0
0
LINE
5
366
100
AcDbEntity
8
0
100
AcDbLine
10
75.810360853987859
20
44.830457146642537
30
0
11
74.006231436588209
21
44.811499146932306
31
0
0
LINE
5
367
100
AcDbEntity
8
0
100
AcDbLine
10
74.66165964091455
20
45.408459721129105
30
0
11
75.729131219986627
21
45.419676835428966
31
0
0
SPLINE
5
368
100
AcDbEntity
8
0
100
AcDbSpline
70
0
71
2
72
6
73
3
74
0
42
0.000000001
43
0.0000000001
44
0.0000000001
40
0
40
0
40
0
40
1
40
1
40
1
10
75.729131219986641
20
45.419676835428973
30
0
10
76.223647232371519
20
45.424873266643431
30
0
10
76.504040925999419
20
45.519912147935962
30
0
0
SPLINE
5
369
100
AcDbEntity
8
0
100
AcDbSpline
70
0
71
2
72
6
73
3
74
0
42
0.000000001
43
0.0000000001
44
0.0000000001
40
0
40
0
40
0
40
1
40
1
40
1
10
76.504040925999419
20
45.519912147935962
30
0
10
76.784437003681475
20
45.614951054280404
30
0
10
76.94979243995806
20
45.783819145962624
30
0
0
SPLINE
5
370
100
AcDbEntity
8
0
100
AcDbSpline
70
0
71
2
72
6
73
3
74
0
42
0.000000001
43
0.0000000001
44
0.0000000001
40
0
40
0
40
0
40
1
40
1
40
1
10
76.94979243995806
20
45.783819145962624
30
0
10
77.182641296004903
20
46.021613575864968
30
0
10
77.309768021097952
20
46.420310837970611
30
0
0
SPLINE
5
371
100
AcDbEntity
8
0
100
AcDbSpline
70
0
71
2
72
6
73
3
74
0
42
0.000000001
43
0.0000000001
44
0.0000000001
40
0
40
0
40
0
40
1
40
1
40
1
10
77.309768021097952
20
46.420310837970611
30
0
10
77.436895935086596
20
46.81900841060898
30
0
10
77.430946922400807
20
47.385143496321305
30
0
0
SPLINE
5
372
100
AcDbEntity
8
0
100
AcDbSpline
70
0
71
2
72
6
73
3
74
0
42
0.000000001
43
0.0000000001
44
0.0000000001
40
0
40
0
40
0
40
1
40
1
40
1
10
77.430946922400807
20
47.385143496321305
30
0
10
77.422704312878096
20
48.169547681540614
30
0
10
77.16078861710227
20
48.588033097672216
30
0
0
SPLINE
5
373
100
AcDbEntity
8
0
100
AcDbSpline
70
0
71
2
72
6
73
3
74
0
42
0.000000001
43
0.0000000001
44
0.0000000001
40
0
40
0
40
0
40
1
40
1
40
1
10
77.16078861710227
20
48.588033097672216
30
0
10
76.898874116485032
20
49.006518228323017
30
0
10
76.529039726977373
20
49.145886823161533
30
0
0
SPLINE
5
374
100
AcDbEntity
8
0
100
AcDbSpline
70
0
71
2
72
6
73
3
74
0
42
0.000000001
43
0.0000000001
44
0.0000000001
40
0
40
0
40
0
40
1
40
1
40
1
10
76.529039726977373
20
49.145886823161533
30
0
10
76.261949456829583
20
49.24540497810878
30
0
10
75.671941346674771
20
49.239205104932573
30
0
0
LINE
5
375
100
AcDbEntity
8
0
100
AcDbLine
10
75.671941346674771
20
49.239205104932573
30
0
11
74.621521715056772
21
49.22816717446053
31
0
0
LINE
5
376
100
AcDbEntity
8
0
100
AcDbLine
10
74.621521715056772
20
49.22816717446053
30
0
11
74.66165964091455
21
45.408459721129113
31
0
0
LINE
5
377
100
AcDbEntity
8
0
100
AcDbLine
10
94.393871640059018
20
46.991190979455915
30
0
11
94.387945499202431
21
47.577791449747657
31
0
0
LINE
5
378
100
AcDbEntity
8
0
100
AcDbLine
10
94.387945499202431
20
47.577791449747657
30
0
11
96.505811405730881
21
47.602597976560865
31
0
0
LINE
5
379
100
AcDbEntity
8
0
100
AcDbLine
10
96.505811405730881
20
47.602597976560865
30
0
11
96.524554542813974
21
45.747304068817172
31
0
0
SPLINE
5
380
100
AcDbEntity
8
0
100
AcDbSpline
70
0
71
2
72
6
73
3
74
0
42
0.000000001
43
0.0000000001
44
0.0000000001
40
0
40
0
40
0
40
1
40
1
40
1
10
96.524554542813974
20
45.747304068817165
30
0
10
96.040785358608446
20
45.353583923128411
30
0
10
95.524375580819793
20
45.152244483117059
30
0
0
SPLINE
5
381
100
AcDbEntity
8
0
100
AcDbSpline
70
0
71
2
72
6
73
3
74
0
42
0.000000001
43
0.0000000001
44
0.0000000001
40
0
40
0
40
0
40
1
40
1
40
1
10
95.524375580819793
20
45.152244483117059
30
0
10
95.007965797009902
20
44.95090563912175
30
0
10
94.462290767664115
20
44.945392948202453
30
0
0
SPLINE
5
382
100
AcDbEntity
8
0
100
AcDbSpline
70
0
71
2
72
6
73
3
74
0
42
0.000000001
43
0.0000000001
44
0.0000000001
40
0
40
0
40
0
40
1
40
1
40
1
10
94.462290767664115
20
44.945392948202453
30
0
10
93.725630148565301
20
44.937950822235315
30
0
10
93.120495539684725
20
45.247337943394484
30
0
0
SPLINE
5
383
100
AcDbEntity
8
0
100
AcDbSpline
70
0
71
2
72
6
73
3
74
0
42
0.000000001
43
0.0000000001
44
0.0000000001
40
0
40
0
40
0
40
1
40
1
40
1
10
93.120495539684725
20
45.247337943394484
30
0
10
92.515361079808173
20
45.556725066058974
30
0
10
92.202389581856679
20
46.150455563002865
30
0
0
SPLINE
5
384
100
AcDbEntity
8
0
100
AcDbSpline
70
0
71
2
72
6
73
3
74
0
42
0.000000001
43
0.0000000001
44
0.0000000001
40
0
40
0
40
0
40
1
40
1
40
1
10
92.202389581856679
20
46.150455563002865
30
0
10
91.88941800338192
20
46.744186655210136
30
0
10
91.881975874404148
20
47.480847572316961
30
0
0
SPLINE
5
385
100
AcDbEntity
8
0
100
AcDbSpline
70
0
71
2
72
6
73
3
74
0
42
0.000000001
43
0.0000000001
44
0.0000000001
40
0
40
0
40
0
40
1
40
1
40
1
10
91.881975874404148
20
47.480847572316961
30
0
10
91.874602655756362
20
48.210687383927457
30
0
10
92.173448178716754
20
48.846412858531835
30
0
0
SPLINE
5
386
100
AcDbEntity
8
0
100
AcDbSpline
70
0
71
2
72
6
73
3
74
0
42
0.000000001
43
0.0000000001
44
0.0000000001
40
0
40
0
40
0
40
1
40
1
40
1
10
92.173448178716754
20
48.846412858531835
30
0
10
92.472293779189769
20
49.482138035880851
30
0
10
93.042151300920551
20
49.794868356709337
30
0
0
SPLINE
5
387
100
AcDbEntity
8
0
100
AcDbSpline
70
0
71
2
72
6
73
3
74
0
42
0.000000001
43
0.0000000001
44
0.0000000001
40
0
40
0
40
0
40
1
40
1
40
1
10
93.042151300920551
20
49.794868356709337
30
0
10
93.612008971655342
20
50.107598679043136
30
0
10
94.35890109999464
20
50.115144168999912
30
0
0
SPLINE
5
388
100
AcDbEntity
8
0
100
AcDbSpline
70
0
71
2
72
6
73
3
74
0
42
0.000000001
43
0.0000000001
44
0.0000000001
40
0
40
0
40
0
40
1
40
1
40
1
10
94.35890109999464
20
50.115144168999912
30
0
10
94.901165427588282
20
50.120622403248909
30
0
10
95.341184751518938
20
49.949410708891257
30
0
0
SPLINE
5
389
100
AcDbEntity
8
0
100
AcDbSpline
70
0
71
2
72
6
73
3
74
0
42
0.000000001
43
0.0000000001
44
0.0000000001
40
0
40
0
40
0
40
1
40
1
40
1
10
95.341184751518938
20
49.949410708891257
30
0
10
95.781204373457626
20
49.778199017544225
30
0
10
96.033338110793025
20
49.466951373244783
30
0
0
SPLINE
5
390
100
AcDbEntity
8
0
100
AcDbSpline
70
0
71
2
72
6
73
3
74
0
42
0.000000001
43
0.0000000001
44
0.0000000001
40
0
40
0
40
0
40
1
40
1
40
1
10
96.033338110793025
20
49.466951373244783
30
0
10
96.285472149147068
20
49.155703433947963
30
0
10
96.420169110449919
20
48.65226370471661
30
0
0
LINE
5
391
100
AcDbEntity
8
0
100
AcDbLine
10
96.420169110449919
20
48.65226370471661
30
0
11
95.824991234696185
21
48.482531843081269
31
0
0
SPLINE
5
392
100
AcDbEntity
8
0
100
AcDbSpline
70
0
71
2
72
6
73
3
74
0
42
0.000000001
43
0.0000000001
44
0.0000000001
40
0
40
0
40
0
40
1
40
1
40
1
10
95.824991234696185
20
48.482531843081269
30
0
10
95.708586942944692
20
48.8633672227758
30
0
10
95.539268808035672
20
49.079948674065328
30
0
0
SPLINE
5
393
100
AcDbEntity
8
0
100
AcDbSpline
70
0
71
2
72
6
73
3
74
0
42
0.000000001
43
0.0000000001
44
0.0000000001
40
0
40
0
40
0
40
1
40
1
40
1
10
95.539268808035672
20
49.079948674065328
30
0
10
95.369950968124058
20
49.296530426373508
30
0
10
95.058271777263045
20
49.424698011345114
30
0
0
SPLINE
5
394
100
AcDbEntity
8
0
100
AcDbSpline
70
0
71
2
72
6
73
3
74
0
42
0.000000001
43
0.0000000001
44
0.0000000001
40
0
40
0
40
0
40
1
40
1
40
1
10
95.058271777263045
20
49.424698011345114
30
0
10
94.746592884410035
20
49.552865599327347
30
0
10
94.368030916616135
20
49.549041170848824
30
0
0
SPLINE
5
395
100
AcDbEntity
8
0
100
AcDbSpline
70
0
71
2
72
6
73
3
74
0
42
0.000000001
43
0.0000000001
44
0.0000000001
40
0
40
0
40
0
40
1
40
1
40
1
10
94.368030916616135
20
49.549041170848824
30
0
10
93.914438874418678
20
49.544458749815036
30
0
10
93.585019148376745
20
49.402992948911894
30
0
0
SPLINE
5
396
100
AcDbEntity
8
0
100
AcDbSpline
70
0
71
2
72
6
73
3
74
0
42
0.000000001
43
0.0000000001
44
0.0000000001
40
0
40
0
40
0
40
1
40
1
40
1
10
93.585019148376745
20
49.402992948911894
30
0
10
93.255599127337405
20
49.261526846990115
30
0
10
93.054950363146887
20
49.034385997380213
30
0
0
SPLINE
5
397
100
AcDbEntity
8
0
100
AcDbSpline
70
0
71
2
72
6
73
3
74
0
42
0.000000001
43
0.0000000001
44
0.0000000001
40
0
40
0
40
0
40
1
40
1
40
1
10
93.054950363146887
20
49.034385997380213
30
0
10
92.854301598956368
20
48.807245147770317
30
0
10
92.744478005135704
20
48.536681193249379
30
0
0
SPLINE
5
398
100
AcDbEntity
8
0
100
AcDbSpline
70
0
71
2
72
6
73
3
74
0
42
0.000000001
43
0.0000000001
44
0.0000000001
40
0
40
0
40
0
40
1
40
1
40
1
10
92.744478005135704
20
48.536681193249379
30
0
10
92.558177604390096
20
48.070928200742358
30
0
10
92.563655835628467
20
47.528664171156748
30
0
0
SPLINE
5
399
100
AcDbEntity
8
0
100
AcDbSpline
70
0
71
2
72
6
73
3
74
0
42
0.000000001
43
0.0000000001
44
0.0000000001
40
0
40
0
40
0
40
1
40
1
40
1
10
92.563655835628467
20
47.528664171156748
30
0
10
92.570408882380931
20
46.860212222957117
30
0
10
92.805163349099928
20
46.41235624943306
30
0
0
SPLINE
5
400
100
AcDbEntity
8
0
100
AcDbSpline
70
0
71
2
72
6
73
3
74
0
42
0.000000001
43
0.0000000001
44
0.0000000001
40
0
40
0
40
0
40
1
40
1
40
1
10
92.805163349099928
20
46.41235624943306
30
0
10
93.03991789032095
20
45.96450027666166
30
0
10
93.482073238884198
20
45.750675465829161
30
0
0
SPLINE
5
401
100
AcDbEntity
8
0
100
AcDbSpline
70
0
71
2
72
6
73
3
74
0
42
0.000000001
43
0.0000000001
44
0.0000000001
40
0
40
0
40
0
40
1
40
1
40
1
10
93.482073238884198
20
45.750675465829161
30
0
10
93.924228444464717
20
45.53685005747532
30
0
10
94.418746225616076
20
45.541845931457047
30
0
0
SPLINE
5
402
100
AcDbEntity
8
0
100
AcDbSpline
70
0
71
2
72
6
73
3
74
0
42
0.000000001
43
0.0000000001
44
0.0000000001
40
0
40
0
40
0
40
1
40
1
40
1
10
94.418746225616076
20
45.541845931457047
30
0
10
94.8484651435964
20
45.546187173862513
30
0
10
95.256050010495429
20
45.715729249960511
30
0
0
SPLINE
5
403
100
AcDbEntity
8
0
100
AcDbSpline
70
0
71
2
72
6
73
3
74
0
42
0.000000001
43
0.0000000001
44
0.0000000001
40
0
40
0
40
0
40
1
40
1
40
1
10
95.256050010495429
20
45.715729249960511
30
0
10
95.663635175402476
20
45.885271329069148
30
0
10
95.873189094235045
20
46.074983277131764
30
0
0
LINE
5
404
100
AcDbEntity
8
0
100
AcDbLine
10
95.873189094235045
20
46.074983277131764
30
0
11
95.863783070528527
21
47.006040783751779
31
0
0
LINE
5
405
100
AcDbEntity
8
0
100
AcDbLine
10
95.863783070528513
20
47.006040783751779
30
0
11
94.393871640059004
21
46.991190979455915
31
0
0
LINE
5
406
100
AcDbEntity
8
0
100
AcDbLine
10
97.517208380413052
20
45.061525886960048
30
0
11
97.466698376019835
21
50.061270754396404
31
0
0
LINE
5
407
100
AcDbEntity
8
0
100
AcDbLine
10
97.466698376019821
20
50.061270754396404
30
0
11
99.683501934828612
21
50.083666048649043
31
0
0
SPLINE
5
408
100
AcDbEntity
8
0
100
AcDbSpline
70
0
71
2
72
6
73
3
74
0
42
0.000000001
43
0.0000000001
44
0.0000000001
40
0
40
0
40
0
40
1
40
1
40
1
10
99.683501934828612
20
50.083666048649043
30
0
10
100.35195358502021
20
50.090419092390881
30
0
10
100.70118226674268
20
49.959220099952759
30
0
0
SPLINE
5
409
100
AcDbEntity
8
0
100
AcDbSpline
70
0
71
2
72
6
73
3
74
0
42
0.000000001
43
0.0000000001
44
0.0000000001
40
0
40
0
40
0
40
1
40
1
40
1
10
100.70118226674268
20
49.959220099952759
30
0
10
101.05041095147578
20
49.828020809506611
30
0
10
101.26189518117189
20
49.489075892311199
30
0
0
SPLINE
5
410
100
AcDbEntity
8
0
100
AcDbSpline
70
0
71
2
72
6
73
3
74
0
42
0.000000001
43
0.0000000001
44
0.0000000001
40
0
40
0
40
0
40
1
40
1
40
1
10
101.26189518117189
20
49.489075892311199
30
0
10
101.47337881485197
20
49.150130969094533
30
0
10
101.47754778594846
20
48.737464367843017
30
0
0
SPLINE
5
411
100
AcDbEntity
8
0
100
AcDbSpline
70
0
71
2
72
6
73
3
74
0
42
0.000000001
43
0.0000000001
44
0.0000000001
40
0
40
0
40
0
40
1
40
1
40
1
10
101.47754778594846
20
48.737464367843017
30
0
10
101.48292265620782
20
48.205431549489866
30
0
10
101.14215193270073
20
47.837031608820055
30
0
0
SPLINE
5
412
100
AcDbEntity
8
0
100
AcDbSpline
70
0
71
2
72
6
73
3
74
0
42
0.000000001
43
0.0000000001
44
0.0000000001
40
0
40
0
40
0
40
1
40
1
40
1
10
101.14215193270073
20
47.837031608820055
30
0
10
100.80138120919365
20
47.468631668150238
30
0
10
100.08277208101786
20
47.36245831686341
30
0
0
SPLINE
5
413
100
AcDbEntity
8
0
100
AcDbSpline
70
0
71
2
72
6
73
3
74
0
42
0.000000001
43
0.0000000001
44
0.0000000001
40
0
40
0
40
0
40
1
40
1
40
1
10
100.08277208101786
20
47.36245831686341
30
0
10
100.34665274693913
20
47.23892397423014
30
0
10
100.48431163660274
20
47.117525225848176
30
0
0
SPLINE
5
414
100
AcDbEntity
8
0
100
AcDbSpline
70
0
71
2
72
6
73
3
74
0
42
0.000000001
43
0.0000000001
44
0.0000000001
40
0
40
0
40
0
40
1
40
1
40
1
10
100.48431163660274
20
47.117525225848176
30
0
10
100.77688934864084
20
46.854437586960188
30
0
10
101.04011595477225
20
46.458031424998353
30
0
0
LINE
5
415
100
AcDbEntity
8
0
100
AcDbLine
10
101.04011595477225
20
46.458031424998353
30
0
11
101.92353167206133
21
45.106040840166706
31
0
0
LINE
5
416
100
AcDbEntity
8
0
100
AcDbLine
10
101.92353167206133
20
45.106040840166706
30
0
11
101.09137766206999
21
45.097633990654387
31
0
0
LINE
5
417
100
AcDbEntity
8
0
100
AcDbLine
10
101.09137766206999
20
45.097633990654387
30
0
11
100.4192388504817
21
46.131142670750343
31
0
0
SPLINE
5
418
100
AcDbEntity
8
0
100
AcDbSpline
70
0
71
2
72
6
73
3
74
0
42
0.000000001
43
0.0000000001
44
0.0000000001
40
0
40
0
40
0
40
1
40
1
40
1
10
100.4192388504817
20
46.131142670750343
30
0
10
100.12480120372052
20
46.57839539593229
30
0
10
99.934813620359279
20
46.815233140734151
30
0
0
SPLINE
5
419
100
AcDbEntity
8
0
100
AcDbSpline
70
0
71
2
72
6
73
3
74
0
42
0.000000001
43
0.0000000001
44
0.0000000001
40
0
40
0
40
0
40
1
40
1
40
1
10
99.934813620359279
20
46.815233140734151
30
0
10
99.744826036998035
20
47.052070885536011
30
0
10
99.595506369528493
20
47.146065220139832
30
0
0
SPLINE
5
420
100
AcDbEntity
8
0
100
AcDbSpline
70
0
71
2
72
6
73
3
74
0
42
0.000000001
43
0.0000000001
44
0.0000000001
40
0
40
0
40
0
40
1
40
1
40
1
10
99.595506369528493
20
47.146065220139832
30
0
10
99.446186106042916
20
47.240059548722385
30
0
10
99.29233596119802
20
47.276024141132694
30
0
0
SPLINE
5
421
100
AcDbEntity
8
0
100
AcDbSpline
70
0
71
2
72
6
73
3
74
0
42
0.000000001
43
0.0000000001
44
0.0000000001
40
0
40
0
40
0
40
1
40
1
40
1
10
99.29233596119802
20
47.276024141132694
30
0
10
99.179549670964406
20
47.298760276516909
30
0
10
98.923764622024294
20
47.296176203871561
30
0
0
LINE
5
422
100
AcDbEntity
8
0
100
AcDbLine
10
98.923764622024294
20
47.296176203871561
30
0
11
98.156409475204015
21
47.288423985935502
31
0
0
LINE
5
423
100
AcDbEntity
8
0
100
AcDbLine
10
98.156409475204015
20
47.288423985935495
30
0
11
98.178839223116313
21
45.068210023382548
31
0
0
LINE
5
424
100
AcDbEntity
8
0
100
AcDbLine
10
98.178839223116341
20
45.068210023382555
30
0
11
97.517208380413052
21
45.061525886960048
31
0
0
LINE
5
425
100
AcDbEntity
8
0
100
AcDbLine
10
98.150621151996731
20
47.861382543242584
30
0
11
99.572785738015952
21
47.875749984260551
31
0
0
SPLINE
5
426
100
AcDbEntity
8
0
100
AcDbSpline
70
0
71
2
72
6
73
3
74
0
42
0.000000001
43
0.0000000001
44
0.0000000001
40
0
40
0
40
0
40
1
40
1
40
1
10
99.572785738015952
20
47.875749984260551
30
0
10
100.02637778021339
20
47.880332405294332
30
0
10
100.28121533544876
20
47.976704368952127
30
0
0
SPLINE
5
427
100
AcDbEntity
8
0
100
AcDbSpline
70
0
71
2
72
6
73
3
74
0
42
0.000000001
43
0.0000000001
44
0.0000000001
40
0
40
0
40
0
40
1
40
1
40
1
10
100.28121533544876
20
47.976704368952127
30
0
10
100.53605289068415
20
48.073076332609915
30
0
10
100.66697653522219
20
48.280753350047846
30
0
0
SPLINE
5
428
100
AcDbEntity
8
0
100
AcDbSpline
70
0
71
2
72
6
73
3
74
0
42
0.000000001
43
0.0000000001
44
0.0000000001
40
0
40
0
40
0
40
1
40
1
40
1
10
100.66697653522219
20
48.280753350047846
30
0
10
100.79790017976023
20
48.48843036748579
30
0
10
100.79545392476419
20
48.730573503441235
30
0
0
SPLINE
5
429
100
AcDbEntity
8
0
100
AcDbSpline
70
0
71
2
72
6
73
3
74
0
42
0.000000001
43
0.0000000001
44
0.0000000001
40
0
40
0
40
0
40
1
40
1
40
1
10
100.79545392476419
20
48.730573503441235
30
0
10
100.79187067792462
20
49.085262049010005
30
0
10
100.53207258578175
20
49.311161978526876
30
0
0
SPLINE
5
430
100
AcDbEntity
8
0
100
AcDbSpline
70
0
71
2
72
6
73
3
74
0
42
0.000000001
43
0.0000000001
44
0.0000000001
40
0
40
0
40
0
40
1
40
1
40
1
10
100.53207258578175
20
49.311161978526876
30
0
10
100.27227329859619
20
49.537062194009238
30
0
10
99.716367356025927
20
49.531446145121556
30
0
0
LINE
5
431
100
AcDbEntity
8
0
100
AcDbLine
10
99.716367356025927
20
49.531446145121556
30
0
11
98.133910813951118
21
49.515459351992789
31
0
0
LINE
5
432
100
AcDbEntity
8
0
100
AcDbLine
10
98.133910813951118
20
49.515459351992789
30
0
11
98.150621151996731
21
47.861382543242584
31
0
0
LINE
5
433
100
AcDbEntity
8
0
100
AcDbLine
10
102.551057881307
20
45.112380433971246
30
0
11
102.5005478769138
21
50.112125301407602
31
0
0
LINE
5
434
100
AcDbEntity
8
0
100
AcDbLine
10
102.5005478769138
20
50.112125301407602
30
0
11
104.38653571636293
21
50.131178524438354
31
0
0
SPLINE
5
435
100
AcDbEntity
8
0
100
AcDbSpline
70
0
71
2
72
6
73
3
74
0
42
0.000000001
43
0.0000000001
44
0.0000000001
40
0
40
0
40
0
40
1
40
1
40
1
10
104.38653571636293
20
50.131178524438354
30
0
10
104.88446419926647
20
50.136208855090381
30
0
10
105.14755241596217
20
50.091115288612819
30
0
0
SPLINE
5
436
100
AcDbEntity
8
0
100
AcDbSpline
70
0
71
2
72
6
73
3
74
0
42
0.000000001
43
0.0000000001
44
0.0000000001
40
0
40
0
40
0
40
1
40
1
40
1
10
105.14755241596217
20
50.091115288612819
30
0
10
105.51650335044016
20
50.033447896685431
30
0
10
105.76720753181161
20
49.86373469285131
30
0
0
SPLINE
5
437
100
AcDbEntity
8
0
100
AcDbSpline
70
0
71
2
72
6
73
3
74
0
42
0.000000001
43
0.0000000001
44
0.0000000001
40
0
40
0
40
0
40
1
40
1
40
1
10
105.76720753181161
20
49.86373469285131
30
0
10
106.01791171619365
20
49.694021191009185
30
0
10
106.17281300613143
20
49.385201708092126
30
0
0
SPLINE
5
438
100
AcDbEntity
8
0
100
AcDbSpline
70
0
71
2
72
6
73
3
74
0
42
0.000000001
43
0.0000000001
44
0.0000000001
40
0
40
0
40
0
40
1
40
1
40
1
10
106.17281300613143
20
49.385201708092126
30
0
10
106.32771310102652
20
49.076382511140572
30
0
10
106.33146861917507
20
48.704641648842994
30
0
0
SPLINE
5
439
100
AcDbEntity
8
0
100
AcDbSpline
70
0
71
2
72
6
73
3
74
0
42
0.000000001
43
0.0000000001
44
0.0000000001
40
0
40
0
40
0
40
1
40
1
40
1
10
106.33146861917507
20
48.704641648842994
30
0
10
106.33791157395862
20
48.066884228364842
30
0
10
105.93652820943639
20
47.621128541516072
30
0
0
SPLINE
5
440
100
AcDbEntity
8
0
100
AcDbSpline
70
0
71
2
72
6
73
3
74
0
42
0.000000001
43
0.0000000001
44
0.0000000001
40
0
40
0
40
0
40
1
40
1
40
1
10
105.93652820943639
20
47.621128541516072
30
0
10
105.53514484190356
20
47.175373152675313
30
0
10
104.47448901292537
20
47.164657859795014
30
0
0
LINE
5
441
100
AcDbEntity
8
0
100
AcDbLine
10
104.47448901292537
20
47.164657859795014
30
0
11
103.19215336448075
21
47.151703042908579
31
0
0
LINE
5
442
100
AcDbEntity
8
0
100
AcDbLine
10
103.19215336448076
20
47.151703042908579
30
0
11
103.21268812799428
21
45.119064564372486
31
0
0
LINE
5
443
100
AcDbEntity
8
0
100
AcDbLine
10
103.21268812799426
20
45.119064564372486
30
0
11
102.551057881307
21
45.112380433971246
31
0
0
LINE
5
444
100
AcDbEntity
8
0
100
AcDbLine
10
103.18619276996449
20
47.741713916944462
30
0
11
104.47876082167366
21
47.754772106852442
31
0
0
SPLINE
5
445
100
AcDbEntity
8
0
100
AcDbSpline
70
0
71
2
72
6
73
3
74
0
42
0.000000001
43
0.0000000001
44
0.0000000001
40
0
40
0
40
0
40
1
40
1
40
1
10
104.47876082167366
20
47.754772106852442
30
0
10
105.11992864589595
20
47.76124951529566
30
0
10
105.38694350847632
20
48.002704134790974
30
0
0
SPLINE
5
446
100
AcDbEntity
8
0
100
AcDbSpline
70
0
71
2
72
6
73
3
74
0
42
0.000000001
43
0.0000000001
44
0.0000000001
40
0
40
0
40
0
40
1
40
1
40
1
10
105.38694350847632
20
48.002704134790974
30
0
10
105.65395837105666
20
48.244158754286303
30
0
10
105.64958267499152
20
48.677288076010768
30
0
0
SPLINE
5
447
100
AcDbEntity
8
0
100
AcDbSpline
70
0
71
2
72
6
73
3
74
0
42
0.000000001
43
0.0000000001
44
0.0000000001
40
0
40
0
40
0
40
1
40
1
40
1
10
105.64958267499152
20
48.677288076010768
30
0
10
105.64641288109989
20
48.991050882625593
30
0
10
105.48556937005915
20
49.212834374699185
30
0
0
SPLINE
5
448
100
AcDbEntity
8
0
100
AcDbSpline
70
0
71
2
72
6
73
3
74
0
42
0.000000001
43
0.0000000001
44
0.0000000001
40
0
40
0
40
0
40
1
40
1
40
1
10
105.48556937005915
20
49.212834374699185
30
0
10
105.32472585901843
20
49.434617866772783
30
0
10
105.06480686743859
20
49.503619011127135
30
0
0
SPLINE
5
449
100
AcDbEntity
8
0
100
AcDbSpline
70
0
71
2
72
6
73
3
74
0
42
0.000000001
43
0.0000000001
44
0.0000000001
40
0
40
0
40
0
40
1
40
1
40
1
10
105.06480686743859
20
49.503619011127135
30
0
10
104.89724560127107
20
49.546266888373829
30
0
10
104.44706396281777
20
49.541718920999706
30
0
0
LINE
5
450
100
AcDbEntity
8
0
100
AcDbLine
10
104.44706396281777
20
49.541718920999706
30
0
11
103.16813871811731
21
49.528798557772937
31
0
0
LINE
5
451
100
AcDbEntity
8
0
100
AcDbLine
10
103.16813871811732
20
49.528798557772944
30
0
11
103.18619276996449
21
47.741713916944477
31
0
0
LINE
5
452
100
AcDbEntity
8
0
100
AcDbLine
10
116.31884051142869
20
45.33574697742317
30
0
11
116.26630283608702
21
50.335470949070981
31
0
0
LINE
5
453
100
AcDbEntity
8
0
100
AcDbLine
10
116.26630283608699
20
50.335470949070981
30
0
11
116.92793065283362
21
50.342423410372916
31
0
0
LINE
5
454
100
AcDbEntity
8
0
100
AcDbLine
10
116.92793065283362
20
50.342423410372916
30
0
11
116.97426845499911
21
45.932707548879918
31
0
0
LINE
5
455
100
AcDbEntity
8
0
100
AcDbLine
10
116.97426845499911
20
45.932707548879918
30
0
11
119.4366155604105
21
45.958582175866567
31
0
0
LINE
5
456
100
AcDbEntity
8
0
100
AcDbLine
10
119.4366155604105
20
45.958582175866567
30
0
11
119.44281543358672
21
45.368574065711762
31
0
0
LINE
5
457
100
AcDbEntity
8
0
100
AcDbLine
10
119.4428154335867
20
45.368574065711762
30
0
11
116.31884051142869
21
45.33574697742317
31
0
0
LINE
5
458
100
AcDbEntity
8
0
100
AcDbLine
10
119.98866070007858
20
46.98081049248308
30
0
11
120.61220020151836
21
47.041935868582755
31
0
0
SPLINE
5
459
100
AcDbEntity
8
0
100
AcDbSpline
70
0
71
2
72
6
73
3
74
0
42
0.000000001
43
0.0000000001
44
0.0000000001
40
0
40
0
40
0
40
1
40
1
40
1
10
120.61220020151836
20
47.041935868582755
30
0
10
120.66047827515558
20
46.66725205778414
30
0
10
120.82500129811311
20
46.428517108252514
30
0
0
SPLINE
5
460
100
AcDbEntity
8
0
100
AcDbSpline
70
0
71
2
72
6
73
3
74
0
42
0.000000001
43
0.0000000001
44
0.0000000001
40
0
40
0
40
0
40
1
40
1
40
1
10
120.82500129811311
20
46.428517108252514
30
0
10
120.98952431480768
20
46.189782754734438
30
0
10
121.33212815464155
20
46.045011571002455
30
0
0
SPLINE
5
461
100
AcDbEntity
8
0
100
AcDbSpline
70
0
71
2
72
6
73
3
74
0
42
0.000000001
43
0.0000000001
44
0.0000000001
40
0
40
0
40
0
40
1
40
1
40
1
10
121.33212815464155
20
46.045011571002455
30
0
10
121.67473258422601
20
45.900240989547001
30
0
10
122.10103901875397
20
45.904720666661234
30
0
0
SPLINE
5
462
100
AcDbEntity
8
0
100
AcDbSpline
70
0
71
2
72
6
73
3
74
0
42
0.000000001
43
0.0000000001
44
0.0000000001
40
0
40
0
40
0
40
1
40
1
40
1
10
122.10103901875397
20
45.904720666661234
30
0
10
122.47959940439698
20
45.908698622794603
30
0
10
122.76830583919914
20
46.024289451734866
30
0
0
SPLINE
5
463
100
AcDbEntity
8
0
100
AcDbSpline
70
0
71
2
72
6
73
3
74
0
42
0.000000001
43
0.0000000001
44
0.0000000001
40
0
40
0
40
0
40
1
40
1
40
1
10
122.76830583919914
20
46.024289451734866
30
0
10
123.05701107571124
20
46.139880864162713
30
0
10
123.19648456804998
20
46.337469093051659
30
0
0
SPLINE
5
464
100
AcDbEntity
8
0
100
AcDbSpline
70
0
71
2
72
6
73
3
74
0
42
0.000000001
43
0.0000000001
44
0.0000000001
40
0
40
0
40
0
40
1
40
1
40
1
10
123.19648456804998
20
46.337469093051659
30
0
10
123.33595806038872
20
46.535057321940592
30
0
10
123.33352111648951
20
46.766967979410829
30
0
0
SPLINE
5
465
100
AcDbEntity
8
0
100
AcDbSpline
70
0
71
2
72
6
73
3
74
0
42
0.000000001
43
0.0000000001
44
0.0000000001
40
0
40
0
40
0
40
1
40
1
40
1
10
123.33352111648951
20
46.766967979410829
30
0
10
123.33104833269324
20
47.002289324378651
30
0
10
123.19278414511999
20
47.176494159292659
30
0
0
SPLINE
5
466
100
AcDbEntity
8
0
100
AcDbSpline
70
0
71
2
72
6
73
3
74
0
42
0.000000001
43
0.0000000001
44
0.0000000001
40
0
40
0
40
0
40
1
40
1
40
1
10
123.19278414511999
20
47.176494159292659
30
0
10
123.05452055669177
20
47.350698702462878
30
0
10
122.73950445155467
20
47.466767673633896
30
0
0
SPLINE
5
467
100
AcDbEntity
8
0
100
AcDbSpline
70
0
71
2
72
6
73
3
74
0
42
0.000000001
43
0.0000000001
44
0.0000000001
40
0
40
0
40
0
40
1
40
1
40
1
10
122.73950445155467
20
47.466767673633896
30
0
10
122.53746303823635
20
47.543093708947374
30
0
10
121.84681373036253
20
47.70126142115312
30
0
0
SPLINE
5
468
100
AcDbEntity
8
0
100
AcDbSpline
70
0
71
2
72
6
73
3
74
0
42
0.000000001
43
0.0000000001
44
0.0000000001
40
0
40
0
40
0
40
1
40
1
40
1
10
121.84681373036253
20
47.70126142115312
30
0
10
121.15616441935721
20
47.859429431365641
30
0
10
120.87837649737664
20
48.003176027154133
30
0
0
SPLINE
5
469
100
AcDbEntity
8
0
100
AcDbSpline
70
0
71
2
72
6
73
3
74
0
42
0.000000001
43
0.0000000001
44
0.0000000001
40
0
40
0
40
0
40
1
40
1
40
1
10
120.87837649737664
20
48.003176027154133
30
0
10
120.51830798500816
20
48.186988095953225
30
0
10
120.33974889852789
20
48.463094277696854
30
0
0
SPLINE
5
470
100
AcDbEntity
8
0
100
AcDbSpline
70
0
71
2
72
6
73
3
74
0
42
0.000000001
43
0.0000000001
44
0.0000000001
40
0
40
0
40
0
40
1
40
1
40
1
10
120.33974889852789
20
48.463094277696854
30
0
10
120.16118981204762
20
48.739200459440468
30
0
10
120.15757022983288
20
49.083656354161782
30
0
0
SPLINE
5
471
100
AcDbEntity
8
0
100
AcDbSpline
70
0
71
2
72
6
73
3
74
0
42
0.000000001
43
0.0000000001
44
0.0000000001
40
0
40
0
40
0
40
1
40
1
40
1
10
120.15757022983288
20
49.083656354161782
30
0
10
120.15359227683101
20
49.462216441798013
30
0
10
120.36499237520218
20
49.793583042743784
30
0
0
SPLINE
5
472
100
AcDbEntity
8
0
100
AcDbSpline
70
0
71
2
72
6
73
3
74
0
42
0.000000001
43
0.0000000001
44
0.0000000001
40
0
40
0
40
0
40
1
40
1
40
1
10
120.36499237520218
20
49.793583042743784
30
0
10
120.57639277471162
20
50.124949348814269
30
0
10
120.98726548054495
20
50.299808428350012
30
0
0
SPLINE
5
473
100
AcDbEntity
8
0
100
AcDbSpline
70
0
71
2
72
6
73
3
74
0
42
0.000000001
43
0.0000000001
44
0.0000000001
40
0
40
0
40
0
40
1
40
1
40
1
10
120.98726548054495
20
50.299808428350012
30
0
10
121.39813848751656
20
50.474667213010463
30
0
10
121.9028856683739
20
50.479971154521614
30
0
0
SPLINE
5
474
100
AcDbEntity
8
0
100
AcDbSpline
70
0
71
2
72
6
73
3
74
0
42
0.000000001
43
0.0000000001
44
0.0000000001
40
0
40
0
40
0
40
1
40
1
40
1
10
121.9028856683739
20
50.479971154521614
30
0
10
122.45878928760702
20
50.485812653779199
30
0
10
122.8852725880416
20
50.31122569243135
30
0
0
SPLINE
5
475
100
AcDbEntity
8
0
100
AcDbSpline
70
0
71
2
72
6
73
3
74
0
42
0.000000001
43
0.0000000001
44
0.0000000001
40
0
40
0
40
0
40
1
40
1
40
1
10
122.8852725880416
20
50.31122569243135
30
0
10
123.31175529246265
20
50.136638724820521
30
0
10
123.54391097942238
20
49.791173547742048
30
0
0
SPLINE
5
476
100
AcDbEntity
8
0
100
AcDbSpline
70
0
71
2
72
6
73
3
74
0
42
0.000000001
43
0.0000000001
44
0.0000000001
40
0
40
0
40
0
40
1
40
1
40
1
10
123.54391097942238
20
49.791173547742048
30
0
10
123.77606666325062
20
49.445708668670335
30
0
10
123.79774164114417
20
49.005939263993398
30
0
0
LINE
5
477
100
AcDbEntity
8
0
100
AcDbLine
10
123.79774164114417
20
49.005939263993398
30
0
11
123.16389899969406
21
48.951527153447174
31
0
0
SPLINE
5
478
100
AcDbEntity
8
0
100
AcDbSpline
70
0
71
2
72
6
73
3
74
0
42
0.000000001
43
0.0000000001
44
0.0000000001
40
0
40
0
40
0
40
1
40
1
40
1
10
123.16389899969406
20
48.951527153447174
30
0
10
123.10776115696018
20
49.425042675127187
30
0
10
122.81021264455539
20
49.664084862488536
30
0
0
SPLINE
5
479
100
AcDbEntity
8
0
100
AcDbSpline
70
0
71
2
72
6
73
3
74
0
42
0.000000001
43
0.0000000001
44
0.0000000001
40
0
40
0
40
0
40
1
40
1
40
1
10
122.81021264455539
20
49.664084862488536
30
0
10
122.51266353613704
20
49.903127043586906
30
0
10
121.93629757995905
20
49.897070523735934
30
0
0
SPLINE
5
480
100
AcDbEntity
8
0
100
AcDbSpline
70
0
71
2
72
6
73
3
74
0
42
0.000000001
43
0.0000000001
44
0.0000000001
40
0
40
0
40
0
40
1
40
1
40
1
10
121.93629757995905
20
49.897070523735934
30
0
10
121.33605770531824
20
49.890763134000053
30
0
10
121.06382750240547
20
49.667903923752952
30
0
0
SPLINE
5
481
100
AcDbEntity
8
0
100
AcDbSpline
70
0
71
2
72
6
73
3
74
0
42
0.000000001
43
0.0000000001
44
0.0000000001
40
0
40
0
40
0
40
1
40
1
40
1
10
121.06382750240547
20
49.667903923752952
30
0
10
120.79159789237477
20
49.445045017775598
30
0
10
120.79485910067089
20
49.134693613975983
30
0
0
SPLINE
5
482
100
AcDbEntity
8
0
100
AcDbSpline
70
0
71
2
72
6
73
3
74
0
42
0.000000001
43
0.0000000001
44
0.0000000001
40
0
40
0
40
0
40
1
40
1
40
1
10
120.79485910067089
20
49.134693613975983
30
0
10
120.79769025525428
20
48.865268076093244
30
0
10
120.99391374180215
20
48.693377667202206
30
0
0
SPLINE
5
483
100
AcDbEntity
8
0
100
AcDbSpline
70
0
71
2
72
6
73
3
74
0
42
0.000000001
43
0.0000000001
44
0.0000000001
40
0
40
0
40
0
40
1
40
1
40
1
10
120.99391374180215
20
48.693377667202206
30
0
10
121.18672683885922
20
48.521451421545606
30
0
10
121.99521615517965
20
48.347467857342885
30
0
0
SPLINE
5
484
100
AcDbEntity
8
0
100
AcDbSpline
70
0
71
2
72
6
73
3
74
0
42
0.000000001
43
0.0000000001
44
0.0000000001
40
0
40
0
40
0
40
1
40
1
40
1
10
121.99521615517965
20
48.347467857342885
30
0
10
122.80370547463157
20
48.173483995133395
30
0
10
123.10525860961968
20
48.040219723183064
30
0
0
SPLINE
5
485
100
AcDbEntity
8
0
100
AcDbSpline
70
0
71
2
72
6
73
3
74
0
42
0.000000001
43
0.0000000001
44
0.0000000001
40
0
40
0
40
0
40
1
40
1
40
1
10
123.10525860961968
20
48.040219723183064
30
0
10
123.54391122164276
20
47.843589764804079
30
0
10
123.75519184031411
20
47.537130232040695
30
0
0
SPLINE
5
486
100
AcDbEntity
8
0
100
AcDbSpline
70
0
71
2
72
6
73
3
74
0
42
0.000000001
43
0.0000000001
44
0.0000000001
40
0
40
0
40
0
40
1
40
1
40
1
10
123.75519184031411
20
47.537130232040695
30
0
10
123.96647306126198
20
47.230670109526756
30
0
10
123.97070187475428
20
46.828236997448045
30
0
0
SPLINE
5
487
100
AcDbEntity
8
0
100
AcDbSpline
70
0
71
2
72
6
73
3
74
0
42
0.000000001
43
0.0000000001
44
0.0000000001
40
0
40
0
40
0
40
1
40
1
40
1
10
123.97070187475428
20
46.828236997448045
30
0
10
123.97489485774402
20
46.429213678846608
30
0
10
123.75010376389325
20
46.073830703264605
30
0
0
SPLINE
5
488
100
AcDbEntity
8
0
100
AcDbSpline
70
0
71
2
72
6
73
3
74
0
42
0.000000001
43
0.0000000001
44
0.0000000001
40
0
40
0
40
0
40
1
40
1
40
1
10
123.75010376389325
20
46.073830703264605
30
0
10
123.5253126637795
20
45.718448323696151
30
0
10
123.09936109635338
20
45.517849154119489
30
0
0
SPLINE
5
489
100
AcDbEntity
8
0
100
AcDbSpline
70
0
71
2
72
6
73
3
74
0
42
0.000000001
43
0.0000000001
44
0.0000000001
40
0
40
0
40
0
40
1
40
1
40
1
10
123.09936109635338
20
45.517849154119489
30
0
10
122.67341011867782
20
45.317250586819327
30
0
10
122.13796943240314
20
45.311624114418109
30
0
0
SPLINE
5
490
100
AcDbEntity
8
0
100
AcDbSpline
70
0
71
2
72
6
73
3
74
0
42
0.000000001
43
0.0000000001
44
0.0000000001
40
0
40
0
40
0
40
1
40
1
40
1
10
122.13796943240314
20
45.311624114418109
30
0
10
121.45928881143297
20
45.304492460285317
30
0
10
120.99850451074813
20
45.497478494183781
30
0
0
SPLINE
5
491
100
AcDbEntity
8
0
100
AcDbSpline
70
0
71
2
72
6
73
3
74
0
42
0.000000001
43
0.0000000001
44
0.0000000001
40
0
40
0
40
0
40
1
40
1
40
1
10
120.99850451074813
20
45.497478494183781
30
0
10
120.53771990579355
20
45.690465120964291
30
0
10
120.27264528329385
20
46.085041086137302
30
0
0
SPLINE
5
492
100
AcDbEntity
8
0
100
AcDbSpline
70
0
71
2
72
6
73
3
74
0
42
0.000000001
43
0.0000000001
44
0.0000000001
40
0
40
0
40
0
40
1
40
1
40
1
10
120.27264528329385
20
46.085041086137302
30
0
10
120.00757066079419
20
46.479617051310306
30
0
10
119.98866070007858
20
46.98081049248308
30
0
0
LINE
5
493
100
AcDbEntity
8
0
100
AcDbLine
10
125.76238546875558
20
45.434980835503339
30
0
11
124.38318124891796
21
50.420764042301599
31
0
0
LINE
5
494
100
AcDbEntity
8
0
100
AcDbLine
10
124.38318124891796
20
50.420764042301599
30
0
11
125.0618612738746
21
50.427895690171418
31
0
0
LINE
5
495
100
AcDbEntity
8
0
100
AcDbLine
10
125.0618612738746
20
50.427895690171418
30
0
11
125.85683280119591
21
47.158442351411878
31
0
0
SPLINE
5
496
100
AcDbEntity
8
0
100
AcDbSpline
70
0
71
2
72
6
73
3
74
0
42
0.000000001
43
0.0000000001
44
0.0000000001
40
0
40
0
40
0
40
1
40
1
40
1
10
125.85683280119591
20
47.158442351411878
30
0
10
125.98501946670019
20
46.644754138168366
30
0
10
126.07903175579227
20
46.13752834877679
30
0
0
SPLINE
5
497
100
AcDbEntity
8
0
100
AcDbSpline
70
0
71
2
72
6
73
3
74
0
42
0.000000001
43
0.0000000001
44
0.0000000001
40
0
40
0
40
0
40
1
40
1
40
1
10
126.07903175579227
20
46.13752834877679
30
0
10
126.26159534687714
20
46.940991675906396
30
0
10
126.29440909317307
20
47.06412644928556
30
0
0
LINE
5
498
100
AcDbEntity
8
0
100
AcDbLine
10
126.29440909317307
20
47.06412644928556
30
0
11
127.21044658599554
21
50.450473272096382
31
0
0
LINE
5
499
100
AcDbEntity
8
0
100
AcDbLine
10
127.21044658599556
20
50.450473272096382
30
0
11
128.00849203117136
21
50.458859225549872
31
0
0
LINE
5
500
100
AcDbEntity
8
0
100
AcDbLine
10
128.00849203117136
20
50.458859225549872
30
0
11
128.75127950339146
21
47.935829009375048
31
0
0
SPLINE
5
501
100
AcDbEntity
8
0
100
AcDbSpline
70
0
71
2
72
6
73
3
74
0
42
0.000000001
43
0.0000000001
44
0.0000000001
40
0
40
0
40
0
40
1
40
1
40
1
10
128.75127950339146
20
47.935829009375048
30
0
10
129.0305961701963
20
46.997375380100692
30
0
10
129.15867068329851
20
46.169889549327145
30
0
0
SPLINE
5
502
100
AcDbEntity
8
0
100
AcDbSpline
70
0
71
2
72
6
73
3
74
0
42
0.000000001
43
0.0000000001
44
0.0000000001
40
0
40
0
40
0
40
1
40
1
40
1
10
129.15867068329851
20
46.169889549327145
30
0
10
129.24918137671034
20
46.644946070715356
30
0
10
129.39620174308016
20
47.26044019534767
30
0
0
LINE
5
503
100
AcDbEntity
8
0
100
AcDbLine
10
129.39620174308016
20
47.26044019534767
30
0
11
130.14684677083341
21
50.481329303441129
31
0
0
LINE
5
504
100
AcDbEntity
8
0
100
AcDbLine
10
130.14684677083341
20
50.481329303441129
30
0
11
130.81188464181324
21
50.488317597985706
31
0
0
LINE
5
505
100
AcDbEntity
8
0
100
AcDbLine
10
130.81188464181324
20
50.488317597985706
30
0
11
129.49342070927838
21
45.474186983536022
31
0
0
LINE
5
506
100
AcDbEntity
8
0
100
AcDbLine
10
129.49342070927838
20
45.474186983536022
30
0
11
128.85566595422509
21
45.467485383115957
31
0
0
LINE
5
507
100
AcDbEntity
8
0
100
AcDbLine
10
128.85566595422512
20
45.467485383115957
30
0
11
127.76180492467316
21
49.265887596467564
31
0
0
SPLINE
5
508
100
AcDbEntity
8
0
100
AcDbSpline
70
0
71
2
72
6
73
3
74
0
42
0.000000001
43
0.0000000001
44
0.0000000001
40
0
40
0
40
0
40
1
40
1
40
1
10
127.76180492467316
20
49.265887596467564
30
0
10
127.6237813013806
20
49.741953419001888
30
0
10
127.59876058763082
20
49.850836800863696
30
0
0
SPLINE
5
509
100
AcDbEntity
8
0
100
AcDbSpline
70
0
71
2
72
6
73
3
74
0
42
0.000000001
43
0.0000000001
44
0.0000000001
40
0
40
0
40
0
40
1
40
1
40
1
10
127.59876058763082
20
49.850836800863696
30
0
10
127.52394001639826
20
49.505556946015226
30
0
10
127.45827549188223
20
49.262698074228538
30
0
0
LINE
5
510
100
AcDbEntity
8
0
100
AcDbLine
10
127.45827549188223
20
49.262698074228538
30
0
11
126.43765450820783
21
45.442076640344609
31
0
0
LINE
5
511
100
AcDbEntity
8
0
100
AcDbLine
10
126.43765450820783
20
45.442076640344609
30
0
11
125.76238546875557
21
45.434980835503339
31
0
0
LINE
5
512
100
AcDbEntity
8
0
100
AcDbLine
10
41.075689781503399
20
44.695475915511352
30
0
11
41.006847050039148
21
49.695001960880504
31
0
0
LINE
5
513
100
AcDbEntity
8
0
100
AcDbLine
10
41.006847050039141
20
49.695001960880518
30
0
11
42.002659871785688
21
49.708714155607353
31
0
0
LINE
5
514
100
AcDbEntity
8
0
100
AcDbLine
10
42.002659871785688
20
49.708714155607353
30
0
11
43.234784115076963
21
46.185099115962387
31
0
0
SPLINE
5
515
100
AcDbEntity
8
0
100
AcDbSpline
70
0
71
2
72
6
73
3
74
0
42
0.000000001
43
0.0000000001
44
0.0000000001
40
0
40
0
40
0
40
1
40
1
40
1
10
43.234784115076963
20
46.185099115962387
30
0
10
43.405288746577341
20
45.692857040835264
30
0
10
43.483696620866617
20
45.448347653954315
30
0
0
SPLINE
5
516
100
AcDbEntity
8
0
100
AcDbSpline
70
0
71
2
72
6
73
3
74
0
42
0.000000001
43
0.0000000001
44
0.0000000001
40
0
40
0
40
0
40
1
40
1
40
1
10
43.483696620866617
20
45.448347653954315
30
0
10
43.5651977114061
20
45.722346768417559
30
0
10
43.738666041308171
20
46.253434907228517
30
0
0
LINE
5
517
100
AcDbEntity
8
0
100
AcDbLine
10
43.738666041308171
20
46.253434907228517
30
0
11
44.887788653843231
21
49.748441950638323
31
0
0
LINE
5
518
100
AcDbEntity
8
0
100
AcDbLine
10
44.887788653843231
20
49.748441950638323
30
0
11
45.777881761421682
21
49.760698400595174
31
0
0
LINE
5
519
100
AcDbEntity
8
0
100
AcDbLine
10
45.777881761421682
20
49.760698400595174
30
0
11
45.846724492885933
21
44.761172355226023
31
0
0
LINE
5
520
100
AcDbEntity
8
0
100
AcDbLine
10
45.84672449288594
20
44.761172355226023
30
0
11
45.208994984911484
21
44.752390914572295
31
0
0
LINE
5
521
100
AcDbEntity
8
0
100
AcDbLine
10
45.208994984911484
20
44.752390914572288
30
0
11
45.151375591532101
21
48.936850940946741
31
0
0
LINE
5
522
100
AcDbEntity
8
0
100
AcDbLine
10
45.151375591532101
20
48.936850940946741
30
0
11
43.756199457942337
21
44.732386135833707
31
0
0
LINE
5
523
100
AcDbEntity
8
0
100
AcDbLine
10
43.756199457942337
20
44.732386135833707
30
0
11
43.159393897739463
21
44.724168211865624
31
0
0
LINE
5
524
100
AcDbEntity
8
0
100
AcDbLine
10
43.159393897739463
20
44.724168211865631
30
0
11
41.654813631176296
21
48.960334215102321
31
0
0
LINE
5
525
100
AcDbEntity
8
0
100
AcDbLine
10
41.654813631176296
20
48.960334215102321
30
0
11
41.713419177729733
21
44.704257354626336
31
0
0
LINE
5
526
100
AcDbEntity
8
0
100
AcDbLine
10
41.713419177729733
20
44.704257354626336
30
0
11
41.075689781503399
21
44.695475915511352
31
0
0
LINE
5
527
100
AcDbEntity
8
0
100
AcDbLine
10
48.186202574956347
20
44.793386621120135
30
0
11
48.125483850064263
21
49.202927615250864
31
0
0
LINE
5
528
100
AcDbEntity
8
0
100
AcDbLine
10
48.125483850064271
20
49.202927615250864
30
0
11
46.478300539663763
21
49.18024614559134
31
0
0
LINE
5
529
100
AcDbEntity
8
0
100
AcDbLine
10
46.478300539663749
20
49.180246145591354
30
0
11
46.470176533091575
21
49.770231196829769
31
0
0
LINE
5
530
100
AcDbEntity
8
0
100
AcDbLine
10
46.470176533091575
20
49.770231196829769
30
0
11
50.432965548197004
21
49.82479821329094
31
0
0
LINE
5
531
100
AcDbEntity
8
0
100
AcDbLine
10
50.432965548197011
20
49.82479821329094
30
0
11
50.441089554769185
21
49.234813162052518
31
0
0
LINE
5
532
100
AcDbEntity
8
0
100
AcDbLine
10
50.441089554769178
20
49.234813162052518
30
0
11
48.787085735404219
21
49.212037774997064
31
0
0
LINE
5
533
100
AcDbEntity
8
0
100
AcDbLine
10
48.787085735404219
20
49.212037774997064
30
0
11
48.847804460296302
21
44.802496780866335
31
0
0
LINE
5
534
100
AcDbEntity
8
0
100
AcDbLine
10
48.847804460296302
20
44.802496780866335
30
0
11
48.186202574956347
21
44.793386621120142
31
0
0
LINE
5
535
100
AcDbEntity
8
0
100
AcDbLine
10
51.190692796848936
20
44.834758005458411
30
0
11
51.121850065384685
21
49.834284050827563
31
0
0
LINE
5
536
100
AcDbEntity
8
0
100
AcDbLine
10
51.121850065384677
20
49.834284050827563
30
0
11
53.338557198125258
21
49.864807778974779
31
0
0
SPLINE
5
537
100
AcDbEntity
8
0
100
AcDbSpline
70
0
71
2
72
6
73
3
74
0
42
0.000000001
43
0.0000000001
44
0.0000000001
40
0
40
0
40
0
40
1
40
1
40
1
10
53.338557198125258
20
49.864807778974779
30
0
10
54.006978996439713
20
49.874011847910218
30
0
10
54.356685814922301
20
49.744094281162255
30
0
0
SPLINE
5
538
100
AcDbEntity
8
0
100
AcDbSpline
70
0
71
2
72
6
73
3
74
0
42
0.000000001
43
0.0000000001
44
0.0000000001
40
0
40
0
40
0
40
1
40
1
40
1
10
54.356685814922301
20
49.744094281162255
30
0
10
54.706393829488142
20
49.614176432832693
30
0
10
54.919118884810374
20
49.27600925653222
30
0
0
SPLINE
5
539
100
AcDbEntity
8
0
100
AcDbSpline
70
0
71
2
72
6
73
3
74
0
42
0.000000001
43
0.0000000001
44
0.0000000001
40
0
40
0
40
0
40
1
40
1
40
1
10
54.919118884810374
20
49.27600925653222
30
0
10
55.131843940132612
20
48.937842080231732
30
0
10
55.137526049273674
20
48.525193540013561
30
0
0
SPLINE
5
540
100
AcDbEntity
8
0
100
AcDbSpline
70
0
71
2
72
6
73
3
74
0
42
0.000000001
43
0.0000000001
44
0.0000000001
40
0
40
0
40
0
40
1
40
1
40
1
10
55.137526049273674
20
48.525193540013561
30
0
10
55.14485174156701
20
47.993184006952809
30
0
10
54.805434754022599
20
47.623537012909047
30
0
0
SPLINE
5
541
100
AcDbEntity
8
0
100
AcDbSpline
70
0
71
2
72
6
73
3
74
0
42
0.000000001
43
0.0000000001
44
0.0000000001
40
0
40
0
40
0
40
1
40
1
40
1
10
54.805434754022599
20
47.623537012909047
30
0
10
54.466017766478181
20
47.253890018865278
30
0
10
53.747802785811643
20
47.145082385092671
30
0
0
SPLINE
5
542
100
AcDbEntity
8
0
100
AcDbSpline
70
0
71
2
72
6
73
3
74
0
42
0.000000001
43
0.0000000001
44
0.0000000001
40
0
40
0
40
0
40
1
40
1
40
1
10
53.747802785811643
20
47.145082385092671
30
0
10
54.012133461533978
20
47.022516454274303
30
0
10
54.150236570736247
20
46.901623289699984
30
0
0
SPLINE
5
543
100
AcDbEntity
8
0
100
AcDbSpline
70
0
71
2
72
6
73
3
74
0
42
0.000000001
43
0.0000000001
44
0.0000000001
40
0
40
0
40
0
40
1
40
1
40
1
10
54.150236570736247
20
46.901623289699984
30
0
10
54.443777005719582
20
46.639610243561236
30
0
10
54.708455384533877
20
46.244171945965988
30
0
0
LINE
5
544
100
AcDbEntity
8
0
100
AcDbLine
10
54.708455384533877
20
46.244171945965988
30
0
11
55.596823834492426
21
44.895429775755716
31
0
0
LINE
5
545
100
AcDbEntity
8
0
100
AcDbLine
10
55.596823834492426
20
44.895429775755716
30
0
11
54.764706245091645
21
44.883971640077689
31
0
0
LINE
5
546
100
AcDbEntity
8
0
100
AcDbLine
10
54.764706245091631
20
44.883971640077689
30
0
11
54.088782282040725
21
45.915008773284143
31
0
0
SPLINE
5
547
100
AcDbEntity
8
0
100
AcDbSpline
70
0
71
2
72
6
73
3
74
0
42
0.000000001
43
0.0000000001
44
0.0000000001
40
0
40
0
40
0
40
1
40
1
40
1
10
54.088782282040725
20
45.915008773284143
30
0
10
53.792706032230335
20
46.361178839407586
30
0
10
53.601851289360532
20
46.597318345459371
30
0
0
SPLINE
5
548
100
AcDbEntity
8
0
100
AcDbSpline
70
0
71
2
72
6
73
3
74
0
42
0.000000001
43
0.0000000001
44
0.0000000001
40
0
40
0
40
0
40
1
40
1
40
1
10
53.601851289360532
20
46.597318345459371
30
0
10
53.410996546490722
20
46.833457851511156
30
0
10
53.261332628401171
20
46.926904020588168
30
0
0
SPLINE
5
549
100
AcDbEntity
8
0
100
AcDbSpline
70
0
71
2
72
6
73
3
74
0
42
0.000000001
43
0.0000000001
44
0.0000000001
40
0
40
0
40
0
40
1
40
1
40
1
10
53.261332628401171
20
46.926904020588168
30
0
10
53.111668710311619
20
47.020350189665187
30
0
10
52.957688320767502
20
47.055750410724279
30
0
0
SPLINE
5
550
100
AcDbEntity
8
0
100
AcDbSpline
70
0
71
2
72
6
73
3
74
0
42
0.000000001
43
0.0000000001
44
0.0000000001
40
0
40
0
40
0
40
1
40
1
40
1
10
52.957688320767502
20
47.055750410724279
30
0
10
52.844818823905271
20
47.078072820235121
30
0
10
52.589044969819049
20
47.074550852234026
30
0
0
LINE
5
551
100
AcDbEntity
8
0
100
AcDbLine
10
52.589044969819049
20
47.074550852234026
30
0
11
51.82172340756037
21
47.063984948230768
31
0
0
LINE
5
552
100
AcDbEntity
8
0
100
AcDbLine
10
51.82172340756037
20
47.063984948230768
30
0
11
51.852294086198938
21
44.843868156997921
31
0
0
LINE
5
553
100
AcDbEntity
8
0
100
AcDbLine
10
51.852294086198938
20
44.843868156997921
30
0
11
51.190692796848936
21
44.834758005458411
31
0
0
LINE
5
554
100
AcDbEntity
8
0
100
AcDbLine
10
51.813834198581375
20
47.636918429063108
30
0
11
53.235937733205503
21
47.65650058362332
31
0
0
SPLINE
5
555
100
AcDbEntity
8
0
100
AcDbSpline
70
0
71
2
72
6
73
3
74
0
42
0.000000001
43
0.0000000001
44
0.0000000001
40
0
40
0
40
0
40
1
40
1
40
1
10
53.235937733205517
20
47.656500583623327
30
0
10
53.689509923200298
20
47.662746205346664
30
0
10
53.943991196492441
20
47.760051943165315
30
0
0
SPLINE
5
556
100
AcDbEntity
8
0
100
AcDbSpline
70
0
71
2
72
6
73
3
74
0
42
0.000000001
43
0.0000000001
44
0.0000000001
40
0
40
0
40
0
40
1
40
1
40
1
10
53.943991196492441
20
47.760051943165315
30
0
10
54.198474853744386
20
47.857357713810735
30
0
10
54.328636107940298
20
48.065513405967309
30
0
0
SPLINE
5
557
100
AcDbEntity
8
0
100
AcDbSpline
70
0
71
2
72
6
73
3
74
0
42
0.000000001
43
0.0000000001
44
0.0000000001
40
0
40
0
40
0
40
1
40
1
40
1
10
54.328636107940298
20
48.065513405967309
30
0
10
54.45879736213621
20
48.273669098123897
30
0
10
54.455463233030336
20
48.515801636286255
30
0
0
SPLINE
5
558
100
AcDbEntity
8
0
100
AcDbSpline
70
0
71
2
72
6
73
3
74
0
42
0.000000001
43
0.0000000001
44
0.0000000001
40
0
40
0
40
0
40
1
40
1
40
1
10
54.455463233030336
20
48.515801636286255
30
0
10
54.450579438168106
20
48.870474658326756
30
0
10
54.189953570640156
20
49.095420425008491
30
0
0
SPLINE
5
559
100
AcDbEntity
8
0
100
AcDbSpline
70
0
71
2
72
6
73
3
74
0
42
0.000000001
43
0.0000000001
44
0.0000000001
40
0
40
0
40
0
40
1
40
1
40
1
10
54.189953570640156
20
49.095420425008491
30
0
10
53.929328890988764
20
49.320366506098594
30
0
10
53.373446682567533
20
49.312712090609459
30
0
0
LINE
5
560
100
AcDbEntity
8
0
100
AcDbLine
10
53.373446682567533
20
49.312712090609459
30
0
11
51.791058803319174
21
49.290922844418013
31
0
0
LINE
5
561
100
AcDbEntity
8
0
100
AcDbLine
10
51.791058803319174
20
49.290922844418013
30
0
11
51.813834198581375
21
47.636918429063108
31
0
0
LINE
5
562
100
AcDbEntity
8
0
100
AcDbLine
10
26.874941333258633
20
89.466374428696597
30
0
11
27.233058658490066
21
89.515487761921847
31
0
0
SPLINE
5
563
100
AcDbEntity
8
0
100
AcDbSpline
70
0
71
2
72
6
73
3
74
0
42
0.000000001
43
0.0000000001
44
0.0000000001
40
0
40
0
40
0
40
1
40
1
40
1
10
27.233058658490066
20
89.515487761921847
30
0
10
27.247383331010226
20
89.171695025391543
30
0
10
27.361980897436027
20
89.044819386429751
30
0
0
SPLINE
5
564
100
AcDbEntity
8
0
100
AcDbSpline
70
0
71
2
72
6
73
3
74
0
42
0.000000001
43
0.0000000001
44
0.0000000001
40
0
40
0
40
0
40
1
40
1
40
1
10
27.361980897436027
20
89.044819386429751
30
0
10
27.476578426608924
20
88.917943449444735
30
0
10
27.679170516381149
20
88.917943449444735
30
0
0
SPLINE
5
565
100
AcDbEntity
8
0
100
AcDbSpline
70
0
71
2
72
6
73
3
74
0
42
0.000000001
43
0.0000000001
44
0.0000000001
40
0
40
0
40
0
40
1
40
1
40
1
10
27.679170516381149
20
88.917943449444735
30
0
10
27.828556594500427
20
88.917943449444735
30
0
10
27.937014994273071
20
88.986497433609927
30
0
0
SPLINE
5
566
100
AcDbEntity
8
0
100
AcDbSpline
70
0
71
2
72
6
73
3
74
0
42
0.000000001
43
0.0000000001
44
0.0000000001
40
0
40
0
40
0
40
1
40
1
40
1
10
27.937014994273071
20
88.986497433609927
30
0
10
28.045473394045715
20
89.055051119751894
30
0
10
28.086401072392349
20
89.172718437142336
30
0
0
SPLINE
5
567
100
AcDbEntity
8
0
100
AcDbSpline
70
0
71
2
72
6
73
3
74
0
42
0.000000001
43
0.0000000001
44
0.0000000001
40
0
40
0
40
0
40
1
40
1
40
1
10
28.086401072392349
20
89.172718437142336
30
0
10
28.127328750738982
20
89.290385456509554
30
0
10
28.127328750738982
20
89.548230083413088
30
0
0
LINE
5
568
100
AcDbEntity
8
0
100
AcDbLine
10
28.127328750738982
20
89.548230083413088
30
0
11
28.127328750738982
21
91.615078659481966
31
0
0
LINE
5
569
100
AcDbEntity
8
0
100
AcDbLine
10
28.127328750738986
20
91.615078659481966
30
0
11
28.52432742441643
21
91.615078659481966
31
0
0
LINE
5
570
100
AcDbEntity
8
0
100
AcDbLine
10
28.52432742441643
20
91.615078659481966
30
0
11
28.52432742441643
21
89.570740373558962
31
0
0
SPLINE
5
571
100
AcDbEntity
8
0
100
AcDbSpline
70
0
71
2
72
6
73
3
74
0
42
0.000000001
43
0.0000000001
44
0.0000000001
40
0
40
0
40
0
40
1
40
1
40
1
10
28.524327424416427
20
89.570740373558962
30
0
10
28.524327424416427
20
89.194205315537417
30
0
10
28.433263299116973
20
88.987520547337496
30
0
0
SPLINE
5
572
100
AcDbEntity
8
0
100
AcDbSpline
70
0
71
2
72
6
73
3
74
0
42
0.000000001
43
0.0000000001
44
0.0000000001
40
0
40
0
40
0
40
1
40
1
40
1
10
28.433263299116973
20
88.987520547337496
30
0
10
28.342199173817519
20
88.780835779137576
30
0
10
28.144723025212173
20
88.672377379364931
30
0
0
SPLINE
5
573
100
AcDbEntity
8
0
100
AcDbSpline
70
0
71
2
72
6
73
3
74
0
42
0.000000001
43
0.0000000001
44
0.0000000001
40
0
40
0
40
0
40
1
40
1
40
1
10
28.144723025212173
20
88.672377379364931
30
0
10
27.947246951112632
20
88.563918979592287
30
0
10
27.6812168928479
20
88.563918979592287
30
0
0
SPLINE
5
574
100
AcDbEntity
8
0
100
AcDbSpline
70
0
71
2
72
6
73
3
74
0
42
0.000000001
43
0.0000000001
44
0.0000000001
40
0
40
0
40
0
40
1
40
1
40
1
10
27.6812168928479
20
88.563918979592287
30
0
10
27.286264670143012
20
88.563918979592287
30
0
10
27.076510225484256
20
88.791067512459719
30
0
0
SPLINE
5
575
100
AcDbEntity
8
0
100
AcDbSpline
70
0
71
2
72
6
73
3
74
0
42
0.000000001
43
0.0000000001
44
0.0000000001
40
0
40
0
40
0
40
1
40
1
40
1
10
27.076510225484256
20
88.791067512459719
30
0
10
26.866755790138726
20
89.018216343350375
30
0
10
26.874941333258633
20
89.466374428696597
30
0
0
LINE
5
576
100
AcDbEntity
8
0
100
AcDbLine
10
30.411094126353149
20
88.615078540272677
30
0
11
30.042744872221832
21
88.615078540272677
31
0
0
LINE
5
577
100
AcDbEntity
8
0
100
AcDbLine
10
30.042744872221832
20
88.615078540272677
30
0
11
30.042744872221832
21
90.962281884379351
31
0
0
SPLINE
5
578
100
AcDbEntity
8
0
100
AcDbSpline
70
0
71
2
72
6
73
3
74
0
42
0.000000001
43
0.0000000001
44
0.0000000001
40
0
40
0
40
0
40
1
40
1
40
1
10
30.042744872221835
20
90.962281884379351
30
0
10
29.909729954848178
20
90.835405947394335
30
0
10
29.693836269030459
20
90.708530159420931
30
0
0
SPLINE
5
579
100
AcDbEntity
8
0
100
AcDbSpline
70
0
71
2
72
6
73
3
74
0
42
0.000000001
43
0.0000000001
44
0.0000000001
40
0
40
0
40
0
40
1
40
1
40
1
10
29.693836269030459
20
90.708530159420931
30
0
10
29.477942583212741
20
90.581654222435915
30
0
10
29.306046363959201
20
90.518216402955019
30
0
0
LINE
5
580
100
AcDbEntity
8
0
100
AcDbLine
10
29.306046363959201
20
90.518216402955019
30
0
11
29.306046363959201
21
90.874287249274218
31
0
0
SPLINE
5
581
100
AcDbEntity
8
0
100
AcDbSpline
70
0
71
2
72
6
73
3
74
0
42
0.000000001
43
0.0000000001
44
0.0000000001
40
0
40
0
40
0
40
1
40
1
40
1
10
29.306046363959201
20
90.874287249274218
30
0
10
29.615050551543124
20
91.019580574459994
30
0
10
29.846291837344058
20
91.226265640683138
30
0
0
SPLINE
5
582
100
AcDbEntity
8
0
100
AcDbSpline
70
0
71
2
72
6
73
3
74
0
42
0.000000001
43
0.0000000001
44
0.0000000001
40
0
40
0
40
0
40
1
40
1
40
1
10
29.846291837344058
20
91.226265640683138
30
0
10
30.077533421168216
20
91.432950408883059
30
0
10
30.173713562140353
20
91.627356918282473
30
0
0
LINE
5
583
100
AcDbEntity
8
0
100
AcDbLine
10
30.173713562140353
20
91.627356918282473
30
0
11
30.411094126353152
21
91.627356918282473
31
0
0
LINE
5
584
100
AcDbEntity
8
0
100
AcDbLine
10
30.411094126353152
20
91.627356918282473
30
0
11
30.411094126353149
21
88.615078540272677
31
0
0
LINE
5
585
100
AcDbEntity
8
0
100
AcDbLine
10
31.313549873480682
20
89.515487761921847
30
0
11
31.313549873480682
21
89.885883541531527
31
0
0
LINE
5
586
100
AcDbEntity
8
0
100
AcDbLine
10
31.313549873480682
20
89.885883541531527
30
0
11
32.445200678954009
21
89.885883541531527
31
0
0
LINE
5
587
100
AcDbEntity
8
0
100
AcDbLine
10
32.445200678954009
20
89.885883541531527
30
0
11
32.445200678954009
21
89.515487761921847
31
0
0
LINE
5
588
100
AcDbEntity
8
0
100
AcDbLine
10
32.445200678954009
20
89.515487761921847
30
0
11
31.313549873480682
21
89.515487761921847
31
0
0
LINE
5
589
100
AcDbEntity
8
0
100
AcDbLine
10
32.774668929228675
20
91.222172589726412
30
0
11
32.774668929228675
21
91.576197357602084
31
0
0
LINE
5
590
100
AcDbEntity
8
0
100
AcDbLine
10
32.774668929228675
20
91.576197357602084
30
0
11
34.716687795767676
21
91.576197357602084
31
0
0
LINE
5
591
100
AcDbEntity
8
0
100
AcDbLine
10
34.716687795767676
20
91.576197357602084
30
0
11
34.716687795767676
21
91.289703460164034
31
0
0
SPLINE
5
592
100
AcDbEntity
8
0
100
AcDbSpline
70
0
71
2
72
6
73
3
74
0
42
0.000000001
43
0.0000000001
44
0.0000000001
40
0
40
0
40
0
40
1
40
1
40
1
10
34.716687795767676
20
91.289703460164034
30
0
10
34.430194494376074
20
90.984792025513613
30
0
10
34.148816463599097
20
90.479335101075137
30
0
0
SPLINE
5
593
100
AcDbEntity
8
0
100
AcDbSpline
70
0
71
2
72
6
73
3
74
0
42
0.000000001
43
0.0000000001
44
0.0000000001
40
0
40
0
40
0
40
1
40
1
40
1
10
34.148816463599097
20
90.479335101075137
30
0
10
33.867438432822112
20
89.973878027625048
30
0
10
33.71395945275772
20
89.439771683640444
30
0
0
SPLINE
5
594
100
AcDbEntity
8
0
100
AcDbSpline
70
0
71
2
72
6
73
3
74
0
42
0.000000001
43
0.0000000001
44
0.0000000001
40
0
40
0
40
0
40
1
40
1
40
1
10
33.71395945275772
20
89.439771683640444
30
0
10
33.603454825529937
20
89.063236923642123
30
0
10
33.572759029517059
20
88.615078540272677
30
0
0
LINE
5
595
100
AcDbEntity
8
0
100
AcDbLine
10
33.572759029517059
20
88.615078540272677
30
0
11
33.194177744040374
21
88.615078540272677
31
0
0
SPLINE
5
596
100
AcDbEntity
8
0
100
AcDbSpline
70
0
71
2
72
6
73
3
74
0
42
0.000000001
43
0.0000000001
44
0.0000000001
40
0
40
0
40
0
40
1
40
1
40
1
10
33.194177744040374
20
88.615078540272677
30
0
10
33.200317022452239
20
88.969103010125124
30
0
10
33.333331939825896
20
89.470467479653323
30
0
0
SPLINE
5
597
100
AcDbEntity
8
0
100
AcDbSpline
70
0
71
2
72
6
73
3
74
0
42
0.000000001
43
0.0000000001
44
0.0000000001
40
0
40
0
40
0
40
1
40
1
40
1
10
33.333331939825896
20
89.470467479653323
30
0
10
33.466346857199554
20
89.971831651158297
30
0
10
33.714982864508521
20
90.437384159989321
30
0
0
SPLINE
5
598
100
AcDbEntity
8
0
100
AcDbSpline
70
0
71
2
72
6
73
3
74
0
42
0.000000001
43
0.0000000001
44
0.0000000001
40
0
40
0
40
0
40
1
40
1
40
1
10
33.714982864508521
20
90.437384159989321
30
0
10
33.963618275771033
20
90.902936668820345
30
0
10
34.243972894797217
20
91.222172589726412
30
0
0
LINE
5
599
100
AcDbEntity
8
0
100
AcDbLine
10
34.243972894797217
20
91.222172589726412
30
0
11
32.774668929228675
21
91.222172589726412
31
0
0
ENDSEC
0
SECTION
2
OBJECTS
0
DICTIONARY
5
C
100
AcDbDictionary
3
ACAD_GROUP
350
D
3
ACAD_MLINESTYLE
350
17
0
DICTIONARY
5
D
100
AcDbDictionary
0
DICTIONARY
5
1A
330
C
100
AcDbDictionary
0
DICTIONARY
5
17
100
AcDbDictionary
0
ENDSEC
0
EOF
