  0
SECTION
  2
HEADER
  9
$ACADVER
  1
AC1009
  0
ENDSEC
  0
SECTION
  2
ENTITIES
  0
CIRCLE
  5
90
  8
Layer_0
  62
1
  10
160
  20
315
  30
0
  40
1.5
  0
CIRCLE
  5
90
  8
Layer_0
  62
1
  10
350
  20
315
  30
0
  40
1.5
  0
CIRCLE
  5
90
  8
Layer_0
  62
1
  10
160
  20
75
  30
0
  40
1.5
  0
CIRCLE
  5
90
  8
Layer_0
  62
1
  10
350
  20
75
  30
0
  40
1.5
  0
CIRCLE
  5
90
  8
Layer_0
  62
1
  10
255
  20
168.5
  30
0
  40
1.5
  0
CIRCLE
  5
90
  8
Layer_0
  62
1
  10
221.5
  20
135
  30
0
  40
1.5
  0
CIRCLE
  5
90
  8
Layer_0
  62
1
  10
255
  20
101.5
  30
0
  40
1.5
  0
CIRCLE
  5
90
  8
Layer_0
  62
1
  10
288.5
  20
135
  30
0
  40
1.5
  0
CIRCLE
  5
90
  8
Layer_0
  62
1
  10
255
  20
135
  30
0
  40
15
  0
POLYLINE
  5
90
  8
Layer_0
  62
1
  66
1
  10
0
  20
0
  30
0
  0
VERTEX
  5
90
  8
Layer_0
  10
355
  20
272.5
  0
VERTEX
  5
91
  8
Layer_0
  10
364
  20
272.5
  0
VERTEX
  5
92
  8
Layer_0
  10
364
  20
242.5
  0
VERTEX
  5
93
  8
Layer_0
  10
355
  20
242.5
  0
VERTEX
  5
94
  8
Layer_0
  10
355
  20
147.5
  0
VERTEX
  5
95
  8
Layer_0
  10
364
  20
147.5
  0
VERTEX
  5
96
  8
Layer_0
  10
364
  20
117.5
  0
VERTEX
  5
97
  8
Layer_0
  10
355
  20
117.5
  0
VERTEX
  5
98
  8
Layer_0
  10
355
  20
70
  0
VERTEX
  5
99
  8
Layer_0
  10
270
  20
70
  0
VERTEX
  5
9a
  8
Layer_0
  10
270
  20
61
  0
VERTEX
  5
9b
  8
Layer_0
  10
240
  20
61
  0
VERTEX
  5
9c
  8
Layer_0
  10
240
  20
70
  0
VERTEX
  5
9d
  8
Layer_0
  10
155
  20
70
  0
VERTEX
  5
9e
  8
Layer_0
  10
155
  20
117.5
  0
VERTEX
  5
9f
  8
Layer_0
  10
146
  20
117.5
  0
VERTEX
  5
a0
  8
Layer_0
  10
146
  20
147.5
  0
VERTEX
  5
a1
  8
Layer_0
  10
155
  20
147.5
  0
VERTEX
  5
a2
  8
Layer_0
  10
155
  20
242.5
  0
VERTEX
  5
a3
  8
Layer_0
  10
146
  20
242.5
  0
VERTEX
  5
a4
  8
Layer_0
  10
146
  20
272.5
  0
VERTEX
  5
a5
  8
Layer_0
  10
155
  20
272.5
  0
VERTEX
  5
a6
  8
Layer_0
  10
155
  20
320
  0
VERTEX
  5
a7
  8
Layer_0
  10
240
  20
320
  0
VERTEX
  5
a8
  8
Layer_0
  10
240
  20
329
  0
VERTEX
  5
a9
  8
Layer_0
  10
270
  20
329
  0
VERTEX
  5
aa
  8
Layer_0
  10
270
  20
320
  0
VERTEX
  5
ab
  8
Layer_0
  10
355
  20
320
  0
VERTEX
  5
ac
  8
Layer_0
  10
355
  20
272.5
  0
SEQEND
  0
POLYLINE
  5
ae
  8
Layer_1
  62
3
  66
1
  10
0
  20
0
  30
0
  0
VERTEX
  5
ae
  8
Layer_1
  10
213.04633
  20
284.11563
  0
VERTEX
  5
af
  8
Layer_1
  10
213.03662
  20
284.12598
  0
VERTEX
  5
b0
  8
Layer_1
  10
213.02661
  20
284.13589
  42
0.197935
  0
VERTEX
  5
b1
  8
Layer_1
  10
212.72914
  20
284.24251
  42
0.144027
  0
VERTEX
  5
b2
  8
Layer_1
  10
212.47128
  20
284.17396
  42
0.17425149
  0
VERTEX
  5
b3
  8
Layer_1
  10
212.3219
  20
283.98773
  42
0.019188699
  0
VERTEX
  5
b4
  8
Layer_1
  10
212.31537
  20
283.96715
  42
0.065446806
  0
VERTEX
  5
b5
  8
Layer_1
  10
212.28098
  20
283.61222
  0
VERTEX
  5
b6
  8
Layer_1
  10
212.28098
  20
281.54537
  0
VERTEX
  5
b7
  8
Layer_1
  10
211.88397
  20
281.54537
  0
VERTEX
  5
b8
  8
Layer_1
  10
211.88397
  20
283.58971
  42
-0.099819622
  0
VERTEX
  5
b9
  8
Layer_1
  10
211.97504
  20
284.17293
  42
-0.16865868
  0
VERTEX
  5
ba
  8
Layer_1
  10
212.26358
  20
284.48808
  42
-0.12725612
  0
VERTEX
  5
bb
  8
Layer_1
  10
212.72708
  20
284.59653
  42
-0.21482223
  0
VERTEX
  5
bc
  8
Layer_1
  10
213.33179
  20
284.36938
  42
-0.070621497
  0
VERTEX
  5
bd
  8
Layer_1
  10
213.43561
  20
284.21808
  42
-0.11967363
  0
VERTEX
  5
be
  8
Layer_1
  10
213.53337
  20
283.69408
  0
VERTEX
  5
bf
  8
Layer_1
  10
213.17525
  20
283.64497
  0
VERTEX
  5
c0
  8
Layer_1
  10
213.17389
  20
283.67324
  42
0.1614004
  0
VERTEX
  5
c1
  8
Layer_1
  10
213.04633
  20
284.11563
  0
SEQEND
  0
POLYLINE
  5
c3
  8
Layer_1
  62
3
  66
1
  10
0
  20
0
  30
0
  0
VERTEX
  5
c3
  8
Layer_1
  10
210.71448
  20
282.45192
  42
-0.043752106
  0
VERTEX
  5
c4
  8
Layer_1
  10
211.10226
  20
282.64223
  0
VERTEX
  5
c5
  8
Layer_1
  10
211.10226
  20
282.28616
  42
0.072851655
  0
VERTEX
  5
c6
  8
Layer_1
  10
210.56201
  20
281.93419
  42
0.09424963
  0
VERTEX
  5
c7
  8
Layer_1
  10
210.23459
  20
281.5331
  0
VERTEX
  5
c8
  8
Layer_1
  10
209.99721
  20
281.5331
  0
VERTEX
  5
c9
  8
Layer_1
  10
209.99721
  20
284.54537
  0
VERTEX
  5
ca
  8
Layer_1
  10
210.36557
  20
284.54537
  0
VERTEX
  5
cb
  8
Layer_1
  10
210.36557
  20
282.19817
  42
-0.056748762
  0
VERTEX
  5
cc
  8
Layer_1
  10
210.71448
  20
282.45192
  0
SEQEND
  0
POLYLINE
  5
ce
  8
Layer_1
  62
3
  66
1
  10
0
  20
0
  30
0
  0
VERTEX
  5
ce
  8
Layer_1
  10
207.9631
  20
283.64497
  0
VERTEX
  5
cf
  8
Layer_1
  10
207.9631
  20
283.27457
  0
VERTEX
  5
d0
  8
Layer_1
  10
209.09476
  20
283.27457
  0
VERTEX
  5
d1
  8
Layer_1
  10
209.09476
  20
283.64497
  0
VERTEX
  5
d2
  8
Layer_1
  10
207.9631
  20
283.64497
  0
SEQEND
  0
POLYLINE
  5
d4
  8
Layer_1
  62
3
  66
1
  10
0
  20
0
  30
0
  0
VERTEX
  5
d4
  8
Layer_1
  10
206.98288
  20
282.69749
  0
VERTEX
  5
d5
  8
Layer_1
  10
206.9507
  20
282.6818
  42
-0.10936852
  0
VERTEX
  5
d6
  8
Layer_1
  10
206.57974
  20
282.59926
  0
VERTEX
  5
d7
  8
Layer_1
  10
206.54924
  20
282.59973
  42
-0.20380881
  0
VERTEX
  5
d8
  8
Layer_1
  10
205.95253
  20
282.87041
  0
VERTEX
  5
d9
  8
Layer_1
  10
205.93141
  20
282.89328
  42
-0.18891023
  0
VERTEX
  5
da
  8
Layer_1
  10
205.69366
  20
283.5713
  42
-0.11852681
  0
VERTEX
  5
db
  8
Layer_1
  10
205.81543
  20
284.09619
  42
-0.14344489
  0
VERTEX
  5
dc
  8
Layer_1
  10
206.15001
  20
284.46761
  42
-0.13926915
  0
VERTEX
  5
dd
  8
Layer_1
  10
206.63297
  20
284.59653
  42
-0.22868929
  0
VERTEX
  5
de
  8
Layer_1
  10
207.38397
  20
284.25786
  42
-0.043439595
  0
VERTEX
  5
df
  8
Layer_1
  10
207.47278
  20
284.13277
  42
-0.12936989
  0
VERTEX
  5
e0
  8
Layer_1
  10
207.67456
  20
283.14156
  0
VERTEX
  5
e1
  8
Layer_1
  10
207.67401
  20
283.0699
  42
-0.1645146
  0
VERTEX
  5
e2
  8
Layer_1
  10
207.35329
  20
281.87688
  0
VERTEX
  5
e3
  8
Layer_1
  10
207.32959
  20
281.84884
  42
-0.22504164
  0
VERTEX
  5
e4
  8
Layer_1
  10
206.59818
  20
281.5331
  0
VERTEX
  5
e5
  8
Layer_1
  10
206.56888
  20
281.53344
  42
-0.18050645
  0
VERTEX
  5
e6
  8
Layer_1
  10
206.01802
  20
281.73159
  0
VERTEX
  5
e7
  8
Layer_1
  10
205.99948
  20
281.7484
  42
-0.17754192
  0
VERTEX
  5
e8
  8
Layer_1
  10
205.74687
  20
282.28002
  0
VERTEX
  5
e9
  8
Layer_1
  10
206.11317
  20
282.30868
  42
0.076388909
  0
VERTEX
  5
ea
  8
Layer_1
  10
206.20328
  20
282.06093
  42
0.0065618328
  0
VERTEX
  5
eb
  8
Layer_1
  10
206.21658
  20
282.03961
  0
VERTEX
  5
ec
  8
Layer_1
  10
206.22345
  20
282.02957
  42
0.0064180655
  0
VERTEX
  5
ed
  8
Layer_1
  10
206.23761
  20
282.01073
  0
VERTEX
  5
ee
  8
Layer_1
  10
206.2449
  20
282.00192
  0
VERTEX
  5
ef
  8
Layer_1
  10
206.25232
  20
281.99353
  42
-0.055333077
  0
VERTEX
  5
f0
  8
Layer_1
  10
206.27771
  20
281.96836
  0
VERTEX
  5
f1
  8
Layer_1
  10
206.29077
  20
281.9566
  42
0.18574274
  0
VERTEX
  5
f2
  8
Layer_1
  10
206.62068
  20
281.83596
  0
VERTEX
  5
f3
  8
Layer_1
  10
206.64972
  20
281.83664
  42
0.15132751
  0
VERTEX
  5
f4
  8
Layer_1
  10
206.92969
  20
281.93419
  0
VERTEX
  5
f5
  8
Layer_1
  10
206.94405
  20
281.94496
  42
0.13238373
  0
VERTEX
  5
f6
  8
Layer_1
  10
207.20389
  20
282.30458
  42
-0.077361313
  0
VERTEX
  5
f7
  8
Layer_1
  10
207.21994
  20
282.3466
  0
VERTEX
  5
f8
  8
Layer_1
  10
207.22746
  20
282.36869
  42
0.073808027
  0
VERTEX
  5
f9
  8
Layer_1
  10
207.30826
  20
282.99831
  0
VERTEX
  5
fa
  8
Layer_1
  10
207.29707
  20
282.98161
  42
-0.12742025
  0
VERTEX
  5
fb
  8
Layer_1
  10
206.98288
  20
282.69749
  0
SEQEND
  0
POLYLINE
  5
fd
  8
Layer_1
  62
3
  66
1
  10
0
  20
0
  30
0
  0
VERTEX
  5
fd
  8
Layer_1
  10
206.944
  20
284.20261
  42
0.14466957
  0
VERTEX
  5
fe
  8
Layer_1
  10
206.6391
  20
284.29367
  42
0.22381829
  0
VERTEX
  5
ff
  8
Layer_1
  10
206.23801
  20
284.1054
  42
0.18712266
  0
VERTEX
  5
100
  8
Layer_1
  10
206.07021
  20
283.5938
  42
0.13487702
  0
VERTEX
  5
101
  8
Layer_1
  10
206.16344
  20
283.20148
  42
0.054919448
  0
VERTEX
  5
102
  8
Layer_1
  10
206.23596
  20
283.1037
  0
VERTEX
  5
103
  8
Layer_1
  10
206.24992
  20
283.08909
  42
0.20772273
  0
VERTEX
  5
104
  8
Layer_1
  10
206.65341
  20
282.92464
  0
VERTEX
  5
105
  8
Layer_1
  10
206.67409
  20
282.92495
  42
0.20238162
  0
VERTEX
  5
106
  8
Layer_1
  10
207.07703
  20
283.1037
  0
VERTEX
  5
107
  8
Layer_1
  10
207.09122
  20
283.11881
  42
0.19148703
  0
VERTEX
  5
108
  8
Layer_1
  10
207.25096
  20
283.57334
  0
VERTEX
  5
109
  8
Layer_1
  10
207.2504
  20
283.60495
  42
0.099596541
  0
VERTEX
  5
10a
  8
Layer_1
  10
207.17014
  20
283.9376
  42
0.14786239
  0
VERTEX
  5
10b
  8
Layer_1
  10
206.944
  20
284.20261
  0
SEQEND
  0
ENDSEC
  0
EOF
