  0
SECTION
  2
HEADER
  9
$ACADVER
  1
AC1009
  0
ENDSEC
  0
SECTION
  2
ENTITIES
  0
CIRCLE
  5
90
  8
Layer_0
  62
1
  10
340.67126
  20
318.00278
  30
0
  40
1.5
  0
CIRCLE
  5
90
  8
Layer_0
  62
1
  10
270.67126
  20
318.00278
  30
0
  40
1.5
  0
CIRCLE
  5
90
  8
Layer_0
  62
1
  10
340.67126
  20
383.00278
  30
0
  40
1.5
  0
CIRCLE
  5
90
  8
Layer_0
  62
1
  10
270.67126
  20
383.00278
  30
0
  40
1.5
  0
CIRCLE
  5
90
  8
Layer_0
  62
1
  10
340.67126
  20
415.90277
  30
0
  40
1.5
  0
CIRCLE
  5
90
  8
Layer_0
  62
1
  10
270.67126
  20
415.90277
  30
0
  40
1.5
  0
POLYLINE
  5
90
  8
Layer_0
  62
1
  66
1
  10
0
  20
0
  30
0
  0
VERTEX
  5
90
  8
Layer_0
  10
320.62128
  20
390.50278
  0
VERTEX
  5
91
  8
Layer_0
  10
320.62128
  20
393.60278
  0
VERTEX
  5
92
  8
Layer_0
  10
290.72125
  20
393.60278
  0
VERTEX
  5
93
  8
Layer_0
  10
290.72125
  20
390.50278
  0
VERTEX
  5
94
  8
Layer_0
  10
320.62128
  20
390.50278
  0
SEQEND
  0
POLYLINE
  5
96
  8
Layer_0
  62
1
  66
1
  10
0
  20
0
  30
0
  0
VERTEX
  5
96
  8
Layer_0
  10
260.17126
  20
337.05276
  0
VERTEX
  5
97
  8
Layer_0
  10
263.17126
  20
337.05276
  0
VERTEX
  5
98
  8
Layer_0
  10
263.17126
  20
366.95279
  0
VERTEX
  5
99
  8
Layer_0
  10
260.17126
  20
366.95279
  0
VERTEX
  5
9a
  8
Layer_0
  10
260.17126
  20
403.70279
  0
VERTEX
  5
9b
  8
Layer_0
  10
263.17126
  20
403.70279
  0
VERTEX
  5
9c
  8
Layer_0
  10
263.17126
  20
413.50278
  0
VERTEX
  5
9d
  8
Layer_0
  10
260.17126
  20
413.50278
  0
VERTEX
  5
9e
  8
Layer_0
  10
260.17126
  20
426.50278
  0
VERTEX
  5
9f
  8
Layer_0
  10
290.72125
  20
426.50278
  0
VERTEX
  5
a0
  8
Layer_0
  10
290.72125
  20
423.40277
  0
VERTEX
  5
a1
  8
Layer_0
  10
320.62128
  20
423.40277
  0
VERTEX
  5
a2
  8
Layer_0
  10
320.62128
  20
426.50278
  0
VERTEX
  5
a3
  8
Layer_0
  10
351.17126
  20
426.50278
  0
VERTEX
  5
a4
  8
Layer_0
  10
351.17126
  20
413.50278
  0
VERTEX
  5
a5
  8
Layer_0
  10
348.17126
  20
413.50278
  0
VERTEX
  5
a6
  8
Layer_0
  10
348.17126
  20
403.70279
  0
VERTEX
  5
a7
  8
Layer_0
  10
351.17126
  20
403.70279
  0
VERTEX
  5
a8
  8
Layer_0
  10
351.17126
  20
366.95279
  0
VERTEX
  5
a9
  8
Layer_0
  10
348.17126
  20
366.95279
  0
VERTEX
  5
aa
  8
Layer_0
  10
348.17126
  20
337.05276
  0
VERTEX
  5
ab
  8
Layer_0
  10
351.17126
  20
337.05276
  0
VERTEX
  5
ac
  8
Layer_0
  10
351.17126
  20
307.50278
  0
VERTEX
  5
ad
  8
Layer_0
  10
320.62128
  20
307.50278
  0
VERTEX
  5
ae
  8
Layer_0
  10
320.62128
  20
310.50278
  0
VERTEX
  5
af
  8
Layer_0
  10
290.72125
  20
310.50278
  0
VERTEX
  5
b0
  8
Layer_0
  10
290.72125
  20
307.50278
  0
VERTEX
  5
b1
  8
Layer_0
  10
260.17126
  20
307.50278
  0
VERTEX
  5
b2
  8
Layer_0
  10
260.17126
  20
337.05276
  0
SEQEND
  0
POLYLINE
  5
b4
  8
Layer_1
  62
3
  66
1
  10
0
  20
0
  30
0
  0
VERTEX
  5
b4
  8
Layer_1
  10
331.08313
  20
322.82614
  42
0.13523474
  0
VERTEX
  5
b5
  8
Layer_1
  10
331.24704
  20
322.72171
  42
0.077195924
  0
VERTEX
  5
b6
  8
Layer_1
  10
331.40063
  20
322.7001
  0
VERTEX
  5
b7
  8
Layer_1
  10
331.42526
  20
322.70065
  42
0.13393767
  0
VERTEX
  5
b8
  8
Layer_1
  10
331.65833
  20
322.76935
  0
VERTEX
  5
b9
  8
Layer_1
  10
331.6759
  20
322.78116
  42
0.16122332
  0
VERTEX
  5
ba
  8
Layer_1
  10
331.80719
  20
322.95596
  0
VERTEX
  5
bb
  8
Layer_1
  10
331.81052
  20
322.96603
  0
VERTEX
  5
bc
  8
Layer_1
  10
331.81369
  20
322.97656
  42
0.065454478
  0
VERTEX
  5
bd
  8
Layer_1
  10
331.84711
  20
323.33157
  0
VERTEX
  5
be
  8
Layer_1
  10
331.84161
  20
325.39844
  0
VERTEX
  5
bf
  8
Layer_1
  10
332.23862
  20
325.39948
  0
VERTEX
  5
c0
  8
Layer_1
  10
332.24408
  20
323.35516
  0
VERTEX
  5
c1
  8
Layer_1
  10
332.24399
  20
323.32407
  42
-0.098218813
  0
VERTEX
  5
c2
  8
Layer_1
  10
332.15454
  20
322.7717
  0
VERTEX
  5
c3
  8
Layer_1
  10
332.14682
  20
322.75461
  42
-0.16201813
  0
VERTEX
  5
c4
  8
Layer_1
  10
331.86685
  20
322.45578
  0
VERTEX
  5
c5
  8
Layer_1
  10
331.85031
  20
322.4469
  42
-0.1208356
  0
VERTEX
  5
c6
  8
Layer_1
  10
331.40363
  20
322.3461
  0
VERTEX
  5
c7
  8
Layer_1
  10
331.37103
  20
322.34641
  42
-0.20889102
  0
VERTEX
  5
c8
  8
Layer_1
  10
330.79834
  20
322.57162
  42
-0.19418998
  0
VERTEX
  5
c9
  8
Layer_1
  10
330.59497
  20
323.2464
  0
VERTEX
  5
ca
  8
Layer_1
  10
330.95294
  20
323.29645
  42
0.16255753
  0
VERTEX
  5
cb
  8
Layer_1
  10
331.08313
  20
322.82614
  0
SEQEND
  0
POLYLINE
  5
cd
  8
Layer_1
  62
3
  66
1
  10
0
  20
0
  30
0
  0
VERTEX
  5
cd
  8
Layer_1
  10
334.29224
  20
323.46091
  0
VERTEX
  5
ce
  8
Layer_1
  10
334.28705
  20
325.40497
  0
VERTEX
  5
cf
  8
Layer_1
  10
333.98621
  20
325.40414
  0
VERTEX
  5
d0
  8
Layer_1
  10
332.62238
  20
323.45645
  0
VERTEX
  5
d1
  8
Layer_1
  10
332.62329
  20
323.11877
  0
VERTEX
  5
d2
  8
Layer_1
  10
333.92477
  20
323.12225
  0
VERTEX
  5
d3
  8
Layer_1
  10
333.9267
  20
322.40399
  0
VERTEX
  5
d4
  8
Layer_1
  10
334.29504
  20
322.40497
  0
VERTEX
  5
d5
  8
Layer_1
  10
334.29312
  20
323.12323
  0
VERTEX
  5
d6
  8
Layer_1
  10
334.6983
  20
323.12433
  0
VERTEX
  5
d7
  8
Layer_1
  10
334.69739
  20
323.46198
  0
VERTEX
  5
d8
  8
Layer_1
  10
334.29224
  20
323.46091
  0
SEQEND
  0
POLYLINE
  5
da
  8
Layer_1
  62
3
  66
1
  10
0
  20
0
  30
0
  0
VERTEX
  5
da
  8
Layer_1
  10
332.98459
  20
323.4574
  0
VERTEX
  5
db
  8
Layer_1
  10
333.92389
  20
323.4599
  0
VERTEX
  5
dc
  8
Layer_1
  10
333.92026
  20
324.81256
  0
VERTEX
  5
dd
  8
Layer_1
  10
332.98459
  20
323.4574
  0
SEQEND
  0
POLYLINE
  5
df
  8
Layer_1
  62
3
  66
1
  10
0
  20
0
  30
0
  0
VERTEX
  5
df
  8
Layer_1
  10
336.16406
  20
323.68076
  0
VERTEX
  5
e0
  8
Layer_1
  10
336.16507
  20
323.31036
  0
VERTEX
  5
e1
  8
Layer_1
  10
335.03342
  20
323.30734
  0
VERTEX
  5
e2
  8
Layer_1
  10
335.03244
  20
323.67773
  0
VERTEX
  5
e3
  8
Layer_1
  10
336.16406
  20
323.68076
  0
SEQEND
  0
POLYLINE
  5
e5
  8
Layer_1
  62
3
  66
1
  10
0
  20
0
  30
0
  0
VERTEX
  5
e5
  8
Layer_1
  10
337.43237
  20
324.23566
  42
0.05803879
  0
VERTEX
  5
e6
  8
Layer_1
  10
337.05331
  20
323.2677
  42
0.059028425
  0
VERTEX
  5
e7
  8
Layer_1
  10
336.91644
  20
322.41196
  0
VERTEX
  5
e8
  8
Layer_1
  10
337.29504
  20
322.41296
  42
-0.054261426
  0
VERTEX
  5
e9
  8
Layer_1
  10
337.43402
  20
323.23804
  42
-0.057240687
  0
VERTEX
  5
ea
  8
Layer_1
  10
337.86609
  20
324.27875
  42
-0.060605192
  0
VERTEX
  5
eb
  8
Layer_1
  10
338.43182
  20
325.09064
  0
VERTEX
  5
ec
  8
Layer_1
  10
338.43106
  20
325.37714
  0
VERTEX
  5
ed
  8
Layer_1
  10
336.48904
  20
325.37195
  0
VERTEX
  5
ee
  8
Layer_1
  10
336.48999
  20
325.01791
  0
VERTEX
  5
ef
  8
Layer_1
  10
337.95929
  20
325.02185
  42
0.057234602
  0
VERTEX
  5
f0
  8
Layer_1
  10
337.43237
  20
324.23566
  0
SEQEND
  0
ENDSEC
  0
EOF
