  0
SECTION
  2
HEADER
  9
$ACADVER
  1
AC1009
  0
ENDSEC
  0
SECTION
  2
ENTITIES
  0
CIRCLE
  5
90
  8
Layer_0
  62
1
  10
201
  20
282.50024
  30
0
  40
1.5
  0
CIRCLE
  5
90
  8
Layer_0
  62
1
  10
299
  20
282.50024
  30
0
  40
1.5
  0
CIRCLE
  5
90
  8
Layer_0
  62
1
  10
299
  20
217.50024
  30
0
  40
1.5
  0
CIRCLE
  5
90
  8
Layer_0
  62
1
  10
201
  20
217.50024
  30
0
  40
1.5
  0
POLYLINE
  5
90
  8
Layer_0
  62
1
  66
1
  10
0
  20
0
  30
0
  0
VERTEX
  5
90
  8
Layer_0
  10
223.5
  20
290.00024
  0
VERTEX
  5
91
  8
Layer_0
  10
213.5
  20
290.00024
  0
VERTEX
  5
92
  8
Layer_0
  10
213.5
  20
293.00024
  0
VERTEX
  5
93
  8
Layer_0
  10
203.5
  20
293.00024
  0
VERTEX
  5
94
  8
Layer_0
  10
203.5
  20
290.00024
  0
VERTEX
  5
95
  8
Layer_0
  10
193.5
  20
290.00024
  0
VERTEX
  5
96
  8
Layer_0
  10
193.5
  20
265.00024
  0
VERTEX
  5
97
  8
Layer_0
  10
190.5
  20
265.00024
  0
VERTEX
  5
98
  8
Layer_0
  10
190.5
  20
235.00024
  0
VERTEX
  5
99
  8
Layer_0
  10
193.5
  20
235.00024
  0
VERTEX
  5
9a
  8
Layer_0
  10
193.5
  20
210.00024
  0
VERTEX
  5
9b
  8
Layer_0
  10
203.5
  20
210.00024
  0
VERTEX
  5
9c
  8
Layer_0
  10
203.5
  20
207.00024
  0
VERTEX
  5
9d
  8
Layer_0
  10
213.5
  20
207.00024
  0
VERTEX
  5
9e
  8
Layer_0
  10
213.5
  20
210.00024
  0
VERTEX
  5
9f
  8
Layer_0
  10
223.5
  20
210.00024
  0
SEQEND
  0
POLYLINE
  5
a1
  8
Layer_0
  62
1
  66
1
  10
0
  20
0
  30
0
  0
VERTEX
  5
a1
  8
Layer_0
  10
223.5
  20
265.00024
  0
VERTEX
  5
a2
  8
Layer_0
  10
226.60001
  20
265.00024
  0
VERTEX
  5
a3
  8
Layer_0
  10
226.60001
  20
235.10025
  0
VERTEX
  5
a4
  8
Layer_0
  10
223.5
  20
235.10025
  0
SEQEND
  0
POLYLINE
  5
a6
  8
Layer_1
  62
3
  66
1
  10
0
  20
0
  30
0
  0
VERTEX
  5
a6
  8
Layer_1
  10
206.82483
  20
276.34247
  42
0.097914777
  0
VERTEX
  5
a7
  8
Layer_1
  10
206.9364
  20
276.25983
  42
0.11536741
  0
VERTEX
  5
a8
  8
Layer_1
  10
207.14323
  20
276.21866
  0
VERTEX
  5
a9
  8
Layer_1
  10
207.16785
  20
276.21939
  42
0.13388702
  0
VERTEX
  5
aa
  8
Layer_1
  10
207.40041
  20
276.28973
  0
VERTEX
  5
ab
  8
Layer_1
  10
207.41789
  20
276.30167
  42
0.16096579
  0
VERTEX
  5
ac
  8
Layer_1
  10
207.54797
  20
276.47739
  0
VERTEX
  5
ad
  8
Layer_1
  10
207.55121
  20
276.48749
  42
0.070027994
  0
VERTEX
  5
ae
  8
Layer_1
  10
207.58524
  20
276.85327
  0
VERTEX
  5
af
  8
Layer_1
  10
207.56516
  20
278.92004
  0
VERTEX
  5
b0
  8
Layer_1
  10
207.96213
  20
278.92389
  0
VERTEX
  5
b1
  8
Layer_1
  10
207.98201
  20
276.87964
  0
VERTEX
  5
b2
  8
Layer_1
  10
207.98215
  20
276.84857
  42
-0.098279293
  0
VERTEX
  5
b3
  8
Layer_1
  10
207.89661
  20
276.29556
  0
VERTEX
  5
b4
  8
Layer_1
  10
207.88901
  20
276.27844
  42
-0.16218387
  0
VERTEX
  5
b5
  8
Layer_1
  10
207.61115
  20
275.97763
  0
VERTEX
  5
b6
  8
Layer_1
  10
207.59467
  20
275.96863
  42
-0.12103719
  0
VERTEX
  5
b7
  8
Layer_1
  10
207.14873
  20
275.86469
  0
VERTEX
  5
b8
  8
Layer_1
  10
207.11612
  20
275.86478
  42
-0.20912009
  0
VERTEX
  5
b9
  8
Layer_1
  10
206.54184
  20
276.08594
  42
-0.19431558
  0
VERTEX
  5
ba
  8
Layer_1
  10
206.33371
  20
276.75925
  0
VERTEX
  5
bb
  8
Layer_1
  10
206.69133
  20
276.81186
  42
0.16245033
  0
VERTEX
  5
bc
  8
Layer_1
  10
206.82483
  20
276.34247
  0
SEQEND
  0
POLYLINE
  5
be
  8
Layer_1
  62
3
  66
1
  10
0
  20
0
  30
0
  0
VERTEX
  5
be
  8
Layer_1
  10
210.02936
  20
276.99982
  0
VERTEX
  5
bf
  8
Layer_1
  10
210.43454
  20
277.00378
  0
VERTEX
  5
c0
  8
Layer_1
  10
210.43781
  20
276.66614
  0
VERTEX
  5
c1
  8
Layer_1
  10
210.03265
  20
276.6622
  0
VERTEX
  5
c2
  8
Layer_1
  10
210.03963
  20
275.94394
  0
VERTEX
  5
c3
  8
Layer_1
  10
209.6713
  20
275.94037
  0
VERTEX
  5
c4
  8
Layer_1
  10
209.66431
  20
276.65863
  0
VERTEX
  5
c5
  8
Layer_1
  10
208.36288
  20
276.64597
  0
VERTEX
  5
c6
  8
Layer_1
  10
208.35959
  20
276.98361
  0
VERTEX
  5
c7
  8
Layer_1
  10
209.70966
  20
278.94089
  0
VERTEX
  5
c8
  8
Layer_1
  10
210.01047
  20
278.94382
  0
VERTEX
  5
c9
  8
Layer_1
  10
210.02936
  20
276.99982
  0
SEQEND
  0
POLYLINE
  5
cb
  8
Layer_1
  62
3
  66
1
  10
0
  20
0
  30
0
  0
VERTEX
  5
cb
  8
Layer_1
  10
208.72179
  20
276.98712
  0
VERTEX
  5
cc
  8
Layer_1
  10
209.66104
  20
276.99625
  0
VERTEX
  5
cd
  8
Layer_1
  10
209.64789
  20
278.34885
  0
VERTEX
  5
ce
  8
Layer_1
  10
208.72179
  20
276.98712
  0
SEQEND
  0
POLYLINE
  5
d0
  8
Layer_1
  62
3
  66
1
  10
0
  20
0
  30
0
  0
VERTEX
  5
d0
  8
Layer_1
  10
211.89963
  20
277.23288
  0
VERTEX
  5
d1
  8
Layer_1
  10
211.90323
  20
276.86252
  0
VERTEX
  5
d2
  8
Layer_1
  10
210.77164
  20
276.8515
  0
VERTEX
  5
d3
  8
Layer_1
  10
210.76804
  20
277.22189
  0
VERTEX
  5
d4
  8
Layer_1
  10
211.89963
  20
277.23288
  0
SEQEND
  0
POLYLINE
  5
d6
  8
Layer_1
  62
3
  66
1
  10
0
  20
0
  30
0
  0
VERTEX
  5
d6
  8
Layer_1
  10
212.8667
  20
278.06497
  0
VERTEX
  5
d7
  8
Layer_1
  10
212.83122
  20
278.04391
  42
-0.041378304
  0
VERTEX
  5
d8
  8
Layer_1
  10
212.48077
  20
277.87091
  0
VERTEX
  5
d9
  8
Layer_1
  10
212.47731
  20
278.22696
  0
VERTEX
  5
da
  8
Layer_1
  10
212.52803
  20
278.25211
  42
0.067455054
  0
VERTEX
  5
db
  8
Layer_1
  10
213.0141
  20
278.58417
  0
VERTEX
  5
dc
  8
Layer_1
  10
213.03297
  20
278.60156
  42
0.091912031
  0
VERTEX
  5
dd
  8
Layer_1
  10
213.33762
  20
278.98843
  0
VERTEX
  5
de
  8
Layer_1
  10
213.57498
  20
278.99072
  0
VERTEX
  5
df
  8
Layer_1
  10
213.60426
  20
275.97861
  0
VERTEX
  5
e0
  8
Layer_1
  10
213.23593
  20
275.97501
  0
VERTEX
  5
e1
  8
Layer_1
  10
213.21312
  20
278.32211
  0
VERTEX
  5
e2
  8
Layer_1
  10
213.19058
  20
278.30075
  42
-0.050320429
  0
VERTEX
  5
e3
  8
Layer_1
  10
212.8667
  20
278.06497
  0
SEQEND
  0
POLYLINE
  5
e5
  8
Layer_0
  62
1
  66
1
  10
0
  20
0
  30
0
  0
VERTEX
  5
e5
  8
Layer_0
  10
250
  20
290.00024
  0
VERTEX
  5
e6
  8
Layer_0
  10
250
  20
293.00024
  0
SEQEND
  0
POLYLINE
  5
e8
  8
Layer_0
  62
1
  66
1
  10
0
  20
0
  30
0
  0
VERTEX
  5
e8
  8
Layer_0
  10
250
  20
293.00024
  0
VERTEX
  5
e9
  8
Layer_0
  10
280
  20
293.00024
  0
SEQEND
  0
POLYLINE
  5
eb
  8
Layer_0
  62
1
  66
1
  10
0
  20
0
  30
0
  0
VERTEX
  5
eb
  8
Layer_0
  10
280
  20
293.00024
  0
VERTEX
  5
ec
  8
Layer_0
  10
280
  20
290.00024
  0
SEQEND
  0
POLYLINE
  5
ee
  8
Layer_0
  62
1
  66
1
  10
0
  20
0
  30
0
  0
VERTEX
  5
ee
  8
Layer_0
  10
280
  20
290.00024
  0
VERTEX
  5
ef
  8
Layer_0
  10
306.5
  20
290.00024
  0
SEQEND
  0
POLYLINE
  5
f1
  8
Layer_0
  62
1
  66
1
  10
0
  20
0
  30
0
  0
VERTEX
  5
f1
  8
Layer_0
  10
306.5
  20
290.00024
  0
VERTEX
  5
f2
  8
Layer_0
  10
306.5
  20
265.00024
  0
SEQEND
  0
POLYLINE
  5
f4
  8
Layer_0
  62
1
  66
1
  10
0
  20
0
  30
0
  0
VERTEX
  5
f4
  8
Layer_0
  10
306.5
  20
265.00024
  0
VERTEX
  5
f5
  8
Layer_0
  10
309.5
  20
265.00024
  0
SEQEND
  0
POLYLINE
  5
f7
  8
Layer_0
  62
1
  66
1
  10
0
  20
0
  30
0
  0
VERTEX
  5
f7
  8
Layer_0
  10
309.5
  20
265.00024
  0
VERTEX
  5
f8
  8
Layer_0
  10
309.5
  20
235.00024
  0
SEQEND
  0
POLYLINE
  5
fa
  8
Layer_0
  62
1
  66
1
  10
0
  20
0
  30
0
  0
VERTEX
  5
fa
  8
Layer_0
  10
309.5
  20
235.00024
  0
VERTEX
  5
fb
  8
Layer_0
  10
306.5
  20
235.00024
  0
SEQEND
  0
POLYLINE
  5
fd
  8
Layer_0
  62
1
  66
1
  10
0
  20
0
  30
0
  0
VERTEX
  5
fd
  8
Layer_0
  10
306.5
  20
235.00024
  0
VERTEX
  5
fe
  8
Layer_0
  10
306.5
  20
210.00024
  0
SEQEND
  0
POLYLINE
  5
100
  8
Layer_0
  62
1
  66
1
  10
0
  20
0
  30
0
  0
VERTEX
  5
100
  8
Layer_0
  10
306.5
  20
210.00024
  0
VERTEX
  5
101
  8
Layer_0
  10
280
  20
210.00024
  0
SEQEND
  0
POLYLINE
  5
103
  8
Layer_0
  62
1
  66
1
  10
0
  20
0
  30
0
  0
VERTEX
  5
103
  8
Layer_0
  10
280
  20
210.00024
  0
VERTEX
  5
104
  8
Layer_0
  10
280
  20
207.00024
  0
SEQEND
  0
POLYLINE
  5
106
  8
Layer_0
  62
1
  66
1
  10
0
  20
0
  30
0
  0
VERTEX
  5
106
  8
Layer_0
  10
280
  20
207.00024
  0
VERTEX
  5
107
  8
Layer_0
  10
250
  20
207.00024
  0
SEQEND
  0
POLYLINE
  5
109
  8
Layer_0
  62
1
  66
1
  10
0
  20
0
  30
0
  0
VERTEX
  5
109
  8
Layer_0
  10
250
  20
207.00024
  0
VERTEX
  5
10a
  8
Layer_0
  10
250
  20
210.00024
  0
SEQEND
  0
POLYLINE
  5
10c
  8
Layer_0
  62
1
  66
1
  10
0
  20
0
  30
0
  0
VERTEX
  5
10c
  8
Layer_0
  10
250
  20
210.00024
  0
VERTEX
  5
10d
  8
Layer_0
  10
223.5
  20
210.00024
  0
SEQEND
  0
POLYLINE
  5
10f
  8
Layer_0
  62
1
  66
1
  10
0
  20
0
  30
0
  0
VERTEX
  5
10f
  8
Layer_0
  10
223.5
  20
235.10025
  0
VERTEX
  5
110
  8
Layer_0
  10
223.5
  20
265.00024
  0
SEQEND
  0
POLYLINE
  5
112
  8
Layer_0
  62
1
  66
1
  10
0
  20
0
  30
0
  0
VERTEX
  5
112
  8
Layer_0
  10
223.5
  20
290.00024
  0
VERTEX
  5
113
  8
Layer_0
  10
250
  20
290.00024
  0
SEQEND
  0
ENDSEC
  0
EOF
