  0
SECTION
  2
HEADER
  9
$ACADVER
  1
AC1009
  0
ENDSEC
  0
SECTION
  2
ENTITIES
  0
CIRCLE
  5
90
  8
Layer_0
  62
1
  10
270.91089
  20
227.3508
  30
0
  40
1.5
  0
CIRCLE
  5
90
  8
Layer_0
  62
1
  10
270.91089
  20
292.3508
  30
0
  40
1.5
  0
CIRCLE
  5
90
  8
Layer_0
  62
1
  10
200.91089
  20
227.3508
  30
0
  40
1.5
  0
CIRCLE
  5
90
  8
Layer_0
  62
1
  10
200.91089
  20
292.3508
  30
0
  40
1.5
  0
CIRCLE
  5
90
  8
Layer_0
  62
1
  10
235.91089
  20
259.8508
  30
0
  40
23.5
  0
CIRCLE
  5
90
  8
Layer_0
  62
1
  10
235.91089
  20
290.55081
  30
0
  40
1.5
  0
CIRCLE
  5
90
  8
Layer_0
  62
1
  10
205.21089
  20
259.8508
  30
0
  40
1.5
  0
CIRCLE
  5
90
  8
Layer_0
  62
1
  10
235.91089
  20
229.1508
  30
0
  40
1.5
  0
CIRCLE
  5
90
  8
Layer_0
  62
1
  10
266.6109
  20
259.8508
  30
0
  40
1.5
  0
POLYLINE
  5
90
  8
Layer_0
  62
1
  66
1
  10
0
  20
0
  30
0
  0
VERTEX
  5
90
  8
Layer_0
  10
281.41089
  20
299.8508
  0
VERTEX
  5
91
  8
Layer_0
  10
250.91089
  20
299.8508
  0
VERTEX
  5
92
  8
Layer_0
  10
250.91089
  20
302.8508
  0
VERTEX
  5
93
  8
Layer_0
  10
220.91089
  20
302.8508
  0
VERTEX
  5
94
  8
Layer_0
  10
220.91089
  20
299.8508
  0
VERTEX
  5
95
  8
Layer_0
  10
190.41089
  20
299.8508
  0
VERTEX
  5
96
  8
Layer_0
  10
190.41089
  20
274.7901
  0
VERTEX
  5
97
  8
Layer_0
  10
193.41089
  20
274.7901
  0
VERTEX
  5
98
  8
Layer_0
  10
193.41089
  20
244.89009
  0
VERTEX
  5
99
  8
Layer_0
  10
190.41089
  20
244.89009
  0
VERTEX
  5
9a
  8
Layer_0
  10
190.41089
  20
219.8508
  0
VERTEX
  5
9b
  8
Layer_0
  10
220.91089
  20
219.8508
  0
VERTEX
  5
9c
  8
Layer_0
  10
220.91089
  20
216.8508
  0
VERTEX
  5
9d
  8
Layer_0
  10
250.91089
  20
216.8508
  0
VERTEX
  5
9e
  8
Layer_0
  10
250.91089
  20
219.8508
  0
VERTEX
  5
9f
  8
Layer_0
  10
281.41089
  20
219.8508
  0
VERTEX
  5
a0
  8
Layer_0
  10
281.41089
  20
244.9008
  0
VERTEX
  5
a1
  8
Layer_0
  10
278.41089
  20
244.9008
  0
VERTEX
  5
a2
  8
Layer_0
  10
278.41089
  20
274.80081
  0
VERTEX
  5
a3
  8
Layer_0
  10
281.41089
  20
274.80081
  0
VERTEX
  5
a4
  8
Layer_0
  10
281.41089
  20
299.8508
  0
SEQEND
  0
POLYLINE
  5
a6
  8
Layer_1
  62
3
  66
1
  10
0
  20
0
  30
0
  0
VERTEX
  5
a6
  8
Layer_1
  10
210.27341
  20
293.08099
  42
0.096628228
  0
VERTEX
  5
a7
  8
Layer_1
  10
210.38409
  20
292.99719
  42
0.11388696
  0
VERTEX
  5
a8
  8
Layer_1
  10
210.59047
  20
292.9538
  0
VERTEX
  5
a9
  8
Layer_1
  10
210.61508
  20
292.95425
  42
0.13368111
  0
VERTEX
  5
aa
  8
Layer_1
  10
210.84839
  20
293.02209
  0
VERTEX
  5
ab
  8
Layer_1
  10
210.866
  20
293.03384
  42
0.15854799
  0
VERTEX
  5
ac
  8
Layer_1
  10
210.99796
  20
293.20816
  0
VERTEX
  5
ad
  8
Layer_1
  10
211.00131
  20
293.2182
  42
0.07002403
  0
VERTEX
  5
ae
  8
Layer_1
  10
211.03928
  20
293.58362
  0
VERTEX
  5
af
  8
Layer_1
  10
211.04143
  20
295.65045
  0
VERTEX
  5
b0
  8
Layer_1
  10
211.43843
  20
295.65005
  0
VERTEX
  5
b1
  8
Layer_1
  10
211.43631
  20
293.60571
  0
VERTEX
  5
b2
  8
Layer_1
  10
211.43611
  20
293.57465
  42
-0.098391545
  0
VERTEX
  5
b3
  8
Layer_1
  10
211.34464
  20
293.02258
  0
VERTEX
  5
b4
  8
Layer_1
  10
211.33685
  20
293.00555
  42
-0.16223081
  0
VERTEX
  5
b5
  8
Layer_1
  10
211.05576
  20
292.70776
  0
VERTEX
  5
b6
  8
Layer_1
  10
211.03918
  20
292.69891
  42
-0.12065854
  0
VERTEX
  5
b7
  8
Layer_1
  10
210.59215
  20
292.59976
  0
VERTEX
  5
b8
  8
Layer_1
  10
210.55956
  20
292.60019
  42
-0.20918113
  0
VERTEX
  5
b9
  8
Layer_1
  10
209.98767
  20
292.82755
  42
-0.19426239
  0
VERTEX
  5
ba
  8
Layer_1
  10
209.7868
  20
293.50305
  0
VERTEX
  5
bb
  8
Layer_1
  10
210.14499
  20
293.55182
  42
0.16258402
  0
VERTEX
  5
bc
  8
Layer_1
  10
210.27341
  20
293.08099
  0
SEQEND
  0
POLYLINE
  5
be
  8
Layer_1
  62
3
  66
1
  10
0
  20
0
  30
0
  0
VERTEX
  5
be
  8
Layer_1
  10
213.4845
  20
293.36621
  0
VERTEX
  5
bf
  8
Layer_1
  10
213.48373
  20
292.64792
  0
VERTEX
  5
c0
  8
Layer_1
  10
213.11539
  20
292.64832
  0
VERTEX
  5
c1
  8
Layer_1
  10
213.11615
  20
293.36658
  0
VERTEX
  5
c2
  8
Layer_1
  10
211.81464
  20
293.36795
  0
VERTEX
  5
c3
  8
Layer_1
  10
211.81499
  20
293.7056
  0
VERTEX
  5
c4
  8
Layer_1
  10
213.18604
  20
295.64822
  0
VERTEX
  5
c5
  8
Layer_1
  10
213.48686
  20
295.64792
  0
VERTEX
  5
c6
  8
Layer_1
  10
213.48483
  20
293.70386
  0
VERTEX
  5
c7
  8
Layer_1
  10
213.89001
  20
293.70343
  0
VERTEX
  5
c8
  8
Layer_1
  10
213.88968
  20
293.36578
  0
VERTEX
  5
c9
  8
Layer_1
  10
213.4845
  20
293.36621
  0
SEQEND
  0
POLYLINE
  5
cb
  8
Layer_1
  62
3
  66
1
  10
0
  20
0
  30
0
  0
VERTEX
  5
cb
  8
Layer_1
  10
212.1772
  20
293.70523
  0
VERTEX
  5
cc
  8
Layer_1
  10
213.11649
  20
293.70425
  0
VERTEX
  5
cd
  8
Layer_1
  10
213.11789
  20
295.05688
  0
VERTEX
  5
ce
  8
Layer_1
  10
212.1772
  20
293.70523
  0
SEQEND
  0
POLYLINE
  5
d0
  8
Layer_1
  62
3
  66
1
  10
0
  20
0
  30
0
  0
VERTEX
  5
d0
  8
Layer_1
  10
215.3575
  20
293.91678
  0
VERTEX
  5
d1
  8
Layer_1
  10
215.35712
  20
293.54639
  0
VERTEX
  5
d2
  8
Layer_1
  10
214.22546
  20
293.54758
  0
VERTEX
  5
d3
  8
Layer_1
  10
214.22586
  20
293.91797
  0
VERTEX
  5
d4
  8
Layer_1
  10
215.3575
  20
293.91678
  0
SEQEND
  0
POLYLINE
  5
d6
  8
Layer_1
  62
3
  66
1
  10
0
  20
0
  30
0
  0
VERTEX
  5
d6
  8
Layer_1
  10
216.28172
  20
293.19855
  42
-0.023618106
  0
VERTEX
  5
d7
  8
Layer_1
  10
216.70776
  20
293.57568
  42
0.029935373
  0
VERTEX
  5
d8
  8
Layer_1
  10
217.26154
  20
294.08679
  0
VERTEX
  5
d9
  8
Layer_1
  10
217.27618
  20
294.10306
  42
0.071541615
  0
VERTEX
  5
da
  8
Layer_1
  10
217.50812
  20
294.44
  0
VERTEX
  5
db
  8
Layer_1
  10
217.5211
  20
294.46912
  42
0.092533431
  0
VERTEX
  5
dc
  8
Layer_1
  10
217.5946
  20
294.79309
  0
VERTEX
  5
dd
  8
Layer_1
  10
217.59515
  20
294.82306
  42
0.20448786
  0
VERTEX
  5
de
  8
Layer_1
  10
217.36458
  20
295.39661
  0
VERTEX
  5
df
  8
Layer_1
  10
217.34406
  20
295.41678
  42
0.054182767
  0
VERTEX
  5
e0
  8
Layer_1
  10
217.20706
  20
295.52167
  42
0.13787858
  0
VERTEX
  5
e1
  8
Layer_1
  10
216.66081
  20
295.65689
  42
0.18493033
  0
VERTEX
  5
e2
  8
Layer_1
  10
215.97914
  20
295.43558
  42
0.19673699
  0
VERTEX
  5
e3
  8
Layer_1
  10
215.68584
  20
294.79025
  0
VERTEX
  5
e4
  8
Layer_1
  10
216.06438
  20
294.75098
  42
-0.20177926
  0
VERTEX
  5
e5
  8
Layer_1
  10
216.2265
  20
295.19281
  42
-0.20451184
  0
VERTEX
  5
e6
  8
Layer_1
  10
216.65231
  20
295.35199
  42
-0.18978473
  0
VERTEX
  5
e7
  8
Layer_1
  10
217.04721
  20
295.21344
  0
VERTEX
  5
e8
  8
Layer_1
  10
217.06041
  20
295.20117
  42
-0.20261261
  0
VERTEX
  5
e9
  8
Layer_1
  10
217.21632
  20
294.84976
  0
VERTEX
  5
ea
  8
Layer_1
  10
217.21657
  20
294.83163
  42
-0.15546135
  0
VERTEX
  5
eb
  8
Layer_1
  10
217.05826
  20
294.40823
  0
VERTEX
  5
ec
  8
Layer_1
  10
217.04422
  20
294.38876
  42
-0.055882664
  0
VERTEX
  5
ed
  8
Layer_1
  10
216.42282
  20
293.78714
  0
VERTEX
  5
ee
  8
Layer_1
  10
216.38257
  20
293.75406
  42
0.043587866
  0
VERTEX
  5
ef
  8
Layer_1
  10
215.90018
  20
293.30026
  42
0.086876915
  0
VERTEX
  5
f0
  8
Layer_1
  10
215.65726
  20
292.90146
  42
0.10043864
  0
VERTEX
  5
f1
  8
Layer_1
  10
215.61403
  20
292.64572
  0
VERTEX
  5
f2
  8
Layer_1
  10
217.59697
  20
292.64365
  0
VERTEX
  5
f3
  8
Layer_1
  10
217.59734
  20
292.99768
  0
VERTEX
  5
f4
  8
Layer_1
  10
216.12599
  20
292.99921
  42
-0.052468743
  0
VERTEX
  5
f5
  8
Layer_1
  10
216.28172
  20
293.19855
  0
SEQEND
  0
ENDSEC
  0
EOF
