  0
SECTION
  2
HEADER
  9
$ACADVER
  1
AC1009
  0
ENDSEC
  0
SECTION
  2
ENTITIES
  0
CIRCLE
  5
90
  8
Layer_0
  62
1
  10
377.33115
  20
283.81631
  30
0
  40
1.5
  0
CIRCLE
  5
90
  8
Layer_0
  62
1
  10
377.33115
  20
348.81631
  30
0
  40
1.5
  0
CIRCLE
  5
90
  8
Layer_0
  62
1
  10
307.33115
  20
348.81631
  30
0
  40
1.5
  0
CIRCLE
  5
90
  8
Layer_0
  62
1
  10
342.33115
  20
316.31631
  30
0
  40
23.5
  0
CIRCLE
  5
90
  8
Layer_0
  62
1
  10
342.33115
  20
349.31631
  30
0
  40
1.5
  0
CIRCLE
  5
90
  8
Layer_0
  62
1
  10
342.33115
  20
283.31631
  30
0
  40
1.5
  0
CIRCLE
  5
90
  8
Layer_0
  62
1
  10
374.96866
  20
311.4386
  30
0
  40
1.5
  0
CIRCLE
  5
90
  8
Layer_0
  62
1
  10
309.69363
  20
311.4386
  30
0
  40
1.5
  0
CIRCLE
  5
90
  8
Layer_0
  62
1
  10
307.33115
  20
286.31631
  30
0
  40
1
  0
CIRCLE
  5
90
  8
Layer_0
  62
1
  10
317.33115
  20
286.31631
  30
0
  40
1
  0
POLYLINE
  5
90
  8
Layer_0
  62
1
  66
1
  10
0
  20
0
  30
0
  0
VERTEX
  5
90
  8
Layer_0
  10
327.33115
  20
356.31631
  0
VERTEX
  5
91
  8
Layer_0
  10
327.33115
  20
359.31631
  0
VERTEX
  5
92
  8
Layer_0
  10
357.33115
  20
359.31631
  0
VERTEX
  5
93
  8
Layer_0
  10
357.33115
  20
356.31631
  0
VERTEX
  5
94
  8
Layer_0
  10
384.83115
  20
356.31631
  0
VERTEX
  5
95
  8
Layer_0
  10
384.83115
  20
331.31631
  0
VERTEX
  5
96
  8
Layer_0
  10
387.83115
  20
331.31631
  0
VERTEX
  5
97
  8
Layer_0
  10
387.83115
  20
301.31631
  0
VERTEX
  5
98
  8
Layer_0
  10
384.83115
  20
301.31631
  0
VERTEX
  5
99
  8
Layer_0
  10
384.83115
  20
276.31631
  0
VERTEX
  5
9a
  8
Layer_0
  10
357.33115
  20
276.31631
  0
VERTEX
  5
9b
  8
Layer_0
  10
357.33115
  20
273.31631
  0
VERTEX
  5
9c
  8
Layer_0
  10
327.33115
  20
273.31631
  0
VERTEX
  5
9d
  8
Layer_0
  10
327.33115
  20
276.31631
  0
VERTEX
  5
9e
  8
Layer_0
  10
324.83115
  20
276.31631
  0
VERTEX
  5
9f
  8
Layer_0
  10
324.83115
  20
283.31631
  0
VERTEX
  5
a0
  8
Layer_0
  10
299.83115
  20
283.31631
  0
VERTEX
  5
a1
  8
Layer_0
  10
299.83115
  20
301.31631
  0
VERTEX
  5
a2
  8
Layer_0
  10
296.83115
  20
301.31631
  0
VERTEX
  5
a3
  8
Layer_0
  10
296.83115
  20
331.31631
  0
VERTEX
  5
a4
  8
Layer_0
  10
299.83115
  20
331.31631
  0
VERTEX
  5
a5
  8
Layer_0
  10
299.83115
  20
356.31631
  0
VERTEX
  5
a6
  8
Layer_0
  10
327.33115
  20
356.31631
  0
SEQEND
  0
POLYLINE
  5
a8
  8
Layer_1
  62
3
  66
1
  10
0
  20
0
  30
0
  0
VERTEX
  5
a8
  8
Layer_1
  10
316.91727
  20
350.14178
  42
0.083102135
  0
VERTEX
  5
a9
  8
Layer_1
  10
317.01578
  20
350.06473
  42
0.12448995
  0
VERTEX
  5
aa
  8
Layer_1
  10
317.23477
  20
350.01572
  0
VERTEX
  5
ab
  8
Layer_1
  10
317.2594
  20
350.01624
  42
0.13398919
  0
VERTEX
  5
ac
  8
Layer_1
  10
317.49243
  20
350.0849
  0
VERTEX
  5
ad
  8
Layer_1
  10
317.51001
  20
350.09671
  42
0.15991058
  0
VERTEX
  5
ae
  8
Layer_1
  10
317.64136
  20
350.27148
  0
VERTEX
  5
af
  8
Layer_1
  10
317.64468
  20
350.28156
  42
0.070157761
  0
VERTEX
  5
b0
  8
Layer_1
  10
317.68137
  20
350.64709
  0
VERTEX
  5
b1
  8
Layer_1
  10
317.67621
  20
352.71396
  0
VERTEX
  5
b2
  8
Layer_1
  10
318.07321
  20
352.71494
  0
VERTEX
  5
b3
  8
Layer_1
  10
318.07831
  20
350.67059
  0
VERTEX
  5
b4
  8
Layer_1
  10
318.07822
  20
350.63953
  42
-0.098315043
  0
VERTEX
  5
b5
  8
Layer_1
  10
317.98871
  20
350.08716
  0
VERTEX
  5
b6
  8
Layer_1
  10
317.98096
  20
350.0701
  42
-0.16187426
  0
VERTEX
  5
b7
  8
Layer_1
  10
317.70093
  20
349.7713
  0
VERTEX
  5
b8
  8
Layer_1
  10
317.68439
  20
349.76242
  42
-0.12079787
  0
VERTEX
  5
b9
  8
Layer_1
  10
317.2377
  20
349.66168
  0
VERTEX
  5
ba
  8
Layer_1
  10
317.20511
  20
349.66199
  42
-0.20894734
  0
VERTEX
  5
bb
  8
Layer_1
  10
316.63245
  20
349.88733
  42
-0.19393366
  0
VERTEX
  5
bc
  8
Layer_1
  10
316.4292
  20
350.56213
  0
VERTEX
  5
bd
  8
Layer_1
  10
316.78717
  20
350.61215
  42
0.16213196
  0
VERTEX
  5
be
  8
Layer_1
  10
316.91727
  20
350.14178
  0
SEQEND
  0
POLYLINE
  5
c0
  8
Layer_1
  62
3
  66
1
  10
0
  20
0
  30
0
  0
VERTEX
  5
c0
  8
Layer_1
  10
319.82083
  20
352.7193
  0
VERTEX
  5
c1
  8
Layer_1
  10
318.45663
  20
350.77182
  0
VERTEX
  5
c2
  8
Layer_1
  10
318.45746
  20
350.43417
  0
VERTEX
  5
c3
  8
Layer_1
  10
319.75897
  20
350.43741
  0
VERTEX
  5
c4
  8
Layer_1
  10
319.76074
  20
349.71912
  0
VERTEX
  5
c5
  8
Layer_1
  10
320.12909
  20
349.72003
  0
VERTEX
  5
c6
  8
Layer_1
  10
320.12732
  20
350.43832
  0
VERTEX
  5
c7
  8
Layer_1
  10
320.5325
  20
350.43933
  0
VERTEX
  5
c8
  8
Layer_1
  10
320.53168
  20
350.77698
  0
VERTEX
  5
c9
  8
Layer_1
  10
320.12646
  20
350.77597
  0
VERTEX
  5
ca
  8
Layer_1
  10
320.12164
  20
352.72003
  0
VERTEX
  5
cb
  8
Layer_1
  10
319.82083
  20
352.7193
  0
SEQEND
  0
POLYLINE
  5
cd
  8
Layer_1
  62
3
  66
1
  10
0
  20
0
  30
0
  0
VERTEX
  5
cd
  8
Layer_1
  10
318.81885
  20
350.77271
  0
VERTEX
  5
ce
  8
Layer_1
  10
319.75812
  20
350.77505
  0
VERTEX
  5
cf
  8
Layer_1
  10
319.75476
  20
352.12772
  0
VERTEX
  5
d0
  8
Layer_1
  10
318.81885
  20
350.77271
  0
SEQEND
  0
POLYLINE
  5
d2
  8
Layer_1
  62
3
  66
1
  10
0
  20
0
  30
0
  0
VERTEX
  5
d2
  8
Layer_1
  10
321.99838
  20
350.99551
  0
VERTEX
  5
d3
  8
Layer_1
  10
321.9993
  20
350.62512
  0
VERTEX
  5
d4
  8
Layer_1
  10
320.86765
  20
350.62228
  0
VERTEX
  5
d5
  8
Layer_1
  10
320.86673
  20
350.99268
  0
VERTEX
  5
d6
  8
Layer_1
  10
321.99838
  20
350.99551
  0
SEQEND
  0
POLYLINE
  5
d8
  8
Layer_1
  62
3
  66
1
  10
0
  20
0
  30
0
  0
VERTEX
  5
d8
  8
Layer_1
  10
322.95071
  20
352.33417
  0
VERTEX
  5
d9
  8
Layer_1
  10
324.14786
  20
352.33716
  0
VERTEX
  5
da
  8
Layer_1
  10
324.14697
  20
352.68912
  0
VERTEX
  5
db
  8
Layer_1
  10
322.65515
  20
352.68542
  0
VERTEX
  5
dc
  8
Layer_1
  10
322.36841
  20
351.14377
  0
VERTEX
  5
dd
  8
Layer_1
  10
322.71436
  20
351.09961
  42
-0.12482995
  0
VERTEX
  5
de
  8
Layer_1
  10
322.93893
  20
351.30991
  42
-0.13076775
  0
VERTEX
  5
df
  8
Layer_1
  10
323.26001
  20
351.39154
  42
-0.19944562
  0
VERTEX
  5
e0
  8
Layer_1
  10
323.70898
  20
351.2254
  0
VERTEX
  5
e1
  8
Layer_1
  10
323.72397
  20
351.21057
  42
-0.19449814
  0
VERTEX
  5
e2
  8
Layer_1
  10
323.90186
  20
350.73978
  0
VERTEX
  5
e3
  8
Layer_1
  10
323.90222
  20
350.71375
  42
-0.18235376
  0
VERTEX
  5
e4
  8
Layer_1
  10
323.73438
  20
350.19821
  0
VERTEX
  5
e5
  8
Layer_1
  10
323.71936
  20
350.18121
  42
-0.20911769
  0
VERTEX
  5
e6
  8
Layer_1
  10
323.29169
  20
349.97998
  0
VERTEX
  5
e7
  8
Layer_1
  10
323.26968
  20
349.97955
  42
-0.13252159
  0
VERTEX
  5
e8
  8
Layer_1
  10
322.98874
  20
350.05023
  42
-0.051943387
  0
VERTEX
  5
e9
  8
Layer_1
  10
322.89175
  20
350.12085
  42
-0.17351616
  0
VERTEX
  5
ea
  8
Layer_1
  10
322.69119
  20
350.54498
  0
VERTEX
  5
eb
  8
Layer_1
  10
322.3045
  20
350.51126
  42
0.19538747
  0
VERTEX
  5
ec
  8
Layer_1
  10
322.60172
  20
349.90424
  42
0.18176091
  0
VERTEX
  5
ed
  8
Layer_1
  10
323.23657
  20
349.677
  0
VERTEX
  5
ee
  8
Layer_1
  10
323.27042
  20
349.6767
  42
0.22918619
  0
VERTEX
  5
ef
  8
Layer_1
  10
324.03302
  20
350.01312
  0
VERTEX
  5
f0
  8
Layer_1
  10
324.05737
  20
350.04291
  42
0.16817508
  0
VERTEX
  5
f1
  8
Layer_1
  10
324.29266
  20
350.71371
  0
VERTEX
  5
f2
  8
Layer_1
  10
324.293
  20
350.74747
  42
0.19488308
  0
VERTEX
  5
f3
  8
Layer_1
  10
324.04324
  20
351.42377
  0
VERTEX
  5
f4
  8
Layer_1
  10
324.02115
  20
351.44666
  42
0.065177667
  0
VERTEX
  5
f5
  8
Layer_1
  10
323.82703
  20
351.59738
  42
0.13462704
  0
VERTEX
  5
f6
  8
Layer_1
  10
323.35742
  20
351.71716
  42
0.156293
  0
VERTEX
  5
f7
  8
Layer_1
  10
322.79105
  20
351.5275
  0
VERTEX
  5
f8
  8
Layer_1
  10
322.95071
  20
352.33417
  0
SEQEND
  0
ENDSEC
  0
EOF
