  0
SECTION
  2
HEADER
  9
$ACADVER
  1
AC1009
  0
ENDSEC
  0
SECTION
  2
ENTITIES
  0
CIRCLE
  5
90
  8
Layer_0
  62
1
  10
326
  20
292
  30
0
  40
1.5
  0
CIRCLE
  5
90
  8
Layer_0
  62
1
  10
256
  20
292
  30
0
  40
1.5
  0
CIRCLE
  5
90
  8
Layer_0
  62
1
  10
326
  20
357
  30
0
  40
1.5
  0
CIRCLE
  5
90
  8
Layer_0
  62
1
  10
256
  20
357
  30
0
  40
1.5
  0
CIRCLE
  5
90
  8
Layer_0
  62
1
  10
326
  20
389.89999
  30
0
  40
1.5
  0
CIRCLE
  5
90
  8
Layer_0
  62
1
  10
256
  20
389.89999
  30
0
  40
1.5
  0
CIRCLE
  5
90
  8
Layer_0
  62
1
  10
291
  20
304.5
  30
0
  40
10
  0
POLYLINE
  5
90
  8
Layer_0
  62
1
  66
1
  10
0
  20
0
  30
0
  0
VERTEX
  5
90
  8
Layer_0
  10
305.95001
  20
364.5
  0
VERTEX
  5
91
  8
Layer_0
  10
305.95001
  20
367.60001
  0
VERTEX
  5
92
  8
Layer_0
  10
276.04999
  20
367.60001
  0
VERTEX
  5
93
  8
Layer_0
  10
276.04999
  20
364.5
  0
VERTEX
  5
94
  8
Layer_0
  10
305.95001
  20
364.5
  0
SEQEND
  0
POLYLINE
  5
96
  8
Layer_0
  62
1
  66
1
  10
0
  20
0
  30
0
  0
VERTEX
  5
96
  8
Layer_0
  10
245.5
  20
311.04999
  0
VERTEX
  5
97
  8
Layer_0
  10
248.5
  20
311.04999
  0
VERTEX
  5
98
  8
Layer_0
  10
248.5
  20
340.95001
  0
VERTEX
  5
99
  8
Layer_0
  10
245.5
  20
340.95001
  0
VERTEX
  5
9a
  8
Layer_0
  10
245.5
  20
377.70001
  0
VERTEX
  5
9b
  8
Layer_0
  10
248.5
  20
377.70001
  0
VERTEX
  5
9c
  8
Layer_0
  10
248.5
  20
387.5
  0
VERTEX
  5
9d
  8
Layer_0
  10
245.5
  20
387.5
  0
VERTEX
  5
9e
  8
Layer_0
  10
245.5
  20
400.5
  0
VERTEX
  5
9f
  8
Layer_0
  10
276.04999
  20
400.5
  0
VERTEX
  5
a0
  8
Layer_0
  10
276.04999
  20
397.39999
  0
VERTEX
  5
a1
  8
Layer_0
  10
305.95001
  20
397.39999
  0
VERTEX
  5
a2
  8
Layer_0
  10
305.95001
  20
400.5
  0
VERTEX
  5
a3
  8
Layer_0
  10
336.5
  20
400.5
  0
VERTEX
  5
a4
  8
Layer_0
  10
336.5
  20
387.5
  0
VERTEX
  5
a5
  8
Layer_0
  10
333.5
  20
387.5
  0
VERTEX
  5
a6
  8
Layer_0
  10
333.5
  20
377.70001
  0
VERTEX
  5
a7
  8
Layer_0
  10
336.5
  20
377.70001
  0
VERTEX
  5
a8
  8
Layer_0
  10
336.5
  20
340.95001
  0
VERTEX
  5
a9
  8
Layer_0
  10
333.5
  20
340.95001
  0
VERTEX
  5
aa
  8
Layer_0
  10
333.5
  20
311.04999
  0
VERTEX
  5
ab
  8
Layer_0
  10
336.5
  20
311.04999
  0
VERTEX
  5
ac
  8
Layer_0
  10
336.5
  20
281.5
  0
VERTEX
  5
ad
  8
Layer_0
  10
305.95001
  20
281.5
  0
VERTEX
  5
ae
  8
Layer_0
  10
305.95001
  20
284.5
  0
VERTEX
  5
af
  8
Layer_0
  10
276.04999
  20
284.5
  0
VERTEX
  5
b0
  8
Layer_0
  10
276.04999
  20
281.5
  0
VERTEX
  5
b1
  8
Layer_0
  10
245.5
  20
281.5
  0
VERTEX
  5
b2
  8
Layer_0
  10
245.5
  20
311.04999
  0
SEQEND
  0
POLYLINE
  5
b4
  8
Layer_1
  62
3
  66
1
  10
0
  20
0
  30
0
  0
VERTEX
  5
b4
  8
Layer_1
  10
322.42657
  20
380.78799
  42
0.05759556
  0
VERTEX
  5
b5
  8
Layer_1
  10
322.48938
  20
380.73248
  42
0.15560807
  0
VERTEX
  5
b6
  8
Layer_1
  10
322.74377
  20
380.66113
  0
VERTEX
  5
b7
  8
Layer_1
  10
322.7684
  20
380.66162
  42
0.13228421
  0
VERTEX
  5
b8
  8
Layer_1
  10
323.00162
  20
380.72971
  0
VERTEX
  5
b9
  8
Layer_1
  10
323.01923
  20
380.74149
  42
0.15837331
  0
VERTEX
  5
ba
  8
Layer_1
  10
323.151
  20
380.91592
  0
VERTEX
  5
bb
  8
Layer_1
  10
323.15436
  20
380.92599
  0
VERTEX
  5
bc
  8
Layer_1
  10
323.15753
  20
380.93652
  42
0.065518895
  0
VERTEX
  5
bd
  8
Layer_1
  10
323.19189
  20
381.29144
  0
VERTEX
  5
be
  8
Layer_1
  10
323.1918
  20
383.35831
  0
VERTEX
  5
bf
  8
Layer_1
  10
323.58881
  20
383.35831
  0
VERTEX
  5
c0
  8
Layer_1
  10
323.5889
  20
381.31396
  0
VERTEX
  5
c1
  8
Layer_1
  10
323.58875
  20
381.2829
  42
-0.098052395
  0
VERTEX
  5
c2
  8
Layer_1
  10
323.49786
  20
380.73074
  0
VERTEX
  5
c3
  8
Layer_1
  10
323.49011
  20
380.71371
  42
-0.16228693
  0
VERTEX
  5
c4
  8
Layer_1
  10
323.20935
  20
380.41559
  0
VERTEX
  5
c5
  8
Layer_1
  10
323.19278
  20
380.40674
  0
VERTEX
  5
c6
  8
Layer_1
  10
323.17596
  20
380.39828
  42
-0.11463131
  0
VERTEX
  5
c7
  8
Layer_1
  10
322.74585
  20
380.30713
  0
VERTEX
  5
c8
  8
Layer_1
  10
322.71326
  20
380.3075
  42
-0.2088886
  0
VERTEX
  5
c9
  8
Layer_1
  10
322.14114
  20
380.53424
  42
-0.19373875
  0
VERTEX
  5
ca
  8
Layer_1
  10
321.93951
  20
381.20953
  0
VERTEX
  5
cb
  8
Layer_1
  10
322.29764
  20
381.25867
  42
0.1618607
  0
VERTEX
  5
cc
  8
Layer_1
  10
322.42657
  20
380.78799
  0
SEQEND
  0
POLYLINE
  5
ce
  8
Layer_1
  62
3
  66
1
  10
0
  20
0
  30
0
  0
VERTEX
  5
ce
  8
Layer_1
  10
326.04251
  20
381.4144
  0
VERTEX
  5
cf
  8
Layer_1
  10
326.04254
  20
381.07672
  0
VERTEX
  5
d0
  8
Layer_1
  10
325.63736
  20
381.07672
  0
VERTEX
  5
d1
  8
Layer_1
  10
325.63739
  20
380.35843
  0
VERTEX
  5
d2
  8
Layer_1
  10
325.26904
  20
380.3584
  0
VERTEX
  5
d3
  8
Layer_1
  10
325.26901
  20
381.07669
  0
VERTEX
  5
d4
  8
Layer_1
  10
323.9675
  20
381.07663
  0
VERTEX
  5
d5
  8
Layer_1
  10
323.96747
  20
381.41428
  0
VERTEX
  5
d6
  8
Layer_1
  10
325.33643
  20
383.3584
  0
VERTEX
  5
d7
  8
Layer_1
  10
325.63724
  20
383.35843
  0
VERTEX
  5
d8
  8
Layer_1
  10
325.63733
  20
381.41437
  0
VERTEX
  5
d9
  8
Layer_1
  10
326.04251
  20
381.4144
  0
SEQEND
  0
POLYLINE
  5
db
  8
Layer_1
  62
3
  66
1
  10
0
  20
0
  30
0
  0
VERTEX
  5
db
  8
Layer_1
  10
324.32971
  20
381.41431
  0
VERTEX
  5
dc
  8
Layer_1
  10
325.26898
  20
381.41434
  0
VERTEX
  5
dd
  8
Layer_1
  10
325.26892
  20
382.767
  0
VERTEX
  5
de
  8
Layer_1
  10
324.32971
  20
381.41431
  0
SEQEND
  0
POLYLINE
  5
e0
  8
Layer_1
  62
3
  66
1
  10
0
  20
0
  30
0
  0
VERTEX
  5
e0
  8
Layer_1
  10
327.50977
  20
381.62933
  0
VERTEX
  5
e1
  8
Layer_1
  10
327.5098
  20
381.25894
  0
VERTEX
  5
e2
  8
Layer_1
  10
326.37814
  20
381.25888
  0
VERTEX
  5
e3
  8
Layer_1
  10
326.37811
  20
381.62927
  0
VERTEX
  5
e4
  8
Layer_1
  10
327.50977
  20
381.62933
  0
SEQEND
  0
POLYLINE
  5
e6
  8
Layer_1
  62
3
  66
1
  10
0
  20
0
  30
0
  0
VERTEX
  5
e6
  8
Layer_1
  10
328.48996
  20
382.20648
  42
-0.11973415
  0
VERTEX
  5
e7
  8
Layer_1
  10
328.89307
  20
382.30472
  42
-0.15902398
  0
VERTEX
  5
e8
  8
Layer_1
  10
329.38403
  20
382.15222
  42
-0.046893232
  0
VERTEX
  5
e9
  8
Layer_1
  10
329.52032
  20
382.0336
  0
VERTEX
  5
ea
  8
Layer_1
  10
329.54144
  20
382.01074
  42
-0.18924433
  0
VERTEX
  5
eb
  8
Layer_1
  10
329.77924
  20
381.33273
  0
VERTEX
  5
ec
  8
Layer_1
  10
329.77899
  20
381.30927
  42
-0.11360681
  0
VERTEX
  5
ed
  8
Layer_1
  10
329.6575
  20
380.80783
  0
VERTEX
  5
ee
  8
Layer_1
  10
329.64719
  20
380.78781
  42
-0.13756227
  0
VERTEX
  5
ef
  8
Layer_1
  10
329.32294
  20
380.4364
  0
VERTEX
  5
f0
  8
Layer_1
  10
329.30508
  20
380.42587
  42
-0.13296084
  0
VERTEX
  5
f1
  8
Layer_1
  10
328.84
  20
380.30743
  0
VERTEX
  5
f2
  8
Layer_1
  10
328.80191
  20
380.30804
  42
-0.21955616
  0
VERTEX
  5
f3
  8
Layer_1
  10
328.08893
  20
380.64609
  42
-0.17298329
  0
VERTEX
  5
f4
  8
Layer_1
  10
327.79831
  20
381.76236
  42
-0.15687667
  0
VERTEX
  5
f5
  8
Layer_1
  10
328.09329
  20
382.99332
  0
VERTEX
  5
f6
  8
Layer_1
  10
328.11951
  20
383.02704
  42
-0.23610717
  0
VERTEX
  5
f7
  8
Layer_1
  10
328.8746
  20
383.37088
  42
-0.1689186
  0
VERTEX
  5
f8
  8
Layer_1
  10
329.4162
  20
383.20413
  42
-0.02764107
  0
VERTEX
  5
f9
  8
Layer_1
  10
329.45477
  20
383.17242
  0
VERTEX
  5
fa
  8
Layer_1
  10
329.4733
  20
383.15561
  0
VERTEX
  5
fb
  8
Layer_1
  10
329.49121
  20
383.13828
  42
-0.16911935
  0
VERTEX
  5
fc
  8
Layer_1
  10
329.72595
  20
382.62399
  0
VERTEX
  5
fd
  8
Layer_1
  10
329.35965
  20
382.59534
  0
VERTEX
  5
fe
  8
Layer_1
  10
329.35547
  20
382.61319
  42
0.12388204
  0
VERTEX
  5
ff
  8
Layer_1
  10
329.22046
  20
382.91046
  0
VERTEX
  5
100
  8
Layer_1
  10
329.20789
  20
382.92334
  0
VERTEX
  5
101
  8
Layer_1
  10
329.1951
  20
382.93564
  42
0.19685746
  0
VERTEX
  5
102
  8
Layer_1
  10
328.85211
  20
383.06802
  42
0.16292901
  0
VERTEX
  5
103
  8
Layer_1
  10
328.54312
  20
382.96979
  42
0.13931619
  0
VERTEX
  5
104
  8
Layer_1
  10
328.26892
  20
382.59937
  42
0.091095155
  0
VERTEX
  5
105
  8
Layer_1
  10
328.16461
  20
381.90564
  42
-0.13238284
  0
VERTEX
  5
106
  8
Layer_1
  10
328.48996
  20
382.20648
  0
SEQEND
  0
POLYLINE
  5
108
  8
Layer_1
  62
3
  66
1
  10
0
  20
0
  30
0
  0
VERTEX
  5
108
  8
Layer_1
  10
328.52893
  20
380.70135
  0
VERTEX
  5
109
  8
Layer_1
  10
328.55322
  20
380.68683
  42
0.13104135
  0
VERTEX
  5
10a
  8
Layer_1
  10
328.83383
  20
380.61032
  0
VERTEX
  5
10b
  8
Layer_1
  10
328.85315
  20
380.61063
  42
0.21216258
  0
VERTEX
  5
10c
  8
Layer_1
  10
329.23492
  20
380.79858
  0
VERTEX
  5
10d
  8
Layer_1
  10
329.2486
  20
380.81451
  42
0.17697429
  0
VERTEX
  5
10e
  8
Layer_1
  10
329.40268
  20
381.31021
  0
VERTEX
  5
10f
  8
Layer_1
  10
329.4024
  20
381.33591
  42
0.18766752
  0
VERTEX
  5
110
  8
Layer_1
  10
329.23691
  20
381.80029
  0
VERTEX
  5
111
  8
Layer_1
  10
329.22293
  20
381.81491
  42
0.2086248
  0
VERTEX
  5
112
  8
Layer_1
  10
328.81943
  20
381.97934
  42
0.20981554
  0
VERTEX
  5
113
  8
Layer_1
  10
328.39584
  20
381.80026
  42
0.20127732
  0
VERTEX
  5
114
  8
Layer_1
  10
328.22192
  20
381.3306
  42
0.1103582
  0
VERTEX
  5
115
  8
Layer_1
  10
328.30276
  20
380.96634
  42
0.12043751
  0
VERTEX
  5
116
  8
Layer_1
  10
328.48227
  20
380.73401
  42
0.037421155
  0
VERTEX
  5
117
  8
Layer_1
  10
328.52893
  20
380.70135
  0
SEQEND
  0
ENDSEC
  0
EOF
