  0
SECTION
  2
HEADER
  9
$ACADVER
  1
AC1009
  0
ENDSEC
  0
SECTION
  2
ENTITIES
  0
CIRCLE
  5
90
  8
Layer_1
  62
1
  10
56.925125
  20
318.12982
  30
0
  40
1.5
  0
CIRCLE
  5
90
  8
Layer_1
  62
1
  10
172.92513
  20
318.12982
  30
0
  40
1.5
  0
CIRCLE
  5
90
  8
Layer_1
  62
1
  10
172.92513
  20
253.12982
  30
0
  40
1.5
  0
CIRCLE
  5
90
  8
Layer_1
  62
1
  10
56.925125
  20
253.12982
  30
0
  40
1.5
  0
CIRCLE
  5
90
  8
Layer_1
  62
1
  10
136.92513
  20
285.62982
  30
0
  40
1.5
  0
CIRCLE
  5
90
  8
Layer_1
  62
1
  10
121.62512
  20
303.62982
  30
0
  40
1.5
  0
CIRCLE
  5
90
  8
Layer_1
  62
1
  10
103.62512
  20
285.62982
  30
0
  40
1.5
  0
CIRCLE
  5
90
  8
Layer_1
  62
1
  10
121.62512
  20
267.62982
  30
0
  40
1.5
  0
CIRCLE
  5
90
  8
Layer_1
  62
1
  10
119.92513
  20
318.12982
  30
0
  40
1.5
  0
CIRCLE
  5
90
  8
Layer_1
  62
1
  10
119.92513
  20
253.12982
  30
0
  40
1.5
  0
POLYLINE
  5
90
  8
Layer_1
  62
1
  66
1
  10
0
  20
0
  30
0
  0
VERTEX
  5
90
  8
Layer_1
  10
109.42513
  20
325.62983
  0
VERTEX
  5
91
  8
Layer_1
  10
84.425125
  20
325.62983
  0
VERTEX
  5
92
  8
Layer_1
  10
84.425125
  20
328.62983
  0
VERTEX
  5
93
  8
Layer_1
  10
74.425125
  20
328.62983
  0
VERTEX
  5
94
  8
Layer_1
  10
74.425125
  20
325.62983
  0
VERTEX
  5
95
  8
Layer_1
  10
49.425125
  20
325.62983
  0
VERTEX
  5
96
  8
Layer_1
  10
49.425125
  20
300.62983
  0
VERTEX
  5
97
  8
Layer_1
  10
46.425125
  20
300.62983
  0
VERTEX
  5
98
  8
Layer_1
  10
46.425125
  20
270.62982
  0
VERTEX
  5
99
  8
Layer_1
  10
49.425125
  20
270.62982
  0
VERTEX
  5
9a
  8
Layer_1
  10
49.425125
  20
245.62982
  0
VERTEX
  5
9b
  8
Layer_1
  10
74.425125
  20
245.62982
  0
VERTEX
  5
9c
  8
Layer_1
  10
74.425125
  20
242.62982
  0
VERTEX
  5
9d
  8
Layer_1
  10
84.425125
  20
242.62982
  0
VERTEX
  5
9e
  8
Layer_1
  10
84.425125
  20
245.62982
  0
VERTEX
  5
9f
  8
Layer_1
  10
109.42513
  20
245.62982
  0
SEQEND
  0
POLYLINE
  5
a1
  8
Layer_1
  62
1
  66
1
  10
0
  20
0
  30
0
  0
VERTEX
  5
a1
  8
Layer_1
  10
109.42513
  20
295.57983
  0
VERTEX
  5
a2
  8
Layer_1
  10
112.52512
  20
295.57983
  0
VERTEX
  5
a3
  8
Layer_1
  10
112.52512
  20
275.67983
  0
VERTEX
  5
a4
  8
Layer_1
  10
109.42513
  20
275.67983
  0
SEQEND
  0
POLYLINE
  5
a6
  8
Layer_0
  62
3
  66
1
  10
0
  20
0
  30
0
  0
VERTEX
  5
a6
  8
Layer_0
  10
64.569214
  20
316.95876
  0
VERTEX
  5
a7
  8
Layer_0
  10
64.57885
  20
316.94835
  0
VERTEX
  5
a8
  8
Layer_0
  10
64.588791
  20
316.93837
  42
0.19809195
  0
VERTEX
  5
a9
  8
Layer_0
  10
64.88559
  20
316.82988
  42
0.14363406
  0
VERTEX
  5
aa
  8
Layer_0
  10
65.143867
  20
316.89681
  42
0.17481588
  0
VERTEX
  5
ab
  8
Layer_0
  10
65.294426
  20
317.08208
  42
0.076104168
  0
VERTEX
  5
ac
  8
Layer_0
  10
65.337723
  20
317.45734
  0
VERTEX
  5
ad
  8
Layer_0
  10
65.350754
  20
319.52414
  0
VERTEX
  5
ae
  8
Layer_0
  10
65.747749
  20
319.52164
  0
VERTEX
  5
af
  8
Layer_0
  10
65.734848
  20
317.47734
  42
-0.099895032
  0
VERTEX
  5
b0
  8
Layer_0
  10
65.640106
  20
316.8947
  42
-0.16869291
  0
VERTEX
  5
b1
  8
Layer_0
  10
65.349594
  20
316.58139
  42
-0.11823626
  0
VERTEX
  5
b2
  8
Layer_0
  10
64.929276
  20
316.47633
  42
-0.0083505456
  0
VERTEX
  5
b3
  8
Layer_0
  10
64.885406
  20
316.47585
  0
VERTEX
  5
b4
  8
Layer_0
  10
64.852814
  20
316.47646
  42
-0.20892234
  0
VERTEX
  5
b5
  8
Layer_0
  10
64.28215
  20
316.70682
  0
VERTEX
  5
b6
  8
Layer_0
  10
64.265167
  20
316.72623
  42
-0.18183228
  0
VERTEX
  5
b7
  8
Layer_0
  10
64.084839
  20
317.38338
  0
VERTEX
  5
b8
  8
Layer_0
  10
64.44326
  20
317.43024
  0
VERTEX
  5
b9
  8
Layer_0
  10
64.44445
  20
317.40195
  42
0.16169497
  0
VERTEX
  5
ba
  8
Layer_0
  10
64.569214
  20
316.95876
  0
SEQEND
  0
POLYLINE
  5
bc
  8
Layer_0
  62
3
  66
1
  10
0
  20
0
  30
0
  0
VERTEX
  5
bc
  8
Layer_0
  10
68.189056
  20
317.56213
  0
VERTEX
  5
bd
  8
Layer_0
  10
68.18692
  20
317.22449
  0
VERTEX
  5
be
  8
Layer_0
  10
67.781746
  20
317.22704
  0
VERTEX
  5
bf
  8
Layer_0
  10
67.777214
  20
316.50877
  0
VERTEX
  5
c0
  8
Layer_0
  10
67.408875
  20
316.51109
  0
VERTEX
  5
c1
  8
Layer_0
  10
67.413406
  20
317.22936
  0
VERTEX
  5
c2
  8
Layer_0
  10
66.111931
  20
317.23757
  0
VERTEX
  5
c3
  8
Layer_0
  10
66.114059
  20
317.57522
  0
VERTEX
  5
c4
  8
Layer_0
  10
67.495331
  20
319.51061
  0
VERTEX
  5
c5
  8
Layer_0
  10
67.796143
  20
319.50871
  0
VERTEX
  5
c6
  8
Layer_0
  10
67.783875
  20
317.56468
  0
VERTEX
  5
c7
  8
Layer_0
  10
68.189056
  20
317.56213
  0
SEQEND
  0
POLYLINE
  5
c9
  8
Layer_0
  62
3
  66
1
  10
0
  20
0
  30
0
  0
VERTEX
  5
c9
  8
Layer_0
  10
66.476257
  20
317.57294
  0
VERTEX
  5
ca
  8
Layer_0
  10
67.415535
  20
317.56701
  0
VERTEX
  5
cb
  8
Layer_0
  10
67.424072
  20
318.91965
  0
VERTEX
  5
cc
  8
Layer_0
  10
66.476257
  20
317.57294
  0
SEQEND
  0
POLYLINE
  5
ce
  8
Layer_0
  62
3
  66
1
  10
0
  20
0
  30
0
  0
VERTEX
  5
ce
  8
Layer_0
  10
69.655304
  20
317.39735
  0
VERTEX
  5
cf
  8
Layer_0
  10
69.657639
  20
317.76775
  0
VERTEX
  5
d0
  8
Layer_0
  10
68.526009
  20
317.77488
  0
VERTEX
  5
d1
  8
Layer_0
  10
68.523666
  20
317.4045
  0
VERTEX
  5
d2
  8
Layer_0
  10
69.655304
  20
317.39735
  0
SEQEND
  0
POLYLINE
  5
d4
  8
Layer_0
  62
3
  66
1
  10
0
  20
0
  30
0
  0
VERTEX
  5
d4
  8
Layer_0
  10
71.913315
  20
317.20097
  0
VERTEX
  5
d5
  8
Layer_0
  10
71.915443
  20
317.53862
  0
VERTEX
  5
d6
  8
Layer_0
  10
71.510269
  20
317.54118
  0
VERTEX
  5
d7
  8
Layer_0
  10
71.522537
  20
319.48521
  0
VERTEX
  5
d8
  8
Layer_0
  10
71.221718
  20
319.48711
  0
VERTEX
  5
d9
  8
Layer_0
  10
69.840454
  20
317.55171
  0
VERTEX
  5
da
  8
Layer_0
  10
69.838318
  20
317.21407
  0
VERTEX
  5
db
  8
Layer_0
  10
71.139801
  20
317.20586
  0
VERTEX
  5
dc
  8
Layer_0
  10
71.135269
  20
316.48759
  0
VERTEX
  5
dd
  8
Layer_0
  10
71.503609
  20
316.48526
  0
VERTEX
  5
de
  8
Layer_0
  10
71.508133
  20
317.20354
  0
VERTEX
  5
df
  8
Layer_0
  10
71.913315
  20
317.20097
  0
SEQEND
  0
POLYLINE
  5
e1
  8
Layer_0
  62
3
  66
1
  10
0
  20
0
  30
0
  0
VERTEX
  5
e1
  8
Layer_0
  10
70.202652
  20
317.54942
  0
VERTEX
  5
e2
  8
Layer_0
  10
71.141922
  20
317.5435
  0
VERTEX
  5
e3
  8
Layer_0
  10
71.150459
  20
318.89613
  0
VERTEX
  5
e4
  8
Layer_0
  10
70.202652
  20
317.54942
  0
SEQEND
  0
POLYLINE
  5
e6
  8
Layer_1
  62
1
  66
1
  10
0
  20
0
  30
0
  0
VERTEX
  5
e6
  8
Layer_1
  10
129.92513
  20
325.62983
  0
VERTEX
  5
e7
  8
Layer_1
  10
129.92513
  20
328.62983
  0
SEQEND
  0
POLYLINE
  5
e9
  8
Layer_1
  62
1
  66
1
  10
0
  20
0
  30
0
  0
VERTEX
  5
e9
  8
Layer_1
  10
129.92513
  20
328.62983
  0
VERTEX
  5
ea
  8
Layer_1
  10
159.92513
  20
328.62983
  0
SEQEND
  0
POLYLINE
  5
ec
  8
Layer_1
  62
1
  66
1
  10
0
  20
0
  30
0
  0
VERTEX
  5
ec
  8
Layer_1
  10
159.92513
  20
328.62983
  0
VERTEX
  5
ed
  8
Layer_1
  10
159.92513
  20
325.62983
  0
SEQEND
  0
POLYLINE
  5
ef
  8
Layer_1
  62
1
  66
1
  10
0
  20
0
  30
0
  0
VERTEX
  5
ef
  8
Layer_1
  10
159.92513
  20
325.62983
  0
VERTEX
  5
f0
  8
Layer_1
  10
180.42513
  20
325.62983
  0
SEQEND
  0
POLYLINE
  5
f2
  8
Layer_1
  62
1
  66
1
  10
0
  20
0
  30
0
  0
VERTEX
  5
f2
  8
Layer_1
  10
180.42513
  20
325.62983
  0
VERTEX
  5
f3
  8
Layer_1
  10
180.42513
  20
300.62983
  0
SEQEND
  0
POLYLINE
  5
f5
  8
Layer_1
  62
1
  66
1
  10
0
  20
0
  30
0
  0
VERTEX
  5
f5
  8
Layer_1
  10
180.42513
  20
300.62983
  0
VERTEX
  5
f6
  8
Layer_1
  10
183.42513
  20
300.62983
  0
SEQEND
  0
POLYLINE
  5
f8
  8
Layer_1
  62
1
  66
1
  10
0
  20
0
  30
0
  0
VERTEX
  5
f8
  8
Layer_1
  10
183.42513
  20
300.62983
  0
VERTEX
  5
f9
  8
Layer_1
  10
183.42513
  20
270.62982
  0
SEQEND
  0
POLYLINE
  5
fb
  8
Layer_1
  62
1
  66
1
  10
0
  20
0
  30
0
  0
VERTEX
  5
fb
  8
Layer_1
  10
183.42513
  20
270.62982
  0
VERTEX
  5
fc
  8
Layer_1
  10
180.42513
  20
270.62982
  0
SEQEND
  0
POLYLINE
  5
fe
  8
Layer_1
  62
1
  66
1
  10
0
  20
0
  30
0
  0
VERTEX
  5
fe
  8
Layer_1
  10
180.42513
  20
270.62982
  0
VERTEX
  5
ff
  8
Layer_1
  10
180.42513
  20
245.62982
  0
SEQEND
  0
POLYLINE
  5
101
  8
Layer_1
  62
1
  66
1
  10
0
  20
0
  30
0
  0
VERTEX
  5
101
  8
Layer_1
  10
180.42513
  20
245.62982
  0
VERTEX
  5
102
  8
Layer_1
  10
159.92513
  20
245.62982
  0
SEQEND
  0
POLYLINE
  5
104
  8
Layer_1
  62
1
  66
1
  10
0
  20
0
  30
0
  0
VERTEX
  5
104
  8
Layer_1
  10
159.92513
  20
245.62982
  0
VERTEX
  5
105
  8
Layer_1
  10
159.92513
  20
242.62982
  0
SEQEND
  0
POLYLINE
  5
107
  8
Layer_1
  62
1
  66
1
  10
0
  20
0
  30
0
  0
VERTEX
  5
107
  8
Layer_1
  10
159.92513
  20
242.62982
  0
VERTEX
  5
108
  8
Layer_1
  10
129.92513
  20
242.62982
  0
SEQEND
  0
POLYLINE
  5
10a
  8
Layer_1
  62
1
  66
1
  10
0
  20
0
  30
0
  0
VERTEX
  5
10a
  8
Layer_1
  10
129.92513
  20
242.62982
  0
VERTEX
  5
10b
  8
Layer_1
  10
129.92513
  20
245.62982
  0
SEQEND
  0
POLYLINE
  5
10d
  8
Layer_1
  62
1
  66
1
  10
0
  20
0
  30
0
  0
VERTEX
  5
10d
  8
Layer_1
  10
129.92513
  20
245.62982
  0
VERTEX
  5
10e
  8
Layer_1
  10
109.42513
  20
245.62982
  0
SEQEND
  0
POLYLINE
  5
110
  8
Layer_1
  62
1
  66
1
  10
0
  20
0
  30
0
  0
VERTEX
  5
110
  8
Layer_1
  10
109.42513
  20
275.67983
  0
VERTEX
  5
111
  8
Layer_1
  10
109.42513
  20
295.57983
  0
SEQEND
  0
POLYLINE
  5
113
  8
Layer_1
  62
1
  66
1
  10
0
  20
0
  30
0
  0
VERTEX
  5
113
  8
Layer_1
  10
109.42513
  20
325.62983
  0
VERTEX
  5
114
  8
Layer_1
  10
129.92513
  20
325.62983
  0
SEQEND
  0
ENDSEC
  0
EOF
