  0
SECTION
  2
HEADER
  9
$ACADVER
  1
AC1009
  0
ENDSEC
  0
SECTION
  2
ENTITIES
  0
CIRCLE
  5
90
  8
Layer_1
  62
1
  10
159.44955
  20
252.49911
  30
0
  40
1.5
  0
CIRCLE
  5
90
  8
Layer_1
  62
1
  10
159.44955
  20
317.49911
  30
0
  40
1.5
  0
CIRCLE
  5
90
  8
Layer_1
  62
1
  10
89.449554
  20
252.49911
  30
0
  40
1.5
  0
CIRCLE
  5
90
  8
Layer_1
  62
1
  10
89.449554
  20
317.49911
  30
0
  40
1.5
  0
CIRCLE
  5
90
  8
Layer_1
  62
1
  10
124.44955
  20
284.99911
  30
0
  40
23.5
  0
CIRCLE
  5
90
  8
Layer_1
  62
1
  10
124.44955
  20
315.6991
  30
0
  40
1.5
  0
CIRCLE
  5
90
  8
Layer_1
  62
1
  10
93.749557
  20
284.99911
  30
0
  40
1.5
  0
CIRCLE
  5
90
  8
Layer_1
  62
1
  10
124.44955
  20
254.2991
  30
0
  40
1.5
  0
CIRCLE
  5
90
  8
Layer_1
  62
1
  10
155.14955
  20
284.99911
  30
0
  40
1.5
  0
POLYLINE
  5
90
  8
Layer_1
  62
1
  66
1
  10
0
  20
0
  30
0
  0
VERTEX
  5
90
  8
Layer_1
  10
169.94955
  20
324.99911
  0
VERTEX
  5
91
  8
Layer_1
  10
139.44955
  20
324.99911
  0
VERTEX
  5
92
  8
Layer_1
  10
139.44955
  20
327.99911
  0
VERTEX
  5
93
  8
Layer_1
  10
109.44955
  20
327.99911
  0
VERTEX
  5
94
  8
Layer_1
  10
109.44955
  20
324.99911
  0
VERTEX
  5
95
  8
Layer_1
  10
78.949554
  20
324.99911
  0
VERTEX
  5
96
  8
Layer_1
  10
78.949554
  20
299.93839
  0
VERTEX
  5
97
  8
Layer_1
  10
81.949554
  20
299.93839
  0
VERTEX
  5
98
  8
Layer_1
  10
81.949554
  20
270.03839
  0
VERTEX
  5
99
  8
Layer_1
  10
78.949554
  20
270.03839
  0
VERTEX
  5
9a
  8
Layer_1
  10
78.949554
  20
244.99911
  0
VERTEX
  5
9b
  8
Layer_1
  10
109.44955
  20
244.99911
  0
VERTEX
  5
9c
  8
Layer_1
  10
109.44955
  20
241.99911
  0
VERTEX
  5
9d
  8
Layer_1
  10
139.44955
  20
241.99911
  0
VERTEX
  5
9e
  8
Layer_1
  10
139.44955
  20
244.99911
  0
VERTEX
  5
9f
  8
Layer_1
  10
169.94955
  20
244.99911
  0
VERTEX
  5
a0
  8
Layer_1
  10
169.94955
  20
270.0491
  0
VERTEX
  5
a1
  8
Layer_1
  10
166.94955
  20
270.0491
  0
VERTEX
  5
a2
  8
Layer_1
  10
166.94955
  20
299.9491
  0
VERTEX
  5
a3
  8
Layer_1
  10
169.94955
  20
299.9491
  0
VERTEX
  5
a4
  8
Layer_1
  10
169.94955
  20
324.99911
  0
SEQEND
  0
POLYLINE
  5
a6
  8
Layer_0
  62
3
  66
1
  10
0
  20
0
  30
0
  0
VERTEX
  5
a6
  8
Layer_0
  10
98.81208
  20
318.22931
  0
VERTEX
  5
a7
  8
Layer_0
  10
98.82177
  20
318.21895
  42
0.20894981
  0
VERTEX
  5
a8
  8
Layer_0
  10
99.129135
  20
318.1021
  42
0.14379869
  0
VERTEX
  5
a9
  8
Layer_0
  10
99.387054
  20
318.17039
  42
0.17578855
  0
VERTEX
  5
aa
  8
Layer_0
  10
99.536629
  20
318.35646
  42
0.075985007
  0
VERTEX
  5
ab
  8
Layer_0
  10
99.57795
  20
318.73193
  0
VERTEX
  5
ac
  8
Layer_0
  10
99.580093
  20
320.79877
  0
VERTEX
  5
ad
  8
Layer_0
  10
99.977097
  20
320.79836
  0
VERTEX
  5
ae
  8
Layer_0
  10
99.974968
  20
318.75403
  42
-0.10000165
  0
VERTEX
  5
af
  8
Layer_0
  10
99.883301
  20
318.1709
  42
-0.16896974
  0
VERTEX
  5
b0
  8
Layer_0
  10
99.594429
  20
317.85606
  42
-0.11816889
  0
VERTEX
  5
b1
  8
Layer_0
  10
99.174675
  20
317.74879
  42
-0.013437779
  0
VERTEX
  5
b2
  8
Layer_0
  10
99.130814
  20
317.74808
  0
VERTEX
  5
b3
  8
Layer_0
  10
99.098221
  20
317.7485
  42
-0.20918113
  0
VERTEX
  5
b4
  8
Layer_0
  10
98.526344
  20
317.97586
  0
VERTEX
  5
b5
  8
Layer_0
  10
98.509262
  20
317.99519
  42
-0.18189212
  0
VERTEX
  5
b6
  8
Layer_0
  10
98.325478
  20
318.65137
  0
VERTEX
  5
b7
  8
Layer_0
  10
98.683647
  20
318.70012
  0
VERTEX
  5
b8
  8
Layer_0
  10
98.684982
  20
318.67184
  42
0.16165559
  0
VERTEX
  5
b9
  8
Layer_0
  10
98.81208
  20
318.22931
  0
SEQEND
  0
POLYLINE
  5
bb
  8
Layer_0
  62
3
  66
1
  10
0
  20
0
  30
0
  0
VERTEX
  5
bb
  8
Layer_0
  10
102.02316
  20
318.51451
  0
VERTEX
  5
bc
  8
Layer_0
  10
102.02241
  20
317.79623
  0
VERTEX
  5
bd
  8
Layer_0
  10
101.65406
  20
317.79662
  0
VERTEX
  5
be
  8
Layer_0
  10
101.65481
  20
318.51489
  0
VERTEX
  5
bf
  8
Layer_0
  10
100.3533
  20
318.51625
  0
VERTEX
  5
c0
  8
Layer_0
  10
100.35365
  20
318.8539
  0
VERTEX
  5
c1
  8
Layer_0
  10
101.72471
  20
320.79654
  0
VERTEX
  5
c2
  8
Layer_0
  10
102.02553
  20
320.79623
  0
VERTEX
  5
c3
  8
Layer_0
  10
102.02351
  20
318.85217
  0
VERTEX
  5
c4
  8
Layer_0
  10
102.42869
  20
318.85175
  0
VERTEX
  5
c5
  8
Layer_0
  10
102.42834
  20
318.51409
  0
VERTEX
  5
c6
  8
Layer_0
  10
102.02316
  20
318.51451
  0
SEQEND
  0
POLYLINE
  5
c8
  8
Layer_0
  62
3
  66
1
  10
0
  20
0
  30
0
  0
VERTEX
  5
c8
  8
Layer_0
  10
100.71587
  20
318.85353
  0
VERTEX
  5
c9
  8
Layer_0
  10
101.65516
  20
318.85255
  0
VERTEX
  5
ca
  8
Layer_0
  10
101.65656
  20
320.20521
  0
VERTEX
  5
cb
  8
Layer_0
  10
100.71587
  20
318.85353
  0
SEQEND
  0
POLYLINE
  5
cd
  8
Layer_0
  62
3
  66
1
  10
0
  20
0
  30
0
  0
VERTEX
  5
cd
  8
Layer_0
  10
103.89616
  20
319.06509
  0
VERTEX
  5
ce
  8
Layer_0
  10
103.89578
  20
318.69469
  0
VERTEX
  5
cf
  8
Layer_0
  10
102.76414
  20
318.69588
  0
VERTEX
  5
d0
  8
Layer_0
  10
102.76452
  20
319.06627
  0
VERTEX
  5
d1
  8
Layer_0
  10
103.89616
  20
319.06509
  0
SEQEND
  0
POLYLINE
  5
d3
  8
Layer_0
  62
3
  66
1
  10
0
  20
0
  30
0
  0
VERTEX
  5
d3
  8
Layer_0
  10
104.82039
  20
318.34687
  42
-0.021916263
  0
VERTEX
  5
d4
  8
Layer_0
  10
105.14243
  20
318.6363
  0
VERTEX
  5
d5
  8
Layer_0
  10
105.24643
  20
318.72398
  42
0.032463775
  0
VERTEX
  5
d6
  8
Layer_0
  10
105.81485
  20
319.25137
  42
0.080661832
  0
VERTEX
  5
d7
  8
Layer_0
  10
106.05977
  20
319.61742
  42
0.10130264
  0
VERTEX
  5
d8
  8
Layer_0
  10
106.13381
  20
319.97136
  42
0.21342283
  0
VERTEX
  5
d9
  8
Layer_0
  10
105.88272
  20
320.56508
  42
0.19707066
  0
VERTEX
  5
da
  8
Layer_0
  10
105.19948
  20
320.80521
  42
0.17479995
  0
VERTEX
  5
db
  8
Layer_0
  10
104.53927
  20
320.60198
  0
VERTEX
  5
dc
  8
Layer_0
  10
104.51781
  20
320.58389
  42
0.19105171
  0
VERTEX
  5
dd
  8
Layer_0
  10
104.22815
  20
319.9735
  0
VERTEX
  5
de
  8
Layer_0
  10
104.2245
  20
319.93855
  0
VERTEX
  5
df
  8
Layer_0
  10
104.60304
  20
319.89928
  42
-0.19065317
  0
VERTEX
  5
e0
  8
Layer_0
  10
104.75212
  20
320.32764
  0
VERTEX
  5
e1
  8
Layer_0
  10
104.76517
  20
320.34113
  42
-0.19851613
  0
VERTEX
  5
e2
  8
Layer_0
  10
105.16899
  20
320.50005
  0
VERTEX
  5
e3
  8
Layer_0
  10
105.19098
  20
320.50031
  42
-0.011502973
  0
VERTEX
  5
e4
  8
Layer_0
  10
105.23227
  20
320.49922
  42
-0.18599899
  0
VERTEX
  5
e5
  8
Layer_0
  10
105.59908
  20
320.34947
  42
-0.21211633
  0
VERTEX
  5
e6
  8
Layer_0
  10
105.75523
  20
319.97993
  42
-0.15976526
  0
VERTEX
  5
e7
  8
Layer_0
  10
105.58289
  20
319.53708
  42
-0.05609477
  0
VERTEX
  5
e8
  8
Layer_0
  10
104.92123
  20
318.90236
  42
0.040758824
  0
VERTEX
  5
e9
  8
Layer_0
  10
104.45302
  20
318.46503
  0
VERTEX
  5
ea
  8
Layer_0
  10
104.43884
  20
318.44856
  42
0.078232942
  0
VERTEX
  5
eb
  8
Layer_0
  10
104.20921
  20
318.08348
  0
VERTEX
  5
ec
  8
Layer_0
  10
104.19593
  20
318.04977
  42
0.091889614
  0
VERTEX
  5
ed
  8
Layer_0
  10
104.15239
  20
317.81612
  0
VERTEX
  5
ee
  8
Layer_0
  10
104.15269
  20
317.79402
  0
VERTEX
  5
ef
  8
Layer_0
  10
106.13564
  20
317.79196
  0
VERTEX
  5
f0
  8
Layer_0
  10
106.136
  20
318.14598
  0
VERTEX
  5
f1
  8
Layer_0
  10
104.66466
  20
318.14751
  42
-0.049537447
  0
VERTEX
  5
f2
  8
Layer_0
  10
104.80491
  20
318.33034
  0
VERTEX
  5
f3
  8
Layer_0
  10
104.82039
  20
318.34687
  0
SEQEND
  0
ENDSEC
  0
EOF
