  0
SECTION
  2
HEADER
  9
$ACADVER
  1
AC1009
  0
ENDSEC
  0
SECTION
  2
ENTITIES
  0
CIRCLE
  5
90
  8
Layer_0
  62
1
  10
279.09729
  20
335.11969
  30
0
  40
1.5
  0
CIRCLE
  5
90
  8
Layer_0
  62
1
  10
377.09729
  20
335.11969
  30
0
  40
1.5
  0
CIRCLE
  5
90
  8
Layer_0
  62
1
  10
377.09729
  20
270.11969
  30
0
  40
1.5
  0
CIRCLE
  5
90
  8
Layer_0
  62
1
  10
279.09729
  20
270.11969
  30
0
  40
1.5
  0
CIRCLE
  5
90
  8
Layer_0
  62
1
  10
353.09729
  20
320.61969
  30
0
  40
1.5
  0
CIRCLE
  5
90
  8
Layer_0
  62
1
  10
335.09729
  20
302.61969
  30
0
  40
1.5
  0
CIRCLE
  5
90
  8
Layer_0
  62
1
  10
353.09729
  20
284.61969
  30
0
  40
1.5
  0
CIRCLE
  5
90
  8
Layer_0
  62
1
  10
371.09729
  20
302.61969
  30
0
  40
1.5
  0
POLYLINE
  5
90
  8
Layer_0
  62
1
  66
1
  10
0
  20
0
  30
0
  0
VERTEX
  5
90
  8
Layer_0
  10
301.59729
  20
342.61969
  0
VERTEX
  5
91
  8
Layer_0
  10
291.59729
  20
342.61969
  0
VERTEX
  5
92
  8
Layer_0
  10
291.59729
  20
345.61969
  0
VERTEX
  5
93
  8
Layer_0
  10
281.59729
  20
345.61969
  0
VERTEX
  5
94
  8
Layer_0
  10
281.59729
  20
342.61969
  0
VERTEX
  5
95
  8
Layer_0
  10
271.59729
  20
342.61969
  0
VERTEX
  5
96
  8
Layer_0
  10
271.59729
  20
317.61969
  0
VERTEX
  5
97
  8
Layer_0
  10
268.59729
  20
317.61969
  0
VERTEX
  5
98
  8
Layer_0
  10
268.59729
  20
287.61969
  0
VERTEX
  5
99
  8
Layer_0
  10
271.59729
  20
287.61969
  0
VERTEX
  5
9a
  8
Layer_0
  10
271.59729
  20
262.61969
  0
VERTEX
  5
9b
  8
Layer_0
  10
281.59729
  20
262.61969
  0
VERTEX
  5
9c
  8
Layer_0
  10
281.59729
  20
259.61969
  0
VERTEX
  5
9d
  8
Layer_0
  10
291.59729
  20
259.61969
  0
VERTEX
  5
9e
  8
Layer_0
  10
291.59729
  20
262.61969
  0
VERTEX
  5
9f
  8
Layer_0
  10
301.59729
  20
262.61969
  0
SEQEND
  0
POLYLINE
  5
a1
  8
Layer_0
  62
1
  66
1
  10
0
  20
0
  30
0
  0
VERTEX
  5
a1
  8
Layer_0
  10
301.59729
  20
317.61969
  0
VERTEX
  5
a2
  8
Layer_0
  10
304.6973
  20
317.61969
  0
VERTEX
  5
a3
  8
Layer_0
  10
304.6973
  20
287.7197
  0
VERTEX
  5
a4
  8
Layer_0
  10
301.59729
  20
287.7197
  0
SEQEND
  0
POLYLINE
  5
a6
  8
Layer_1
  62
3
  66
1
  10
0
  20
0
  30
0
  0
VERTEX
  5
a6
  8
Layer_1
  10
285.87109
  20
331.90326
  42
0.086306825
  0
VERTEX
  5
a7
  8
Layer_1
  10
285.96893
  20
331.82532
  42
0.12405664
  0
VERTEX
  5
a8
  8
Layer_1
  10
286.1875
  20
331.77438
  0
VERTEX
  5
a9
  8
Layer_1
  10
286.2121
  20
331.77469
  42
0.13404052
  0
VERTEX
  5
aa
  8
Layer_1
  10
286.44577
  20
331.84131
  0
VERTEX
  5
ab
  8
Layer_1
  10
286.46344
  20
331.85297
  42
0.16014599
  0
VERTEX
  5
ac
  8
Layer_1
  10
286.59631
  20
332.02658
  0
VERTEX
  5
ad
  8
Layer_1
  10
286.59973
  20
332.03662
  42
0.070126786
  0
VERTEX
  5
ae
  8
Layer_1
  10
286.63962
  20
332.40182
  0
VERTEX
  5
af
  8
Layer_1
  10
286.65265
  20
334.46863
  0
VERTEX
  5
b0
  8
Layer_1
  10
287.04965
  20
334.46613
  0
VERTEX
  5
b1
  8
Layer_1
  10
287.03674
  20
332.42184
  0
VERTEX
  5
b2
  8
Layer_1
  10
287.03641
  20
332.39075
  42
-0.098281558
  0
VERTEX
  5
b3
  8
Layer_1
  10
286.94202
  20
331.8392
  0
VERTEX
  5
b4
  8
Layer_1
  10
286.93414
  20
331.8222
  42
-0.16177284
  0
VERTEX
  5
b5
  8
Layer_1
  10
286.65149
  20
331.52588
  0
VERTEX
  5
b6
  8
Layer_1
  10
286.63486
  20
331.51715
  42
-0.12080891
  0
VERTEX
  5
b7
  8
Layer_1
  10
286.18732
  20
331.42035
  0
VERTEX
  5
b8
  8
Layer_1
  10
286.15472
  20
331.42096
  42
-0.20907576
  0
VERTEX
  5
b9
  8
Layer_1
  10
285.58405
  20
331.65131
  42
-0.19422544
  0
VERTEX
  5
ba
  8
Layer_1
  10
285.38675
  20
332.32788
  0
VERTEX
  5
bb
  8
Layer_1
  10
285.74515
  20
332.37473
  42
0.16248792
  0
VERTEX
  5
bc
  8
Layer_1
  10
285.87109
  20
331.90326
  0
SEQEND
  0
POLYLINE
  5
be
  8
Layer_1
  62
3
  66
1
  10
0
  20
0
  30
0
  0
VERTEX
  5
be
  8
Layer_1
  10
289.08578
  20
332.50919
  0
VERTEX
  5
bf
  8
Layer_1
  10
289.09802
  20
334.45322
  0
VERTEX
  5
c0
  8
Layer_1
  10
288.79724
  20
334.45511
  0
VERTEX
  5
c1
  8
Layer_1
  10
287.41595
  20
332.51971
  0
VERTEX
  5
c2
  8
Layer_1
  10
287.41382
  20
332.18207
  0
VERTEX
  5
c3
  8
Layer_1
  10
288.7153
  20
332.17386
  0
VERTEX
  5
c4
  8
Layer_1
  10
288.71075
  20
331.4556
  0
VERTEX
  5
c5
  8
Layer_1
  10
289.0791
  20
331.45328
  0
VERTEX
  5
c6
  8
Layer_1
  10
289.08365
  20
332.17154
  0
VERTEX
  5
c7
  8
Layer_1
  10
289.48883
  20
332.16898
  0
VERTEX
  5
c8
  8
Layer_1
  10
289.49097
  20
332.50662
  0
VERTEX
  5
c9
  8
Layer_1
  10
289.08578
  20
332.50919
  0
SEQEND
  0
POLYLINE
  5
cb
  8
Layer_1
  62
3
  66
1
  10
0
  20
0
  30
0
  0
VERTEX
  5
cb
  8
Layer_1
  10
287.77817
  20
332.51743
  0
VERTEX
  5
cc
  8
Layer_1
  10
288.71744
  20
332.51151
  0
VERTEX
  5
cd
  8
Layer_1
  10
288.72595
  20
333.86414
  0
VERTEX
  5
ce
  8
Layer_1
  10
287.77817
  20
332.51743
  0
SEQEND
  0
POLYLINE
  5
d0
  8
Layer_1
  62
3
  66
1
  10
0
  20
0
  30
0
  0
VERTEX
  5
d0
  8
Layer_1
  10
290.95721
  20
332.34186
  0
VERTEX
  5
d1
  8
Layer_1
  10
290.95953
  20
332.71225
  0
VERTEX
  5
d2
  8
Layer_1
  10
289.82791
  20
332.71936
  0
VERTEX
  5
d3
  8
Layer_1
  10
289.82556
  20
332.349
  0
VERTEX
  5
d4
  8
Layer_1
  10
290.95721
  20
332.34186
  0
SEQEND
  0
POLYLINE
  5
d6
  8
Layer_1
  62
3
  66
1
  10
0
  20
0
  30
0
  0
VERTEX
  5
d6
  8
Layer_1
  10
292.81216
  20
332.48569
  0
VERTEX
  5
d7
  8
Layer_1
  10
293.21735
  20
332.48312
  0
VERTEX
  5
d8
  8
Layer_1
  10
293.21521
  20
332.14548
  0
VERTEX
  5
d9
  8
Layer_1
  10
292.81003
  20
332.14804
  0
VERTEX
  5
da
  8
Layer_1
  10
292.80551
  20
331.42975
  0
VERTEX
  5
db
  8
Layer_1
  10
292.43716
  20
331.4321
  0
VERTEX
  5
dc
  8
Layer_1
  10
292.44171
  20
332.15036
  0
VERTEX
  5
dd
  8
Layer_1
  10
291.14023
  20
332.15857
  0
VERTEX
  5
de
  8
Layer_1
  10
291.14233
  20
332.49622
  0
VERTEX
  5
df
  8
Layer_1
  10
292.52362
  20
334.43161
  0
VERTEX
  5
e0
  8
Layer_1
  10
292.82443
  20
334.42969
  0
VERTEX
  5
e1
  8
Layer_1
  10
292.81216
  20
332.48569
  0
SEQEND
  0
POLYLINE
  5
e3
  8
Layer_1
  62
3
  66
1
  10
0
  20
0
  30
0
  0
VERTEX
  5
e3
  8
Layer_1
  10
291.50455
  20
332.49393
  0
VERTEX
  5
e4
  8
Layer_1
  10
292.44382
  20
332.48801
  0
VERTEX
  5
e5
  8
Layer_1
  10
292.45236
  20
333.84064
  0
VERTEX
  5
e6
  8
Layer_1
  10
291.50455
  20
332.49393
  0
SEQEND
  0
POLYLINE
  5
e8
  8
Layer_0
  62
1
  66
1
  10
0
  20
0
  30
0
  0
VERTEX
  5
e8
  8
Layer_0
  10
328.09729
  20
342.61969
  0
VERTEX
  5
e9
  8
Layer_0
  10
328.09729
  20
345.61969
  0
SEQEND
  0
POLYLINE
  5
eb
  8
Layer_0
  62
1
  66
1
  10
0
  20
0
  30
0
  0
VERTEX
  5
eb
  8
Layer_0
  10
328.09729
  20
345.61969
  0
VERTEX
  5
ec
  8
Layer_0
  10
358.09729
  20
345.61969
  0
SEQEND
  0
POLYLINE
  5
ee
  8
Layer_0
  62
1
  66
1
  10
0
  20
0
  30
0
  0
VERTEX
  5
ee
  8
Layer_0
  10
358.09729
  20
345.61969
  0
VERTEX
  5
ef
  8
Layer_0
  10
358.09729
  20
342.61969
  0
SEQEND
  0
POLYLINE
  5
f1
  8
Layer_0
  62
1
  66
1
  10
0
  20
0
  30
0
  0
VERTEX
  5
f1
  8
Layer_0
  10
358.09729
  20
342.61969
  0
VERTEX
  5
f2
  8
Layer_0
  10
384.59729
  20
342.61969
  0
SEQEND
  0
POLYLINE
  5
f4
  8
Layer_0
  62
1
  66
1
  10
0
  20
0
  30
0
  0
VERTEX
  5
f4
  8
Layer_0
  10
384.59729
  20
342.61969
  0
VERTEX
  5
f5
  8
Layer_0
  10
384.59729
  20
317.61969
  0
SEQEND
  0
POLYLINE
  5
f7
  8
Layer_0
  62
1
  66
1
  10
0
  20
0
  30
0
  0
VERTEX
  5
f7
  8
Layer_0
  10
384.59729
  20
317.61969
  0
VERTEX
  5
f8
  8
Layer_0
  10
387.59729
  20
317.61969
  0
SEQEND
  0
POLYLINE
  5
fa
  8
Layer_0
  62
1
  66
1
  10
0
  20
0
  30
0
  0
VERTEX
  5
fa
  8
Layer_0
  10
387.59729
  20
317.61969
  0
VERTEX
  5
fb
  8
Layer_0
  10
387.59729
  20
287.61969
  0
SEQEND
  0
POLYLINE
  5
fd
  8
Layer_0
  62
1
  66
1
  10
0
  20
0
  30
0
  0
VERTEX
  5
fd
  8
Layer_0
  10
387.59729
  20
287.61969
  0
VERTEX
  5
fe
  8
Layer_0
  10
384.59729
  20
287.61969
  0
SEQEND
  0
POLYLINE
  5
100
  8
Layer_0
  62
1
  66
1
  10
0
  20
0
  30
0
  0
VERTEX
  5
100
  8
Layer_0
  10
384.59729
  20
287.61969
  0
VERTEX
  5
101
  8
Layer_0
  10
384.59729
  20
262.61969
  0
SEQEND
  0
POLYLINE
  5
103
  8
Layer_0
  62
1
  66
1
  10
0
  20
0
  30
0
  0
VERTEX
  5
103
  8
Layer_0
  10
384.59729
  20
262.61969
  0
VERTEX
  5
104
  8
Layer_0
  10
358.09729
  20
262.61969
  0
SEQEND
  0
POLYLINE
  5
106
  8
Layer_0
  62
1
  66
1
  10
0
  20
0
  30
0
  0
VERTEX
  5
106
  8
Layer_0
  10
358.09729
  20
262.61969
  0
VERTEX
  5
107
  8
Layer_0
  10
358.09729
  20
259.61969
  0
SEQEND
  0
POLYLINE
  5
109
  8
Layer_0
  62
1
  66
1
  10
0
  20
0
  30
0
  0
VERTEX
  5
109
  8
Layer_0
  10
358.09729
  20
259.61969
  0
VERTEX
  5
10a
  8
Layer_0
  10
328.09729
  20
259.61969
  0
SEQEND
  0
POLYLINE
  5
10c
  8
Layer_0
  62
1
  66
1
  10
0
  20
0
  30
0
  0
VERTEX
  5
10c
  8
Layer_0
  10
328.09729
  20
259.61969
  0
VERTEX
  5
10d
  8
Layer_0
  10
328.09729
  20
262.61969
  0
SEQEND
  0
POLYLINE
  5
10f
  8
Layer_0
  62
1
  66
1
  10
0
  20
0
  30
0
  0
VERTEX
  5
10f
  8
Layer_0
  10
328.09729
  20
262.61969
  0
VERTEX
  5
110
  8
Layer_0
  10
301.59729
  20
262.61969
  0
SEQEND
  0
POLYLINE
  5
112
  8
Layer_0
  62
1
  66
1
  10
0
  20
0
  30
0
  0
VERTEX
  5
112
  8
Layer_0
  10
301.59729
  20
287.7197
  0
VERTEX
  5
113
  8
Layer_0
  10
301.59729
  20
317.61969
  0
SEQEND
  0
POLYLINE
  5
115
  8
Layer_0
  62
1
  66
1
  10
0
  20
0
  30
0
  0
VERTEX
  5
115
  8
Layer_0
  10
301.59729
  20
342.61969
  0
VERTEX
  5
116
  8
Layer_0
  10
328.09729
  20
342.61969
  0
SEQEND
  0
ENDSEC
  0
EOF
