  0
SECTION
  2
HEADER
  9
$ACADVER
  1
AC1009
  0
ENDSEC
  0
SECTION
  2
ENTITIES
  0
CIRCLE
  5
90
  8
Layer_1
  62
1
  10
149.35645
  20
265.80487
  30
0
  40
1.5
  0
CIRCLE
  5
90
  8
Layer_1
  62
1
  10
149.35645
  20
330.80487
  30
0
  40
1.5
  0
CIRCLE
  5
90
  8
Layer_1
  62
1
  10
79.356445
  20
330.80487
  30
0
  40
1.5
  0
CIRCLE
  5
90
  8
Layer_1
  62
1
  10
114.35645
  20
298.30487
  30
0
  40
23.5
  0
CIRCLE
  5
90
  8
Layer_1
  62
1
  10
147.73177
  20
304.79236
  30
0
  40
1.5
  0
CIRCLE
  5
90
  8
Layer_1
  62
1
  10
80.981125
  20
291.81738
  30
0
  40
1.5
  0
CIRCLE
  5
90
  8
Layer_1
  62
1
  10
125.42577
  20
266.15723
  30
0
  40
1.5
  0
CIRCLE
  5
90
  8
Layer_1
  62
1
  10
103.28712
  20
330.45251
  30
0
  40
1.5
  0
CIRCLE
  5
90
  8
Layer_1
  62
1
  10
77.856445
  20
268.30487
  30
0
  40
1.25
  0
CIRCLE
  5
90
  8
Layer_1
  62
1
  10
87.856445
  20
268.30487
  30
0
  40
1.25
  0
POLYLINE
  5
90
  8
Layer_1
  62
1
  66
1
  10
0
  20
0
  30
0
  0
VERTEX
  5
90
  8
Layer_1
  10
99.356445
  20
338.30487
  0
VERTEX
  5
91
  8
Layer_1
  10
99.356445
  20
341.30487
  0
VERTEX
  5
92
  8
Layer_1
  10
129.35645
  20
341.30487
  0
VERTEX
  5
93
  8
Layer_1
  10
129.35645
  20
338.30487
  0
VERTEX
  5
94
  8
Layer_1
  10
156.85645
  20
338.30487
  0
VERTEX
  5
95
  8
Layer_1
  10
156.85645
  20
313.30487
  0
VERTEX
  5
96
  8
Layer_1
  10
159.85645
  20
313.30487
  0
VERTEX
  5
97
  8
Layer_1
  10
159.85645
  20
283.30487
  0
VERTEX
  5
98
  8
Layer_1
  10
156.85645
  20
283.30487
  0
VERTEX
  5
99
  8
Layer_1
  10
156.85645
  20
258.30487
  0
VERTEX
  5
9a
  8
Layer_1
  10
129.35645
  20
258.30487
  0
VERTEX
  5
9b
  8
Layer_1
  10
129.35645
  20
255.30487
  0
VERTEX
  5
9c
  8
Layer_1
  10
99.356445
  20
255.30487
  0
VERTEX
  5
9d
  8
Layer_1
  10
99.356445
  20
258.30487
  0
VERTEX
  5
9e
  8
Layer_1
  10
96.856445
  20
258.30487
  0
VERTEX
  5
9f
  8
Layer_1
  10
96.856445
  20
265.30487
  0
VERTEX
  5
a0
  8
Layer_1
  10
71.856445
  20
265.30487
  0
VERTEX
  5
a1
  8
Layer_1
  10
71.856445
  20
276.30487
  0
VERTEX
  5
a2
  8
Layer_1
  10
76.856445
  20
276.30487
  0
VERTEX
  5
a3
  8
Layer_1
  10
76.856445
  20
284.30487
  0
VERTEX
  5
a4
  8
Layer_1
  10
71.856445
  20
284.30487
  0
VERTEX
  5
a5
  8
Layer_1
  10
71.856445
  20
288.30487
  0
VERTEX
  5
a6
  8
Layer_1
  10
68.856445
  20
288.30487
  0
VERTEX
  5
a7
  8
Layer_1
  10
68.856445
  20
308.30487
  0
VERTEX
  5
a8
  8
Layer_1
  10
71.856445
  20
308.30487
  0
VERTEX
  5
a9
  8
Layer_1
  10
71.856445
  20
312.30487
  0
VERTEX
  5
aa
  8
Layer_1
  10
76.856445
  20
312.30487
  0
VERTEX
  5
ab
  8
Layer_1
  10
76.856445
  20
320.30487
  0
VERTEX
  5
ac
  8
Layer_1
  10
71.856445
  20
320.30487
  0
VERTEX
  5
ad
  8
Layer_1
  10
71.856445
  20
338.30487
  0
VERTEX
  5
ae
  8
Layer_1
  10
99.356445
  20
338.30487
  0
SEQEND
  0
POLYLINE
  5
b0
  8
Layer_0
  62
3
  66
1
  10
0
  20
0
  30
0
  0
VERTEX
  5
b0
  8
Layer_0
  10
88.942566
  20
332.13036
  0
VERTEX
  5
b1
  8
Layer_0
  10
88.952293
  20
332.12003
  42
0.20816459
  0
VERTEX
  5
b2
  8
Layer_0
  10
89.260071
  20
332.00426
  42
0.14413961
  0
VERTEX
  5
b3
  8
Layer_0
  10
89.517746
  20
332.07346
  42
0.17510778
  0
VERTEX
  5
b4
  8
Layer_0
  10
89.666672
  20
332.26006
  42
0.076095043
  0
VERTEX
  5
b5
  8
Layer_0
  10
89.706665
  20
332.63567
  0
VERTEX
  5
b6
  8
Layer_0
  10
89.701523
  20
334.70251
  0
VERTEX
  5
b7
  8
Layer_0
  10
90.098518
  20
334.70349
  0
VERTEX
  5
b8
  8
Layer_0
  10
90.1036
  20
332.65916
  42
-0.099792748
  0
VERTEX
  5
b9
  8
Layer_0
  10
90.013992
  20
332.07571
  42
-0.16918631
  0
VERTEX
  5
ba
  8
Layer_0
  10
89.726234
  20
331.75986
  42
-0.11832866
  0
VERTEX
  5
bb
  8
Layer_0
  10
89.306862
  20
331.65111
  42
-0.01075903
  0
VERTEX
  5
bc
  8
Layer_0
  10
89.263
  20
331.65025
  0
VERTEX
  5
bd
  8
Layer_0
  10
89.230408
  20
331.65056
  42
-0.20894734
  0
VERTEX
  5
be
  8
Layer_0
  10
88.65773
  20
331.87589
  0
VERTEX
  5
bf
  8
Layer_0
  10
88.640579
  20
331.89516
  42
-0.18174345
  0
VERTEX
  5
c0
  8
Layer_0
  10
88.454483
  20
332.55069
  0
VERTEX
  5
c1
  8
Layer_0
  10
88.812477
  20
332.60069
  0
VERTEX
  5
c2
  8
Layer_0
  10
88.813911
  20
332.57243
  42
0.16107204
  0
VERTEX
  5
c3
  8
Layer_0
  10
88.942566
  20
332.13036
  0
SEQEND
  0
POLYLINE
  5
c5
  8
Layer_0
  62
3
  66
1
  10
0
  20
0
  30
0
  0
VERTEX
  5
c5
  8
Layer_0
  10
91.846123
  20
334.70784
  0
VERTEX
  5
c6
  8
Layer_0
  10
90.481934
  20
332.76038
  0
VERTEX
  5
c7
  8
Layer_0
  10
90.482773
  20
332.42272
  0
VERTEX
  5
c8
  8
Layer_0
  10
91.784271
  20
332.42596
  0
VERTEX
  5
c9
  8
Layer_0
  10
91.786057
  20
331.70769
  0
VERTEX
  5
ca
  8
Layer_0
  10
92.154404
  20
331.7086
  0
VERTEX
  5
cb
  8
Layer_0
  10
92.152618
  20
332.42688
  0
VERTEX
  5
cc
  8
Layer_0
  10
92.5578
  20
332.42789
  0
VERTEX
  5
cd
  8
Layer_0
  10
92.556961
  20
332.76553
  0
VERTEX
  5
ce
  8
Layer_0
  10
92.151779
  20
332.76453
  0
VERTEX
  5
cf
  8
Layer_0
  10
92.146942
  20
334.70859
  0
VERTEX
  5
d0
  8
Layer_0
  10
91.846123
  20
334.70784
  0
SEQEND
  0
POLYLINE
  5
d2
  8
Layer_0
  62
3
  66
1
  10
0
  20
0
  30
0
  0
VERTEX
  5
d2
  8
Layer_0
  10
90.844139
  20
332.76128
  0
VERTEX
  5
d3
  8
Layer_0
  10
91.783432
  20
332.76361
  0
VERTEX
  5
d4
  8
Layer_0
  10
91.780067
  20
334.11627
  0
VERTEX
  5
d5
  8
Layer_0
  10
90.844139
  20
332.76128
  0
SEQEND
  0
POLYLINE
  5
d7
  8
Layer_0
  62
3
  66
1
  10
0
  20
0
  30
0
  0
VERTEX
  5
d7
  8
Layer_0
  10
94.023682
  20
332.98405
  0
VERTEX
  5
d8
  8
Layer_0
  10
94.024597
  20
332.61366
  0
VERTEX
  5
d9
  8
Layer_0
  10
92.89296
  20
332.61085
  0
VERTEX
  5
da
  8
Layer_0
  10
92.892029
  20
332.98125
  0
VERTEX
  5
db
  8
Layer_0
  10
94.023682
  20
332.98405
  0
SEQEND
  0
POLYLINE
  5
dd
  8
Layer_0
  62
3
  66
1
  10
0
  20
0
  30
0
  0
VERTEX
  5
dd
  8
Layer_0
  10
94.976013
  20
334.32272
  0
VERTEX
  5
de
  8
Layer_0
  10
96.173141
  20
334.3257
  0
VERTEX
  5
df
  8
Layer_0
  10
96.172272
  20
334.67767
  0
VERTEX
  5
e0
  8
Layer_0
  10
94.680466
  20
334.67397
  0
VERTEX
  5
e1
  8
Layer_0
  10
94.393707
  20
333.13232
  0
VERTEX
  5
e2
  8
Layer_0
  10
94.739655
  20
333.08816
  42
-0.11540219
  0
VERTEX
  5
e3
  8
Layer_0
  10
94.940826
  20
333.28461
  0
VERTEX
  5
e4
  8
Layer_0
  10
94.964233
  20
333.29848
  42
-0.12083294
  0
VERTEX
  5
e5
  8
Layer_0
  10
95.25589
  20
333.37947
  0
VERTEX
  5
e6
  8
Layer_0
  10
95.285316
  20
333.3801
  42
-0.010532106
  0
VERTEX
  5
e7
  8
Layer_0
  10
95.332306
  20
333.37895
  42
-0.19439198
  0
VERTEX
  5
e8
  8
Layer_0
  10
95.749275
  20
333.19913
  42
-0.20016021
  0
VERTEX
  5
e9
  8
Layer_0
  10
95.927521
  20
332.7023
  42
-0.19240096
  0
VERTEX
  5
ea
  8
Layer_0
  10
95.744675
  20
332.16978
  42
-0.21842655
  0
VERTEX
  5
eb
  8
Layer_0
  10
95.294968
  20
331.96812
  42
-0.18396437
  0
VERTEX
  5
ec
  8
Layer_0
  10
94.930244
  20
332.09783
  0
VERTEX
  5
ed
  8
Layer_0
  10
94.917061
  20
332.10941
  42
-0.16900385
  0
VERTEX
  5
ee
  8
Layer_0
  10
94.720322
  20
332.51025
  0
VERTEX
  5
ef
  8
Layer_0
  10
94.716476
  20
332.53352
  0
VERTEX
  5
f0
  8
Layer_0
  10
94.329796
  20
332.49982
  42
0.18614251
  0
VERTEX
  5
f1
  8
Layer_0
  10
94.605774
  20
331.91209
  0
VERTEX
  5
f2
  8
Layer_0
  10
94.627014
  20
331.89278
  42
0.18176091
  0
VERTEX
  5
f3
  8
Layer_0
  10
95.261871
  20
331.66557
  0
VERTEX
  5
f4
  8
Layer_0
  10
95.295723
  20
331.66525
  42
0.015642044
  0
VERTEX
  5
f5
  8
Layer_0
  10
95.377472
  20
331.66798
  42
0.22155044
  0
VERTEX
  5
f6
  8
Layer_0
  10
96.082672
  20
332.03146
  42
0.1746316
  0
VERTEX
  5
f7
  8
Layer_0
  10
96.318298
  20
332.73602
  42
0.20477812
  0
VERTEX
  5
f8
  8
Layer_0
  10
96.04644
  20
333.4352
  42
0.20730413
  0
VERTEX
  5
f9
  8
Layer_0
  10
95.382736
  20
333.70572
  42
0.15092787
  0
VERTEX
  5
fa
  8
Layer_0
  10
94.838875
  20
333.53146
  0
VERTEX
  5
fb
  8
Layer_0
  10
94.81636
  20
333.51604
  0
VERTEX
  5
fc
  8
Layer_0
  10
94.976013
  20
334.32272
  0
SEQEND
  0
ENDSEC
  0
EOF
