  0
SECTION
  2
HEADER
  9
$ACADVER
  1
AC1009
  0
ENDSEC
  0
SECTION
  2
ENTITIES
  0
CIRCLE
  5
90
  8
Layer_1
  62
1
  10
77.468201
  20
291.81348
  30
0
  40
1.5
  0
CIRCLE
  5
90
  8
Layer_1
  62
1
  10
193.4682
  20
291.81348
  30
0
  40
1.5
  0
CIRCLE
  5
90
  8
Layer_1
  62
1
  10
193.4682
  20
226.81348
  30
0
  40
1.5
  0
CIRCLE
  5
90
  8
Layer_1
  62
1
  10
77.468201
  20
226.81348
  30
0
  40
1.5
  0
CIRCLE
  5
90
  8
Layer_1
  62
1
  10
140.4682
  20
291.81348
  30
0
  40
1.5
  0
CIRCLE
  5
90
  8
Layer_1
  62
1
  10
140.4682
  20
226.81348
  30
0
  40
1.5
  0
POLYLINE
  5
90
  8
Layer_1
  62
1
  66
1
  10
0
  20
0
  30
0
  0
VERTEX
  5
90
  8
Layer_1
  10
129.9682
  20
299.31348
  0
VERTEX
  5
91
  8
Layer_1
  10
104.9682
  20
299.31348
  0
VERTEX
  5
92
  8
Layer_1
  10
104.9682
  20
302.31348
  0
VERTEX
  5
93
  8
Layer_1
  10
94.968201
  20
302.31348
  0
VERTEX
  5
94
  8
Layer_1
  10
94.968201
  20
299.31348
  0
VERTEX
  5
95
  8
Layer_1
  10
69.968201
  20
299.31348
  0
VERTEX
  5
96
  8
Layer_1
  10
69.968201
  20
274.31348
  0
VERTEX
  5
97
  8
Layer_1
  10
66.968201
  20
274.31348
  0
VERTEX
  5
98
  8
Layer_1
  10
66.968201
  20
244.31348
  0
VERTEX
  5
99
  8
Layer_1
  10
69.968201
  20
244.31348
  0
VERTEX
  5
9a
  8
Layer_1
  10
69.968201
  20
219.31348
  0
VERTEX
  5
9b
  8
Layer_1
  10
94.968201
  20
219.31348
  0
VERTEX
  5
9c
  8
Layer_1
  10
94.968201
  20
216.31348
  0
VERTEX
  5
9d
  8
Layer_1
  10
104.9682
  20
216.31348
  0
VERTEX
  5
9e
  8
Layer_1
  10
104.9682
  20
219.31348
  0
VERTEX
  5
9f
  8
Layer_1
  10
129.9682
  20
219.31348
  0
SEQEND
  0
POLYLINE
  5
a1
  8
Layer_1
  62
1
  66
1
  10
0
  20
0
  30
0
  0
VERTEX
  5
a1
  8
Layer_1
  10
129.9682
  20
274.31348
  0
VERTEX
  5
a2
  8
Layer_1
  10
133.06821
  20
274.31348
  0
VERTEX
  5
a3
  8
Layer_1
  10
133.06821
  20
244.41348
  0
VERTEX
  5
a4
  8
Layer_1
  10
129.9682
  20
244.41348
  0
SEQEND
  0
POLYLINE
  5
a6
  8
Layer_0
  62
3
  66
1
  10
0
  20
0
  30
0
  0
VERTEX
  5
a6
  8
Layer_0
  10
82.374481
  20
294.24633
  0
VERTEX
  5
a7
  8
Layer_0
  10
82.384285
  20
294.23607
  42
0.20904343
  0
VERTEX
  5
a8
  8
Layer_0
  10
82.692894
  20
294.12254
  42
0.14298822
  0
VERTEX
  5
a9
  8
Layer_0
  10
82.950058
  20
294.1936
  42
0.17425085
  0
VERTEX
  5
aa
  8
Layer_0
  10
83.097626
  20
294.38127
  42
0.07596099
  0
VERTEX
  5
ab
  8
Layer_0
  10
83.134903
  20
294.75716
  0
VERTEX
  5
ac
  8
Layer_0
  10
83.114815
  20
296.82391
  0
VERTEX
  5
ad
  8
Layer_0
  10
83.511787
  20
296.82777
  0
VERTEX
  5
ae
  8
Layer_0
  10
83.531662
  20
294.78352
  42
-0.099810445
  0
VERTEX
  5
af
  8
Layer_0
  10
83.446274
  20
294.19945
  42
-0.16941344
  0
VERTEX
  5
b0
  8
Layer_0
  10
83.160805
  20
293.88152
  42
-0.1228483
  0
VERTEX
  5
b1
  8
Layer_0
  10
82.720428
  20
293.76896
  0
VERTEX
  5
b2
  8
Layer_0
  10
82.69838
  20
293.76855
  0
VERTEX
  5
b3
  8
Layer_0
  10
82.665787
  20
293.76863
  42
-0.20923525
  0
VERTEX
  5
b4
  8
Layer_0
  10
82.091492
  20
293.98982
  0
VERTEX
  5
b5
  8
Layer_0
  10
82.074203
  20
294.00896
  42
-0.18206377
  0
VERTEX
  5
b6
  8
Layer_0
  10
81.883369
  20
294.66313
  0
VERTEX
  5
b7
  8
Layer_0
  10
82.24099
  20
294.71573
  0
VERTEX
  5
b8
  8
Layer_0
  10
82.24263
  20
294.68747
  42
0.16174521
  0
VERTEX
  5
b9
  8
Layer_0
  10
82.374481
  20
294.24633
  0
SEQEND
  0
POLYLINE
  5
bb
  8
Layer_0
  62
3
  66
1
  10
0
  20
0
  30
0
  0
VERTEX
  5
bb
  8
Layer_0
  10
85.582306
  20
294.56607
  0
VERTEX
  5
bc
  8
Layer_0
  10
85.589287
  20
293.84782
  0
VERTEX
  5
bd
  8
Layer_0
  10
85.220955
  20
293.84424
  0
VERTEX
  5
be
  8
Layer_0
  10
85.213974
  20
294.56248
  0
VERTEX
  5
bf
  8
Layer_0
  10
83.912537
  20
294.54984
  0
VERTEX
  5
c0
  8
Layer_0
  10
83.909248
  20
294.88747
  0
VERTEX
  5
c1
  8
Layer_0
  10
85.259323
  20
296.84476
  0
VERTEX
  5
c2
  8
Layer_0
  10
85.560127
  20
296.84768
  0
VERTEX
  5
c3
  8
Layer_0
  10
85.579025
  20
294.9037
  0
VERTEX
  5
c4
  8
Layer_0
  10
85.984184
  20
294.90764
  0
VERTEX
  5
c5
  8
Layer_0
  10
85.987473
  20
294.57001
  0
VERTEX
  5
c6
  8
Layer_0
  10
85.582306
  20
294.56607
  0
SEQEND
  0
POLYLINE
  5
c8
  8
Layer_0
  62
3
  66
1
  10
0
  20
0
  30
0
  0
VERTEX
  5
c8
  8
Layer_0
  10
84.271446
  20
294.89099
  0
VERTEX
  5
c9
  8
Layer_0
  10
85.210693
  20
294.90012
  0
VERTEX
  5
ca
  8
Layer_0
  10
85.19754
  20
296.25272
  0
VERTEX
  5
cb
  8
Layer_0
  10
84.271446
  20
294.89099
  0
SEQEND
  0
POLYLINE
  5
cd
  8
Layer_0
  62
3
  66
1
  10
0
  20
0
  30
0
  0
VERTEX
  5
cd
  8
Layer_0
  10
87.449287
  20
295.13676
  0
VERTEX
  5
ce
  8
Layer_0
  10
87.452888
  20
294.76639
  0
VERTEX
  5
cf
  8
Layer_0
  10
86.321289
  20
294.75539
  0
VERTEX
  5
d0
  8
Layer_0
  10
86.317688
  20
295.12576
  0
VERTEX
  5
d1
  8
Layer_0
  10
87.449287
  20
295.13676
  0
SEQEND
  0
POLYLINE
  5
d3
  8
Layer_0
  62
3
  66
1
  10
0
  20
0
  30
0
  0
VERTEX
  5
d3
  8
Layer_0
  10
88.416351
  20
295.96886
  42
-0.043623732
  0
VERTEX
  5
d4
  8
Layer_0
  10
88.030426
  20
295.77478
  0
VERTEX
  5
d5
  8
Layer_0
  10
88.026962
  20
296.13083
  42
0.072878778
  0
VERTEX
  5
d6
  8
Layer_0
  10
88.563766
  20
296.48804
  42
0.094187248
  0
VERTEX
  5
d7
  8
Layer_0
  10
88.887268
  20
296.8923
  0
VERTEX
  5
d8
  8
Layer_0
  10
89.124641
  20
296.89461
  0
VERTEX
  5
d9
  8
Layer_0
  10
89.153923
  20
293.88247
  0
VERTEX
  5
da
  8
Layer_0
  10
88.785591
  20
293.87889
  0
VERTEX
  5
db
  8
Layer_0
  10
88.762772
  20
296.22598
  42
-0.056862213
  0
VERTEX
  5
dc
  8
Layer_0
  10
88.416351
  20
295.96886
  0
SEQEND
  0
POLYLINE
  5
de
  8
Layer_1
  62
1
  66
1
  10
0
  20
0
  30
0
  0
VERTEX
  5
de
  8
Layer_1
  10
150.4682
  20
299.31348
  0
VERTEX
  5
df
  8
Layer_1
  10
150.4682
  20
302.31348
  0
SEQEND
  0
POLYLINE
  5
e1
  8
Layer_1
  62
1
  66
1
  10
0
  20
0
  30
0
  0
VERTEX
  5
e1
  8
Layer_1
  10
150.4682
  20
302.31348
  0
VERTEX
  5
e2
  8
Layer_1
  10
180.4682
  20
302.31348
  0
SEQEND
  0
POLYLINE
  5
e4
  8
Layer_1
  62
1
  66
1
  10
0
  20
0
  30
0
  0
VERTEX
  5
e4
  8
Layer_1
  10
180.4682
  20
302.31348
  0
VERTEX
  5
e5
  8
Layer_1
  10
180.4682
  20
299.31348
  0
SEQEND
  0
POLYLINE
  5
e7
  8
Layer_1
  62
1
  66
1
  10
0
  20
0
  30
0
  0
VERTEX
  5
e7
  8
Layer_1
  10
180.4682
  20
299.31348
  0
VERTEX
  5
e8
  8
Layer_1
  10
200.9682
  20
299.31348
  0
SEQEND
  0
POLYLINE
  5
ea
  8
Layer_1
  62
1
  66
1
  10
0
  20
0
  30
0
  0
VERTEX
  5
ea
  8
Layer_1
  10
200.9682
  20
299.31348
  0
VERTEX
  5
eb
  8
Layer_1
  10
200.9682
  20
274.31348
  0
SEQEND
  0
POLYLINE
  5
ed
  8
Layer_1
  62
1
  66
1
  10
0
  20
0
  30
0
  0
VERTEX
  5
ed
  8
Layer_1
  10
200.9682
  20
274.31348
  0
VERTEX
  5
ee
  8
Layer_1
  10
203.9682
  20
274.31348
  0
SEQEND
  0
POLYLINE
  5
f0
  8
Layer_1
  62
1
  66
1
  10
0
  20
0
  30
0
  0
VERTEX
  5
f0
  8
Layer_1
  10
203.9682
  20
274.31348
  0
VERTEX
  5
f1
  8
Layer_1
  10
203.9682
  20
244.31348
  0
SEQEND
  0
POLYLINE
  5
f3
  8
Layer_1
  62
1
  66
1
  10
0
  20
0
  30
0
  0
VERTEX
  5
f3
  8
Layer_1
  10
203.9682
  20
244.31348
  0
VERTEX
  5
f4
  8
Layer_1
  10
200.9682
  20
244.31348
  0
SEQEND
  0
POLYLINE
  5
f6
  8
Layer_1
  62
1
  66
1
  10
0
  20
0
  30
0
  0
VERTEX
  5
f6
  8
Layer_1
  10
200.9682
  20
244.31348
  0
VERTEX
  5
f7
  8
Layer_1
  10
200.9682
  20
219.31348
  0
SEQEND
  0
POLYLINE
  5
f9
  8
Layer_1
  62
1
  66
1
  10
0
  20
0
  30
0
  0
VERTEX
  5
f9
  8
Layer_1
  10
200.9682
  20
219.31348
  0
VERTEX
  5
fa
  8
Layer_1
  10
180.4682
  20
219.31348
  0
SEQEND
  0
POLYLINE
  5
fc
  8
Layer_1
  62
1
  66
1
  10
0
  20
0
  30
0
  0
VERTEX
  5
fc
  8
Layer_1
  10
180.4682
  20
219.31348
  0
VERTEX
  5
fd
  8
Layer_1
  10
180.4682
  20
216.31348
  0
SEQEND
  0
POLYLINE
  5
ff
  8
Layer_1
  62
1
  66
1
  10
0
  20
0
  30
0
  0
VERTEX
  5
ff
  8
Layer_1
  10
180.4682
  20
216.31348
  0
VERTEX
  5
100
  8
Layer_1
  10
150.4682
  20
216.31348
  0
SEQEND
  0
POLYLINE
  5
102
  8
Layer_1
  62
1
  66
1
  10
0
  20
0
  30
0
  0
VERTEX
  5
102
  8
Layer_1
  10
150.4682
  20
216.31348
  0
VERTEX
  5
103
  8
Layer_1
  10
150.4682
  20
219.31348
  0
SEQEND
  0
POLYLINE
  5
105
  8
Layer_1
  62
1
  66
1
  10
0
  20
0
  30
0
  0
VERTEX
  5
105
  8
Layer_1
  10
150.4682
  20
219.31348
  0
VERTEX
  5
106
  8
Layer_1
  10
129.9682
  20
219.31348
  0
SEQEND
  0
POLYLINE
  5
108
  8
Layer_1
  62
1
  66
1
  10
0
  20
0
  30
0
  0
VERTEX
  5
108
  8
Layer_1
  10
129.9682
  20
244.41348
  0
VERTEX
  5
109
  8
Layer_1
  10
129.9682
  20
274.31348
  0
SEQEND
  0
POLYLINE
  5
10b
  8
Layer_1
  62
1
  66
1
  10
0
  20
0
  30
0
  0
VERTEX
  5
10b
  8
Layer_1
  10
129.9682
  20
299.31348
  0
VERTEX
  5
10c
  8
Layer_1
  10
150.4682
  20
299.31348
  0
SEQEND
  0
ENDSEC
  0
EOF
