  0
SECTION
  2
HEADER
  9
$ACADVER
  1
AC1009
  0
ENDSEC
  0
SECTION
  2
ENTITIES
  0
CIRCLE
  5
90
  8
Layer_1
  62
1
  10
193.79071
  20
207.77785
  30
0
  40
1.5
  0
CIRCLE
  5
90
  8
Layer_1
  62
1
  10
123.79071
  20
207.77785
  30
0
  40
1.5
  0
CIRCLE
  5
90
  8
Layer_1
  62
1
  10
193.79071
  20
260.77783
  30
0
  40
1.5
  0
CIRCLE
  5
90
  8
Layer_1
  62
1
  10
123.79071
  20
260.77783
  30
0
  40
1.5
  0
CIRCLE
  5
90
  8
Layer_1
  62
1
  10
193.79071
  20
323.67786
  30
0
  40
1.5
  0
CIRCLE
  5
90
  8
Layer_1
  62
1
  10
123.79071
  20
323.67786
  30
0
  40
1.5
  0
POLYLINE
  5
90
  8
Layer_1
  62
1
  66
1
  10
0
  20
0
  30
0
  0
VERTEX
  5
90
  8
Layer_1
  10
173.74071
  20
268.27785
  0
VERTEX
  5
91
  8
Layer_1
  10
173.74071
  20
271.37785
  0
VERTEX
  5
92
  8
Layer_1
  10
143.84071
  20
271.37785
  0
VERTEX
  5
93
  8
Layer_1
  10
143.84071
  20
268.27785
  0
VERTEX
  5
94
  8
Layer_1
  10
173.74071
  20
268.27785
  0
SEQEND
  0
POLYLINE
  5
96
  8
Layer_1
  62
1
  66
1
  10
0
  20
0
  30
0
  0
VERTEX
  5
96
  8
Layer_1
  10
113.29071
  20
220.82785
  0
VERTEX
  5
97
  8
Layer_1
  10
116.29071
  20
220.82785
  0
VERTEX
  5
98
  8
Layer_1
  10
116.29071
  20
250.72784
  0
VERTEX
  5
99
  8
Layer_1
  10
113.29071
  20
250.72784
  0
VERTEX
  5
9a
  8
Layer_1
  10
113.29071
  20
296.47784
  0
VERTEX
  5
9b
  8
Layer_1
  10
116.29071
  20
296.47784
  0
VERTEX
  5
9c
  8
Layer_1
  10
116.29071
  20
306.27785
  0
VERTEX
  5
9d
  8
Layer_1
  10
113.29071
  20
306.27785
  0
VERTEX
  5
9e
  8
Layer_1
  10
113.29071
  20
334.27785
  0
VERTEX
  5
9f
  8
Layer_1
  10
143.84071
  20
334.27785
  0
VERTEX
  5
a0
  8
Layer_1
  10
143.84071
  20
331.17785
  0
VERTEX
  5
a1
  8
Layer_1
  10
173.74071
  20
331.17785
  0
VERTEX
  5
a2
  8
Layer_1
  10
173.74071
  20
334.27785
  0
VERTEX
  5
a3
  8
Layer_1
  10
204.29071
  20
334.27785
  0
VERTEX
  5
a4
  8
Layer_1
  10
204.29071
  20
306.27785
  0
VERTEX
  5
a5
  8
Layer_1
  10
201.29071
  20
306.27785
  0
VERTEX
  5
a6
  8
Layer_1
  10
201.29071
  20
296.47784
  0
VERTEX
  5
a7
  8
Layer_1
  10
204.29071
  20
296.47784
  0
VERTEX
  5
a8
  8
Layer_1
  10
204.29071
  20
250.72784
  0
VERTEX
  5
a9
  8
Layer_1
  10
201.29071
  20
250.72784
  0
VERTEX
  5
aa
  8
Layer_1
  10
201.29071
  20
220.82785
  0
VERTEX
  5
ab
  8
Layer_1
  10
204.29071
  20
220.82785
  0
VERTEX
  5
ac
  8
Layer_1
  10
204.29071
  20
197.27785
  0
VERTEX
  5
ad
  8
Layer_1
  10
173.74071
  20
197.27785
  0
VERTEX
  5
ae
  8
Layer_1
  10
173.74071
  20
200.27785
  0
VERTEX
  5
af
  8
Layer_1
  10
143.84071
  20
200.27785
  0
VERTEX
  5
b0
  8
Layer_1
  10
143.84071
  20
197.27785
  0
VERTEX
  5
b1
  8
Layer_1
  10
113.29071
  20
197.27785
  0
VERTEX
  5
b2
  8
Layer_1
  10
113.29071
  20
220.82785
  0
SEQEND
  0
POLYLINE
  5
b4
  8
Layer_0
  62
3
  66
1
  10
0
  20
0
  30
0
  0
VERTEX
  5
b4
  8
Layer_0
  10
180.15836
  20
323.70388
  42
0.20446958
  0
VERTEX
  5
b5
  8
Layer_0
  10
180.44272
  20
323.57864
  42
0.011558639
  0
VERTEX
  5
b6
  8
Layer_0
  10
180.47588
  20
323.57785
  0
VERTEX
  5
b7
  8
Layer_0
  10
180.50049
  20
323.57839
  42
0.13393767
  0
VERTEX
  5
b8
  8
Layer_0
  10
180.73354
  20
323.64709
  0
VERTEX
  5
b9
  8
Layer_0
  10
180.75111
  20
323.65891
  42
0.16122332
  0
VERTEX
  5
ba
  8
Layer_0
  10
180.88242
  20
323.83371
  0
VERTEX
  5
bb
  8
Layer_0
  10
180.88574
  20
323.84377
  0
VERTEX
  5
bc
  8
Layer_0
  10
180.88892
  20
323.85432
  42
0.065454478
  0
VERTEX
  5
bd
  8
Layer_0
  10
180.92235
  20
324.20934
  0
VERTEX
  5
be
  8
Layer_0
  10
180.91684
  20
326.27618
  0
VERTEX
  5
bf
  8
Layer_0
  10
181.31384
  20
326.27724
  0
VERTEX
  5
c0
  8
Layer_0
  10
181.31929
  20
324.2329
  0
VERTEX
  5
c1
  8
Layer_0
  10
181.31921
  20
324.20182
  42
-0.098218813
  0
VERTEX
  5
c2
  8
Layer_0
  10
181.22978
  20
323.64944
  0
VERTEX
  5
c3
  8
Layer_0
  10
181.22205
  20
323.63237
  42
-0.16201813
  0
VERTEX
  5
c4
  8
Layer_0
  10
180.94208
  20
323.33353
  0
VERTEX
  5
c5
  8
Layer_0
  10
180.92554
  20
323.32464
  42
-0.1208356
  0
VERTEX
  5
c6
  8
Layer_0
  10
180.47887
  20
323.22383
  42
-0.21504987
  0
VERTEX
  5
c7
  8
Layer_0
  10
179.87357
  20
323.44937
  42
-0.19418998
  0
VERTEX
  5
c8
  8
Layer_0
  10
179.6702
  20
324.12414
  0
VERTEX
  5
c9
  8
Layer_0
  10
180.02817
  20
324.1742
  42
0.16255753
  0
VERTEX
  5
ca
  8
Layer_0
  10
180.15836
  20
323.70388
  0
SEQEND
  0
POLYLINE
  5
cc
  8
Layer_0
  62
3
  66
1
  10
0
  20
0
  30
0
  0
VERTEX
  5
cc
  8
Layer_0
  10
183.36745
  20
324.33864
  0
VERTEX
  5
cd
  8
Layer_0
  10
183.36226
  20
326.2827
  0
VERTEX
  5
ce
  8
Layer_0
  10
183.06143
  20
326.2819
  0
VERTEX
  5
cf
  8
Layer_0
  10
181.6976
  20
324.33418
  0
VERTEX
  5
d0
  8
Layer_0
  10
181.6985
  20
323.99654
  0
VERTEX
  5
d1
  8
Layer_0
  10
183
  20
324.00001
  0
VERTEX
  5
d2
  8
Layer_0
  10
183.00192
  20
323.28172
  0
VERTEX
  5
d3
  8
Layer_0
  10
183.37027
  20
323.28271
  0
VERTEX
  5
d4
  8
Layer_0
  10
183.36835
  20
324.00099
  0
VERTEX
  5
d5
  8
Layer_0
  10
183.77353
  20
324.00207
  0
VERTEX
  5
d6
  8
Layer_0
  10
183.77263
  20
324.33972
  0
VERTEX
  5
d7
  8
Layer_0
  10
183.36745
  20
324.33864
  0
SEQEND
  0
POLYLINE
  5
d9
  8
Layer_0
  62
3
  66
1
  10
0
  20
0
  30
0
  0
VERTEX
  5
d9
  8
Layer_0
  10
182.05981
  20
324.33515
  0
VERTEX
  5
da
  8
Layer_0
  10
182.9991
  20
324.33766
  0
VERTEX
  5
db
  8
Layer_0
  10
182.99548
  20
325.69032
  0
VERTEX
  5
dc
  8
Layer_0
  10
182.05981
  20
324.33515
  0
SEQEND
  0
POLYLINE
  5
de
  8
Layer_0
  62
3
  66
1
  10
0
  20
0
  30
0
  0
VERTEX
  5
de
  8
Layer_0
  10
185.2393
  20
324.5585
  0
VERTEX
  5
df
  8
Layer_0
  10
185.2403
  20
324.18811
  0
VERTEX
  5
e0
  8
Layer_0
  10
184.10864
  20
324.18509
  0
VERTEX
  5
e1
  8
Layer_0
  10
184.10767
  20
324.55549
  0
VERTEX
  5
e2
  8
Layer_0
  10
185.2393
  20
324.5585
  0
SEQEND
  0
POLYLINE
  5
e4
  8
Layer_0
  62
3
  66
1
  10
0
  20
0
  30
0
  0
VERTEX
  5
e4
  8
Layer_0
  10
186.50761
  20
325.11339
  42
0.05803879
  0
VERTEX
  5
e5
  8
Layer_0
  10
186.12854
  20
324.14546
  42
0.059028425
  0
VERTEX
  5
e6
  8
Layer_0
  10
185.99167
  20
323.2897
  0
VERTEX
  5
e7
  8
Layer_0
  10
186.37025
  20
323.29071
  42
-0.054261426
  0
VERTEX
  5
e8
  8
Layer_0
  10
186.50925
  20
324.11578
  42
-0.057240687
  0
VERTEX
  5
e9
  8
Layer_0
  10
186.94133
  20
325.1565
  42
-0.060605192
  0
VERTEX
  5
ea
  8
Layer_0
  10
187.50705
  20
325.96838
  0
VERTEX
  5
eb
  8
Layer_0
  10
187.50629
  20
326.25488
  0
VERTEX
  5
ec
  8
Layer_0
  10
185.56427
  20
326.24969
  0
VERTEX
  5
ed
  8
Layer_0
  10
185.56522
  20
325.89567
  0
VERTEX
  5
ee
  8
Layer_0
  10
187.03452
  20
325.89959
  42
0.057234602
  0
VERTEX
  5
ef
  8
Layer_0
  10
186.50761
  20
325.11339
  0
SEQEND
  0
ENDSEC
  0
EOF
