  0
SECTION
  2
HEADER
  9
$ACADVER
  1
AC1009
  0
ENDSEC
  0
SECTION
  2
ENTITIES
  0
CIRCLE
  5
90
  8
Layer_0
  62
1
  10
301.07681
  20
233.62735
  30
0
  40
1.5
  0
CIRCLE
  5
90
  8
Layer_0
  62
1
  10
301.07681
  20
298.62735
  30
0
  40
1.5
  0
CIRCLE
  5
90
  8
Layer_0
  62
1
  10
231.07681
  20
233.62735
  30
0
  40
1.5
  0
CIRCLE
  5
90
  8
Layer_0
  62
1
  10
231.07681
  20
298.62735
  30
0
  40
1.5
  0
POLYLINE
  5
90
  8
Layer_0
  62
1
  66
1
  10
0
  20
0
  30
0
  0
VERTEX
  5
90
  8
Layer_0
  10
311.57681
  20
306.12735
  0
VERTEX
  5
91
  8
Layer_0
  10
281.07681
  20
306.12735
  0
VERTEX
  5
92
  8
Layer_0
  10
281.07681
  20
309.12735
  0
VERTEX
  5
93
  8
Layer_0
  10
251.07681
  20
309.12735
  0
VERTEX
  5
94
  8
Layer_0
  10
251.07681
  20
306.12735
  0
VERTEX
  5
95
  8
Layer_0
  10
220.57681
  20
306.12735
  0
VERTEX
  5
96
  8
Layer_0
  10
220.57681
  20
281.07736
  0
VERTEX
  5
97
  8
Layer_0
  10
223.57681
  20
281.07736
  0
VERTEX
  5
98
  8
Layer_0
  10
223.57681
  20
251.17735
  0
VERTEX
  5
99
  8
Layer_0
  10
220.57681
  20
251.17735
  0
VERTEX
  5
9a
  8
Layer_0
  10
220.57681
  20
226.12735
  0
VERTEX
  5
9b
  8
Layer_0
  10
251.07681
  20
226.12735
  0
VERTEX
  5
9c
  8
Layer_0
  10
251.07681
  20
223.12735
  0
VERTEX
  5
9d
  8
Layer_0
  10
281.07681
  20
223.12735
  0
VERTEX
  5
9e
  8
Layer_0
  10
281.07681
  20
226.12735
  0
VERTEX
  5
9f
  8
Layer_0
  10
311.57681
  20
226.12735
  0
VERTEX
  5
a0
  8
Layer_0
  10
311.57681
  20
251.17735
  0
VERTEX
  5
a1
  8
Layer_0
  10
308.57681
  20
251.17735
  0
VERTEX
  5
a2
  8
Layer_0
  10
308.57681
  20
281.07736
  0
VERTEX
  5
a3
  8
Layer_0
  10
311.57681
  20
281.07736
  0
VERTEX
  5
a4
  8
Layer_0
  10
311.57681
  20
306.12735
  0
SEQEND
  0
POLYLINE
  5
a6
  8
Layer_1
  62
3
  66
1
  10
0
  20
0
  30
0
  0
VERTEX
  5
a6
  8
Layer_1
  10
240.18854
  20
300.85651
  42
0.089078492
  0
VERTEX
  5
a7
  8
Layer_1
  10
240.28708
  20
300.77948
  42
0.12580566
  0
VERTEX
  5
a8
  8
Layer_1
  10
240.50607
  20
300.73053
  0
VERTEX
  5
a9
  8
Layer_1
  10
240.5307
  20
300.73108
  42
0.13385456
  0
VERTEX
  5
aa
  8
Layer_1
  10
240.76373
  20
300.7998
  0
VERTEX
  5
ab
  8
Layer_1
  10
240.78131
  20
300.81161
  42
0.15898461
  0
VERTEX
  5
ac
  8
Layer_1
  10
240.9126
  20
300.98642
  0
VERTEX
  5
ad
  8
Layer_1
  10
240.91592
  20
300.99649
  42
0.06985563
  0
VERTEX
  5
ae
  8
Layer_1
  10
240.95248
  20
301.36206
  0
VERTEX
  5
af
  8
Layer_1
  10
240.94675
  20
303.42889
  0
VERTEX
  5
b0
  8
Layer_1
  10
241.34375
  20
303.42999
  0
VERTEX
  5
b1
  8
Layer_1
  10
241.34943
  20
301.38568
  0
VERTEX
  5
b2
  8
Layer_1
  10
241.34935
  20
301.35458
  42
-0.098302653
  0
VERTEX
  5
b3
  8
Layer_1
  10
241.25998
  20
300.80219
  0
VERTEX
  5
b4
  8
Layer_1
  10
241.25226
  20
300.78513
  42
-0.16187457
  0
VERTEX
  5
b5
  8
Layer_1
  10
240.97232
  20
300.48627
  0
VERTEX
  5
b6
  8
Layer_1
  10
240.95576
  20
300.47736
  42
-0.12100015
  0
VERTEX
  5
b7
  8
Layer_1
  10
240.50911
  20
300.37653
  0
VERTEX
  5
b8
  8
Layer_1
  10
240.47652
  20
300.3768
  42
-0.20870303
  0
VERTEX
  5
b9
  8
Layer_1
  10
239.90378
  20
300.60199
  42
-0.19429059
  0
VERTEX
  5
ba
  8
Layer_1
  10
239.70033
  20
301.27673
  0
VERTEX
  5
bb
  8
Layer_1
  10
240.05832
  20
301.32684
  42
0.16248449
  0
VERTEX
  5
bc
  8
Layer_1
  10
240.18854
  20
300.85651
  0
SEQEND
  0
POLYLINE
  5
be
  8
Layer_1
  62
3
  66
1
  10
0
  20
0
  30
0
  0
VERTEX
  5
be
  8
Layer_1
  10
243.4005
  20
300.4357
  0
VERTEX
  5
bf
  8
Layer_1
  10
243.3985
  20
301.15399
  0
VERTEX
  5
c0
  8
Layer_1
  10
243.80368
  20
301.15509
  0
VERTEX
  5
c1
  8
Layer_1
  10
243.80275
  20
301.49274
  0
VERTEX
  5
c2
  8
Layer_1
  10
243.39757
  20
301.49164
  0
VERTEX
  5
c3
  8
Layer_1
  10
243.39217
  20
303.4357
  0
VERTEX
  5
c4
  8
Layer_1
  10
243.09135
  20
303.43484
  0
VERTEX
  5
c5
  8
Layer_1
  10
241.72772
  20
301.487
  0
VERTEX
  5
c6
  8
Layer_1
  10
241.72867
  20
301.14935
  0
VERTEX
  5
c7
  8
Layer_1
  10
243.03015
  20
301.15295
  0
VERTEX
  5
c8
  8
Layer_1
  10
243.03215
  20
300.43466
  0
VERTEX
  5
c9
  8
Layer_1
  10
243.4005
  20
300.4357
  0
SEQEND
  0
POLYLINE
  5
cb
  8
Layer_1
  62
3
  66
1
  10
0
  20
0
  30
0
  0
VERTEX
  5
cb
  8
Layer_1
  10
242.08994
  20
301.48801
  0
VERTEX
  5
cc
  8
Layer_1
  10
243.02922
  20
301.4906
  0
VERTEX
  5
cd
  8
Layer_1
  10
243.02547
  20
302.84326
  0
VERTEX
  5
ce
  8
Layer_1
  10
242.08994
  20
301.48801
  0
SEQEND
  0
POLYLINE
  5
d0
  8
Layer_1
  62
3
  66
1
  10
0
  20
0
  30
0
  0
VERTEX
  5
d0
  8
Layer_1
  10
245.26941
  20
301.7117
  0
VERTEX
  5
d1
  8
Layer_1
  10
245.27043
  20
301.34131
  0
VERTEX
  5
d2
  8
Layer_1
  10
244.13879
  20
301.33817
  0
VERTEX
  5
d3
  8
Layer_1
  10
244.13776
  20
301.70856
  0
VERTEX
  5
d4
  8
Layer_1
  10
245.26941
  20
301.7117
  0
SEQEND
  0
POLYLINE
  5
d6
  8
Layer_1
  62
3
  66
1
  10
0
  20
0
  30
0
  0
VERTEX
  5
d6
  8
Layer_1
  10
247.28749
  20
302.32507
  42
0.13626896
  0
VERTEX
  5
d7
  8
Layer_1
  10
247.39024
  20
302.64722
  0
VERTEX
  5
d8
  8
Layer_1
  10
247.39087
  20
302.67938
  42
0.12725688
  0
VERTEX
  5
d9
  8
Layer_1
  10
247.29788
  20
303.0354
  0
VERTEX
  5
da
  8
Layer_1
  10
247.28032
  20
303.06586
  42
0.12669536
  0
VERTEX
  5
db
  8
Layer_1
  10
247.01358
  20
303.32507
  42
0.016623609
  0
VERTEX
  5
dc
  8
Layer_1
  10
246.96335
  20
303.35248
  42
0.12011613
  0
VERTEX
  5
dd
  8
Layer_1
  10
246.51082
  20
303.45663
  42
0.18276743
  0
VERTEX
  5
de
  8
Layer_1
  10
245.91588
  20
303.25134
  42
0.17657798
  0
VERTEX
  5
df
  8
Layer_1
  10
245.61052
  20
302.67648
  0
VERTEX
  5
e0
  8
Layer_1
  10
245.97905
  20
302.61203
  42
-0.16854675
  0
VERTEX
  5
e1
  8
Layer_1
  10
246.16211
  20
303.01773
  42
-0.19759763
  0
VERTEX
  5
e2
  8
Layer_1
  10
246.51984
  20
303.15378
  42
-0.17148811
  0
VERTEX
  5
e3
  8
Layer_1
  10
246.83862
  20
303.05283
  0
VERTEX
  5
e4
  8
Layer_1
  10
246.85077
  20
303.04294
  0
VERTEX
  5
e5
  8
Layer_1
  10
246.86264
  20
303.03256
  0
VERTEX
  5
e6
  8
Layer_1
  10
246.87424
  20
303.02176
  42
-0.20229667
  0
VERTEX
  5
e7
  8
Layer_1
  10
247.01199
  20
302.70328
  0
VERTEX
  5
e8
  8
Layer_1
  10
247.01227
  20
302.68652
  42
-0.25523036
  0
VERTEX
  5
e9
  8
Layer_1
  10
246.84039
  20
302.31793
  0
VERTEX
  5
ea
  8
Layer_1
  10
246.82506
  20
302.30743
  42
-0.142119
  0
VERTEX
  5
eb
  8
Layer_1
  10
246.42133
  20
302.18375
  0
VERTEX
  5
ec
  8
Layer_1
  10
246.40179
  20
302.18347
  0
VERTEX
  5
ed
  8
Layer_1
  10
246.39795
  20
302.18347
  0
VERTEX
  5
ee
  8
Layer_1
  10
246.39389
  20
302.18356
  42
0.0008559898
  0
VERTEX
  5
ef
  8
Layer_1
  10
246.38055
  20
302.18411
  42
-0.00028708788
  0
VERTEX
  5
f0
  8
Layer_1
  10
246.37067
  20
302.18478
  42
0.0010433885
  0
VERTEX
  5
f1
  8
Layer_1
  10
246.35432
  20
302.18619
  42
-0.00051609626
  0
VERTEX
  5
f2
  8
Layer_1
  10
246.34244
  20
302.18738
  0
VERTEX
  5
f3
  8
Layer_1
  10
246.30241
  20
301.86395
  42
-0.061694457
  0
VERTEX
  5
f4
  8
Layer_1
  10
246.56219
  20
301.90561
  42
-0.19562926
  0
VERTEX
  5
f5
  8
Layer_1
  10
246.97018
  20
301.75543
  0
VERTEX
  5
f6
  8
Layer_1
  10
246.98419
  20
301.74203
  42
-0.19929935
  0
VERTEX
  5
f7
  8
Layer_1
  10
247.15077
  20
301.345
  0
VERTEX
  5
f8
  8
Layer_1
  10
247.15112
  20
301.32401
  42
-0.19669623
  0
VERTEX
  5
f9
  8
Layer_1
  10
246.98787
  20
300.89261
  0
VERTEX
  5
fa
  8
Layer_1
  10
246.9733
  20
300.87741
  42
-0.19867962
  0
VERTEX
  5
fb
  8
Layer_1
  10
246.55637
  20
300.69647
  0
VERTEX
  5
fc
  8
Layer_1
  10
246.53485
  20
300.69611
  42
-0.13277237
  0
VERTEX
  5
fd
  8
Layer_1
  10
246.25783
  20
300.76465
  42
-0.055640711
  0
VERTEX
  5
fe
  8
Layer_1
  10
246.16306
  20
300.83319
  42
-0.15726523
  0
VERTEX
  5
ff
  8
Layer_1
  10
245.94591
  20
301.28384
  0
VERTEX
  5
100
  8
Layer_1
  10
245.5777
  20
301.2337
  42
0.19274102
  0
VERTEX
  5
101
  8
Layer_1
  10
245.87714
  20
300.62469
  42
0.18416581
  0
VERTEX
  5
102
  8
Layer_1
  10
246.50098
  20
300.39151
  0
VERTEX
  5
103
  8
Layer_1
  10
246.53366
  20
300.3912
  42
0.18948945
  0
VERTEX
  5
104
  8
Layer_1
  10
247.23323
  20
300.64404
  0
VERTEX
  5
105
  8
Layer_1
  10
247.25731
  20
300.66638
  42
0.20414212
  0
VERTEX
  5
106
  8
Layer_1
  10
247.54155
  20
301.30075
  0
VERTEX
  5
107
  8
Layer_1
  10
247.54196
  20
301.33328
  42
0.15834374
  0
VERTEX
  5
108
  8
Layer_1
  10
247.40533
  20
301.8006
  0
VERTEX
  5
109
  8
Layer_1
  10
247.39326
  20
301.81683
  42
0.10039895
  0
VERTEX
  5
10a
  8
Layer_1
  10
247.19835
  20
301.98706
  42
0.074671507
  0
VERTEX
  5
10b
  8
Layer_1
  10
246.97919
  20
302.07047
  42
0.13547443
  0
VERTEX
  5
10c
  8
Layer_1
  10
247.27866
  20
302.31186
  0
VERTEX
  5
10d
  8
Layer_1
  10
247.28749
  20
302.32507
  0
SEQEND
  0
ENDSEC
  0
EOF
